<svg width="16" height="14" viewBox="0 0 16 14" fill="none" xmlns="http://www.w3.org/2000/svg">
<path d="M14.1124 9.85185H1.44314C0.64737 9.85185 0 9.20448 0 8.40871V1.44314C0 0.64737 0.64737 0 1.44314 0H14.1124C14.9082 0 15.5556 0.64737 15.5556 1.44314V8.40871C15.5556 9.20448 14.9082 9.85185 14.1124 9.85185ZM1.44314 1.03704C1.21935 1.03704 1.03704 1.21935 1.03704 1.44314V8.40871C1.03704 8.6325 1.21935 8.81481 1.44314 8.81481H14.1124C14.3362 8.81481 14.5185 8.6325 14.5185 8.40871V1.44314C14.5185 1.21935 14.3362 1.03704 14.1124 1.03704H1.44314Z" fill="black"/>
<path d="M7.77767 7.2592C6.49102 7.2592 5.44434 6.21251 5.44434 4.92586C5.44434 3.63921 6.49102 2.59253 7.77767 2.59253C9.06432 2.59253 10.111 3.63921 10.111 4.92586C10.111 6.21251 9.06432 7.2592 7.77767 7.2592ZM7.77767 3.62957C7.06294 3.62957 6.48137 4.21114 6.48137 4.92586C6.48137 5.64059 7.06294 6.22216 7.77767 6.22216C8.4924 6.22216 9.07397 5.64059 9.07397 4.92586C9.07397 4.21114 8.4924 3.62957 7.77767 3.62957Z" fill="black"/>
<path d="M12.4443 7.2592C12.1598 7.2592 11.9258 7.02514 11.9258 6.74068V3.11105C11.9258 2.82659 12.1598 2.59253 12.4443 2.59253C12.7288 2.59253 12.9628 2.82659 12.9628 3.11105V6.74068C12.9628 7.02514 12.7288 7.2592 12.4443 7.2592Z" fill="black"/>
<path d="M3.11129 7.2592C2.82683 7.2592 2.59277 7.02514 2.59277 6.74068V3.11105C2.59277 2.82659 2.82683 2.59253 3.11129 2.59253C3.39575 2.59253 3.62981 2.82659 3.62981 3.11105V6.74068C3.62981 7.02514 3.39575 7.2592 3.11129 7.2592Z" fill="black"/>
<path d="M14.5186 13.9999H1.03707C0.750747 13.9999 0.518555 13.7677 0.518555 13.4814C0.518555 13.1951 0.750747 12.9629 1.03707 12.9629H14.5186C14.8049 12.9629 15.0371 13.1951 15.0371 13.4814C15.0371 13.7677 14.8049 13.9999 14.5186 13.9999Z" fill="black"/>
<path d="M14.5186 11.926H1.03707C0.750747 11.926 0.518555 11.6938 0.518555 11.4074C0.518555 11.1211 0.750747 10.8889 1.03707 10.8889H14.5186C14.8049 10.8889 15.0371 11.1211 15.0371 11.4074C15.0371 11.6938 14.8049 11.926 14.5186 11.926Z" fill="black"/>
</svg>
