<svg width="14" height="14" viewBox="0 0 14 14" fill="none" xmlns="http://www.w3.org/2000/svg">
<path d="M12.5645 6.79492H10.1703C10.4368 6.53414 10.6025 6.17091 10.6025 5.76953V1.43555C10.6025 0.644 9.95857 0 9.16699 0H4.83301C4.04146 0 3.39746 0.644 3.39746 1.43555V5.76953C3.39746 6.17091 3.56325 6.53414 3.82971 6.79492H1.43555C0.644 6.79492 0 7.43892 0 8.23047V12.5645C0 13.356 0.644 14 1.43555 14H5.76953C6.29106 14 6.74857 13.7204 7 13.3033C7.25143 13.7204 7.70891 14 8.23047 14H11.5391V13.5898H8.23047C7.66508 13.5898 7.20508 13.1299 7.20508 12.5645V8.23047C7.20508 7.66505 7.66505 7.20508 8.23047 7.20508H12.5645C13.1298 7.20508 13.5898 7.66505 13.5898 8.23047V12.5645C13.5898 13.1299 13.1299 13.5898 12.5645 13.5898H11.9492V14H12.5645C13.356 14 14 13.356 14 12.5645V8.23047C14 7.43892 13.356 6.79492 12.5645 6.79492ZM6.79492 12.5645C6.79492 13.1299 6.33495 13.5898 5.76953 13.5898H1.43555C0.87016 13.5898 0.410156 13.1299 0.410156 12.5645V8.23047C0.410156 7.66505 0.870133 7.20508 1.43555 7.20508H5.76953C6.33492 7.20508 6.79492 7.66505 6.79492 8.23047V12.5645ZM7 7.49167C6.93673 7.38667 6.86038 7.29036 6.77327 7.20508H7.22676C7.13962 7.29036 7.06327 7.38669 7 7.49167ZM4.83301 6.79492C4.26762 6.79492 3.80762 6.33495 3.80762 5.76953V1.43555C3.80762 0.870133 4.26759 0.410156 4.83301 0.410156H9.16699C9.73238 0.410156 10.1924 0.870133 10.1924 1.43555V5.76953C10.1924 6.33495 9.73241 6.79492 9.16699 6.79492H4.83301Z" fill="black"/>
<path d="M9.16699 0.820312H4.83301C4.49378 0.820312 4.21777 1.09632 4.21777 1.43555V2.05078H4.62793V1.43555C4.62793 1.32439 4.72186 1.23047 4.83301 1.23047H9.16699C9.27814 1.23047 9.37207 1.32439 9.37207 1.43555V5.76953C9.37207 5.88068 9.27814 5.97461 9.16699 5.97461H4.83301C4.72186 5.97461 4.62793 5.88068 4.62793 5.76953V2.46094H4.21777V5.76953C4.21777 6.10876 4.49375 6.38477 4.83301 6.38477H9.16699C9.50625 6.38477 9.78223 6.10876 9.78223 5.76953V1.43555C9.78223 1.09632 9.50625 0.820312 9.16699 0.820312Z" fill="black"/>
<path d="M3.59712 9.21143C3.26404 9.21143 2.97573 9.44839 2.91161 9.77484L2.87207 9.97607L3.27454 10.0551L3.31408 9.85389C3.34052 9.71928 3.45958 9.62158 3.59714 9.62158C3.67937 9.62158 3.75883 9.65562 3.81513 9.71499C3.86429 9.7668 3.88942 9.83224 3.88589 9.89929C3.87859 10.0382 3.82773 10.154 3.7258 10.2639L2.98071 11.0666V11.5799L4.27018 11.5843L4.27161 11.1742L3.44304 11.1713L4.02639 10.5429C4.19266 10.3637 4.2832 10.1545 4.29548 9.92078C4.30496 9.74023 4.24005 9.56689 4.11266 9.43261C3.97925 9.29206 3.79134 9.21143 3.59712 9.21143Z" fill="black"/>
<path d="M7.30762 4.66776V2.33228H6.4873V2.74243H6.89746V4.66776H7.30762Z" fill="black"/>
<path d="M10.3974 9.21387C10.0664 9.21387 9.77991 9.44935 9.71617 9.77384L10.1186 9.85289C10.1447 9.72027 10.2619 9.62405 10.3974 9.62405C10.5541 9.62405 10.6816 9.75153 10.6816 9.90823C10.6816 10.0649 10.5541 10.1924 10.3974 10.1924V10.6025C10.5541 10.6025 10.6816 10.73 10.6816 10.8867C10.6816 11.0434 10.5541 11.1709 10.3974 11.1709C10.2408 11.1709 10.1133 11.0434 10.1133 10.8867H9.70312C9.70312 11.2695 10.0146 11.581 10.3974 11.581C10.7803 11.581 11.0917 11.2695 11.0917 10.8867C11.0917 10.696 11.0145 10.5231 10.8897 10.3975C11.0145 10.2719 11.0917 10.0989 11.0917 9.90823C11.0917 9.52531 10.7803 9.21387 10.3974 9.21387Z" fill="black"/>
<path d="M5.76953 7.61523H1.43555C1.09629 7.61523 0.820312 7.89124 0.820312 8.23047V12.5645C0.820312 12.9037 1.09629 13.1797 1.43555 13.1797H5.76953C6.10876 13.1797 6.38477 12.9037 6.38477 12.5645V8.23047C6.38477 7.89124 6.10879 7.61523 5.76953 7.61523ZM5.97461 12.5645C5.97461 12.6756 5.88068 12.7695 5.76953 12.7695H1.43555C1.32439 12.7695 1.23047 12.6756 1.23047 12.5645V8.23047C1.23047 8.11932 1.32439 8.02539 1.43555 8.02539H5.76953C5.88068 8.02539 5.97461 8.11932 5.97461 8.23047V12.5645Z" fill="black"/>
<path d="M13.1797 12.5645V8.23047C13.1797 7.89124 12.9037 7.61523 12.5645 7.61523H8.23047C7.89121 7.61523 7.61523 7.89124 7.61523 8.23047V12.5645C7.61523 12.9037 7.89121 13.1797 8.23047 13.1797H12.5645C12.9037 13.1797 13.1797 12.9037 13.1797 12.5645ZM8.02539 12.5645V8.23047C8.02539 8.11932 8.11932 8.02539 8.23047 8.02539H12.5645C12.6756 8.02539 12.7695 8.11932 12.7695 8.23047V12.5645C12.7695 12.6756 12.6756 12.7695 12.5645 12.7695H8.23047C8.11929 12.7695 8.02539 12.6756 8.02539 12.5645Z" fill="black"/>
<path d="M8.55176 1.64062H8.96191V2.05078H8.55176V1.64062Z" fill="black"/>
<path d="M8.55176 2.46094H8.96191V2.87109H8.55176V2.46094Z" fill="black"/>
</svg>
