<svg width="14" height="15" viewBox="0 0 14 15" fill="none" xmlns="http://www.w3.org/2000/svg">
<path d="M4.29238 5.97083C4.29238 5.81021 4.43137 5.71427 4.66424 5.71427C4.97227 5.71427 5.24882 5.848 5.50315 6.00877L5.8104 5.20714C5.56849 5.05305 5.30132 4.93938 5.0157 4.90062V4.33594H4.19866V4.95146C3.67393 5.10691 3.3385 5.52741 3.3385 6.03818C3.3385 6.71133 3.88696 7.0149 4.42268 7.22272C4.86152 7.39828 4.92199 7.54688 4.92199 7.68127C4.92199 7.87195 4.73865 8.00511 4.47616 8.00511C4.12325 8.00511 3.81594 7.83909 3.53729 7.63887L3.24219 8.45252C3.51538 8.65456 3.81914 8.78245 4.15878 8.82633V9.41147H4.98159V8.77887C5.52264 8.6169 5.88164 8.16711 5.88164 7.64185C5.88164 7.06204 5.57474 6.69118 4.85549 6.40182C4.33154 6.18766 4.29238 6.09213 4.29238 5.97083Z" fill="white"/>
<path d="M12.8596 9.12704C12.8596 7.69554 11.6808 6.53096 10.232 6.53096C9.71296 6.53096 9.22902 6.68104 8.82107 6.9387C8.61372 5.65819 8.01743 4.38558 7.22173 3.48378C8.02308 3.6572 8.64946 4.09902 9.08626 4.80066L9.93882 4.2699C9.28247 3.21557 8.26734 2.57949 7.00327 2.43039C6.89236 2.4173 6.78421 2.40867 6.67949 2.40346L7.45296 1.06602C7.64258 0.738155 7.38929 0.3125 7.0183 0.3125H1.88267C1.5146 0.3125 1.26071 0.735017 1.44562 1.06188L2.42604 2.79481C1.04105 3.80288 0 5.95162 0 7.89976C0 10.9042 2.53996 11.2516 4.4505 11.2516C5.54723 11.2516 6.98077 11.1416 7.91835 10.3547C7.97484 10.4581 8.0378 10.5575 8.10741 10.652C7.45435 10.9212 7.0946 11.3208 7.0946 11.802V11.802V13.4901C7.0946 14.5275 8.72092 15 10.232 15C11.7431 15 13.3694 14.5275 13.3694 13.4901V11.802C13.3694 11.802 13.3694 11.802 13.3694 11.802C13.3694 11.3208 13.0096 10.9212 12.3566 10.652C12.6725 10.2235 12.8596 9.69656 12.8596 9.12704ZM6.14785 1.31677C6.14785 1.31677 5.39505 2.50241 5.36772 2.50863H3.41801L2.74371 1.31677H6.14785ZM4.4505 10.2474C1.59033 10.2474 1.00427 9.30888 1.00427 7.89976C1.00427 7.04637 1.24671 6.10684 1.6869 5.25425C2.08368 4.48579 2.61324 3.85897 3.15423 3.5129H5.7467C6.28772 3.85897 6.81729 4.48579 7.21404 5.25425C7.65755 6.11325 7.82925 6.98358 7.89823 7.93641C7.69606 8.32168 7.59384 8.76403 7.6059 9.199C7.32178 9.67839 6.64452 10.2474 4.4505 10.2474ZM10.232 7.53524C11.1271 7.53524 11.8553 8.2493 11.8553 9.12704C11.8553 10.0048 11.1271 10.7188 10.232 10.7188C9.33692 10.7188 8.60869 10.0048 8.60869 9.12704C8.60869 8.2493 9.33692 7.53524 10.232 7.53524ZM9.00783 11.4232C9.37367 11.6143 9.79013 11.7232 10.232 11.7232C10.6739 11.7232 11.0903 11.6143 11.4562 11.4232C11.9786 11.5411 12.2599 11.7101 12.3463 11.8025C12.1912 11.9726 11.4594 12.3076 10.232 12.3076C9.00466 12.3076 8.27292 11.9726 8.11773 11.8025C8.2041 11.7101 8.48545 11.5411 9.00783 11.4232ZM12.3651 13.4666C12.2624 13.6267 11.5202 13.9957 10.232 13.9957C8.94381 13.9957 8.20162 13.6267 8.09887 13.4666V12.9469C8.69406 13.1941 9.47739 13.3119 10.232 13.3119C10.9866 13.3119 11.7699 13.1941 12.3651 12.9469V13.4666Z" fill="white"/>
<path d="M10.3605 8.8897C10.1328 8.79693 10.1328 8.762 10.1328 8.73121C10.1328 8.70168 10.1497 8.65219 10.2632 8.65219C10.3986 8.65219 10.5422 8.71869 10.6514 8.79683L10.8117 8.37965C10.7045 8.31186 10.5729 8.25063 10.4526 8.2303V7.97656H10.0234V8.25676C9.78804 8.33493 9.64337 8.52537 9.64337 8.7609C9.64337 9.07991 9.9111 9.22453 10.1439 9.31466C10.3432 9.39409 10.3432 9.45109 10.3432 9.48511C10.3432 9.55117 10.2792 9.59385 10.1802 9.59385C10.0249 9.59385 9.86594 9.51251 9.74797 9.41459L9.59375 9.83792C9.71348 9.93311 9.8543 9.99471 10.0058 10.0192V10.2817H10.4374V9.99396C10.6802 9.91249 10.8351 9.70925 10.8351 9.46769C10.835 9.12024 10.5643 8.97142 10.3605 8.8897Z" fill="white"/>
</svg>
