<svg width="16" height="16" viewBox="0 0 16 16" fill="none" xmlns="http://www.w3.org/2000/svg">
<path d="M7.05404 1.02848C6.47036 1.1898 5.88375 1.71482 5.42325 2.49502C4.75451 3.62718 4.29402 5.39876 4.16203 7.33752C4.11804 7.97693 4.14443 9.68692 4.20603 10.209C4.22949 10.4173 4.25296 10.5991 4.25296 10.6079C4.25296 10.6431 3.57835 10.4583 3.13839 10.3087C2.05902 9.93623 1.27002 9.41121 1.01191 8.89499C0.803662 8.47849 0.894588 8.12065 1.31402 7.70122C1.49587 7.51937 2.00036 7.14394 2.06195 7.14394C2.06782 7.14394 2.11768 7.26713 2.17048 7.41378C2.22327 7.56337 2.27607 7.69829 2.2878 7.71002C2.31126 7.73642 3.69567 6.07923 3.69567 6.02644C3.69567 6.01177 3.68981 6.00004 3.67808 6.00004C3.66928 6.00004 3.18825 5.92085 2.60457 5.82406C2.02382 5.72727 1.53986 5.65101 1.534 5.6598C1.5252 5.66567 1.5692 5.80646 1.63079 5.96778C1.68945 6.13203 1.73345 6.26988 1.72758 6.27575C1.72171 6.28162 1.61319 6.34614 1.48707 6.4224C1.1439 6.62479 0.853525 6.85357 0.595414 7.12634C0.181851 7.5663 0 7.9828 0 8.49609C0 8.64567 0.0205315 8.84512 0.0439961 8.93312C0.237579 9.67518 0.979647 10.3733 2.11181 10.8836C2.68083 11.1447 3.58715 11.4321 4.1855 11.5465C4.28816 11.5641 4.38201 11.5963 4.39668 11.6139C4.41134 11.6315 4.43774 11.7254 4.45827 11.8222C4.57853 12.4411 4.86011 13.3239 5.11822 13.89C5.41446 14.55 5.73123 15.0192 6.15066 15.4152C6.43223 15.6851 6.7578 15.8757 7.06871 15.9578C7.27403 16.0136 7.74038 16.0136 7.93983 15.9608C9.04854 15.6645 9.97245 14.283 10.474 12.1742C10.5415 11.9014 10.6031 11.655 10.6148 11.6315C10.6295 11.6081 10.6911 11.5787 10.7527 11.5641C11.8115 11.3412 12.8351 10.9745 13.498 10.5815C14.114 10.2178 14.592 9.76318 14.8062 9.34081C14.8766 9.20589 14.9499 9.02111 14.9733 8.93312C15.0291 8.72487 15.0291 8.26144 14.9733 8.05319C14.7798 7.31113 14.0377 6.61305 12.9055 6.1027C12.3365 5.84165 11.4302 5.55421 10.8318 5.43982C10.7292 5.42223 10.6353 5.38996 10.6207 5.37236C10.606 5.35476 10.5796 5.26091 10.5591 5.16411C10.4975 4.84148 10.3274 4.2226 10.1924 3.8325C9.8698 2.89392 9.47676 2.19291 8.97814 1.67962C8.64377 1.33352 8.31233 1.12527 7.93983 1.02555C7.74625 0.975684 7.24763 0.975684 7.05404 1.02848ZM7.88704 1.98759C8.24487 2.15771 8.6643 2.64754 8.96934 3.25762C9.20692 3.73864 9.46797 4.47778 9.60289 5.05852L9.64688 5.24331L9.52369 5.22571C8.99281 5.15238 8.62324 5.13478 7.50867 5.13478C6.3941 5.13478 6.02454 5.15238 5.49365 5.22571L5.37339 5.24331L5.46139 4.89721C5.82509 3.4512 6.47036 2.31317 7.10684 1.99639C7.38548 1.85561 7.60546 1.85267 7.88704 1.98759ZM8.69657 6.0587C9.05733 6.0851 9.7994 6.17016 9.817 6.18482C9.8346 6.20536 9.94312 7.28179 9.95779 7.6191L9.97832 8.02093L9.65275 8.02973L9.32718 8.03853L9.83753 8.99178C10.1191 9.5168 10.3626 9.94503 10.3802 9.94503C10.3977 9.94503 10.6676 9.52853 10.9814 9.02111C11.4185 8.31717 11.5416 8.09719 11.5035 8.09132C11.4771 8.08839 11.3275 8.07666 11.1721 8.06786L10.8905 8.04733L10.87 7.6191C10.8582 7.38152 10.8289 7.00609 10.8054 6.78024C10.782 6.55733 10.7644 6.37254 10.7644 6.36668C10.7644 6.34321 11.5094 6.55146 11.879 6.67758C12.6738 6.95329 13.2663 7.27886 13.6799 7.67189C14.2489 8.21451 14.2547 8.73073 13.7004 9.28802C12.9319 10.0594 11.3833 10.6167 9.31251 10.8719C8.6819 10.9481 7.08631 10.9804 6.37944 10.9305C5.97174 10.9012 5.21794 10.8191 5.20034 10.8015C5.19741 10.7986 5.17394 10.6372 5.15048 10.4436C5.00676 9.31148 5.00676 7.67483 5.15048 6.54266C5.17394 6.34908 5.19741 6.18776 5.20327 6.18482C5.21501 6.17309 5.95707 6.08803 6.27678 6.06164C6.72554 6.02644 8.22141 6.02351 8.69657 6.0587ZM5.79282 11.7958C6.39704 11.8662 8.14808 11.8838 8.85789 11.8251C9.17172 11.7987 9.4797 11.7694 9.53836 11.7606L9.64395 11.743L9.56476 12.0598C9.24798 13.2975 8.79629 14.2273 8.26834 14.723C7.72279 15.2392 7.2183 15.2216 6.68741 14.6643C6.29438 14.2508 5.96881 13.6583 5.6931 12.8634C5.54351 12.4235 5.35873 11.7489 5.39392 11.7489C5.40272 11.7489 5.58457 11.7723 5.79282 11.7958Z" fill="white"/>
</svg>
