<svg width="19" height="14" viewBox="0 0 19 14" fill="none" xmlns="http://www.w3.org/2000/svg">
<path d="M15.8477 5.74825L15.089 4.90737L9.66579 9.8004L10.4245 10.6413C11.0198 10.3936 11.7315 10.5323 12.1881 11.0383C12.7671 11.6801 12.7163 12.6698 12.0744 13.2489C11.4326 13.828 10.4429 13.7771 9.86381 13.1353C9.40728 12.6293 9.34229 11.9071 9.64971 11.3403L8.89104 10.4994L5.59835 13.4702C4.84956 14.1458 3.69487 14.0864 3.01928 13.3376C2.34369 12.5888 2.40304 11.4341 3.15183 10.7586L3.34552 10.5838L2.58685 9.74292C1.99155 9.99063 1.27979 9.85193 0.823259 9.34593C0.244184 8.70411 0.295052 7.71437 0.936876 7.1353C1.5787 6.55622 2.56844 6.60709 3.14751 7.24892C3.60404 7.75491 3.66903 8.47714 3.3616 9.04392L4.12027 9.8848L9.54353 4.99176L8.78486 4.15088C8.18955 4.39858 7.47779 4.25989 7.02126 3.75389C6.44219 3.11207 6.49306 2.12233 7.13488 1.54326C7.77671 0.964182 8.76644 1.01505 9.34551 1.65687C9.80204 2.16287 9.86704 2.8851 9.55961 3.45187L10.3183 4.29276L13.611 1.32198C14.3598 0.646396 15.5145 0.705743 16.19 1.45454C16.8656 2.20333 16.8063 3.35802 16.0575 4.03361L15.8638 4.20836L16.6225 5.04924C17.2178 4.80154 17.9295 4.94024 18.3861 5.44623C18.9651 6.08806 18.9143 7.07779 18.2724 7.65687C17.6306 8.23594 16.6409 8.18507 16.0618 7.54325C15.6053 7.03725 15.5403 6.31502 15.8477 5.74825ZM3.85084 11.5333C3.52993 11.8228 3.50449 12.3177 3.79403 12.6386C4.08357 12.9595 4.57844 12.985 4.89935 12.6954L6.64254 11.1227L5.59403 9.96054L3.85084 11.5333ZM10.5163 7.62764L12.8405 5.53063L11.792 4.3685L9.46778 6.46552L10.5163 7.62764ZM6.36878 9.26154L7.41729 10.4237L9.74154 8.32665L8.69303 7.16452L6.36878 9.26154ZM13.6153 4.83162L15.3585 3.25886C15.6794 2.96932 15.7048 2.47446 15.4153 2.15354C15.1258 1.83263 14.6309 1.8072 14.31 2.09673L12.5668 3.6695L13.6153 4.83162ZM2.33489 8.6848C2.54883 8.49178 2.56578 8.16186 2.37276 7.94792C2.17973 7.73398 1.84982 7.71702 1.63588 7.91005C1.42194 8.10307 1.40498 8.43299 1.59801 8.64693C1.79103 8.86087 2.12095 8.87783 2.33489 8.6848ZM8.53289 3.09276C8.74683 2.89973 8.76379 2.56982 8.57076 2.35588C8.37774 2.14194 8.04783 2.12498 7.83389 2.31801C7.61994 2.51103 7.60299 2.84094 7.79601 3.05489C7.98904 3.26883 8.31895 3.28578 8.53289 3.09276ZM10.6764 11.6994C10.4625 11.8924 10.4455 12.2223 10.6386 12.4363C10.8316 12.6502 11.1615 12.6672 11.3754 12.4742C11.5894 12.2811 11.6063 11.9512 11.4133 11.7373C11.2203 11.5233 10.8904 11.5064 10.6764 11.6994ZM16.8744 6.10737C16.6605 6.30039 16.6435 6.6303 16.8366 6.84424C17.0296 7.05819 17.3595 7.07514 17.5734 6.88212C17.7874 6.68909 17.8043 6.35918 17.6113 6.14524C17.4183 5.9313 17.0884 5.91434 16.8744 6.10737Z" fill="white"/>
</svg>
