<svg width="21" height="21" viewBox="0 0 21 21" fill="none" xmlns="http://www.w3.org/2000/svg">
<g clip-path="url(#clip0_297_6823)">
<path d="M9.00001 0C6.52358 0 4.5 2.0236 4.5 4.50001C4.5 6.97642 6.52358 9.00003 9.00001 9.00003C11.4764 9.00003 13.5 6.97642 13.5 4.50001C13.5 2.0236 11.4764 0 9.00001 0ZM9.00001 1.5C10.6658 1.5 12 2.83427 12 4.50001C12 6.16575 10.6658 7.50002 9.00001 7.50002C7.33426 7.50002 6 6.16575 6 4.50001C6 2.83427 7.33426 1.5 9.00001 1.5Z" fill="#999999"/>
<path d="M6.75002 10.5001C3.02348 10.5001 0 13.5236 0 17.2501V18.7501C1.98678e-05 18.949 0.0790441 19.1398 0.219693 19.2804C0.360341 19.4211 0.551095 19.5001 0.750002 19.5001H8.8858C8.98519 19.5015 9.08386 19.4831 9.17609 19.4461C9.26831 19.409 9.35225 19.354 9.42303 19.2842C9.4938 19.2144 9.55001 19.1313 9.58837 19.0396C9.62673 18.9479 9.64648 18.8495 9.64648 18.7501C9.64648 18.6507 9.62673 18.5523 9.58837 18.4606C9.55001 18.3689 9.4938 18.2858 9.42303 18.216C9.35225 18.1462 9.26831 18.0912 9.17609 18.0541C9.08386 18.0171 8.98519 17.9987 8.8858 18.0001H1.5V17.2501C1.5 14.3286 3.82854 12.0001 6.75002 12.0001H9.76173C9.86111 12.0015 9.95979 11.9831 10.052 11.9461C10.1442 11.909 10.2282 11.854 10.299 11.7842C10.3697 11.7144 10.4259 11.6313 10.4643 11.5396C10.5027 11.4479 10.5224 11.3495 10.5224 11.2501C10.5224 11.1507 10.5027 11.0523 10.4643 10.9606C10.4259 10.8689 10.3697 10.7857 10.299 10.716C10.2282 10.6462 10.1442 10.5912 10.052 10.5541C9.95979 10.517 9.86111 10.4987 9.76173 10.5001H6.75002Z" fill="#999999"/>
<path d="M15.7401 10.5C15.3219 10.5068 14.9918 10.8466 14.9975 11.2602V12.0761C14.5201 12.1745 14.0754 12.3664 13.6821 12.6284L13.1064 12.0527C12.9296 11.8709 12.729 11.8024 12.5395 11.8125C11.9714 11.8428 11.5003 12.583 12.0458 13.1132L12.6244 13.6918C12.3638 14.0856 12.1721 14.5298 12.0751 15.0072H11.2607C10.2464 14.9928 10.2464 16.5215 11.2607 16.5071H12.078C12.1761 16.9801 12.367 17.4203 12.6259 17.8108L12.0428 18.3938C11.3156 19.1008 12.3964 20.1815 13.1034 19.4543L13.685 18.8728C14.0777 19.1338 14.5212 19.3254 14.9975 19.4235V20.2394C14.9832 21.2536 16.5117 21.2536 16.4974 20.2394V19.425C16.9733 19.3277 17.4159 19.1356 17.8084 18.8757L18.3944 19.4616C18.6892 19.7648 19.1771 19.7648 19.4681 19.4646C19.759 19.1641 19.7517 18.6896 19.4546 18.4012L18.8716 17.8182C19.1328 17.4261 19.3238 16.9828 19.4223 16.5072H20.2397C20.6625 16.5132 21.0065 16.1681 21 15.7499C20.9925 15.3317 20.6533 15.0016 20.2397 15.0072H19.4253C19.3278 14.5272 19.136 14.08 18.8731 13.6845L19.4516 13.106C19.7548 12.8112 19.7549 12.3233 19.4516 12.0323C19.3022 11.8875 19.1097 11.8165 18.9185 11.8184C18.7272 11.8222 18.5375 11.898 18.394 12.0454L17.8139 12.6255C17.4207 12.3647 16.977 12.1722 16.5 12.0747V11.2603C16.5075 10.8375 16.1608 10.4936 15.7427 10.5001L15.7401 10.5ZM15.7506 13.4999C17.0022 13.4999 18.0006 14.4983 18.0006 15.7498C18.0006 17.0013 17.0022 17.9997 15.7506 17.9997C14.499 17.9997 13.5006 17.0013 13.5006 15.7498C13.5006 14.4983 14.499 13.4999 15.7506 13.4999Z" fill="#999999"/>
</g>
<defs>
<clipPath id="clip0_297_6823">
<rect width="21" height="21" fill="white"/>
</clipPath>
</defs>
</svg>
