<svg width="22" height="22" viewBox="0 0 22 22" fill="none" xmlns="http://www.w3.org/2000/svg">
<path d="M4.93947 0.102066C4.26713 0.34411 4.00716 0.702694 1.9722 4.08233L0 7.37232V13.1007C0 17.1885 0.0268937 18.9276 0.107575 19.1697C0.242043 19.6269 0.726129 20.1916 1.20125 20.4426C1.5688 20.6399 1.59569 20.6399 6.8041 20.6668L12.0394 20.6937L12.3263 20.9088C12.7117 21.2046 13.8323 21.7066 14.4329 21.859C14.7198 21.9308 15.3473 21.9845 15.9569 21.9756C16.7996 21.9666 17.1133 21.9218 17.6871 21.7335C19.6234 21.0971 21.1205 19.6 21.757 17.6636C21.9452 17.0899 21.9901 16.7761 21.999 15.9335C22.008 15.3239 21.9542 14.6964 21.8825 14.4095C21.7301 13.8089 21.2281 12.6883 20.9322 12.3028C20.7171 12.016 20.7171 11.9891 20.6902 9.68518L20.6633 7.36336L18.6732 4.04647C17.5885 2.22667 16.5934 0.648905 16.4769 0.550295C16.3693 0.44272 16.1272 0.281359 15.9569 0.191713C15.6611 0.0303497 15.3294 0.0213852 10.4437 0.00345612C6.50827 -0.00550842 5.17255 0.0124207 4.93947 0.102066ZM9.66379 4.11819L9.68172 6.87927H5.82696C3.71133 6.87927 1.9722 6.85238 1.9722 6.82549C1.9722 6.79859 2.6804 5.58838 3.55893 4.13612C4.76018 2.12806 5.19048 1.48261 5.36977 1.41986C5.49527 1.37503 6.4993 1.33918 7.61987 1.34814L9.6369 1.36607L9.66379 4.11819ZM15.4549 1.49157C15.5625 1.58122 18.2877 6.02764 18.709 6.80756C18.727 6.85238 17.0058 6.87927 14.8901 6.87927H11.0264V4.0913V1.31228L13.16 1.33918C14.8363 1.35711 15.3384 1.39296 15.4549 1.49157ZM19.2738 9.42521V10.6265L18.6194 10.2948C16.934 9.4521 14.7646 9.44314 13.1151 10.2679C10.0403 11.8277 8.78526 15.548 10.3182 18.5959L10.6499 19.2504H6.25726C3.46928 19.2504 1.81084 19.2145 1.70327 19.1607C1.60466 19.1069 1.48812 18.9187 1.43433 18.7304C1.33572 18.3629 1.29986 8.38532 1.40744 8.28671C1.43433 8.25085 5.46838 8.22396 10.372 8.22396H19.2738V9.42521ZM16.9251 11.1374C18.5387 11.5229 19.9641 12.8317 20.4392 14.3916C20.6992 15.2163 20.6812 16.4893 20.4123 17.2871C19.7041 19.3579 17.9919 20.595 15.8135 20.595C14.8094 20.595 14.0654 20.3889 13.3034 19.8958C11.7884 18.9007 10.9368 17.2602 11.0533 15.5301C11.1609 14.042 11.8332 12.8138 13.0076 11.9442C14.1281 11.1195 15.5804 10.8237 16.9251 11.1374Z" fill="#1A1E24"/>
<path d="M3.94501 10.3451C3.46989 10.5154 3.32645 11.1788 3.68504 11.5015C3.85536 11.6539 4.05258 11.6718 5.46898 11.6987C7.03778 11.7256 7.06467 11.7256 7.30672 11.5105C7.64737 11.2146 7.65633 10.7843 7.31568 10.4885C7.0826 10.2913 7.01985 10.2823 5.57656 10.2913C4.75182 10.2913 4.01673 10.3182 3.94501 10.3451Z" fill="#1A1E24"/>
<path d="M16.7625 15.3488L15.2026 16.9176L14.342 16.075C13.8759 15.6178 13.4008 15.2054 13.2842 15.1695C12.8181 15.0261 12.2891 15.5192 12.4236 15.9674C12.4505 16.066 13.0063 16.6935 13.6518 17.339C14.7185 18.4237 14.862 18.5312 15.1488 18.5312C15.4357 18.5312 15.606 18.3878 17.372 16.6218C19.0215 14.9723 19.2725 14.6855 19.2725 14.4434C19.2725 14.0938 18.9498 13.78 18.5912 13.78C18.3671 13.78 18.0802 14.0221 16.7625 15.3488Z" fill="#1A1E24"/>
</svg>
