<svg width="22" height="22" viewBox="0 0 22 22" fill="none" xmlns="http://www.w3.org/2000/svg">
<path d="M11.6761 0.254501C11.4438 0.48678 11.4266 0.555603 11.4266 1.10619V1.7084L11.1083 1.82023C10.6007 1.98369 10.1275 2.23317 9.7232 2.56008L9.35328 2.86119L8.85431 2.5945C8.57041 2.44825 8.26071 2.32781 8.16607 2.32781C7.87358 2.32781 7.51225 2.55148 7.40041 2.80097C7.15953 3.31714 7.33159 3.68707 7.99402 4.0828C8.38975 4.32368 8.44997 4.39251 8.41556 4.57317C8.38975 4.68501 8.37254 5.14957 8.37254 5.59692C8.37254 6.04427 8.38975 6.50883 8.41556 6.62067C8.44997 6.80133 8.38975 6.87015 7.99402 7.11103C7.33159 7.50677 7.15953 7.87669 7.40041 8.39287C7.51225 8.64235 7.87358 8.86603 8.16607 8.86603C8.26071 8.86603 8.57041 8.74559 8.85431 8.59934L9.35328 8.33265L9.7232 8.63375C10.1275 8.96066 10.6007 9.21015 11.1083 9.3736L11.4266 9.48544V10.0876C11.4266 10.6382 11.4438 10.7071 11.6761 10.9393C12.0202 11.2748 12.4417 11.2835 12.8117 10.9479C13.0525 10.7329 13.0869 10.6468 13.13 10.079C13.1644 9.60588 13.2074 9.44243 13.3106 9.41662C13.6978 9.29618 14.5408 8.84882 14.8075 8.60794L15.1172 8.34125L15.5818 8.60794C15.8313 8.74559 16.1324 8.86603 16.2356 8.86603C16.6916 8.86603 17.1045 8.45309 17.1045 7.99713C17.1045 7.67022 16.855 7.35191 16.4335 7.11964L16.0033 6.88736L16.0894 6.56044C16.2098 6.1475 16.2098 5.04633 16.0894 4.63339L16.0033 4.30648L16.4335 4.0742C16.855 3.84192 17.1045 3.52361 17.1045 3.1967C17.1045 2.74075 16.6916 2.32781 16.2356 2.32781C16.1324 2.32781 15.8313 2.44825 15.5818 2.58589L15.1172 2.85258L14.8075 2.58589C14.5408 2.34501 13.6978 1.89766 13.3106 1.77722C13.2074 1.75141 13.1644 1.58795 13.13 1.11479C13.0869 0.547001 13.0525 0.460971 12.8117 0.245898C12.4417 -0.0896158 12.0202 -0.0810127 11.6761 0.254501ZM12.9837 3.4892C13.8526 3.7903 14.4634 4.6592 14.4634 5.59692C14.4634 6.21633 14.1365 6.93897 13.6805 7.3175C12.5364 8.26382 10.7556 7.80787 10.1706 6.4142C10.0329 6.07008 10.0071 5.20118 10.1447 4.84846C10.5663 3.71288 11.8395 3.10207 12.9837 3.4892Z" fill="#1A1E24"/>
<path d="M1.86955 10.8094C0.880212 10.9815 0.269405 11.2396 0.114552 11.5321C-0.134933 12.0139 0.0371257 12.5472 0.510287 12.7365C0.742566 12.8397 0.871609 12.8311 1.52543 12.6591C1.92977 12.5472 2.54918 12.444 2.88469 12.4182C3.67616 12.358 4.14072 12.5128 5.72366 13.3903C8.28733 14.8184 10.0939 15.2658 12.3651 15.0507C13.4147 14.9561 13.776 15.0335 13.9653 15.4034C14.1287 15.7217 14.1287 16.0056 13.9567 16.2465C13.5179 16.8745 11.7113 17.124 9.87887 16.8143C9.43152 16.7369 8.96696 16.6766 8.84652 16.6852C8.10667 16.7197 7.82277 17.7864 8.44218 18.1994C8.76909 18.4058 9.73262 18.5865 10.9112 18.6381C13.1824 18.7499 15.7203 18.2682 18.8947 17.1154C19.6432 16.8401 19.7034 16.8315 19.9271 16.9519C20.2454 17.1326 20.3658 17.4939 20.2024 17.795C20.0303 18.1047 18.2581 18.9822 16.8903 19.4382C12.52 20.8835 8.62284 20.548 4.02888 18.3198C2.59219 17.623 1.87815 17.3821 1.20712 17.3821C0.424257 17.3821 -0.0833152 17.8036 0.0113169 18.3886C0.0973462 18.9134 0.312419 19.051 1.1469 19.1113C1.80933 19.1629 1.96418 19.2145 2.83308 19.6619C4.86337 20.6942 6.87645 21.3996 8.93255 21.7868C10.3692 22.0621 13.062 22.0621 14.6449 21.7782C16.5633 21.4427 18.0172 20.9609 19.8325 20.0748C20.7014 19.6447 21.0541 19.4296 21.3466 19.1113C22.2671 18.1305 22.2069 16.6852 21.2175 15.7991C20.7616 15.3862 20.168 15.1453 19.6088 15.1453C19.4367 15.1453 18.8517 15.3088 18.3097 15.498C17.7678 15.6959 16.9849 15.954 16.5805 16.0916L15.8321 16.3239L15.7977 15.7131C15.7289 14.7152 15.2385 13.9581 14.3782 13.5452C13.862 13.2871 13.862 13.2871 11.4704 13.3301C9.56917 13.3645 9.0788 13.2097 5.74947 11.4805C5.11285 11.1536 4.3816 10.8353 4.13212 10.775C3.54712 10.646 2.70403 10.6546 1.86955 10.8094Z" fill="#1A1E24"/>
</svg>
