<svg width="22" height="23" viewBox="0 0 22 23" fill="none" xmlns="http://www.w3.org/2000/svg">
<path d="M2.18978 1.09235C1.36858 1.31407 0.728046 1.9546 0.563807 2.72653C0.498111 3.03037 0.481687 5.4529 0.498111 11.037L0.522747 18.9205L0.769106 19.3557C1.03189 19.8403 1.3111 20.1112 1.82845 20.374C2.09123 20.5136 2.35401 20.5629 3.01097 20.5875L3.84859 20.6204V21.3102V22H4.46449H5.08039V21.302V20.604H10.1307H15.1811V15.5536V10.5033H15.9448C17.2094 10.5033 17.8089 10.7742 18.1785 11.5133C18.3673 11.8993 18.3838 12.0143 18.3838 13.0654V14.1986H18.0553C17.6857 14.1986 17.6611 14.2233 16.9138 15.57L16.495 16.3337V18.4689V20.604H18.9997H21.5043V18.4606V16.3255L20.913 15.258L20.3218 14.1986H19.9769H19.632L19.6073 12.8601C19.5745 11.6119 19.5581 11.5051 19.3528 11.0781C18.9997 10.3637 18.6137 9.96948 17.9239 9.63279C17.3326 9.33716 17.2751 9.32894 16.2487 9.28788L15.1811 9.24682L15.1647 5.13263L15.14 1.01844L8.85789 1.00202C4.00462 0.993803 2.48541 1.01023 2.18978 1.09235ZM13.9082 9.10722V15.9642L7.99563 16.0053C3.38872 16.0381 2.04196 16.071 1.90236 16.1531L1.71348 16.2598V9.641C1.71348 2.48838 1.69706 2.72653 2.1405 2.43911C2.24726 2.3652 2.4115 2.29129 2.49362 2.26666C2.58395 2.25023 5.18714 2.23381 8.28305 2.24202L13.9082 2.25023V9.10722ZM19.9358 16.0463L20.2725 16.654V18.0172V19.3722H18.9997H17.7268V18.0172V16.6622L18.0717 16.0463L18.4166 15.4304H19.0079H19.5991L19.9358 16.0463ZM13.9493 18.3046V19.3722H9.51484H5.08039V18.8795V18.3867H4.46449H3.84859V18.8795V19.3722H3.20806C2.74819 19.3722 2.49362 19.3311 2.29653 19.2244C1.96805 19.0519 1.71348 18.6249 1.71348 18.2553C1.71348 17.9515 2.00911 17.4834 2.28832 17.3438C2.44435 17.2617 3.80753 17.2371 8.22557 17.2371H13.9493V18.3046Z" fill="#1A1E24" stroke="#1A1E24" stroke-width="0.2"/>
<path d="M5.57422 5.78254V6.39844H7.83251H10.0908V5.78254V5.16664H7.83251H5.57422V5.78254Z" fill="#1A1E24" stroke="#1A1E24" stroke-width="0.2"/>
<path d="M6.76291 7.77328C5.82675 8.22494 5.30118 9.04614 5.29297 10.0562C5.29297 10.5489 5.32582 10.7132 5.55575 11.1812C5.85959 11.7889 6.14701 12.0764 6.80397 12.3802C7.40344 12.6594 8.20821 12.6676 8.84054 12.3884C9.38252 12.1585 10.0231 11.4687 10.2037 10.9431C10.6225 9.69488 10.0888 8.38097 8.91444 7.77328C8.66808 7.6501 8.38067 7.58441 7.91258 7.56798C7.32132 7.53514 7.20636 7.55977 6.76291 7.77328ZM8.41351 8.90653C8.78305 9.0872 9.03762 9.44852 9.08689 9.88376C9.13617 10.3683 9.06226 10.6064 8.76663 10.9513C8.29033 11.4933 7.51841 11.5179 6.96 11.017C5.83496 9.99873 7.04212 8.25779 8.41351 8.90653Z" fill="#1A1E24" stroke="#1A1E24" stroke-width="0.2"/>
</svg>
