<svg width="22" height="22" viewBox="0 0 22 22" fill="none" xmlns="http://www.w3.org/2000/svg">
<path d="M4.12676 4.41265C5.34354 4.41265 6.33309 3.4231 6.33309 2.20632C6.33309 0.989548 5.34354 0 4.12676 0C2.90999 0 1.92044 0.989548 1.92044 2.20632C1.92044 3.4231 2.90999 4.41265 4.12676 4.41265ZM4.12676 0.732998C4.93673 0.732998 5.60009 1.3927 5.60009 2.20632C5.60009 3.01995 4.93673 3.67965 4.12676 3.67965C3.3168 3.67965 2.65344 3.01629 2.65344 2.20632C2.65344 1.39636 3.31314 0.732998 4.12676 0.732998Z" fill="black"/>
<path d="M0 7.19163V12.3959C0 13.2645 0.707343 13.9719 1.57595 13.9719H1.72621L1.9681 21.6244C1.9681 21.7013 1.99375 21.7746 2.03407 21.8333C2.04873 21.8553 2.06339 21.8699 2.08171 21.8882C2.14768 21.9505 2.23564 21.9909 2.3346 21.9909H21.4255C21.6271 21.9909 21.792 21.8259 21.792 21.6244V9.5922C21.792 9.39062 21.6271 9.2257 21.4255 9.2257H8.44414V7.19163C8.44414 5.83558 7.34098 4.73242 5.98859 4.73242H2.45554C1.10316 4.73242 0 5.83558 0 7.19163ZM8.44414 12.3959V10.8969H17.7935C17.9951 10.8969 18.16 11.0619 18.16 11.2634C18.16 12.143 18.8747 12.8577 19.7543 12.8577C19.9559 12.8577 20.1208 13.0226 20.1208 13.2242V17.9924C20.1208 18.1939 19.9559 18.3589 19.7543 18.3589C18.8747 18.3589 18.16 19.0735 18.16 19.9531C18.16 20.1547 17.9951 20.3196 17.7935 20.3196H6.51635L6.53834 19.5866L6.71426 13.9719H6.87552C7.74046 13.9719 8.44414 13.2645 8.44414 12.3959ZM0.732998 7.19163C0.732998 6.23873 1.50631 5.46542 2.45554 5.46542H5.98859C6.93783 5.46542 7.71114 6.23873 7.71114 7.19163V12.3959C7.71114 12.8614 7.33365 13.2389 6.87552 13.2389H6.73992L6.90484 7.9173C6.91217 7.71206 6.75458 7.54347 6.553 7.5398C6.35876 7.51781 6.17917 7.69007 6.17551 7.89164L5.79435 19.9421V19.9605L5.75403 21.2579H4.58783V14.6308C4.58783 14.4282 4.42401 14.2643 4.22134 14.2643C4.01866 14.2643 3.85484 14.4282 3.85484 14.6308V21.2579H2.6901L2.26863 7.89164C2.2613 7.69007 2.08904 7.51781 1.89113 7.5398C1.68956 7.54347 1.53197 7.71206 1.53563 7.9173L1.70422 13.2389H1.57595C1.11416 13.2389 0.732998 12.8614 0.732998 12.3959V7.19163Z" fill="black"/>
<path d="M10.7971 18.5674C12.428 18.5674 13.7547 17.2407 13.7547 15.6061C13.7547 13.9715 12.428 12.6484 10.7971 12.6484C9.16614 12.6484 7.83942 13.9752 7.83942 15.6061C7.83942 17.237 9.16614 18.5674 10.7971 18.5674Z" fill="black"/>
<path d="M16.1249 16.5007C16.3275 16.5007 16.4914 16.3369 16.4914 16.1342V14.9915C16.4914 14.7888 16.3275 14.625 16.1249 14.625C15.9222 14.625 15.7584 14.7888 15.7584 14.9915V16.1342C15.7584 16.3369 15.9222 16.5007 16.1249 16.5007Z" fill="black"/>
</svg>
