<svg width="16" height="15" viewBox="0 0 16 15" fill="none" xmlns="http://www.w3.org/2000/svg">
<g id="Group 1000003750">
<g id="Group 1000003749">
<path id="Vector" fill-rule="evenodd" clip-rule="evenodd" d="M0.261719 9.4013C0.261719 9.05022 0.564284 8.76562 0.937509 8.76562H5.66804C6.04128 8.76562 6.34383 9.05022 6.34383 9.4013V13.851C6.34383 14.2021 6.04128 14.4867 5.66804 14.4867H0.937509C0.564284 14.4867 0.261719 14.2021 0.261719 13.851V9.4013ZM1.6133 10.037V13.2153H4.99225V10.037H1.6133Z" fill="#1B1D21"/>
<path id="Vector_2" fill-rule="evenodd" clip-rule="evenodd" d="M0.261719 2.40911C0.261719 2.05804 0.564284 1.77344 0.937509 1.77344H5.66804C6.04128 1.77344 6.34383 2.05804 6.34383 2.40911V6.85884C6.34383 7.20992 6.04128 7.49451 5.66804 7.49451H0.937509C0.564284 7.49451 0.261719 7.20992 0.261719 6.85884V2.40911ZM1.6133 3.04479V6.22316H4.99225V3.04479H1.6133Z" fill="#1B1D21"/>
<path id="Vector_3" fill-rule="evenodd" clip-rule="evenodd" d="M15.13 4.32604H8.37207V3.05469H15.13V4.32604Z" fill="#1B1D21"/>
<path id="Vector_4" fill-rule="evenodd" clip-rule="evenodd" d="M12.4229 0.507812V6.86456H11.0713V0.507812H12.4229Z" fill="#1B1D21"/>
<path id="Vector_5" fill-rule="evenodd" clip-rule="evenodd" d="M7.69922 9.4013C7.69922 9.05022 8.00177 8.76562 8.37501 8.76562H13.1055C13.4788 8.76562 13.7813 9.05022 13.7813 9.4013V13.851C13.7813 14.2021 13.4788 14.4867 13.1055 14.4867H8.37501C8.00177 14.4867 7.69922 14.2021 7.69922 13.851V9.4013ZM9.0508 10.037V13.2153H12.4298V10.037H9.0508Z" fill="#1B1D21"/>
</g>
</g>
</svg>
