<svg width="49" height="49" viewBox="0 0 49 49" fill="none" xmlns="http://www.w3.org/2000/svg">
<g filter="url(#filter0_b_262_3918)">
<rect width="49" height="49" rx="15" fill="white" fill-opacity="0.03"/>
<rect x="0.5" y="0.5" width="48" height="48" rx="14.5" stroke="#D1D9E2" stroke-opacity="0.3"/>
</g>
<path d="M23.9977 15.3554C23.6026 15.5676 23.5148 15.8017 23.4928 16.7017L23.4636 17.5359H22.1172C20.6684 17.5359 20.4343 17.5798 20.244 17.9237C20.1781 18.0335 20.1342 18.531 20.1123 19.4164L20.0757 20.7482L19.3513 20.2799C18.8318 19.9359 18.561 19.8042 18.3854 19.8042C18.1952 19.8042 17.8366 20.0091 16.7317 20.7482C15.9561 21.2604 15.2537 21.7579 15.1732 21.8531C15.0268 22.014 15.0268 22.1311 15.0049 27.6776C14.9902 32.6533 15.0049 33.3704 15.1 33.5606C15.3415 34.0289 14.778 33.9996 24.3563 33.9996C33.9272 33.9996 33.3711 34.0289 33.6126 33.5606C33.7077 33.3777 33.7223 32.7045 33.7223 28.6068C33.7223 24.1141 33.715 23.8507 33.5833 23.6458C33.4882 23.4848 32.7638 23.0019 31.0223 21.9335L28.6003 20.4408V19.314C28.6003 17.5505 28.5856 17.5359 26.588 17.5359H25.2343V16.8042C25.2343 16.0285 25.1465 15.6993 24.8831 15.4651C24.6929 15.2895 24.2246 15.231 23.9977 15.3554ZM26.9173 25.7678V32.3167H26.0831H25.2563L25.2197 31.7313C25.1758 31.0435 25.0441 30.7947 24.627 30.6557C24.4148 30.5825 24.2977 30.5825 24.0855 30.6557C23.6685 30.7947 23.5368 31.0435 23.4928 31.7313L23.4563 32.3167H22.6294H21.7953V25.7678V19.2189H24.3563H26.9173V25.7678ZM19.2708 22.2701L20.1123 22.8262V27.5751V32.3167H18.3927H16.6732V27.5751V22.8262L17.5 22.2701C17.9464 21.9628 18.3415 21.714 18.3781 21.714C18.4074 21.7067 18.8098 21.9555 19.2708 22.2701ZM30.3564 23.5214L32.0028 24.5312L32.0247 28.4239L32.0394 32.3167H30.3198H28.6003V27.4141C28.6003 24.7141 28.6222 22.5116 28.6588 22.5116C28.6881 22.5116 29.4491 22.9653 30.3564 23.5214Z" fill="white" stroke="#383838" stroke-width="0.7"/>
<defs>
<filter id="filter0_b_262_3918" x="-7" y="-7" width="63" height="63" filterUnits="userSpaceOnUse" color-interpolation-filters="sRGB">
<feFlood flood-opacity="0" result="BackgroundImageFix"/>
<feGaussianBlur in="BackgroundImageFix" stdDeviation="3.5"/>
<feComposite in2="SourceAlpha" operator="in" result="effect1_backgroundBlur_262_3918"/>
<feBlend mode="normal" in="SourceGraphic" in2="effect1_backgroundBlur_262_3918" result="shape"/>
</filter>
</defs>
</svg>
