<svg width="22" height="21" viewBox="0 0 22 21" fill="none" xmlns="http://www.w3.org/2000/svg">
<path d="M16.8477 8.74825L16.089 7.90737L10.6658 12.8004L11.4245 13.6413C12.0198 13.3936 12.7315 13.5323 13.1881 14.0383C13.7671 14.6801 13.7163 15.6698 13.0744 16.2489C12.4326 16.828 11.4429 16.7771 10.8638 16.1353C10.4073 15.6293 10.3423 14.9071 10.6497 14.3403L9.89104 13.4994L6.59835 16.4702C5.84956 17.1458 4.69487 17.0864 4.01928 16.3376C3.34369 15.5888 3.40304 14.4341 4.15183 13.7586L4.34552 13.5838L3.58685 12.7429C2.99155 12.9906 2.27979 12.8519 1.82326 12.3459C1.24418 11.7041 1.29505 10.7144 1.93688 10.1353C2.5787 9.55622 3.56844 9.60709 4.14751 10.2489C4.60404 10.7549 4.66903 11.4771 4.3616 12.0439L5.12027 12.8848L10.5435 7.99176L9.78486 7.15088C9.18955 7.39858 8.47779 7.25989 8.02126 6.75389C7.44219 6.11207 7.49306 5.12233 8.13488 4.54326C8.77671 3.96418 9.76644 4.01505 10.3455 4.65687C10.802 5.16287 10.867 5.8851 10.5596 6.45187L11.3183 7.29276L14.611 4.32198C15.3598 3.6464 16.5145 3.70574 17.19 4.45454C17.8656 5.20333 17.8063 6.35802 17.0575 7.03361L16.8638 7.20836L17.6225 8.04924C18.2178 7.80154 18.9295 7.94024 19.3861 8.44623C19.9651 9.08806 19.9143 10.0778 19.2724 10.6569C18.6306 11.2359 17.6409 11.1851 17.0618 10.5432C16.6053 10.0373 16.5403 9.31502 16.8477 8.74825ZM4.85084 14.5333C4.52993 14.8228 4.50449 15.3177 4.79403 15.6386C5.08357 15.9595 5.57844 15.985 5.89935 15.6954L7.64254 14.1227L6.59403 12.9605L4.85084 14.5333ZM11.5163 10.6276L13.8405 8.53063L12.792 7.3685L10.4678 9.46552L11.5163 10.6276ZM7.36878 12.2615L8.41729 13.4237L10.7415 11.3266L9.69303 10.1645L7.36878 12.2615ZM14.6153 7.83162L16.3585 6.25886C16.6794 5.96932 16.7048 5.47446 16.4153 5.15354C16.1258 4.83263 15.6309 4.8072 15.31 5.09673L13.5668 6.6695L14.6153 7.83162ZM3.33489 11.6848C3.54883 11.4918 3.56578 11.1619 3.37276 10.9479C3.17973 10.734 2.84982 10.717 2.63588 10.91C2.42194 11.1031 2.40498 11.433 2.59801 11.6469C2.79103 11.8609 3.12095 11.8778 3.33489 11.6848ZM9.53289 6.09276C9.74683 5.89973 9.76379 5.56982 9.57076 5.35588C9.37774 5.14194 9.04783 5.12498 8.83389 5.31801C8.61994 5.51103 8.60299 5.84094 8.79601 6.05489C8.98904 6.26883 9.31895 6.28578 9.53289 6.09276ZM11.6764 14.6994C11.4625 14.8924 11.4455 15.2223 11.6386 15.4363C11.8316 15.6502 12.1615 15.6672 12.3754 15.4742C12.5894 15.2811 12.6063 14.9512 12.4133 14.7373C12.2203 14.5233 11.8904 14.5064 11.6764 14.6994ZM17.8744 9.10737C17.6605 9.30039 17.6435 9.6303 17.8366 9.84424C18.0296 10.0582 18.3595 10.0751 18.5734 9.88212C18.7874 9.68909 18.8043 9.35918 18.6113 9.14524C18.4183 8.9313 18.0884 8.91434 17.8744 9.10737Z" fill="#333333"/>
</svg>
