<svg width="14" height="14" viewBox="0 0 14 14" fill="none" xmlns="http://www.w3.org/2000/svg">
<path d="M4.71222 0.0214043C4.16188 0.0738182 3.80153 0.244164 3.41825 0.62744C3.14308 0.902614 2.99239 1.1483 2.88756 1.49555C2.83515 1.65934 2.8286 2.01968 2.81877 5.44297C2.81222 8.21108 2.81877 9.27574 2.84498 9.45591C2.95308 10.1307 3.34291 10.668 3.94239 10.9661C4.41412 11.202 4.29291 11.1954 8.54827 11.1823C12.7381 11.1725 12.44 11.1888 12.9019 10.9563C13.2066 10.8023 13.6062 10.3994 13.7602 10.0882C14.0091 9.59022 13.9993 9.79005 13.9993 5.60676C13.9993 2.17365 13.996 1.85262 13.9436 1.61675C13.7766 0.866579 13.1836 0.263819 12.4269 0.0672665C12.214 0.0148525 11.9421 0.00830078 8.57775 0.00174904C6.58602 -0.00152683 4.84653 0.00830078 4.71222 0.0214043ZM12.2009 1.5021C12.3319 1.57417 12.5022 1.76744 12.5317 1.8821C12.5481 1.93124 12.5579 3.62159 12.5579 5.63952V9.3085L12.4826 9.43298C12.3581 9.63281 12.214 9.72126 11.9617 9.75402C11.6636 9.79005 5.11515 9.79005 4.84653 9.75074C4.57791 9.71471 4.41739 9.6066 4.31584 9.40022L4.23722 9.24298V5.59038C4.23722 1.96072 4.23722 1.93779 4.30601 1.81003C4.39119 1.64296 4.57791 1.49227 4.73515 1.45951C4.80395 1.44641 6.48774 1.43986 8.47947 1.44313C11.8176 1.44641 12.1059 1.44968 12.2009 1.5021Z" fill="#333333"/>
<path d="M10.1996 3.55621C10.1144 3.5988 9.66562 4.02466 8.88924 4.80104L7.7132 5.98036L7.20216 5.47915C6.63871 4.92225 6.57647 4.88622 6.23578 4.90915C6.07526 4.91897 5.99992 4.94191 5.89509 5.01397C5.63957 5.19087 5.52492 5.58398 5.64612 5.8788C5.67888 5.95743 5.97699 6.27846 6.50768 6.81243C7.21199 7.51674 7.33647 7.62812 7.47733 7.67398C7.66406 7.73622 7.86389 7.71984 8.04734 7.62484C8.11285 7.58881 8.83027 6.8976 9.64596 6.07536C11.2675 4.45053 11.2184 4.51277 11.1922 4.13277C11.1823 3.97225 11.1594 3.8969 11.0873 3.79207C10.9039 3.52673 10.4944 3.41863 10.1996 3.55621Z" fill="#333333"/>
<path d="M0.513057 4.21031C0.339436 4.266 0.192022 4.38393 0.100297 4.53462L0.011849 4.68859L0.00202136 8.60325C-0.00453038 11.1355 0.00529723 12.6064 0.0249525 12.7734C0.0708146 13.1076 0.192022 13.3565 0.418057 13.5858C0.647368 13.8119 0.896334 13.9331 1.23047 13.979C1.39754 13.9986 2.86841 14.0084 5.40066 14.0019L9.31532 13.9921L9.46929 13.9003C9.69532 13.7693 9.8067 13.5662 9.8067 13.2877C9.8067 13.0093 9.69532 12.8062 9.46929 12.6752L9.31532 12.5834L5.37773 12.5736L1.43685 12.5671L1.4303 8.62618L1.42047 4.68859L1.32875 4.53462C1.21409 4.33807 1.01099 4.21358 0.775127 4.19721C0.680127 4.18738 0.562195 4.19721 0.513057 4.21031Z" fill="#333333"/>
</svg>
