<svg width="141" height="156" viewBox="0 0 141 156" fill="none" xmlns="http://www.w3.org/2000/svg">
<rect x="0.537879" y="0.537879" width="139.924" height="154.924" rx="7.46212" fill="white"/>
<rect x="0.537879" y="0.537879" width="139.924" height="154.924" rx="7.46212" stroke="#EFF0F4" stroke-width="1.07576"/>
<path d="M62.093 96.1914H60.5998L57.9706 88.6175H59.3339L61.3464 94.6875L63.3697 88.6175H64.7222L62.093 96.1914ZM66.6725 89.7536C66.5283 89.8979 66.3552 89.97 66.1532 89.97C65.9512 89.97 65.7745 89.8979 65.623 89.7536C65.4788 89.6021 65.4066 89.4254 65.4066 89.2235C65.4066 89.0215 65.4788 88.8484 65.623 88.7041C65.7673 88.5526 65.944 88.4769 66.1532 88.4769C66.3624 88.4769 66.5391 88.5526 66.6834 88.7041C66.8276 88.8484 66.8998 89.0215 66.8998 89.2235C66.8998 89.4254 66.824 89.6021 66.6725 89.7536ZM66.7375 96.1914H65.5689V90.7815H66.7375V96.1914ZM73.6448 93.9842H69.3385C69.4251 94.3881 69.6198 94.7019 69.9228 94.9255C70.233 95.1491 70.6153 95.2609 71.0697 95.2609C71.6828 95.2609 72.1481 95.0373 72.4654 94.5901L73.4284 95.1527C72.9018 95.9389 72.112 96.3321 71.0589 96.3321C70.1861 96.3321 69.4756 96.0652 68.9274 95.5314C68.3864 94.9904 68.1159 94.3088 68.1159 93.4865C68.1159 92.6858 68.3828 92.0114 68.9165 91.4632C69.4431 90.915 70.1284 90.6409 70.9723 90.6409C71.7585 90.6409 72.4077 90.9186 72.9199 91.474C73.432 92.0294 73.6881 92.7038 73.6881 93.4973C73.6881 93.6415 73.6737 93.8038 73.6448 93.9842ZM69.3277 93.032H72.5087C72.4294 92.6064 72.249 92.2782 71.9677 92.0474C71.6936 91.8166 71.3582 91.7012 70.9615 91.7012C70.5287 91.7012 70.168 91.8202 69.8795 92.0582C69.591 92.2963 69.407 92.6209 69.3277 93.032ZM80.0014 94.5143L81.0618 90.7815H82.2952L80.5965 96.1914H79.4496L78.3244 92.5451L77.1883 96.1914H76.0414L74.3427 90.7815H75.5761L76.6257 94.5143L77.7617 90.7815H78.8762L80.0014 94.5143ZM43.6372 107.191H42.2955L41.7653 105.666H38.541L38.0109 107.191H36.6584L39.4066 99.6175H40.8997L43.6372 107.191ZM40.1532 101.078L38.9522 104.497H41.3542L40.1532 101.078ZM47.5078 101.782V102.907H46.1662V105.504C46.1662 105.727 46.2167 105.889 46.3177 105.99C46.4187 106.084 46.5665 106.138 46.7613 106.153C46.9633 106.16 47.2121 106.156 47.5078 106.142V107.191C46.6134 107.3 45.9714 107.224 45.5819 106.964C45.1924 106.697 44.9977 106.21 44.9977 105.504V102.907H44.0022V101.782H44.9977V100.613L46.1662 100.267V101.782H47.5078ZM51.6574 101.782V102.907H50.3158V105.504C50.3158 105.727 50.3662 105.889 50.4672 105.99C50.5682 106.084 50.7161 106.138 50.9108 106.153C51.1128 106.16 51.3617 106.156 51.6574 106.142V107.191C50.763 107.3 50.121 107.224 49.7315 106.964C49.342 106.697 49.1472 106.21 49.1472 105.504V102.907H48.1518V101.782H49.1472V100.613L50.3158 100.267V101.782H51.6574ZM57.1046 102.55V101.782H58.2731V107.191H57.1046V106.412C56.6646 107.026 56.0334 107.332 55.2111 107.332C54.4682 107.332 53.8334 107.058 53.3068 106.51C52.7803 105.962 52.517 105.287 52.517 104.486C52.517 103.686 52.7803 103.011 53.3068 102.463C53.8334 101.915 54.4682 101.641 55.2111 101.641C56.0334 101.641 56.6646 101.944 57.1046 102.55ZM54.1724 105.731C54.497 106.055 54.9046 106.218 55.3951 106.218C55.8856 106.218 56.2931 106.055 56.6177 105.731C56.9423 105.399 57.1046 104.984 57.1046 104.486C57.1046 103.989 56.9423 103.578 56.6177 103.253C56.2931 102.921 55.8856 102.755 55.3951 102.755C54.9046 102.755 54.497 102.921 54.1724 103.253C53.8478 103.578 53.6855 103.989 53.6855 104.486C53.6855 104.977 53.8478 105.392 54.1724 105.731ZM62.5132 107.332C61.6981 107.332 61.0165 107.058 60.4683 106.51C59.9273 105.954 59.6568 105.28 59.6568 104.486C59.6568 103.679 59.9273 103.004 60.4683 102.463C61.0165 101.915 61.6981 101.641 62.5132 101.641C63.0398 101.641 63.5195 101.767 63.9522 102.02C64.385 102.272 64.7096 102.611 64.926 103.037L63.9198 103.621C63.7972 103.361 63.6096 103.159 63.3572 103.015C63.1119 102.863 62.827 102.788 62.5024 102.788C62.0263 102.788 61.626 102.95 61.3014 103.275C60.984 103.606 60.8253 104.01 60.8253 104.486C60.8253 104.963 60.984 105.366 61.3014 105.698C61.626 106.023 62.0263 106.185 62.5024 106.185C62.8198 106.185 63.1047 106.113 63.3572 105.969C63.6168 105.817 63.8116 105.612 63.9414 105.352L64.9477 105.925C64.7168 106.358 64.3814 106.701 63.9414 106.953C63.5086 107.206 63.0326 107.332 62.5132 107.332ZM68.9625 101.641C69.59 101.641 70.0914 101.843 70.4664 102.247C70.8487 102.643 71.0399 103.184 71.0399 103.87V107.191H69.8714V103.989C69.8714 103.585 69.7632 103.275 69.5468 103.058C69.3304 102.842 69.0346 102.734 68.6595 102.734C68.234 102.734 67.8985 102.867 67.6533 103.134C67.408 103.394 67.2854 103.78 67.2854 104.292V107.191H66.1169V99.6175H67.2854V102.474C67.6461 101.919 68.2051 101.641 68.9625 101.641ZM78.5303 101.641C79.1434 101.641 79.6375 101.839 80.0126 102.236C80.3877 102.633 80.5753 103.166 80.5753 103.837V107.191H79.4067V103.913C79.4067 103.545 79.313 103.257 79.1254 103.047C78.9379 102.838 78.6818 102.734 78.3572 102.734C77.9893 102.734 77.7008 102.856 77.4916 103.102C77.2824 103.34 77.1778 103.693 77.1778 104.162V107.191H76.0093V103.913C76.0093 103.538 75.9191 103.249 75.7388 103.047C75.5657 102.838 75.3168 102.734 74.9922 102.734C74.6316 102.734 74.3395 102.856 74.1158 103.102C73.8994 103.347 73.7912 103.7 73.7912 104.162V107.191H72.6227V101.782H73.7912V102.431C74.1375 101.904 74.6532 101.641 75.3385 101.641C76.0309 101.641 76.5431 101.926 76.8749 102.496C77.2283 101.926 77.7801 101.641 78.5303 101.641ZM87.3764 104.984H83.0702C83.1567 105.388 83.3515 105.702 83.6544 105.925C83.9646 106.149 84.3469 106.261 84.8013 106.261C85.4144 106.261 85.8797 106.037 86.1971 105.59L87.16 106.153C86.6335 106.939 85.8436 107.332 84.7905 107.332C83.9177 107.332 83.2072 107.065 82.659 106.531C82.118 105.99 81.8475 105.309 81.8475 104.486C81.8475 103.686 82.1144 103.011 82.6482 102.463C83.1747 101.915 83.86 101.641 84.7039 101.641C85.4902 101.641 86.1394 101.919 86.6515 102.474C87.1636 103.029 87.4197 103.704 87.4197 104.497C87.4197 104.642 87.4053 104.804 87.3764 104.984ZM83.0593 104.032H86.2404C86.161 103.606 85.9807 103.278 85.6994 103.047C85.4253 102.817 85.0898 102.701 84.6931 102.701C84.2603 102.701 83.8997 102.82 83.6111 103.058C83.3226 103.296 83.1387 103.621 83.0593 104.032ZM91.6181 101.641C92.2457 101.641 92.747 101.843 93.1221 102.247C93.5044 102.643 93.6955 103.184 93.6955 103.87V107.191H92.527V103.989C92.527 103.585 92.4188 103.275 92.2024 103.058C91.986 102.842 91.6903 102.734 91.3152 102.734C90.8896 102.734 90.5542 102.867 90.3089 103.134C90.0637 103.394 89.9411 103.78 89.9411 104.292V107.191H88.7725V101.782H89.9411V102.474C90.3017 101.919 90.8607 101.641 91.6181 101.641ZM98.2971 101.782V102.907H96.9554V105.504C96.9554 105.727 97.0059 105.889 97.1069 105.99C97.2079 106.084 97.3558 106.138 97.5505 106.153C97.7525 106.16 98.0013 106.156 98.2971 106.142V107.191C97.4026 107.3 96.7607 107.224 96.3711 106.964C95.9816 106.697 95.7869 106.21 95.7869 105.504V102.907H94.7915V101.782H95.7869V100.613L96.9554 100.267V101.782H98.2971ZM100.53 103.275C100.53 103.441 100.617 103.578 100.79 103.686C100.963 103.787 101.216 103.884 101.547 103.978C101.8 104.036 102.02 104.097 102.207 104.162C102.395 104.227 102.593 104.324 102.802 104.454C103.012 104.577 103.17 104.743 103.278 104.952C103.394 105.154 103.448 105.392 103.441 105.666C103.441 106.185 103.239 106.593 102.835 106.888C102.431 107.184 101.93 107.332 101.331 107.332C100.797 107.332 100.339 107.22 99.9568 106.997C99.5745 106.773 99.2968 106.463 99.1237 106.066L100.13 105.482C100.31 106.001 100.711 106.261 101.331 106.261C101.944 106.261 102.251 106.059 102.251 105.655C102.251 105.359 101.908 105.128 101.223 104.963C100.963 104.898 100.743 104.833 100.563 104.768C100.39 104.703 100.195 104.609 99.9785 104.486C99.7693 104.364 99.607 104.202 99.4916 104C99.3834 103.798 99.3329 103.563 99.3401 103.296C99.3401 102.799 99.5276 102.398 99.9027 102.095C100.285 101.792 100.757 101.641 101.32 101.641C101.767 101.641 102.164 101.742 102.51 101.944C102.864 102.139 103.134 102.413 103.322 102.766L102.337 103.318C102.157 102.907 101.818 102.701 101.32 102.701C101.089 102.701 100.898 102.752 100.747 102.853C100.602 102.954 100.53 103.094 100.53 103.275Z" fill="#1B1D21"/>
<path d="M57.3771 73.2064C57.2463 72.5544 57.2334 71.5323 57.3351 70.8638C57.3759 70.592 58.1544 68.205 59.5862 63.9743C61.4048 58.6005 61.8314 57.4049 62.0769 56.9389M57.3771 73.2064L62.0769 56.9389M57.3771 73.2064C57.7456 75.103 58.6973 76.5746 60.3128 77.729L57.3771 73.2064ZM62.0769 56.9389L62.2479 57.029C62.2478 57.029 62.2478 57.0291 62.2478 57.0292L62.0769 56.9389ZM72.4702 51.9443C70.7346 51.6655 68.8438 51.8806 67.1955 52.5505L64.8468 78.7677C66.7255 78.6358 68.6121 77.6135 69.7837 76.0872C70.1005 75.6742 70.2742 75.4259 70.6126 74.564C70.9555 73.6905 71.461 72.2024 72.439 69.3124C73.0392 67.539 73.5009 66.1531 73.8175 65.177C73.9759 64.6888 74.0977 64.3039 74.1823 64.0246C74.2692 63.7378 74.312 63.5777 74.3196 63.527L74.3198 63.5259C74.4193 62.887 74.2761 62.0119 73.9575 61.3674C73.649 60.7434 73.3101 60.33 72.7601 59.8976C72.5138 59.7075 72.1157 59.5152 71.6877 59.3703C71.2598 59.2255 70.8266 59.1366 70.5156 59.138C69.8161 59.1475 69.2959 59.27 68.6722 59.5783C68.0079 59.912 67.3719 60.5154 67.054 61.1088C66.9903 61.2305 66.8184 61.6834 66.527 62.5144C66.2383 63.3377 65.8379 64.5153 65.3199 66.0676C65.3199 66.0676 65.3199 66.0676 65.3199 66.0676L65.3114 66.0931C64.5648 68.3315 64.1858 69.4678 64.0024 70.074C63.9096 70.3807 63.8707 70.5397 63.8577 70.6332C63.8516 70.6775 63.8522 70.7005 63.8536 70.7135C63.855 70.726 63.8577 70.737 63.866 70.7624L63.8661 70.7624L63.8674 70.7667C63.8978 70.8672 63.9944 71.0154 64.1296 71.1565C64.2652 71.2979 64.4071 71.3984 64.5018 71.4305C64.6253 71.4723 64.7974 71.4747 64.9773 71.4309C65.1561 71.3874 65.3211 71.3033 65.4325 71.1963L65.4325 71.1963L65.4341 71.1948L65.6455 70.9966L67.1351 66.5949C67.1972 66.4115 67.2569 66.235 67.3144 66.065C68.0464 63.9007 68.4179 62.8026 68.6837 62.2112C68.828 61.89 68.9508 61.6949 69.0994 61.5578C69.2249 61.4419 69.3634 61.3748 69.5057 61.3059C69.5285 61.2948 69.5515 61.2837 69.5746 61.2723C70.1136 61.0059 70.783 60.9839 71.282 61.2359C71.6273 61.4065 71.924 61.7019 72.1303 62.0355C72.3362 62.3686 72.4626 62.7573 72.4445 63.1228L72.4446 63.1228L72.4441 63.1289C72.4406 63.172 72.4233 63.24 72.4041 63.3106C72.3826 63.3893 72.3518 63.4946 72.3121 63.6251C72.2327 63.8863 72.1163 64.2534 71.9643 64.7214C71.6603 65.6576 71.2131 67.0008 70.6327 68.7158L70.5456 68.9731C69.6072 71.7461 69.1367 73.1366 68.8069 73.9281C68.6359 74.3386 68.4987 74.5983 68.3485 74.8101C68.2117 75.0032 68.067 75.1518 67.8927 75.3307C67.8771 75.3468 67.8612 75.3631 67.8451 75.3797L67.8444 75.3804C66.5195 76.7296 64.5673 77.2052 62.7797 76.6079L62.779 76.6077C62.0619 76.365 61.7196 76.1793 61.1501 75.7139L61.1497 75.7136C59.8997 74.6867 59.2805 73.17 59.3745 71.4186L59.3745 71.418C59.3857 71.2197 59.4686 70.8905 59.7379 70.0331C60.0106 69.1651 60.4821 67.734 61.287 65.3125L61.287 65.3122C63.3368 59.1692 63.6923 58.2206 64.3355 57.2552L64.3358 57.2547C65.0948 56.1219 66.1601 55.1921 67.4136 54.5669L67.4144 54.5665C71.3502 52.6267 76.0513 54.2176 78.0001 58.1489L78.0004 58.1496C78.8578 59.8954 79.0421 61.7238 78.5624 63.6721L78.562 63.6739C78.4458 64.1276 77.6039 66.7228 76.687 69.4321L75.0368 74.3083L75.0977 74.5179L75.0977 74.5179L75.0987 74.5218C75.1564 74.7371 75.2207 74.8657 75.3044 74.9567C75.3873 75.0468 75.5056 75.1177 75.7059 75.1856C75.909 75.2508 76.0472 75.2667 76.1697 75.2461C76.2925 75.2253 76.4227 75.1638 76.6017 75.0294C76.602 75.0292 76.6023 75.0289 76.6026 75.0287L76.7723 74.8979L78.6344 69.3956C79.6525 66.3872 80.164 64.8703 80.4298 63.9343C80.6921 63.011 80.712 62.6656 80.7443 61.9953C80.7754 61.2502 80.6303 59.9312 80.4238 59.1454L80.4237 59.1452C79.7412 56.5383 77.9248 54.2427 75.5377 52.9827L75.5372 52.9825C75.2103 52.8087 74.6264 52.578 74.0251 52.3745C73.4235 52.171 72.825 52.0015 72.4702 51.9443Z" fill="black" stroke="white" stroke-width="0.386421"/>
</svg>
