<svg width="50" height="50" viewBox="0 0 50 50" fill="none" xmlns="http://www.w3.org/2000/svg">
<circle cx="25" cy="25" r="25" fill="#ECECEC"/>
<path d="M32.1522 23.5327L31.2269 22.5072L24.613 28.4745L25.5382 29.5C26.2642 29.1979 27.1323 29.3671 27.689 29.9842C28.3952 30.7669 28.3332 31.9739 27.5505 32.6802C26.7677 33.3864 25.5607 33.3243 24.8545 32.5416C24.2977 31.9245 24.2184 31.0437 24.5934 30.3525L23.6681 29.327L19.6525 32.95C18.7393 33.7739 17.3311 33.7016 16.5072 32.7884C15.6833 31.8752 15.7557 30.467 16.6689 29.643L16.9051 29.4299L15.9798 28.4044C15.2538 28.7065 14.3858 28.5374 13.829 27.9203C13.1228 27.1375 13.1849 25.9305 13.9676 25.2243C14.7503 24.5181 15.9574 24.5801 16.6636 25.3628C17.2203 25.9799 17.2996 26.8607 16.9247 27.5519L17.8499 28.5774L24.4639 22.6101L23.5386 21.5846C22.8126 21.8867 21.9446 21.7176 21.3878 21.1005C20.6816 20.3177 20.7437 19.1107 21.5264 18.4045C22.3091 17.6983 23.5162 17.7603 24.2224 18.543C24.7791 19.1601 24.8584 20.0409 24.4835 20.7321L25.4087 21.7576L29.4243 18.1346C30.3375 17.3107 31.7457 17.3831 32.5697 18.2963C33.3936 19.2095 33.3212 20.6177 32.408 21.4416L32.1718 21.6547L33.097 22.6802C33.823 22.3781 34.6911 22.5473 35.2478 23.1644C35.954 23.9471 35.892 25.1541 35.1093 25.8604C34.3265 26.5666 33.1195 26.5045 32.4133 25.7218C31.8565 25.1047 31.7772 24.2239 32.1522 23.5327ZM17.5213 30.5879C17.13 30.941 17.0989 31.5445 17.452 31.9359C17.8052 32.3273 18.4087 32.3583 18.8 32.0052L20.926 30.0871L19.6472 28.6698L17.5213 30.5879ZM25.6502 25.8247L28.4848 23.2673L27.206 21.85L24.3715 24.4074L25.6502 25.8247ZM20.5921 27.8173L21.8708 29.2346L24.7054 26.6772L23.4266 25.2599L20.5921 27.8173ZM29.4296 22.4148L31.5555 20.4968C31.9469 20.1436 31.9779 19.5401 31.6248 19.1488C31.2717 18.7574 30.6682 18.7264 30.2768 19.0795L28.1509 20.9975L29.4296 22.4148ZM15.6725 27.114C15.9335 26.8786 15.9541 26.4762 15.7187 26.2153C15.4833 25.9544 15.081 25.9337 14.8201 26.1691C14.5592 26.4045 14.5385 26.8069 14.7739 27.0678C15.0093 27.3287 15.4116 27.3494 15.6725 27.114ZM23.2313 20.2942C23.4923 20.0588 23.5129 19.6564 23.2775 19.3955C23.0421 19.1346 22.6398 19.1139 22.3789 19.3493C22.118 19.5847 22.0973 19.9871 22.3327 20.248C22.5681 20.5089 22.9704 20.5296 23.2313 20.2942ZM25.8455 30.7905C25.5846 31.0259 25.5639 31.4282 25.7993 31.6891C26.0347 31.95 26.4371 31.9707 26.698 31.7353C26.9589 31.4999 26.9796 31.0976 26.7442 30.8366C26.5088 30.5757 26.1064 30.5551 25.8455 30.7905ZM33.4043 23.9707C33.1434 24.2061 33.1227 24.6084 33.3581 24.8693C33.5935 25.1302 33.9959 25.1509 34.2568 24.9155C34.5177 24.6801 34.5384 24.2778 34.303 24.0168C34.0676 23.7559 33.6652 23.7353 33.4043 23.9707Z" fill="#333333"/>
</svg>
