<svg width="50" height="50" viewBox="0 0 50 50" fill="none" xmlns="http://www.w3.org/2000/svg">
<circle cx="25" cy="25" r="25" fill="#ECECEC"/>
<path d="M24.3299 15.0248C21.7584 15.3619 19.7699 17.3002 19.2863 19.9362C19.1914 20.4465 19.1914 21.528 19.2818 22.0758C19.4761 23.2089 20.0456 24.3606 20.8319 25.2034C21.0534 25.4375 21.1166 25.5311 21.0669 25.5498C21.0308 25.5639 20.7461 25.7043 20.4342 25.8682C19.4761 26.3645 18.7214 26.917 17.9531 27.6895C16.5702 29.08 15.6483 30.7187 15.1602 32.6758C14.8574 33.8931 14.9749 34.6282 15.5895 35.3071C15.8426 35.588 16.1318 35.7799 16.4889 35.9017C16.7691 36 16.7871 36 24.9987 36C33.2103 36 33.2284 36 33.5086 35.9017C34.417 35.588 35.0045 34.7406 35 33.7527C34.9955 33.0223 34.6339 31.7535 34.1097 30.6391C33.2962 28.9021 32.0805 27.4835 30.4897 26.402C30.1869 26.2006 29.1565 25.6341 28.9305 25.5498C28.8808 25.5311 28.9441 25.4375 29.1655 25.2034C29.9564 24.3559 30.5213 23.2042 30.7157 22.0571C30.8015 21.5468 30.8015 20.4886 30.7157 19.9736C30.3044 17.5343 28.5057 15.61 26.1828 15.1231C25.6631 15.0107 24.7908 14.9686 24.3299 15.0248ZM26.115 16.7103C27.3307 17.0521 28.3792 17.9697 28.9125 19.1636C29.2107 19.8332 29.2695 20.1515 29.265 21.0411C29.265 21.7715 29.2559 21.8698 29.1384 22.2584C28.6142 24.0376 27.1002 25.3204 25.3648 25.4562C23.2949 25.6201 21.4737 24.3232 20.8545 22.2491C20.7415 21.8698 20.7325 21.7762 20.7325 21.0177C20.7325 20.2545 20.7415 20.1703 20.859 19.777C21.2974 18.2928 22.4092 17.1504 23.8147 16.7337C24.5332 16.5183 25.4055 16.509 26.115 16.7103ZM23.0328 26.6782C23.1594 26.7297 23.2543 26.7906 23.2498 26.8187C23.2407 26.8467 23.0148 27.4414 22.7391 28.1437C22.4182 28.977 22.2329 29.5108 22.2148 29.684C22.1832 29.9884 22.2736 30.3863 22.4453 30.6579C22.5041 30.7515 22.9018 31.1869 23.3356 31.6317C24.2847 32.6056 24.4248 32.6945 24.9987 32.6992C25.5727 32.6992 25.6811 32.629 26.6438 31.6505C27.0867 31.1963 27.4979 30.7468 27.5567 30.6485C27.7148 30.3957 27.8143 29.9462 27.7826 29.6606C27.7646 29.5295 27.5295 28.8413 27.2584 28.1343C26.9827 27.4226 26.7613 26.8233 26.7613 26.7999C26.7613 26.7718 26.8652 26.7157 26.9917 26.6688L27.2222 26.5846L27.6561 26.7344C30.1507 27.5818 32.085 29.4733 33.0612 32.0063C33.26 32.526 33.5041 33.4624 33.5041 33.7339C33.5131 34.0804 33.2781 34.3707 32.9256 34.455C32.6906 34.5158 17.3069 34.5158 17.0719 34.455C16.8278 34.3988 16.6787 34.277 16.5567 34.0336C16.4437 33.7948 16.4437 33.762 16.6425 32.9661C17.2617 30.4378 19.0649 28.2139 21.3697 27.1183C21.659 26.9825 22.7029 26.5939 22.7843 26.5892C22.7978 26.5892 22.9108 26.6314 23.0328 26.6782ZM25.7444 28.4199L26.2822 29.8245L25.6405 30.4893L24.9987 31.1542L24.366 30.4987C23.8734 29.993 23.7333 29.8198 23.7514 29.7496C23.765 29.6981 24.0045 29.0613 24.2847 28.3356L24.7954 27.0106H25.0032H25.2066L25.7444 28.4199Z" fill="#333333"/>
</svg>
