<svg width="12" height="12" viewBox="0 0 12 12" fill="none" xmlns="http://www.w3.org/2000/svg">
<path d="M5.52324 0.0141582C4.00093 0.206788 2.82375 1.31441 2.53748 2.82066C2.48129 3.11228 2.48129 3.7303 2.5348 4.04333C2.64984 4.69078 2.98695 5.34893 3.45247 5.8305C3.58356 5.96427 3.62102 6.01778 3.59159 6.02848C3.57019 6.03651 3.40164 6.11677 3.21703 6.21041C2.64984 6.494 2.20305 6.8097 1.74823 7.25115C0.929555 8.04574 0.383771 8.98214 0.094827 10.1005C-0.0844256 10.7961 -0.0148649 11.2161 0.348991 11.604C0.498814 11.7646 0.67004 11.8743 0.881398 11.9438C1.04727 12 1.05797 12 5.9192 12C10.7804 12 10.7911 12 10.957 11.9438C11.4948 11.7646 11.8426 11.2803 11.8399 10.7158C11.8372 10.2984 11.6232 9.5734 11.3128 8.93665C10.8313 7.94408 10.1116 7.13343 9.16982 6.51541C8.99057 6.40036 8.38058 6.07664 8.24681 6.02848C8.21738 6.01778 8.25483 5.96427 8.38593 5.8305C8.85412 5.34625 9.18855 4.6881 9.30359 4.03263C9.35443 3.74101 9.35443 3.13636 9.30359 2.84207C9.06013 1.44818 7.99532 0.348585 6.62015 0.0703421C6.31248 0.00613213 5.79613 -0.0179462 5.52324 0.0141582ZM6.58002 0.977306C7.29971 1.17261 7.9204 1.69699 8.2361 2.37922C8.41268 2.76181 8.44746 2.94373 8.44479 3.45206C8.44479 3.86943 8.43944 3.92561 8.36987 4.14767C8.05953 5.16432 7.16326 5.89739 6.13591 5.97497C4.91057 6.06861 3.83238 5.32752 3.46585 4.14232C3.39896 3.92561 3.39361 3.8721 3.39361 3.43868C3.39361 3.00259 3.39896 2.95444 3.46852 2.7297C3.72804 1.8816 4.38619 1.2288 5.21824 0.990684C5.64363 0.867615 6.15998 0.862264 6.58002 0.977306ZM4.75539 6.67326C4.8303 6.70269 4.88649 6.73747 4.88381 6.75352C4.87846 6.76957 4.74469 7.10935 4.58149 7.51066C4.39154 7.98688 4.28185 8.29188 4.27114 8.39087C4.25242 8.56477 4.30592 8.79218 4.40759 8.94736C4.44237 9.00086 4.67781 9.24968 4.93465 9.50384C5.49648 10.0603 5.57942 10.1112 5.9192 10.1138C6.25897 10.1138 6.32318 10.0737 6.89305 9.51454C7.15524 9.25503 7.3987 8.99819 7.43348 8.94201C7.52712 8.79753 7.58598 8.54069 7.56725 8.37749C7.55655 8.30258 7.41743 7.9093 7.2569 7.50531C7.0937 7.09865 6.96261 6.75619 6.96261 6.74282C6.96261 6.72676 7.02414 6.69466 7.09905 6.66791L7.2355 6.61975L7.49234 6.70536C8.96917 7.18961 10.1142 8.27048 10.6921 9.71787C10.8098 10.0148 10.9543 10.5499 10.9543 10.7051C10.9597 10.9031 10.8206 11.069 10.6119 11.1171C10.4727 11.1519 1.36565 11.1519 1.22653 11.1171C1.08205 11.085 0.993765 11.0154 0.921529 10.8763C0.854644 10.7399 0.854644 10.7212 0.972362 10.2663C1.33889 8.82161 2.40638 7.55079 3.77084 6.92475C3.94207 6.84716 4.56009 6.6251 4.60825 6.62242C4.61627 6.62242 4.68316 6.6465 4.75539 6.67326ZM6.36064 7.66851L6.67901 8.47113L6.29911 8.85104L5.9192 9.23095L5.54464 8.85639C5.25302 8.56745 5.17008 8.46846 5.18078 8.42833C5.18881 8.3989 5.33061 8.03504 5.49648 7.62035L5.7988 6.86321H5.92187H6.04227L6.36064 7.66851Z" fill="#333333"/>
</svg>
