<svg width="54" height="56" viewBox="0 0 54 56" fill="none" xmlns="http://www.w3.org/2000/svg">
<rect x="0.5" y="1" width="53" height="54" rx="26.5" stroke="#EFF0F4"/>
<path d="M25.3908 18.8013C23.767 18.9683 22.6192 19.6689 21.9833 20.8869C21.7994 21.2372 21.6394 21.6893 21.5634 22.06C21.5194 22.2841 21.4954 22.3289 21.4154 22.3533C21.3634 22.3696 21.1475 22.4307 20.9395 22.4877C20.1876 22.6955 19.6077 23.0458 19.0958 23.5998C18.7319 23.9949 18.4879 24.4185 18.296 25.0092C18.004 25.8849 18 25.9542 18 28.883C18 31.1885 18.008 31.5429 18.072 31.9502C18.264 33.1763 18.6919 34.048 19.3558 34.5613C19.8157 34.9116 20.4876 35.1723 21.2795 35.3026C21.4354 35.3271 21.9033 35.3597 22.3193 35.3719L23.0791 35.4004L23.683 36.211C24.3269 37.0827 24.5109 37.2579 24.9348 37.4208C25.2628 37.543 25.7867 37.5226 26.1106 37.3678C26.4866 37.1886 26.6146 37.0542 27.2624 36.1947L27.8743 35.38H28.3063C29.4101 35.38 30.5099 35.0867 31.2058 34.602C31.6417 34.3006 32.0856 33.7914 32.3536 33.2985C32.5096 33.0052 32.7575 32.2842 32.7975 31.991C32.8255 31.8036 32.8255 31.8036 33.0095 31.7751C33.6054 31.6855 34.4732 31.2781 34.9292 30.8789C35.793 30.1213 36.2249 29.1274 36.3369 27.6365C36.3889 26.9522 36.3889 23.6772 36.3369 23.0132C36.177 20.9358 35.2771 19.6282 33.6254 19.0742C32.7535 18.7809 32.8215 18.785 29.0781 18.7769C27.2305 18.7728 25.5707 18.785 25.3908 18.8013ZM32.2776 20.1455C33.1495 20.2474 33.7094 20.4877 34.1813 20.9602C34.5332 21.3146 34.7532 21.7219 34.9012 22.3044C34.9892 22.6425 34.9932 22.724 35.0052 25.1151C35.0172 26.7852 35.0092 27.6895 34.9772 27.9257C34.9252 28.3371 34.7412 28.9155 34.5692 29.2292C34.4013 29.5306 33.9733 29.9543 33.6694 30.1172C33.4734 30.2231 33.0135 30.4105 32.9535 30.4105C32.9495 30.4105 32.9375 29.4451 32.9255 28.2597C32.9095 26.2638 32.9015 26.0845 32.8255 25.7098C32.7095 25.1599 32.5976 24.834 32.3936 24.4226C31.8017 23.2495 30.7499 22.5366 29.2781 22.3248C28.9582 22.2759 28.2623 22.2637 25.8707 22.2637H22.8632L22.9672 21.9582C23.0951 21.5712 23.3831 21.115 23.6631 20.8665C24.067 20.4999 24.7349 20.2351 25.4588 20.1496C25.8947 20.1007 31.8417 20.0967 32.2776 20.1455ZM28.6022 23.6079C29.1861 23.6487 29.5381 23.722 29.934 23.8808C30.8658 24.2556 31.3778 24.9929 31.5617 26.2149C31.6417 26.7648 31.6417 30.7282 31.5577 31.3474C31.3698 32.7893 30.7259 33.5674 29.4621 33.8973C29.1541 33.9788 28.9262 34.0073 28.2983 34.0317C27.5784 34.0602 27.4984 34.0725 27.2984 34.1661C26.9945 34.3128 26.9105 34.4024 26.2826 35.2578C25.9787 35.6733 25.6907 36.044 25.6427 36.0806C25.5107 36.1906 25.3708 36.1703 25.2308 36.0236C25.1628 35.9503 24.8669 35.5592 24.5669 35.1519C23.807 34.1173 23.6671 34.0358 22.6032 34.0358C20.4596 34.0358 19.6757 33.5144 19.3918 31.9054C19.3398 31.5958 19.3238 31.1315 19.3118 29.2333C19.2998 27.7343 19.3078 26.7729 19.3358 26.4756C19.5117 24.6466 20.4516 23.7342 22.2993 23.6079C22.9232 23.5672 27.9943 23.5631 28.6022 23.6079Z" fill="#333333"/>
<path d="M22.3202 28.3867C21.7483 28.7208 21.7163 29.5436 22.2602 29.9102C22.4522 30.0405 22.8041 30.0813 23.0361 30.0039C23.1201 29.9754 23.2641 29.8776 23.3521 29.7839C23.776 29.3521 23.664 28.6515 23.1281 28.3704C22.9121 28.2605 22.5242 28.2645 22.3202 28.3867Z" fill="#333333"/>
<path d="M25.0775 28.3611C24.7656 28.5281 24.6016 28.8051 24.6016 29.1676C24.5976 29.6442 24.9175 30.0027 25.3775 30.0353C25.6974 30.0597 25.9334 29.966 26.1173 29.7461C26.4933 29.298 26.3653 28.6381 25.8534 28.3693C25.6614 28.2715 25.2535 28.2674 25.0775 28.3611Z" fill="#333333"/>
<path d="M27.7793 28.3851C27.6793 28.4381 27.5473 28.5603 27.4794 28.6539C27.3714 28.8128 27.3594 28.8576 27.3594 29.1631C27.3594 29.4605 27.3714 29.5175 27.4674 29.6641C27.6073 29.88 27.9193 30.043 28.1872 30.043C28.8511 30.043 29.2551 29.3627 28.9591 28.7517C28.8071 28.4462 28.6032 28.3159 28.2432 28.2996C28.0033 28.2873 27.9313 28.2996 27.7793 28.3851Z" fill="#333333"/>
</svg>
