<svg width="18" height="17" viewBox="0 0 18 17" fill="none" xmlns="http://www.w3.org/2000/svg">
<path d="M7.61859 0.0923634C5.73164 0.391354 4.03736 1.28832 2.71516 2.68361C1.59228 3.86628 0.854775 5.32137 0.529209 6.95585C0.396324 7.66678 0.376391 9.18831 0.502632 9.89259C0.748468 11.3012 1.43947 12.8094 2.34308 13.9256C2.51583 14.1449 2.51583 14.1449 2.3763 14.1449C2.13047 14.1449 1.43258 14.2027 1.35949 14.4153C1.27312 14.6479 1.30634 14.7874 1.49902 15C1.63191 15.1395 2.10389 15.2744 3.11381 15.2744C4.14367 15.2744 4.17024 15.2678 4.3297 15.1083C4.48917 14.9488 4.49581 14.9223 4.49581 13.8924C4.49581 12.8825 4.48917 12.6329 4.34964 12.5C4.12373 12.3007 3.9842 12.2741 3.73837 12.3738C3.51911 12.4668 3.39287 12.8825 3.353 13.2147C3.33307 13.3609 3.28656 13.321 2.97428 12.8825C2.4959 12.2048 2.01087 11.1949 1.79161 10.3909C1.62551 9.77964 1.60557 9.63347 1.61222 8.56375C1.61222 7.52061 1.63215 7.33457 1.79161 6.74988C2.60221 3.74669 5.04728 1.65376 8.14349 1.30826C10.2696 1.07571 12.4622 1.86637 14.0303 3.43441C15.4056 4.80976 16.1365 6.58377 16.1365 8.56375C16.1431 10.9224 15.0136 13.1483 13.1067 14.5103C12.5087 14.9356 11.3992 15.4472 10.6284 15.6531C10.057 15.806 9.84441 15.8259 8.91422 15.8259C8.11691 15.8325 7.7249 15.7993 7.35283 15.7129C7.08041 15.6465 6.79471 15.58 6.71498 15.5601C6.48908 15.507 6.15687 15.8392 6.15687 16.1116C6.15687 16.4504 6.37613 16.6298 6.93424 16.7627C8.10362 17.0285 9.06039 17.0684 10.1899 16.8956C13.1865 16.4504 15.7445 14.4173 16.8474 11.5869C17.2461 10.5703 17.3856 9.77964 17.3856 8.49731C17.3856 7.21497 17.2461 6.42431 16.8474 5.40774C16.0833 3.45434 14.5751 1.80657 12.6815 0.863094C11.2264 0.132229 9.25972 -0.166761 7.61859 0.0923634Z" fill="white"/>
<path d="M4.30409 5.13615C3.95195 5.26239 3.56659 5.62782 3.39384 5.9999C3.24102 6.33211 3.23438 6.36533 3.23438 8.45826C3.23438 9.89342 3.26095 10.6575 3.31411 10.8369C3.41377 11.1758 3.82571 11.6408 4.1845 11.8136C4.4702 11.9531 4.54993 11.9531 8.88196 11.9531C13.214 11.9531 13.2937 11.9531 13.5794 11.8136C13.9382 11.6408 14.3502 11.1758 14.4498 10.8369C14.503 10.6575 14.5296 9.89342 14.5296 8.45826C14.5296 6.37198 14.5229 6.33211 14.3701 5.9999C14.1907 5.60789 13.7721 5.22917 13.4067 5.12286C13.0346 5.00991 4.61637 5.0232 4.30409 5.13615ZM13.2339 6.33876L13.4 6.49822V8.48484C13.4 10.3984 13.3934 10.4781 13.2605 10.6509L13.1276 10.8236H8.91519H4.70275L4.51671 10.6641L4.33067 10.5047V8.51142V6.51815L4.49013 6.3454L4.64959 6.17265H8.86203H13.0745L13.2339 6.33876Z" fill="white"/>
<path d="M8.29685 6.75708C7.81847 6.92983 7.48626 7.21553 7.267 7.64076C7.0278 8.11914 6.98129 8.5178 7.11418 8.98289C7.39988 9.97288 8.4098 10.5443 9.36657 10.2652C10.3566 9.97952 10.928 8.9696 10.6489 8.01283C10.3499 6.98962 9.26691 6.41158 8.29685 6.75708ZM9.35328 8.01283C9.71207 8.34505 9.61905 8.91645 9.17389 9.12906C8.49618 9.44799 7.86498 8.57759 8.38323 8.03277C8.67557 7.72713 9.041 7.72049 9.35328 8.01283Z" fill="white"/>
</svg>
