<svg width="16" height="16" viewBox="0 0 16 16" fill="none" xmlns="http://www.w3.org/2000/svg">
<path d="M15.2351 1.54935H13.6394C13.5862 1.39893 13.4878 1.26862 13.3578 1.17624C13.2277 1.08385 13.0723 1.03392 12.9127 1.03326H12.0276C11.9768 1.03049 11.9281 1.01198 11.8883 0.980312C11.8485 0.94864 11.8196 0.905367 11.8054 0.856493C11.716 0.605833 11.5512 0.388975 11.3336 0.235641C11.1161 0.0823072 10.8564 0 10.5903 0C10.3241 0 10.0645 0.0823072 9.84696 0.235641C9.62942 0.388975 9.46462 0.605833 9.37515 0.856493C9.36103 0.905367 9.33206 0.94864 9.29225 0.980312C9.25244 1.01198 9.20377 1.03049 9.15297 1.03326H8.26787C8.10833 1.03392 7.95289 1.08385 7.82281 1.17624C7.69274 1.26862 7.59439 1.39893 7.54121 1.54935H5.94544C5.74013 1.54935 5.54322 1.63091 5.39804 1.77609C5.25286 1.92127 5.1713 2.11818 5.1713 2.32349V7.57992C4.62061 7.31655 4.01216 7.19703 3.40276 7.23249C2.79336 7.26796 2.20289 7.45727 1.68646 7.78273C1.17004 8.1082 0.744505 8.55922 0.449591 9.09369C0.154677 9.62815 0 10.2286 0 10.8391C0 11.4495 0.154677 12.05 0.449591 12.5844C0.744505 13.1189 1.17004 13.5699 1.68646 13.8954C2.20289 14.2208 2.79336 14.4101 3.40276 14.4456C4.01216 14.4811 4.62061 14.3616 5.1713 14.0982V15.2259C5.1713 15.4312 5.25286 15.6281 5.39804 15.7733C5.54322 15.9184 5.74013 16 5.94544 16H15.2351C15.4405 16 15.6374 15.9184 15.7825 15.7733C15.9277 15.6281 16.0093 15.4312 16.0093 15.2259V2.32349C16.0093 2.11818 15.9277 1.92127 15.7825 1.77609C15.6374 1.63091 15.4405 1.54935 15.2351 1.54935ZM14.461 12.3873H12.6547C12.5862 12.3873 12.5206 12.4145 12.4722 12.4629C12.4238 12.5113 12.3966 12.5769 12.3966 12.6454V14.4517H6.71958V12.6903C7.0572 12.1318 7.23566 11.4916 7.23566 10.8391C7.23566 10.1865 7.0572 9.5463 6.71958 8.98782V3.09763H7.54121C7.59439 3.24805 7.69274 3.37837 7.82281 3.47075C7.95289 3.56313 8.10833 3.61307 8.26787 3.61373H12.9127C13.0723 3.61307 13.2277 3.56313 13.3578 3.47075C13.4878 3.37837 13.5862 3.24805 13.6394 3.09763H14.461V12.3873ZM14.0961 12.9034L12.9127 14.0868V12.9034H14.0961ZM8.00982 1.8074C8.00982 1.73896 8.03701 1.67332 8.0854 1.62493C8.13379 1.57654 8.19943 1.54935 8.26787 1.54935H9.15297C9.31033 1.54747 9.46317 1.49647 9.59012 1.40347C9.71707 1.31048 9.8118 1.18014 9.86105 1.03067C9.91467 0.880173 10.0135 0.749947 10.1441 0.657863C10.2747 0.565778 10.4305 0.516345 10.5903 0.516345C10.7501 0.516345 10.9059 0.565778 11.0365 0.657863C11.167 0.749947 11.2659 0.880173 11.3195 1.03067C11.3688 1.18014 11.4635 1.31048 11.5905 1.40347C11.7174 1.49647 11.8703 1.54747 12.0276 1.54935H12.9127C12.9812 1.54935 13.0468 1.57654 13.0952 1.62493C13.1436 1.67332 13.1708 1.73896 13.1708 1.8074V2.83959C13.1708 2.90802 13.1436 2.97366 13.0952 3.02205C13.0468 3.07045 12.9812 3.09763 12.9127 3.09763H8.26787C8.19943 3.09763 8.13379 3.07045 8.0854 3.02205C8.03701 2.97366 8.00982 2.90802 8.00982 2.83959V1.8074ZM5.68739 2.32349C5.68739 2.25505 5.71458 2.18942 5.76298 2.14102C5.81137 2.09263 5.877 2.06544 5.94544 2.06544H7.49373V2.58154H6.46154C6.3931 2.58154 6.32746 2.60873 6.27907 2.65712C6.23068 2.70551 6.20349 2.77115 6.20349 2.83959V8.31561C6.04542 8.15418 5.87264 8.00783 5.68739 7.87848V2.32349ZM0.526449 10.8391C0.526449 10.2266 0.708059 9.62792 1.04831 9.11869C1.38857 8.60946 1.87219 8.21257 2.43801 7.9782C3.00383 7.74383 3.62645 7.6825 4.22713 7.80199C4.8278 7.92147 5.37956 8.21639 5.81262 8.64945C6.24568 9.08251 6.5406 9.63427 6.66008 10.2349C6.77957 10.8356 6.71824 11.4582 6.48387 12.0241C6.2495 12.5899 5.85261 13.0735 5.34338 13.4138C4.83415 13.754 4.23546 13.9356 3.62302 13.9356C2.80203 13.9347 2.01492 13.6082 1.43439 13.0277C0.853866 12.4471 0.527337 11.66 0.526449 10.8391ZM15.4932 15.2259C15.4932 15.2943 15.466 15.3599 15.4176 15.4083C15.3692 15.4567 15.3036 15.4839 15.2351 15.4839H5.94544C5.877 15.4839 5.81137 15.4567 5.76298 15.4083C5.71458 15.3599 5.68739 15.2943 5.68739 15.2259V13.7996C5.87264 13.6703 6.04542 13.5239 6.20349 13.3625V14.7098C6.20349 14.7782 6.23068 14.8438 6.27907 14.8922C6.32746 14.9406 6.3931 14.9678 6.46154 14.9678H12.6547C12.6886 14.9679 12.7223 14.9612 12.7536 14.9482C12.785 14.9352 12.8135 14.9161 12.8374 14.8919L14.9017 12.8276C14.9257 12.8037 14.9447 12.7753 14.9576 12.744C14.9706 12.7127 14.9772 12.6792 14.9771 12.6454V2.83959C14.9771 2.77115 14.9499 2.70551 14.9015 2.65712C14.8531 2.60873 14.7875 2.58154 14.7191 2.58154H13.6869V2.06544H15.2351C15.3036 2.06544 15.3692 2.09263 15.4176 2.14102C15.466 2.18942 15.4932 2.25505 15.4932 2.32349V15.2259Z" fill="white"/>
<path d="M12.0611 4.72209C12.0128 4.6737 11.9471 4.6465 11.8787 4.64648H9.29823C9.2298 4.6465 9.16417 4.6737 9.11579 4.72209L7.82555 6.01233C7.77718 6.06072 7.75 6.12634 7.75 6.19477C7.75 6.26319 7.77718 6.32882 7.82555 6.37721L10.406 8.95768C10.4544 9.00606 10.52 9.03323 10.5885 9.03323C10.6569 9.03323 10.7225 9.00606 10.7709 8.95768L13.3514 6.37721C13.3998 6.32882 13.4269 6.26319 13.4269 6.19477C13.4269 6.12634 13.3998 6.06072 13.3514 6.01233L12.0611 4.72209ZM12.546 5.93672H11.7461L11.1268 5.16258H11.7719L12.546 5.93672ZM9.38158 6.45282L9.88193 7.70383L8.63092 6.45282H9.38158ZM11.2395 6.45282L10.5885 8.08032L9.93741 6.45282H11.2395ZM10.093 5.93672L10.5885 5.31741L11.0839 5.93672H10.093ZM11.7961 6.45282H12.5468L11.2958 7.70383L11.7961 6.45282ZM9.40583 5.16258H10.051L9.43164 5.93672H8.63169L9.40583 5.16258Z" fill="white"/>
<path d="M13.169 9.54883H8.00805C7.93961 9.54883 7.87397 9.57601 7.82558 9.62441C7.77719 9.6728 7.75 9.73844 7.75 9.80688V10.8391C7.75 10.9075 7.77719 10.9731 7.82558 11.0215C7.87397 11.0699 7.93961 11.0971 8.00805 11.0971H13.169C13.2374 11.0971 13.3031 11.0699 13.3515 11.0215C13.3999 10.9731 13.427 10.9075 13.427 10.8391V9.80688C13.427 9.73844 13.3999 9.6728 13.3515 9.62441C13.3031 9.57601 13.2374 9.54883 13.169 9.54883ZM12.9109 10.581H8.26609V10.0649H12.9109V10.581Z" fill="white"/>
<path d="M12.9105 11.6133H8.26562V12.1294H12.9105V11.6133Z" fill="white"/>
<path d="M4.1425 8.77391H3.88446V8.25781H3.36836V8.77391H3.11031C2.83656 8.77391 2.57402 8.88266 2.38045 9.07623C2.18687 9.2698 2.07813 9.53234 2.07812 9.8061V10.0641C2.07813 10.3379 2.18687 10.6004 2.38045 10.794C2.57402 10.9876 2.83656 11.0963 3.11031 11.0963H3.36836V12.3866H3.11031C2.97344 12.3866 2.84217 12.3322 2.74538 12.2354C2.64859 12.1386 2.59422 12.0074 2.59422 11.8705V11.6124H2.07812V11.8705C2.07813 12.1442 2.18687 12.4068 2.38045 12.6003C2.57402 12.7939 2.83656 12.9027 3.11031 12.9027H3.36836V13.4188H3.88446V12.9027H4.1425C4.41626 12.9027 4.6788 12.7939 4.87237 12.6003C5.06594 12.4068 5.17469 12.1442 5.17469 11.8705V11.6124C5.17469 11.3387 5.06594 11.0761 4.87237 10.8826C4.6788 10.689 4.41626 10.5802 4.1425 10.5802H3.88446V9.29H4.1425C4.27938 9.29 4.41065 9.34438 4.50744 9.44116C4.60422 9.53795 4.6586 9.66922 4.6586 9.8061V10.0641H5.17469V9.8061C5.17469 9.53234 5.06594 9.2698 4.87237 9.07623C4.6788 8.88266 4.41626 8.77391 4.1425 8.77391ZM4.1425 11.0963C4.27938 11.0963 4.41065 11.1507 4.50744 11.2475C4.60422 11.3443 4.6586 11.4756 4.6586 11.6124V11.8705C4.6586 12.0074 4.60422 12.1386 4.50744 12.2354C4.41065 12.3322 4.27938 12.3866 4.1425 12.3866H3.88446V11.0963H4.1425ZM3.36836 10.5802H3.11031C2.97344 10.5802 2.84217 10.5259 2.74538 10.4291C2.64859 10.3323 2.59422 10.201 2.59422 10.0641V9.8061C2.59422 9.66922 2.64859 9.53795 2.74538 9.44116C2.84217 9.34438 2.97344 9.29 3.11031 9.29H3.36836V10.5802Z" fill="white"/>
<path d="M0.26586 7.22683H1.29805C1.36649 7.22683 1.43212 7.19964 1.48052 7.15125C1.52891 7.10285 1.5561 7.03722 1.5561 6.96878V5.16245H2.58829V5.93659C2.5883 5.98762 2.60344 6.0375 2.63179 6.07993C2.66015 6.12235 2.70044 6.15542 2.74759 6.17494C2.79474 6.19447 2.84661 6.19958 2.89666 6.18963C2.94671 6.17968 2.99268 6.15511 3.02877 6.11903L4.57706 4.57075C4.62543 4.52236 4.65261 4.45673 4.65261 4.38831C4.65261 4.31988 4.62543 4.25426 4.57706 4.20587L3.02877 2.65758C2.99268 2.62151 2.94671 2.59694 2.89666 2.58699C2.84661 2.57703 2.79474 2.58214 2.74759 2.60167C2.70044 2.6212 2.66015 2.65426 2.63179 2.69669C2.60344 2.73911 2.5883 2.78899 2.58829 2.84002V3.61417H1.29805C0.955983 3.61458 0.628044 3.75064 0.386167 3.99252C0.144289 4.2344 0.00822224 4.56234 0.0078125 4.9044V6.96878C0.0078125 7.03722 0.0349995 7.10285 0.0833928 7.15125C0.131786 7.19964 0.197421 7.22683 0.26586 7.22683ZM0.523907 4.9044C0.523907 4.69909 0.605468 4.50218 0.750648 4.357C0.895828 4.21182 1.09273 4.13026 1.29805 4.13026H2.84633C2.91477 4.13026 2.98041 4.10307 3.0288 4.05468C3.07719 4.00629 3.10438 3.94065 3.10438 3.87221V3.46295L4.02974 4.38831L3.10438 5.31367V4.9044C3.10438 4.83596 3.07719 4.77033 3.0288 4.72194C2.98041 4.67354 2.91477 4.64635 2.84633 4.64635H1.5561C1.41922 4.64635 1.28795 4.70073 1.19116 4.79752C1.09438 4.8943 1.04 5.02557 1.04 5.16245V6.71073H0.523907V4.9044Z" fill="white"/>
</svg>
