<svg width="20" height="19" viewBox="0 0 20 19" fill="none" xmlns="http://www.w3.org/2000/svg">
<path d="M9.28906 0.268757C9.11922 0.511391 9.09495 1.32421 9.09495 6.6864V12.8371L8.34279 12.9221C5.60104 13.2375 2.60452 14.6084 0.627066 16.4645C-0.0523062 17.1075 -0.149359 17.4472 0.190327 17.9324C0.530013 18.4298 1.08807 18.2964 1.94941 17.5321C6.51091 13.468 13.3653 13.4801 17.9874 17.5806C18.8003 18.2964 19.3705 18.4177 19.698 17.9324C20.0498 17.435 19.9406 17.1075 19.2127 16.416C17.2595 14.6084 14.2509 13.2254 11.5577 12.9221L10.7934 12.8371V9.45241V6.06768H13.6322C16.4346 6.06768 16.4831 6.06768 16.6651 5.80079C16.9563 5.38831 16.9077 5.21847 16.1798 4.07809L15.5005 3.03477L16.1798 1.99145C16.9077 0.851076 16.9563 0.681234 16.6651 0.268757C16.4831 0.00186157 16.4589 0.00186157 12.9771 0.00186157C9.4953 0.00186157 9.47103 0.00186157 9.28906 0.268757ZM14.2509 1.90653C14.1296 2.10064 13.9597 2.3554 13.8627 2.48885C13.7778 2.6223 13.705 2.86493 13.705 3.03477C13.705 3.20461 13.7778 3.44725 13.8627 3.5807C13.9597 3.71414 14.1296 3.96891 14.2509 4.15088L14.4571 4.49057H12.6253H10.7934V3.03477V1.57898H12.6253H14.4571L14.2509 1.90653Z" fill="#999999"/>
</svg>
