<svg width="49" height="49" viewBox="0 0 49 49" fill="none" xmlns="http://www.w3.org/2000/svg">
<g filter="url(#filter0_b_2817_7948)">
<rect width="49" height="49" rx="15" fill="white" fill-opacity="0.03"/>
<rect x="0.5" y="0.5" width="48" height="48" rx="14.5" stroke="#D1D9E2" stroke-opacity="0.3"/>
<path d="M27.9728 23.4922C25.5581 23.4922 23.5938 25.4565 23.5938 27.8712C23.5938 30.2859 25.5581 32.2503 27.9728 32.2503C30.3875 32.2503 32.3518 30.2859 32.3518 27.8712C32.3518 25.4565 30.3875 23.4922 27.9728 23.4922ZM27.9728 31.2341C26.1186 31.2341 24.6099 29.7254 24.6099 27.8712C24.6099 26.017 26.1186 24.5083 27.9728 24.5083C29.827 24.5083 31.3357 26.017 31.3357 27.8712C31.3357 29.7254 29.827 31.2341 27.9728 31.2341Z" fill="white" stroke="#373737" stroke-width="0.5"/>
<path d="M30.7837 26.0452L30.6473 25.8357L30.4378 25.9722L30.0053 26.254L29.7959 26.3904L29.9323 26.5999C30.1785 26.978 30.309 27.4173 30.309 27.8712C30.309 29.1561 29.2633 30.2018 27.9784 30.2018C27.4382 30.2018 26.9113 30.0125 26.4954 29.6693L26.3026 29.5102L26.1435 29.7031L25.815 30.1013L25.6559 30.2941L25.8487 30.4532C26.4463 30.9464 27.2025 31.218 27.9784 31.218C29.8241 31.218 31.3252 29.7169 31.3252 27.8712C31.3252 27.2203 31.1377 26.5886 30.7837 26.0452Z" fill="white" stroke="#373737" stroke-width="0.5"/>
<path d="M29.455 26.0726L29.6476 26.232L29.807 26.0394L30.136 25.6417L30.2954 25.449L30.1027 25.2897C29.505 24.7955 28.7486 24.5234 27.9718 24.5234C26.1261 24.5234 24.625 26.0245 24.625 27.8702C24.625 28.5639 24.8357 29.2302 25.2343 29.7957L25.3783 30L25.5826 29.856L26.0045 29.5587L26.209 29.4147L26.0649 29.2103C25.7876 28.817 25.6411 28.3541 25.6411 27.8702C25.6411 26.5853 26.6869 25.5396 27.9718 25.5396C28.5125 25.5396 29.0396 25.729 29.455 26.0726Z" fill="white" stroke="#373737" stroke-width="0.5"/>
<path d="M29.0098 27.605H29.2598V27.355V27.226C29.2598 26.7217 28.9346 26.2971 28.4856 26.1408V25.8066V25.5566H28.2356H27.7195H27.4695V25.8066V26.1408C27.0205 26.2971 26.6953 26.7217 26.6953 27.226C26.6953 27.5962 26.8705 27.9262 27.1423 28.1373H26.9453H26.6953V28.3873V28.5163C26.6953 29.0206 27.0205 29.4452 27.4695 29.6015V29.9357V30.1857H27.7195H28.2356H28.4856V29.9357V29.6015C28.9346 29.4452 29.2598 29.0206 29.2598 28.5163C29.2598 28.1461 29.0847 27.8161 28.8128 27.605H29.0098ZM27.7114 28.3873V28.3711C27.7564 28.3765 27.8022 28.3792 27.8485 28.3792H28.1066C28.182 28.3792 28.2437 28.441 28.2437 28.5163C28.2437 28.5917 28.182 28.6534 28.1066 28.6534H27.8485C27.7732 28.6534 27.7114 28.5917 27.7114 28.5163V28.3873ZM28.2437 27.355V27.3712C28.1987 27.3658 28.153 27.3631 28.1066 27.3631H27.8485C27.7732 27.3631 27.7114 27.3013 27.7114 27.226C27.7114 27.1506 27.7732 27.0889 27.8485 27.0889H28.1066C28.182 27.0889 28.2437 27.1506 28.2437 27.226V27.355Z" fill="white" stroke="#373737" stroke-width="0.5"/>
<path d="M28.7637 18.7841L28.9458 18.6178L28.7819 18.4334L26.4712 15.8339L26.3967 15.75H26.2844H18.3107H18.1984L18.1239 15.8339L15.8131 18.4334L15.6493 18.6178L15.8314 18.7841L22.129 24.534L22.2975 24.688L22.4661 24.534L28.7637 18.7841ZM22.2975 22.3937L21.1959 19.0887H23.3992L22.2975 22.3937ZM24.47 19.0887H26.9229L23.397 22.3081L24.47 19.0887ZM26.1685 17.0227L27.1016 18.0726H25.2352L26.1685 17.0227ZM23.4287 16.7661H25.0371L24.233 17.6709L23.4287 16.7661ZM22.2975 17.0227L23.2309 18.0726H21.3642L22.2975 17.0227ZM21.1662 16.7661L20.362 17.6709L19.5578 16.7661H21.1662ZM17.4935 18.0726L18.4266 17.0227L19.3599 18.0726H17.4935ZM20.1251 19.0887L21.1983 22.3081L17.6722 19.0887H20.1251Z" fill="white" stroke="#373737" stroke-width="0.5"/>
<path d="M29.1137 19.1701L28.9401 18.9902L28.7602 19.1639L28.3889 19.5223L28.209 19.6959L28.3826 19.8758C28.8371 20.3468 29.2009 20.8837 29.4764 21.472C29.1963 21.7053 29.0144 22.0552 29.0144 22.4516C29.0144 23.159 29.5893 23.7339 30.2967 23.7339C31.0041 23.7339 31.579 23.159 31.579 22.4516C31.579 21.8015 31.0934 21.2633 30.4656 21.1804C30.1366 20.4367 29.6838 19.7608 29.1137 19.1701ZM30.2967 22.1855C30.4433 22.1855 30.5628 22.305 30.5628 22.4516C30.5628 22.5982 30.4433 22.7177 30.2967 22.7177C30.1501 22.7177 30.0306 22.5982 30.0306 22.4516C30.0306 22.305 30.1501 22.1855 30.2967 22.1855Z" fill="white" stroke="#373737" stroke-width="0.5"/>
<path d="M24.1008 30.9602H24.3508V30.7102V30.1941V29.9441H24.1008C20.8239 29.9441 18.1573 27.2775 18.1573 24.0006C18.1573 23.9032 18.1605 23.8051 18.1661 23.7061C18.749 23.5863 19.1895 23.0713 19.1895 22.4522C19.1895 21.7448 18.6146 21.1699 17.9073 21.1699C17.1999 21.1699 16.625 21.7448 16.625 22.4522C16.625 22.883 16.84 23.2587 17.1621 23.4897C17.1492 23.6582 17.1411 23.8291 17.1411 24.0006C17.1411 27.8385 20.2629 30.9602 24.1008 30.9602ZM17.6411 22.4522C17.6411 22.3056 17.7607 22.1861 17.9073 22.1861C18.0538 22.1861 18.1734 22.3056 18.1734 22.4522C18.1734 22.5988 18.0538 22.7183 17.9073 22.7183C17.7607 22.7183 17.6411 22.5988 17.6411 22.4522Z" fill="white" stroke="#373737" stroke-width="0.5"/>
</g>
<defs>
<filter id="filter0_b_2817_7948" x="-7" y="-7" width="63" height="63" filterUnits="userSpaceOnUse" color-interpolation-filters="sRGB">
<feFlood flood-opacity="0" result="BackgroundImageFix"/>
<feGaussianBlur in="BackgroundImageFix" stdDeviation="3.5"/>
<feComposite in2="SourceAlpha" operator="in" result="effect1_backgroundBlur_2817_7948"/>
<feBlend mode="normal" in="SourceGraphic" in2="effect1_backgroundBlur_2817_7948" result="shape"/>
</filter>
</defs>
</svg>
