<svg width="49" height="49" viewBox="0 0 49 49" fill="none" xmlns="http://www.w3.org/2000/svg">
<g filter="url(#filter0_b_3008_4993)">
<rect width="49" height="49" rx="15" fill="white" fill-opacity="0.03"/>
<rect x="0.5" y="0.5" width="48" height="48" rx="14.5" stroke="#D1D9E2" stroke-opacity="0.3"/>
</g>
<path d="M27.832 17.3756C25.0123 17.6966 22.5824 19.4892 21.4728 22.0751C21.2298 22.6482 21.0602 23.1938 20.9456 23.8082C20.8355 24.3996 20.8355 25.9401 20.9456 26.5316C21.2482 28.1408 21.968 29.5209 23.0959 30.6671C24.8977 32.4873 27.4148 33.308 29.9502 32.8953C32.5773 32.4689 34.8193 30.6946 35.8922 28.1913C36.5616 26.6278 36.667 24.6426 36.1764 22.9462C35.8234 21.7358 35.1449 20.5896 34.2279 19.668C33.0266 18.4622 31.6008 17.7195 29.941 17.4444C29.4275 17.3573 28.318 17.3206 27.832 17.3756ZM29.909 18.8886C32.5131 19.4159 34.5351 21.502 34.9798 24.1108C35.0761 24.6747 35.0761 25.665 34.9798 26.229C34.5351 28.8377 32.5361 30.8963 29.9044 31.4603C29.2808 31.5887 28.1713 31.5978 27.534 31.4786C26.2044 31.2219 25.1178 30.6488 24.1595 29.6905C23.2197 28.746 22.642 27.6778 22.3715 26.3848C22.2522 25.8026 22.2477 24.5326 22.3715 23.9549C22.642 22.6574 23.2197 21.5937 24.1595 20.6492C25.2599 19.5534 26.3603 19.0307 28.1071 18.7786C28.4189 18.7327 29.4642 18.7969 29.909 18.8886Z" fill="white"/>
<path d="M27.9466 21.1079C27.9466 21.6627 27.942 21.6764 27.8411 21.7039C27.6257 21.7544 27.1672 22.0982 26.9654 22.3596C26.3052 23.194 26.3511 24.3952 27.0709 25.1793C27.4652 25.6056 27.9283 25.812 28.6435 25.8853C29.2395 25.9403 29.5742 26.463 29.3266 26.9444C28.9965 27.5955 28.075 27.4625 27.9237 26.7381L27.8916 26.5914H27.1809H26.4749L26.5069 26.8527C26.6032 27.623 27.0342 28.2465 27.6807 28.5537L27.942 28.6775V29.2368L27.9466 29.8008H28.6572H29.3679V29.2506V28.7004L29.6522 28.5583C30.5233 28.1181 30.9863 27.137 30.7846 26.1696C30.7021 25.789 30.5279 25.4635 30.2253 25.1426C29.8493 24.7345 29.4413 24.5374 28.8544 24.4778C28.5289 24.4457 28.3913 24.409 28.2584 24.3219C27.7907 24.0101 27.8228 23.3453 28.3134 23.0656C28.5518 22.9327 28.8727 22.951 29.0882 23.1023C29.2441 23.2123 29.4137 23.5012 29.4137 23.6571C29.4137 23.7442 29.4413 23.7488 30.1244 23.7488H30.835V23.5975C30.835 23.3636 30.7067 22.9327 30.5508 22.6392C30.3766 22.3091 29.9823 21.9378 29.6292 21.7635L29.3679 21.6352V21.0896V20.5394H28.6572H27.9466V21.1079Z" fill="white"/>
<path d="M14.6045 21.2503V21.9609H16.7823H18.9601V21.2503V20.5396H16.7823H14.6045V21.2503Z" fill="white"/>
<path d="M13 25.1697V25.8574H15.9802H18.9603V25.1697V24.482H15.9802H13V25.1697Z" fill="white"/>
<path d="M14.6045 29.0901V29.8008H16.7823H18.9601V29.0901V28.3795H16.7823H14.6045V29.0901Z" fill="white"/>
<defs>
<filter id="filter0_b_3008_4993" x="-7" y="-7" width="63" height="63" filterUnits="userSpaceOnUse" color-interpolation-filters="sRGB">
<feFlood flood-opacity="0" result="BackgroundImageFix"/>
<feGaussianBlur in="BackgroundImageFix" stdDeviation="3.5"/>
<feComposite in2="SourceAlpha" operator="in" result="effect1_backgroundBlur_3008_4993"/>
<feBlend mode="normal" in="SourceGraphic" in2="effect1_backgroundBlur_3008_4993" result="shape"/>
</filter>
</defs>
</svg>
