<svg width="39" height="39" viewBox="0 0 39 39" fill="none" xmlns="http://www.w3.org/2000/svg">
<rect width="39" height="39" rx="7" fill="#DEDDDD"/>
<path d="M13.1936 12.0563C12.8138 12.2506 12.6402 12.6816 12.7957 13.0455C12.8319 13.1268 13.0706 13.3917 13.3961 13.7132L13.9423 14.2503L13.5155 14.2644C13.114 14.275 13.0706 14.2856 12.8391 14.3951C12.5462 14.54 12.2532 14.8297 12.1013 15.13L12 15.3349V16.3594V17.384L12.1049 17.596C12.1953 17.7797 12.4883 18.0835 14.4089 19.9631L16.6116 22.1182L16.6189 24.5913L16.6297 27.0644L16.7418 27.294C16.9408 27.7003 17.2808 27.9688 17.7582 28.0889C18.2646 28.2196 18.5901 28.1348 19.7258 27.5731C20.7169 27.0856 20.9049 26.9407 21.1075 26.5273L21.2232 26.2871L21.2341 24.2026L21.2449 22.1182L21.4294 21.9345L21.6175 21.7472L22.7785 22.8742C23.8094 23.8776 23.954 24.0048 24.0987 24.0437C24.5906 24.1708 25.0608 23.8458 25.1042 23.3512C25.1368 22.9661 25.4334 23.277 19.4618 17.4476C15.5736 13.6532 13.9495 12.0881 13.8555 12.0492C13.6819 11.9821 13.3347 11.9821 13.1936 12.0563ZM18.0114 18.2213L20.5143 20.6661L20.2286 20.9558C20.0224 21.1608 19.9067 21.3127 19.8235 21.4858L19.7041 21.7296L19.6933 23.7893L19.6824 25.8455L18.9265 26.2164L18.1705 26.5874L18.1597 24.1567L18.1488 21.7296L18.0439 21.4999C17.9463 21.2879 17.7835 21.1219 15.7363 19.1152L13.5372 16.96V16.3665V15.7765H14.521H15.5084L18.0114 18.2213Z" fill="#1B1D21"/>
<path d="M19.4212 15.0984C19.325 15.1422 19.2178 15.2298 19.1623 15.3073C19.0736 15.432 19.0625 15.4758 19.0625 15.7555C19.0625 16.052 19.0662 16.0722 19.1771 16.1969C19.2363 16.2676 19.362 16.3586 19.4508 16.3991L19.6134 16.4766H22.0835H24.5535V17.0393V17.602L23.7992 18.2962C23.0227 19.0072 22.9635 19.0813 22.9635 19.3408C22.9635 19.6373 23.2445 19.9709 23.5551 20.0484C23.74 20.0922 23.9841 20.0753 24.1394 20.0012C24.1948 19.9742 24.6164 19.607 25.0749 19.1824C25.7515 18.559 25.929 18.377 26.0178 18.2119L26.125 18.0097V17.0326V16.0554L26.0178 15.8532C25.8773 15.5904 25.526 15.2702 25.2376 15.1422L25.0157 15.0445L22.2979 15.0344L19.5802 15.0276L19.4212 15.0984Z" fill="#1B1D21"/>
</svg>
