<svg width="16" height="19" viewBox="0 0 16 19" fill="none" xmlns="http://www.w3.org/2000/svg">
<path d="M1.36504 0.0665703C0.930707 0.295275 0.732156 0.802586 0.910025 1.23089C0.95139 1.32653 1.2244 1.6384 1.59668 2.0168L2.22129 2.64886L1.73318 2.66549C1.27403 2.67797 1.2244 2.69044 0.959663 2.81935C0.624608 2.98984 0.289553 3.33082 0.115821 3.68427L0 3.92545V5.13135V6.33726L0.119958 6.58675C0.22337 6.80298 0.558424 7.16059 2.75489 9.3728L5.27401 11.9093L5.28228 14.8201L5.29469 17.7309L5.42292 18.0012C5.65043 18.4794 6.03926 18.7955 6.58527 18.9368C7.16438 19.0907 7.53666 18.9909 8.83552 18.3297C9.96891 17.7559 10.184 17.5854 10.4156 17.0989L10.548 16.8161L10.5604 14.3627L10.5728 11.9093L10.7838 11.6931L10.9989 11.4727L12.3267 12.7992C13.5056 13.9802 13.6711 14.1299 13.8365 14.1756C14.3991 14.3253 14.9368 13.9427 14.9865 13.3606C15.0237 12.9073 15.3629 13.2733 8.53355 6.4121C4.08684 1.94611 2.22956 0.103994 2.12201 0.0582542C1.92346 -0.0207539 1.52636 -0.0207539 1.36504 0.0665703ZM6.87483 7.32277L9.73727 10.2003L9.41049 10.5413C9.17471 10.7825 9.04234 10.9613 8.9472 11.165L8.8107 11.4519L8.79829 13.8762L8.78588 16.2963L7.92135 16.733L7.05683 17.1696L7.04442 14.3087L7.03201 11.4519L6.91205 11.1816C6.80037 10.9322 6.61423 10.7367 4.27298 8.37481L1.758 5.83826V5.13967V4.44524H2.88312H4.01238L6.87483 7.32277Z" fill="#1B1D21"/>
<path d="M7.45707 3.07014C7.33455 3.11355 7.19791 3.20039 7.12723 3.2772C7.01414 3.40078 7 3.4442 7 3.7214C7 4.0153 7.00471 4.03534 7.14607 4.15892C7.22147 4.22905 7.38168 4.31923 7.49476 4.3593L7.70209 4.43612H10.8497H13.9974V4.99387V5.55162L13.0361 6.23962C12.0466 6.94432 11.9712 7.0178 11.9712 7.27496C11.9712 7.56887 12.3293 7.89951 12.7251 7.97632C12.9607 8.01974 13.2717 8.00304 13.4696 7.92957C13.5403 7.90285 14.0775 7.53881 14.6618 7.11799C15.5241 6.50012 15.7503 6.31977 15.8634 6.15612L16 5.95574V4.98719V4.01864L15.8634 3.81825C15.6843 3.55775 15.2366 3.24047 14.8691 3.11355L14.5864 3.0167L11.123 3.00668L7.65969 3L7.45707 3.07014Z" fill="#1B1D21"/>
</svg>
