<svg width="74" height="74" viewBox="0 0 74 74" fill="none" xmlns="http://www.w3.org/2000/svg">
<circle cx="37" cy="37" r="37" fill="#ECECEC"/>
<path d="M36 24C35.9903 24.6046 36 25.9591 36 33.9032V44C35.081 43.4433 33.9993 43.1869 32.9467 43.4026C29.293 44.1515 25.5385 45.9988 22.9457 48.3895C21.9211 49.3421 21.7747 49.8453 22.287 50.5642C22.7994 51.3011 23.641 51.1034 24.9401 49.9711C31.8197 43.9501 42.1574 43.9681 49.1285 50.043C50.3544 51.1034 51.2143 51.2832 51.7084 50.5642C52.239 49.8273 52.0743 49.3421 50.9765 48.3176C48.424 45.9971 44.6762 44.1489 41.0784 43.4045C40.0182 43.1851 38.9284 43.443 38 44V38V33L42.5599 32.9865C45.5 32.9865 46.482 32.9865 46.7565 32.5911C47.1956 31.9801 47.1224 31.7284 46.0246 30.039L45 28.4933L46.0246 26.9476C47.1224 25.2581 47.1956 25.0065 46.7565 24.3954C46.482 24 45 24 41.5719 24C36.3207 24 36.5 24 36 24ZM43.8234 26.8218C43.6404 27.1093 43.3842 27.4868 43.2379 27.6845C43.1098 27.8822 43 28.2417 43 28.4933C43 28.7449 43.1098 29.1044 43.2379 29.3021C43.3842 29.4998 43.6404 29.8772 43.8234 30.1468L44.5 31H41H38V28.5V26H41H44.5L43.8234 26.8218Z" fill="#333333"/>
<circle cx="26" cy="35" r="7" stroke="#333333" stroke-width="2"/>
</svg>
