<svg width="14" height="18" viewBox="0 0 14 18" fill="none" xmlns="http://www.w3.org/2000/svg">
<path d="M10.9722 5.86204V5.86172V5.86109C10.9722 3.73084 9.24526 2.00391 7.115 2.00391C4.98474 2.00391 3.25781 3.73084 3.25781 5.86109C3.25781 7.99135 4.98474 9.71828 7.115 9.71828H7.11528C9.24415 9.71588 10.9694 7.99091 10.9722 5.86204ZM4.38281 5.86109C4.38281 4.37081 5.57595 3.15923 7.0591 3.12947L7.11471 3.12953C8.62289 3.13128 9.84513 4.35326 9.84719 5.86144C9.847 7.37024 8.62385 8.59328 7.115 8.59328C5.60604 8.59328 4.38281 7.37005 4.38281 5.86109Z" fill="white" stroke="#373737" stroke-width="0.5"/>
<path d="M8.11031 8.15078L8.11074 8.15078L7.745 3.82422V3.57422H7.7448L6.12 3.57422L6.11979 3.57422C5.57935 3.57468 5.14134 4.01254 5.14062 4.55295V4.55328L5.14062 7.17141L5.14063 7.17174C5.14134 7.71214 5.57926 8.15007 6.11967 8.15078H6.12L8.11031 8.15078ZM6.26562 7.02578V4.69922H7.51312L7.96469 5.15007V7.02578H6.26562Z" fill="white" stroke="#373737" stroke-width="0.5"/>
<path d="M11.0472 17.25H11.0473C11.1964 17.2499 11.3394 17.1907 11.4449 17.0852L13.3199 15.2102C13.4254 15.1048 13.4846 14.9617 13.4847 14.8126V14.8125V2.25C13.4847 1.42159 12.8131 0.75 11.9847 0.75H2.25C1.42159 0.75 0.75 1.42159 0.75 2.25V15.75C0.75 16.5784 1.42159 17.25 2.25 17.25H11.0472ZM1.875 2.25C1.875 2.04288 2.04288 1.875 2.25 1.875H11.9847C12.1918 1.875 12.3597 2.04288 12.3597 2.25V14.5796L10.8143 16.125H2.25C2.04288 16.125 1.875 15.9571 1.875 15.75V2.25Z" fill="white" stroke="#373737" stroke-width="0.5"/>
<path d="M10.4766 16.6868C10.4766 16.9975 10.7284 17.2493 11.0391 17.2493C11.3497 17.2493 11.6016 16.9975 11.6016 16.6868V15.0527H12.9219C13.2325 15.0527 13.4844 14.8009 13.4844 14.4902C13.4844 14.1796 13.2325 13.9277 12.9219 13.9277H11.0391C10.7284 13.9277 10.4766 14.1796 10.4766 14.4902V16.6868Z" fill="white" stroke="#373737" stroke-width="0.5"/>
<path d="M2.57031 9.71961H11.67C11.9807 9.71961 12.2325 9.46777 12.2325 9.15711V2.56836C12.2325 2.25769 11.9807 2.00586 11.67 2.00586H2.57031C2.25965 2.00586 2.00781 2.25769 2.00781 2.56836V9.15711C2.00781 9.46777 2.25965 9.71961 2.57031 9.71961ZM11.1075 3.13086V8.59461H3.13281V3.13086H11.1075Z" fill="white" stroke="#373737" stroke-width="0.5"/>
<path d="M2.57031 10.9746H11.67C11.9807 10.9746 12.2325 10.7228 12.2325 10.4121C12.2325 10.1014 11.9807 9.84961 11.67 9.84961H2.57031C2.25965 9.84961 2.00781 10.1014 2.00781 10.4121C2.00781 10.7228 2.25965 10.9746 2.57031 10.9746Z" fill="white" stroke="#373737" stroke-width="0.5"/>
<path d="M2.57031 12.2305H11.67C11.9807 12.2305 12.2325 11.9786 12.2325 11.668C12.2325 11.3573 11.9807 11.1055 11.67 11.1055H2.57031C2.25965 11.1055 2.00781 11.3573 2.00781 11.668C2.00781 11.9786 2.25965 12.2305 2.57031 12.2305Z" fill="white" stroke="#373737" stroke-width="0.5"/>
<path d="M2.57031 13.4844H11.67C11.9807 13.4844 12.2325 13.2325 12.2325 12.9219C12.2325 12.6112 11.9807 12.3594 11.67 12.3594H2.57031C2.25965 12.3594 2.00781 12.6112 2.00781 12.9219C2.00781 13.2325 2.25965 13.4844 2.57031 13.4844Z" fill="white" stroke="#373737" stroke-width="0.5"/>
<path d="M2.57031 14.7402H8.84656C9.15723 14.7402 9.40906 14.4884 9.40906 14.1777C9.40906 13.8671 9.15723 13.6152 8.84656 13.6152H2.57031C2.25965 13.6152 2.00781 13.8671 2.00781 14.1777C2.00781 14.4884 2.25965 14.7402 2.57031 14.7402Z" fill="white" stroke="#373737" stroke-width="0.5"/>
<path d="M2.57031 15.9941H6.02187C6.33254 15.9941 6.58437 15.7423 6.58437 15.4316C6.58437 15.121 6.33254 14.8691 6.02187 14.8691H2.57031C2.25965 14.8691 2.00781 15.121 2.00781 15.4316C2.00781 15.7423 2.25965 15.9941 2.57031 15.9941Z" fill="white" stroke="#373737" stroke-width="0.5"/>
</svg>
