<svg width="16" height="15" viewBox="0 0 16 15" fill="none" xmlns="http://www.w3.org/2000/svg">
<path d="M1.74729 0.104214C1.33597 0.268743 0.995158 0.574298 0.801248 0.973869L0.636719 1.3088V7.50804V13.7073L0.801248 14.0422C0.989282 14.4183 1.27133 14.6944 1.65915 14.8766C1.92945 15 1.97646 15 6.48339 15H11.0373L11.3723 14.8355C12.0363 14.5123 12.3594 13.9247 12.3594 13.055C12.3594 12.5791 12.3536 12.5438 12.189 12.3793C11.9481 12.1384 11.5956 12.1384 11.3546 12.3793C11.196 12.5379 11.1842 12.5849 11.1842 12.9728C11.1842 13.4487 11.0902 13.6779 10.861 13.7837C10.6436 13.8836 2.32315 13.8836 2.10573 13.7837C1.7708 13.6309 1.78255 13.8953 1.78255 7.50804C1.78255 1.12077 1.7708 1.38519 2.10573 1.23242C2.21738 1.17953 3.15754 1.1619 5.70187 1.1619H9.15112L10.1383 2.1432C10.6789 2.6838 11.1431 3.17739 11.1607 3.2479C11.2606 3.57108 11.6778 3.77087 11.954 3.62984C12.3124 3.44769 12.3888 3.09512 12.1773 2.63091C12.001 2.2431 10.0854 0.33338 9.68584 0.151222L9.39203 0.0160732L5.7195 0.0043211C2.188 -0.00743103 2.03522 -0.00155544 1.74729 0.104214Z" fill="#333333"/>
<path d="M3.25719 3.59455C2.98101 3.74733 2.887 4.08814 3.03977 4.38782C3.19255 4.67575 3.28657 4.6875 5.3138 4.6875C7.35279 4.6875 7.44681 4.67575 7.58784 4.36432C7.72298 4.06464 7.62897 3.73558 7.35867 3.59455C7.1295 3.47703 3.46872 3.47703 3.25719 3.59455Z" fill="#333333"/>
<path d="M13.416 3.97726C12.9812 4.11828 12.6522 4.41796 10.2959 6.78601C8.23924 8.8485 7.74565 9.37735 7.54587 9.72403C7.26382 10.2 7.03465 10.8111 6.97589 11.2224L6.93476 11.5045H6.66446C6.40591 11.5045 6.38829 11.4927 6.25314 11.2401C5.97696 10.723 5.44812 10.3939 4.8135 10.3469C3.92035 10.2764 3.10357 10.958 2.98018 11.8688C2.91554 12.333 3.15646 12.6797 3.54428 12.6797C3.84983 12.6797 4.13188 12.3918 4.13188 12.0862C4.13188 11.7865 4.41981 11.5045 4.72536 11.5045C5.02504 11.5045 5.30709 11.7924 5.30709 12.098C5.30709 12.2977 5.47162 12.5445 5.65378 12.6209C5.92408 12.7267 8.16285 12.6679 8.62706 12.5387C9.05601 12.4211 9.73176 12.1038 10.1078 11.8512C10.2665 11.7454 11.4946 10.5643 12.8461 9.21869C15.5314 6.54509 15.5784 6.48633 15.6313 5.79296C15.6842 5.11133 15.3023 4.42971 14.6853 4.11828C14.368 3.95375 13.704 3.88324 13.416 3.97726ZM14.1741 5.18185C14.3445 5.27586 14.4737 5.49328 14.4737 5.71069C14.4737 5.88697 14.2328 6.21016 13.7157 6.7155L13.2985 7.12682L12.8754 6.69787L12.4465 6.27479L12.9166 5.79883C13.61 5.09371 13.8097 4.99969 14.1741 5.18185ZM12.4171 7.95534C12.4171 8.08462 9.62011 10.7758 9.26167 10.9933C8.92086 11.1989 8.19811 11.4751 8.14522 11.4222C8.09822 11.3752 8.30388 10.7994 8.49779 10.4174C8.64469 10.1412 9.009 9.73579 10.149 8.5782L11.618 7.09156L12.0175 7.49114C12.235 7.70855 12.4171 7.92009 12.4171 7.95534Z" fill="#333333"/>
<path d="M3.25719 5.94612C2.98101 6.09889 2.887 6.43971 3.03977 6.73938C3.19255 7.02731 3.28657 7.03906 5.3138 7.03906C7.35279 7.03906 7.44681 7.02731 7.58784 6.71588C7.72298 6.4162 7.62897 6.08714 7.35867 5.94612C7.1295 5.8286 3.46872 5.8286 3.25719 5.94612Z" fill="#333333"/>
</svg>
