<svg width="16" height="15" viewBox="0 0 16 15" fill="none" xmlns="http://www.w3.org/2000/svg">
<path d="M1.74729 0.104214C1.33597 0.268743 0.995158 0.574298 0.801248 0.973869L0.636719 1.3088V7.50804V13.7073L0.801248 14.0422C0.989282 14.4183 1.27133 14.6944 1.65915 14.8766C1.92945 15 1.97646 15 6.48339 15H11.0373L11.3723 14.8355C12.0363 14.5123 12.3594 13.9247 12.3594 13.055C12.3594 12.5791 12.3536 12.5438 12.189 12.3793C11.9481 12.1384 11.5956 12.1384 11.3546 12.3793C11.196 12.5379 11.1842 12.5849 11.1842 12.9728C11.1842 13.4487 11.0902 13.6779 10.861 13.7837C10.6436 13.8836 2.32315 13.8836 2.10573 13.7837C1.7708 13.6309 1.78255 13.8953 1.78255 7.50804C1.78255 1.12077 1.7708 1.38519 2.10573 1.23242C2.21738 1.17953 3.15754 1.1619 5.70187 1.1619H9.15112L10.1383 2.1432C10.6789 2.6838 11.1431 3.17739 11.1607 3.2479C11.2606 3.57108 11.6778 3.77087 11.954 3.62984C12.3124 3.44769 12.3888 3.09512 12.1773 2.63091C12.001 2.2431 10.0854 0.33338 9.68584 0.151222L9.39203 0.0160732L5.7195 0.0043211C2.188 -0.00743103 2.03522 -0.00155544 1.74729 0.104214Z" fill="white"/>
<path d="M3.25719 3.59455C2.98101 3.74733 2.887 4.08814 3.03977 4.38782C3.19255 4.67575 3.28657 4.6875 5.3138 4.6875C7.35279 4.6875 7.44681 4.67575 7.58784 4.36432C7.72298 4.06464 7.62897 3.73558 7.35867 3.59455C7.1295 3.47703 3.46872 3.47703 3.25719 3.59455Z" fill="white"/>
<path d="M13.4151 3.97726C12.9802 4.11828 12.6512 4.41796 10.2949 6.78601C8.23827 8.8485 7.74468 9.37735 7.54489 9.72403C7.26284 10.2 7.03367 10.8111 6.97491 11.2224L6.93378 11.5045H6.66348C6.40494 11.5045 6.38731 11.4927 6.25216 11.2401C5.97599 10.723 5.44714 10.3939 4.81253 10.3469C3.91937 10.2764 3.1026 10.958 2.9792 11.8688C2.91456 12.333 3.15548 12.6797 3.5433 12.6797C3.84886 12.6797 4.13091 12.3918 4.13091 12.0862C4.13091 11.7865 4.41883 11.5045 4.72439 11.5045C5.02407 11.5045 5.30612 11.7924 5.30612 12.098C5.30612 12.2977 5.47065 12.5445 5.6528 12.6209C5.9231 12.7267 8.16188 12.6679 8.62608 12.5387C9.05504 12.4211 9.73078 12.1038 10.1068 11.8512C10.2655 11.7454 11.4936 10.5643 12.8451 9.21869C15.5304 6.54509 15.5775 6.48633 15.6303 5.79296C15.6832 5.11133 15.3013 4.42971 14.6843 4.11828C14.367 3.95375 13.703 3.88324 13.4151 3.97726ZM14.1731 5.18185C14.3435 5.27586 14.4728 5.49328 14.4728 5.71069C14.4728 5.88697 14.2318 6.21016 13.7147 6.7155L13.2975 7.12682L12.8745 6.69787L12.4455 6.27479L12.9156 5.79883C13.609 5.09371 13.8088 4.99969 14.1731 5.18185ZM12.4161 7.95534C12.4161 8.08462 9.61914 10.7758 9.2607 10.9933C8.91989 11.1989 8.19713 11.4751 8.14425 11.4222C8.09724 11.3752 8.3029 10.7994 8.49681 10.4174C8.64371 10.1412 9.00803 9.73579 10.148 8.5782L11.617 7.09156L12.0166 7.49114C12.234 7.70855 12.4161 7.92009 12.4161 7.95534Z" fill="white"/>
<path d="M3.25719 5.94612C2.98101 6.09889 2.887 6.43971 3.03977 6.73938C3.19255 7.02731 3.28657 7.03906 5.3138 7.03906C7.35279 7.03906 7.44681 7.02731 7.58784 6.71588C7.72298 6.4162 7.62897 6.08714 7.35867 5.94612C7.1295 5.8286 3.46872 5.8286 3.25719 5.94612Z" fill="white"/>
</svg>
