<svg width="16" height="15" viewBox="0 0 16 15" fill="none" xmlns="http://www.w3.org/2000/svg">
<g id="Black">
<path id="Vector" d="M1.27583 0.0491095C0.680544 0.219192 0.19962 0.711845 0.0471322 1.3042C0.00607776 1.46256 0.000212837 2.12822 0.000212837 7.50049C0.000212837 14.1894 -0.0144495 13.6675 0.19962 14.0839C0.340378 14.3566 0.651219 14.6674 0.923938 14.8082C1.33448 15.0223 1.00311 15.0076 5.86514 15.0076C10.7213 15.0076 10.387 15.0223 10.8034 14.8111C11.0849 14.6674 11.3928 14.3625 11.5365 14.0751C11.7037 13.7408 11.7389 13.5619 11.7418 13.0428C11.7447 12.6147 11.7418 12.5824 11.6743 12.4652C11.6333 12.3948 11.5512 12.3039 11.4867 12.2599C11.384 12.1866 11.34 12.1778 11.1436 12.1778C10.8884 12.1778 10.7711 12.2364 10.6421 12.4212C10.5805 12.515 10.5717 12.5649 10.5541 12.9519C10.5307 13.5003 10.4808 13.6176 10.2052 13.7642C10.1055 13.817 9.95006 13.8199 5.86514 13.8199C1.78022 13.8199 1.6248 13.817 1.52509 13.7642C1.3814 13.688 1.32275 13.6293 1.25824 13.5062C1.20545 13.4006 1.20252 13.2276 1.20252 7.50049C1.20252 2.12236 1.20545 1.59452 1.24944 1.50947C1.31689 1.37458 1.37554 1.31593 1.51043 1.24262L1.62773 1.18104L4.94141 1.17224C7.29618 1.16638 8.29908 1.17517 8.41638 1.19863C8.57766 1.23089 8.57766 1.23089 9.52192 2.17221C10.3137 2.96104 10.475 3.13406 10.5131 3.24256C10.5747 3.4273 10.6802 3.5534 10.8298 3.62671C11.0996 3.75867 11.4251 3.67363 11.5981 3.4273C11.6773 3.31587 11.6861 3.28068 11.6831 3.093C11.6831 2.84668 11.604 2.64727 11.3958 2.35696C11.3254 2.26019 10.8474 1.76167 10.3313 1.25435C9.37529 0.307166 9.25506 0.207462 8.8973 0.0725689L8.72429 0.00805473L5.08803 0.00218964C1.71277 -0.00367546 1.44005 -0.000742912 1.27583 0.0491095Z" fill="#333333"/>
<path id="Vector_2" d="M2.62038 3.5871C2.43856 3.6956 2.34766 3.86568 2.34766 4.09735C2.34766 4.33194 2.43856 4.50203 2.62331 4.61053L2.7494 4.68384H4.69363H6.63785L6.76394 4.61053C7.14223 4.38766 7.14223 3.80703 6.76394 3.58416L6.63785 3.51085H4.69069H2.74354L2.62038 3.5871Z" fill="#333333"/>
<path id="Vector_3" d="M12.9866 3.92313C12.7462 3.96418 12.5438 4.03456 12.3474 4.14893C12.1919 4.2369 11.7257 4.6885 9.76385 6.65032C7.32404 9.08719 7.15103 9.27487 6.86365 9.77632C6.60559 10.2279 6.40325 10.788 6.32994 11.2601L6.29475 11.4889H6.04256H5.79037L5.69066 11.2748C5.49419 10.8643 5.02206 10.4801 4.55873 10.3599C4.33587 10.3012 3.8872 10.3042 3.65847 10.3628C2.89309 10.5593 2.34766 11.2572 2.34766 12.0343C2.34766 12.2249 2.35939 12.2806 2.42097 12.3862C2.52947 12.571 2.69955 12.6619 2.93415 12.6619C3.27725 12.6619 3.49425 12.4566 3.5353 12.09C3.58222 11.7176 3.7787 11.5182 4.10713 11.5182C4.43557 11.5182 4.63498 11.7205 4.67896 12.09C4.70536 12.3188 4.80799 12.4947 4.96928 12.5886L5.09537 12.6619H6.18332C6.79034 12.6619 7.37096 12.6472 7.49999 12.6296C8.33574 12.5152 9.12457 12.1692 9.79611 11.6179C9.90168 11.5329 11.0512 10.398 12.3503 9.09306C14.5115 6.92304 14.7226 6.70604 14.8165 6.51836C14.9602 6.23977 15.0159 6.00518 15.0159 5.67674C15.0159 5.36297 14.966 5.12837 14.8399 4.87618C14.5115 4.20171 13.7256 3.79997 12.9866 3.92313ZM13.5291 5.17822C13.5761 5.20462 13.6582 5.27793 13.708 5.33951C13.7843 5.43335 13.7989 5.48027 13.8077 5.64742C13.8165 5.8263 13.8106 5.85562 13.7285 5.97585C13.6816 6.04916 13.4206 6.32482 13.1538 6.59167L12.6699 7.07553L12.2682 6.67085L11.8635 6.2691L12.4089 5.72366C12.7989 5.33364 12.9837 5.16943 13.0687 5.13717C13.2066 5.08732 13.406 5.10491 13.5291 5.17822ZM11.409 7.54472L11.8048 7.9406L10.4559 9.2866C9.0278 10.7088 8.8108 10.8995 8.34747 11.1223C8.06009 11.2601 7.57623 11.4214 7.54691 11.3892C7.52052 11.3657 7.63488 10.9757 7.74632 10.7059C7.95452 10.2133 8.08942 10.052 9.5879 8.54762C10.3533 7.77932 10.9896 7.14884 10.9984 7.14884C11.0072 7.14884 11.192 7.32772 11.409 7.54472Z" fill="#333333"/>
<path id="Vector_4" d="M2.62038 5.93573C2.43856 6.04423 2.34766 6.21431 2.34766 6.44598C2.34766 6.68058 2.43856 6.85066 2.62331 6.95916L2.7494 7.03247H4.69363H6.63785L6.76394 6.95916C7.14223 6.73629 7.14223 6.15566 6.76394 5.9328L6.63785 5.85949H4.69069H2.74354L2.62038 5.93573Z" fill="#333333"/>
</g>
</svg>
