<svg width="49" height="49" viewBox="0 0 49 49" fill="none" xmlns="http://www.w3.org/2000/svg">
<g filter="url(#filter0_b_1114_10360)">
<rect width="49" height="49" rx="15" fill="white" fill-opacity="0.03"/>
<rect x="0.5" y="0.5" width="48" height="48" rx="14.5" stroke="#D1D9E2" stroke-opacity="0.3"/>
<path d="M22.1933 21.351L20 22.694V25.5079V28.3217L22.2235 29.6727C23.4487 30.4241 24.5076 31.0157 24.5681 30.9997C24.6361 30.9757 25.6571 30.3682 26.8445 29.6407L29 28.3217V25.5079V22.702L26.7916 21.3431C25.5739 20.5996 24.5303 19.9921 24.4849 20.0001C24.4319 20.0001 23.4034 20.6076 22.1933 21.351ZM25.9218 22.2064C27.1924 22.9818 27.3059 23.0617 27.1773 23.1657C27.1017 23.2216 26.4664 23.6213 25.7706 24.045L24.5 24.8124L23.2218 24.029C22.5185 23.6053 21.8832 23.2136 21.8151 23.1577C21.7017 23.0697 21.8605 22.9498 23.0706 22.2064C23.8345 21.7348 24.4773 21.351 24.4924 21.351C24.5076 21.351 25.1504 21.7348 25.9218 22.2064ZM22.9496 25.2521L23.8571 25.8116L23.8798 27.5383C23.8874 28.4896 23.8723 29.265 23.842 29.257C23.8042 29.257 23.184 28.8893 22.458 28.4416L21.1345 27.6263L21.1118 25.8756L21.0966 24.1329L21.5655 24.4127C21.8303 24.5726 22.4504 24.9483 22.9496 25.2521ZM27.8731 27.5543C27.8429 27.6343 25.2412 29.265 25.1429 29.265C25.1202 29.265 25.1126 28.4896 25.1202 27.5383L25.1429 25.8116L26.5042 24.9803L27.8655 24.1489L27.8882 25.8036C27.8958 26.715 27.8882 27.5063 27.8731 27.5543Z" fill="white"/>
<path d="M28.6523 16.1006C30.7786 16.3108 32.1018 17.0421 33.0783 18.5596C33.8175 19.6931 34 21.1009 34 25.507C34 28.7704 33.9087 30.1234 33.6258 31.202C33.1878 32.8292 31.8189 34.2004 30.1945 34.6392C29.8021 34.7397 28.9717 34.8768 28.3511 34.9317C26.9183 35.0597 20.5211 34.9957 19.6816 34.8403C17.1446 34.3741 15.6753 32.9115 15.2008 30.3885C15.1369 30.0776 15.073 28.2311 15.0456 26.0829L15 22.3167L15.2281 22.0881C15.5384 21.7865 15.9582 21.7773 16.2411 22.0607L16.4601 22.2801L16.5058 26.0189C16.5514 29.9588 16.597 30.4616 17.0168 31.4123C17.2906 32.0156 18.1667 32.8475 18.7872 33.0851C19.8184 33.4691 20.3477 33.5056 24.5091 33.5056C28.6796 33.5056 29.1998 33.4691 30.231 33.076C30.9337 32.82 31.8098 31.9425 32.0653 31.2386C32.4577 30.2056 32.4942 29.6846 32.4942 25.507C32.4942 21.3385 32.4577 20.8083 32.0744 19.7754C31.8372 19.1538 31.0067 18.2762 30.4044 18.002C29.4553 17.5815 28.9534 17.5357 25.0202 17.49L21.2877 17.4443L21.0687 17.2249C20.7858 16.9416 20.7949 16.5211 21.0869 16.2285L21.306 16L24.573 16.0091C26.3708 16.0183 28.2051 16.064 28.6523 16.1006Z" fill="white"/>
</g>
<defs>
<filter id="filter0_b_1114_10360" x="-7" y="-7" width="63" height="63" filterUnits="userSpaceOnUse" color-interpolation-filters="sRGB">
<feFlood flood-opacity="0" result="BackgroundImageFix"/>
<feGaussianBlur in="BackgroundImageFix" stdDeviation="3.5"/>
<feComposite in2="SourceAlpha" operator="in" result="effect1_backgroundBlur_1114_10360"/>
<feBlend mode="normal" in="SourceGraphic" in2="effect1_backgroundBlur_1114_10360" result="shape"/>
</filter>
</defs>
</svg>
