<svg width="49" height="49" viewBox="0 0 49 49" fill="none" xmlns="http://www.w3.org/2000/svg">
<g filter="url(#filter0_b_2817_7884)">
<rect width="49" height="49" rx="15" fill="white" fill-opacity="0.03"/>
<rect x="0.5" y="0.5" width="48" height="48" rx="14.5" stroke="#D1D9E2" stroke-opacity="0.3"/>
<path d="M28.2742 15.75H20.3975C18.9374 15.75 17.75 16.9376 17.75 18.3978V20.2506C17.75 20.5181 17.9668 20.7349 18.2344 20.7349C18.5019 20.7349 18.7187 20.5181 18.7187 20.2506V18.3978C18.7187 17.4721 19.472 16.7188 20.3975 16.7188H28.2742C29.1996 16.7188 29.9529 17.4721 29.9529 18.3978V24.7687C29.9529 25.0363 30.1697 25.2531 30.4373 25.2531C30.7048 25.2531 30.9217 25.0363 30.9217 24.7687V18.3978C30.9216 16.9376 29.7342 15.75 28.2742 15.75Z" fill="white" stroke="#373737" stroke-width="0.5"/>
<path d="M30.9217 25.8678V25.8677C30.9216 25.6003 30.7048 25.3834 30.4373 25.3834C30.1697 25.3834 29.9529 25.6003 29.9529 25.8678V27.6064C29.9529 28.2567 29.4235 28.7862 28.7733 28.7862H28.7363C28.0306 28.7862 27.4569 29.3599 27.4569 30.0656V30.1024C27.4569 30.7527 26.9275 31.2822 26.2774 31.2822H20.3975C19.4721 31.2822 18.7187 30.5288 18.7187 29.6032V21.3496C18.7187 21.0821 18.5019 20.8652 18.2344 20.8652C17.9668 20.8652 17.75 21.0821 17.75 21.3496V29.6031C17.75 31.0633 18.9374 32.2509 20.3975 32.2509H28.2742C29.7343 32.2509 30.9217 31.0633 30.9217 29.6032V25.8678ZM28.4256 30.1086C28.4256 30.1031 28.4256 30.0981 28.4256 30.0935L28.4256 30.0934V30.0656C28.4256 29.8945 28.5652 29.755 28.7363 29.755H28.7642L28.7642 29.7549C28.7688 29.755 28.7739 29.755 28.7794 29.755C28.8089 29.7549 28.8505 29.7541 28.9017 29.7507C29.0038 29.744 29.1444 29.7272 29.3059 29.6856C29.5006 29.6356 29.7271 29.5492 29.9528 29.401V29.6032V29.6135C29.9472 30.5344 29.1961 31.2822 28.2742 31.2822H28.0724C28.2212 31.056 28.3077 30.8295 28.3576 30.6346C28.3989 30.4732 28.4153 30.3328 28.4217 30.2308C28.4249 30.1796 28.4256 30.1381 28.4256 30.1086Z" fill="white" stroke="#373737" stroke-width="0.5"/>
<path d="M21.0391 22.3392C20.7715 22.3392 20.5547 22.556 20.5547 22.8236C20.5547 24.9075 22.2496 26.6025 24.3336 26.6025C26.4175 26.6025 28.1124 24.9075 28.1124 22.8236V20.941C28.1124 18.8571 26.4175 17.1621 24.3336 17.1621C22.2496 17.1621 20.5547 18.8571 20.5547 20.941V21.647C20.5547 21.9145 20.7715 22.1313 21.0391 22.1313C21.3066 22.1313 21.5234 21.9145 21.5234 21.647V20.941C21.5234 19.3917 22.7843 18.1308 24.3336 18.1308C25.8828 18.1308 27.1437 19.3917 27.1437 20.941V22.8235C27.1437 24.3728 25.8828 25.6337 24.3336 25.6337C22.7843 25.6337 21.5234 24.3728 21.5234 22.8235C21.5234 22.556 21.3066 22.3392 21.0391 22.3392Z" fill="white" stroke="#373737" stroke-width="0.5"/>
<path d="M22.6017 24.7622C22.8011 24.9407 23.1073 24.9236 23.2857 24.7243L23.2857 24.7243C23.4641 24.5249 23.4471 24.2188 23.2478 24.0404L23.2477 24.0403C22.9016 23.7306 22.7031 23.2866 22.7031 22.8227V20.9402C22.7031 20.0396 23.4361 19.3066 24.3367 19.3066C25.2372 19.3066 25.9702 20.0396 25.9702 20.9402V22.8227C25.9702 23.7232 25.2371 24.4562 24.3367 24.4562C24.0691 24.4562 23.8523 24.6731 23.8523 24.9406C23.8523 25.2081 24.0691 25.425 24.3367 25.425C25.7718 25.425 26.9389 24.2578 26.9389 22.8227V20.9402C26.9389 19.505 25.7717 18.3379 24.3367 18.3379C22.9016 18.3379 21.7344 19.5051 21.7344 20.9402V22.8227C21.7344 23.5622 22.0505 24.2689 22.6017 24.7622ZM22.6017 24.7622L22.7684 24.5759M22.6017 24.7622L22.7684 24.5759M22.7684 24.5759C22.8649 24.6623 23.0131 24.654 23.0994 24.5576C23.1857 24.4611 23.1775 24.313 23.081 24.2266L22.7684 24.5759Z" fill="white" stroke="#373737" stroke-width="0.5"/>
<path d="M23.3906 20.4569C23.1231 20.4569 22.9062 20.6738 22.9062 20.9413V22.8239C22.9062 23.6102 23.5456 24.2495 24.3319 24.2495C25.1182 24.2495 25.7576 23.6102 25.7576 22.8239V20.9413C25.7576 20.155 25.1182 19.5156 24.3319 19.5156C24.0644 19.5156 23.8475 19.7325 23.8475 20C23.8475 20.2675 24.0644 20.4844 24.3319 20.4844C24.5836 20.4844 24.7888 20.6896 24.7888 20.9413V22.8239C24.7888 23.0756 24.5836 23.2808 24.3319 23.2808C24.0802 23.2808 23.875 23.0756 23.875 22.8239V20.9413C23.875 20.6738 23.6581 20.4569 23.3906 20.4569Z" fill="white" stroke="#373737" stroke-width="0.5"/>
<path d="M24.8203 22.5877V21.1758C24.8203 20.9082 24.6035 20.6914 24.3359 20.6914C24.0684 20.6914 23.8516 20.9082 23.8516 21.1758V22.5877C23.8516 22.8553 24.0684 23.0721 24.3359 23.0721C24.6035 23.0721 24.8203 22.8553 24.8203 22.5877Z" fill="white" stroke="#373737" stroke-width="0.5"/>
<path d="M20.0859 27.2949C20.0859 27.5625 20.3028 27.7793 20.5703 27.7793H28.1006C28.3681 27.7793 28.585 27.5625 28.585 27.2949C28.585 27.0274 28.3682 26.8105 28.1006 26.8105H20.5703C20.3028 26.8105 20.0859 27.0274 20.0859 27.2949Z" fill="white" stroke="#373737" stroke-width="0.5"/>
<path d="M20.5703 28.9551H25.5121C25.7796 28.9551 25.9964 28.7382 25.9964 28.4707C25.9964 28.2032 25.7796 27.9863 25.5121 27.9863H20.5703C20.3028 27.9863 20.0859 28.2032 20.0859 28.4707C20.0859 28.7382 20.3028 28.9551 20.5703 28.9551Z" fill="white" stroke="#373737" stroke-width="0.5"/>
<path d="M20.5703 30.1328H25.5121C25.7796 30.1328 25.9964 29.916 25.9964 29.6484C25.9964 29.3809 25.7796 29.1641 25.5121 29.1641H20.5703C20.3028 29.1641 20.0859 29.3809 20.0859 29.6484C20.0859 29.9159 20.3028 30.1328 20.5703 30.1328Z" fill="white" stroke="#373737" stroke-width="0.5"/>
</g>
<defs>
<filter id="filter0_b_2817_7884" x="-7" y="-7" width="63" height="63" filterUnits="userSpaceOnUse" color-interpolation-filters="sRGB">
<feFlood flood-opacity="0" result="BackgroundImageFix"/>
<feGaussianBlur in="BackgroundImageFix" stdDeviation="3.5"/>
<feComposite in2="SourceAlpha" operator="in" result="effect1_backgroundBlur_2817_7884"/>
<feBlend mode="normal" in="SourceGraphic" in2="effect1_backgroundBlur_2817_7884" result="shape"/>
</filter>
</defs>
</svg>
