<svg width="49" height="49" viewBox="0 0 49 49" fill="none" xmlns="http://www.w3.org/2000/svg">
<g filter="url(#filter0_b_2817_7917)">
<rect width="49" height="49" rx="15" fill="white" fill-opacity="0.03"/>
<rect x="0.5" y="0.5" width="48" height="48" rx="14.5" stroke="#D1D9E2" stroke-opacity="0.3"/>
<path fill-rule="evenodd" clip-rule="evenodd" d="M31.0238 32.0014H18.695C17.2084 32.0014 16 30.793 16 29.3064V20.1975C16 18.7123 17.2084 17.5039 18.695 17.5039H20.3677C20.5595 17.5039 20.7138 17.6582 20.7138 17.85V18.5681C20.7138 18.7324 20.8479 18.8665 21.0122 18.8665C21.1766 18.8665 21.3107 18.7324 21.3107 18.5681L21.3107 17.85C21.3107 17.6582 21.465 17.5039 21.6568 17.5039L28.062 17.5039C28.2538 17.5039 28.4081 17.6582 28.4081 17.85V18.5681C28.4081 18.7324 28.5422 18.8665 28.7065 18.8665C28.8709 18.8665 29.005 18.7324 29.005 18.5681L29.0051 17.85C29.0051 17.6582 29.1608 17.5039 29.3511 17.5039L31.0238 17.5039C32.509 17.5039 33.7188 18.7123 33.7188 20.1989V29.3078C33.7188 30.793 32.5105 32.0014 31.0238 32.0014ZM18.695 18.1961C17.5905 18.1961 16.6922 19.0944 16.6922 20.1989V29.3078C16.6922 30.4124 17.5905 31.3107 18.695 31.3107H31.0238C32.1283 31.3107 33.0267 30.4124 33.0267 29.3078V20.1975C33.0267 19.093 32.1283 18.1946 31.0238 18.1946H29.6972V18.5667C29.6972 19.1132 29.2531 19.5573 28.7066 19.5573C28.1601 19.5573 27.716 19.1132 27.716 18.5667L27.7159 18.1961H22.0029V18.5681C22.0029 19.1146 21.5588 19.5587 21.0123 19.5587C20.4658 19.5587 20.0217 19.1146 20.0217 18.5681L20.0216 18.1961H18.695Z" fill="white"/>
<path fill-rule="evenodd" clip-rule="evenodd" d="M33.3728 20.7051H16.3461C16.1543 20.7051 16 20.5508 16 20.359V20.1989C16 18.7123 17.2084 17.5039 18.695 17.5039H20.3677C20.5595 17.5039 20.7138 17.6582 20.7138 17.85V18.5681C20.7138 18.7324 20.8479 18.8665 21.0122 18.8665C21.1766 18.8665 21.3107 18.7324 21.3107 18.5681L21.3107 17.85C21.3107 17.6582 21.465 17.5039 21.6568 17.5039L28.062 17.5039C28.2538 17.5039 28.4081 17.6582 28.4081 17.85V18.5681C28.4081 18.7324 28.5422 18.8665 28.7065 18.8665C28.8709 18.8665 29.005 18.7324 29.005 18.5681L29.0051 17.85C29.0051 17.6582 29.1608 17.5039 29.3511 17.5039L31.0238 17.5039C32.509 17.5039 33.7188 18.7123 33.7188 20.1989V20.359C33.7188 20.5493 33.5645 20.7051 33.3728 20.7051ZM16.7008 20.0129H33.018C32.9243 18.9949 32.0663 18.1961 31.0238 18.1961L29.6972 18.1961V18.5681C29.6972 19.1146 29.2531 19.5587 28.7066 19.5587C28.1601 19.5587 27.716 19.1146 27.716 18.5681L27.7159 18.1961H22.0029V18.5681C22.0029 19.1146 21.5588 19.5587 21.0123 19.5587C20.4658 19.5587 20.0217 19.1146 20.0217 18.5681L20.0216 18.1961H18.695C17.6525 18.1961 16.7945 18.9949 16.7008 20.0129Z" fill="white"/>
<path fill-rule="evenodd" clip-rule="evenodd" d="M21.0141 19.5573C20.4676 19.5573 20.0235 19.1132 20.0235 18.5667L20.0234 16.9906C20.0234 16.4441 20.4676 16 21.0141 16C21.5606 16 22.0047 16.4441 22.0047 16.9906V18.5667C22.0047 19.1132 21.5606 19.5573 21.0141 19.5573ZM21.0141 16.6922C20.8497 16.6922 20.7156 16.8263 20.7156 16.9906V18.5667C20.7156 18.7311 20.8497 18.8652 21.0141 18.8652C21.1785 18.8652 21.3126 18.731 21.3126 18.5667V16.9906C21.3126 16.8262 21.1785 16.6922 21.0141 16.6922Z" fill="white"/>
<path fill-rule="evenodd" clip-rule="evenodd" d="M28.7016 19.5573C28.1551 19.5573 27.711 19.1132 27.711 18.5667L27.7109 16.9906C27.7109 16.4441 28.1551 16 28.7016 16C29.2481 16 29.6922 16.4441 29.6922 16.9906V18.5667C29.6922 19.1132 29.2481 19.5573 28.7016 19.5573ZM28.7016 16.6922C28.5372 16.6922 28.4031 16.8263 28.4031 16.9906V18.5667C28.4031 18.7311 28.5372 18.8652 28.7016 18.8652C28.866 18.8652 29.0001 18.731 29.0001 18.5667V16.9906C29.0001 16.8262 28.866 16.6922 28.7016 16.6922Z" fill="white"/>
<path d="M22.7516 29.0852C22.3498 29.0852 21.9917 29.0162 21.6772 28.8782C21.3647 28.7403 21.1161 28.5485 20.9314 28.303C20.7488 28.0554 20.6494 27.7683 20.6331 27.4416H21.4002C21.4164 27.6425 21.4854 27.8159 21.6071 27.9621C21.7289 28.1061 21.8882 28.2177 22.085 28.2969C22.2819 28.376 22.5 28.4156 22.7394 28.4156C23.0073 28.4156 23.2447 28.3689 23.4517 28.2756C23.6587 28.1822 23.821 28.0524 23.9387 27.886C24.0564 27.7196 24.1153 27.5268 24.1153 27.3076C24.1153 27.0783 24.0584 26.8764 23.9448 26.7019C23.8312 26.5254 23.6648 26.3874 23.4456 26.2879C23.2265 26.1885 22.9586 26.1388 22.642 26.1388H22.1429V25.4692H22.642C22.8896 25.4692 23.1067 25.4245 23.2934 25.3352C23.4821 25.2459 23.6293 25.1201 23.7348 24.9578C23.8423 24.7955 23.8961 24.6047 23.8961 24.3856C23.8961 24.1745 23.8494 23.9909 23.7561 23.8346C23.6627 23.6784 23.5308 23.5566 23.3604 23.4694C23.192 23.3821 22.9931 23.3385 22.7638 23.3385C22.5487 23.3385 22.3458 23.378 22.155 23.4572C21.9663 23.5343 21.8121 23.6469 21.6924 23.795C21.5726 23.9412 21.5077 24.1177 21.4976 24.3247H20.767C20.7792 23.998 20.8776 23.7119 21.0623 23.4663C21.247 23.2187 21.4884 23.026 21.7867 22.888C22.0871 22.75 22.4168 22.681 22.776 22.681C23.1615 22.681 23.4923 22.7591 23.7683 22.9154C24.0442 23.0696 24.2563 23.2735 24.4044 23.5272C24.5526 23.7808 24.6266 24.0548 24.6266 24.349C24.6266 24.7001 24.5343 24.9994 24.3496 25.247C24.167 25.4945 23.9184 25.666 23.6039 25.7614V25.8101C23.9976 25.875 24.305 26.0424 24.5262 26.3123C24.7474 26.5802 24.858 26.9119 24.858 27.3076C24.858 27.6465 24.7656 27.9509 24.581 28.2208C24.3983 28.4886 24.1487 28.6997 23.8322 28.8539C23.5156 29.0081 23.1554 29.0852 22.7516 29.0852ZM28.2944 22.7662V29H27.5396V23.5576H27.503L25.9811 24.5682V23.8011L27.5396 22.7662H28.2944Z" fill="white"/>
</g>
<defs>
<filter id="filter0_b_2817_7917" x="-7" y="-7" width="63" height="63" filterUnits="userSpaceOnUse" color-interpolation-filters="sRGB">
<feFlood flood-opacity="0" result="BackgroundImageFix"/>
<feGaussianBlur in="BackgroundImageFix" stdDeviation="3.5"/>
<feComposite in2="SourceAlpha" operator="in" result="effect1_backgroundBlur_2817_7917"/>
<feBlend mode="normal" in="SourceGraphic" in2="effect1_backgroundBlur_2817_7917" result="shape"/>
</filter>
</defs>
</svg>
