<svg width="49" height="49" viewBox="0 0 49 49" fill="none" xmlns="http://www.w3.org/2000/svg">
<g filter="url(#filter0_b_2817_7853)">
<rect width="49" height="49" rx="15" fill="white" fill-opacity="0.03"/>
<rect x="0.5" y="0.5" width="48" height="48" rx="14.5" stroke="#D1D9E2" stroke-opacity="0.3"/>
<path d="M19.972 26.6637V28.1833C20.2245 28.3136 20.4306 28.5197 20.5608 28.7722H22.9415C23.191 28.1212 23.8175 27.6557 24.5594 27.6557C25.3013 27.6557 25.9278 28.1212 26.1773 28.7722H28.1859C28.3161 28.5198 28.522 28.3138 28.7743 28.1835V26.6637H26.792C26.0399 26.6637 25.4257 26.0494 25.4257 25.2974V25.2974L25.4262 17.1163C25.4262 17.1163 25.4262 17.1163 25.4262 17.1163C25.4262 16.3626 26.0389 15.75 26.7925 15.75H32.0018C32.7554 15.75 33.3681 16.3627 33.3681 17.1163V25.2965C33.3681 25.9984 32.7895 26.6637 32.0013 26.6637H30.0185V28.1833C30.4572 28.4092 30.7629 28.8642 30.7629 29.3941C30.7629 30.1462 30.1486 30.7604 29.3966 30.7604C28.8669 30.7604 28.4119 30.4549 28.186 30.0164H26.1772C26.0012 30.4744 25.6384 30.8369 25.1802 31.0125V32V32.25H24.9302H24.186H23.936V32V31.0113C23.4791 30.8354 23.1173 30.4735 22.9417 30.0164H20.5607C20.3348 30.4549 19.8798 30.7604 19.3501 30.7604C18.5981 30.7604 17.9838 30.1462 17.9838 29.3941C17.9838 28.8644 18.2893 28.4094 18.7278 28.1835V26.6637H17.1176C16.3902 26.6637 15.75 26.0605 15.75 25.2965V17.1163C15.75 16.3627 16.3627 15.75 17.1163 15.75H22.3256C23.0784 15.75 23.6906 16.3614 23.6919 17.1139V17.1139V17.1139V17.1141V17.1151V17.1151L19.972 26.6637ZM19.972 26.6637H22.3269C23.0789 26.6637 23.6931 26.0494 23.6931 25.2974V25.2974L23.6919 17.3162L23.6919 17.2484V17.2484V17.2483V17.2481V17.2478L23.6919 17.2438L23.6919 17.2228L23.6919 17.1708L23.6919 17.1262L23.6919 17.1163C23.6919 17.1163 23.6919 17.1163 23.6919 17.1163C23.6919 17.1163 23.6919 17.1162 23.6919 17.1162C23.6919 17.1159 23.6919 17.1155 23.6919 17.1151L19.972 26.6637ZM17.1163 16.9942H22.3256C22.3927 16.9942 22.4477 17.0491 22.4477 17.1163V23.9311H16.9942V17.1163C16.9942 17.0491 17.0491 16.9942 17.1163 16.9942ZM26.6704 17.1163C26.6704 17.0491 26.7254 16.9942 26.7925 16.9942H32.0018C32.069 16.9942 32.1239 17.0491 32.1239 17.1163V23.9311H26.6704V17.1163Z" fill="white" stroke="#373737" stroke-width="0.5"/>
<path d="M17.4922 17.2324H17.2422V17.4824V18.2266V18.4766H17.4922H21.9573H22.2073V18.2266V17.4824V17.2324H21.9573H17.4922Z" fill="white" stroke="#373737" stroke-width="0.5"/>
<path d="M17.4922 18.7207H17.2422V18.9707V19.7149V19.9649H17.4922H21.9573H22.2073V19.7149V18.9707V18.7207H21.9573H17.4922Z" fill="white" stroke="#373737" stroke-width="0.5"/>
<path d="M17.4922 20.209H17.2422V20.459V21.2032V21.4532H17.4922H21.9573H22.2073V21.2032V20.459V20.209H21.9573H17.4922Z" fill="white" stroke="#373737" stroke-width="0.5"/>
<path d="M17.4922 21.6973H17.2422V21.9473V22.6915V22.9415H17.4922H21.9573H22.2073V22.6915V21.9473V21.6973H21.9573H17.4922Z" fill="white" stroke="#373737" stroke-width="0.5"/>
<path d="M27.1641 17.2324H26.9141V17.4824V18.2266V18.4766H27.1641H31.6292H31.8792V18.2266V17.4824V17.2324H31.6292H27.1641Z" fill="white" stroke="#373737" stroke-width="0.5"/>
<path d="M27.1641 18.7207H26.9141V18.9707V19.7149V19.9649H27.1641H31.6292H31.8792V19.7149V18.9707V18.7207H31.6292H27.1641Z" fill="white" stroke="#373737" stroke-width="0.5"/>
<path d="M27.1641 20.209H26.9141V20.459V21.2032V21.4532H27.1641H31.6292H31.8792V21.2032V20.459V20.209H31.6292H27.1641Z" fill="white" stroke="#373737" stroke-width="0.5"/>
<path d="M27.1641 21.6973H26.9141V21.9473V22.6915V22.9415H27.1641H31.6292H31.8792V22.6915V21.9473V21.6973H31.6292H27.1641Z" fill="white" stroke="#373737" stroke-width="0.5"/>
</g>
<defs>
<filter id="filter0_b_2817_7853" x="-7" y="-7" width="63" height="63" filterUnits="userSpaceOnUse" color-interpolation-filters="sRGB">
<feFlood flood-opacity="0" result="BackgroundImageFix"/>
<feGaussianBlur in="BackgroundImageFix" stdDeviation="3.5"/>
<feComposite in2="SourceAlpha" operator="in" result="effect1_backgroundBlur_2817_7853"/>
<feBlend mode="normal" in="SourceGraphic" in2="effect1_backgroundBlur_2817_7853" result="shape"/>
</filter>
</defs>
</svg>
