<svg width="49" height="49" viewBox="0 0 49 49" fill="none" xmlns="http://www.w3.org/2000/svg">
<g filter="url(#filter0_b_2817_7893)">
<rect width="49" height="49" rx="15" fill="white" fill-opacity="0.03"/>
<rect x="0.5" y="0.5" width="48" height="48" rx="14.5" stroke="#D1D9E2" stroke-opacity="0.3"/>
<path d="M29.3097 24.3652H29.3095C28.5298 24.3652 27.7676 24.5964 27.1193 25.0296C26.471 25.4628 25.9657 26.0785 25.6673 26.7989C25.3689 27.5192 25.2908 28.3119 25.4429 29.0766C25.5951 29.8414 25.9705 30.5438 26.5219 31.0952C27.0732 31.6465 27.7757 32.022 28.5404 32.1741C29.3051 32.3262 30.0978 32.2481 30.8182 31.9498C31.5385 31.6514 32.1542 31.1461 32.5874 30.4978C33.0206 29.8495 33.2518 29.0873 33.2518 28.3075V28.3073C33.2508 27.2621 32.8351 26.26 32.096 25.521C31.357 24.7819 30.3549 24.3663 29.3097 24.3652ZM29.3095 30.5191C28.8721 30.5191 28.4445 30.3894 28.0808 30.1464C27.7171 29.9034 27.4337 29.558 27.2663 29.1539C27.0989 28.7498 27.0551 28.3051 27.1405 27.8761C27.2258 27.4471 27.4364 27.053 27.7457 26.7437C28.055 26.4345 28.4491 26.2238 28.878 26.1385C29.307 26.0532 29.7517 26.097 30.1558 26.2643C30.5599 26.4317 30.9053 26.7152 31.1483 27.0789C31.3913 27.4426 31.521 27.8701 31.521 28.3075C31.521 28.8941 31.288 29.4566 30.8733 29.8713C30.4585 30.2861 29.896 30.5191 29.3095 30.5191Z" fill="white" stroke="#373737" stroke-width="0.5"/>
<path d="M29.6402 26.2768L29.6401 26.2768C29.482 26.2113 29.3079 26.1942 29.14 26.2276C28.9721 26.261 28.8179 26.3435 28.6969 26.4645C28.6969 26.4646 28.6969 26.4646 28.6969 26.4646L28.0815 27.0799L28.0815 27.08C27.9605 27.201 27.8781 27.3552 27.8447 27.523C27.8114 27.6908 27.8285 27.8648 27.894 28.0229C27.9595 28.181 28.0704 28.3162 28.2126 28.4113C28.2841 28.459 28.3619 28.4956 28.4434 28.5202V29.5379C28.4434 29.7674 28.5346 29.9876 28.6968 30.1499C28.8591 30.3121 29.0792 30.4033 29.3088 30.4033C29.5383 30.4033 29.7584 30.3121 29.9207 30.1499C30.083 29.9876 30.1741 29.7674 30.1741 29.5379V27.0765C30.1741 27.0764 30.1741 27.0764 30.1741 27.0764C30.1742 26.9053 30.1235 26.738 30.0284 26.5957C29.9334 26.4533 29.7983 26.3424 29.6402 26.2768Z" fill="white" stroke="#373737" stroke-width="0.5"/>
<path d="M31.2701 17.7299C30.8132 17.273 30.2011 17.0068 29.5577 16.9826V16.6154C29.5577 16.3859 29.4665 16.1658 29.3042 16.0035C29.1419 15.8412 28.9218 15.75 28.6923 15.75C28.4628 15.75 28.2427 15.8412 28.0804 16.0035C27.9181 16.1658 27.8269 16.3859 27.8269 16.6154V16.9808H25.25V16.6154C25.25 16.3859 25.1588 16.1658 24.9965 16.0035C24.8342 15.8412 24.6141 15.75 24.3846 15.75C24.1551 15.75 23.935 15.8412 23.7727 16.0035C23.6104 16.1658 23.5192 16.3859 23.5192 16.6154V16.9808H20.9423V16.6154C20.9423 16.3859 20.8511 16.1658 20.6888 16.0035C20.5266 15.8412 20.3064 15.75 20.0769 15.75C19.8474 15.75 19.6273 15.8412 19.465 16.0035C19.3027 16.1658 19.2115 16.3859 19.2115 16.6154V16.9826C18.5681 17.0068 17.9561 17.273 17.4991 17.7299C17.0201 18.2089 16.7507 18.8583 16.75 19.5357V19.536L16.75 28.464L16.75 28.4643C16.7507 29.1417 17.0201 29.7911 17.4991 30.2701C17.9781 30.7491 18.6276 31.0185 19.305 31.0192H19.3052H24.3846C24.6141 31.0192 24.8342 30.9281 24.9965 30.7658C25.1588 30.6035 25.25 30.3834 25.25 30.1538C25.25 29.9243 25.1588 29.7042 24.9965 29.5419C24.8342 29.3796 24.6141 29.2885 24.3846 29.2885H19.3055C19.0869 29.2882 18.8772 29.2012 18.7226 29.0466C18.568 28.892 18.481 28.6824 18.4808 28.4638C18.4808 28.4638 18.4808 28.4637 18.4808 28.4637V19.5363C18.4808 19.5363 18.4808 19.5362 18.4808 19.5362C18.481 19.3176 18.568 19.108 18.7226 18.9534C18.8549 18.8211 19.0275 18.7383 19.2115 18.717V19.0769C19.2115 19.3064 19.3027 19.5266 19.465 19.6888C19.6273 19.8511 19.8474 19.9423 20.0769 19.9423C20.3064 19.9423 20.5266 19.8511 20.6888 19.6888C20.8511 19.5266 20.9423 19.3064 20.9423 19.0769V18.7115H23.5192V19.0769C23.5192 19.3064 23.6104 19.5266 23.7727 19.6888C23.935 19.8511 24.1551 19.9423 24.3846 19.9423C24.6141 19.9423 24.8342 19.8511 24.9965 19.6888C25.1588 19.5266 25.25 19.3064 25.25 19.0769V18.7115H27.8269V19.0769C27.8269 19.3064 27.9181 19.5266 28.0804 19.6888C28.2427 19.8511 28.4628 19.9423 28.6923 19.9423C28.9218 19.9423 29.1419 19.8511 29.3042 19.6888C29.4665 19.5266 29.5577 19.3064 29.5577 19.0769V18.717C29.7417 18.7383 29.9143 18.8211 30.0466 18.9534C30.2012 19.108 30.2882 19.3176 30.2885 19.5363V23.3846C30.2885 23.6141 30.3796 23.8342 30.5419 23.9965C30.7042 24.1588 30.9243 24.25 31.1538 24.25C31.3834 24.25 31.6035 24.1588 31.7658 23.9965C31.9281 23.8342 32.0192 23.6141 32.0192 23.3846V19.536V19.5357C32.0185 18.8583 31.7491 18.2089 31.2701 17.7299Z" fill="white" stroke="#373737" stroke-width="0.5"/>
</g>
<defs>
<filter id="filter0_b_2817_7893" x="-7" y="-7" width="63" height="63" filterUnits="userSpaceOnUse" color-interpolation-filters="sRGB">
<feFlood flood-opacity="0" result="BackgroundImageFix"/>
<feGaussianBlur in="BackgroundImageFix" stdDeviation="3.5"/>
<feComposite in2="SourceAlpha" operator="in" result="effect1_backgroundBlur_2817_7893"/>
<feBlend mode="normal" in="SourceGraphic" in2="effect1_backgroundBlur_2817_7893" result="shape"/>
</filter>
</defs>
</svg>
