<svg width="49" height="49" viewBox="0 0 49 49" fill="none" xmlns="http://www.w3.org/2000/svg">
<g id="Cancel Button" filter="url(#filter0_b_972_5029)">
<rect width="49" height="49" rx="15" fill="white" fill-opacity="0.03"/>
<rect x="0.5" y="0.5" width="48" height="48" rx="14.5" stroke="#D1D9E2" stroke-opacity="0.3"/>
<path id="Union" fill-rule="evenodd" clip-rule="evenodd" d="M23.5176 15.0726C22.7904 15.2841 22.1929 15.8667 21.9777 16.5791C21.9518 16.6607 21.9221 16.939 21.9072 17.1988C21.8887 17.5847 21.8701 17.6812 21.8145 17.7442C21.6772 17.8927 21.5584 17.8481 21.2096 17.5179C20.4638 16.8166 19.5436 16.6607 18.6382 17.0837C18.3525 17.2173 18.2783 17.2767 17.7811 17.7776C17.3581 18.2006 17.2096 18.375 17.1169 18.5606C16.8646 19.0689 16.7941 19.644 16.9276 20.1672C17.0353 20.5865 17.1911 20.8611 17.525 21.2136C17.8479 21.5587 17.8924 21.6812 17.744 21.8147C17.6809 21.8704 17.5844 21.8889 17.1985 21.9075C16.9388 21.9223 16.6605 21.952 16.5788 21.978C15.8516 22.2006 15.2505 22.8277 15.0612 23.5624C14.9796 23.8815 14.9796 25.1209 15.0612 25.44C15.2505 26.1747 15.8516 26.8017 16.5788 27.0244C16.6605 27.0504 16.9388 27.08 17.1985 27.0949C17.5844 27.1134 17.6809 27.132 17.744 27.1876C17.8924 27.3249 17.8479 27.4437 17.5176 27.7925C16.8163 28.5383 16.6605 29.4585 17.0835 30.3639C17.2171 30.6496 17.2764 30.7238 17.7774 31.2248C18.2783 31.7257 18.3525 31.785 18.6382 31.9186C19.5436 32.3416 20.4638 32.1858 21.2096 31.4845C21.5584 31.1543 21.6772 31.1097 21.8145 31.2581C21.8701 31.3212 21.8887 31.4177 21.9072 31.8036C21.9221 32.0633 21.9518 32.3416 21.9777 32.4233C22.2004 33.1505 22.8275 33.7517 23.5622 33.9409C23.8813 34.0225 25.1206 34.0225 25.4397 33.9409C26.1136 33.7673 26.697 33.2471 26.9608 32.6009C26.6244 32.134 26.3597 31.617 26.1889 31.0801C26.0956 30.7865 26.0381 30.5931 26.0027 30.2885C25.9118 30.3977 25.8342 30.5178 25.7737 30.6459C25.6512 30.9019 25.6401 30.9539 25.6141 31.44C25.5844 31.9038 25.5733 31.9817 25.4842 32.1264C25.4249 32.2303 25.3247 32.3305 25.2134 32.3936C25.0427 32.4938 25.0241 32.4975 24.5009 32.4975C23.9777 32.4975 23.9592 32.4938 23.7885 32.3936C23.6772 32.3305 23.577 32.2303 23.5176 32.1264C23.4286 31.9817 23.4174 31.9038 23.3878 31.4363C23.3581 30.939 23.3506 30.9019 23.2208 30.6385C22.9128 30.0151 22.334 29.6589 21.6215 29.6589C21.1132 29.6589 20.7607 29.8147 20.3154 30.234C19.9035 30.6236 19.6735 30.7016 19.3506 30.568C19.1725 30.4901 18.538 29.8667 18.449 29.6774C18.2931 29.3472 18.3748 29.1023 18.7718 28.6867C19.1577 28.2823 19.3135 27.952 19.3358 27.5068C19.3432 27.3324 19.3321 27.0949 19.3061 26.9761C19.2022 26.4641 18.8349 26.0003 18.3562 25.7739C18.1002 25.6515 18.0482 25.6403 17.5622 25.6144C17.0983 25.5847 17.0204 25.5735 16.8757 25.4845C16.7718 25.4251 16.6716 25.3249 16.6085 25.2136C16.5083 25.0429 16.5046 25.0244 16.5046 24.5012C16.5046 23.978 16.5083 23.9594 16.6085 23.7888C16.6716 23.6774 16.7718 23.5773 16.8757 23.5179C17.0204 23.4288 17.0983 23.4177 17.5659 23.388C18.0631 23.3583 18.1002 23.3509 18.3636 23.221C18.846 22.9836 19.2022 22.5309 19.3061 22.0262C19.3321 21.9075 19.3432 21.67 19.3358 21.4956C19.3135 21.0504 19.1577 20.7201 18.7718 20.3157C18.3822 19.9075 18.3006 19.6774 18.4341 19.3509C18.5121 19.1728 19.1354 18.5383 19.3247 18.4492C19.6549 18.2934 19.8998 18.375 20.3154 18.7721C20.7199 19.158 21.0501 19.3138 21.4954 19.3361C21.6698 19.3435 21.9072 19.3324 22.026 19.3064C22.538 19.2025 23.0019 18.8351 23.2282 18.3565C23.3506 18.1004 23.3618 18.0485 23.3878 17.5624C23.4174 17.0986 23.4323 17.0207 23.5139 16.876C23.6178 16.6978 23.8108 16.5606 24.0148 16.5197C24.0891 16.5012 24.3525 16.4938 24.5974 16.5012C25.0093 16.5123 25.0649 16.5197 25.2208 16.6125C25.3247 16.6719 25.4249 16.7721 25.4842 16.876C25.5733 17.0207 25.5844 17.0986 25.6141 17.5661C25.6438 18.0671 25.6512 18.1004 25.7811 18.3676C26.0186 18.85 26.4675 19.2025 26.9759 19.3064C27.0946 19.3324 27.3321 19.3435 27.5065 19.3361C27.9518 19.3138 28.282 19.158 28.6865 18.7721C29.102 18.375 29.3469 18.2934 29.6772 18.4492C29.8664 18.5383 30.4898 19.1728 30.5677 19.3509C30.7013 19.6774 30.6197 19.9075 30.2301 20.3157C30.026 20.5272 29.9109 20.6904 29.8145 20.8945C29.692 21.1468 29.6772 21.2173 29.666 21.5401C29.6512 21.8296 29.666 21.9483 29.7254 22.1524C29.8738 22.6385 30.2004 23.017 30.6494 23.2322C30.9017 23.3509 30.9536 23.362 31.4397 23.388C31.9035 23.4177 31.9814 23.4288 32.1262 23.5179C32.2301 23.5773 32.3302 23.6774 32.3933 23.7888C32.4935 23.9594 32.4972 23.978 32.4972 24.5012V24.5013H34V24.5012C34 23.696 33.9666 23.503 33.7514 23.0763C33.5065 22.5902 32.9648 22.1413 32.423 21.978C32.3414 21.952 32.0631 21.9223 31.8033 21.9075C31.4174 21.8889 31.321 21.8704 31.2579 21.8147C31.1095 21.6812 31.154 21.5587 31.4768 21.2136C31.8108 20.8611 31.9666 20.5865 32.0742 20.1672C32.2078 19.644 32.1373 19.0689 31.885 18.5606C31.7922 18.375 31.6438 18.2006 31.2208 17.7776C30.7236 17.2767 30.6494 17.2173 30.3636 17.0837C29.4583 16.6607 28.538 16.8166 27.7922 17.5179C27.4434 17.8481 27.3247 17.8927 27.1874 17.7442C27.1317 17.6812 27.1132 17.5847 27.0946 17.1988C27.0798 16.939 27.0501 16.6607 27.0241 16.5791C26.8015 15.8518 26.1744 15.2507 25.4397 15.0615C25.1058 14.9724 23.8256 14.9836 23.5176 15.0726ZM20.3154 23.4228C20.7533 21.8161 22.0038 20.6213 23.629 20.2725C24.1262 20.1649 25.0835 20.1871 25.5807 20.3207C26.334 20.5211 26.9833 20.8959 27.5474 21.4562C28.1077 22.0202 28.4861 22.6695 28.6828 23.4228C28.7801 23.7954 28.4365 24.0974 28.1911 24.185C27.5974 24.4356 27.2635 24.0626 27.2282 23.8903C27.1615 23.5638 26.898 23.0294 26.6642 22.74C26.4156 22.4357 26.1039 22.1908 25.7069 21.9942C25.3062 21.7975 24.9759 21.7196 24.501 21.7196C24.026 21.7196 23.6958 21.7975 23.295 21.9942C22.6865 22.2947 22.2932 22.6881 21.9926 23.2966C21.796 23.6973 21.718 24.0276 21.718 24.5025C21.718 24.9775 21.796 25.3077 21.9926 25.7085C22.2932 26.317 22.6865 26.7103 23.295 27.0109C23.4806 27.0999 23.7477 27.2001 23.8887 27.2298C24.2709 27.3114 24.7904 27.3003 25.1949 27.2075C25.6067 27.1111 25.8034 27.1296 26.0186 27.2855C26.219 27.4339 26.3192 27.6343 26.3192 27.8977C26.3192 28.1389 26.2301 28.343 26.0594 28.484C25.6846 28.8031 24.2746 28.9107 23.4212 28.6844C22.6679 28.4877 22.0186 28.1129 21.4546 27.5489C20.8943 26.9886 20.5232 26.3467 20.3154 25.5823C20.2264 25.2558 20.219 25.1667 20.219 24.5025C20.219 23.8383 20.2264 23.7493 20.3154 23.4228ZM26.8741 27.6259C26.8741 30.0436 26.8776 30.1211 27.0735 30.7308C27.3512 31.5943 27.9315 32.3943 28.6721 32.9406C29.0245 33.2049 29.7188 33.5432 30.1069 33.6454C30.3775 33.7159 30.4238 33.7159 30.6231 33.6771C31.0824 33.5855 31.7447 33.2754 32.2218 32.9265C32.56 32.6798 33.0905 32.1123 33.3148 31.7564C33.5498 31.3828 33.7527 30.9211 33.8773 30.4735L33.977 30.1317L33.9877 27.7598L33.9984 25.3914H30.4344H26.8741V27.6259ZM32.5707 28.0065C32.5707 28.6726 32.5529 29.388 32.5351 29.603C32.4532 30.4418 32.0722 31.1643 31.4349 31.6859C31.1643 31.9079 30.5947 32.204 30.4344 32.204C30.2742 32.204 29.7046 31.9079 29.434 31.6859C28.8038 31.1713 28.4086 30.4242 28.3338 29.6101C28.316 29.4127 28.3018 28.7008 28.2982 28.0241V26.8012H30.4344H32.5707V28.0065Z" fill="#F9F9F9"/>
</g>
<defs>
<filter id="filter0_b_972_5029" x="-7" y="-7" width="63" height="63" filterUnits="userSpaceOnUse" color-interpolation-filters="sRGB">
<feFlood flood-opacity="0" result="BackgroundImageFix"/>
<feGaussianBlur in="BackgroundImageFix" stdDeviation="3.5"/>
<feComposite in2="SourceAlpha" operator="in" result="effect1_backgroundBlur_972_5029"/>
<feBlend mode="normal" in="SourceGraphic" in2="effect1_backgroundBlur_972_5029" result="shape"/>
</filter>
</defs>
</svg>
