<svg width="49" height="49" viewBox="0 0 49 49" fill="none" xmlns="http://www.w3.org/2000/svg">
<g filter="url(#filter0_b_2817_7917)">
<rect width="49" height="49" rx="15" fill="white" fill-opacity="0.03"/>
<rect x="0.5" y="0.5" width="48" height="48" rx="14.5" stroke="#D1D9E2" stroke-opacity="0.3"/>
<mask id="path-3-outside-1_2817_7917" maskUnits="userSpaceOnUse" x="16" y="15" width="18" height="17" fill="black">
<rect fill="white" x="16" y="15" width="18" height="17"/>
<path d="M31.6667 17.6H30.3333V17.0667C30.3333 16.7838 30.221 16.5125 30.0209 16.3124C29.8209 16.1124 29.5496 16 29.2667 16C28.9838 16 28.7125 16.1124 28.5124 16.3124C28.3124 16.5125 28.2 16.7838 28.2 17.0667V17.6H26.0667V17.0667C26.0667 16.7838 25.9543 16.5125 25.7542 16.3124C25.5542 16.1124 25.2829 16 25 16C24.7171 16 24.4458 16.1124 24.2458 16.3124C24.0457 16.5125 23.9333 16.7838 23.9333 17.0667V17.6H21.8V17.0667C21.8 16.7838 21.6876 16.5125 21.4876 16.3124C21.2875 16.1124 21.0162 16 20.7333 16C20.4504 16 20.1791 16.1124 19.9791 16.3124C19.779 16.5125 19.6667 16.7838 19.6667 17.0667V17.6H18.3333C17.9797 17.6 17.6406 17.7405 17.3905 17.9905C17.1405 18.2406 17 18.5797 17 18.9333V29.6C17 29.9536 17.1405 30.2928 17.3905 30.5428C17.6406 30.7929 17.9797 30.9333 18.3333 30.9333H25.8C25.8707 30.9333 25.9386 30.9052 25.9886 30.8552C26.0386 30.8052 26.0667 30.7374 26.0667 30.6667C26.0667 30.5959 26.0386 30.5281 25.9886 30.4781C25.9386 30.4281 25.8707 30.4 25.8 30.4H18.3333C18.1214 30.3994 17.9182 30.3149 17.7683 30.165C17.6185 30.0151 17.534 29.812 17.5333 29.6V21.3333H32.4667V25.8667C32.4667 25.9374 32.4948 26.0052 32.5448 26.0552C32.5948 26.1052 32.6626 26.1333 32.7333 26.1333C32.8041 26.1333 32.8719 26.1052 32.9219 26.0552C32.9719 26.0052 33 25.9374 33 25.8667V18.9333C33 18.5797 32.8595 18.2406 32.6095 17.9905C32.3594 17.7405 32.0203 17.6 31.6667 17.6ZM28.7333 17.0667C28.7333 16.9252 28.7895 16.7896 28.8895 16.6895C28.9896 16.5895 29.1252 16.5333 29.2667 16.5333C29.4081 16.5333 29.5438 16.5895 29.6438 16.6895C29.7438 16.7896 29.8 16.9252 29.8 17.0667V18.6667C29.8 18.8081 29.7438 18.9438 29.6438 19.0438C29.5438 19.1438 29.4081 19.2 29.2667 19.2C29.1252 19.2 28.9896 19.1438 28.8895 19.0438C28.7895 18.9438 28.7333 18.8081 28.7333 18.6667V17.0667ZM24.4667 17.0667C24.4667 16.9252 24.5229 16.7896 24.6229 16.6895C24.7229 16.5895 24.8586 16.5333 25 16.5333C25.1414 16.5333 25.2771 16.5895 25.3771 16.6895C25.4771 16.7896 25.5333 16.9252 25.5333 17.0667V18.6667C25.5333 18.8081 25.4771 18.9438 25.3771 19.0438C25.2771 19.1438 25.1414 19.2 25 19.2C24.8586 19.2 24.7229 19.1438 24.6229 19.0438C24.5229 18.9438 24.4667 18.8081 24.4667 18.6667V17.0667ZM20.2 17.0667C20.2 16.9252 20.2562 16.7896 20.3562 16.6895C20.4562 16.5895 20.5919 16.5333 20.7333 16.5333C20.8748 16.5333 21.0104 16.5895 21.1105 16.6895C21.2105 16.7896 21.2667 16.9252 21.2667 17.0667V18.6667C21.2667 18.8081 21.2105 18.9438 21.1105 19.0438C21.0104 19.1438 20.8748 19.2 20.7333 19.2C20.5919 19.2 20.4562 19.1438 20.3562 19.0438C20.2562 18.9438 20.2 18.8081 20.2 18.6667V17.0667ZM32.4667 20.8H17.5333V18.9333C17.534 18.7214 17.6185 18.5182 17.7683 18.3683C17.9182 18.2185 18.1214 18.134 18.3333 18.1333H19.6667V18.6667C19.6667 18.9496 19.779 19.2209 19.9791 19.4209C20.1791 19.621 20.4504 19.7333 20.7333 19.7333C21.0162 19.7333 21.2875 19.621 21.4876 19.4209C21.6876 19.2209 21.8 18.9496 21.8 18.6667V18.1333H23.9333V18.6667C23.9333 18.9496 24.0457 19.2209 24.2458 19.4209C24.4458 19.621 24.7171 19.7333 25 19.7333C25.2829 19.7333 25.5542 19.621 25.7542 19.4209C25.9543 19.2209 26.0667 18.9496 26.0667 18.6667V18.1333H28.2V18.6667C28.2 18.9496 28.3124 19.2209 28.5124 19.4209C28.7125 19.621 28.9838 19.7333 29.2667 19.7333C29.5496 19.7333 29.8209 19.621 30.0209 19.4209C30.221 19.2209 30.3333 18.9496 30.3333 18.6667V18.1333H31.6667C31.8786 18.134 32.0818 18.2185 32.2317 18.3683C32.3815 18.5182 32.466 18.7214 32.4667 18.9333V20.8Z"/>
</mask>
<path d="M31.6667 17.6H30.3333V17.0667C30.3333 16.7838 30.221 16.5125 30.0209 16.3124C29.8209 16.1124 29.5496 16 29.2667 16C28.9838 16 28.7125 16.1124 28.5124 16.3124C28.3124 16.5125 28.2 16.7838 28.2 17.0667V17.6H26.0667V17.0667C26.0667 16.7838 25.9543 16.5125 25.7542 16.3124C25.5542 16.1124 25.2829 16 25 16C24.7171 16 24.4458 16.1124 24.2458 16.3124C24.0457 16.5125 23.9333 16.7838 23.9333 17.0667V17.6H21.8V17.0667C21.8 16.7838 21.6876 16.5125 21.4876 16.3124C21.2875 16.1124 21.0162 16 20.7333 16C20.4504 16 20.1791 16.1124 19.9791 16.3124C19.779 16.5125 19.6667 16.7838 19.6667 17.0667V17.6H18.3333C17.9797 17.6 17.6406 17.7405 17.3905 17.9905C17.1405 18.2406 17 18.5797 17 18.9333V29.6C17 29.9536 17.1405 30.2928 17.3905 30.5428C17.6406 30.7929 17.9797 30.9333 18.3333 30.9333H25.8C25.8707 30.9333 25.9386 30.9052 25.9886 30.8552C26.0386 30.8052 26.0667 30.7374 26.0667 30.6667C26.0667 30.5959 26.0386 30.5281 25.9886 30.4781C25.9386 30.4281 25.8707 30.4 25.8 30.4H18.3333C18.1214 30.3994 17.9182 30.3149 17.7683 30.165C17.6185 30.0151 17.534 29.812 17.5333 29.6V21.3333H32.4667V25.8667C32.4667 25.9374 32.4948 26.0052 32.5448 26.0552C32.5948 26.1052 32.6626 26.1333 32.7333 26.1333C32.8041 26.1333 32.8719 26.1052 32.9219 26.0552C32.9719 26.0052 33 25.9374 33 25.8667V18.9333C33 18.5797 32.8595 18.2406 32.6095 17.9905C32.3594 17.7405 32.0203 17.6 31.6667 17.6ZM28.7333 17.0667C28.7333 16.9252 28.7895 16.7896 28.8895 16.6895C28.9896 16.5895 29.1252 16.5333 29.2667 16.5333C29.4081 16.5333 29.5438 16.5895 29.6438 16.6895C29.7438 16.7896 29.8 16.9252 29.8 17.0667V18.6667C29.8 18.8081 29.7438 18.9438 29.6438 19.0438C29.5438 19.1438 29.4081 19.2 29.2667 19.2C29.1252 19.2 28.9896 19.1438 28.8895 19.0438C28.7895 18.9438 28.7333 18.8081 28.7333 18.6667V17.0667ZM24.4667 17.0667C24.4667 16.9252 24.5229 16.7896 24.6229 16.6895C24.7229 16.5895 24.8586 16.5333 25 16.5333C25.1414 16.5333 25.2771 16.5895 25.3771 16.6895C25.4771 16.7896 25.5333 16.9252 25.5333 17.0667V18.6667C25.5333 18.8081 25.4771 18.9438 25.3771 19.0438C25.2771 19.1438 25.1414 19.2 25 19.2C24.8586 19.2 24.7229 19.1438 24.6229 19.0438C24.5229 18.9438 24.4667 18.8081 24.4667 18.6667V17.0667ZM20.2 17.0667C20.2 16.9252 20.2562 16.7896 20.3562 16.6895C20.4562 16.5895 20.5919 16.5333 20.7333 16.5333C20.8748 16.5333 21.0104 16.5895 21.1105 16.6895C21.2105 16.7896 21.2667 16.9252 21.2667 17.0667V18.6667C21.2667 18.8081 21.2105 18.9438 21.1105 19.0438C21.0104 19.1438 20.8748 19.2 20.7333 19.2C20.5919 19.2 20.4562 19.1438 20.3562 19.0438C20.2562 18.9438 20.2 18.8081 20.2 18.6667V17.0667ZM32.4667 20.8H17.5333V18.9333C17.534 18.7214 17.6185 18.5182 17.7683 18.3683C17.9182 18.2185 18.1214 18.134 18.3333 18.1333H19.6667V18.6667C19.6667 18.9496 19.779 19.2209 19.9791 19.4209C20.1791 19.621 20.4504 19.7333 20.7333 19.7333C21.0162 19.7333 21.2875 19.621 21.4876 19.4209C21.6876 19.2209 21.8 18.9496 21.8 18.6667V18.1333H23.9333V18.6667C23.9333 18.9496 24.0457 19.2209 24.2458 19.4209C24.4458 19.621 24.7171 19.7333 25 19.7333C25.2829 19.7333 25.5542 19.621 25.7542 19.4209C25.9543 19.2209 26.0667 18.9496 26.0667 18.6667V18.1333H28.2V18.6667C28.2 18.9496 28.3124 19.2209 28.5124 19.4209C28.7125 19.621 28.9838 19.7333 29.2667 19.7333C29.5496 19.7333 29.8209 19.621 30.0209 19.4209C30.221 19.2209 30.3333 18.9496 30.3333 18.6667V18.1333H31.6667C31.8786 18.134 32.0818 18.2185 32.2317 18.3683C32.3815 18.5182 32.466 18.7214 32.4667 18.9333V20.8Z" fill="white"/>
<path d="M31.6667 17.6H30.3333V17.0667C30.3333 16.7838 30.221 16.5125 30.0209 16.3124C29.8209 16.1124 29.5496 16 29.2667 16C28.9838 16 28.7125 16.1124 28.5124 16.3124C28.3124 16.5125 28.2 16.7838 28.2 17.0667V17.6H26.0667V17.0667C26.0667 16.7838 25.9543 16.5125 25.7542 16.3124C25.5542 16.1124 25.2829 16 25 16C24.7171 16 24.4458 16.1124 24.2458 16.3124C24.0457 16.5125 23.9333 16.7838 23.9333 17.0667V17.6H21.8V17.0667C21.8 16.7838 21.6876 16.5125 21.4876 16.3124C21.2875 16.1124 21.0162 16 20.7333 16C20.4504 16 20.1791 16.1124 19.9791 16.3124C19.779 16.5125 19.6667 16.7838 19.6667 17.0667V17.6H18.3333C17.9797 17.6 17.6406 17.7405 17.3905 17.9905C17.1405 18.2406 17 18.5797 17 18.9333V29.6C17 29.9536 17.1405 30.2928 17.3905 30.5428C17.6406 30.7929 17.9797 30.9333 18.3333 30.9333H25.8C25.8707 30.9333 25.9386 30.9052 25.9886 30.8552C26.0386 30.8052 26.0667 30.7374 26.0667 30.6667C26.0667 30.5959 26.0386 30.5281 25.9886 30.4781C25.9386 30.4281 25.8707 30.4 25.8 30.4H18.3333C18.1214 30.3994 17.9182 30.3149 17.7683 30.165C17.6185 30.0151 17.534 29.812 17.5333 29.6V21.3333H32.4667V25.8667C32.4667 25.9374 32.4948 26.0052 32.5448 26.0552C32.5948 26.1052 32.6626 26.1333 32.7333 26.1333C32.8041 26.1333 32.8719 26.1052 32.9219 26.0552C32.9719 26.0052 33 25.9374 33 25.8667V18.9333C33 18.5797 32.8595 18.2406 32.6095 17.9905C32.3594 17.7405 32.0203 17.6 31.6667 17.6ZM28.7333 17.0667C28.7333 16.9252 28.7895 16.7896 28.8895 16.6895C28.9896 16.5895 29.1252 16.5333 29.2667 16.5333C29.4081 16.5333 29.5438 16.5895 29.6438 16.6895C29.7438 16.7896 29.8 16.9252 29.8 17.0667V18.6667C29.8 18.8081 29.7438 18.9438 29.6438 19.0438C29.5438 19.1438 29.4081 19.2 29.2667 19.2C29.1252 19.2 28.9896 19.1438 28.8895 19.0438C28.7895 18.9438 28.7333 18.8081 28.7333 18.6667V17.0667ZM24.4667 17.0667C24.4667 16.9252 24.5229 16.7896 24.6229 16.6895C24.7229 16.5895 24.8586 16.5333 25 16.5333C25.1414 16.5333 25.2771 16.5895 25.3771 16.6895C25.4771 16.7896 25.5333 16.9252 25.5333 17.0667V18.6667C25.5333 18.8081 25.4771 18.9438 25.3771 19.0438C25.2771 19.1438 25.1414 19.2 25 19.2C24.8586 19.2 24.7229 19.1438 24.6229 19.0438C24.5229 18.9438 24.4667 18.8081 24.4667 18.6667V17.0667ZM20.2 17.0667C20.2 16.9252 20.2562 16.7896 20.3562 16.6895C20.4562 16.5895 20.5919 16.5333 20.7333 16.5333C20.8748 16.5333 21.0104 16.5895 21.1105 16.6895C21.2105 16.7896 21.2667 16.9252 21.2667 17.0667V18.6667C21.2667 18.8081 21.2105 18.9438 21.1105 19.0438C21.0104 19.1438 20.8748 19.2 20.7333 19.2C20.5919 19.2 20.4562 19.1438 20.3562 19.0438C20.2562 18.9438 20.2 18.8081 20.2 18.6667V17.0667ZM32.4667 20.8H17.5333V18.9333C17.534 18.7214 17.6185 18.5182 17.7683 18.3683C17.9182 18.2185 18.1214 18.134 18.3333 18.1333H19.6667V18.6667C19.6667 18.9496 19.779 19.2209 19.9791 19.4209C20.1791 19.621 20.4504 19.7333 20.7333 19.7333C21.0162 19.7333 21.2875 19.621 21.4876 19.4209C21.6876 19.2209 21.8 18.9496 21.8 18.6667V18.1333H23.9333V18.6667C23.9333 18.9496 24.0457 19.2209 24.2458 19.4209C24.4458 19.621 24.7171 19.7333 25 19.7333C25.2829 19.7333 25.5542 19.621 25.7542 19.4209C25.9543 19.2209 26.0667 18.9496 26.0667 18.6667V18.1333H28.2V18.6667C28.2 18.9496 28.3124 19.2209 28.5124 19.4209C28.7125 19.621 28.9838 19.7333 29.2667 19.7333C29.5496 19.7333 29.8209 19.621 30.0209 19.4209C30.221 19.2209 30.3333 18.9496 30.3333 18.6667V18.1333H31.6667C31.8786 18.134 32.0818 18.2185 32.2317 18.3683C32.3815 18.5182 32.466 18.7214 32.4667 18.9333V20.8Z" stroke="#373737" mask="url(#path-3-outside-1_2817_7917)"/>
<path d="M24.7193 23.1993C24.7193 22.9916 24.6367 22.7924 24.4898 22.6454C24.3429 22.4985 24.1437 22.416 23.9359 22.416H22.8693C22.6615 22.416 22.4623 22.4985 22.3154 22.6454C22.1685 22.7924 22.0859 22.9916 22.0859 23.1993V23.9993C22.0859 24.2071 22.1685 24.4063 22.3154 24.5532C22.4623 24.7002 22.6615 24.7827 22.8693 24.7827H23.9359C24.1437 24.7827 24.3429 24.7002 24.4898 24.5532C24.6367 24.4063 24.7193 24.2071 24.7193 23.9993V23.1993ZM23.1193 23.7493V23.4493H23.6859V23.7493H23.1193Z" fill="white" stroke="#373737" stroke-width="0.5"/>
<path d="M21.5161 23.1993C21.5161 22.9916 21.4336 22.7924 21.2867 22.6454C21.1398 22.4985 20.9406 22.416 20.7328 22.416H19.6661C19.4584 22.416 19.2591 22.4985 19.1122 22.6454C18.9653 22.7924 18.8828 22.9916 18.8828 23.1993V23.9993C18.8828 24.2071 18.9653 24.4063 19.1122 24.5532C19.2591 24.7002 19.4584 24.7827 19.6661 24.7827H20.7328C20.9406 24.7827 21.1398 24.7002 21.2867 24.5532C21.4336 24.4063 21.5161 24.2071 21.5161 23.9993V23.1993ZM19.9161 23.7493V23.4493H20.4828V23.7493H19.9161Z" fill="white" stroke="#373737" stroke-width="0.5"/>
<path d="M30.8883 22.6454L30.7153 22.8185L30.8883 22.6454C30.7414 22.4985 30.5421 22.416 30.3344 22.416H29.2677C29.06 22.416 28.8607 22.4985 28.7138 22.6454C28.5669 22.7924 28.4844 22.9916 28.4844 23.1993V23.9993C28.4844 24.2071 28.5669 24.4063 28.7138 24.5532C28.8607 24.7002 29.06 24.7827 29.2677 24.7827H30.3344C30.5421 24.7827 30.7414 24.7002 30.8883 24.5532C31.0352 24.4063 31.1177 24.2071 31.1177 23.9993V23.1993C31.1177 22.9916 31.0352 22.7924 30.8883 22.6454ZM29.5177 23.4493H30.0844V23.7493H29.5177V23.4493Z" fill="white" stroke="#373737" stroke-width="0.5"/>
<path d="M24.7193 25.5997C24.7193 25.392 24.6367 25.1927 24.4898 25.0458C24.3429 24.8989 24.1437 24.8164 23.9359 24.8164H22.8693C22.6615 24.8164 22.4623 24.8989 22.3154 25.0458C22.1685 25.1927 22.0859 25.392 22.0859 25.5997V26.3997C22.0859 26.6075 22.1685 26.8067 22.3154 26.9536C22.4623 27.1005 22.6615 27.1831 22.8693 27.1831H23.9359C24.1437 27.1831 24.3429 27.1005 24.4898 26.9536C24.6367 26.8067 24.7193 26.6075 24.7193 26.3997V25.5997ZM23.1193 26.1497V25.8497H23.6859V26.1497H23.1193Z" fill="white" stroke="#373737" stroke-width="0.5"/>
<path d="M21.5161 25.5997C21.5161 25.392 21.4336 25.1927 21.2867 25.0458C21.1398 24.8989 20.9406 24.8164 20.7328 24.8164H19.6661C19.4584 24.8164 19.2591 24.8989 19.1122 25.0458C18.9653 25.1927 18.8828 25.392 18.8828 25.5997V26.3997C18.8828 26.6075 18.9653 26.8067 19.1122 26.9536C19.2591 27.1005 19.4584 27.1831 19.6661 27.1831H20.7328C20.9406 27.1831 21.1398 27.1005 21.2867 26.9536C21.4336 26.8067 21.5161 26.6075 21.5161 26.3997V25.5997ZM19.9161 26.1497V25.8497H20.4828V26.1497H19.9161Z" fill="white" stroke="#373737" stroke-width="0.5"/>
<path d="M23.9359 27.2168H22.8693C22.6615 27.2168 22.4623 27.2993 22.3154 27.4462C22.1685 27.5931 22.0859 27.7924 22.0859 28.0001V28.8001C22.0859 29.0079 22.1685 29.2071 22.3154 29.354C22.4623 29.5009 22.6615 29.5835 22.8693 29.5835H23.9359C24.1437 29.5835 24.3429 29.5009 24.4898 29.354C24.6367 29.2071 24.7193 29.0079 24.7193 28.8001V28.0001C24.7193 27.7924 24.6367 27.5931 24.4898 27.4462C24.3429 27.2993 24.1437 27.2168 23.9359 27.2168ZM23.1193 28.5501V28.2501H23.6859V28.5501H23.1193Z" fill="white" stroke="#373737" stroke-width="0.5"/>
<path d="M27.6852 22.6454L27.5121 22.8185L27.6852 22.6454C27.5382 22.4985 27.339 22.416 27.1312 22.416H26.0646C25.8568 22.416 25.6576 22.4985 25.5107 22.6454C25.3638 22.7924 25.2812 22.9916 25.2812 23.1993V23.9993C25.2812 24.2071 25.3638 24.4063 25.5107 24.5532C25.6576 24.7002 25.8568 24.7827 26.0646 24.7827H27.1312C27.339 24.7827 27.5382 24.7002 27.6852 24.5532C27.8321 24.4063 27.9146 24.2071 27.9146 23.9993V23.1993C27.9146 22.9916 27.8321 22.7924 27.6852 22.6454ZM26.3146 23.4493H26.8812V23.7493H26.3146V23.4493Z" fill="white" stroke="#373737" stroke-width="0.5"/>
<path d="M25.2812 26.3997C25.2812 26.6075 25.3638 26.8067 25.5107 26.9536C25.6576 27.1005 25.8568 27.1831 26.0646 27.1831C26.2016 27.1831 26.333 27.1286 26.4299 27.0317C26.5268 26.9349 26.5812 26.8034 26.5812 26.6664C26.5812 26.5294 26.5268 26.398 26.4299 26.3011C26.3954 26.2666 26.3565 26.2374 26.3146 26.2142V25.8497H27.1312C27.2683 25.8497 27.3997 25.7953 27.4966 25.6984C27.5935 25.6015 27.6479 25.4701 27.6479 25.3331C27.6479 25.196 27.5935 25.0646 27.4966 24.9677C27.3997 24.8708 27.2683 24.8164 27.1312 24.8164H26.0646C25.8568 24.8164 25.6576 24.8989 25.5107 25.0458C25.3638 25.1927 25.2812 25.392 25.2812 25.5997V26.3997Z" fill="white" stroke="#373737" stroke-width="0.5"/>
<path d="M20.7328 27.2168H19.6661C19.4584 27.2168 19.2591 27.2993 19.1122 27.4462C18.9653 27.5931 18.8828 27.7924 18.8828 28.0001V28.8001C18.8828 29.0079 18.9653 29.2071 19.1122 29.354C19.2591 29.5009 19.4584 29.5835 19.6661 29.5835H20.7328C20.9406 29.5835 21.1398 29.5009 21.2867 29.354C21.4336 29.2071 21.5161 29.0079 21.5161 28.8001V28.0001C21.5161 27.7924 21.4336 27.5931 21.2867 27.4462C21.1398 27.2993 20.9406 27.2168 20.7328 27.2168ZM19.9161 28.5501V28.2501H20.4828V28.5501H19.9161Z" fill="white" stroke="#373737" stroke-width="0.5"/>
<path d="M29.5373 24.8164H29.537C28.8019 24.8164 28.0833 25.0344 27.4721 25.4428C26.8609 25.8512 26.3845 26.4316 26.1032 27.1108C25.8219 27.7899 25.7483 28.5372 25.8917 29.2582C26.0351 29.9791 26.3891 30.6414 26.9089 31.1612C27.4287 31.6809 28.0909 32.0349 28.8119 32.1783C29.5329 32.3217 30.2802 32.2481 30.9593 31.9668C31.6384 31.6855 32.2189 31.2091 32.6273 30.5979C33.0357 29.9867 33.2536 29.2682 33.2536 28.5331V28.5328C33.2525 27.5475 32.8606 26.6029 32.1639 25.9062C31.4672 25.2095 30.5226 24.8175 29.5373 24.8164ZM29.5367 31.2164C29.0061 31.2163 28.4874 31.059 28.0462 30.7642C27.6049 30.4693 27.261 30.0503 27.0579 29.5599C26.8548 29.0696 26.8017 28.5301 26.9052 28.0096C27.0087 27.4891 27.2643 27.0109 27.6396 26.6357C28.0148 26.2604 28.493 26.0048 29.0135 25.9013C29.534 25.7978 30.0735 25.8509 30.5638 26.054C31.0542 26.2571 31.4732 26.601 31.7681 27.0423C32.0629 27.4835 32.2203 28.0022 32.2203 28.5328C32.2195 29.2443 31.9365 29.9264 31.4334 30.4295C30.9303 30.9326 30.2482 31.2156 29.5367 31.2164Z" fill="white" stroke="#373737" stroke-width="0.5"/>
<path d="M30.9639 27.1005L30.9639 27.1005C30.867 27.0036 30.7356 26.9492 30.5986 26.9492C30.4616 26.9492 30.3302 27.0036 30.2333 27.1005L30.2333 27.1005L29.5319 27.8019L28.8306 27.1005L28.8306 27.1005L28.8275 27.0975C28.73 27.0034 28.5995 26.9513 28.464 26.9525C28.3286 26.9536 28.199 27.008 28.1032 27.1038C28.0074 27.1996 27.9531 27.3291 27.9519 27.4646C27.9507 27.6001 28.0028 27.7306 28.0969 27.828L28.0969 27.8281L28.0999 27.8311L28.8013 28.5325L28.1012 29.2326C28.0527 29.2799 28.014 29.3363 27.9873 29.3985C27.9602 29.4616 27.9459 29.5293 27.9453 29.5979C27.9447 29.6666 27.9578 29.7346 27.9838 29.7981C28.0098 29.8616 28.0481 29.9193 28.0966 29.9678C28.1452 30.0163 28.2028 30.0547 28.2663 30.0806C28.3298 30.1066 28.3979 30.1197 28.4665 30.1191C28.5351 30.1185 28.6029 30.1042 28.6659 30.0772L28.5672 29.8475L28.6659 30.0772C28.7282 30.0504 28.7845 30.0117 28.8318 29.9632L29.5319 29.2631L30.2333 29.9645L30.2333 29.9645L30.2364 29.9675C30.3338 30.0616 30.4643 30.1137 30.5998 30.1125C30.7353 30.1114 30.8649 30.057 30.9607 29.9612C31.0564 29.8654 31.1108 29.7358 31.112 29.6004C31.1131 29.4649 31.0611 29.3344 30.9669 29.237L30.967 29.2369L30.9639 29.2339L30.2625 28.5325L30.9639 27.8311L30.9639 27.8311C31.0608 27.7342 31.1152 27.6028 31.1152 27.4658C31.1152 27.3288 31.0608 27.1974 30.9639 27.1005Z" fill="white" stroke="#373737" stroke-width="0.5"/>
</g>
<defs>
<filter id="filter0_b_2817_7917" x="-7" y="-7" width="63" height="63" filterUnits="userSpaceOnUse" color-interpolation-filters="sRGB">
<feFlood flood-opacity="0" result="BackgroundImageFix"/>
<feGaussianBlur in="BackgroundImageFix" stdDeviation="3.5"/>
<feComposite in2="SourceAlpha" operator="in" result="effect1_backgroundBlur_2817_7917"/>
<feBlend mode="normal" in="SourceGraphic" in2="effect1_backgroundBlur_2817_7917" result="shape"/>
</filter>
</defs>
</svg>
