<svg width="25" height="25" viewBox="0 0 25 25" fill="none" xmlns="http://www.w3.org/2000/svg">
<circle cx="12.5" cy="12.5" r="12.5" fill="#D9D9D9"/>
<path d="M8.43128 16.8698C8.20344 16.7559 8.02441 16.4548 8.02441 16.17C8.02441 16.0154 8.43942 15.5515 9.74955 14.2333L11.4747 12.5L9.74141 10.7586L8 9.00904L8.04882 8.70796C8.11392 8.31736 8.31736 8.11392 8.70796 8.04882L9.00904 8L10.7586 9.74141L12.5 11.4747L14.2333 9.74955C15.462 8.52893 16.0235 8.02441 16.1537 8.02441C16.6013 8.02441 16.9756 8.39873 16.9756 8.86257C16.9756 8.97649 16.4141 9.59494 15.2505 10.7667L13.5253 12.5L15.2586 14.2414L17 15.991L16.9512 16.292C16.8861 16.6826 16.6826 16.8861 16.292 16.9512L15.991 17L14.2414 15.2586L12.5 13.5253L10.7667 15.2505C8.95208 17.057 8.88698 17.0976 8.43128 16.8698Z" fill="#5F6D7E"/>
</svg>
