<svg width="50" height="50" viewBox="0 0 50 50" fill="none" xmlns="http://www.w3.org/2000/svg">
<rect width="50" height="50" rx="6.47502" fill="#333333"/>
<path d="M28.5589 14.5133C28.2555 14.1711 27.8588 14 27.4154 14H19.9242C18.9673 14 18.1972 14.8067 18.1972 15.8089V23.8022H16.1202C15.5134 23.8022 15 24.3156 15 24.9756V29.1556C15 29.7911 15.4901 30.3289 16.1202 30.3289H26.5519C27.1587 30.3289 27.6721 29.8156 27.6721 29.1556V24.9511C27.6721 24.3156 27.182 23.7778 26.5519 23.7778H20.0642V16.0533C20.0642 16.0044 20.1109 15.9556 20.1575 15.9556H27.3221C27.6021 15.9556 27.8355 16.2 27.8355 16.4933V19.8667C27.8355 20.8689 28.6056 21.6756 29.5624 21.6756H32.6196C32.8997 21.6756 33.133 21.92 33.133 22.2133V33.9467C33.133 33.9956 33.0863 34.0444 33.0397 34.0444H20.1575C20.1109 34.0444 20.0642 33.9956 20.0642 33.9467V32.3578C20.0642 32.2111 19.9475 32.0644 19.7841 32.0644H18.4539C18.3139 32.0644 18.1739 32.1867 18.1739 32.3578V34.1911C18.1739 35.1933 18.944 36 19.9008 36H33.273C34.2299 36 35 35.1933 35 34.1911V22.1156C35 21.6756 34.8366 21.26 34.5566 20.9422L28.5589 14.5133ZM19.4807 28.2267C19.4807 28.2511 19.4807 28.2756 19.4807 28.3C19.4807 28.3244 19.4807 28.3489 19.4574 28.3489C19.4341 28.3489 19.4341 28.3733 19.4107 28.3978C19.3874 28.4222 19.3641 28.4467 19.3174 28.4711C19.2707 28.4956 19.2007 28.52 19.1307 28.5444C19.0607 28.5689 18.9907 28.5933 18.8973 28.6178C18.804 28.6422 18.7106 28.6422 18.6173 28.6422C18.4072 28.6422 18.2439 28.6178 18.0805 28.5444C17.9172 28.4711 17.7771 28.3733 17.6604 28.2511C17.5438 28.1289 17.4504 27.9578 17.4037 27.7622C17.3571 27.5667 17.3104 27.3467 17.3104 27.0778C17.3104 26.8089 17.3337 26.5889 17.4037 26.3689C17.4737 26.1489 17.5671 26.0022 17.6838 25.8556C17.8005 25.7089 17.9405 25.6111 18.1272 25.5378C18.3139 25.4644 18.4772 25.44 18.6873 25.44C18.7806 25.44 18.8506 25.44 18.9207 25.4644C18.9907 25.4889 19.0607 25.4889 19.1307 25.5133C19.2007 25.5378 19.2474 25.5622 19.294 25.5867C19.3407 25.6111 19.3874 25.6356 19.4107 25.66C19.4341 25.6844 19.4341 25.7089 19.4574 25.7089C19.4807 25.7089 19.4807 25.7333 19.4807 25.7578C19.4807 25.7822 19.4807 25.8067 19.4807 25.8311C19.4807 25.8556 19.4807 25.9044 19.4807 25.9533C19.4807 26.0022 19.4807 26.0511 19.4807 26.0756C19.4807 26.1 19.4807 26.1244 19.4574 26.1489C19.4341 26.1733 19.4341 26.1733 19.4341 26.1978C19.4341 26.2222 19.4107 26.2222 19.3874 26.2222C19.3641 26.2222 19.3407 26.1978 19.294 26.1733C19.2474 26.1489 19.224 26.1244 19.154 26.0756C19.084 26.0267 19.0373 26.0022 18.9673 25.9778C18.8973 25.9533 18.804 25.9778 18.6873 25.9778C18.5706 25.9778 18.4772 26.0022 18.3839 26.0511C18.2905 26.1 18.2205 26.1733 18.1505 26.2711C18.0805 26.3689 18.0338 26.4667 18.0105 26.6133C17.9872 26.76 17.9638 26.8822 17.9638 27.0533C17.9638 27.2244 17.9872 27.3956 18.0105 27.5178C18.0338 27.64 18.1039 27.7622 18.1739 27.8356C18.2439 27.9089 18.3139 27.9822 18.4072 28.0311C18.5006 28.08 18.6173 28.1044 18.734 28.1044C18.8506 28.1044 18.9207 28.08 19.014 28.0556C19.1074 28.0311 19.154 28.0067 19.224 27.9578C19.294 27.9089 19.3174 27.9089 19.3641 27.86C19.4107 27.8111 19.4341 27.8111 19.4574 27.8111C19.4807 27.8111 19.4807 27.8111 19.5041 27.8111C19.5274 27.8111 19.5274 27.8356 19.5274 27.86C19.5274 27.8844 19.5274 27.9089 19.5508 27.9333C19.5741 27.9578 19.5508 28.0067 19.5508 28.08C19.4807 28.1778 19.4807 28.2022 19.4807 28.2267ZM22.7713 25.5378C22.7946 25.5133 22.818 25.5133 22.8646 25.5133C22.9113 25.5133 22.9813 25.5133 23.0513 25.5133C23.1214 25.5133 23.168 25.5133 23.2147 25.5133C23.2614 25.5133 23.2847 25.5133 23.3081 25.5378C23.3314 25.5622 23.3547 25.5622 23.3547 25.5622C23.3547 25.5622 23.3781 25.5867 23.3781 25.6111L24.1015 27.9822L24.8016 25.6111C24.8016 25.5867 24.825 25.5622 24.825 25.5378C24.825 25.5133 24.8483 25.5133 24.8716 25.4889C24.895 25.4644 24.9183 25.4644 24.965 25.4644C25.0117 25.4644 25.0583 25.4644 25.1284 25.4644C25.1984 25.4644 25.245 25.4644 25.2917 25.4644C25.3384 25.4644 25.3617 25.4889 25.3617 25.4889C25.3617 25.4889 25.3851 25.5378 25.3851 25.5622C25.3851 25.5867 25.3617 25.6356 25.3384 25.6844L24.4516 28.4222C24.4516 28.4467 24.4282 28.4711 24.4282 28.4956C24.4282 28.52 24.4049 28.52 24.3582 28.5444C24.3116 28.5689 24.2882 28.5689 24.2415 28.5689C24.1949 28.5689 24.1249 28.5689 24.0548 28.5689C23.9848 28.5689 23.9382 28.5689 23.8915 28.5689C23.8448 28.5689 23.8215 28.5689 23.7748 28.5689C23.7281 28.5689 23.7281 28.5689 23.7048 28.5444C23.6814 28.52 23.6814 28.52 23.6581 28.52C23.6348 28.52 23.6348 28.4956 23.6348 28.4956C23.6348 28.4956 23.6581 28.4956 23.6581 28.4711L22.7713 25.7333C22.748 25.6844 22.748 25.6356 22.748 25.5867C22.748 25.5378 22.748 25.5378 22.7713 25.5378ZM20.2042 28.0311C20.2042 28.0067 20.2042 27.9822 20.2275 27.9578C20.2509 27.9333 20.2509 27.9333 20.2509 27.9089C20.2509 27.8844 20.2742 27.8844 20.2976 27.8844C20.3209 27.8844 20.3442 27.9089 20.3909 27.9333C20.4376 27.9578 20.4842 27.9822 20.5309 28.0311C20.5776 28.08 20.6709 28.08 20.741 28.1289C20.811 28.1778 20.9277 28.1778 21.0443 28.1778C21.1144 28.1778 21.1844 28.1778 21.231 28.1533C21.2777 28.1289 21.3477 28.1044 21.3711 28.08C21.3944 28.0556 21.4411 28.0067 21.4644 27.9578C21.4877 27.9089 21.4877 27.86 21.4877 27.7867C21.4877 27.7133 21.4644 27.6644 21.4411 27.6156C21.4177 27.5667 21.3477 27.5178 21.3011 27.4933C21.2544 27.4689 21.1844 27.42 21.091 27.3956C20.9977 27.3711 20.951 27.3222 20.8576 27.2978C20.7643 27.2733 20.6943 27.2244 20.6243 27.1756C20.5543 27.1267 20.4842 27.0778 20.4142 27.0044C20.3442 26.9311 20.2976 26.8578 20.2742 26.76C20.2509 26.6622 20.2275 26.5644 20.2275 26.4178C20.2275 26.2711 20.2509 26.1489 20.2976 26.0267C20.3442 25.9044 20.4142 25.8311 20.5076 25.7578C20.6009 25.6844 20.6943 25.6356 20.811 25.5867C20.9277 25.5378 21.0677 25.5378 21.1844 25.5378C21.2544 25.5378 21.3244 25.5378 21.3944 25.5622C21.4644 25.5867 21.5344 25.5867 21.5811 25.6111C21.6278 25.6356 21.6978 25.66 21.7445 25.6844C21.7911 25.7089 21.8145 25.7333 21.8378 25.7333C21.8611 25.7333 21.8611 25.7578 21.8611 25.7822C21.8611 25.8067 21.8611 25.8067 21.8845 25.8311C21.9078 25.8556 21.8845 25.88 21.8845 25.9044C21.8845 25.9289 21.8845 25.9778 21.8845 26.0022C21.8845 26.0511 21.8845 26.0756 21.8845 26.1244C21.8845 26.1733 21.8845 26.1733 21.8845 26.1978C21.8845 26.2222 21.8611 26.2222 21.8611 26.2467C21.8611 26.2711 21.8378 26.2711 21.8145 26.2711C21.7911 26.2711 21.7678 26.2711 21.7445 26.2467C21.7211 26.2222 21.6744 26.1978 21.6044 26.1733C21.5344 26.1489 21.5578 26.0022 21.4877 25.9778C21.4177 25.9533 21.3477 25.9533 21.2544 25.9533C21.1844 25.9533 21.1377 25.9533 21.091 25.9778C21.0443 26.0022 20.9977 26.0267 20.9743 26.0511C20.951 26.0756 20.9277 26.1244 20.9043 26.1489C20.881 26.1733 20.8576 26.2222 20.8576 26.2711C20.8576 26.3444 20.881 26.3933 20.9043 26.4422C20.9277 26.4911 20.9977 26.54 21.0443 26.5644C21.091 26.5889 21.161 26.6378 21.2544 26.6622C21.3477 26.6867 21.4177 26.7356 21.4877 26.76C21.5578 26.7844 21.6511 26.8333 21.7211 26.8822C21.7911 26.9311 21.8611 26.98 21.9312 27.0533C22.0012 27.1267 22.0478 27.2 22.0712 27.2978C22.0945 27.3956 22.1179 27.4933 22.1179 27.6156C22.1179 27.7867 22.0945 27.9089 22.0245 28.0311C21.9545 28.1533 21.8845 28.2511 21.7911 28.3489C21.6978 28.4467 21.5811 28.4956 21.4411 28.5444C21.3011 28.5933 21.161 28.6178 21.021 28.6178C20.9277 28.6178 20.8343 28.6178 20.741 28.5933C20.6476 28.5689 20.5776 28.5444 20.5076 28.52C20.4376 28.4956 20.3909 28.4711 20.3442 28.4467C20.2975 28.4222 20.2742 28.4222 20.2509 28.4222C20.2275 28.4222 20.2275 28.3733 20.2042 28.3244C20.1809 28.2756 20.1809 28.2267 20.1809 28.1533C20.2042 28.1044 20.2042 28.0556 20.2042 28.0311Z" fill="white"/>
</svg>
