<svg width="16" height="18" viewBox="0 0 16 18" fill="none" xmlns="http://www.w3.org/2000/svg">
<path id="Vector" d="M10.8471 0.42C10.6044 0.14 10.287 0 9.93232 0H3.93932C3.17386 0 2.55776 0.66 2.55776 1.48V8.02H0.896149C0.410735 8.02 0 8.44 0 8.98V12.4C0 12.92 0.392065 13.36 0.896149 13.36H9.24154C9.72696 13.36 10.1377 12.94 10.1377 12.4V8.96C10.1377 8.44 9.74562 8 9.24154 8H4.05134V1.68C4.05134 1.64 4.08868 1.6 4.12602 1.6H9.85764C10.0817 1.6 10.2684 1.8 10.2684 2.04V4.8C10.2684 5.62 10.8845 6.28 11.6499 6.28H14.0957C14.3197 6.28 14.5064 6.48 14.5064 6.72V16.32C14.5064 16.36 14.4691 16.4 14.4317 16.4H4.12602C4.08868 16.4 4.05134 16.36 4.05134 16.32V15.02C4.05134 14.9 3.95799 14.78 3.8273 14.78H2.76313C2.65111 14.78 2.53909 14.88 2.53909 15.02V16.52C2.53909 17.34 3.15519 18 3.92065 18H14.6184C15.3839 18 16 17.34 16 16.52V6.64C16 6.28 15.8693 5.94 15.6453 5.68L10.8471 0.42ZM3.5846 11.64C3.5846 11.66 3.5846 11.68 3.5846 11.7C3.5846 11.72 3.5846 11.74 3.56593 11.74C3.54726 11.74 3.54726 11.76 3.52859 11.78C3.50992 11.8 3.49125 11.82 3.45391 11.84C3.41657 11.86 3.36056 11.88 3.30455 11.9C3.24854 11.92 3.19253 11.94 3.11785 11.96C3.04317 11.98 2.96849 11.98 2.89382 11.98C2.72579 11.98 2.5951 11.96 2.46441 11.9C2.33372 11.84 2.2217 11.76 2.12835 11.66C2.03501 11.56 1.96033 11.42 1.92299 11.26C1.88565 11.1 1.84831 10.92 1.84831 10.7C1.84831 10.48 1.86698 10.3 1.92299 10.12C1.979 9.94 2.05368 9.82 2.14702 9.7C2.24037 9.58 2.35239 9.5 2.50175 9.44C2.65111 9.38 2.7818 9.36 2.94983 9.36C3.0245 9.36 3.08051 9.36 3.13652 9.38C3.19253 9.4 3.24854 9.4 3.30455 9.42C3.36056 9.44 3.3979 9.46 3.43524 9.48C3.47258 9.5 3.50992 9.52 3.52859 9.54C3.54726 9.56 3.54726 9.58 3.56593 9.58C3.5846 9.58 3.5846 9.6 3.5846 9.62C3.5846 9.64 3.5846 9.66 3.5846 9.68C3.5846 9.7 3.5846 9.74 3.5846 9.78C3.5846 9.82 3.5846 9.86 3.5846 9.88C3.5846 9.9 3.5846 9.92 3.56593 9.94C3.54726 9.96 3.54726 9.96 3.54726 9.98C3.54726 10 3.52859 10 3.50992 10C3.49125 10 3.47258 9.98 3.43524 9.96C3.3979 9.94 3.37923 9.92 3.32322 9.88C3.26721 9.84 3.22987 9.82 3.17386 9.8C3.11785 9.78 3.04317 9.8 2.94983 9.8C2.85648 9.8 2.7818 9.82 2.70712 9.86C2.63244 9.9 2.57643 9.96 2.52042 10.04C2.46441 10.12 2.42707 10.2 2.4084 10.32C2.38973 10.44 2.37106 10.54 2.37106 10.68C2.37106 10.82 2.38973 10.96 2.4084 11.06C2.42707 11.16 2.48308 11.26 2.53909 11.32C2.5951 11.38 2.65111 11.44 2.72579 11.48C2.80047 11.52 2.89382 11.54 2.98716 11.54C3.08051 11.54 3.13652 11.52 3.2112 11.5C3.28588 11.48 3.32322 11.46 3.37923 11.42C3.43524 11.38 3.45391 11.38 3.49125 11.34C3.52859 11.3 3.54726 11.3 3.56593 11.3C3.5846 11.3 3.5846 11.3 3.60327 11.3C3.62194 11.3 3.62194 11.32 3.62194 11.34C3.62194 11.36 3.62194 11.38 3.64061 11.4C3.65928 11.42 3.64061 11.46 3.64061 11.52C3.5846 11.6 3.5846 11.62 3.5846 11.64ZM6.21704 9.44C6.23571 9.42 6.25438 9.42 6.29172 9.42C6.32905 9.42 6.38506 9.42 6.44107 9.42C6.49708 9.42 6.53442 9.42 6.57176 9.42C6.6091 9.42 6.62777 9.42 6.64644 9.44C6.66511 9.46 6.68378 9.46 6.68378 9.46C6.68378 9.46 6.70245 9.48 6.70245 9.5L7.28121 11.44L7.84131 9.5C7.84131 9.48 7.85998 9.46 7.85998 9.44C7.85998 9.42 7.87865 9.42 7.89732 9.4C7.91599 9.38 7.93466 9.38 7.972 9.38C8.00933 9.38 8.04667 9.38 8.10268 9.38C8.15869 9.38 8.19603 9.38 8.23337 9.38C8.27071 9.38 8.28938 9.4 8.28938 9.4C8.28938 9.4 8.30805 9.44 8.30805 9.46C8.30805 9.48 8.28938 9.52 8.27071 9.56L7.56126 11.8C7.56126 11.82 7.54259 11.84 7.54259 11.86C7.54259 11.88 7.52392 11.88 7.48658 11.9C7.44924 11.92 7.43057 11.92 7.39323 11.92C7.35589 11.92 7.29988 11.92 7.24387 11.92C7.18786 11.92 7.15053 11.92 7.11319 11.92C7.07585 11.92 7.05718 11.92 7.01984 11.92C6.9825 11.92 6.9825 11.92 6.96383 11.9C6.94516 11.88 6.94516 11.88 6.92649 11.88C6.90782 11.88 6.90782 11.86 6.90782 11.86C6.90782 11.86 6.92649 11.86 6.92649 11.84L6.21704 9.6C6.19837 9.56 6.19837 9.52 6.19837 9.48C6.19837 9.44 6.19837 9.44 6.21704 9.44ZM4.16336 11.48C4.16336 11.46 4.16336 11.44 4.18203 11.42C4.2007 11.4 4.2007 11.4 4.2007 11.38C4.2007 11.36 4.21937 11.36 4.23804 11.36C4.25671 11.36 4.27538 11.38 4.31272 11.4C4.35006 11.42 4.3874 11.44 4.42474 11.48C4.46208 11.52 4.53676 11.52 4.59277 11.56C4.64878 11.6 4.74212 11.6 4.83547 11.6C4.89148 11.6 4.94749 11.6 4.98483 11.58C5.02217 11.56 5.07818 11.54 5.09685 11.52C5.11552 11.5 5.15286 11.46 5.17153 11.42C5.1902 11.38 5.1902 11.34 5.1902 11.28C5.1902 11.22 5.17153 11.18 5.15286 11.14C5.13419 11.1 5.07818 11.06 5.04084 11.04C5.0035 11.02 4.94749 10.98 4.87281 10.96C4.79813 10.94 4.76079 10.9 4.68611 10.88C4.61144 10.86 4.55543 10.82 4.49942 10.78C4.44341 10.74 4.3874 10.7 4.33139 10.64C4.27538 10.58 4.23804 10.52 4.21937 10.44C4.2007 10.36 4.18203 10.28 4.18203 10.16C4.18203 10.04 4.2007 9.94 4.23804 9.84C4.27538 9.74 4.33139 9.68 4.40607 9.62C4.48075 9.56 4.55543 9.52 4.64878 9.48C4.74212 9.44 4.85414 9.44 4.94749 9.44C5.0035 9.44 5.05951 9.44 5.11552 9.46C5.17153 9.48 5.22754 9.48 5.26488 9.5C5.30222 9.52 5.35823 9.54 5.39557 9.56C5.43291 9.58 5.45158 9.6 5.47025 9.6C5.48892 9.6 5.48891 9.62 5.48891 9.64C5.48891 9.66 5.48892 9.66 5.50759 9.68C5.52626 9.7 5.50759 9.72 5.50759 9.74C5.50759 9.76 5.50759 9.8 5.50759 9.82C5.50759 9.86 5.50759 9.88 5.50759 9.92C5.50759 9.96 5.50759 9.96 5.50759 9.98C5.50759 10 5.48891 10 5.48891 10.02C5.48891 10.04 5.47025 10.04 5.45158 10.04C5.43291 10.04 5.41424 10.04 5.39557 10.02C5.3769 10 5.33956 9.98 5.28355 9.96C5.22754 9.94 5.24621 9.82 5.1902 9.8C5.13419 9.78 5.07818 9.78 5.0035 9.78C4.94749 9.78 4.91015 9.78 4.87281 9.8C4.83547 9.82 4.79813 9.84 4.77946 9.86C4.76079 9.88 4.74212 9.92 4.72345 9.94C4.70478 9.96 4.68611 10 4.68611 10.04C4.68611 10.1 4.70478 10.14 4.72345 10.18C4.74212 10.22 4.79813 10.26 4.83547 10.28C4.87281 10.3 4.92882 10.34 5.0035 10.36C5.07818 10.38 5.13419 10.42 5.1902 10.44C5.24621 10.46 5.32089 10.5 5.3769 10.54C5.43291 10.58 5.48891 10.62 5.54492 10.68C5.60093 10.74 5.63827 10.8 5.65694 10.88C5.67561 10.96 5.69428 11.04 5.69428 11.14C5.69428 11.28 5.67561 11.38 5.6196 11.48C5.56359 11.58 5.50759 11.66 5.43291 11.74C5.35823 11.82 5.26488 11.86 5.15286 11.9C5.04084 11.94 4.92882 11.96 4.8168 11.96C4.74212 11.96 4.66745 11.96 4.59277 11.94C4.51809 11.92 4.46208 11.9 4.40607 11.88C4.35006 11.86 4.31272 11.84 4.27538 11.82C4.23804 11.8 4.21937 11.8 4.2007 11.8C4.18203 11.8 4.18203 11.76 4.16336 11.72C4.14469 11.68 4.14469 11.64 4.14469 11.58C4.16336 11.54 4.16336 11.5 4.16336 11.48Z" fill="#1B1D21"/>
</svg>
