<svg width="49" height="49" viewBox="0 0 49 49" fill="none" xmlns="http://www.w3.org/2000/svg">
<g filter="url(#filter0_b_2817_7932)">
<rect width="49" height="49" rx="15" fill="white" fill-opacity="0.03"/>
<rect x="0.5" y="0.5" width="48" height="48" rx="14.5" stroke="#D1D9E2" stroke-opacity="0.3"/>
<path d="M24.5693 17.3027C22.3952 17.3027 20.6328 19.0652 20.6328 21.2392C20.6328 23.4133 22.3952 25.1757 24.5693 25.1757C26.7433 25.1757 28.5058 23.4133 28.5058 21.2392C28.5058 19.0652 26.7433 17.3027 24.5693 17.3027ZM22.297 21.2392C22.297 19.9842 23.3143 18.9669 24.5693 18.9669C25.8243 18.9669 26.8416 19.9842 26.8416 21.2392C26.8416 22.4942 25.8243 23.5115 24.5693 23.5115C23.3143 23.5115 22.297 22.4942 22.297 21.2392Z" fill="white" stroke="#373737" stroke-width="0.5"/>
<path d="M17.0003 25.4496L16.7503 25.4523C16.75 25.4268 16.75 25.398 16.75 25.354V25.3524V22.9043L16.75 22.8929C16.75 21.7725 16.75 20.8779 16.8124 20.1567C16.8765 19.4165 17.0111 18.7817 17.3264 18.2041C17.7594 17.4112 18.4112 16.7594 19.2041 16.3264M17.0003 25.4496L32.3836 25.4523C32.384 25.4262 32.384 25.3966 32.384 25.3519V22.9043V22.8928C32.384 21.7725 32.384 20.8779 32.3215 20.1567M17.0003 25.4496L16.7503 25.4523C16.7679 27.0856 17.616 28.5185 18.8887 29.3495C19.6157 29.8242 20.4824 30.1037 21.4117 30.1137L21.412 30.1137C21.4346 30.1139 21.46 30.1139 21.4966 30.1139M17.0003 25.4496L21.5215 30.0567M19.2041 16.3264L19.3239 16.5459L19.2041 16.3264C19.2041 16.3264 19.2041 16.3264 19.2041 16.3264ZM19.2041 16.3264C19.7817 16.0111 20.4165 15.8765 21.1567 15.8124C21.8779 15.75 22.7725 15.75 23.8929 15.75L23.9043 15.75H25.2296L25.2411 15.75C26.3614 15.75 27.256 15.75 27.9772 15.8124C28.7175 15.8765 29.3523 16.0111 29.9299 16.3264L29.9299 16.3265C30.7228 16.7594 31.3745 17.4112 31.8075 18.2041C32.1229 18.7817 32.2574 19.4165 32.3215 20.1567M32.3215 20.1567L32.0724 20.1782L32.3215 20.1566C32.3215 20.1567 32.3215 20.1567 32.3215 20.1567ZM23.079 31.6612C23.498 31.9924 23.9737 32.25 24.567 32.25C25.1603 32.25 25.636 31.9924 26.0549 31.6612C26.4444 31.3533 26.8707 30.9105 27.3619 30.4001L27.3745 30.387L27.3745 30.387L27.6374 30.1139C27.674 30.1139 27.6993 30.1139 27.7219 30.1137L27.7222 30.1137C28.6515 30.1037 29.5183 29.8242 30.2453 29.3495C31.5179 28.5185 32.3658 27.0859 32.3836 25.4528L23.2341 31.4651M23.079 31.6612L23.2341 31.4651M23.079 31.6612C23.079 31.6612 23.079 31.6612 23.079 31.6612L23.2341 31.4651M23.079 31.6612C22.6892 31.3531 22.2626 30.9098 21.7709 30.3989L21.7594 30.387L21.7594 30.387L21.4966 30.1139M23.2341 31.4651C22.8576 31.1675 22.4406 30.7343 21.9397 30.2138L21.9395 30.2137L21.6601 29.9233M21.4966 30.1139C21.5009 30.1139 21.5053 30.1139 21.5099 30.1139H21.5114H21.5206H21.5215V30.0634L21.6601 29.9233M21.4966 30.1139L21.4821 30.0989M21.6601 29.9233L21.6341 29.9483L21.5254 30.053L21.5215 30.0567M21.6601 29.9233L21.6595 29.9227C21.6232 29.8854 21.5735 29.8643 21.5215 29.8639M21.5215 30.0567L21.5206 30.0576L21.5203 30.0578M21.5215 30.0567V29.8639M21.5215 29.8639L21.5206 30.0228L21.5203 30.0578M21.5215 29.8639L21.5203 30.0578M21.5203 30.0578L21.5114 30.0664L21.48 30.0967L21.4802 30.0969L21.481 30.0978M21.481 30.0978C21.4807 30.0975 21.4804 30.0972 21.4802 30.0969L21.4801 30.0969L21.4821 30.0989M21.481 30.0978C21.4819 30.0986 21.4828 30.0995 21.4838 30.1003C21.484 30.1005 21.4842 30.1007 21.4844 30.1009M21.481 30.0978L21.4821 30.0989M21.4821 30.0989L21.4836 30.1004L21.4843 30.101L21.4844 30.1009M21.4844 30.1009C21.4922 30.1074 21.5016 30.1116 21.5114 30.1132C21.5143 30.1137 21.5171 30.1139 21.52 30.1139L21.5203 30.0646L21.5114 30.0736L21.4844 30.1009ZM20.0016 17.787C20.2933 17.6278 20.6697 17.525 21.3002 17.4704C21.9413 17.4149 22.7641 17.4142 23.932 17.4142H25.202C26.3699 17.4142 27.1927 17.4149 27.8338 17.4704C28.4642 17.525 28.8407 17.6278 29.1323 17.787C29.6453 18.0671 30.0668 18.4887 30.3469 19.0016L30.3469 19.0016C30.5062 19.2933 30.6089 19.6697 30.6635 20.3002M20.0016 17.787L19.8818 17.5676L20.0016 17.787ZM20.0016 17.787C19.4887 18.0671 19.0671 18.4887 18.787 19.0016L18.787 19.0016C18.6278 19.2933 18.525 19.6697 18.4704 20.3002C18.4149 20.9413 18.4141 21.7641 18.4141 22.932V25.3481C18.4141 25.3998 18.4142 25.419 18.4143 25.4343L18.4143 25.4343C18.4222 26.1684 18.6889 26.84 19.1286 27.3626C19.8481 26.4365 20.9732 25.8393 22.2387 25.8393H26.8953C28.1608 25.8393 29.2858 26.4365 30.0053 27.3626C30.445 26.84 30.7117 26.1684 30.7196 25.4343L30.7196 25.4342C30.7197 25.4218 30.7198 25.4065 30.7198 25.3737V25.3481V22.932C30.7198 21.7641 30.7191 20.9413 30.6635 20.3002M30.6635 20.3002L30.9126 20.2786M30.6635 20.3002C30.6635 20.3002 30.6635 20.3002 30.6635 20.3002L30.9126 20.2786M30.9126 20.2786C30.8566 19.6317 30.7491 19.2164 30.5663 18.8818L30.1563 27.5705C30.6559 26.9987 30.9608 26.2534 30.9696 25.437C30.9697 25.4232 30.9698 25.4068 30.9698 25.3737V25.3481V22.932C30.9698 21.7685 30.9693 20.933 30.9126 20.2786ZM27.6165 28.4498L27.6181 28.4498C27.6515 28.4498 27.6714 28.4498 27.6855 28.4498C27.693 28.4497 27.6989 28.4497 27.7042 28.4497C28.0252 28.4462 28.3334 28.3934 28.6223 28.2987C28.205 27.8114 27.5857 27.5035 26.8953 27.5035H22.2387C21.5483 27.5035 20.929 27.8114 20.5117 28.2987C20.8005 28.3934 21.1087 28.4462 21.4297 28.4497C21.4452 28.4498 21.4647 28.4498 21.5159 28.4498H21.5175L21.5293 28.4499C21.5294 28.4499 21.5294 28.4499 21.5295 28.4499M27.6165 28.4498L22.4938 29.1107C22.2399 28.8499 21.8919 28.7018 21.5279 28.6999L21.5295 28.4499M27.6165 28.4498L27.6046 28.4499M27.6165 28.4498L27.6046 28.4499M21.5295 28.4499C21.9605 28.4522 22.3724 28.6276 22.6729 28.9364L22.6739 28.9374L22.6822 28.9461L22.6823 28.9461L22.9298 29.2033M21.5295 28.4499L22.9298 29.2033M22.9298 29.2033L22.7497 29.3766L22.5021 29.1194L22.9298 29.2033ZM27.6046 28.4499L27.6044 28.4499C27.1734 28.4522 26.7615 28.6276 26.461 28.9364L26.4602 28.9372L26.4518 28.9459L26.4517 28.9461L26.2042 29.2032C25.6619 29.7666 25.3132 30.1263 25.0228 30.3557L25.0228 30.3558C24.7517 30.5701 24.6344 30.5859 24.567 30.5859C24.4996 30.5859 24.3822 30.5701 24.1111 30.3558L24.1111 30.3557C23.8207 30.1263 23.472 29.7666 22.9298 29.2033L27.606 28.6999L27.6046 28.4499ZM27.4745 29.9227L27.6124 30.0566L27.4745 29.9227Z" fill="white" stroke="#373737" stroke-width="0.5"/>
</g>
<defs>
<filter id="filter0_b_2817_7932" x="-7" y="-7" width="63" height="63" filterUnits="userSpaceOnUse" color-interpolation-filters="sRGB">
<feFlood flood-opacity="0" result="BackgroundImageFix"/>
<feGaussianBlur in="BackgroundImageFix" stdDeviation="3.5"/>
<feComposite in2="SourceAlpha" operator="in" result="effect1_backgroundBlur_2817_7932"/>
<feBlend mode="normal" in="SourceGraphic" in2="effect1_backgroundBlur_2817_7932" result="shape"/>
</filter>
</defs>
</svg>
