<svg width="17" height="18" viewBox="0 0 17 18" fill="none" xmlns="http://www.w3.org/2000/svg">
<path d="M6.51925 0.179048C5.36191 0.506729 4.45555 1.54555 4.2952 2.72381C4.05118 4.55743 5.36191 6.33528 8.49231 8.41989L9.25226 8.92188L9.64966 8.67088C13.3169 6.34225 14.7531 4.27158 14.1187 2.2288C13.6446 0.688 11.9853 -0.23927 10.4584 0.172075C10.0819 0.269683 9.41261 0.590392 9.34289 0.701943C9.32198 0.743775 9.19648 0.694972 9.03613 0.590392C8.35287 0.137216 7.29314 -0.0370836 6.51925 0.179048ZM8.2483 1.36428C8.43654 1.46886 8.7433 1.7059 8.93155 1.89415L9.25923 2.2288L9.74029 1.7826C10.1098 1.42703 10.298 1.3085 10.6118 1.21787C11.6088 0.925046 12.6127 1.39914 13.0589 2.36127C13.2054 2.68895 13.2263 2.81445 13.1984 3.27459C13.1566 3.99968 12.8289 4.62018 12.0689 5.42893C11.2114 6.33528 9.3917 7.72967 9.21042 7.62509C8.43654 7.17192 7.26525 6.25162 6.59594 5.57534C5.72445 4.6899 5.32705 3.95087 5.32705 3.20487C5.32008 2.70987 5.42466 2.36824 5.68959 1.97781C6.24037 1.17604 7.39075 0.897159 8.2483 1.36428Z" fill="#333333"/>
<path d="M13.5953 9.64115C13.4419 9.71784 12.8144 10.2826 12.1939 10.8891C11.1621 11.914 11.0575 11.9977 10.8205 11.9977C10.6113 11.9977 10.5486 11.9628 10.4649 11.7955C10.3045 11.4887 9.82348 11.1122 9.48185 11.0286C9.31453 10.9867 8.72191 10.9519 8.15718 10.9519C7.18808 10.9519 7.13231 10.9449 6.87434 10.7776C6.22595 10.3453 5.2708 10.1571 4.55966 10.3244C3.79274 10.5057 3.50689 10.7218 1.70813 12.5206L0 14.2287L1.84757 16.0763L3.69513 17.9238L4.53177 17.0872L5.3684 16.2506H8.33148H11.2946L13.909 13.6361L16.5235 11.0216L15.896 10.3941C15.5475 10.0455 15.1431 9.7039 14.9827 9.6272C14.5993 9.43896 13.9718 9.44593 13.5953 9.64115ZM14.8015 10.7776L15.0594 11.0146L12.9678 13.1132L10.8762 15.2048H7.91317H4.95009L4.32261 15.8322L3.69513 16.4597L2.57962 15.3442L1.46411 14.2287L2.75392 12.9389C3.53478 12.158 4.15528 11.5933 4.32958 11.5027C4.98495 11.1889 5.79369 11.2865 6.40722 11.7467L6.72096 11.9907L8.01077 12.0116C9.51671 12.0395 9.55855 12.0534 9.63524 12.6809L9.67707 13.0435H7.81556H5.96102V13.5664V14.0893H8.33148H10.7019V13.5664V13.0435H11.1412H11.5734L12.8284 11.7885C13.9439 10.673 14.1043 10.5336 14.3134 10.5336C14.4738 10.5336 14.6132 10.6033 14.8015 10.7776Z" fill="#333333"/>
</svg>
