<svg width="49" height="49" viewBox="0 0 49 49" fill="none" xmlns="http://www.w3.org/2000/svg">
<g filter="url(#filter0_b_1208_3254)">
<rect width="49" height="49" rx="15" fill="white" fill-opacity="0.03"/>
<rect x="0.5" y="0.5" width="48" height="48" rx="14.5" stroke="#D1D9E2" stroke-opacity="0.3"/>
<path d="M22.7039 14.13C21.3147 14.5374 20.2268 15.829 20.0343 17.2939C19.7414 19.5737 21.3147 21.7841 25.0722 24.3759L25.9844 25L26.4614 24.6879C30.8633 21.7928 32.5872 19.2183 31.8257 16.6785C31.2566 14.7628 29.2649 13.6099 27.4322 14.1214C26.9803 14.2427 26.1769 14.6415 26.0932 14.7801C26.0681 14.8322 25.9175 14.7715 25.725 14.6415C24.9049 14.078 23.6328 13.8613 22.7039 14.13ZM24.7793 15.6036C25.0053 15.7337 25.3735 16.0284 25.5994 16.2624L25.9928 16.6785L26.5702 16.1237C27.0137 15.6816 27.2397 15.5343 27.6163 15.4216C28.813 15.0575 30.0181 15.647 30.5537 16.8432C30.7294 17.2506 30.7545 17.4066 30.721 17.9787C30.6708 18.8802 30.2775 19.6517 29.3653 20.6572C28.336 21.7841 26.1518 23.5177 25.9342 23.3877C25.0053 22.8243 23.5994 21.6801 22.796 20.8392C21.7499 19.7384 21.2729 18.8195 21.2729 17.892C21.2645 17.2766 21.39 16.8519 21.708 16.3664C22.3692 15.3696 23.75 15.0229 24.7793 15.6036Z" fill="white"/>
<path d="M30.6329 25.1968C30.4565 25.2968 29.735 26.0334 29.0215 26.8245C27.835 28.1613 27.7148 28.2704 27.4422 28.2704C27.2017 28.2704 27.1295 28.225 27.0333 28.0067C26.8489 27.6066 26.2958 27.1155 25.903 27.0064C25.7105 26.9519 25.0291 26.9064 24.3797 26.9064C23.2654 26.9064 23.2013 26.8973 22.9046 26.679C22.1591 26.1152 21.0608 25.8697 20.243 26.088C19.3612 26.3244 19.0325 26.6063 16.9641 28.9525L15 31.1804L17.1245 33.5902L19.2489 36L20.211 34.9088L21.173 33.8175H24.5802H27.9873L30.9937 30.4074L34 26.9973L33.2785 26.1789C32.8776 25.7242 32.4127 25.2786 32.2283 25.1786C31.7873 24.9331 31.0658 24.9422 30.6329 25.1968ZM32.0198 26.679L32.3165 26.9882L29.9114 29.7254L27.5063 32.4535H24.0992H20.692L19.9705 33.2719L19.2489 34.0903L17.9662 32.6354L16.6835 31.1804L18.1667 29.4981C19.0646 28.4796 19.7781 27.743 19.9785 27.6248C20.7321 27.2156 21.662 27.3429 22.3675 27.9431L22.7283 28.2613L24.2114 28.2886C25.943 28.325 25.9911 28.3432 26.0793 29.1616L26.1274 29.6345H23.9869H21.8544V30.3165V30.9985H24.5802H27.3059V30.3165V29.6345H27.811H28.308L29.7511 27.9976C31.0338 26.5426 31.2181 26.3608 31.4587 26.3608C31.643 26.3608 31.8034 26.4517 32.0198 26.679Z" fill="white"/>
<path d="M22.7039 14.13C21.3147 14.5374 20.2268 15.829 20.0343 17.2939C19.7414 19.5737 21.3147 21.7841 25.0722 24.3759L25.9844 25L26.4614 24.6879C30.8633 21.7928 32.5872 19.2183 31.8257 16.6785C31.2566 14.7628 29.2649 13.6099 27.4322 14.1214C26.9803 14.2427 26.1769 14.6415 26.0932 14.7801C26.0681 14.8322 25.9175 14.7715 25.725 14.6415C24.9049 14.078 23.6328 13.8613 22.7039 14.13ZM24.7793 15.6036C25.0053 15.7337 25.3735 16.0284 25.5994 16.2624L25.9928 16.6785L26.5702 16.1237C27.0137 15.6816 27.2397 15.5343 27.6163 15.4216C28.813 15.0575 30.0181 15.647 30.5537 16.8432C30.7294 17.2506 30.7545 17.4066 30.721 17.9787C30.6708 18.8802 30.2775 19.6517 29.3653 20.6572C28.336 21.7841 26.1518 23.5177 25.9342 23.3877C25.0053 22.8243 23.5994 21.6801 22.796 20.8392C21.7499 19.7384 21.2729 18.8195 21.2729 17.892C21.2645 17.2766 21.39 16.8519 21.708 16.3664C22.3692 15.3696 23.75 15.0229 24.7793 15.6036Z" fill="white"/>
<path d="M30.6329 25.1968C30.4565 25.2968 29.735 26.0334 29.0215 26.8245C27.835 28.1613 27.7148 28.2704 27.4422 28.2704C27.2017 28.2704 27.1295 28.225 27.0333 28.0067C26.8489 27.6066 26.2958 27.1155 25.903 27.0064C25.7105 26.9519 25.0291 26.9064 24.3797 26.9064C23.2654 26.9064 23.2013 26.8973 22.9046 26.679C22.1591 26.1152 21.0608 25.8697 20.243 26.088C19.3612 26.3244 19.0325 26.6063 16.9641 28.9525L15 31.1804L17.1245 33.5902L19.2489 36L20.211 34.9088L21.173 33.8175H24.5802H27.9873L30.9937 30.4074L34 26.9973L33.2785 26.1789C32.8776 25.7242 32.4127 25.2786 32.2283 25.1786C31.7873 24.9331 31.0658 24.9422 30.6329 25.1968ZM32.0198 26.679L32.3165 26.9882L29.9114 29.7254L27.5063 32.4535H24.0992H20.692L19.9705 33.2719L19.2489 34.0903L17.9662 32.6354L16.6835 31.1804L18.1667 29.4981C19.0646 28.4796 19.7781 27.743 19.9785 27.6248C20.7321 27.2156 21.662 27.3429 22.3675 27.9431L22.7283 28.2613L24.2114 28.2886C25.943 28.325 25.9911 28.3432 26.0793 29.1616L26.1274 29.6345H23.9869H21.8544V30.3165V30.9985H24.5802H27.3059V30.3165V29.6345H27.811H28.308L29.7511 27.9976C31.0338 26.5426 31.2181 26.3608 31.4587 26.3608C31.643 26.3608 31.8034 26.4517 32.0198 26.679Z" fill="white"/>
</g>
<defs>
<filter id="filter0_b_1208_3254" x="-7" y="-7" width="63" height="63" filterUnits="userSpaceOnUse" color-interpolation-filters="sRGB">
<feFlood flood-opacity="0" result="BackgroundImageFix"/>
<feGaussianBlur in="BackgroundImageFix" stdDeviation="3.5"/>
<feComposite in2="SourceAlpha" operator="in" result="effect1_backgroundBlur_1208_3254"/>
<feBlend mode="normal" in="SourceGraphic" in2="effect1_backgroundBlur_1208_3254" result="shape"/>
</filter>
</defs>
</svg>
