<svg width="49" height="49" viewBox="0 0 49 49" fill="none" xmlns="http://www.w3.org/2000/svg">
<g filter="url(#filter0_b_2817_7932)">
<rect width="49" height="49" rx="15" fill="white" fill-opacity="0.03"/>
<rect x="0.5" y="0.5" width="48" height="48" rx="14.5" stroke="#D1D9E2" stroke-opacity="0.3"/>
<path fill-rule="evenodd" clip-rule="evenodd" d="M24.5693 17.5527C22.5333 17.5527 20.8828 19.2032 20.8828 21.2392C20.8828 23.2752 22.5333 24.9257 24.5693 24.9257C26.6053 24.9257 28.2558 23.2752 28.2558 21.2392C28.2558 19.2032 26.6053 17.5527 24.5693 17.5527ZM22.047 21.2392C22.047 19.8462 23.1762 18.7169 24.5693 18.7169C25.9623 18.7169 27.0916 19.8462 27.0916 21.2392C27.0916 22.6322 25.9623 23.7615 24.5693 23.7615C23.1762 23.7615 22.047 22.6322 22.047 21.2392Z" fill="white"/>
<path fill-rule="evenodd" clip-rule="evenodd" d="M27.9557 16.0615C27.2452 16 26.3595 16 25.2296 16H23.9043C22.7745 16 21.8887 16 21.1782 16.0615C20.4546 16.1242 19.8585 16.2539 19.3239 16.5459C18.573 16.9559 17.9559 17.573 17.5459 18.3239C17.2539 18.8585 17.1242 19.4546 17.0615 20.1782C17 20.8887 17 21.7745 17 22.9043V25.3524C17 25.3978 17 25.4254 17.0003 25.4496C17.017 26.996 17.8197 28.3529 19.0254 29.1402C19.7137 29.5896 20.5342 29.8542 21.4144 29.8637C21.4385 29.8639 21.4661 29.8639 21.5114 29.8639H21.5206H21.5215C21.5735 29.8643 21.6232 29.8854 21.6595 29.9227L21.6601 29.9233L21.9395 30.2137C22.4405 30.7342 22.8576 31.1675 23.2341 31.4651C23.631 31.7789 24.0528 32 24.567 32C25.0812 32 25.503 31.7789 25.8999 31.4651C26.2764 31.1675 26.6934 30.7342 27.1944 30.2137L27.4745 29.9227C27.5107 29.8854 27.5604 29.8643 27.6124 29.8639H27.6134H27.6225C27.6678 29.8639 27.6955 29.8639 27.7195 29.8637C28.5998 29.8542 29.4203 29.5896 30.1086 29.1402C31.3143 28.3529 32.117 26.996 32.1337 25.4496C32.134 25.4253 32.134 25.3976 32.134 25.3519V22.9043C32.134 21.7744 32.134 20.8887 32.0724 20.1782C32.0098 19.4546 31.88 18.8585 31.5881 18.3239C31.178 17.573 30.5609 16.9559 29.8101 16.5459C29.2754 16.2539 28.6794 16.1242 27.9557 16.0615ZM19.8818 17.5676C20.2165 17.3849 20.6317 17.2773 21.2786 17.2213C21.933 17.1647 22.7685 17.1642 23.932 17.1642H25.202C26.3654 17.1642 27.2009 17.1647 27.8553 17.2213C28.5022 17.2773 28.9175 17.3849 29.2522 17.5676C29.8071 17.8707 30.2633 18.3268 30.5663 18.8818C30.7491 19.2164 30.8566 19.6317 30.9126 20.2786C30.9693 20.933 30.9698 21.7685 30.9698 22.932V25.3481V25.3737C30.9698 25.4068 30.9697 25.4232 30.9696 25.437C30.9598 26.3454 30.5835 27.1658 29.9802 27.7571C29.322 26.7532 28.1866 26.0893 26.8953 26.0893H22.2387C20.9473 26.0893 19.8119 26.7532 19.1537 27.7571C18.5504 27.1658 18.1741 26.3454 18.1643 25.437C18.1642 25.42 18.1641 25.3991 18.1641 25.3481V22.932C18.1641 21.7685 18.1647 20.933 18.2213 20.2786C18.2773 19.6317 18.3849 19.2164 18.5676 18.8818C18.8707 18.3268 19.3268 17.8707 19.8818 17.5676ZM26.8953 27.2535C27.7857 27.2535 28.5694 27.7151 29.0184 28.4132C28.6177 28.5927 28.1744 28.6946 27.7069 28.6996C27.6899 28.6998 27.6691 28.6998 27.6181 28.6998L27.606 28.6999C27.242 28.7018 26.8941 28.8499 26.6402 29.1107L26.6318 29.1194L26.3843 29.3766C25.8472 29.9346 25.4847 30.3093 25.1779 30.5519C24.8843 30.784 24.7132 30.8359 24.567 30.8359C24.4208 30.8359 24.2496 30.784 23.956 30.5519C23.6492 30.3093 23.2867 29.9346 22.7497 29.3766L22.5021 29.1194L22.4938 29.1107C22.2399 28.8499 21.8919 28.7018 21.5279 28.6999L21.5159 28.6998C21.4648 28.6998 21.444 28.6998 21.427 28.6996C20.9595 28.6946 20.5163 28.5927 20.1155 28.4132C20.5646 27.7151 21.3482 27.2535 22.2387 27.2535H26.8953Z" fill="white"/>
</g>
<defs>
<filter id="filter0_b_2817_7932" x="-7" y="-7" width="63" height="63" filterUnits="userSpaceOnUse" color-interpolation-filters="sRGB">
<feFlood flood-opacity="0" result="BackgroundImageFix"/>
<feGaussianBlur in="BackgroundImageFix" stdDeviation="3.5"/>
<feComposite in2="SourceAlpha" operator="in" result="effect1_backgroundBlur_2817_7932"/>
<feBlend mode="normal" in="SourceGraphic" in2="effect1_backgroundBlur_2817_7932" result="shape"/>
</filter>
</defs>
</svg>
