<svg width="22" height="20" viewBox="0 0 22 20" fill="none" xmlns="http://www.w3.org/2000/svg">
<path id="Vector" d="M10.0307 1.0622C9.15717 1.22318 8.44947 1.51065 7.74178 1.98209C5.88408 3.23544 4.84465 5.1902 4.84465 7.42092C4.85571 9.2032 5.36437 10.606 6.45908 11.8479C6.79081 12.2273 6.95668 12.5033 6.87928 12.5263C6.80187 12.5608 6.30427 12.8023 5.7735 13.0667C4.05955 13.9406 2.31243 15.4929 1.35041 16.9992C1.01868 17.5282 0.96339 17.6777 1.01868 18.0456C1.10714 18.632 1.52733 19 2.10234 19C2.59993 19 2.77686 18.8505 3.63936 17.6777C4.61244 16.3668 6.47014 15.0905 8.21726 14.527C11.9216 13.3427 16.0683 14.6765 18.4788 17.8386C18.8437 18.3216 19.2529 18.77 19.3856 18.8505C20.0822 19.2645 21 18.6895 21 17.8156C21 17.2177 19.4851 15.3434 18.136 14.2741C17.738 13.9636 16.8755 13.4232 16.2341 13.0897L15.062 12.4918L15.6259 11.8594C16.7317 10.629 17.2404 9.2147 17.2514 7.42092C17.2514 3.99434 14.7192 1.22318 11.4019 1.01621C10.9375 0.981712 10.3182 1.00471 10.0307 1.0622ZM11.9437 3.40791C13.2154 3.71838 14.3654 4.75325 14.8077 5.9836C15.1615 6.93798 15.0841 8.45579 14.6529 9.31819C14.2548 10.1346 13.5029 10.905 12.7288 11.2729C12.187 11.5374 11.9548 11.5834 11.048 11.5834C10.1413 11.5834 9.90909 11.5374 9.36727 11.2729C8.59322 10.905 7.8413 10.1346 7.44322 9.31819C7.01197 8.45579 6.93456 6.93798 7.28841 5.9836C7.71966 4.77625 8.88073 3.71838 10.0971 3.40791C10.8379 3.22394 11.2028 3.22394 11.9437 3.40791Z" fill="#999999" stroke="#333333" stroke-width="0.5"/>
</svg>
