<svg width="23" height="22" viewBox="0 0 23 22" fill="none" xmlns="http://www.w3.org/2000/svg">
<g id="Black">
<path id="Vector" d="M18.3102 0.197825C17.2193 0.626036 16.5668 1.65578 16.6381 2.83846C16.6891 3.62352 16.893 4.1129 17.4028 4.61248C17.9024 5.12226 18.3918 5.32617 19.1768 5.37714C21.6339 5.53008 22.9593 2.55299 21.2159 0.809556C20.4309 0.0245013 19.3501 -0.209995 18.3102 0.197825ZM20.0434 1.94126C20.5532 2.41025 20.4207 3.37882 19.8191 3.6541C18.8302 4.1027 17.9126 3.1953 18.3612 2.20634C18.6262 1.615 19.5438 1.47226 20.0434 1.94126Z" fill="#999999"/>
<path id="Vector_2" d="M5.97457 0.921066C3.59901 1.15556 2.12067 1.9712 1.02975 3.66366C0.20391 4.9279 0 6.49801 0 11.4122C0 15.052 0.101955 16.561 0.418016 17.764C0.9074 19.5788 2.43673 21.1082 4.25153 21.5976C4.68993 21.7097 5.61772 21.8626 6.31102 21.9238C7.91171 22.0666 15.0588 21.9952 15.9967 21.8219C18.8311 21.3019 20.4726 19.6706 21.0027 16.8566C21.0741 16.51 21.1455 14.4505 21.1761 12.0546L21.227 7.85401L20.9722 7.59913C20.6255 7.26267 20.1565 7.25248 19.8405 7.56854L19.5958 7.81323L19.5448 11.9832C19.4938 16.3775 19.4428 16.9382 18.9738 17.9985C18.668 18.6714 17.6892 19.5992 16.9959 19.8643C15.8438 20.2925 15.2525 20.3333 10.6033 20.3333C5.94398 20.3333 5.36284 20.2925 4.21074 19.8541C3.42569 19.5687 2.44692 18.5899 2.16145 17.8048C1.72304 16.6527 1.68226 16.0716 1.68226 11.4122C1.68226 6.76309 1.72304 6.17175 2.15125 5.01966C2.41634 4.32637 3.34413 3.3476 4.01703 3.04173C5.07736 2.57274 5.63812 2.52176 10.0324 2.47079L14.2023 2.41981L14.447 2.17512C14.7631 1.85905 14.7529 1.39006 14.4266 1.0638L14.1819 0.808916L10.532 0.819111C8.52344 0.829308 6.47415 0.880285 5.97457 0.921066Z" fill="#999999"/>
<path id="Vector_3" d="M15.5673 7.64757C15.4653 7.70875 14.9759 8.59575 14.4866 9.6255C13.4772 11.7054 13.3345 11.8685 12.529 11.8685C11.9785 11.8685 11.6318 11.6136 11.3056 10.9815C10.9997 10.3902 10.5205 9.89058 9.94956 9.59491C9.52135 9.37061 9.29705 9.31964 8.66493 9.31964C7.75753 9.31964 7.17638 9.55413 6.59524 10.1455C6.12624 10.6145 4.38281 14.1217 4.38281 14.5805C4.38281 15.1515 5.05572 15.4777 5.61647 15.1719C5.73881 15.1107 6.18742 14.295 6.71758 13.1939C7.72694 11.114 7.86968 10.9509 8.67512 10.9509C9.22568 10.9509 9.57233 11.2058 9.89858 11.8379C10.2044 12.4293 10.6938 12.9288 11.2546 13.2245C11.6726 13.4386 11.9173 13.4896 12.5392 13.4896C13.4466 13.4998 14.0176 13.2755 14.6089 12.674C15.0779 12.205 16.8213 8.69771 16.8213 8.23891C16.8213 7.66796 16.1076 7.33151 15.5673 7.64757Z" fill="#999999"/>
</g>
</svg>
