<svg width="14" height="13" viewBox="0 0 14 13" fill="none" xmlns="http://www.w3.org/2000/svg">
<path d="M3.96334 0.0439854C3.72952 0.128159 3.62976 0.280916 3.62976 0.545904V0.717367H3.49571C3.42089 0.717367 3.25254 0.745424 3.12473 0.7766C2.4264 0.957415 1.87461 1.46245 1.62832 2.15142C1.55974 2.3447 1.55662 2.40394 1.54103 3.5543L1.52233 4.75454L1.40698 5.39363C1.11705 6.98667 0.780362 8.09962 0.188036 9.39962C-0.0395424 9.90154 -0.0582475 10.2569 0.11945 10.6497C0.209858 10.8461 0.462376 11.1267 0.652544 11.2389C0.836477 11.3449 1.10458 11.4104 1.36022 11.4104C1.53792 11.4104 1.57844 11.4198 1.59091 11.4634C1.8029 12.1617 2.27988 12.6636 2.97509 12.913L3.17772 12.9848L7.58276 12.9941C12.5053 13.0035 12.1717 13.0159 12.6705 12.7759C12.8825 12.673 12.9823 12.5982 13.2005 12.38C13.506 12.0744 13.6588 11.8032 13.7617 11.3979C13.8209 11.1579 13.824 11.0425 13.824 6.85262C13.824 2.04231 13.8365 2.34159 13.5995 1.83967C13.4281 1.48427 13.0477 1.0977 12.6986 0.92624C12.4617 0.810892 12.0439 0.686192 11.8912 0.686192C11.8101 0.686192 11.8039 0.676839 11.7914 0.520964C11.7758 0.312091 11.6792 0.168686 11.5046 0.0907478C11.3394 0.0159283 11.224 0.0159283 11.0619 0.096983C10.8967 0.174921 10.8031 0.318326 10.7782 0.527199L10.7595 0.686192H7.71058H4.65854V0.567727C4.65854 0.433674 4.57125 0.227919 4.48396 0.149981C4.40914 0.0845137 4.21274 0.000340462 4.13792 0.000340462C4.10674 0.00345802 4.0288 0.0221634 3.96334 0.0439854ZM3.60482 1.85526C3.66405 2.35717 4.35926 2.47252 4.56813 2.01425C4.59931 1.94255 4.62736 1.84902 4.62736 1.79914V1.71497H7.69811H10.7689V1.81473C10.7689 1.93631 10.8624 2.14518 10.9434 2.22001C11.2801 2.51617 11.7976 2.29794 11.7976 1.85837V1.70562L11.8974 1.72744C12.0626 1.76173 12.312 1.88955 12.4492 2.01113C12.5178 2.07348 12.6206 2.22001 12.6768 2.33223L12.7796 2.53799L12.789 3.26437L12.7983 3.99075H7.67005H2.53864V3.28931C2.53864 2.47876 2.56358 2.36029 2.80674 2.09219C3.0125 1.86461 3.27437 1.72432 3.50818 1.71809C3.583 1.71497 3.59235 1.72744 3.60482 1.85526ZM12.7235 5.06941C12.7641 5.17852 12.5895 6.24782 12.4024 7.01473C12.1842 7.92504 11.9379 8.65142 11.5638 9.49938C11.33 10.0356 11.2178 10.1852 10.9621 10.3099L10.7844 10.3972L6.05206 10.4066L1.31657 10.4128L1.19811 10.3473C1.07964 10.2819 1.01106 10.179 1.01106 10.0761C1.01106 10.0449 1.11705 9.77684 1.24799 9.47756C1.71873 8.39578 2.15206 6.91185 2.35158 5.70226C2.4077 5.36869 2.45758 5.07876 2.46381 5.05693C2.47317 5.02888 3.52377 5.01952 7.58899 5.01952C12.284 5.01952 12.7048 5.02264 12.7235 5.06941ZM12.6986 11.2764C12.6051 11.5195 12.3494 11.7783 12.0938 11.8812L11.9067 11.956L7.80722 11.9653C5.01082 11.9716 3.63911 11.9622 3.49259 11.9404C3.21513 11.8967 3.00938 11.7845 2.81298 11.5663L2.65398 11.3948L6.81274 11.3792L10.9715 11.3636L11.1772 11.2826C11.5015 11.1579 11.6698 11.0457 11.9254 10.7869C12.125 10.5874 12.1873 10.497 12.3338 10.1915C12.4305 9.99818 12.5614 9.6989 12.6269 9.53056L12.7485 9.22192L12.7578 10.1572C12.7641 11.055 12.7609 11.1018 12.6986 11.2764Z" fill="#1B1D21"/>
<path d="M8.88266 6.03285C8.83278 6.06091 8.40257 6.46618 7.93182 6.93693L7.07451 7.79424L6.57571 7.29232C5.94909 6.66259 5.8805 6.60959 5.68098 6.60959C5.43158 6.60959 5.2383 6.75611 5.15724 7.0024C5.0793 7.23933 5.11983 7.29856 5.96156 8.14652C6.38554 8.57362 6.78458 8.94772 6.84693 8.98201C6.9841 9.0506 7.14621 9.05683 7.2865 8.9976C7.41432 8.94148 9.57163 6.77794 9.61528 6.66259C9.6901 6.45995 9.60904 6.20743 9.42199 6.0765C9.29417 5.98297 9.01672 5.96115 8.88266 6.03285Z" fill="#1B1D21"/>
</svg>
