<svg width="49" height="49" viewBox="0 0 49 49" fill="none" xmlns="http://www.w3.org/2000/svg">
<g filter="url(#filter0_b_2817_7929)">
<rect width="49" height="49" rx="15" fill="white" fill-opacity="0.03"/>
<rect x="0.5" y="0.5" width="48" height="48" rx="14.5" stroke="#D1D9E2" stroke-opacity="0.3"/>
<path d="M28.7188 17.625H27.7812C27.3843 17.625 27.0625 17.9468 27.0625 18.3438V18.3455V18.3473V18.3492V18.3511V18.353V18.355V18.357V18.3591V18.3612V18.3633V18.3655V18.3677V18.37V18.3723V18.3747V18.3771V18.3795V18.382V18.3845V18.3871V18.3897V18.3923V18.395V18.3977V18.4005V18.4033V18.4061V18.409V18.4119V18.4149V18.4179V18.4209V18.424V18.4271V18.4302V18.4334V18.4367V18.4399V18.4432V18.4466V18.4499V18.4533V18.4568V18.4603V18.4638V18.4674V18.4709V18.4746V18.4782V18.4819V18.4857V18.4894V18.4933V18.4971V18.501V18.5049V18.5088V18.5128V18.5168V18.5209V18.5249V18.529V18.5332V18.5374V18.5416V18.5458V18.5501V18.5544V18.5587V18.5631V18.5675V18.572V18.5764V18.5809V18.5855V18.59V18.5946V18.5992V18.6039V18.6086V18.6133V18.618V18.6228V18.6276V18.6324V18.6373V18.6422V18.6471V18.6521V18.6571V18.6621V18.6671V18.6722V18.6772V18.6824V18.6875V18.6927V18.6979V18.7031V18.7084V18.7137V18.719V18.7243V18.7297V18.735V18.7405V18.7459V18.7514V18.7568V18.7624V18.7679V18.7735V18.7791V18.7847V18.7903V18.796V18.8017V18.8074V18.8131V18.8189V18.8246V18.8304V18.8363V18.8421V18.848V18.8539V18.8598V18.8657V18.8717V18.8777V18.8837V18.8897V18.8958V18.9018V18.9079V18.914V18.9202V18.9263V18.9325V18.9387V18.9449V18.9511V18.9574V18.9636V18.9699V18.9762V18.9826V18.9889V18.9953V19.0017V19.0081V19.0145V19.0209V19.0274V19.0338V19.0403V19.0468V19.0534V19.0599V19.0665V19.073V19.0796V19.0862V19.0929V19.0995V19.1062V19.1128V19.1195V19.1262V19.1329V19.1396V19.1464V19.1531V19.1599V19.1667V19.1735V19.1803V19.1872V19.194V19.2008V19.2077V19.2146V19.2215V19.2284V19.2353V19.2422V19.2492V19.2561V19.2631V19.2701V19.2771V19.2841V19.2911V19.2981V19.3051V19.3122V19.3192V19.3263V19.3334V19.3405V19.3475V19.3547V19.3618V19.3689V19.376V19.3832V19.3903V19.3975V19.4046V19.4118V19.419V19.4262V19.4334V19.4406V19.4478V19.455V19.4622V19.4694V19.4767V19.4839V19.4912V19.4984V19.5057V19.513V19.5202V19.5275V19.5348V19.5421V19.5494V19.5567V19.564V19.5713V19.5786V19.5859V19.5932V19.6006V19.6079V19.6152V19.6225V19.6299V19.6372V19.6446V19.6519V19.6593V19.6666V19.674V19.6813V19.6887V19.696V19.7034V19.7107V19.7181V19.7254V19.7328V19.7402V19.7475V19.7549V19.7622V19.7696V19.777V19.7843V19.7917V19.799V19.8064V19.8138V19.8211V19.8285V19.8358V19.8432V19.8505V19.8578V19.8652V19.8725V19.8799V19.8872V19.8945V19.9019V19.9092V19.9165V19.9238V19.9311V19.9384V19.9457V19.953V19.9603V19.9676V19.9749V19.9822V19.9894V19.9967V20.004V20.0112V20.0185V20.0257V20.033V20.0402V20.0474V20.0546V20.0618V20.069V20.0762V20.0834V20.0906V20.0978V20.1049V20.1121V20.1192V20.1264V20.1335V20.1406V20.1477V20.1548V20.1619V20.169V20.1761V20.1831V20.1902V20.1972V20.2043V20.2113V20.2183V20.2253V20.2323V20.2393V20.2462V20.2532V20.2601V20.2671V20.274V20.2809V20.2878V20.2946V20.3015V20.3084V20.3152V20.322V20.3288V20.3356V20.3424V20.3492V20.356V20.3627V20.3694V20.3761V20.3828V20.3895V20.3962V20.4028V20.4095V20.4161V20.4227V20.4293V20.4359V20.4424V20.4489V20.4555V20.462V20.4685V20.4749V20.4814V20.4878V20.4942V20.5006V20.507V20.5134V20.5197V20.526V20.5324V20.5386V20.5449V20.5512V20.5574V20.5636V20.5698V20.576V20.5821V20.5882V20.5943V20.6004V20.6065V20.6125V20.6186V20.6246V20.6305V20.6365V20.6424V20.6484V20.6542V20.6601V20.666V20.6718V20.6776V20.6834V20.6891V20.6949V20.7006V20.7062V20.7119V20.7175V20.7232V20.7287V20.7343V20.7398V20.7453V20.7508V20.7563V20.7617V20.7671V20.7725V20.7779V20.7832V20.7885V20.7938V20.7991V20.8043V20.8095V20.8146V20.8198V20.8249V20.83V20.8351V20.8401V20.8451V20.8501V20.855V20.8599V20.8648V20.8697V20.8745V20.8793V20.8841V20.8888V20.8935V20.8982V20.9029V20.9075V20.9121V20.9166V20.9212V20.9256V20.9301V20.9345V20.9389V20.9433V20.9477V20.952V20.9562V20.9605V20.9647V20.9689V20.973V20.9771V20.9812V20.9852V20.9892V20.9932V20.9971V21.001V21.0049V21.0087V21.0126V21.0163V21.02V21.0237V21.0274V21.031V21.0346V21.0382V21.0417V21.0452V21.0486V21.052V21.0554V21.0587V21.062V21.0653V21.0685V21.0717V21.0748V21.0779V21.081V21.084V21.087V21.09V21.0929V21.0958V21.0986V21.1014V21.1042V21.1069V21.1096V21.1122V21.1148V21.1173V21.1199V21.1223V21.1248V21.1272V21.1295V21.1318V21.1341V21.1363V21.1385V21.1406V21.1427V21.1448V21.1468V21.1488V21.1507V21.1526V21.1545V21.1562C27.0625 21.5532 27.3843 21.875 27.7812 21.875C28.1782 21.875 28.5 21.5532 28.5 21.1562V20.9375H28.7188C29.6322 20.9375 30.375 20.1947 30.375 19.2812C30.375 18.3678 29.6322 17.625 28.7188 17.625ZM28.7188 19.5H28.5V19.4991V19.4972V19.4954V19.4936V19.4918V19.49V19.4882V19.4864V19.4846V19.4828V19.481V19.4792V19.4774V19.4756V19.4738V19.472V19.4703V19.4685V19.4667V19.4649V19.4631V19.4613V19.4595V19.4577V19.4559V19.4541V19.4524V19.4506V19.4488V19.447V19.4452V19.4434V19.4416V19.4399V19.4381V19.4363V19.4345V19.4327V19.431V19.4292V19.4274V19.4256V19.4239V19.4221V19.4203V19.4185V19.4168V19.415V19.4132V19.4114V19.4097V19.4079V19.4061V19.4043V19.4026V19.4008V19.399V19.3973V19.3955V19.3937V19.392V19.3902V19.3884V19.3867V19.3849V19.3831V19.3814V19.3796V19.3778V19.3761V19.3743V19.3726V19.3708V19.369V19.3673V19.3655V19.3638V19.362V19.3602V19.3585V19.3567V19.355V19.3532V19.3514V19.3497V19.3479V19.3462V19.3444V19.3426V19.3409V19.3391V19.3374V19.3356V19.3339V19.3321V19.3304V19.3286V19.3268V19.3251V19.3233V19.3216V19.3198V19.3181V19.3163V19.3146V19.3128V19.3111V19.3093V19.3075V19.3058V19.304V19.3023V19.3005V19.2988V19.297V19.2953V19.2935V19.2918V19.29V19.2883V19.2865V19.2848V19.283V19.2812V19.2795V19.2777V19.276V19.2742V19.2725V19.2707V19.269V19.2672V19.2655V19.2637V19.262V19.2602V19.2585V19.2567V19.255V19.2532V19.2514V19.2497V19.2479V19.2462V19.2444V19.2427V19.2409V19.2392V19.2374V19.2357V19.2339V19.2321V19.2304V19.2286V19.2269V19.2251V19.2234V19.2216V19.2199V19.2181V19.2163V19.2146V19.2128V19.2111V19.2093V19.2075V19.2058V19.204V19.2023V19.2005V19.1987V19.197V19.1952V19.1935V19.1917V19.1899V19.1882V19.1864V19.1847V19.1829V19.1811V19.1794V19.1776V19.1758V19.1741V19.1723V19.1705V19.1688V19.167V19.1652V19.1635V19.1617V19.1599V19.1582V19.1564V19.1546V19.1528V19.1511V19.1493V19.1475V19.1457V19.144V19.1422V19.1404V19.1386V19.1369V19.1351V19.1333V19.1315V19.1298V19.128V19.1262V19.1244V19.1226V19.1209V19.1191V19.1173V19.1155V19.1137V19.1119V19.1101V19.1084V19.1066V19.1048V19.103V19.1012V19.0994V19.0976V19.0958V19.094V19.0922V19.0905V19.0887V19.0869V19.0851V19.0833V19.0815V19.0797V19.0779V19.0761V19.0743V19.0725V19.0707V19.0689V19.0671V19.0653V19.0634V19.0625H28.7188C28.8391 19.0625 28.9375 19.1609 28.9375 19.2812C28.9375 19.4016 28.8391 19.5 28.7188 19.5Z" fill="white" stroke="#373737" stroke-width="0.5"/>
<path d="M28.25 15.75C26.0442 15.75 24.25 17.5442 24.25 19.75C24.25 21.9558 26.0442 23.75 28.25 23.75C30.4558 23.75 32.25 21.9558 32.25 19.75C32.25 17.5442 30.4558 15.75 28.25 15.75ZM28.25 22.3125C26.8373 22.3125 25.6875 21.1627 25.6875 19.75C25.6875 18.3373 26.8373 17.1875 28.25 17.1875C29.6627 17.1875 30.8125 18.3373 30.8125 19.75C30.8125 21.1627 29.6627 22.3125 28.25 22.3125Z" fill="white" stroke="#373737" stroke-width="0.5"/>
<path d="M21.9267 21.8207L21.9267 21.8207C21.8672 21.9397 21.7181 21.9794 21.6072 21.9055C21.0488 21.5332 20.3263 21.5332 19.7679 21.9055C19.6571 21.9793 19.5079 21.9398 19.4484 21.8207L19.4483 21.8207L19.1303 21.1847C19.6123 21.0638 20.1412 21 20.6875 21C21.2338 21 21.7627 21.0638 22.2447 21.1847L21.9267 21.8207ZM20.8098 23.1016C21.2621 23.4031 21.8223 23.4583 22.3125 23.2741V23.5625C22.3125 24.4583 21.5833 25.1875 20.6875 25.1875C19.7917 25.1875 19.0625 24.4583 19.0625 23.5625V23.2742C19.5556 23.4595 20.1162 23.4009 20.5652 23.1016L20.5652 23.1016C20.6398 23.0519 20.7352 23.0519 20.8098 23.1016L20.8098 23.1016ZM23.1692 25.3552C23.5342 24.8511 23.75 24.2315 23.75 23.5625V20.75C23.75 19.0623 22.3772 17.6875 20.6875 17.6875C18.9983 17.6875 17.625 19.0618 17.625 20.75V23.5625C17.625 24.2315 17.8408 24.8511 18.2058 25.3552C16.783 25.8111 15.75 27.1459 15.75 28.7188V31.5312C15.75 31.9282 16.0718 32.25 16.4688 32.25H24.9062C25.3032 32.25 25.625 31.9282 25.625 31.5312V28.7188C25.625 27.1459 24.592 25.8111 23.1692 25.3552ZM20.6875 19.125C21.1588 19.125 21.5843 19.327 21.8816 19.6495C21.4939 19.592 21.0932 19.5625 20.6875 19.5625C20.2818 19.5625 19.8811 19.592 19.4934 19.6495C19.7907 19.327 20.2162 19.125 20.6875 19.125ZM20.4442 26.625H20.9308L20.6875 27.1116L20.4442 26.625ZM24.1875 30.8125H23.75V29.6562C23.75 29.2593 23.4282 28.9375 23.0312 28.9375C22.6343 28.9375 22.3125 29.2593 22.3125 29.6562V30.8125H19.0625V29.6562C19.0625 29.2593 18.7407 28.9375 18.3438 28.9375C17.9468 28.9375 17.625 29.2593 17.625 29.6562V30.8125H17.1875V28.7188C17.1875 27.7095 17.9062 26.8645 18.8588 26.6685L20.0446 29.0401C20.1664 29.2837 20.4153 29.4375 20.6875 29.4375C20.9597 29.4375 21.2086 29.2837 21.3304 29.0401L22.5162 26.6685C23.4688 26.8645 24.1875 27.7095 24.1875 28.7188V30.8125Z" fill="white" stroke="#373737" stroke-width="0.5"/>
</g>
<defs>
<filter id="filter0_b_2817_7929" x="-7" y="-7" width="63" height="63" filterUnits="userSpaceOnUse" color-interpolation-filters="sRGB">
<feFlood flood-opacity="0" result="BackgroundImageFix"/>
<feGaussianBlur in="BackgroundImageFix" stdDeviation="3.5"/>
<feComposite in2="SourceAlpha" operator="in" result="effect1_backgroundBlur_2817_7929"/>
<feBlend mode="normal" in="SourceGraphic" in2="effect1_backgroundBlur_2817_7929" result="shape"/>
</filter>
</defs>
</svg>
