<svg width="18" height="18" viewBox="0 0 18 18" fill="none" xmlns="http://www.w3.org/2000/svg">
<path d="M17.2845 9.17439L10.1872 2.05821C9.75191 1.62291 9.12735 1.35794 8.50279 1.35794C8.50279 1.35794 8.50279 1.35794 8.48387 1.35794L3.75236 1.37687C3.33599 1.37687 2.93854 1.50935 2.57894 1.69861L1.04594 0.184529C0.799897 -0.0615096 0.421377 -0.0615096 0.175338 0.184529C-0.0706999 0.430567 -0.0517739 0.809088 0.194265 1.0362L1.72727 2.56921C1.51909 2.90988 1.40553 3.30732 1.40553 3.7237L1.3866 8.4552C1.3866 9.07976 1.63264 9.70432 2.08687 10.1396L9.18413 17.2747C9.63835 17.729 10.244 17.975 10.8685 17.975C11.4742 17.975 12.0798 17.7479 12.553 17.2747L17.3034 12.5243C17.7576 12.0701 18.0037 11.4834 18.0037 10.8399C17.9847 10.2153 17.7387 9.62862 17.2845 9.17439ZM16.4139 11.6537L11.6634 16.4041C11.2092 16.8394 10.49 16.8584 10.0547 16.4041L2.93854 9.30688C2.73035 9.09869 2.59787 8.79587 2.59787 8.49306L2.6168 3.76155C2.6168 3.68584 2.63572 3.59121 2.63572 3.51551L4.16873 5.04852C4.01732 5.33241 3.92269 5.65415 3.92269 5.99482C3.92269 7.13038 4.85007 8.05776 5.98563 8.05776C7.12119 8.05776 8.04857 7.13038 8.04857 5.99482C8.04857 4.85926 7.12119 3.93188 5.98563 3.93188C5.64496 3.93188 5.32322 4.02651 5.03933 4.17792L3.50632 2.64491C3.58202 2.62599 3.65773 2.62599 3.75236 2.62599L8.48387 2.60706C8.78668 2.60706 9.07057 2.72062 9.29769 2.94773L16.4139 10.0639C16.6221 10.2721 16.7545 10.5749 16.7545 10.8777C16.7545 11.1806 16.641 11.4455 16.4139 11.6537ZM6.00456 5.16208C6.45878 5.16208 6.8373 5.5406 6.8373 5.99482C6.8373 6.44905 6.45878 6.82757 6.00456 6.82757C5.55033 6.82757 5.17181 6.44905 5.17181 5.99482C5.17181 5.5406 5.55033 5.16208 6.00456 5.16208Z" fill="white"/>
<path d="M12.3628 8.17672C12.1167 7.93068 11.7382 7.93068 11.4922 8.17672L8.18013 11.4888C7.9341 11.7348 7.9341 12.1133 8.18013 12.3594C8.29369 12.4729 8.46402 12.5486 8.61543 12.5486C8.76684 12.5486 8.93718 12.4919 9.05073 12.3594L12.3628 9.04731C12.5899 8.80128 12.5899 8.42275 12.3628 8.17672Z" fill="white"/>
<path d="M13.4606 10.1557L10.1674 13.4488C9.9214 13.6949 9.9214 14.0734 10.1674 14.3194C10.281 14.433 10.4513 14.5087 10.6027 14.5087C10.7541 14.5087 10.9245 14.4519 11.038 14.3194L14.3501 11.0074C14.5961 10.7613 14.5961 10.3828 14.3501 10.1368C14.0851 9.90968 13.7066 9.90968 13.4606 10.1557Z" fill="white"/>
</svg>
