<svg width="49" height="49" viewBox="0 0 49 49" fill="none" xmlns="http://www.w3.org/2000/svg">
<g filter="url(#filter0_b_2817_8032)">
<rect width="49" height="49" rx="15" fill="white" fill-opacity="0.03"/>
<rect x="0.5" y="0.5" width="48" height="48" rx="14.5" stroke="#D1D9E2" stroke-opacity="0.3"/>
<path d="M24.4167 32V32.25H24.6667H32H32.25V32V27C32.25 25.9425 31.39 25.0833 30.3333 25.0833H26.3333C25.2767 25.0833 24.4167 25.9425 24.4167 27V32ZM27.3333 27.0833H27.0833V27.3333V28.6667V28.9167H27.3333H29.3333H29.5833V28.6667V27.3333V27.0833H29.3333H27.3333ZM23.1465 26.3306L22 27.6204L19.8195 25.1672L19.7449 25.0833H19.6327H19.3333C17.3573 25.0833 15.75 26.6906 15.75 28.6667V32V32.25H16H17.3333H17.5833V32V28.6667C17.5833 27.8308 18.1725 27.1291 18.9575 26.9568L21.8131 30.1694L22 30.3796L22.1869 30.1694L23.5202 28.6694L23.5833 28.5984V28.5033V26.4967V25.8391L23.1465 26.3306ZM22 24.25C24.3441 24.25 26.25 22.3441 26.25 20C26.25 17.6559 24.3441 15.75 22 15.75C19.6559 15.75 17.75 17.6559 17.75 20C17.75 22.3441 19.6559 24.25 22 24.25ZM22 17.5833C23.3326 17.5833 24.4167 18.6674 24.4167 20C24.4167 21.3326 23.3326 22.4167 22 22.4167C20.6674 22.4167 19.5833 21.3326 19.5833 20C19.5833 18.6674 20.6674 17.5833 22 17.5833ZM30.4167 30.4167H26.25V27C26.25 26.9544 26.2877 26.9167 26.3333 26.9167H30.3333C30.3789 26.9167 30.4167 26.9544 30.4167 27V30.4167Z" fill="white" stroke="#373737" stroke-width="0.5"/>
</g>
<defs>
<filter id="filter0_b_2817_8032" x="-7" y="-7" width="63" height="63" filterUnits="userSpaceOnUse" color-interpolation-filters="sRGB">
<feFlood flood-opacity="0" result="BackgroundImageFix"/>
<feGaussianBlur in="BackgroundImageFix" stdDeviation="3.5"/>
<feComposite in2="SourceAlpha" operator="in" result="effect1_backgroundBlur_2817_8032"/>
<feBlend mode="normal" in="SourceGraphic" in2="effect1_backgroundBlur_2817_8032" result="shape"/>
</filter>
</defs>
</svg>
