<svg width="49" height="49" viewBox="0 0 49 49" fill="none" xmlns="http://www.w3.org/2000/svg">
<g filter="url(#filter0_b_1208_3237)">
<rect width="49" height="49" rx="15" fill="white" fill-opacity="0.03"/>
<rect x="0.5" y="0.5" width="48" height="48" rx="14.5" stroke="#D1D9E2" stroke-opacity="0.3"/>
<path d="M14.2455 18.2456L14 18.4813V23.1072V27.7331L14.2455 27.9688C14.5598 28.2929 15.0116 28.2929 15.3259 27.9688C15.4634 27.8411 15.5714 27.6447 15.5714 27.5269C15.5714 27.3501 15.6304 27.3304 16.1116 27.3304C16.4161 27.3304 16.7991 27.3894 16.9759 27.4679C17.1527 27.5367 18.1054 28.2045 19.1071 28.951C21.1009 30.4438 22.0437 30.9545 23.2518 31.2001C24.725 31.5045 25.5304 31.4063 28.0446 30.6599C29.842 30.1099 30.1955 29.9331 30.608 29.3733C30.9125 28.9411 32.5134 27.6938 33.0438 27.4679C33.2205 27.3894 33.6134 27.3304 33.8982 27.3304C34.3696 27.3304 34.4286 27.3501 34.4286 27.5269C34.4286 27.6447 34.5366 27.8411 34.6741 27.9688C34.9884 28.2929 35.4402 28.2929 35.7545 27.9688L36 27.7331V23.1072V18.4813L35.7545 18.2456C35.4402 17.9215 34.9884 17.9215 34.6741 18.2456C34.4777 18.4322 34.4286 18.5795 34.4286 18.992V19.5027L33.6527 19.4438C33.0143 19.3947 32.6214 19.2769 31.3741 18.776C29.8911 18.1769 29.842 18.1572 28.9286 18.1572C28.0348 18.1474 27.9464 18.167 26.6795 18.6679L25.3536 19.1885L23.6054 18.6286C21.9161 18.0885 21.8375 18.0786 21.0027 18.1179C20.2268 18.1572 19.9813 18.226 18.6259 18.776C17.3786 19.2769 16.9857 19.3947 16.3473 19.4438L15.5714 19.5027V18.992C15.5714 18.3733 15.2768 18.0001 14.7857 18.0001C14.5991 18.0001 14.3929 18.0885 14.2455 18.2456ZM22.3482 19.8858L22.9866 20.092L22.3875 20.3572C20.2955 21.3001 20.4134 24.0108 22.5938 24.9831C23.3893 25.3367 24.0964 25.2876 25.717 24.7474L27.0723 24.3054L28.2902 26.0242C29.0268 27.0456 29.5179 27.8313 29.5179 27.9688C29.5179 28.4795 29.1741 28.676 27.4062 29.2063C25.4518 29.7858 24.6268 29.884 23.5464 29.6483C22.5054 29.4322 21.9259 29.1081 19.8929 27.5858C18.9009 26.8394 17.8795 26.1322 17.6339 26.0242C17.3589 25.9063 16.8875 25.8081 16.3866 25.7786L15.5714 25.7295V23.392V21.0447H16.0429C16.917 21.0447 17.683 20.8483 19.1562 20.259C20.8455 19.5813 21.3071 19.5322 22.3482 19.8858ZM30.8438 20.259C32.3464 20.8581 33.0929 21.0447 33.967 21.0447H34.4286V23.392V25.7394L33.6723 25.7786C32.8277 25.8179 32.0616 26.1126 31.3839 26.6429C31.1777 26.8001 30.9714 26.9376 30.9321 26.9376C30.883 26.9277 30.2446 26.0831 29.5179 25.0519C27.7991 22.6161 27.7991 22.6161 27.4259 22.6161C27.2589 22.6161 26.375 22.8617 25.4518 23.1661C23.8902 23.6769 23.7527 23.7063 23.3893 23.5983C22.633 23.3724 22.2107 22.5867 22.5741 22.0956C22.6625 21.9581 26.4438 20.4161 28.192 19.7876C28.8205 19.5617 29.292 19.6501 30.8438 20.259Z" fill="white"/>
</g>
<defs>
<filter id="filter0_b_1208_3237" x="-7" y="-7" width="63" height="63" filterUnits="userSpaceOnUse" color-interpolation-filters="sRGB">
<feFlood flood-opacity="0" result="BackgroundImageFix"/>
<feGaussianBlur in="BackgroundImageFix" stdDeviation="3.5"/>
<feComposite in2="SourceAlpha" operator="in" result="effect1_backgroundBlur_1208_3237"/>
<feBlend mode="normal" in="SourceGraphic" in2="effect1_backgroundBlur_1208_3237" result="shape"/>
</filter>
</defs>
</svg>
