<svg width="344" height="306" viewBox="0 0 344 306" fill="none" xmlns="http://www.w3.org/2000/svg">
<path d="M30.803 28.2592C44.252 12.1812 62.438 -0.262783 84.115 0.00421691C121.105 0.459217 141.1 33.2062 162.338 58.4722C173.35 71.5742 185.825 84.2142 202.166 90.3672C226.683 99.5992 253.98 94.2082 277.863 85.6392C288.561 81.8012 301.235 76.4032 313.283 79.1592C349.914 87.5392 346.097 132.245 340.046 160.548C331.876 198.763 318.6 239.452 291.687 268.816C227.262 339.108 111.308 296.018 53.193 239.928C48.921 235.805 44.828 231.497 40.98 226.975C31.027 215.278 22.484 202.375 15.819 188.53C-2.92797 149.585 -5.50597 102.238 10.737 61.9892C15.457 50.2912 22.291 38.4352 30.803 28.2592Z" fill="#DFDFDF"/>
<path d="M303.598 274.312H262.509V261.235H303.598V274.312Z" fill="#C2C2C2"/>
<path d="M75.316 25.6644L54.6302 25.322L44.4076 25.1817L34.2271 25.1315L34.76 25.6644L34.8114 12.5867L34.2282 13.1699L54.7728 13.0904L65.0444 12.9911L75.316 12.8637L75.0391 12.5867L75.316 25.6644ZM75.316 25.6644L75.593 12.5867L75.5989 12.312L75.316 12.3085L65.0444 12.1811L54.7728 12.0818L34.2282 12.0023L33.6415 12L33.6439 12.5855L33.6953 25.6632L33.6976 26.1985L34.2282 26.1961L44.5922 26.1459L54.9141 26.0056L75.316 25.6644Z" fill="#C2C2C2"/>
<path d="M100.526 204.027C100.526 204.027 69.475 156.174 53.4477 167.674C37.4206 179.174 89.3154 202.308 100.432 220.31L100.526 204.027Z" fill="#A0A04D"/>
<path d="M97.6104 207.768C97.6104 207.768 38.4681 158.625 23.6874 178.849C8.9068 199.073 80.6814 206.425 101.225 223.741L97.6104 207.768Z" fill="#7D9960"/>
<path d="M121.135 136.82C121.135 136.82 101.546 66.6962 77.6406 74.5974C53.7353 82.4986 108.134 130.454 114.815 156.619L121.135 136.82Z" fill="white"/>
<path d="M114.795 157.298L114.634 156.666C112.014 146.407 101.99 132.726 92.2952 119.496C80.3919 103.251 69.1484 87.9064 71.8148 79.5713C72.5851 77.1632 74.5256 75.4301 77.582 74.4199C80.9675 73.3009 84.4627 73.6811 87.9704 75.5501C92.3356 77.8762 96.8058 82.548 101.257 89.4356C104.809 94.9331 108.36 101.85 111.811 109.994C117.684 123.854 121.279 136.642 121.315 136.769L121.33 136.823L114.795 157.298ZM81.4159 74.1683C80.1646 74.1683 78.9245 74.3704 77.6994 74.7753C74.7216 75.7594 72.9134 77.3657 72.1713 79.6854C69.563 87.839 80.7518 103.108 92.5974 119.275C102.12 132.27 111.961 145.7 114.831 155.955L120.939 136.816C120.679 135.897 117.135 123.517 111.464 110.136C108.022 102.013 104.481 95.1158 100.941 89.6371C96.5254 82.8045 92.1023 78.1762 87.7942 75.8805C85.6537 74.74 83.5195 74.1683 81.4159 74.1683Z" fill="#31313B"/>
<path d="M126.722 148.148C126.722 148.148 80.1117 77.5487 58.1011 94.1323C36.0904 110.716 109.324 141.338 125.436 166.12L126.722 148.148Z" fill="#7D9960"/>
<path d="M132.316 133.887C132.316 133.887 59.9725 90.0335 47.1787 114.442C34.3849 138.851 113.678 135.179 138.847 150.679L132.316 133.887Z" fill="#C6C46F"/>
<path d="M215.713 95.4293C215.713 95.4293 222.144 22.906 247.091 26.3011C272.038 29.6963 227.329 86.7928 225.547 113.739L215.713 95.4293Z" fill="white"/>
<path d="M225.691 114.403L215.521 95.4692L215.526 95.4133C215.538 95.2814 216.734 82.052 219.972 67.3511C221.875 58.7132 224.101 51.2636 226.588 45.209C229.704 37.6235 233.244 32.2129 237.11 29.1276C240.216 26.6485 243.583 25.6355 247.116 26.1161C250.306 26.5502 252.531 27.8992 253.729 30.1258C257.875 37.8326 249.628 54.9745 240.896 73.123C233.786 87.9033 226.433 103.187 225.734 113.752L225.691 114.403ZM215.904 95.3908L225.41 113.089C226.356 102.482 233.574 87.4792 240.559 72.9606C249.248 54.9005 257.455 37.842 253.399 30.3031C252.245 28.158 250.174 26.9098 247.066 26.487C243.638 26.0201 240.367 27.0072 237.344 29.4201C233.528 32.4653 230.026 37.8253 226.934 45.3511C224.456 51.3856 222.236 58.8145 220.338 67.4315C217.211 81.6237 215.992 94.4393 215.904 95.3908Z" fill="#31313B"/>
<path d="M209.856 107.1C209.856 107.1 242.765 29.1663 267.438 41.4438C292.111 53.7215 225.714 97.2222 214.407 124.533L209.856 107.1Z" fill="#7D9960"/>
<path d="M107.218 224.656C107.218 224.656 82.7777 191.573 44.4935 198.021C6.2093 204.469 0.782697 250.079 33.4067 255.669C66.0306 261.26 95.3761 235.329 107.349 243.153C119.323 250.978 107.218 224.656 107.218 224.656Z" fill="#C6C46F"/>
<path d="M24.4688 235.211C24.4076 235.202 24.3478 235.178 24.2956 235.138C24.1356 235.013 24.1064 234.783 24.2305 234.623C24.2856 234.552 29.8811 227.446 41.4036 222.335C48.1627 219.337 55.6148 217.596 63.5531 217.159C73.4644 216.614 84.1649 218.113 95.3572 221.615C95.5504 221.675 95.6581 221.881 95.5977 222.074C95.5371 222.267 95.332 222.374 95.1382 222.315C84.0415 218.843 73.4386 217.354 63.6243 217.89C55.7793 218.318 48.4168 220.033 41.7409 222.988C30.3716 228.021 24.8645 235.003 24.8102 235.073C24.7264 235.18 24.5948 235.229 24.4688 235.211Z" fill="#A0A04D"/>
<path d="M231.229 212.334C231.229 212.334 313.209 164.335 325.398 187.069C337.587 209.803 263.338 207.061 239.916 221.79L231.229 212.334Z" fill="#7D9960"/>
<path d="M240.995 215.648C240.995 215.648 271.336 188.596 307.061 202.587C342.787 216.577 338.799 261.794 306.11 260.594C273.422 259.395 250.288 228.369 237.122 233.513C223.955 238.656 240.995 215.648 240.995 215.648Z" fill="#C6C46F"/>
<path d="M318.899 242.615C318.774 242.606 318.656 242.533 318.597 242.412C318.559 242.333 314.646 234.464 304.668 227.294C298.809 223.083 292.035 219.933 284.533 217.93C275.148 215.425 264.591 214.717 253.154 215.828C252.955 215.848 252.778 215.702 252.758 215.503C252.739 215.303 252.885 215.126 253.084 215.107C264.62 213.986 275.273 214.703 284.75 217.238C292.34 219.268 299.196 222.462 305.126 226.731C315.237 234.008 319.21 242.014 319.249 242.094C319.337 242.274 319.261 242.491 319.082 242.579C319.023 242.607 318.96 242.619 318.899 242.615Z" fill="#A0A04D"/>
<path d="M184.889 268.703C245.043 268.703 293.807 219.939 293.807 159.785C293.807 99.6307 245.043 50.8662 184.889 50.8662C124.735 50.8662 75.9702 99.6307 75.9702 159.785C75.9702 219.939 124.735 268.703 184.889 268.703Z" fill="white"/>
<path d="M184.889 269.028C170.141 269.028 155.835 266.139 142.366 260.443C129.358 254.941 117.675 247.064 107.642 237.031C97.6097 226.999 89.7329 215.316 84.2307 202.307C78.5343 188.839 75.6458 174.532 75.6458 159.785C75.6458 145.037 78.5341 130.731 84.2307 117.263C89.7329 104.254 97.6097 92.571 107.642 82.5385C117.675 72.506 129.358 64.6291 142.366 59.127C155.835 53.4305 170.141 50.542 184.889 50.542C199.636 50.542 213.943 53.4305 227.411 59.127C240.42 64.6291 252.102 72.506 262.135 82.5385C272.168 92.571 280.044 104.254 285.547 117.263C291.243 130.731 294.131 145.037 294.131 159.785C294.131 174.532 291.243 188.839 285.547 202.307C280.044 215.316 272.168 226.999 262.135 237.031C252.102 247.064 240.42 254.941 227.411 260.443C213.943 266.139 199.636 269.028 184.889 269.028ZM184.889 51.1904C170.228 51.1904 156.007 54.0616 142.619 59.7242C129.688 65.1937 118.074 73.0237 108.101 82.9969C98.1278 92.9701 90.2976 104.584 84.8281 117.515C79.1655 130.903 76.2943 145.124 76.2943 159.785C76.2943 174.445 79.1655 188.667 84.8281 202.054C90.2974 214.986 98.1276 226.599 108.101 236.573C118.074 246.546 129.688 254.376 142.619 259.845C156.007 265.508 170.228 268.379 184.889 268.379C199.549 268.379 213.771 265.508 227.158 259.845C240.09 254.376 251.703 246.546 261.676 236.573C271.65 226.599 279.48 214.986 284.949 202.054C290.612 188.667 293.483 174.445 293.483 159.785C293.483 145.124 290.612 130.903 284.949 117.515C279.48 104.584 271.65 92.9703 261.676 82.9971C251.703 73.0239 240.09 65.1937 227.158 59.7243C213.771 54.0616 199.549 51.1904 184.889 51.1904Z" fill="#31313B"/>
<path d="M184.889 257.099C238.633 257.099 282.202 213.53 282.202 159.786C282.202 106.041 238.633 62.4727 184.889 62.4727C131.144 62.4727 87.5754 106.041 87.5754 159.786C87.5754 213.53 131.144 257.099 184.889 257.099Z" fill="#F7D78B"/>
<path d="M259.007 56.1113H249L184.154 150.043L142.226 102.827H132.219L133.404 110.66L107.315 133.828L180.991 228.486H190.772L296.664 83.7115L259.007 56.1113Z" fill="#31313B"/>
<path d="M180.918 227.981L97.3081 133.828L132.219 102.827L177.439 153.749L249 56.1113L286.657 83.7115L180.918 227.981Z" fill="white"/>
<path d="M180.942 228.497L180.676 228.197L96.8501 133.801L132.246 102.369L132.461 102.612L177.414 153.234L248.93 55.6582L287.11 83.6417L286.918 83.9032L180.942 228.497ZM97.7657 133.856L180.894 227.466L286.204 83.7814L249.07 56.5646L177.463 154.265L132.191 103.285L97.7657 133.856Z" fill="#31313B"/>
<path d="M236.308 100.721L236.613 98.1644L240.842 97.1562L249.962 102.749L236.308 100.721ZM236.915 98.4337L236.676 100.44L248.4 102.182L240.785 97.5112L236.915 98.4337Z" fill="#31313A"/>
<path d="M250.213 102.987L236.996 94.4102L224.452 94.0078L250.213 102.987Z" fill="#FFD47D"/>
<path d="M241.096 93.8246L250.213 102.986L244.701 88.0137L241.096 93.8246Z" fill="#FFD47D"/>
<path d="M241.096 93.8242L240.848 96.9089L250.213 102.986L241.096 93.8242Z" fill="#31313A"/>
<path d="M172.515 113.746C170.475 113.264 168.985 112.253 168.291 110.736C167.367 108.718 168.064 106.048 170.253 103.218C172.731 100.013 177.089 96.6199 182.853 93.4053C189.126 89.9079 195.851 87.6288 202.841 86.6307C204.647 86.3729 206.473 86.1999 208.311 86.1119C209.906 81.9279 210.74 78.1296 210.987 75.3594L211.318 75.3889C211.071 78.1531 210.246 81.9316 208.672 86.0957C212.409 85.9394 216.2 86.133 220 86.6765C229.866 88.087 236.464 91.4169 236.53 91.4505L236.378 91.7463C236.313 91.713 229.756 88.4053 219.941 87.0035C216.116 86.4573 212.301 86.2675 208.543 86.4338C207.409 89.3719 205.903 92.4922 203.967 95.5757C200.396 101.262 194.104 108.783 184.412 112.319C179.773 114.011 175.539 114.461 172.515 113.746ZM208.18 86.4509C206.399 86.5407 204.63 86.7107 202.88 86.9607C195.933 87.9534 189.249 90.2193 183.015 93.6955C177.289 96.8883 172.967 100.251 170.516 103.421C168.406 106.149 167.723 108.697 168.593 110.598C169.35 112.253 171.242 113.337 173.923 113.65C176.83 113.99 180.418 113.422 184.298 112.007C193.902 108.504 200.142 101.042 203.685 95.399C205.58 92.3814 207.06 89.3298 208.18 86.4509Z" fill="#31313A"/>
<path d="M220.449 52.3273C220.449 52.3273 225.059 40.9022 221.303 39.195C217.547 37.4877 218.742 47.902 218.742 47.902C218.742 47.902 214.986 40.7315 211.742 41.5851C208.498 42.4387 212.937 48.5576 220.449 52.3273Z" fill="#7D9960"/>
<path d="M101.853 83.764C101.853 83.764 106.983 70.1673 101.853 69.1851C96.7225 68.2028 97.5775 75.5559 101.853 83.764Z" fill="#7D9960"/>
<path d="M319.099 204.205C319.099 204.205 330.937 209.275 332.006 204.772C333.075 200.268 326.532 200.74 319.099 204.205Z" fill="#7D9960"/>
</svg>
