<svg width="22" height="23" viewBox="0 0 22 23" fill="none" xmlns="http://www.w3.org/2000/svg">
<g id="Black">
<path id="Vector" d="M9.68538 0.158179C8.26127 0.501929 6.84698 1.61175 6.14966 2.92782C5.41306 4.34211 5.2952 6.10014 5.85502 7.38675C6.13984 8.03496 6.93538 8.13318 7.25948 7.55371C7.38716 7.32782 7.38716 7.20996 7.2202 6.53229C6.76841 4.59746 7.57377 2.84925 9.31216 1.98496C10.0193 1.64121 10.1077 1.62157 11.0014 1.62157C11.8952 1.62157 11.9836 1.64121 12.6907 1.98496C14.3898 2.82961 15.2541 4.66621 14.7925 6.46354C14.5863 7.28854 14.5961 7.43586 14.8809 7.71086C15.1657 8.0055 15.6077 8.03496 15.8925 7.77961C16.1675 7.55371 16.4131 6.77782 16.472 5.943C16.7568 2.2305 13.2997 -0.715928 9.68538 0.158179Z" fill="#999999"/>
<path id="Vector_2" d="M11.3521 4.71087L10.4485 5.5948L10.1146 5.25105C9.68244 4.80909 9.15208 4.7698 8.84762 5.16266C8.49405 5.61445 8.57262 5.84034 9.39762 6.68498C10.4878 7.81445 10.4976 7.80462 12.0985 6.20373C13.1985 5.11355 13.3557 4.9073 13.3557 4.6323C13.3557 4.20016 12.9824 3.82695 12.5601 3.82695C12.3048 3.82695 12.0985 3.97427 11.3521 4.71087Z" fill="#999999"/>
<path id="Vector_3" d="M0.245536 9.67334L0 9.90905V14.5349V19.1608L0.245536 19.3966C0.559821 19.7207 1.01161 19.7207 1.32589 19.3966C1.46339 19.2689 1.57143 19.0724 1.57143 18.9546C1.57143 18.7778 1.63036 18.7582 2.11161 18.7582C2.41607 18.7582 2.79911 18.8171 2.97589 18.8957C3.15268 18.9644 4.10536 19.6323 5.10714 20.3787C7.10089 21.8716 8.04375 22.3823 9.25179 22.6278C10.725 22.9323 11.5304 22.8341 14.0446 22.0876C15.842 21.5376 16.1955 21.3608 16.608 20.801C16.9125 20.3689 18.5134 19.1216 19.0438 18.8957C19.2205 18.8171 19.6134 18.7582 19.8982 18.7582C20.3696 18.7582 20.4286 18.7778 20.4286 18.9546C20.4286 19.0724 20.5366 19.2689 20.6741 19.3966C20.9884 19.7207 21.4402 19.7207 21.7545 19.3966L22 19.1608V14.5349V9.90905L21.7545 9.67334C21.4402 9.34923 20.9884 9.34923 20.6741 9.67334C20.4777 9.85994 20.4286 10.0073 20.4286 10.4198V10.9305L19.6527 10.8715C19.0143 10.8224 18.6214 10.7046 17.3741 10.2037C15.8911 9.60459 15.842 9.58494 14.9286 9.58494C14.0348 9.57512 13.9464 9.59476 12.6795 10.0957L11.3536 10.6162L9.60536 10.0564C7.91607 9.51619 7.8375 9.50637 7.00268 9.54566C6.22679 9.58494 5.98125 9.65369 4.62589 10.2037C3.37857 10.7046 2.98571 10.8224 2.34732 10.8715L1.57143 10.9305V10.4198C1.57143 9.80101 1.27679 9.4278 0.785714 9.4278C0.599107 9.4278 0.392857 9.51619 0.245536 9.67334ZM8.34821 11.3135L8.98661 11.5198L8.3875 11.7849C6.29554 12.7278 6.41339 15.4385 8.59375 16.4108C9.38929 16.7644 10.0964 16.7153 11.717 16.1751L13.0723 15.7332L14.2902 17.4519C15.0268 18.4733 15.5179 19.2591 15.5179 19.3966C15.5179 19.9073 15.1741 20.1037 13.4062 20.6341C11.4518 21.2135 10.6268 21.3117 9.54643 21.076C8.50536 20.8599 7.92589 20.5358 5.89286 19.0135C4.90089 18.2671 3.87946 17.5599 3.63393 17.4519C3.35893 17.3341 2.8875 17.2358 2.38661 17.2064L1.57143 17.1573V14.8198V12.4724H2.04286C2.91696 12.4724 3.68304 12.276 5.15625 11.6867C6.84554 11.009 7.30714 10.9599 8.34821 11.3135ZM16.8438 11.6867C18.3464 12.2858 19.0929 12.4724 19.967 12.4724H20.4286V14.8198V17.1671L19.6723 17.2064C18.8277 17.2457 18.0616 17.5403 17.3839 18.0707C17.1777 18.2278 16.9714 18.3653 16.9321 18.3653C16.883 18.3555 16.2446 17.5108 15.5179 16.4796C13.7991 14.0439 13.7991 14.0439 13.4259 14.0439C13.2589 14.0439 12.375 14.2894 11.4518 14.5939C9.89018 15.1046 9.75268 15.1341 9.38929 15.026C8.63304 14.8001 8.21071 14.0144 8.57411 13.5233C8.6625 13.3858 12.4438 11.8439 14.192 11.2153C14.8205 10.9894 15.292 11.0778 16.8438 11.6867Z" fill="#999999"/>
</g>
</svg>
