<svg width="15" height="15" viewBox="0 0 15 15" fill="none" xmlns="http://www.w3.org/2000/svg">
<g id="Black">
<path id="Vector" d="M6.3778 0.100752C5.44026 0.327055 4.50919 1.05769 4.05012 1.9241C3.56519 2.85517 3.4876 4.01254 3.85615 4.85956C4.04366 5.2863 4.56738 5.35096 4.78076 4.96948C4.86481 4.82076 4.86481 4.74317 4.75489 4.29704C4.45747 3.02328 4.98766 1.87237 6.1321 1.30339C6.59764 1.07708 6.65583 1.06415 7.24421 1.06415C7.8326 1.06415 7.89079 1.07708 8.35633 1.30339C9.4749 1.85944 10.0439 3.06854 9.74 4.25178C9.60422 4.7949 9.61068 4.89189 9.79819 5.07293C9.9857 5.2669 10.2767 5.2863 10.4642 5.11819C10.6452 4.96948 10.8069 4.45868 10.8456 3.90909C11.0332 1.46503 8.7572 -0.474701 6.3778 0.100752Z" fill="white"/>
<path id="Vector_2" d="M7.47521 3.09918L6.88036 3.6811L6.66052 3.4548C6.37603 3.16384 6.02688 3.13797 5.82644 3.3966C5.59367 3.69403 5.6454 3.84274 6.18852 4.3988C6.90622 5.14236 6.91269 5.1359 7.96661 4.08198C8.69078 3.36428 8.79423 3.22849 8.79423 3.04745C8.79423 2.76296 8.54853 2.51726 8.2705 2.51726C8.10239 2.51726 7.96661 2.61425 7.47521 3.09918Z" fill="white"/>
<path id="Vector_3" d="M0.161644 6.36549L0 6.52066V9.56604V12.6114L0.161644 12.7666C0.368549 12.98 0.665974 12.98 0.872879 12.7666C0.9634 12.6825 1.03452 12.5532 1.03452 12.4756C1.03452 12.3593 1.07332 12.3463 1.39014 12.3463C1.59058 12.3463 1.84274 12.3851 1.95913 12.4368C2.07551 12.4821 2.70269 12.9218 3.3622 13.4132C4.67475 14.396 5.29546 14.7322 6.09075 14.8938C7.06062 15.0943 7.59081 15.0296 9.24605 14.5382C10.4293 14.1761 10.6621 14.0598 10.9336 13.6912C11.1341 13.4067 12.188 12.5856 12.5371 12.4368C12.6535 12.3851 12.9121 12.3463 13.0996 12.3463C13.41 12.3463 13.4488 12.3593 13.4488 12.4756C13.4488 12.5532 13.5199 12.6825 13.6104 12.7666C13.8173 12.98 14.1148 12.98 14.3217 12.7666L14.4833 12.6114V9.56604V6.52066L14.3217 6.36549C14.1148 6.15211 13.8173 6.15211 13.6104 6.36549C13.4811 6.48833 13.4488 6.58532 13.4488 6.85688V7.1931L12.938 7.15431C12.5177 7.12198 12.2591 7.04439 11.4379 6.71464C10.4616 6.32022 10.4293 6.30729 9.82797 6.30729C9.23958 6.30083 9.18139 6.31376 8.34731 6.64351L7.47443 6.9862L6.32352 6.61765C5.21141 6.26203 5.15968 6.25557 4.61009 6.28143C4.0993 6.30729 3.93765 6.35255 3.04538 6.71464C2.22422 7.04439 1.96559 7.12198 1.54532 7.15431L1.03452 7.1931V6.85688C1.03452 6.44954 0.84055 6.20384 0.517262 6.20384C0.394412 6.20384 0.258631 6.26203 0.161644 6.36549ZM5.4959 7.44527L5.91618 7.58105L5.52177 7.75563C4.14456 8.37634 4.22215 10.1609 5.65755 10.801C6.18128 11.0338 6.64681 11.0014 7.71366 10.6458L8.60594 10.3549L9.40769 11.4864C9.89263 12.1588 10.2159 12.6761 10.2159 12.7666C10.2159 13.1028 9.98961 13.2321 8.82578 13.5813C7.53909 13.9628 6.99596 14.0274 6.28473 13.8722C5.59936 13.73 5.21788 13.5166 3.87946 12.5144C3.22642 12.023 2.55398 11.5575 2.39233 11.4864C2.21129 11.4088 1.90094 11.3441 1.57118 11.3247L1.03452 11.2924V9.75355V8.20823H1.34488C1.92033 8.20823 2.42466 8.07891 3.39453 7.69097C4.50664 7.24483 4.81053 7.2125 5.4959 7.44527ZM11.0888 7.69097C12.0781 8.08538 12.5695 8.20823 13.1449 8.20823H13.4488V9.75355V11.2989L12.9509 11.3247C12.3949 11.3506 11.8905 11.5446 11.4444 11.8937C11.3086 11.9972 11.1728 12.0877 11.147 12.0877C11.1147 12.0812 10.6944 11.5252 10.2159 10.8463C9.08441 9.24275 9.08441 9.24275 8.83871 9.24275C8.72879 9.24275 8.14687 9.4044 7.53909 9.60484C6.51103 9.94106 6.42051 9.96045 6.18128 9.88933C5.68341 9.74062 5.40538 9.22336 5.64462 8.90007C5.70281 8.80955 8.19213 7.79442 9.34304 7.38061C9.75685 7.2319 10.0672 7.29009 11.0888 7.69097Z" fill="white"/>
</g>
</svg>
