<svg width="49" height="49" viewBox="0 0 49 49" fill="none" xmlns="http://www.w3.org/2000/svg">
<g id="Cancel Button" filter="url(#filter0_b_1114_12591)">
<rect width="49" height="49" rx="15" fill="white" fill-opacity="0.03"/>
<rect x="0.5" y="0.5" width="48" height="48" rx="14.5" stroke="#D1D9E2" stroke-opacity="0.3"/>
<g id="Black">
<path id="Vector" d="M23.5822 17.0741C21.9687 17.4204 20.732 18.6 20.3096 20.1945C20.184 20.674 20.1612 21.6025 20.2639 22.0972C20.6102 23.7563 21.7671 24.9703 23.4186 25.4117C23.8714 25.5335 24.8076 25.5563 25.2947 25.4536C27.0185 25.092 28.2895 23.8286 28.6472 22.1162C28.7994 21.3856 28.7271 20.4761 28.4531 19.7264C27.966 18.3907 26.7635 17.3747 25.3137 17.0703C24.8532 16.9751 24.0351 16.9751 23.5822 17.0741ZM25.3137 18.3679C26.1585 18.6305 26.8206 19.2089 27.1897 20.0042C27.3876 20.4266 27.4637 20.7805 27.4637 21.2714C27.4637 22.4168 26.8282 23.4405 25.8084 23.9466C25.3441 24.1749 24.9636 24.2663 24.4689 24.2663C23.978 24.2663 23.6241 24.1902 23.2017 23.9923C22.5586 23.6955 22.0829 23.235 21.7709 22.6109C21.5425 22.1467 21.4512 21.7661 21.4512 21.2714C21.4512 20.7539 21.5311 20.4152 21.7556 19.9471C22.0753 19.2926 22.4901 18.8778 23.1446 18.5582C23.8486 18.2157 24.6021 18.151 25.3137 18.3679Z" fill="white"/>
<path id="Vector_2" d="M19.9538 24.8753C19.7407 24.9438 19.2041 25.5336 18.8122 26.1386C18.3936 26.7856 18.0473 27.6304 17.876 28.4333C17.7581 28.9889 17.7276 30.0011 17.819 30.2827C17.9179 30.5795 18.0511 30.7926 18.3213 31.0819C19.0062 31.8049 20.361 32.3719 22.0962 32.6535C22.9981 32.8019 23.6222 32.8399 24.8095 32.8171C26.1452 32.7905 26.8454 32.703 27.9071 32.429C29.6537 31.9761 30.7649 31.2417 31.0846 30.3246C31.1569 30.1305 31.1607 30.043 31.1454 29.4608C31.1302 29.0117 31.0998 28.6997 31.0427 28.4333C30.7877 27.2384 30.1979 26.0854 29.4102 25.2482C29.0829 24.8981 28.9802 24.8372 28.7328 24.8372C28.3789 24.8372 28.1164 25.0922 28.1126 25.4347C28.1126 25.6706 28.1582 25.7581 28.455 26.0778C29.3151 27.0025 29.8326 28.2012 29.8897 29.3923C29.9163 29.9593 29.8973 30.0163 29.57 30.317C29.003 30.8383 27.7092 31.2873 26.2479 31.4776C25.2319 31.6108 23.6602 31.6108 22.6785 31.4814C21.2058 31.2835 19.9272 30.8383 19.364 30.3322C19.0519 30.0468 19.0177 29.9745 19.0177 29.5635C19.0177 28.4181 19.5694 27.0481 20.3952 26.1463C20.7453 25.7695 20.7681 25.7277 20.7681 25.4803C20.7681 25.2482 20.6844 25.0808 20.5018 24.9438C20.3876 24.8638 20.106 24.8258 19.9538 24.8753Z" fill="white"/>
</g>
</g>
<defs>
<filter id="filter0_b_1114_12591" x="-7" y="-7" width="63" height="63" filterUnits="userSpaceOnUse" color-interpolation-filters="sRGB">
<feFlood flood-opacity="0" result="BackgroundImageFix"/>
<feGaussianBlur in="BackgroundImageFix" stdDeviation="3.5"/>
<feComposite in2="SourceAlpha" operator="in" result="effect1_backgroundBlur_1114_12591"/>
<feBlend mode="normal" in="SourceGraphic" in2="effect1_backgroundBlur_1114_12591" result="shape"/>
</filter>
</defs>
</svg>
