<svg width="44" height="41" viewBox="0 0 44 41" fill="none" xmlns="http://www.w3.org/2000/svg">
<g id="Group 1000003976">
<rect id="Rectangle 34624223" width="44" height="41" rx="7.44" fill="#333333"/>
<g id="Group">
<path id="Vector" d="M27.0909 15.3961H25.1818V14.7565C25.1818 12.9657 23.7818 11.5586 22 11.5586C20.2182 11.5586 18.8182 12.9657 18.8182 14.7565V15.3961H16.9091C15.8273 15.3961 15 16.2275 15 17.3148V19.2335C15 19.6173 15.2545 19.8731 15.6364 19.8731H16.2727V27.548C16.2727 28.6353 17.1 29.4668 18.1818 29.4668H25.8182C26.9 29.4668 27.7273 28.6353 27.7273 27.548V19.8731H28.3636C28.7455 19.8731 29 19.6173 29 19.2335V17.3148C29 16.2275 28.1727 15.3961 27.0909 15.3961ZM20.0909 14.7565C20.0909 13.6692 20.9182 12.8377 22 12.8377C23.0818 12.8377 23.9091 13.6692 23.9091 14.7565V15.3961H20.0909V14.7565ZM26.4545 27.548C26.4545 27.9318 26.2 28.1876 25.8182 28.1876H18.1818C17.8 28.1876 17.5455 27.9318 17.5455 27.548V19.8731H26.4545V27.548ZM27.7273 18.5939H27.0909H16.2727V17.3148C16.2727 16.931 16.5273 16.6752 16.9091 16.6752H19.4545H24.5455H27.0909C27.4727 16.6752 27.7273 16.931 27.7273 17.3148V18.5939Z" fill="#FDFDFD"/>
<path id="Vector_2" d="M20.0895 26.2661C20.4713 26.2661 20.7259 26.0103 20.7259 25.6265V22.4286C20.7259 22.0449 20.4713 21.7891 20.0895 21.7891C19.7077 21.7891 19.4531 22.0449 19.4531 22.4286V25.6265C19.4531 26.0103 19.7077 26.2661 20.0895 26.2661Z" fill="#FDFDFD"/>
<path id="Vector_3" d="M23.9098 26.2661C24.2916 26.2661 24.5462 26.0103 24.5462 25.6265V22.4286C24.5462 22.0449 24.2916 21.7891 23.9098 21.7891C23.528 21.7891 23.2734 22.0449 23.2734 22.4286V25.6265C23.2734 26.0103 23.528 26.2661 23.9098 26.2661Z" fill="#FDFDFD"/>
</g>
</g>
</svg>
