<svg width="18" height="25" viewBox="0 0 18 25" fill="none" xmlns="http://www.w3.org/2000/svg">
<path d="M15.5455 5.92217H13.0909V5.09985C13.0909 2.79737 11.2909 0.988281 9 0.988281C6.70909 0.988281 4.90909 2.79737 4.90909 5.09985V5.92217H2.45455C1.06364 5.92217 0 6.99117 0 8.38911V10.8561C0 11.3494 0.327273 11.6784 0.818182 11.6784H1.63636V21.5461C1.63636 22.9441 2.7 24.0131 4.09091 24.0131H13.9091C15.3 24.0131 16.3636 22.9441 16.3636 21.5461V11.6784H17.1818C17.6727 11.6784 18 11.3494 18 10.8561V8.38911C18 6.99117 16.9364 5.92217 15.5455 5.92217ZM6.54545 5.09985C6.54545 3.70192 7.60909 2.63291 9 2.63291C10.3909 2.63291 11.4545 3.70192 11.4545 5.09985V5.92217H6.54545V5.09985ZM14.7273 21.5461C14.7273 22.0395 14.4 22.3684 13.9091 22.3684H4.09091C3.6 22.3684 3.27273 22.0395 3.27273 21.5461V11.6784H14.7273V21.5461ZM16.3636 10.0337H15.5455H1.63636V8.38911C1.63636 7.89572 1.96364 7.56679 2.45455 7.56679H5.72727H12.2727H15.5455C16.0364 7.56679 16.3636 7.89572 16.3636 8.38911V10.0337Z" fill="#333333"/>
<path d="M6.54474 19.9007C7.03565 19.9007 7.36293 19.5718 7.36293 19.0784V14.9668C7.36293 14.4735 7.03565 14.1445 6.54474 14.1445C6.05384 14.1445 5.72656 14.4735 5.72656 14.9668V19.0784C5.72656 19.5718 6.05384 19.9007 6.54474 19.9007Z" fill="#333333"/>
<path d="M11.4549 19.9007C11.9458 19.9007 12.2731 19.5718 12.2731 19.0784V14.9668C12.2731 14.4735 11.9458 14.1445 11.4549 14.1445C10.964 14.1445 10.6367 14.4735 10.6367 14.9668V19.0784C10.6367 19.5718 10.964 19.9007 11.4549 19.9007Z" fill="#333333"/>
</svg>
