<svg width="49" height="49" viewBox="0 0 49 49" fill="none" xmlns="http://www.w3.org/2000/svg">
<g filter="url(#filter0_b_2817_7857)">
<rect width="49" height="49" rx="15" fill="white" fill-opacity="0.03"/>
<rect x="0.5" y="0.5" width="48" height="48" rx="14.5" stroke="#D1D9E2" stroke-opacity="0.3"/>
<path d="M32.757 20.3033L32.0449 20.7495C31.7013 20.4117 31.3129 20.1355 30.8947 19.9251L31.0821 19.1074L31.1379 18.8638L30.8943 18.8079L29.3015 18.4424L29.0576 18.3865L29.0018 18.6304L28.8151 19.4476C28.7736 19.4484 28.7322 19.4498 28.6911 19.4518V17.5996C28.6911 16.5794 27.8617 15.75 26.84 15.75H16.6008C15.5797 15.75 14.75 16.5794 14.75 17.5996V30.4001C14.75 31.4209 15.5797 32.25 16.6008 32.25H26.84C27.8617 32.25 28.6911 31.4209 28.6911 30.4001V29.468L28.7137 29.3699L28.9017 28.554C29.3701 28.5506 29.8417 28.473 30.2988 28.3184L30.7436 29.0305L30.8761 29.2426L31.0882 29.11L32.4731 28.244L32.6848 28.1116L32.5527 27.8997L32.1087 27.1878C32.4466 26.845 32.7231 26.4543 32.9318 26.0357L33.7486 26.2243L33.9924 26.2805L34.0485 26.0368L34.4153 24.444L34.4713 24.2004L34.2278 24.1443L33.4111 23.9561C33.4075 23.4866 33.329 23.0145 33.1762 22.5583L33.8884 22.1154L34.101 21.9831L33.9684 21.7707L33.1018 20.3828L32.9692 20.1704L32.757 20.3033ZM30.2789 26.2767L30.2787 26.2768C29.7867 26.5846 29.233 26.7037 28.6905 26.6669V21.3249C29.6421 21.2664 30.5943 21.7146 31.1339 22.5784L31.134 22.5786C31.9196 23.834 31.5356 25.492 30.2789 26.2767ZM27.5507 30.4001C27.5507 30.7912 27.2318 31.1097 26.84 31.1097H16.6008C16.2089 31.1097 15.89 30.7911 15.89 30.4001V17.5996C15.89 17.209 16.209 16.89 16.6008 16.89H26.84C27.2317 16.89 27.5507 17.209 27.5507 17.5996V30.4001Z" fill="white" stroke="#373737" stroke-width="0.5"/>
<path d="M25.5856 18.5156H17.8482C17.546 18.5156 17.3047 18.76 17.3047 19.0597C17.3047 19.3604 17.5475 19.6033 17.8482 19.6033H25.5856C25.8874 19.6033 26.1294 19.3602 26.1294 19.0597C26.1294 18.7599 25.888 18.5156 25.5856 18.5156Z" fill="white" stroke="#373737" stroke-width="0.5"/>
<path d="M25.5856 20.1621H17.8482C17.546 20.1621 17.3047 20.4065 17.3047 20.7062C17.3047 21.0072 17.5478 21.2495 17.8482 21.2495H25.5856C25.8871 21.2495 26.1294 21.007 26.1294 20.7062C26.1294 20.4064 25.888 20.1621 25.5856 20.1621Z" fill="white" stroke="#373737" stroke-width="0.5"/>
<path d="M26.1294 22.3533C26.1301 22.0535 25.8877 21.8086 25.5856 21.8086H17.8482C17.5454 21.8086 17.3047 22.0545 17.3047 22.353C17.3047 22.6545 17.5478 22.8966 17.8482 22.8966H25.5856C25.8875 22.8966 26.1292 22.6531 26.1294 22.3533ZM26.1294 22.3533C26.1294 22.3535 26.1294 22.3537 26.1294 22.3539L25.8794 22.353H26.1294C26.1294 22.3531 26.1294 22.3532 26.1294 22.3533Z" fill="white" stroke="#373737" stroke-width="0.5"/>
<path d="M26.1294 23.9998C26.1301 23.6978 25.8869 23.4551 25.5856 23.4551H17.8482C17.5458 23.4551 17.3047 23.6997 17.3047 23.9995C17.3047 24.3 17.5477 24.5427 17.8482 24.5427H25.5856C25.8875 24.5427 26.1292 24.2991 26.1294 23.9998ZM26.1294 23.9998C26.1294 24 26.1294 24.0002 26.1294 24.0004L25.8794 23.9995H26.1294C26.1294 23.9996 26.1294 23.9997 26.1294 23.9998Z" fill="white" stroke="#373737" stroke-width="0.5"/>
<path d="M26.1294 25.6457C26.1301 25.3448 25.8869 25.1016 25.5856 25.1016H17.8482C17.5461 25.1016 17.3047 25.346 17.3047 25.6454C17.3047 25.9453 17.547 26.1893 17.8482 26.1893H25.5856C25.8881 26.1893 26.1292 25.9445 26.1294 25.6457ZM26.1294 25.6457C26.1294 25.6459 26.1294 25.6461 26.1294 25.6463L25.8794 25.6454H26.1294C26.1294 25.6455 26.1294 25.6456 26.1294 25.6457Z" fill="white" stroke="#373737" stroke-width="0.5"/>
<path d="M26.1294 27.2927C26.1301 26.9926 25.8876 26.748 25.5856 26.748H17.8482C17.5455 26.748 17.3047 26.9935 17.3047 27.2924C17.3047 27.5923 17.547 27.8363 17.8482 27.8363H25.5856C25.8881 27.8363 26.1292 27.5915 26.1294 27.2927ZM26.1294 27.2927C26.1294 27.2929 26.1294 27.2931 26.1294 27.2933L25.8794 27.2924H26.1294C26.1294 27.2925 26.1294 27.2926 26.1294 27.2927Z" fill="white" stroke="#373737" stroke-width="0.5"/>
<path d="M21.6349 28.3945H17.856C17.5538 28.3945 17.3125 28.6389 17.3125 28.9384C17.3125 29.2383 17.5549 29.4822 17.856 29.4822H21.6349C21.9372 29.4822 22.1773 29.2356 22.1773 28.9384C22.1773 28.6396 21.9367 28.3945 21.6349 28.3945Z" fill="white" stroke="#373737" stroke-width="0.5"/>
</g>
<defs>
<filter id="filter0_b_2817_7857" x="-7" y="-7" width="63" height="63" filterUnits="userSpaceOnUse" color-interpolation-filters="sRGB">
<feFlood flood-opacity="0" result="BackgroundImageFix"/>
<feGaussianBlur in="BackgroundImageFix" stdDeviation="3.5"/>
<feComposite in2="SourceAlpha" operator="in" result="effect1_backgroundBlur_2817_7857"/>
<feBlend mode="normal" in="SourceGraphic" in2="effect1_backgroundBlur_2817_7857" result="shape"/>
</filter>
</defs>
</svg>
