<svg width="59" height="48" viewBox="0 0 59 48" fill="none" xmlns="http://www.w3.org/2000/svg">
<path opacity="0.4" d="M47.6849 14.409C46.0337 6.07896 38.7322 0 30.016 0C24.0669 0 18.6297 2.83662 15.2539 7.64399C6.61182 8.15097 0 14.3753 0 22.2294C0 30.3624 6.56547 36.9787 14.6355 36.9787C15.7818 36.9787 16.7108 36.0536 16.7108 34.9122C16.7108 33.7708 15.7818 32.8457 14.6355 32.8457C8.8545 32.8457 4.15055 28.0831 4.15055 22.2294C4.15055 16.2517 9.41551 11.7432 16.3967 11.7432C17.1196 11.7432 17.7906 11.3685 18.1676 10.7541C20.7112 6.60729 25.1405 4.13231 30.0154 4.13231C37.1951 4.13231 43.1276 9.49006 43.8152 16.5947C43.9176 17.6548 44.812 18.4628 45.8808 18.4628C51.4958 18.4628 54.8481 21.1176 54.8481 25.5654C54.8488 29.5117 51.5691 32.8457 47.6877 32.8457H41.5345C40.3883 32.8457 39.4592 33.7708 39.4592 34.9122C39.4592 36.0536 40.3883 36.9787 41.5345 36.9787H47.6877C53.9253 36.9787 59 31.8586 59 25.5661C58.9993 19.2701 54.6184 15.0297 47.6849 14.409ZM29.9448 19.8577C29.1666 19.0821 27.7886 19.0821 27.0097 19.8577L19.695 27.1421C18.885 27.9494 18.885 29.2575 19.695 30.0641C20.5051 30.8715 21.8194 30.8715 22.6302 30.0641L26.3158 26.394V45.9335C26.3158 47.0749 27.2449 48 28.3911 48C29.5374 48 30.4664 47.0749 30.4664 45.9335V26.2218L34.325 30.0641C34.7304 30.4678 35.2616 30.6696 35.7922 30.6696C36.3228 30.6696 36.8541 30.4678 37.2594 30.0641C38.0702 29.2575 38.0702 27.9494 37.2594 27.1421L29.9448 19.8577Z" fill="#333333"/>
</svg>
