<svg width="33" height="33" viewBox="0 0 33 33" fill="none" xmlns="http://www.w3.org/2000/svg">
<rect width="33" height="33" rx="16.5" fill="#464646"/>
<path d="M20.896 10.3002C20.4704 10.382 20.072 10.5621 19.75 10.8241C19.4089 11.0969 14.7811 15.7521 14.5928 16.0086C14.2681 16.4506 14.0307 17.0155 13.9461 17.5557C13.8915 17.8914 13.8833 19.7005 13.9352 19.8724C13.9788 20.0225 14.178 20.2353 14.3226 20.2899C14.4263 20.3308 14.5682 20.3336 15.556 20.3226C16.6611 20.3145 16.6748 20.3117 16.9531 20.2408C17.4825 20.1043 17.8999 19.8997 18.3092 19.5777C18.6149 19.3403 23.4174 14.5187 23.5401 14.3277C23.693 14.0903 23.8021 13.8584 23.8812 13.5991C23.9495 13.3754 23.9549 13.3236 23.9549 12.8679C23.9549 12.4122 23.9495 12.3603 23.8812 12.1366C23.6029 11.2361 22.9398 10.5867 22.0476 10.3438C21.7692 10.2674 21.1853 10.2456 20.896 10.3002ZM21.6928 11.6863C22.2658 11.8282 22.6697 12.4504 22.5769 13.0452C22.5278 13.3699 22.4323 13.5227 22.023 13.9375L21.6546 14.3141L20.7869 13.4463L19.9192 12.5786L20.2848 12.2212C20.5877 11.9265 20.6832 11.8501 20.8497 11.7709C21.1389 11.6345 21.3818 11.6099 21.6928 11.6863ZM19.136 16.8326C18.2901 17.6785 17.5207 18.4317 17.4224 18.5081C17.2014 18.6772 16.9203 18.8137 16.642 18.8873C16.4701 18.9337 16.3118 18.9474 15.848 18.9583L15.2668 18.9747V18.6036C15.2668 17.7549 15.3786 17.302 15.6979 16.8517C15.7525 16.7753 16.5029 16.0059 17.3651 15.1381L18.9368 13.5637L19.8018 14.4287L20.6696 15.2964L19.136 16.8326Z" fill="white"/>
<path d="M11.5963 11.1487C11.1761 11.2415 10.9087 11.3943 10.5867 11.719C10.3029 12.0028 10.1473 12.2784 10.0546 12.6468C10 12.8569 10 12.9633 10 17.5611C10 22.159 10 22.2654 10.0546 22.4755C10.2074 23.084 10.6794 23.6325 11.247 23.8644C11.6318 24.02 11.4789 24.0145 15.7712 24.0145C20.2326 24.0145 19.9324 24.0281 20.4099 23.7962C20.9693 23.5261 21.3759 23.0103 21.5042 22.4073C21.5505 22.1808 21.5587 19.7796 21.5123 19.6104C21.4769 19.4794 21.2886 19.2748 21.1467 19.2093C21.0021 19.1411 20.721 19.1411 20.5737 19.2093C20.4482 19.2666 20.3063 19.3976 20.238 19.5231C20.1971 19.5995 20.1889 19.7441 20.178 20.8629C20.1644 22.1126 20.1644 22.1181 20.1016 22.2408C20.0116 22.4128 19.9406 22.4837 19.7823 22.5574L19.6459 22.6229H15.763C12.5295 22.6229 11.8664 22.6174 11.79 22.5847C11.6536 22.5274 11.4981 22.3773 11.4353 22.2408C11.378 22.1181 11.378 22.1126 11.3698 17.6184C11.3616 12.6004 11.3507 12.9333 11.5499 12.7123C11.6045 12.6495 11.7054 12.5731 11.7736 12.5431C11.8937 12.4858 11.9374 12.4858 14.0521 12.4721C16.4424 12.4558 16.2733 12.4694 16.467 12.2757C16.6007 12.1447 16.658 11.9974 16.658 11.79C16.658 11.5826 16.6007 11.4352 16.4643 11.3015C16.2623 11.0969 16.4097 11.1078 13.9566 11.1105C12.2239 11.1105 11.7245 11.1187 11.5963 11.1487Z" fill="white"/>
</svg>
