<svg width="54" height="56" viewBox="0 0 54 56" fill="none" xmlns="http://www.w3.org/2000/svg">
<rect x="0.5" y="1" width="53" height="54" rx="26.5" stroke="#EFF0F4"/>
<path d="M31.4523 20.5358C30.9658 20.6311 30.5105 20.8408 30.1425 21.1457C29.7527 21.4633 24.4635 26.8822 24.2484 27.1808C23.8772 27.6953 23.6059 28.3529 23.5092 28.9818C23.4469 29.3725 23.4375 31.4784 23.4968 31.6785C23.5467 31.8532 23.7743 32.101 23.9396 32.1645C24.0581 32.2121 24.2203 32.2153 25.3492 32.2026C26.6123 32.1931 26.6279 32.1899 26.9459 32.1073C27.551 31.9485 28.0281 31.7103 28.4959 31.3355C28.8452 31.0591 34.3339 25.4465 34.4743 25.2241C34.6489 24.9478 34.7737 24.6778 34.8641 24.376C34.9421 24.1156 34.9483 24.0552 34.9483 23.5248C34.9483 22.9943 34.9421 22.934 34.8641 22.6735C34.546 21.6253 33.7882 20.8693 32.7684 20.5867C32.4503 20.4977 31.7829 20.4723 31.4523 20.5358ZM32.363 22.1494C33.0179 22.3146 33.4794 23.0388 33.3734 23.7312C33.3173 24.1092 33.2081 24.2871 32.7403 24.7699L32.3193 25.2083L31.3276 24.1982L30.3359 23.1881L30.7538 22.772C31.0999 22.4289 31.2091 22.34 31.3993 22.2479C31.7299 22.0891 32.0074 22.0605 32.363 22.1494ZM29.4408 28.14C28.4741 29.1247 27.5946 30.0014 27.4823 30.0903C27.2297 30.2873 26.9085 30.4461 26.5904 30.5318C26.394 30.5858 26.2131 30.6017 25.6829 30.6144L25.0186 30.6335V30.2015C25.0186 29.2136 25.1465 28.6864 25.5114 28.1623C25.5738 28.0733 26.4314 27.1776 27.4169 26.1675L29.2132 24.3348L30.2018 25.3417L31.1935 26.3517L29.4408 28.14Z" fill="#333333" stroke="white" stroke-width="0.3"/>
<path d="M20.8244 21.5233C20.3441 21.6313 20.0385 21.8092 19.6705 22.1872C19.3462 22.5175 19.1684 22.8383 19.0624 23.2671C19 23.5117 19 23.6356 19 28.9877C19 34.3399 19 34.4638 19.0624 34.7084C19.237 35.4167 19.7765 36.0551 20.4252 36.3251C20.8649 36.5062 20.6903 36.4998 25.5959 36.4998C30.6948 36.4998 30.3517 36.5157 30.8975 36.2457C31.5368 35.9313 32.0015 35.3309 32.148 34.6289C32.2011 34.3653 32.2104 31.5701 32.1574 31.3732C32.1169 31.2207 31.9017 30.9825 31.7395 30.9063C31.5742 30.8268 31.253 30.8268 31.0846 30.9063C30.9411 30.973 30.779 31.1254 30.701 31.2715C30.6542 31.3605 30.6449 31.5288 30.6324 32.8311C30.6168 34.2859 30.6168 34.2923 30.5451 34.4352C30.4422 34.6353 30.3611 34.7179 30.1802 34.8036L30.0243 34.8799H25.5865C21.8909 34.8799 21.1331 34.8735 21.0458 34.8354C20.8899 34.7687 20.7121 34.594 20.6404 34.4352C20.5749 34.2923 20.5749 34.2859 20.5655 29.0544C20.5562 23.2131 20.5437 23.6006 20.7714 23.3433C20.8337 23.2703 20.9491 23.1814 21.0271 23.1464C21.1643 23.0797 21.2142 23.0797 23.6311 23.0638C26.363 23.0448 26.1697 23.0606 26.3911 22.8351C26.5439 22.6827 26.6094 22.5111 26.6094 22.2697C26.6094 22.0283 26.5439 21.8568 26.388 21.7012C26.1572 21.4629 26.3256 21.4756 23.522 21.4788C21.5417 21.4788 20.971 21.4884 20.8244 21.5233Z" fill="#333333" stroke="white" stroke-width="0.3"/>
</svg>
