<svg width="49" height="49" viewBox="0 0 49 49" fill="none" xmlns="http://www.w3.org/2000/svg">
<g filter="url(#filter0_b_2817_7976)">
<rect width="49" height="49" rx="15" fill="white" fill-opacity="0.03"/>
<rect x="0.5" y="0.5" width="48" height="48" rx="14.5" stroke="#D1D9E2" stroke-opacity="0.3"/>
<path d="M20.7725 24.0267H19.9032C19.8628 24.0278 19.8235 24.0136 19.7931 23.9869C19.7628 23.9602 19.7437 23.923 19.7397 23.8827V22.5957C19.7437 22.5554 19.7628 22.5182 19.7931 22.4915C19.8235 22.4648 19.8628 22.4506 19.9032 22.4517H20.7725C20.8549 22.4456 20.9319 22.4086 20.9881 22.3481C21.0443 22.2875 21.0755 22.208 21.0755 22.1254C21.0755 22.0429 21.0443 21.9633 20.9881 21.9028C20.9319 21.8423 20.8549 21.8053 20.7725 21.7992H19.3948C19.3137 21.8014 19.2366 21.8345 19.1791 21.8917C19.1216 21.9488 19.0881 22.0257 19.0854 22.1068V24.3716C19.0881 24.4527 19.1216 24.5296 19.1791 24.5867C19.2366 24.6439 19.3137 24.677 19.3948 24.6792H20.7725C20.8549 24.6731 20.9319 24.6361 20.9881 24.5756C21.0443 24.5151 21.0755 24.4355 21.0755 24.353C21.0755 24.2704 21.0443 24.1909 20.9881 24.1303C20.9319 24.0698 20.8549 24.0328 20.7725 24.0267ZM23.2223 18.537H26.1787C26.2236 18.5403 26.2686 18.5344 26.3111 18.5195C26.3535 18.5046 26.3925 18.4811 26.4254 18.4505C26.4584 18.4199 26.4847 18.3828 26.5026 18.3415C26.5206 18.3003 26.5299 18.2558 26.5299 18.2108C26.5299 18.1658 26.5206 18.1213 26.5026 18.0801C26.4847 18.0388 26.4584 18.0018 26.4254 17.9711C26.3925 17.9405 26.3535 17.917 26.3111 17.9021C26.2686 17.8872 26.2236 17.8813 26.1787 17.8846H23.2223C23.1774 17.8813 23.1324 17.8872 23.0899 17.9021C23.0475 17.917 23.0085 17.9405 22.9756 17.9711C22.9426 18.0018 22.9163 18.0388 22.8983 18.0801C22.8804 18.1213 22.8711 18.1658 22.8711 18.2108C22.8711 18.2558 22.8804 18.3003 22.8983 18.3415C22.9163 18.3828 22.9426 18.4199 22.9756 18.4505C23.0085 18.4811 23.0475 18.5046 23.0899 18.5195C23.1324 18.5344 23.1774 18.5403 23.2223 18.537ZM28.1751 21.3086C27.7649 21.3107 27.3645 21.4344 27.0245 21.664C26.6846 21.8936 26.4203 22.2189 26.2652 22.5987C26.1101 22.9785 26.071 23.3957 26.153 23.7977C26.235 24.1997 26.4343 24.5683 26.7257 24.8571C27.0172 25.1458 27.3877 25.3416 27.7904 25.4198C28.1932 25.498 28.61 25.455 28.9883 25.2963C29.3667 25.1376 29.6894 24.8703 29.9158 24.5282C30.1423 24.1861 30.2622 23.7846 30.2604 23.3743C30.2539 22.8251 30.0315 22.3005 29.6413 21.9139C29.2511 21.5274 28.7244 21.3099 28.1751 21.3086ZM28.1751 24.8072C27.848 24.8071 27.5313 24.6929 27.2794 24.4842C27.0276 24.2755 26.8564 23.9854 26.7956 23.6641C27.1468 23.7312 27.5095 23.7045 27.8472 23.5869C28.1849 23.4692 28.4856 23.2647 28.7191 22.9939C28.7476 22.9629 28.7697 22.9267 28.7842 22.8872C28.7987 22.8477 28.8052 22.8058 28.8035 22.7638C28.8018 22.7218 28.7918 22.6805 28.7741 22.6424C28.7564 22.6042 28.7314 22.5699 28.7005 22.5414C28.6695 22.5129 28.6333 22.4908 28.5938 22.4764C28.5543 22.4619 28.5124 22.4553 28.4704 22.4571C28.4284 22.4588 28.3871 22.4688 28.3489 22.4865C28.3108 22.5041 28.2765 22.5292 28.248 22.5601C28.0722 22.7583 27.846 22.9052 27.5933 22.985C27.3407 23.0649 27.0711 23.0747 26.8134 23.0134C26.8909 22.7115 27.0669 22.4441 27.3136 22.2534C27.5602 22.0628 27.8634 21.9599 28.1751 21.961C28.5523 21.961 28.9141 22.1108 29.1808 22.3775C29.4475 22.6443 29.5973 23.006 29.5973 23.3832C29.5973 23.7604 29.4475 24.1221 29.1808 24.3889C28.9141 24.6556 28.5523 24.8054 28.1751 24.8054V24.8072ZM29.4444 19.353V17.3975C29.444 17.212 29.4067 17.0285 29.3348 16.8575C29.2628 16.6866 29.1577 16.5316 29.0254 16.4016C28.8931 16.2716 28.7363 16.1692 28.5641 16.1003C28.3919 16.0314 28.2077 15.9973 28.0222 16.0002H20.8454C20.805 15.9995 20.7648 16.0072 20.7275 16.0228C20.6902 16.0384 20.6565 16.0616 20.6285 16.0908L17.1086 19.5148C17.0735 19.5432 17.0455 19.5793 17.0267 19.6203C17.0079 19.6613 16.9988 19.7061 17.0001 19.7512V30.6045C17.0071 30.977 17.16 31.3319 17.426 31.5929C17.692 31.8539 18.0497 32.0001 18.4223 32H28.0222C28.3949 32.0001 28.7526 31.8539 29.0186 31.5929C29.2845 31.3319 29.4375 30.977 29.4444 30.6045V28.6223C29.8622 28.5138 30.9324 28.0783 31.1866 27.7529C31.8805 27.1983 32.4073 26.4623 32.7085 25.6266C33.0098 24.7909 33.0737 23.8881 32.8933 23.0183C32.7129 22.1485 32.2952 21.3456 31.6864 20.6987C31.0777 20.0517 30.3017 19.586 29.4444 19.353ZM20.4099 17.1966V18.681C20.4104 18.8752 20.3347 19.0618 20.1991 19.2008C20.0634 19.3397 19.8787 19.4199 19.6845 19.4241H18.1254L20.4099 17.1966ZM28.792 30.6045C28.7869 30.8046 28.7033 30.9946 28.5593 31.1336C28.4153 31.2727 28.2224 31.3495 28.0222 31.3476H18.4223C18.2234 31.3476 18.0323 31.27 17.8899 31.1311C17.7474 30.9923 17.6648 30.8033 17.6597 30.6045V20.0766H19.6845C20.0522 20.0733 20.4036 19.9247 20.662 19.6632C20.9205 19.4018 21.065 19.0487 21.0641 18.681V16.6526H28.0222C28.1212 16.651 28.2195 16.6689 28.3115 16.7054C28.4035 16.7419 28.4874 16.7963 28.5583 16.8654C28.6292 16.9345 28.6857 17.0169 28.7246 17.1079C28.7635 17.1989 28.784 17.2967 28.7849 17.3957V19.2001C27.7361 19.0614 26.6708 19.272 25.7535 19.7992C24.8363 20.3264 24.1182 21.141 23.7102 22.1171C23.3021 23.0932 23.2269 24.1765 23.496 25.1996C23.7651 26.2228 24.3637 27.1288 25.1992 27.7778C26.0525 28.576 27.6311 28.9191 28.792 28.7751V30.6045ZM25.7431 27.3778C25.7597 27.1425 25.8249 26.9131 25.9344 26.7042C26.0439 26.4952 26.1955 26.3112 26.3796 26.1636C26.4701 26.097 26.5772 26.0566 26.6892 26.0469C26.8011 26.0372 26.9136 26.0585 27.0142 26.1085C27.7736 26.4028 28.6167 26.3964 29.3716 26.0907C29.4719 26.0486 29.5815 26.0332 29.6896 26.046C29.7977 26.0588 29.9006 26.0993 29.9884 26.1636C30.169 26.3104 30.3182 26.4919 30.4272 26.6974C30.5362 26.9029 30.6028 27.1283 30.6231 27.36C29.9112 27.8668 29.0598 28.1406 28.1859 28.1438C27.3121 28.1469 26.4587 27.8794 25.7431 27.3778ZM31.1866 26.8729C31.051 26.3857 30.7647 25.9539 30.3689 25.6392C30.1948 25.5079 29.989 25.4253 29.7724 25.4C29.5559 25.3747 29.3365 25.4075 29.1369 25.4952C28.5294 25.7298 27.8564 25.7298 27.2489 25.4952C27.0424 25.4049 26.8152 25.3725 26.5916 25.4013C26.3681 25.4301 26.1565 25.5191 25.9796 25.6587C25.5825 25.9686 25.3003 26.4022 25.1778 26.8907C24.7041 26.3994 24.3582 25.7993 24.1705 25.1431C23.9829 24.4869 23.9592 23.7947 24.1016 23.1272C24.2439 22.4597 24.548 21.8374 24.9871 21.3149C25.4262 20.7924 25.9868 20.3857 26.6198 20.1305C27.2528 19.8753 27.9388 19.7794 28.6175 19.8512C29.2962 19.9231 29.9469 20.1604 30.5124 20.5425C31.078 20.9246 31.5411 21.4397 31.861 22.0425C32.181 22.6454 32.348 23.3176 32.3475 24.0001C32.3513 25.0727 31.9345 26.1041 31.1866 26.8729ZM19.9032 26.9814H20.7725C20.8549 26.9753 20.9319 26.9383 20.9881 26.8778C21.0443 26.8173 21.0755 26.7377 21.0755 26.6552C21.0755 26.5726 21.0443 26.4931 20.9881 26.4325C20.9319 26.372 20.8549 26.335 20.7725 26.3289H19.3948C19.3137 26.3312 19.2366 26.3642 19.1791 26.4214C19.1216 26.4785 19.0881 26.5555 19.0854 26.6365V28.9014C19.0881 28.9824 19.1216 29.0593 19.1791 29.1165C19.2366 29.1736 19.3137 29.2067 19.3948 29.2089H20.7725C20.8549 29.2028 20.9319 29.1658 20.9881 29.1053C21.0443 29.0448 21.0755 28.9653 21.0755 28.8827C21.0755 28.8001 21.0443 28.7206 20.9881 28.6601C20.9319 28.5996 20.8549 28.5626 20.7725 28.5565H19.9032C19.8628 28.5576 19.8235 28.5433 19.7931 28.5166C19.7628 28.4899 19.7437 28.4527 19.7397 28.4125V27.1254C19.7437 27.0852 19.7628 27.0479 19.7931 27.0212C19.8235 26.9945 19.8628 26.9803 19.9032 26.9814ZM26.7956 29.4454H23.2223C23.1774 29.442 23.1324 29.448 23.0899 29.4629C23.0475 29.4778 23.0085 29.5013 22.9756 29.5319C22.9426 29.5625 22.9163 29.5996 22.8983 29.6408C22.8804 29.6821 22.8711 29.7266 22.8711 29.7716C22.8711 29.8166 22.8804 29.8611 22.8983 29.9023C22.9163 29.9435 22.9426 29.9806 22.9756 30.0112C23.0085 30.0419 23.0475 30.0654 23.0899 30.0802C23.1324 30.0951 23.1774 30.1011 23.2223 30.0978H26.7956C26.8404 30.1011 26.8855 30.0951 26.928 30.0802C26.9704 30.0654 27.0093 30.0419 27.0423 30.0112C27.0753 29.9806 27.1016 29.9435 27.1195 29.9023C27.1375 29.8611 27.1468 29.8166 27.1468 29.7716C27.1468 29.7266 27.1375 29.6821 27.1195 29.6408C27.1016 29.5996 27.0753 29.5625 27.0423 29.5319C27.0093 29.5013 26.9704 29.4778 26.928 29.4629C26.8855 29.448 26.8404 29.442 26.7956 29.4454ZM23.2223 19.8241H23.8036C23.886 19.818 23.963 19.781 24.0192 19.7205C24.0754 19.66 24.1066 19.5805 24.1066 19.4979C24.1066 19.4153 24.0754 19.3358 24.0192 19.2753C23.963 19.2148 23.886 19.1778 23.8036 19.1717H23.2223C23.1774 19.1684 23.1324 19.1743 23.0899 19.1892C23.0475 19.2041 23.0085 19.2276 22.9756 19.2582C22.9426 19.2889 22.9163 19.3259 22.8983 19.3672C22.8804 19.4084 22.8711 19.4529 22.8711 19.4979C22.8711 19.5429 22.8804 19.5874 22.8983 19.6286C22.9163 19.6699 22.9426 19.707 22.9756 19.7376C23.0085 19.7682 23.0475 19.7917 23.0899 19.8066C23.1324 19.8215 23.1774 19.8274 23.2223 19.8241ZM23.2223 28.1049H23.8036C23.886 28.0988 23.963 28.0618 24.0192 28.0013C24.0754 27.9408 24.1066 27.8613 24.1066 27.7787C24.1066 27.6961 24.0754 27.6166 24.0192 27.5561C23.963 27.4956 23.886 27.4586 23.8036 27.4525H23.2223C23.1774 27.4492 23.1324 27.4552 23.0899 27.47C23.0475 27.4849 23.0085 27.5084 22.9756 27.539C22.9426 27.5697 22.9163 27.6067 22.8983 27.648C22.8804 27.6892 22.8711 27.7337 22.8711 27.7787C22.8711 27.8237 22.8804 27.8682 22.8983 27.9094C22.9163 27.9507 22.9426 27.9878 22.9756 28.0184C23.0085 28.049 23.0475 28.0725 23.0899 28.0874C23.1324 28.1023 23.1774 28.1082 23.2223 28.1049ZM21.553 26.9618L21.0463 27.4952L20.8828 27.3316C20.8192 27.2743 20.7361 27.2435 20.6506 27.2456C20.565 27.2477 20.4835 27.2825 20.4229 27.3429C20.3623 27.4033 20.3271 27.4847 20.3247 27.5702C20.3223 27.6558 20.3528 27.739 20.4099 27.8027L20.8099 28.2027C20.8731 28.2636 20.9576 28.2977 21.0454 28.2977C21.1333 28.2977 21.2177 28.2636 21.281 28.2027L22.0259 27.44C22.083 27.3763 22.1135 27.2931 22.111 27.2075C22.1086 27.122 22.0735 27.0406 22.0128 26.9802C21.9522 26.9198 21.8707 26.885 21.7851 26.8829C21.6996 26.8808 21.6165 26.9116 21.553 26.9689V26.9618ZM21.553 22.4143L21.0463 22.9476L20.8828 22.7699C20.5734 22.4623 20.1201 22.9334 20.4099 23.241L20.8099 23.6392C20.8731 23.7001 20.9576 23.7342 21.0454 23.7342C21.1333 23.7342 21.2177 23.7001 21.281 23.6392L22.0259 22.8961C22.3334 22.5885 21.8623 22.1352 21.553 22.425V22.4143Z" fill="white"/>
</g>
<defs>
<filter id="filter0_b_2817_7976" x="-7" y="-7" width="63" height="63" filterUnits="userSpaceOnUse" color-interpolation-filters="sRGB">
<feFlood flood-opacity="0" result="BackgroundImageFix"/>
<feGaussianBlur in="BackgroundImageFix" stdDeviation="3.5"/>
<feComposite in2="SourceAlpha" operator="in" result="effect1_backgroundBlur_2817_7976"/>
<feBlend mode="normal" in="SourceGraphic" in2="effect1_backgroundBlur_2817_7976" result="shape"/>
</filter>
</defs>
</svg>
