<svg width="49" height="49" viewBox="0 0 49 49" fill="none" xmlns="http://www.w3.org/2000/svg">
<g filter="url(#filter0_b_2817_7976)">
<rect width="49" height="49" rx="15" fill="white" fill-opacity="0.03"/>
<rect x="0.5" y="0.5" width="48" height="48" rx="14.5" stroke="#D1D9E2" stroke-opacity="0.3"/>
<path d="M22.8134 20.0208L22.8135 20.0207C23.0703 19.879 23.4858 19.7051 23.9866 19.7051C24.518 19.7051 24.9726 19.9333 25.2505 20.1135L22.8134 20.0208ZM22.8134 20.0208C22.3925 20.2534 22.1328 20.6988 22.1328 21.1816V21.2269C22.1328 21.7481 22.2504 22.2515 22.4782 22.682L22.8134 20.0208ZM25.5021 22.6927L25.5021 22.6927C25.2806 23.1072 25.0177 23.3713 24.7433 23.5285C24.4718 23.684 24.2049 23.726 23.9858 23.7216C23.9744 23.7219 23.9624 23.722 23.9501 23.722C23.3274 23.722 22.8196 23.3272 22.4783 22.6821L25.5021 22.6927ZM25.5021 22.6927C25.7336 22.2594 25.8531 21.7522 25.8531 21.2269C25.8531 20.7754 25.6284 20.3582 25.2506 20.1135L25.5021 22.6927ZM23.3141 20.9271L23.3142 20.9271C23.4736 20.839 23.7147 20.7404 23.9866 20.7404C24.247 20.7404 24.5042 20.8636 24.6878 20.9826L24.6879 20.9826C24.7679 21.0345 24.8178 21.1244 24.8178 21.227C24.8178 21.5911 24.7365 21.9288 24.5889 22.2049L24.5889 22.2049C24.388 22.5811 24.1874 22.6914 23.9917 22.6865L23.9833 22.6863L23.9749 22.6866C23.8098 22.6936 23.5977 22.5841 23.3934 22.1979L23.3934 22.1978C23.2483 21.9237 23.1682 21.5884 23.1682 21.227V21.1816C23.1682 21.0717 23.2264 20.9756 23.3141 20.9271Z" fill="white" stroke="#373737" stroke-width="0.5"/>
<path d="M21.9844 26.0826C21.9844 26.3685 22.2161 26.6003 22.502 26.6003C22.7879 26.6003 23.0197 26.3685 23.0197 26.0826V25.17C23.0197 24.8842 22.788 24.6523 22.502 24.6523C22.2161 24.6523 21.9844 24.8842 21.9844 25.17V26.0826Z" fill="white" stroke="#373737" stroke-width="0.5"/>
<path d="M24.9688 26.0826C24.9688 26.3685 25.2005 26.6003 25.4864 26.6003C25.7722 26.6003 26.0041 26.3686 26.0041 26.0826C26.0041 26.0826 26.0041 26.0826 26.0041 26.0826V25.17C26.0041 24.8841 25.7724 24.6523 25.4864 24.6523C25.2005 24.6523 24.9688 24.8841 24.9688 25.17V26.0826Z" fill="white" stroke="#373737" stroke-width="0.5"/>
<path d="M22.4235 22.9595L22.4235 22.9595C22.7053 22.9153 22.9702 23.1045 23.0163 23.3874L23.0163 23.3875C23.0621 23.6697 22.8708 23.9356 22.5887 23.9817L22.5886 23.9817C21.8513 24.1018 21.3166 24.7311 21.3166 25.4804V25.5641H26.6744V25.4804C26.6744 24.7311 26.1396 24.1017 25.4023 23.9817L22.4235 22.9595ZM22.4235 22.9595L22.422 22.9597M22.4235 22.9595L22.422 22.9597M22.422 22.9597C21.1819 23.1618 20.2812 24.2228 20.2812 25.4804V26.0817C20.2812 26.3676 20.513 26.5994 20.7989 26.5994H27.192C27.4779 26.5994 27.7097 26.3677 27.7097 26.0817C27.7097 26.0817 27.7097 26.0817 27.7097 26.0816V25.4804C27.7097 24.2227 26.8089 23.1617 25.5685 22.9597L25.5677 22.9596C25.2882 22.9151 25.0207 23.104 24.9745 23.3875L24.9744 23.3876M22.422 22.9597L24.9744 23.3876M24.9744 23.3876C24.9286 23.6697 25.12 23.9358 25.4023 23.9817L24.9744 23.3876Z" fill="white" stroke="#373737" stroke-width="0.5"/>
<path d="M18.7812 23.999C18.7812 26.8732 21.1191 29.2111 23.9933 29.2111C26.8674 29.2111 29.2053 26.8732 29.2053 23.999C29.2053 21.125 26.8674 18.7871 23.9933 18.7871C21.1191 18.7871 18.7812 21.125 18.7812 23.999ZM19.8166 23.999C19.8166 21.6963 21.6904 19.8224 23.9933 19.8224C26.2961 19.8224 28.17 21.6963 28.17 23.999C28.17 26.3019 26.2961 28.1757 23.9933 28.1757C21.6904 28.1757 19.8166 26.3019 19.8166 23.999Z" fill="white" stroke="#373737" stroke-width="0.5"/>
<path d="M17.6204 20.7034L17.6204 20.7034C17.7519 20.4495 18.0644 20.3505 18.318 20.4817L17.6204 20.7034ZM17.6204 20.7034C17.0968 21.7143 16.8203 22.8538 16.8203 23.9992C16.8203 24.2851 17.052 24.5169 17.338 24.5169M17.6204 20.7034L17.338 24.5169M17.338 24.5169C17.6239 24.5169 17.8557 24.2851 17.8557 23.9992C17.8557 23.0039 18.0858 22.056 18.5397 21.1795C18.6711 20.9258 18.5721 20.6132 18.318 20.4818L17.338 24.5169Z" fill="white" stroke="#373737" stroke-width="0.5"/>
<path d="M26.7987 18.5352L26.7988 18.5353C26.8738 18.5738 26.9548 18.5926 27.0351 18.5926C27.2224 18.5926 27.4038 18.4902 27.4957 18.3117L27.4958 18.3114C27.6263 18.0572 27.5264 17.7452 27.272 17.6144L27.272 17.6144C26.2521 17.0901 25.1489 16.8242 23.9953 16.8242C22.8416 16.8242 21.7385 17.0901 20.7186 17.6144L20.7186 17.6144C20.4643 17.7452 20.3642 18.0572 20.4948 18.3115L20.4949 18.3117C20.6257 18.5658 20.9379 18.6655 21.1917 18.5353L21.1919 18.5352C22.0641 18.0868 23.0065 17.8596 23.9953 17.8596C24.984 17.8596 25.9264 18.0868 26.7987 18.5352ZM21.0776 18.3129C20.9463 18.3802 20.7848 18.3286 20.7171 18.1972L21.0776 18.3129Z" fill="white" stroke="#373737" stroke-width="0.5"/>
<path d="M30.3679 20.7034L30.368 20.7036C30.8917 21.7147 31.1681 22.8541 31.1681 23.9993V23.9994C31.168 24.2852 30.9363 24.517 30.6504 24.517C30.3644 24.517 30.1327 24.2852 30.1327 23.9993C30.1327 23.0042 29.9026 22.0563 29.4487 21.1797L30.3679 20.7034ZM30.3679 20.7034C30.2366 20.4502 29.9245 20.3499 29.67 20.4821L29.7853 20.7039L29.6704 20.4819M30.3679 20.7034L29.6704 20.4819M29.6704 20.4819C29.4163 20.6133 29.3172 20.9259 29.4487 21.1796L29.6704 20.4819Z" fill="white" stroke="#373737" stroke-width="0.5"/>
<path d="M29.4487 26.8198L29.4487 26.8198C29.9026 25.9432 30.1327 24.9953 30.1327 24.0001C30.1327 23.7141 30.3645 23.4824 30.6504 23.4824C30.9363 23.4824 31.1681 23.7141 31.1681 24.0001C31.1681 25.1454 30.8917 26.2848 30.368 27.2958L29.4487 26.8198ZM29.4487 26.8198C29.3173 27.0735 29.4163 27.3859 29.6702 27.5174C29.7457 27.5566 29.8273 27.5756 29.9081 27.5756M29.4487 26.8198L29.9081 27.5756M29.9081 27.5756C30.0949 27.5756 30.2758 27.4737 30.368 27.2958L29.9081 27.5756Z" fill="white" stroke="#373737" stroke-width="0.5"/>
<path d="M20.7186 30.3863L20.7185 30.3863C20.4643 30.2555 20.3642 29.9436 20.4947 29.6893L20.4948 29.6891C20.6255 29.4351 20.9375 29.3348 21.1918 29.4655L21.1918 29.4655C22.0641 29.9139 23.0065 30.1412 23.9952 30.1412C24.984 30.1412 25.9263 29.914 26.7985 29.4656L20.7186 30.3863ZM20.7186 30.3863C21.7384 30.9106 22.8416 31.1765 23.9953 31.1765C25.1489 31.1765 26.2521 30.9106 27.2719 30.3863L27.2719 30.3863C27.5262 30.2556 27.6263 29.9435 27.4957 29.6893L27.4955 29.6889M20.7186 30.3863L27.4955 29.6889M27.4955 29.6889C27.3648 29.4353 27.0529 29.3347 26.7987 29.4655L27.4955 29.6889Z" fill="white" stroke="#373737" stroke-width="0.5"/>
<path d="M18.0803 27.5756C17.8938 27.5756 17.7126 27.474 17.6204 27.2958L18.0803 27.5756ZM18.0803 27.5756C18.161 27.5756 18.2426 27.5566 18.3181 27.5174M18.0803 27.5756L18.3181 27.5174M18.3181 27.5174C18.572 27.3859 18.6711 27.0735 18.5397 26.8197L18.3181 27.5174ZM16.8203 24.0001C16.8203 25.1456 17.0967 26.285 17.6204 27.2958L18.5397 26.8197C18.0857 25.9434 17.8556 24.9955 17.8556 24.0001C17.8556 23.7142 17.6239 23.4824 17.338 23.4824C17.0522 23.4824 16.8203 23.7141 16.8203 24.0001Z" fill="white" stroke="#373737" stroke-width="0.5"/>
<path d="M29.8314 20.4615C28.7093 20.4615 27.7969 19.549 27.7969 18.4271C27.7969 17.305 28.7093 16.3926 29.8314 16.3926C30.9534 16.3926 31.8658 17.305 31.8658 18.4271L29.8314 20.4615ZM29.8314 20.4615C30.9534 20.4615 31.8658 19.5491 31.8658 18.4271L29.8314 20.4615ZM30.8304 18.4271V18.4271C30.8304 18.9777 30.3821 19.4261 29.8314 19.4261C29.2806 19.4261 28.8322 18.9777 28.8322 18.4271C28.8322 17.8763 29.2806 17.4279 29.8314 17.4279C30.382 17.4279 30.8305 17.8763 30.8304 18.4271Z" fill="white" stroke="#373737" stroke-width="0.5"/>
<path d="M27.5149 17.4991L27.5149 17.499C27.2884 17.325 27.2452 17.0001 27.4197 16.7731L27.6179 16.9255L27.4195 16.7734C27.594 16.5458 27.919 16.5046 28.1451 16.6777L28.1454 16.6779L29.7477 17.9082L31.3746 15.9381L31.3746 15.938L31.5674 16.0972L27.5149 17.4991ZM27.5149 17.4991L29.5134 19.0335C29.5134 19.0336 29.5135 19.0336 29.5135 19.0336M27.5149 17.4991L29.5135 19.0336M29.5135 19.0336C29.5135 19.0337 29.5135 19.0337 29.5136 19.0337" fill="white" stroke="#373737" stroke-width="0.5"/>
<path d="M29.8314 32.2507C28.7093 32.2507 27.7969 31.3382 27.7969 30.2162C27.7969 29.0941 28.7093 28.1816 29.8314 28.1816C30.9534 28.1816 31.8658 29.0941 31.8658 30.2162L29.8314 32.2507ZM29.8314 32.2507C30.9534 32.2507 31.8658 31.3382 31.8658 30.2162L29.8314 32.2507ZM30.8304 30.2161V30.2162C30.8304 30.7669 30.382 31.2153 29.8314 31.2153C29.2806 31.2153 28.8322 30.7669 28.8322 30.2162C28.8322 29.6654 29.2806 29.217 29.8314 29.217C30.3821 29.217 30.8305 29.6654 30.8304 30.2161Z" fill="white" stroke="#373737" stroke-width="0.5"/>
<path d="M27.5149 29.2881L27.5149 29.2881C27.2884 29.1142 27.2453 28.7892 27.4197 28.5623L27.5149 29.2881ZM27.5149 29.2881L29.5134 30.8226C29.5134 30.8227 29.5135 30.8227 29.5135 30.8227C29.5135 30.8227 29.5135 30.8228 29.5136 30.8228C29.6074 30.8949 29.7188 30.9299 29.8287 30.9299C29.9772 30.9299 30.1257 30.8658 30.2279 30.7419C30.2279 30.7419 30.228 30.7419 30.228 30.7419L32.1729 28.3864L32.173 28.3863M27.5149 29.2881L32.173 28.3863M28.1454 28.467L28.1454 28.467L29.7477 29.6974L31.3744 27.7273L31.3746 27.7272L31.5674 27.8864L28.1454 28.467ZM28.1454 28.467L28.145 28.4667M28.1454 28.467L28.145 28.4667M28.145 28.4667C27.9188 28.2937 27.5941 28.3353 27.4197 28.5622L28.145 28.4667ZM32.173 28.3863C32.3548 28.166 32.3239 27.8398 32.1035 27.6577L32.173 28.3863Z" fill="white" stroke="#373737" stroke-width="0.5"/>
<path d="M16.1797 18.4271C16.1797 19.549 17.0921 20.4615 18.2142 20.4615C19.3362 20.4615 20.2487 19.5491 20.2487 18.4271C20.2487 17.305 19.3362 16.3926 18.2142 16.3926C17.0921 16.3926 16.1797 17.305 16.1797 18.4271ZM17.2151 18.4271C17.2151 17.8763 17.6635 17.4279 18.2142 17.4279C18.765 17.4279 19.2134 17.8763 19.2134 18.4271C19.2134 18.9777 18.765 19.4261 18.2142 19.4261C17.6634 19.4261 17.2151 18.9777 17.2151 18.4271Z" fill="white" stroke="#373737" stroke-width="0.5"/>
<path d="M15.938 15.8684L15.9382 15.8683L15.9382 15.8683C16.1585 15.6867 16.4848 15.7175 16.6668 15.938C16.6668 15.938 16.6668 15.938 16.6668 15.938L18.2938 17.9082L19.896 16.6779C19.896 16.6779 19.896 16.6779 19.8961 16.6778C19.8961 16.6778 19.8961 16.6778 19.8961 16.6778C20.1226 16.5037 20.4478 16.546 20.622 16.7733L20.4236 16.9254L20.6217 16.773C20.7963 16.9999 20.7532 17.3249 20.5267 17.499L20.5266 17.499L18.5283 19.0333C18.5282 19.0334 18.5282 19.0334 18.5281 19.0335L18.528 19.0336L18.3757 18.8353L15.938 15.8684ZM15.938 15.8684C15.7176 16.0504 15.6865 16.3768 15.8685 16.5972C15.8685 16.5972 15.8685 16.5972 15.8685 16.5972L17.8135 18.9526C17.8135 18.9526 17.8135 18.9527 17.8136 18.9527L15.938 15.8684Z" fill="white" stroke="#373737" stroke-width="0.5"/>
<path d="M16.1797 30.2162C16.1797 31.3382 17.0921 32.2507 18.2142 32.2507C19.3362 32.2507 20.2487 31.3382 20.2487 30.2162C20.2487 29.0941 19.3363 28.1816 18.2142 28.1816C17.0921 28.1816 16.1797 29.0941 16.1797 30.2162ZM17.2151 30.2162C17.2151 29.6654 17.6634 29.217 18.2142 29.217C18.765 29.217 19.2134 29.6654 19.2134 30.2162C19.2134 30.7669 18.7649 31.2153 18.2142 31.2153C17.6635 31.2153 17.2151 30.7669 17.2151 30.2162Z" fill="white" stroke="#373737" stroke-width="0.5"/>
<path d="M15.8685 28.3864L15.8685 28.3863C15.6865 28.1659 15.7176 27.8396 15.938 27.6576L15.938 27.6575C16.1583 27.4757 16.4848 27.5065 16.6668 27.7271C16.6668 27.7271 16.6668 27.7272 16.6669 27.7272C16.6669 27.7272 16.6669 27.7272 16.6669 27.7273L18.2938 29.6974L19.8959 28.4671C19.8959 28.4671 19.896 28.4671 19.896 28.467L15.8685 28.3864ZM15.8685 28.3864L17.8135 30.7418C17.8135 30.7418 17.8135 30.7418 17.8136 30.7418C17.9159 30.8658 18.0643 30.9299 18.2129 30.9299C18.3228 30.9299 18.4343 30.8949 18.5282 30.8225L15.8685 28.3864Z" fill="white" stroke="#373737" stroke-width="0.5"/>
</g>
<defs>
<filter id="filter0_b_2817_7976" x="-7" y="-7" width="63" height="63" filterUnits="userSpaceOnUse" color-interpolation-filters="sRGB">
<feFlood flood-opacity="0" result="BackgroundImageFix"/>
<feGaussianBlur in="BackgroundImageFix" stdDeviation="3.5"/>
<feComposite in2="SourceAlpha" operator="in" result="effect1_backgroundBlur_2817_7976"/>
<feBlend mode="normal" in="SourceGraphic" in2="effect1_backgroundBlur_2817_7976" result="shape"/>
</filter>
</defs>
</svg>
