<svg width="49" height="49" viewBox="0 0 49 49" fill="none" xmlns="http://www.w3.org/2000/svg">
<g filter="url(#filter0_b_1208_3274)">
<rect width="49" height="49" rx="15" fill="white" fill-opacity="0.03"/>
<rect x="0.5" y="0.5" width="48" height="48" rx="14.5" stroke="#D1D9E2" stroke-opacity="0.4"/>
<path d="M24.3012 15.0719C24.2375 15.1132 23.9901 15.3943 23.754 15.7017L23.3229 16.2565L22.6894 16.4776C22.3445 16.5976 22.0146 16.7288 21.9621 16.7663C21.8347 16.8563 21.741 17.0549 21.741 17.2386C21.741 17.4035 21.7897 17.4898 22.2395 18.142L22.5694 18.6218L22.5881 19.3153C22.6144 20.1363 22.6556 20.2712 22.918 20.3949C23.0042 20.4399 23.1242 20.4736 23.1804 20.4736C23.2404 20.4736 23.5815 20.3874 23.9376 20.2787L24.5899 20.0838L25.2421 20.2787C25.5983 20.3874 25.9394 20.4736 25.9994 20.4736C26.0556 20.4736 26.1755 20.4399 26.2618 20.3949C26.5242 20.2712 26.5654 20.1363 26.5916 19.3153L26.6104 18.6218L26.9402 18.142C27.3863 17.4973 27.4388 17.4035 27.4388 17.2424C27.4388 16.8675 27.3076 16.7588 26.5017 16.4814L25.8569 16.2565L25.4258 15.7017C25.1897 15.3943 24.9423 15.1132 24.8785 15.0719C24.8073 15.0307 24.6911 15.0007 24.5899 15.0007C24.4887 15.0007 24.3725 15.0307 24.3012 15.0719ZM24.8785 16.9125L25.1334 17.2311L25.527 17.3736C25.7407 17.4523 25.9206 17.5198 25.9244 17.5235C25.9319 17.5272 25.8307 17.6847 25.7032 17.8684L25.4708 18.2057L25.4596 18.5806C25.4558 18.7868 25.4408 18.9929 25.4333 19.0342L25.4146 19.1129L25.0547 19.0079C24.856 18.948 24.6461 18.8992 24.5899 18.8992C24.5337 18.8992 24.3237 18.948 24.1251 19.0079L23.7652 19.1129L23.7465 19.0342C23.739 18.9929 23.724 18.7868 23.7202 18.5806L23.709 18.2057L23.4766 17.8684C23.3491 17.6847 23.2479 17.5272 23.2554 17.5235C23.2591 17.5198 23.4391 17.4523 23.6527 17.3736L24.0463 17.2311L24.3087 16.9012C24.4512 16.7213 24.5824 16.5789 24.5974 16.5826C24.6124 16.5901 24.7398 16.7363 24.8785 16.9125Z" fill="white"/>
<path d="M17.554 18.5452C17.4528 18.5977 17.1791 18.9276 16.5868 19.7148C16.5831 19.7186 16.2795 19.831 15.9121 19.9622C15.1062 20.2509 15.0274 20.3146 15.0012 20.6519C14.9824 20.9181 14.975 20.8994 15.4435 21.5778L15.8071 22.1027L15.8259 22.8186C15.8484 23.6021 15.8709 23.6958 16.0845 23.8495C16.287 23.9919 16.4481 23.9807 17.1491 23.7745C17.4977 23.6696 17.8051 23.5833 17.8314 23.5833C17.8576 23.5833 18.1687 23.6696 18.5249 23.7745C19.2258 23.9844 19.3608 23.9919 19.567 23.8457C19.7769 23.6958 19.8031 23.5983 19.8219 22.8186L19.8406 22.1139L20.2042 21.5816C20.6578 20.9218 20.6615 20.9144 20.6615 20.6857C20.6615 20.3408 20.5416 20.2471 19.7019 19.9472C19.3533 19.8235 19.0647 19.7186 19.0609 19.7111C19.0572 19.7073 18.866 19.4562 18.6336 19.1525C18.3487 18.7814 18.1725 18.5865 18.0863 18.5452C17.9288 18.4703 17.7077 18.4703 17.554 18.5452ZM18.0675 20.3408C18.3337 20.6857 18.3937 20.7269 18.7985 20.8694C18.9634 20.9256 19.1134 20.9856 19.1321 21.0006C19.1471 21.0156 19.0759 21.1543 18.9672 21.3117C18.7085 21.6828 18.6711 21.8065 18.6673 22.2413V22.6012L18.3037 22.4925C18.105 22.4325 17.8913 22.3838 17.8276 22.3838C17.7639 22.3838 17.5465 22.4325 17.3478 22.4925L16.9804 22.6012V22.2563C16.9804 21.8103 16.9392 21.6753 16.6918 21.3229C16.5756 21.1618 16.4969 21.0156 16.5156 20.9968C16.5344 20.9818 16.6431 20.9406 16.7555 20.9031C17.2091 20.7569 17.3216 20.6819 17.5802 20.3446C17.7114 20.1684 17.8239 20.0297 17.8276 20.0334C17.8314 20.0372 17.9401 20.1759 18.0675 20.3408Z" fill="white"/>
<path d="M31.0862 18.5463C31.0075 18.5875 30.8125 18.8049 30.5426 19.1611L30.1191 19.7196L29.463 19.952C28.7321 20.2182 28.5821 20.3156 28.5259 20.5668C28.4734 20.8029 28.5297 20.9379 28.9532 21.5489L29.3393 22.1149L29.3581 22.8197C29.3768 23.5994 29.4031 23.6968 29.613 23.8468C29.8192 23.993 29.9354 23.9855 30.6813 23.7718L31.3673 23.5694L32.0308 23.7681C32.7543 23.9855 32.8893 23.9967 33.0992 23.8468C33.3053 23.6968 33.3316 23.6031 33.3541 22.8197L33.3728 22.1037L33.7364 21.5789C34.205 20.9042 34.1975 20.9191 34.1788 20.6567C34.1525 20.2894 34.1038 20.2556 33.0242 19.8733L32.5931 19.7196L32.1695 19.1611C31.7197 18.5725 31.6185 18.4863 31.3486 18.4863C31.2699 18.4863 31.1499 18.5163 31.0862 18.5463ZM31.5997 20.3419C31.8659 20.6867 31.9259 20.728 32.3307 20.8704C32.4957 20.9266 32.6456 20.9866 32.6643 21.0016C32.6831 21.0166 32.6044 21.1628 32.4882 21.3277C32.2407 21.6801 32.1995 21.8113 32.1995 22.2611V22.6023L31.8359 22.4936C31.6372 22.4336 31.4236 22.3848 31.3598 22.3848C31.2961 22.3848 31.0787 22.4336 30.88 22.4936L30.5127 22.6023V22.2386C30.5089 21.8076 30.4714 21.6839 30.2128 21.3127C30.1041 21.1553 30.0328 21.0166 30.0478 20.9979C30.0666 20.9829 30.1753 20.9416 30.2877 20.9042C30.7413 20.758 30.8538 20.683 31.1124 20.3456C31.2436 20.1694 31.3561 20.0307 31.3598 20.0345C31.3636 20.0382 31.4723 20.1769 31.5997 20.3419Z" fill="white"/>
<path d="M24.2603 22.9132C23.9304 22.9507 23.533 23.0857 23.2481 23.2543C22.9745 23.4118 22.5059 23.8804 22.3485 24.154C21.7899 25.0986 21.8799 26.3244 22.5696 27.1529L22.7158 27.3253L22.4235 27.4827C21.1789 28.1537 20.3317 29.2896 20.0356 30.6878C19.9419 31.1114 19.9419 31.9211 20.0319 32.2434C20.2905 33.1956 21.0402 33.9191 21.9924 34.1327C22.3935 34.2227 26.7343 34.2227 27.1692 34.1327C27.9376 33.9753 28.6086 33.4542 28.9535 32.7495C29.1671 32.3184 29.2159 32.0673 29.2159 31.4937C29.2046 29.8181 28.275 28.3037 26.7568 27.4827L26.4644 27.3253L26.6106 27.1529C26.8205 26.898 27.0117 26.5343 27.1054 26.1895C27.2104 25.8146 27.2179 25.2223 27.1242 24.8587C26.7868 23.573 25.591 22.7633 24.2603 22.9132ZM25.0812 24.1465C25.3249 24.2365 25.5873 24.4276 25.7222 24.6076C26.3895 25.5147 25.9171 26.703 24.8038 26.9242C23.9116 27.1041 22.997 26.1857 23.1619 25.2861C23.2219 24.9749 23.3606 24.6975 23.5668 24.4914C23.9754 24.0828 24.5564 23.9516 25.0812 24.1465ZM25.5385 28.2474C26.6893 28.5923 27.5703 29.462 27.9189 30.5978C28.0388 30.9839 28.0951 31.5574 28.0426 31.8198C27.9489 32.2959 27.6565 32.6745 27.2141 32.8919L26.9705 33.0119H24.5901H22.2098L21.9661 32.8919C21.3626 32.5958 21.0627 32.0485 21.1227 31.3475C21.2539 29.7694 22.3485 28.5323 23.9191 28.1762C24.309 28.0863 25.1262 28.1237 25.5385 28.2474Z" fill="white"/>
</g>
<defs>
<filter id="filter0_b_1208_3274" x="-7" y="-7" width="63" height="63" filterUnits="userSpaceOnUse" color-interpolation-filters="sRGB">
<feFlood flood-opacity="0" result="BackgroundImageFix"/>
<feGaussianBlur in="BackgroundImageFix" stdDeviation="3.5"/>
<feComposite in2="SourceAlpha" operator="in" result="effect1_backgroundBlur_1208_3274"/>
<feBlend mode="normal" in="SourceGraphic" in2="effect1_backgroundBlur_1208_3274" result="shape"/>
</filter>
</defs>
</svg>
