<svg width="49" height="49" viewBox="0 0 49 49" fill="none" xmlns="http://www.w3.org/2000/svg">
<g filter="url(#filter0_b_262_3922)">
<rect width="49" height="49" rx="15" fill="white" fill-opacity="0.03"/>
<rect x="0.5" y="0.5" width="48" height="48" rx="14.5" stroke="#D1D9E2" stroke-opacity="0.3"/>
<path d="M29.6172 32H18.3828C17.7511 31.9994 17.1454 31.7481 16.6987 31.3014C16.252 30.8546 16.0007 30.2489 16 29.6171V22.3829C16.0007 21.7511 16.252 21.1454 16.6987 20.6986C17.1454 20.2519 17.7511 20.0006 18.3828 20H29.6172C30.2489 20.0006 30.8546 20.2519 31.3013 20.6986C31.748 21.1454 31.9993 21.7511 32 22.3829V29.6171C31.9993 30.2489 31.748 30.8546 31.3013 31.3014C30.8546 31.7481 30.2489 31.9994 29.6172 32ZM18.3828 21.0783C18.037 21.0787 17.7054 21.2163 17.4608 21.4608C17.2162 21.7054 17.0786 22.037 17.0781 22.3829V29.6171C17.0786 29.963 17.2162 30.2946 17.4608 30.5392C17.7054 30.7838 18.037 30.9213 18.3828 30.9217H29.6172C29.963 30.9213 30.2946 30.7838 30.5392 30.5392C30.7838 30.2946 30.9214 29.963 30.9219 29.6171V22.3829C30.9214 22.037 30.7838 21.7054 30.5392 21.4608C30.2946 21.2162 29.963 21.0787 29.6172 21.0783L18.3828 21.0783ZM24 27.7769C23.688 27.7775 23.3789 27.7164 23.0905 27.5971C22.8021 27.4778 22.5402 27.3028 22.3197 27.082C22.1107 26.8724 21.2687 26.0305 20.3922 25.1544C19.4433 24.2057 18.4544 23.2169 18.1844 22.9463C18.0868 22.8443 18.0331 22.7081 18.0348 22.567C18.0364 22.4258 18.0934 22.291 18.1933 22.1913C18.2933 22.0917 18.4284 22.0352 18.5695 22.034C18.7106 22.0329 18.8466 22.0871 18.9482 22.185C19.4013 22.6406 22.5762 25.8118 23.0827 26.3201C23.3264 26.563 23.6564 26.6994 24.0005 26.6993C24.3445 26.6992 24.6745 26.5627 24.9181 26.3196L29.0526 22.1844C29.1543 22.0867 29.2904 22.0327 29.4314 22.0341C29.5725 22.0356 29.7075 22.0923 29.8072 22.1921C29.907 22.2919 29.9637 22.4268 29.9651 22.5679C29.9665 22.709 29.9125 22.8451 29.8148 22.9468L25.6803 27.0819C25.4598 27.3028 25.1978 27.4778 24.9095 27.5971C24.6211 27.7164 24.312 27.7775 24 27.7769Z" fill="white"/>
</g>
<defs>
<filter id="filter0_b_262_3922" x="-7" y="-7" width="63" height="63" filterUnits="userSpaceOnUse" color-interpolation-filters="sRGB">
<feFlood flood-opacity="0" result="BackgroundImageFix"/>
<feGaussianBlur in="BackgroundImageFix" stdDeviation="3.5"/>
<feComposite in2="SourceAlpha" operator="in" result="effect1_backgroundBlur_262_3922"/>
<feBlend mode="normal" in="SourceGraphic" in2="effect1_backgroundBlur_262_3922" result="shape"/>
</filter>
</defs>
</svg>
