<svg width="50" height="50" viewBox="0 0 50 50" fill="none" xmlns="http://www.w3.org/2000/svg">
<circle cx="25" cy="25" r="25" fill="#ECECEC"/>
<path d="M21.4604 24.238C21.4604 24.0224 21.6371 23.8936 21.9332 23.8936C22.3249 23.8936 22.6766 24.0731 23 24.289L23.3906 23.2127C23.083 23.0058 22.7433 22.8532 22.3801 22.8011V22.043H21.3412V22.8694C20.674 23.0781 20.2475 23.6427 20.2475 24.3285C20.2475 25.2323 20.9449 25.6398 21.6261 25.9189C22.1841 26.1546 22.261 26.3541 22.261 26.5345C22.261 26.7906 22.0278 26.9693 21.6941 26.9693C21.2453 26.9693 20.8546 26.7464 20.5002 26.4776L20.125 27.57C20.4724 27.8413 20.8586 28.013 21.2905 28.0719V28.8576H22.3368V28.0082C23.0247 27.7908 23.4812 27.1869 23.4812 26.4816C23.4812 25.7031 23.091 25.2052 22.1764 24.8167C21.5102 24.5292 21.4604 24.4009 21.4604 24.238Z" fill="#333333"/>
<path d="M32.3517 28.4754C32.3517 26.5534 30.8529 24.9898 29.0106 24.9898C28.3506 24.9898 27.7353 25.1913 27.2165 25.5372C26.9529 23.8179 26.1947 22.1093 25.1829 20.8985C26.2018 21.1313 26.9983 21.7246 27.5537 22.6666L28.6378 21.954C27.8032 20.5384 26.5124 19.6844 24.9051 19.4842C24.7641 19.4666 24.6265 19.455 24.4934 19.448L25.4769 17.6523C25.718 17.2121 25.3959 16.6406 24.9242 16.6406H18.3939C17.9259 16.6406 17.6031 17.2079 17.8382 17.6468L19.0849 19.9735C17.3238 21.3269 16 24.2119 16 26.8276C16 30.8614 19.2297 31.3279 21.6591 31.3279C23.0536 31.3279 24.8765 31.1802 26.0687 30.1236C26.1405 30.2625 26.2206 30.396 26.3091 30.5228C25.4787 30.8843 25.0212 31.4208 25.0212 32.0668V32.0669V34.3333C25.0212 35.7262 27.0892 36.3606 29.0106 36.3606C30.932 36.3606 33 35.7262 33 34.3333V32.0669C33 32.0669 33 32.0669 33 32.0669C33 31.4208 32.5426 30.8843 31.7121 30.5228C32.1139 29.9475 32.3517 29.24 32.3517 28.4754ZM23.8174 17.989C23.8174 17.989 22.8601 19.5809 22.8254 19.5892H20.3462L19.4888 17.989H23.8174ZM21.6591 29.9796C18.0222 29.9796 17.277 28.7195 17.277 26.8276C17.277 25.6818 17.5853 24.4203 18.145 23.2756C18.6495 22.2438 19.3229 21.4022 20.0108 20.9376H23.3073C23.9952 21.4022 24.6686 22.2438 25.1731 23.2756C25.737 24.4289 25.9554 25.5975 26.0431 26.8768C25.786 27.3941 25.656 27.988 25.6714 28.572C25.3101 29.2156 24.4489 29.9796 21.6591 29.9796ZM29.0106 26.3381C30.1488 26.3381 31.0747 27.2969 31.0747 28.4754C31.0747 29.6538 30.1488 30.6126 29.0106 30.6126C27.8725 30.6126 26.9465 29.6538 26.9465 28.4754C26.9465 27.2969 27.8725 26.3381 29.0106 26.3381ZM27.454 31.5582C27.9192 31.8149 28.4487 31.961 29.0106 31.961C29.5725 31.961 30.102 31.8149 30.5672 31.5582C31.2315 31.7166 31.5892 31.9434 31.6991 32.0676C31.5018 32.2959 30.5714 32.7458 29.0107 32.7458C27.45 32.7458 26.5195 32.2959 26.3222 32.0676C26.432 31.9434 26.7898 31.7166 27.454 31.5582ZM31.723 34.3018C31.5924 34.5168 30.6487 35.0122 29.0106 35.0122C27.3726 35.0122 26.4289 34.5168 26.2982 34.3018V33.604C27.055 33.9359 28.0511 34.0941 29.0106 34.0941C29.9701 34.0941 30.9662 33.9359 31.723 33.604V34.3018Z" fill="#333333"/>
<path d="M29.1742 28.1596C28.8846 28.035 28.8846 27.9881 28.8846 27.9468C28.8846 27.9072 28.9062 27.8407 29.0505 27.8407C29.2226 27.8407 29.4052 27.93 29.5441 28.0349L29.7479 27.4748C29.6117 27.3838 29.4442 27.3016 29.2912 27.2743V26.9336H28.7456V27.3098C28.4463 27.4148 28.2623 27.6704 28.2623 27.9867C28.2623 28.415 28.6027 28.6092 28.8988 28.7302C29.1522 28.8368 29.1522 28.9133 29.1522 28.959C29.1522 29.0477 29.0708 29.105 28.9449 29.105C28.7474 29.105 28.5453 28.9958 28.3953 28.8643L28.1992 29.4327C28.3515 29.5605 28.5305 29.6432 28.7231 29.6761V30.0286H29.272V29.6422C29.5807 29.5328 29.7777 29.26 29.7777 28.9356C29.7776 28.4691 29.4333 28.2693 29.1742 28.1596Z" fill="#333333"/>
</svg>
