<svg width="54" height="32" viewBox="0 0 54 32" fill="none" xmlns="http://www.w3.org/2000/svg">
<g id="Filter Button">
<rect x="0.5" y="0.5" width="52.3938" height="31" rx="10.5" stroke="black" stroke-opacity="0.1" stroke-linecap="round"/>
<path id="Union" fill-rule="evenodd" clip-rule="evenodd" d="M16.8565 14.3435C16.6278 14.5549 16.4444 14.8099 16.3172 15.0932C16.19 15.3765 16.1216 15.6824 16.1161 15.9925C16.1106 16.3026 16.1681 16.6106 16.2851 16.8982C16.4022 17.1858 16.5764 17.447 16.7974 17.6664C17.0184 17.8857 17.2817 18.0586 17.5715 18.1747C17.8613 18.2909 18.1717 18.3479 18.4842 18.3425C18.7967 18.337 19.1049 18.2691 19.3904 18.1429C19.6759 18.0166 19.9329 17.8346 20.146 17.6077C20.5818 17.1747 20.8266 16.5877 20.8266 15.9756C20.8266 15.3636 20.5818 14.7765 20.146 14.3435C19.702 13.9254 19.1133 13.6924 18.5012 13.6924C17.8892 13.6924 17.3005 13.9254 16.8565 14.3435ZM19.0521 16.5222C18.9799 16.5944 18.8941 16.6516 18.7996 16.6907C18.705 16.7298 18.6036 16.7499 18.5012 16.7499C18.3988 16.7499 18.2974 16.7298 18.2029 16.6907C18.1083 16.6516 18.0225 16.5944 17.9504 16.5222C17.8777 16.4506 17.82 16.3655 17.7806 16.2717C17.7412 16.1779 17.7209 16.0772 17.7209 15.9756C17.7209 15.874 17.7412 15.7733 17.7806 15.6795C17.82 15.5857 17.8777 15.5006 17.9504 15.429C18.0225 15.3568 18.1083 15.2996 18.2029 15.2605C18.2974 15.2214 18.3988 15.2013 18.5012 15.2013C18.6036 15.2013 18.705 15.2214 18.7996 15.2605C18.8941 15.2996 18.9799 15.3568 19.0521 15.429C19.1248 15.5006 19.1825 15.5857 19.2219 15.6795C19.2613 15.7733 19.2815 15.874 19.2815 15.9756C19.2815 16.0772 19.2613 16.1779 19.2219 16.2717C19.1825 16.3655 19.1248 16.4506 19.0521 16.5222ZM24.6138 14.3435C24.3851 14.5549 24.2017 14.8099 24.0745 15.0932C23.9473 15.3765 23.8789 15.6824 23.8734 15.9925C23.8678 16.3026 23.9253 16.6106 24.0424 16.8982C24.1594 17.1858 24.3337 17.447 24.5547 17.6664C24.7757 17.8857 25.039 18.0586 25.3288 18.1747C25.6186 18.2909 25.929 18.3479 26.2415 18.3425C26.554 18.337 26.8622 18.2691 27.1477 18.1429C27.4332 18.0166 27.6901 17.8346 27.9032 17.6077C28.3391 17.1747 28.5839 16.5877 28.5839 15.9756C28.5839 15.3636 28.3391 14.7765 27.9032 14.3435C27.4592 13.9254 26.8705 13.6924 26.2585 13.6924C25.6465 13.6924 25.0578 13.9254 24.6138 14.3435ZM26.8093 16.5222C26.7372 16.5944 26.6514 16.6516 26.5569 16.6907C26.4623 16.7298 26.3609 16.7499 26.2585 16.7499C26.1561 16.7499 26.0547 16.7298 25.9601 16.6907C25.8656 16.6516 25.7798 16.5944 25.7077 16.5222C25.635 16.4506 25.5772 16.3655 25.5378 16.2717C25.4985 16.1779 25.4782 16.0772 25.4782 15.9756C25.4782 15.874 25.4985 15.7733 25.5378 15.6795C25.5772 15.5857 25.635 15.5006 25.7077 15.429C25.7798 15.3568 25.8656 15.2996 25.9601 15.2605C26.0547 15.2214 26.1561 15.2013 26.2585 15.2013C26.3609 15.2013 26.4623 15.2214 26.5569 15.2605C26.6514 15.2996 26.7372 15.3568 26.8093 15.429C26.882 15.5006 26.9398 15.5857 26.9791 15.6795C27.0185 15.7733 27.0388 15.874 27.0388 15.9756C27.0388 16.0772 27.0185 16.1779 26.9791 16.2717C26.9398 16.3655 26.882 16.4506 26.8093 16.5222ZM31.8318 15.0932C31.959 14.8099 32.1424 14.5549 32.371 14.3435C32.815 13.9254 33.4037 13.6924 34.0158 13.6924C34.6278 13.6924 35.2165 13.9254 35.6605 14.3435C36.0963 14.7765 36.3412 15.3636 36.3412 15.9756C36.3412 16.5877 36.0963 17.1747 35.6605 17.6077C35.4474 17.8346 35.1905 18.0166 34.905 18.1429C34.6195 18.2691 34.3113 18.337 33.9988 18.3425C33.6863 18.3479 33.3758 18.2909 33.086 18.1747C32.7962 18.0586 32.533 17.8857 32.312 17.6664C32.0909 17.447 31.9167 17.1858 31.7997 16.8982C31.6826 16.6106 31.6251 16.3026 31.6306 15.9925C31.6361 15.6824 31.7045 15.3765 31.8318 15.0932ZM34.3141 16.6907C34.4087 16.6516 34.4945 16.5944 34.5666 16.5222C34.6393 16.4506 34.697 16.3655 34.7364 16.2717C34.7758 16.1779 34.7961 16.0772 34.7961 15.9756C34.7961 15.874 34.7758 15.7733 34.7364 15.6795C34.697 15.5857 34.6393 15.5006 34.5666 15.429C34.4945 15.3568 34.4087 15.2996 34.3141 15.2605C34.2196 15.2214 34.1182 15.2013 34.0158 15.2013C33.9134 15.2013 33.8119 15.2214 33.7174 15.2605C33.6229 15.2996 33.5371 15.3568 33.4649 15.429C33.3922 15.5006 33.3345 15.5857 33.2951 15.6795C33.2557 15.7733 33.2355 15.874 33.2355 15.9756C33.2355 16.0772 33.2557 16.1779 33.2951 16.2717C33.3345 16.3655 33.3922 16.4506 33.4649 16.5222C33.5371 16.5944 33.6229 16.6516 33.7174 16.6907C33.8119 16.7298 33.9134 16.7499 34.0158 16.7499C34.1182 16.7499 34.2196 16.7298 34.3141 16.6907Z" fill="#727378"/>
</g>
</svg>
