<svg width="50" height="50" viewBox="0 0 50 50" fill="none" xmlns="http://www.w3.org/2000/svg">
<circle cx="25" cy="25" r="25" fill="#ECECEC"/>
<path fill-rule="evenodd" clip-rule="evenodd" d="M25.2062 17C31.1187 17.1294 36 21.7235 36 27.3529C36 27.4824 35.9312 27.6765 35.725 27.8059C35.5875 27.9353 35.45 28 35.3125 28C35.1063 28 34.9 27.9353 34.7625 27.7412C34.7564 27.7354 34.7417 27.7175 34.7188 27.6896C34.4829 27.4026 33.3788 26.0588 31.875 26.0588C30.225 26.0588 28.9875 27.7412 28.9875 27.7412C28.85 27.8706 28.6438 28 28.4375 28C28.2312 28 28.025 27.8706 27.8875 27.7412C27.8875 27.6765 26.5813 26.0588 25 26.0588C23.2812 26.0588 22.1125 27.6765 22.1125 27.6765C22.0437 27.8059 21.9062 27.8706 21.7687 27.9353C21.7 28 21.6312 28 21.5625 28C21.5625 28 21.425 28 21.3562 27.9353C21.2188 27.8706 21.0812 27.7412 21.0125 27.6765C21.0125 27.6118 19.775 25.9941 18.125 25.9941C16.475 25.9941 15.2375 27.6765 15.2375 27.6765C15.2375 27.7412 15.0313 27.8706 14.8938 27.9353C14.6875 28 14.4125 28 14.275 27.9353C14.1375 27.8059 14 27.6118 14 27.3529C14 21.7235 18.8813 17.1294 24.7938 17H25H25.2062ZM15.5813 25.6059C16.2 25.1529 17.0938 24.7647 18.125 24.7647C19.2937 24.7647 20.2563 25.2824 20.9438 25.8C21.0813 23.0176 21.5625 20.3 22.5938 18.6176C19.0875 19.4588 16.3375 22.1765 15.5813 25.6059ZM22.3188 25.7353C23.0063 25.2176 23.9 24.7647 25 24.7647C26.1 24.7647 26.9938 25.2176 27.8188 25.8C27.5437 21.2059 26.375 18.4882 25.2062 18.3588H25.0688H24.9312C23.7625 18.4882 22.525 21.2059 22.3188 25.7353ZM29.0562 25.8C29.7437 25.2824 30.7062 24.7647 31.875 24.7647C32.9062 24.7647 33.8 25.1529 34.4188 25.6059C33.6625 22.2412 30.9125 19.5235 27.4062 18.6176C28.4375 20.2353 28.9187 22.9529 29.0562 25.8ZM24.5 27.6C24.5 27.24 24.8 27 25.25 27C25.7 27 26 27.24 26 27.6V33.6C26 34.92 24.65 36 23 36C21.35 36 20 34.92 20 33.6C20 33.24 20.3 33 20.75 33C21.2 33 21.5 33.24 21.5 33.6C21.5 34.26 22.175 34.8 23 34.8C23.825 34.8 24.5 34.26 24.5 33.6V27.6Z" fill="#333333"/>
</svg>
