<svg width="49" height="49" viewBox="0 0 49 49" fill="none" xmlns="http://www.w3.org/2000/svg">
<g filter="url(#filter0_b_2817_7952)">
<rect width="49" height="49" rx="15" fill="white" fill-opacity="0.03"/>
<rect x="0.5" y="0.5" width="48" height="48" rx="14.5" stroke="#D1D9E2" stroke-opacity="0.3"/>
<path d="M24.4984 32.2236L24.6102 32.2795L24.722 32.2236L24.9156 32.1268C25.1402 32.036 26.7264 31.2978 28.2786 30.0057C29.8653 28.6849 31.4703 26.7398 31.4703 24.2712V20.8136V19.7966V16V15.75H31.2203H27.5254H27.2754V16V17.3771H26.8263V16V15.75H26.5763H22.6441H22.3941V16V17.3771H21.9449V16V15.75H21.6949H18H17.75V16V19.7966V20.8136V24.2712C17.75 26.7234 19.3558 28.6601 20.9418 29.9803C22.4381 31.2259 23.9641 31.9622 24.2545 32.1022C24.2733 32.1113 24.2869 32.1179 24.295 32.1219L24.4068 31.8983L24.295 32.1219L24.4984 32.2236ZM29.9195 24.2712V24.5212H29.9456C29.8466 26.1038 28.8213 27.4697 27.6343 28.5296C26.4708 29.5686 25.191 30.2782 24.6102 30.5688C24.0293 30.2782 22.7495 29.5686 21.586 28.5296C20.337 27.4143 19.2669 25.9602 19.2669 24.2712V21.0636H29.9195V24.2712ZM29.9534 19.5466H19.2669V17.2669H20.428V18.6441V18.8941H20.678H23.661H23.911V18.6441V17.2669H25.3093V18.6441V18.8941H25.5593H28.5424H28.7924V18.6441V17.2669H29.9534V19.5466Z" fill="white" stroke="#373737" stroke-width="0.5"/>
<path d="M24.6112 28.826C26.6476 28.826 28.285 27.1886 28.285 25.1522C28.285 23.1159 26.6476 21.4785 24.6112 21.4785C22.5749 21.4785 20.9375 23.1159 20.9375 25.1522C20.9375 27.1886 22.5749 28.826 24.6112 28.826ZM24.6112 22.9955C25.7952 22.9955 26.768 23.9683 26.768 25.1522C26.768 26.3362 25.7952 27.309 24.6112 27.309C23.4273 27.309 22.4544 26.3362 22.4544 25.1522C22.4544 23.9683 23.4273 22.9955 24.6112 22.9955Z" fill="white" stroke="#373737" stroke-width="0.5"/>
<path d="M26.546 24.8203L26.7227 24.6435L26.546 24.4667L25.8341 23.7549L25.6573 23.5781L25.4805 23.7549L24.2675 24.9679L23.7324 24.4328L23.5556 24.2561L23.3788 24.4328L22.667 25.1447L22.4902 25.3215L22.667 25.4982L24.0907 26.922L24.2675 27.0988L24.4443 26.922L26.546 24.8203Z" fill="white" stroke="#373737" stroke-width="0.5"/>
</g>
<defs>
<filter id="filter0_b_2817_7952" x="-7" y="-7" width="63" height="63" filterUnits="userSpaceOnUse" color-interpolation-filters="sRGB">
<feFlood flood-opacity="0" result="BackgroundImageFix"/>
<feGaussianBlur in="BackgroundImageFix" stdDeviation="3.5"/>
<feComposite in2="SourceAlpha" operator="in" result="effect1_backgroundBlur_2817_7952"/>
<feBlend mode="normal" in="SourceGraphic" in2="effect1_backgroundBlur_2817_7952" result="shape"/>
</filter>
</defs>
</svg>
