<svg width="21" height="21" viewBox="0 0 21 21" fill="none" xmlns="http://www.w3.org/2000/svg">
<path d="M2.55542 0.0652838C1.6187 0.287137 0.714859 1.05951 0.262937 2.01266L0 2.56318V10.4924V18.4216L0.262937 18.9721C0.624475 19.7445 1.15856 20.2868 1.92272 20.6647L2.53898 20.9688H6.77062H11.0105L11.561 20.7058C12.5717 20.2292 13.2947 19.3418 13.5084 18.3147C13.5577 18.0764 13.5988 17.2466 13.5988 16.4824C13.5988 14.9212 13.5248 14.609 13.0975 14.3953C12.6456 14.157 11.9965 14.3132 11.7746 14.7076C11.7007 14.8308 11.6514 15.4142 11.6267 16.507L11.5856 18.1175L11.3309 18.438C10.8379 19.0542 10.9694 19.0378 6.80349 19.0378C4.37954 19.0378 3.01556 19.0049 2.85944 18.9474C2.5472 18.8324 2.17744 18.4791 2.04598 18.1586C1.87342 17.7642 1.87342 3.22052 2.04598 2.82612C2.17744 2.50566 2.5472 2.15234 2.85944 2.03731C3.17989 1.91406 10.3778 1.91406 10.6982 2.03731C11.0433 2.16056 11.4542 2.59605 11.5446 2.93294C11.5856 3.08906 11.6267 3.77105 11.6267 4.43661C11.6267 5.78416 11.6925 6.03888 12.1197 6.26073C12.6292 6.52367 13.2372 6.3429 13.4673 5.85811C13.5741 5.63625 13.5988 5.3158 13.5988 4.338C13.5988 3.66423 13.5577 2.90829 13.5084 2.67C13.2947 1.6429 12.5717 0.755493 11.561 0.27892L11.0105 0.0159832L6.94317 -0.00045035C4.65069 -0.00866712 2.73619 0.0242 2.55542 0.0652838Z" fill="#999999"/>
<path d="M15.9963 6.13621C15.6594 6.34163 15.454 6.79355 15.5361 7.15509C15.569 7.33586 15.8894 7.71383 16.6207 8.45334L17.6561 9.49687L13.1615 9.52152L8.6669 9.54617L8.40397 9.81733C8.1739 10.0474 8.13281 10.1378 8.13281 10.4911C8.13281 10.8444 8.1739 10.9348 8.40397 11.1649L8.6669 11.436L13.145 11.4771L17.6232 11.5182L16.5961 12.5453C15.5033 13.6381 15.3718 13.8682 15.569 14.3448C15.7991 14.9035 16.3742 15.1418 16.9001 14.8953C17.0562 14.8213 18.0176 13.9175 19.0365 12.8904C21.0085 10.9102 21.0989 10.7787 20.951 10.1871C20.8852 9.90771 17.3027 6.28411 16.9165 6.09513C16.5632 5.93079 16.3249 5.93901 15.9963 6.13621Z" fill="#999999"/>
</svg>
