<svg width="21" height="21" viewBox="0 0 21 21" fill="none" xmlns="http://www.w3.org/2000/svg">
<path d="M2.55542 0.0652838C1.6187 0.287137 0.714859 1.05951 0.262937 2.01266L0 2.56318V10.4924V18.4216L0.262937 18.9721C0.624475 19.7445 1.15856 20.2868 1.92272 20.6647L2.53898 20.9688H6.77062H11.0105L11.561 20.7058C12.5717 20.2292 13.2947 19.3418 13.5084 18.3147C13.5577 18.0764 13.5988 17.2466 13.5988 16.4824C13.5988 14.9212 13.5248 14.609 13.0975 14.3953C12.6456 14.157 11.9965 14.3132 11.7746 14.7076C11.7007 14.8308 11.6514 15.4142 11.6267 16.507L11.5856 18.1175L11.3309 18.438C10.8379 19.0542 10.9694 19.0378 6.80349 19.0378C4.37954 19.0378 3.01556 19.0049 2.85944 18.9474C2.5472 18.8324 2.17744 18.4791 2.04598 18.1586C1.87342 17.7642 1.87342 3.22052 2.04598 2.82612C2.17744 2.50566 2.5472 2.15234 2.85944 2.03731C3.17989 1.91406 10.3778 1.91406 10.6982 2.03731C11.0433 2.16056 11.4542 2.59605 11.5446 2.93294C11.5856 3.08906 11.6267 3.77105 11.6267 4.43661C11.6267 5.78416 11.6925 6.03888 12.1197 6.26073C12.6292 6.52367 13.2372 6.3429 13.4673 5.85811C13.5741 5.63625 13.5988 5.3158 13.5988 4.338C13.5988 3.66423 13.5577 2.90829 13.5084 2.67C13.2947 1.6429 12.5717 0.755493 11.561 0.27892L11.0105 0.0159832L6.94317 -0.00045035C4.65069 -0.00866712 2.73619 0.0242 2.55542 0.0652838Z" fill="#333333"/>
<path d="M15.9972 6.13707C15.6603 6.34249 15.4549 6.79441 15.537 7.15595C15.5699 7.33672 15.8904 7.71469 16.6217 8.4542L17.657 9.49773L13.1624 9.52238L8.66782 9.54703L8.40488 9.81818C8.17481 10.0482 8.13373 10.1386 8.13373 10.492C8.13373 10.8453 8.17481 10.9357 8.40488 11.1657L8.66782 11.4369L13.146 11.478L17.6241 11.5191L16.597 12.5461C15.5042 13.639 15.3727 13.869 15.5699 14.3456C15.8 14.9044 16.3752 15.1426 16.901 14.8961C17.0571 14.8222 18.0185 13.9183 19.0374 12.8913C21.0094 10.911 21.0998 10.7795 20.9519 10.1879C20.8862 9.90856 17.3036 6.28497 16.9175 6.09598C16.5641 5.93165 16.3258 5.93986 15.9972 6.13707Z" fill="#333333"/>
</svg>
