<svg width="49" height="49" viewBox="0 0 49 49" fill="none" xmlns="http://www.w3.org/2000/svg">
<g filter="url(#filter0_b_348_7788)">
<rect width="49" height="49" rx="15" fill="white" fill-opacity="0.03"/>
<rect x="0.5" y="0.5" width="48" height="48" rx="14.5" stroke="#D1D9E2" stroke-opacity="0.3"/>
<path d="M18.8318 17.2566C18.6331 17.3047 18.2417 17.4553 17.9587 17.5938C17.5432 17.7925 17.3505 17.937 16.9289 18.3585C16.0919 19.1956 15.7427 19.9784 15.6885 21.1346C15.6523 21.9475 15.7607 22.4955 16.116 23.2121C16.2665 23.5132 16.5255 23.9106 16.6941 24.1033L17.0072 24.4465L16.5797 24.844C15.8029 25.5666 15.273 26.5361 15.0983 27.5779C15.0261 27.9693 15.008 28.4089 15.02 29.0833C15.0381 30.1431 15.0682 30.2274 15.4897 30.5104C15.7607 30.6971 16.2665 30.7031 16.5556 30.5225C16.9169 30.2997 16.9952 30.0468 16.9952 29.0953C16.9952 28.6377 17.0253 28.1017 17.0614 27.903C17.3324 26.3976 18.8378 25.3257 20.3011 25.5847C21.379 25.7773 22.2522 26.5421 22.6135 27.608C22.6436 27.7043 22.6918 28.2944 22.7098 28.9147C22.752 30.1552 22.77 30.2214 23.1976 30.5104C23.4686 30.6971 23.9744 30.7031 24.2634 30.5225C24.6428 30.2876 24.703 30.0648 24.703 28.9026C24.703 27.7766 24.6247 27.2286 24.3598 26.5662C24.0888 25.8918 23.5529 25.1691 22.9386 24.6392L22.7098 24.4465L23.047 24.0672C23.4385 23.6396 23.8118 22.923 23.9443 22.3389C24.0828 21.7608 24.0707 20.7793 23.9202 20.2434C23.6853 19.3943 23.1855 18.6054 22.5593 18.0936C22.1558 17.7684 21.379 17.377 20.8792 17.2505C20.4276 17.1361 19.3196 17.1422 18.8318 17.2566ZM20.825 19.3582C21.2465 19.5629 21.6379 19.9603 21.8547 20.3999C22.0053 20.707 22.0233 20.8034 22.0233 21.3453C22.0233 21.8391 21.9993 22.0017 21.8909 22.2366C21.6921 22.6581 21.2104 23.1338 20.7708 23.3385C20.4456 23.4891 20.3252 23.5132 19.8555 23.5132C19.3918 23.5132 19.2654 23.4891 18.9703 23.3506C18.4946 23.1278 18.1152 22.7604 17.8804 22.2847C17.7057 21.9294 17.6877 21.8391 17.6877 21.3453C17.6877 20.8756 17.7118 20.7552 17.8623 20.43C18.067 19.9844 18.5428 19.5027 18.9643 19.316C19.5364 19.0631 20.2529 19.0812 20.825 19.3582Z" fill="white" stroke="#373737" stroke-width="0.5"/>
<path d="M26.5698 21.6836C26.1904 21.8341 25.9676 22.1954 25.9676 22.6471C25.9676 23.0385 26.1362 23.3215 26.4554 23.4901C26.6842 23.6045 26.7986 23.6045 30.5381 23.5925C34.3198 23.5744 34.392 23.5744 34.5606 23.448C34.7714 23.2974 35.0002 22.8578 35.0002 22.6049C35.0002 22.2978 34.7593 21.9124 34.4583 21.7558L34.1993 21.6173L30.4598 21.6234C28.1234 21.6234 26.6661 21.6475 26.5698 21.6836Z" fill="white" stroke="#373737" stroke-width="0.5"/>
<path d="M26.5698 25.5361C26.1904 25.6866 25.9676 26.0479 25.9676 26.4996C25.9676 26.891 26.1362 27.174 26.4554 27.3366C26.6721 27.451 26.8167 27.457 29.2073 27.457H31.7304L31.9351 27.3185C32.0435 27.2463 32.2001 27.0897 32.2784 26.9753C32.3988 26.8007 32.4169 26.7103 32.3988 26.4153C32.3687 25.9998 32.2362 25.795 31.8689 25.6023C31.604 25.4699 31.5799 25.4699 29.1591 25.4759C27.6898 25.4759 26.6601 25.5 26.5698 25.5361Z" fill="white" stroke="#373737" stroke-width="0.5"/>
</g>
<defs>
<filter id="filter0_b_348_7788" x="-7" y="-7" width="63" height="63" filterUnits="userSpaceOnUse" color-interpolation-filters="sRGB">
<feFlood flood-opacity="0" result="BackgroundImageFix"/>
<feGaussianBlur in="BackgroundImageFix" stdDeviation="3.5"/>
<feComposite in2="SourceAlpha" operator="in" result="effect1_backgroundBlur_348_7788"/>
<feBlend mode="normal" in="SourceGraphic" in2="effect1_backgroundBlur_348_7788" result="shape"/>
</filter>
</defs>
</svg>
