<svg width="49" height="49" viewBox="0 0 49 49" fill="none" xmlns="http://www.w3.org/2000/svg">
<g id="Cancel Button" filter="url(#filter0_b_972_5019)">
<rect width="49" height="49" rx="15" fill="white" fill-opacity="0.03"/>
<rect x="0.5" y="0.5" width="48" height="48" rx="14.5" stroke="#D1D9E2" stroke-opacity="0.3"/>
<g id="Black">
<path id="Vector" d="M18.8308 17.2561C18.6321 17.3043 18.2407 17.4548 17.9577 17.5933C17.5422 17.792 17.3495 17.9365 16.928 18.3581C16.0909 19.1951 15.7417 19.9779 15.6875 21.1341C15.6513 21.947 15.7597 22.495 16.115 23.2116C16.2656 23.5127 16.5245 23.9101 16.6931 24.1028L17.0062 24.4461L16.5787 24.8435C15.8019 25.5661 15.272 26.5356 15.0973 27.5774C15.0251 27.9688 15.007 28.4084 15.0191 29.0828C15.0371 30.1426 15.0672 30.2269 15.4888 30.51C15.7597 30.6966 16.2656 30.7027 16.5546 30.522C16.9159 30.2992 16.9942 30.0463 16.9942 29.0948C16.9942 28.6372 17.0243 28.1013 17.0604 27.9025C17.3314 26.3971 18.8369 25.3252 20.3001 25.5842C21.378 25.7769 22.2512 26.5416 22.6125 27.6075C22.6426 27.7038 22.6908 28.294 22.7088 28.9142C22.751 30.1547 22.7691 30.2209 23.1966 30.51C23.4676 30.6966 23.9734 30.7027 24.2625 30.522C24.6418 30.2872 24.702 30.0643 24.702 28.9021C24.702 27.7761 24.6238 27.2281 24.3588 26.5657C24.0878 25.8913 23.5519 25.1687 22.9377 24.6387L22.7088 24.4461L23.0461 24.0667C23.4375 23.6391 23.8108 22.9225 23.9433 22.3384C24.0818 21.7604 24.0698 20.7788 23.9192 20.2429C23.6844 19.3938 23.1846 18.605 22.5583 18.0931C22.1548 17.7679 21.378 17.3765 20.8782 17.2501C20.4266 17.1356 19.3186 17.1417 18.8308 17.2561ZM20.824 19.3577C21.2456 19.5624 21.637 19.9598 21.8538 20.3994C22.0043 20.7065 22.0224 20.8029 22.0224 21.3448C22.0224 21.8386 21.9983 22.0012 21.8899 22.2361C21.6912 22.6576 21.2094 23.1333 20.7698 23.338C20.4447 23.4886 20.3242 23.5127 19.8545 23.5127C19.3909 23.5127 19.2644 23.4886 18.9693 23.3501C18.4936 23.1273 18.1142 22.76 17.8794 22.2842C17.7048 21.929 17.6867 21.8386 17.6867 21.3448C17.6867 20.8752 17.7108 20.7547 17.8613 20.4295C18.0661 19.9839 18.5418 19.5022 18.9633 19.3155C19.5354 19.0626 20.252 19.0807 20.824 19.3577Z" fill="white" stroke="#373737" stroke-width="0.5"/>
<path id="Vector_2" d="M26.567 21.6824C26.1876 21.8329 25.9648 22.1942 25.9648 22.6458C25.9648 23.0373 26.1335 23.3203 26.4526 23.4889C26.6814 23.6033 26.7958 23.6033 30.5354 23.5913C34.317 23.5732 34.3893 23.5732 34.5579 23.4467C34.7686 23.2962 34.9975 22.8566 34.9975 22.6037C34.9975 22.2966 34.7566 21.9112 34.4555 21.7546L34.1966 21.6161L30.4571 21.6221C28.1206 21.6221 26.6634 21.6462 26.567 21.6824Z" fill="white" stroke="#373737" stroke-width="0.5"/>
<path id="Vector_3" d="M26.567 25.5363C26.1876 25.6869 25.9648 26.0482 25.9648 26.4998C25.9648 26.8912 26.1335 27.1743 26.4526 27.3368C26.6694 27.4513 26.8139 27.4573 29.2045 27.4573H31.7277L31.9324 27.3188C32.0408 27.2465 32.1974 27.0899 32.2756 26.9755C32.3961 26.8009 32.4141 26.7106 32.3961 26.4155C32.366 26 32.2335 25.7953 31.8662 25.6026C31.6012 25.4701 31.5771 25.4701 29.1564 25.4761C27.6871 25.4761 26.6573 25.5002 26.567 25.5363Z" fill="white" stroke="#373737" stroke-width="0.5"/>
</g>
</g>
<defs>
<filter id="filter0_b_972_5019" x="-7" y="-7" width="63" height="63" filterUnits="userSpaceOnUse" color-interpolation-filters="sRGB">
<feFlood flood-opacity="0" result="BackgroundImageFix"/>
<feGaussianBlur in="BackgroundImageFix" stdDeviation="3.5"/>
<feComposite in2="SourceAlpha" operator="in" result="effect1_backgroundBlur_972_5019"/>
<feBlend mode="normal" in="SourceGraphic" in2="effect1_backgroundBlur_972_5019" result="shape"/>
</filter>
</defs>
</svg>
