<svg width="24" height="25" viewBox="0 0 24 25" fill="none" xmlns="http://www.w3.org/2000/svg">
<path d="M21.2382 13.4647V9.55237C21.2382 6.98944 20.1914 4.48142 18.3657 2.67114C16.5832 0.904005 14.2809 -0.0472272 11.8243 0.00180539C6.82719 0.0964383 2.76184 4.28284 2.76184 9.33417V13.4647C1.10309 14.1889 0 15.8403 0 17.7197V18.8122C0 20.0184 0.97157 21 2.16589 21H21.8346C23.0284 21 24 20.0184 24 18.8122V17.7197C24 15.8403 22.8974 14.1889 21.2382 13.4647ZM22.0122 18.8122C22.0122 18.9112 21.9326 18.9916 21.8346 18.9916H2.16589C2.06786 18.9916 1.98779 18.9112 1.98779 18.8122V17.7197C1.98779 16.4983 2.80988 15.4461 3.98722 15.1617C4.43418 15.0533 4.74963 14.6493 4.74963 14.185V9.33417C4.74963 5.36989 7.93998 2.08422 11.8612 2.01018C11.9054 2.0092 11.949 2.00871 11.9932 2.00871C13.8432 2.00871 15.6072 2.75008 16.9733 4.10485C18.4205 5.53954 19.2504 7.52487 19.2504 9.55237V14.185C19.2504 14.6493 19.5658 15.0533 20.0128 15.1617C21.1901 15.4461 22.0122 16.4983 22.0122 17.7197V18.8122Z" fill="#333333"/>
<path d="M16.9962 25C17.5505 25 18 24.5522 18 24C18 23.4478 17.5505 23 16.9962 23H7.00384C6.44947 23 6 23.4478 6 24C6 24.5522 6.44947 25 7.00384 25H16.9962Z" fill="#333333"/>
</svg>
