<svg width="49" height="49" viewBox="0 0 49 49" fill="none" xmlns="http://www.w3.org/2000/svg">
<g filter="url(#filter0_b_2817_7906)">
<rect width="49" height="49" rx="15" fill="white" fill-opacity="0.03"/>
<rect x="0.5" y="0.5" width="48" height="48" rx="14.5" stroke="#D1D9E2" stroke-opacity="0.3"/>
<path d="M33.2042 18.7389H29.2642V16.3471C29.2642 16.0174 28.9968 15.75 28.667 15.75H20.1653C19.8355 15.75 19.5681 16.0174 19.5681 16.3471V18.7389H15.6281C14.5923 18.7389 13.75 19.5812 13.75 20.617V30.3719C13.75 31.4077 14.5923 32.25 15.6281 32.25H33.2042C34.2386 32.25 35.0789 31.4072 35.0789 30.3719V20.617C35.0789 19.5817 34.2386 18.7389 33.2042 18.7389ZM20.7624 19.336V18.5393H28.0699V19.336V19.704C28.0699 20.5059 27.4171 21.1586 26.6153 21.1586H22.217C21.4151 21.1586 20.7624 20.5059 20.7624 19.704V19.336ZM28.0699 16.9443V17.3451H20.7624V16.9443H28.0699ZM33.8846 30.3719C33.8846 30.7496 33.5783 31.0557 33.2042 31.0557H15.6281C15.2512 31.0557 14.9443 30.7488 14.9443 30.3719V20.617C14.9443 20.2401 15.2512 19.9332 15.6281 19.9332H19.5779C19.6945 21.287 20.8334 22.3529 22.217 22.3529H26.6153C27.9988 22.3529 29.1378 21.287 29.2543 19.9332H33.2042C33.5783 19.9332 33.8846 20.2393 33.8846 20.617V30.3719Z" fill="white" stroke="#373737" stroke-width="0.5"/>
<path d="M20.4886 25.3409C20.7822 24.9733 20.9592 24.5077 20.9592 24.0004C20.9592 22.811 19.9919 21.8438 18.8026 21.8438C17.6132 21.8438 16.6461 22.811 16.6461 24.0004C16.6461 24.5077 16.8231 24.9733 17.1166 25.3409C15.9386 25.9279 15.125 27.1423 15.125 28.5475V29.8341C15.125 30.1638 15.3924 30.4312 15.7221 30.4312H21.883C22.2128 30.4312 22.4802 30.1638 22.4802 29.8341V28.5475C22.4802 27.1423 21.6666 25.9279 20.4886 25.3409ZM18.8026 23.038C19.333 23.038 19.7649 23.4699 19.7649 24.0004C19.7649 24.5308 19.333 24.9627 18.8026 24.9627C18.2723 24.9627 17.8404 24.5308 17.8404 24.0004C17.8404 23.4699 18.2723 23.038 18.8026 23.038ZM16.3193 29.2369V28.5475C16.3193 27.2296 17.392 26.157 18.71 26.157H18.8953C20.2133 26.157 21.2859 27.2295 21.2859 28.5475V29.2369H16.3193Z" fill="white" stroke="#373737" stroke-width="0.5"/>
<path d="M31.6514 23.9662C31.6514 23.2414 31.0623 22.6523 30.3376 22.6523H23.2826C22.5578 22.6523 21.9688 23.2414 21.9688 23.9662C21.9688 24.6909 22.5578 25.28 23.2826 25.28H30.3376C31.0623 25.28 31.6514 24.6909 31.6514 23.9662ZM23.163 23.9662C23.163 23.9005 23.2169 23.8466 23.2826 23.8466H30.3376C30.4032 23.8466 30.4571 23.9005 30.4571 23.9662C30.4571 24.0318 30.4032 24.0857 30.3376 24.0857H23.2826C23.2169 24.0857 23.163 24.0318 23.163 23.9662Z" fill="white" stroke="#373737" stroke-width="0.5"/>
<path d="M31.8063 25.541H24.7513C24.0266 25.541 23.4375 26.1301 23.4375 26.8548C23.4375 27.5796 24.0266 28.1687 24.7513 28.1687H31.8063C32.5311 28.1687 33.1201 27.5796 33.1201 26.8548C33.1201 26.1301 32.5311 25.541 31.8063 25.541ZM31.8063 26.9744H24.7513C24.6856 26.9744 24.6318 26.9205 24.6318 26.8548C24.6318 26.7892 24.6856 26.7353 24.7513 26.7353H31.8063C31.872 26.7353 31.9258 26.7892 31.9258 26.8548C31.9258 26.9205 31.872 26.9744 31.8063 26.9744Z" fill="white" stroke="#373737" stroke-width="0.5"/>
</g>
<defs>
<filter id="filter0_b_2817_7906" x="-7" y="-7" width="63" height="63" filterUnits="userSpaceOnUse" color-interpolation-filters="sRGB">
<feFlood flood-opacity="0" result="BackgroundImageFix"/>
<feGaussianBlur in="BackgroundImageFix" stdDeviation="3.5"/>
<feComposite in2="SourceAlpha" operator="in" result="effect1_backgroundBlur_2817_7906"/>
<feBlend mode="normal" in="SourceGraphic" in2="effect1_backgroundBlur_2817_7906" result="shape"/>
</filter>
</defs>
</svg>
