<svg width="18" height="18" viewBox="0 0 18 18" fill="none" xmlns="http://www.w3.org/2000/svg">
<path d="M4.32676 1.05317C3.80587 1.24069 3.60446 1.51849 2.02792 4.1368L0.5 6.68566V11.1236C0.5 14.2906 0.520835 15.6379 0.583341 15.8254C0.687518 16.1796 1.06255 16.6172 1.43064 16.8116C1.71539 16.9644 1.73623 16.9644 5.77134 16.9853L9.82728 17.0061L10.0495 17.1728C10.3482 17.402 11.2163 17.7909 11.6816 17.909C11.9039 17.9645 12.39 18.0062 12.8623 17.9992C13.5151 17.9923 13.7582 17.9576 14.2027 17.8117C15.7028 17.3186 16.8627 16.1588 17.3558 14.6586C17.5016 14.2142 17.5364 13.9711 17.5433 13.3182C17.5502 12.846 17.5086 12.3598 17.453 12.1376C17.3349 11.6722 16.946 10.8041 16.7168 10.5055C16.5502 10.2832 16.5502 10.2624 16.5293 8.47749L16.5085 6.67871L14.9667 4.10902C14.1263 2.69916 13.3554 1.47682 13.2651 1.40042C13.1818 1.31708 12.9943 1.19207 12.8623 1.12262C12.6331 0.997608 12.3761 0.990664 8.59105 0.976772C5.54215 0.969828 4.50733 0.983719 4.32676 1.05317ZM7.98683 4.16458L8.00072 6.30367H5.01432C3.37528 6.30367 2.02792 6.28284 2.02792 6.262C2.02792 6.24117 2.57659 5.30358 3.25721 4.17847C4.18785 2.62277 4.52122 2.12272 4.66012 2.0741C4.75735 2.03938 5.53521 2.01159 6.40334 2.01854L7.96599 2.03243L7.98683 4.16458ZM12.4734 2.12966C12.5567 2.19911 14.668 5.64389 14.9944 6.24811C15.0083 6.28284 13.6749 6.30367 12.0358 6.30367H9.04249V4.14374V1.99076L10.6954 2.01159C11.9942 2.02549 12.3831 2.05327 12.4734 2.12966ZM15.432 8.27609V9.20673L14.925 8.94976C13.6193 8.29692 11.9386 8.28998 10.6607 8.92893C8.27852 10.1374 7.30621 13.0196 8.49382 15.3809L8.75079 15.8879H5.34769C3.18776 15.8879 1.90291 15.8601 1.81957 15.8185C1.74317 15.7768 1.65289 15.631 1.61122 15.4851C1.53482 15.2004 1.50704 7.47045 1.59038 7.39406C1.61122 7.36628 4.73652 7.34544 8.53549 7.34544H15.432V8.27609ZM13.6124 9.6026C14.8625 9.90124 15.9668 10.9152 16.3349 12.1237C16.5363 12.7626 16.5224 13.7488 16.314 14.3669C15.7654 15.9713 14.4388 16.9297 12.7512 16.9297C11.9733 16.9297 11.3969 16.77 10.8065 16.388C9.63282 15.6171 8.97304 14.3461 9.06332 13.0057C9.14666 11.8528 9.66755 10.9013 10.5774 10.2277C11.4455 9.58871 12.5706 9.35952 13.6124 9.6026Z" fill="#333333"/>
<path d="M3.55609 8.9887C3.18799 9.12066 3.07687 9.6346 3.35468 9.88462C3.48663 10.0027 3.63943 10.0166 4.73675 10.0374C5.95215 10.0582 5.97298 10.0582 6.1605 9.89156C6.42442 9.66238 6.43136 9.32901 6.16745 9.09982C5.98687 8.94703 5.93826 8.94008 4.8201 8.94703C4.18115 8.94703 3.61165 8.96786 3.55609 8.9887Z" fill="#333333"/>
<path d="M13.4873 12.8665L12.2788 14.0819L11.6121 13.4291C11.251 13.0749 10.8829 12.7554 10.7926 12.7276C10.4314 12.6165 10.0217 12.9985 10.1259 13.3457C10.1467 13.4221 10.5773 13.9083 11.0773 14.4083C11.9038 15.2487 12.0149 15.332 12.2372 15.332C12.4594 15.332 12.5914 15.2209 13.9596 13.8527C15.2375 12.5748 15.4319 12.3526 15.4319 12.1651C15.4319 11.8942 15.1819 11.6511 14.9041 11.6511C14.7305 11.6511 14.5082 11.8386 13.4873 12.8665Z" fill="#333333"/>
</svg>
