<svg width="14" height="17" viewBox="0 0 14 17" fill="none" xmlns="http://www.w3.org/2000/svg">
<g id="Black">
<path id="Vector" d="M5.44853 0.0539875C4.93723 0.190111 4.40602 0.628365 4.18689 1.08986L4.07069 1.3289H2.87878C1.55074 1.3289 1.47106 1.33887 1.0494 1.55135C0.730674 1.71404 0.382064 2.05933 0.219379 2.3847C-0.0163474 2.85283 0.000253017 2.34485 0.000253017 9.15769C0.000253017 15.9904 -0.0163474 15.4758 0.222699 15.9506C0.378744 16.2594 0.727354 16.6113 1.04608 16.774C1.5109 17.0164 1.13573 16.9998 6.64044 16.9998C12.1385 16.9998 11.76 17.0164 12.2315 16.7773C12.5502 16.6179 12.8988 16.2693 13.0582 15.9506C13.2972 15.4758 13.2806 15.9904 13.2806 9.16433C13.2806 3.68617 13.274 2.99227 13.2275 2.81299C13.0051 1.94644 12.2149 1.3289 11.3351 1.3289C11.1193 1.3289 11.0562 1.34219 10.9366 1.41191C10.7275 1.53475 10.6246 1.72732 10.6246 1.99292C10.6246 2.38137 10.857 2.62374 11.272 2.67354C11.5807 2.71006 11.7401 2.80967 11.8663 3.03875L11.936 3.17156V9.16433V15.1571L11.8663 15.2899C11.7833 15.4426 11.7169 15.5057 11.5542 15.592C11.4413 15.6518 11.2653 15.6551 6.64044 15.6551C2.01555 15.6551 1.83959 15.6518 1.7267 15.592C1.56402 15.5057 1.49762 15.4426 1.41461 15.2899L1.34489 15.1571V9.16433C1.34489 3.37408 1.34821 3.16824 1.40797 3.05535C1.4943 2.89267 1.55738 2.82627 1.7101 2.74327C1.83627 2.67686 1.89271 2.67354 2.95514 2.66358L4.06737 2.65362L4.19685 2.91259C4.44254 3.394 4.94387 3.79905 5.46513 3.93518C5.75066 4.00822 7.52359 4.00822 7.81244 3.93186C8.50302 3.75257 9.06411 3.19148 9.2434 2.5009C9.31312 2.24193 9.31312 1.74392 9.2434 1.48495C9.06411 0.794369 8.50302 0.233273 7.81244 0.0539875C7.53355 -0.0190544 5.71746 -0.0190544 5.44853 0.0539875ZM7.57007 1.40859C7.73275 1.49491 7.79916 1.55799 7.8722 1.70076C7.99172 1.93316 7.93196 2.30169 7.74935 2.46106C7.55347 2.6337 7.50367 2.64034 6.64044 2.64034C5.8735 2.64034 5.82038 2.63702 5.69422 2.57062C5.45849 2.44446 5.34561 2.25521 5.34561 1.99292C5.34561 1.66423 5.54149 1.43183 5.87682 1.35879C5.9399 1.3455 6.32171 1.33554 6.72344 1.33887C7.3609 1.3455 7.46715 1.35546 7.57007 1.40859Z" fill="#333333"/>
<path id="Vector_2" d="M2.96502 6.46117C2.75917 6.58401 2.65625 6.77657 2.65625 7.03886C2.65625 7.44723 2.9119 7.70288 3.32027 7.70288C3.72864 7.70288 3.98429 7.44723 3.98429 7.03886C3.98429 6.63049 3.72864 6.37484 3.31695 6.37484C3.14762 6.37484 3.07458 6.39144 2.96502 6.46117Z" fill="#333333"/>
<path id="Vector_3" d="M5.62127 6.46117C5.41542 6.58401 5.3125 6.77657 5.3125 7.03886C5.3125 7.30447 5.41542 7.49703 5.62459 7.61988L5.76735 7.70288H7.96858H10.1698L10.3126 7.61988C10.5217 7.49703 10.6247 7.30447 10.6247 7.03886C10.6247 6.77325 10.5217 6.58069 10.3126 6.45785L10.1698 6.37484H7.96526H5.76071L5.62127 6.46117Z" fill="#333333"/>
<path id="Vector_4" d="M2.96502 9.11839C2.75917 9.24124 2.65625 9.4338 2.65625 9.69609C2.65625 9.86209 2.67285 9.93846 2.73925 10.048C2.8621 10.2572 3.05466 10.3601 3.32027 10.3601C3.58588 10.3601 3.77844 10.2572 3.90129 10.048C4.01749 9.84881 4.01749 9.54336 3.90129 9.34416C3.77844 9.13499 3.58588 9.03207 3.31695 9.03207C3.14762 9.03207 3.07458 9.04867 2.96502 9.11839Z" fill="#333333"/>
<path id="Vector_5" d="M5.62127 9.11839C5.41542 9.24124 5.3125 9.4338 5.3125 9.69609C5.3125 9.9617 5.41542 10.1543 5.62459 10.2771L5.76735 10.3601H7.96858H10.1698L10.3126 10.2771C10.5217 10.1543 10.6247 9.9617 10.6247 9.69609C10.6247 9.43048 10.5217 9.23792 10.3126 9.11507L10.1698 9.03207H7.96526H5.76071L5.62127 9.11839Z" fill="#333333"/>
<path id="Vector_6" d="M2.96502 11.7734C2.75917 11.8963 2.65625 12.0888 2.65625 12.3511C2.65625 12.7595 2.9119 13.0151 3.32027 13.0151C3.72864 13.0151 3.98429 12.7595 3.98429 12.3511C3.98429 11.9427 3.72864 11.6871 3.31695 11.6871C3.14762 11.6871 3.07458 11.7037 2.96502 11.7734Z" fill="#333333"/>
<path id="Vector_7" d="M5.62127 11.7734C5.41542 11.8963 5.3125 12.0888 5.3125 12.3511C5.3125 12.6167 5.41542 12.8093 5.62459 12.9321L5.76735 13.0151H7.96858H10.1698L10.3126 12.9321C10.5217 12.8093 10.6247 12.6167 10.6247 12.3511C10.6247 12.0855 10.5217 11.8929 10.3126 11.7701L10.1698 11.6871H7.96526H5.76071L5.62127 11.7734Z" fill="#333333"/>
</g>
</svg>
