<svg width="18" height="18" viewBox="0 0 18 18" fill="none" xmlns="http://www.w3.org/2000/svg">
<path d="M3.55511 8.9887C3.18702 9.12066 3.0759 9.6346 3.3537 9.88462C3.48566 10.0027 3.63845 10.0166 4.73578 10.0374C5.95117 10.0582 5.97201 10.0582 6.15953 9.89156C6.42344 9.66238 6.43039 9.32901 6.16647 9.09982C5.9859 8.94703 5.93728 8.94008 4.81912 8.94703C4.18017 8.94703 3.61067 8.96786 3.55511 8.9887Z" fill="white"/>
<path d="M4.32578 1.05317C3.8049 1.24069 3.60349 1.51849 2.02695 4.1368L0.499023 6.68566V11.1236C0.499023 14.2906 0.519859 15.6379 0.582365 15.8254C0.686541 16.1796 1.06158 16.6172 1.42967 16.8116C1.71442 16.9644 1.73525 16.9644 5.77036 16.9853L9.82631 17.0061L10.0486 17.1728C10.3472 17.402 11.2153 17.7909 11.6807 17.909C11.9029 17.9645 12.3891 18.0062 12.8613 17.9992C13.5142 17.9923 13.7572 17.9576 14.2017 17.8117C15.7019 17.3186 16.8617 16.1588 17.3548 14.6586C17.5007 14.2142 17.5354 13.9711 17.5423 13.3182C17.5493 12.846 17.5076 12.3598 17.452 12.1376C17.334 11.6722 16.945 10.8041 16.7159 10.5055C16.5492 10.2832 16.5492 10.2624 16.5283 8.47749L16.5075 6.67871L14.9657 4.10902C14.1253 2.69916 13.3544 1.47682 13.2641 1.40042C13.1808 1.31708 12.9933 1.19207 12.8613 1.12262C12.6321 0.997608 12.3752 0.990663 8.59008 0.976773C5.54117 0.969828 4.50635 0.983718 4.32578 1.05317ZM7.98585 4.16458L7.99974 6.30367H5.01335C3.3743 6.30367 2.02695 6.28284 2.02695 6.262C2.02695 6.24117 2.57561 5.30358 3.25623 4.17847C4.18688 2.62277 4.52024 2.12272 4.65915 2.0741C4.75638 2.03938 5.53423 2.01159 6.40237 2.01854L7.96502 2.03243L7.98585 4.16458ZM12.4724 2.12966C12.5557 2.19911 14.6671 5.64389 14.9935 6.24811C15.0074 6.28284 13.6739 6.30367 12.0349 6.30367H9.04151V4.14374V1.99076L10.6944 2.01159C11.9932 2.02548 12.3821 2.05327 12.4724 2.12966ZM15.431 8.27609V9.20673L14.924 8.94976C13.6183 8.29692 11.9376 8.28998 10.6597 8.92893C8.27755 10.1374 7.30523 13.0196 8.49285 15.3809L8.74982 15.8879H5.34671C3.18678 15.8879 1.90194 15.8601 1.81859 15.8185C1.7422 15.7768 1.65191 15.631 1.61024 15.4851C1.53385 15.2004 1.50606 7.47045 1.58941 7.39406C1.61024 7.36628 4.73554 7.34544 8.53452 7.34544H15.431V8.27609ZM13.6114 9.6026C14.8615 9.90124 15.9658 10.9152 16.3339 12.1237C16.5353 12.7626 16.5214 13.7488 16.313 14.3669C15.7644 15.9713 14.4379 16.9297 12.7502 16.9297C11.9723 16.9297 11.3959 16.77 10.8056 16.388C9.63184 15.6171 8.97206 14.3461 9.06235 13.0057C9.14569 11.8528 9.66657 10.9013 10.5764 10.2277C11.4445 9.58871 12.5696 9.35952 13.6114 9.6026Z" fill="white"/>
<path d="M13.4853 12.8665L12.2769 14.0819L11.6102 13.4291C11.249 13.0749 10.8809 12.7554 10.7906 12.7276C10.4295 12.6165 10.0197 12.9985 10.1239 13.3457C10.1447 13.4221 10.5753 13.9083 11.0754 14.4083C11.9018 15.2487 12.013 15.332 12.2352 15.332C12.4575 15.332 12.5894 15.2209 13.9576 13.8527C15.2355 12.5748 15.43 12.3526 15.43 12.1651C15.43 11.8942 15.1799 11.6511 14.9021 11.6511C14.7285 11.6511 14.5063 11.8386 13.4853 12.8665Z" fill="white"/>
</svg>
