<svg width="15" height="15" viewBox="0 0 15 15" fill="none" xmlns="http://www.w3.org/2000/svg">
<path d="M6.66667 0C2.99069 0 0 2.99068 0 6.66667C0 10.3426 2.99069 13.3333 6.66667 13.3333C7.32057 13.3333 8.01393 13.2626 8.65104 13.0833C9.18542 14.2142 10.3374 15 11.6667 15C13.5017 15 15 13.5017 15 11.6667C15 10.335 14.2124 9.18411 13.0781 8.65104C13.2564 8.01476 13.3333 7.31839 13.3333 6.66667C13.3333 2.99068 10.3426 0 6.66667 0ZM6.66667 1C9.8022 1 12.3333 3.53111 12.3333 6.66667C12.3333 7.23455 12.2663 7.85071 12.125 8.36979C11.9746 8.34887 11.8226 8.33333 11.6667 8.33333C9.83165 8.33333 8.33333 9.83163 8.33333 11.6667C8.33333 11.8191 8.34458 11.9727 8.36458 12.1198C7.84545 12.2621 7.23657 12.3333 6.66667 12.3333C3.53114 12.3333 1 9.80217 1 6.66667C1 3.53111 3.53113 1 6.66667 1ZM6.66146 3.32292C6.59535 3.3236 6.53004 3.33738 6.46929 3.36347C6.40855 3.38955 6.35358 3.42742 6.30757 3.47489C6.26155 3.52236 6.22541 3.57848 6.20122 3.64C6.17704 3.70153 6.16529 3.76724 6.16667 3.83333V4.21354C5.87972 4.26443 5.62003 4.35545 5.39583 4.48438C5.0501 4.68318 4.76876 4.97707 4.6875 5.375C4.60624 5.77293 4.80179 6.21253 5.14583 6.47917C5.48988 6.74581 5.96203 6.90983 6.59896 6.99479C7.12525 7.065 7.44148 7.20543 7.57292 7.30729C7.70435 7.40914 7.67038 7.40371 7.66667 7.42188C7.66296 7.44006 7.60992 7.54668 7.4375 7.64583C7.26508 7.74498 6.9933 7.82758 6.65625 7.83333C6.2972 7.8395 5.85445 7.75845 5.36979 7.54167C5.30925 7.50971 5.24278 7.49052 5.17452 7.4853C5.10626 7.48007 5.03765 7.48892 4.97294 7.51129C4.90824 7.53367 4.84882 7.56909 4.79836 7.61536C4.74791 7.66164 4.70749 7.71778 4.67962 7.78031C4.65175 7.84285 4.63702 7.91044 4.63633 7.97889C4.63565 8.04735 4.64903 8.11522 4.67565 8.1783C4.70227 8.24138 4.74155 8.29832 4.79107 8.34559C4.8406 8.39286 4.8993 8.42946 4.96354 8.45312C5.38116 8.63991 5.78545 8.75205 6.16667 8.80208V9.16667C6.16573 9.23292 6.17797 9.2987 6.20268 9.36019C6.22738 9.42167 6.26406 9.47763 6.31059 9.52482C6.35711 9.572 6.41255 9.60947 6.47367 9.63505C6.5348 9.66062 6.6004 9.67379 6.66667 9.67379C6.73293 9.67379 6.79853 9.66062 6.85966 9.63505C6.92079 9.60947 6.97622 9.572 7.02275 9.52482C7.06927 9.47763 7.10595 9.42167 7.13066 9.36019C7.15536 9.2987 7.1676 9.23292 7.16667 9.16667V8.78646C7.45314 8.73385 7.71462 8.63858 7.9375 8.51042C8.28323 8.31162 8.56457 8.01771 8.64583 7.61979C8.7271 7.22186 8.53154 6.78226 8.1875 6.51562C7.84346 6.24899 7.3713 6.08496 6.73438 6C6.20808 5.9298 5.89186 5.78937 5.76042 5.6875C5.62898 5.58563 5.66296 5.59108 5.66667 5.57292C5.67038 5.55475 5.72341 5.45332 5.89583 5.35417C6.06826 5.25502 6.34004 5.17242 6.67708 5.16667C7.03613 5.16048 7.47888 5.23634 7.96354 5.45312C8.02409 5.48509 8.09055 5.50427 8.15881 5.5095C8.22708 5.51472 8.29569 5.50587 8.36039 5.4835C8.42509 5.46113 8.48451 5.42571 8.53497 5.37943C8.58543 5.33316 8.62584 5.27701 8.65371 5.21448C8.68158 5.15195 8.69632 5.08436 8.697 5.0159C8.69769 4.94744 8.6843 4.87957 8.65769 4.81649C8.63107 4.75341 8.59178 4.69648 8.54226 4.6492C8.49274 4.60193 8.43404 4.56533 8.36979 4.54167C7.95404 4.35571 7.54793 4.25197 7.16667 4.20312V3.83333C7.16806 3.76636 7.15598 3.69979 7.13115 3.63758C7.10632 3.57537 7.06924 3.51878 7.02212 3.47117C6.975 3.42356 6.91879 3.3859 6.85684 3.36044C6.79488 3.33497 6.72844 3.32221 6.66146 3.32292ZM11.6667 9.33333C12.9613 9.33333 14 10.3721 14 11.6667C14 12.9613 12.9612 14 11.6667 14C10.3721 14 9.33333 12.9613 9.33333 11.6667C9.33333 10.3721 10.3721 9.33333 11.6667 9.33333ZM12.8021 10.1615C12.7294 10.1663 12.6586 10.187 12.5947 10.2221C12.5308 10.2572 12.4754 10.3058 12.4323 10.3646C12.0606 10.858 11.6965 11.3841 11.2865 11.9115C11.1296 11.7559 10.9857 11.6166 10.8594 11.4844C10.8151 11.4324 10.7607 11.3901 10.6994 11.36C10.6382 11.3298 10.5714 11.3126 10.5033 11.3092C10.4351 11.3059 10.367 11.3165 10.3031 11.3405C10.2392 11.3645 10.1809 11.4013 10.1317 11.4486C10.0826 11.496 10.0437 11.5529 10.0174 11.6159C9.99104 11.6788 9.9779 11.7465 9.97873 11.8148C9.97956 11.883 9.99436 11.9504 10.0222 12.0127C10.05 12.075 10.0903 12.1309 10.1406 12.1771C10.4073 12.4561 10.7995 12.8389 10.9844 13.0208C11.0332 13.0687 11.0914 13.106 11.1553 13.1305C11.2192 13.155 11.2874 13.1662 11.3557 13.1632C11.4241 13.1603 11.4911 13.1434 11.5526 13.1135C11.6142 13.0836 11.669 13.0415 11.7135 12.9896C12.3378 12.2582 12.7939 11.5483 13.2344 10.9635C13.2927 10.8871 13.3277 10.7954 13.3353 10.6996C13.3428 10.6037 13.3226 10.5077 13.2769 10.4231C13.2313 10.3384 13.1623 10.2687 13.078 10.2223C12.9938 10.1759 12.898 10.1548 12.8021 10.1615Z" fill="#333333"/>
</svg>
