<svg width="49" height="49" viewBox="0 0 49 49" fill="none" xmlns="http://www.w3.org/2000/svg">
<g filter="url(#filter0_b_2817_7964)">
<rect width="49" height="49" rx="15" fill="white" fill-opacity="0.03"/>
<rect x="0.5" y="0.5" width="48" height="48" rx="14.5" stroke="#D1D9E2" stroke-opacity="0.3"/>
<path d="M27.8897 20.6722V17.0306L26.1889 17.5195L24.25 16L22.3111 17.5195L20.6103 17.0306V20.6722C19.0308 21.8076 18 23.6606 18 25.75C18 29.1962 20.8038 32 24.25 32C27.6962 32 30.5 29.1962 30.5 25.75C30.5 23.6606 29.4693 21.8076 27.8897 20.6722ZM21.5478 18.2756L22.5124 18.5529L24.25 17.1912L25.9876 18.5529L26.9522 18.2756V20.1149C26.1339 19.7209 25.2173 19.5 24.25 19.5C23.2827 19.5 22.3661 19.7209 21.5478 20.1149V18.2756ZM24.25 31.0625C21.3207 31.0625 18.9375 28.6793 18.9375 25.75C18.9375 22.8207 21.3207 20.4375 24.25 20.4375C27.1793 20.4375 29.5625 22.8207 29.5625 25.75C29.5625 28.6793 27.1793 31.0625 24.25 31.0625Z" fill="white"/>
<path d="M24.25 21.375C21.8376 21.375 19.875 23.3376 19.875 25.75C19.875 28.1624 21.8376 30.125 24.25 30.125C26.6624 30.125 28.625 28.1624 28.625 25.75C28.625 23.3376 26.6624 21.375 24.25 21.375ZM24.25 29.1875C22.3546 29.1875 20.8125 27.6454 20.8125 25.75C20.8125 24.0136 22.1068 22.5739 23.7812 22.3446V23.2812H24.7188V22.3446C26.2399 22.5529 27.4471 23.7601 27.6554 25.2812H26.7188V26.2188H27.6554C27.4261 27.8932 25.9864 29.1875 24.25 29.1875Z" fill="white"/>
<path d="M22.9464 27.0323L23.7779 26.5614V28.2495H24.7154V24.9531L22.4844 26.2166L22.9464 27.0323Z" fill="white"/>
</g>
<defs>
<filter id="filter0_b_2817_7964" x="-7" y="-7" width="63" height="63" filterUnits="userSpaceOnUse" color-interpolation-filters="sRGB">
<feFlood flood-opacity="0" result="BackgroundImageFix"/>
<feGaussianBlur in="BackgroundImageFix" stdDeviation="3.5"/>
<feComposite in2="SourceAlpha" operator="in" result="effect1_backgroundBlur_2817_7964"/>
<feBlend mode="normal" in="SourceGraphic" in2="effect1_backgroundBlur_2817_7964" result="shape"/>
</filter>
</defs>
</svg>
