<svg width="49" height="49" viewBox="0 0 49 49" fill="none" xmlns="http://www.w3.org/2000/svg">
<g filter="url(#filter0_b_2817_7964)">
<rect width="49" height="49" rx="15" fill="white" fill-opacity="0.03"/>
<rect x="0.5" y="0.5" width="48" height="48" rx="14.5" stroke="#D1D9E2" stroke-opacity="0.3"/>
<path d="M27.8207 16.7904L26.2426 17.244L24.4042 15.8032L24.25 15.6824L24.0958 15.8032L22.2574 17.244L20.6793 16.7904L20.3603 16.6986V17.0306V20.5456C18.7774 21.7316 17.75 23.6227 17.75 25.75C17.75 29.3343 20.6657 32.25 24.25 32.25C27.8343 32.25 30.75 29.3343 30.75 25.75C30.75 23.6227 29.7226 21.7316 28.1397 20.5456V17.0306V16.6986L27.8207 16.7904ZM26.0566 18.7931L26.7022 18.6076V19.7302C25.945 19.4207 25.1168 19.25 24.25 19.25C23.3832 19.25 22.555 19.4207 21.7978 19.7303V18.6076L22.4434 18.7932L22.5661 18.8285L22.6666 18.7497L24.25 17.5089L25.8334 18.7497L25.9339 18.8284L26.0566 18.7931ZM24.25 30.8125C21.4588 30.8125 19.1875 28.5412 19.1875 25.75C19.1875 22.9588 21.4588 20.6875 24.25 20.6875C27.0412 20.6875 29.3125 22.9588 29.3125 25.75C29.3125 28.5412 27.0412 30.8125 24.25 30.8125Z" fill="white" stroke="#373737" stroke-width="0.5"/>
<path d="M26.7188 26.4688H27.3556C27.0288 27.8813 25.76 28.9375 24.25 28.9375C22.4926 28.9375 21.0625 27.5074 21.0625 25.75C21.0625 24.24 22.1187 22.9712 23.5312 22.6444V23.2812V23.5312H23.7812H24.7188H24.9688V23.2812V22.6444C26.1499 22.9178 27.0822 23.8501 27.3555 25.0312H26.7188H26.4688V25.2812V26.2188V26.4688H26.7188ZM24.25 21.125C21.6996 21.125 19.625 23.1996 19.625 25.75C19.625 28.3004 21.6996 30.375 24.25 30.375C26.8004 30.375 28.875 28.3004 28.875 25.75C28.875 23.1996 26.8004 21.125 24.25 21.125Z" fill="white" stroke="#373737" stroke-width="0.5"/>
<path d="M22.7288 27.1555L22.852 27.3731L23.0696 27.2499L23.5279 26.9903V28.2495V28.4995H23.7779H24.7154H24.9654V28.2495V24.9531V24.5242L24.5922 24.7356L22.3612 25.9991L22.1436 26.1223L22.2668 26.3398L22.7288 27.1555Z" fill="white" stroke="#373737" stroke-width="0.5"/>
</g>
<defs>
<filter id="filter0_b_2817_7964" x="-7" y="-7" width="63" height="63" filterUnits="userSpaceOnUse" color-interpolation-filters="sRGB">
<feFlood flood-opacity="0" result="BackgroundImageFix"/>
<feGaussianBlur in="BackgroundImageFix" stdDeviation="3.5"/>
<feComposite in2="SourceAlpha" operator="in" result="effect1_backgroundBlur_2817_7964"/>
<feBlend mode="normal" in="SourceGraphic" in2="effect1_backgroundBlur_2817_7964" result="shape"/>
</filter>
</defs>
</svg>
