<svg width="49" height="49" viewBox="0 0 49 49" fill="none" xmlns="http://www.w3.org/2000/svg">
<g filter="url(#filter0_b_262_3915)">
<rect width="49" height="49" rx="15" fill="white" fill-opacity="0.03"/>
<rect x="0.5" y="0.5" width="48" height="48" rx="14.5" stroke="#D1D9E2" stroke-opacity="0.3"/>
</g>
<path d="M22.4225 30.6244C22.5171 30.6919 24.5754 32.3797 27.2962 33.3474C27.5328 33.4374 27.8167 33.3249 27.9114 33.0773C28.006 32.8523 27.8877 32.5823 27.6274 32.4922C25.0723 31.5921 23.0612 29.9493 23.0376 29.9493C20.0329 27.4289 18.566 25.3811 17.8799 24.0983C17.1465 22.7256 17.0992 21.9155 17.0992 21.9155C17.0992 21.893 17.0992 21.848 17.0992 21.8255C16.413 18.9675 18.4714 17.2797 18.5424 17.2122C19.1575 16.7171 19.749 16.9872 19.8909 17.0772L22.5881 19.5976C22.872 19.8676 22.9903 20.1377 22.9903 20.4077C22.9666 20.8578 22.5881 21.1954 22.5881 21.1954L22.5644 21.2179L21.3105 22.4106C21.1685 22.5456 21.1212 22.7481 21.2158 22.9057C22.3751 25.3586 24.5518 27.1814 26.1842 28.2615C26.3972 28.3966 26.6101 28.5316 26.823 28.6666C27.3672 28.9817 27.6984 29.1617 27.7221 29.1617C27.9114 29.2517 28.1243 29.2292 28.2662 29.0942L29.8514 27.6089C30.4902 27.2489 30.8687 27.5639 30.9397 27.6314L30.9634 27.6539L33.7078 30.1969C33.9681 30.5119 34.0864 30.8045 34.0391 31.0745C33.9917 31.4346 33.6842 31.6821 33.6842 31.6821C33.6605 31.7046 33.6369 31.7271 33.6132 31.7496C32.0754 33.4824 29.8751 33.0548 29.7568 33.0323C29.4965 32.9873 29.2599 33.1224 29.1889 33.3699C29.1416 33.6174 29.2836 33.8425 29.5438 33.91C29.5912 33.91 29.946 34 30.4665 34C31.4602 34 33.0454 33.7525 34.2993 32.3797C34.4649 32.2672 34.8908 31.8621 34.9854 31.2095C35.0564 30.6694 34.8671 30.1519 34.4413 29.6118C34.4176 29.5893 34.4176 29.5893 34.3939 29.5668L31.6258 27.0013C31.2946 26.6638 30.3956 26.1912 29.3072 26.8438C29.2836 26.8663 29.2599 26.8888 29.2363 26.9113L27.864 28.194C27.7221 28.1265 27.5565 28.014 27.3435 27.9015C27.1306 27.789 26.9413 27.6539 26.7284 27.5189C25.2379 26.5288 23.2978 24.931 22.1859 22.8156L23.2032 21.848C23.3215 21.758 23.8893 21.2179 23.913 20.4527C23.9366 19.9352 23.7 19.4401 23.2269 18.9675L20.5061 16.3796C20.4824 16.3571 20.4588 16.3571 20.4588 16.3346C20.0092 16.042 18.9209 15.6819 17.9272 16.5146C17.8326 16.6046 15.3721 18.6074 16.1528 21.983C16.2001 22.4331 16.626 25.8086 22.4225 30.6244Z" fill="white"/>
<defs>
<filter id="filter0_b_262_3915" x="-7" y="-7" width="63" height="63" filterUnits="userSpaceOnUse" color-interpolation-filters="sRGB">
<feFlood flood-opacity="0" result="BackgroundImageFix"/>
<feGaussianBlur in="BackgroundImageFix" stdDeviation="3.5"/>
<feComposite in2="SourceAlpha" operator="in" result="effect1_backgroundBlur_262_3915"/>
<feBlend mode="normal" in="SourceGraphic" in2="effect1_backgroundBlur_262_3915" result="shape"/>
</filter>
</defs>
</svg>
