<svg width="22" height="21" viewBox="0 0 22 21" fill="none" xmlns="http://www.w3.org/2000/svg">
<path d="M2.18978 0.0923481C1.36858 0.31407 0.728046 0.954603 0.563807 1.72653C0.498111 2.03037 0.481687 4.4529 0.498111 10.037L0.522747 17.9205L0.769106 18.3557C1.03189 18.8403 1.3111 19.1112 1.82845 19.374C2.09123 19.5136 2.35401 19.5629 3.01097 19.5875L3.84859 19.6204V20.3102V21H4.46449H5.08039V20.302V19.604H10.1307H15.1811V14.5536V9.50325H15.9448C17.2094 9.50325 17.8089 9.77425 18.1785 10.5133C18.3673 10.8993 18.3838 11.0143 18.3838 12.0654V13.1986H18.0553C17.6857 13.1986 17.6611 13.2233 16.9138 14.57L16.495 15.3337V17.4689V19.604H18.9997H21.5043V17.4606V15.3255L20.913 14.258L20.3218 13.1986H19.9769H19.632L19.6073 11.8601C19.5745 10.6119 19.5581 10.5051 19.3528 10.0781C18.9997 9.36365 18.6137 8.96948 17.9239 8.63279C17.3326 8.33716 17.2751 8.32894 16.2487 8.28788L15.1811 8.24682L15.1647 4.13263L15.14 0.0184402L8.85789 0.00201607C4.00462 -0.00619698 2.48541 0.0102272 2.18978 0.0923481ZM13.9082 8.10722V14.9642L7.99563 15.0053C3.38872 15.0381 2.04196 15.071 1.90236 15.1531L1.71348 15.2598V8.641C1.71348 1.48838 1.69706 1.72653 2.1405 1.43911C2.24726 1.3652 2.4115 1.29129 2.49362 1.26666C2.58395 1.25023 5.18714 1.23381 8.28305 1.24202L13.9082 1.25023V8.10722ZM19.9358 15.0463L20.2725 15.654V17.0172V18.3722H18.9997H17.7268V17.0172V15.6622L18.0717 15.0463L18.4166 14.4304H19.0079H19.5991L19.9358 15.0463ZM13.9493 17.3046V18.3722H9.51484H5.08039V17.8795V17.3867H4.46449H3.84859V17.8795V18.3722H3.20806C2.74819 18.3722 2.49362 18.3311 2.29653 18.2244C1.96805 18.0519 1.71348 17.6249 1.71348 17.2553C1.71348 16.9515 2.00911 16.4834 2.28832 16.3438C2.44435 16.2617 3.80753 16.2371 8.22557 16.2371H13.9493V17.3046Z" fill="#999999"/>
<path d="M5.57422 4.78254V5.39844H7.83251H10.0908V4.78254V4.16664H7.83251H5.57422V4.78254Z" fill="#999999"/>
<path d="M6.76291 6.77328C5.82675 7.22494 5.30118 8.04614 5.29297 9.05621C5.29297 9.54893 5.32582 9.71317 5.55575 10.1812C5.85959 10.7889 6.14701 11.0764 6.80397 11.3802C7.40344 11.6594 8.20821 11.6676 8.84054 11.3884C9.38252 11.1585 10.0231 10.4687 10.2037 9.9431C10.6225 8.69488 10.0888 7.38097 8.91444 6.77328C8.66808 6.6501 8.38067 6.58441 7.91258 6.56798C7.32132 6.53514 7.20636 6.55977 6.76291 6.77328ZM8.41351 7.90653C8.78305 8.0872 9.03762 8.44852 9.08689 8.88376C9.13617 9.36826 9.06226 9.60641 8.76663 9.95131C8.29033 10.4933 7.51841 10.5179 6.96 10.017C5.83496 8.99873 7.04212 7.25779 8.41351 7.90653Z" fill="#999999"/>
</svg>
