<svg width="49" height="49" viewBox="0 0 49 49" fill="none" xmlns="http://www.w3.org/2000/svg">
<g filter="url(#filter0_b_2817_7842)">
<rect width="49" height="49" rx="15" fill="white" fill-opacity="0.03"/>
<rect x="0.5" y="0.5" width="48" height="48" rx="14.5" stroke="#D1D9E2" stroke-opacity="0.3"/>
<mask id="path-3-outside-1_2817_7842" maskUnits="userSpaceOnUse" x="15" y="15" width="19" height="18" fill="black">
<rect fill="white" x="15" y="15" width="19" height="18"/>
<path d="M19.0228 22.9235C19.1867 23.0189 19.3023 23.118 19.3677 23.2144C19.4516 23.3357 19.4759 23.4726 19.4454 23.6238C19.4068 23.8047 19.3185 23.9336 19.1805 24.01C19.0668 24.0732 18.9337 24.0956 18.7797 24.0775L19.0228 22.9235ZM18.9404 21.9959L19.1548 20.9769C19.0293 20.9667 18.9172 20.9877 18.8262 21.0377C18.6974 21.1052 18.6155 21.2219 18.5793 21.3882C18.5496 21.5273 18.5883 21.6572 18.6928 21.7815C18.7503 21.8487 18.8329 21.9213 18.9404 21.9959ZM20.0768 17.7243L21.9837 19.743L20.4722 26.6263L16 25.5963L17.511 18.7119L20.0768 17.7243ZM19.5521 20.4155L19.6374 20.008L19.3685 19.9488L19.2834 20.3644C18.9291 20.3083 18.6293 20.3531 18.3744 20.4973C18.0822 20.6656 17.8972 20.9367 17.8172 21.3134C17.753 21.6218 17.8027 21.8924 17.966 22.1234C18.1157 22.3364 18.3863 22.5554 18.7724 22.7801L18.5113 24.0165C18.3644 23.9584 18.2585 23.8744 18.1921 23.7642C18.1105 23.6198 18.103 23.4215 18.1689 23.1725L17.3714 22.9959L17.3468 23.0993C17.2628 23.4996 17.3111 23.8296 17.4913 24.0921C17.6725 24.354 17.9655 24.5431 18.3752 24.6603L18.255 25.2315L18.5226 25.2909L18.6431 24.7154C19.0317 24.7845 19.3714 24.7413 19.655 24.585C19.9656 24.4135 20.1603 24.1337 20.2429 23.7443C20.3142 23.4121 20.2745 23.1269 20.1233 22.8917C19.9729 22.6556 19.6823 22.4204 19.2542 22.1857L19.1867 22.1471L19.4219 21.0299C19.5821 21.0793 19.6909 21.149 19.7506 21.2411C19.8238 21.3566 19.8384 21.5219 19.7914 21.7401L20.5413 21.9068C20.6229 21.5181 20.57 21.1919 20.3755 20.927C20.2043 20.6893 19.928 20.5192 19.5521 20.4155ZM24.8221 21.57H24.5155L25.5167 18.739H25.8594H26.2029L27.2048 21.57H26.8905H26.5777L26.3852 20.994H25.312L25.1259 21.57H24.8221ZM25.4756 20.5065H26.2272L25.8513 19.3693V19.3687H25.8499L25.8513 19.3693L25.4756 20.5065ZM31.4834 22.4493H30.4779V23.0802H31.4834V22.4493ZM29.4739 22.4493H28.4695V23.0802H29.4739V22.4493ZM26.4603 23.0802H27.4643V22.4493H26.4603V23.0802ZM25.4556 22.4493H24.4515V23.0802H25.4556V22.4493ZM31.4834 24.2952H30.4779V24.926H31.4834V24.2952ZM29.4739 24.2952H28.4695V24.926H29.4739V24.2952ZM31.4834 19.0322H30.4779V19.6631H31.4834V19.0322ZM29.4739 19.0322H28.4695V19.6631H29.4739V19.0322ZM31.4834 20.8786H30.4779V21.5092H31.4834V20.8786ZM29.4739 20.8786H28.4695V21.5092H29.4739V20.8786ZM26.4603 24.926H27.4643V24.2952H26.4603V24.926ZM25.4556 24.2952H24.4515V24.926H25.4556V24.2952ZM31.4834 26.1413H30.4779V26.7722H31.4834V26.1413ZM29.4739 26.1413H28.4695V26.7722H29.4739V26.1413ZM26.4603 26.7722H27.4643V26.1413H26.4603V26.7722ZM25.4556 26.1413H24.4515V26.7722H25.4556V26.1413ZM31.4834 27.9877H30.4779V28.6186H31.4834V27.9877ZM29.4739 27.9877H28.4695V28.6186H29.4739V27.9877ZM26.4603 28.6186H27.4643V27.9877H26.4603V28.6186ZM25.4556 27.9877H24.4515V28.6186H25.4556V27.9877ZM33.2463 16V32H22.3467V16H33.2463ZM32.3 17.5739H23.293V29.7688H32.3V17.5739ZM28.3229 31.5269V31.0537V30.4744H27.2696V31.0537V31.5269H28.3229Z"/>
</mask>
<path d="M19.0228 22.9235C19.1867 23.0189 19.3023 23.118 19.3677 23.2144C19.4516 23.3357 19.4759 23.4726 19.4454 23.6238C19.4068 23.8047 19.3185 23.9336 19.1805 24.01C19.0668 24.0732 18.9337 24.0956 18.7797 24.0775L19.0228 22.9235ZM18.9404 21.9959L19.1548 20.9769C19.0293 20.9667 18.9172 20.9877 18.8262 21.0377C18.6974 21.1052 18.6155 21.2219 18.5793 21.3882C18.5496 21.5273 18.5883 21.6572 18.6928 21.7815C18.7503 21.8487 18.8329 21.9213 18.9404 21.9959ZM20.0768 17.7243L21.9837 19.743L20.4722 26.6263L16 25.5963L17.511 18.7119L20.0768 17.7243ZM19.5521 20.4155L19.6374 20.008L19.3685 19.9488L19.2834 20.3644C18.9291 20.3083 18.6293 20.3531 18.3744 20.4973C18.0822 20.6656 17.8972 20.9367 17.8172 21.3134C17.753 21.6218 17.8027 21.8924 17.966 22.1234C18.1157 22.3364 18.3863 22.5554 18.7724 22.7801L18.5113 24.0165C18.3644 23.9584 18.2585 23.8744 18.1921 23.7642C18.1105 23.6198 18.103 23.4215 18.1689 23.1725L17.3714 22.9959L17.3468 23.0993C17.2628 23.4996 17.3111 23.8296 17.4913 24.0921C17.6725 24.354 17.9655 24.5431 18.3752 24.6603L18.255 25.2315L18.5226 25.2909L18.6431 24.7154C19.0317 24.7845 19.3714 24.7413 19.655 24.585C19.9656 24.4135 20.1603 24.1337 20.2429 23.7443C20.3142 23.4121 20.2745 23.1269 20.1233 22.8917C19.9729 22.6556 19.6823 22.4204 19.2542 22.1857L19.1867 22.1471L19.4219 21.0299C19.5821 21.0793 19.6909 21.149 19.7506 21.2411C19.8238 21.3566 19.8384 21.5219 19.7914 21.7401L20.5413 21.9068C20.6229 21.5181 20.57 21.1919 20.3755 20.927C20.2043 20.6893 19.928 20.5192 19.5521 20.4155ZM24.8221 21.57H24.5155L25.5167 18.739H25.8594H26.2029L27.2048 21.57H26.8905H26.5777L26.3852 20.994H25.312L25.1259 21.57H24.8221ZM25.4756 20.5065H26.2272L25.8513 19.3693V19.3687H25.8499L25.8513 19.3693L25.4756 20.5065ZM31.4834 22.4493H30.4779V23.0802H31.4834V22.4493ZM29.4739 22.4493H28.4695V23.0802H29.4739V22.4493ZM26.4603 23.0802H27.4643V22.4493H26.4603V23.0802ZM25.4556 22.4493H24.4515V23.0802H25.4556V22.4493ZM31.4834 24.2952H30.4779V24.926H31.4834V24.2952ZM29.4739 24.2952H28.4695V24.926H29.4739V24.2952ZM31.4834 19.0322H30.4779V19.6631H31.4834V19.0322ZM29.4739 19.0322H28.4695V19.6631H29.4739V19.0322ZM31.4834 20.8786H30.4779V21.5092H31.4834V20.8786ZM29.4739 20.8786H28.4695V21.5092H29.4739V20.8786ZM26.4603 24.926H27.4643V24.2952H26.4603V24.926ZM25.4556 24.2952H24.4515V24.926H25.4556V24.2952ZM31.4834 26.1413H30.4779V26.7722H31.4834V26.1413ZM29.4739 26.1413H28.4695V26.7722H29.4739V26.1413ZM26.4603 26.7722H27.4643V26.1413H26.4603V26.7722ZM25.4556 26.1413H24.4515V26.7722H25.4556V26.1413ZM31.4834 27.9877H30.4779V28.6186H31.4834V27.9877ZM29.4739 27.9877H28.4695V28.6186H29.4739V27.9877ZM26.4603 28.6186H27.4643V27.9877H26.4603V28.6186ZM25.4556 27.9877H24.4515V28.6186H25.4556V27.9877ZM33.2463 16V32H22.3467V16H33.2463ZM32.3 17.5739H23.293V29.7688H32.3V17.5739ZM28.3229 31.5269V31.0537V30.4744H27.2696V31.0537V31.5269H28.3229Z" fill="white"/>
<path d="M19.0228 22.9235L19.2741 22.4913L18.6761 22.1435L18.5335 22.8205L19.0228 22.9235ZM19.3677 23.2144L18.9538 23.495L18.9566 23.4991L19.3677 23.2144ZM19.4454 23.6238L19.9344 23.7282L19.9356 23.7227L19.4454 23.6238ZM19.1805 24.01L18.9383 23.5726L18.9376 23.573L19.1805 24.01ZM18.7797 24.0775L18.2905 23.9745L18.1776 24.5102L18.7214 24.5741L18.7797 24.0775ZM18.9404 21.9959L18.6555 22.4068L19.2746 22.8361L19.4297 22.0988L18.9404 21.9959ZM19.1548 20.9769L19.6441 21.0799L19.7609 20.5248L19.1956 20.4786L19.1548 20.9769ZM18.8262 21.0377L19.0583 21.4807L19.0668 21.476L18.8262 21.0377ZM18.5793 21.3882L18.0908 21.282L18.0904 21.2838L18.5793 21.3882ZM18.6928 21.7815L18.3102 22.1034L18.3128 22.1065L18.6928 21.7815ZM20.0768 17.7243L20.4403 17.381L20.2101 17.1373L19.8972 17.2577L20.0768 17.7243ZM21.9837 19.743L22.4721 19.8503L22.5288 19.592L22.3472 19.3997L21.9837 19.743ZM20.4722 26.6263L20.36 27.1136L20.8522 27.227L20.9606 26.7336L20.4722 26.6263ZM16 25.5963L15.5116 25.4891L15.4055 25.9725L15.8878 26.0836L16 25.5963ZM17.511 18.7119L17.3314 18.2453L17.0803 18.342L17.0226 18.6048L17.511 18.7119ZM19.5521 20.4155L19.0627 20.313L18.9665 20.7726L19.4191 20.8975L19.5521 20.4155ZM19.6374 20.008L20.1268 20.1104L20.2283 19.6259L19.7448 19.5196L19.6374 20.008ZM19.3685 19.9488L19.4758 19.4605L18.9803 19.3515L18.8786 19.8486L19.3685 19.9488ZM19.2834 20.3644L19.2051 20.8583L19.6774 20.9331L19.7732 20.4647L19.2834 20.3644ZM18.3744 20.4973L18.1282 20.0621L18.1249 20.064L18.3744 20.4973ZM17.8172 21.3134L17.3281 21.2097L17.3278 21.2114L17.8172 21.3134ZM17.966 22.1234L18.3752 21.836L18.3742 21.8345L17.966 22.1234ZM18.7724 22.7801L19.2616 22.8835L19.3364 22.5298L19.0239 22.348L18.7724 22.7801ZM18.5113 24.0165L18.3275 24.4815L18.8781 24.6991L19.0005 24.1198L18.5113 24.0165ZM18.1921 23.7642L17.7567 24.01L17.7602 24.0163L17.7639 24.0224L18.1921 23.7642ZM18.1689 23.1725L18.6522 23.3005L18.7855 22.797L18.277 22.6844L18.1689 23.1725ZM17.3714 22.9959L17.4795 22.5077L16.9987 22.4013L16.8849 22.8803L17.3714 22.9959ZM17.3468 23.0993L16.8602 22.9837L16.8574 22.9967L17.3468 23.0993ZM17.4913 24.0921L17.079 24.375L17.0801 24.3765L17.4913 24.0921ZM18.3752 24.6603L18.8645 24.7632L18.9603 24.3076L18.5127 24.1796L18.3752 24.6603ZM18.255 25.2315L17.7657 25.1285L17.6639 25.6124L18.1466 25.7196L18.255 25.2315ZM18.5226 25.2909L18.4143 25.779L18.9084 25.8887L19.012 25.3933L18.5226 25.2909ZM18.6431 24.7154L18.7307 24.2231L18.2531 24.1382L18.1537 24.613L18.6431 24.7154ZM19.655 24.585L19.8964 25.0228L19.8967 25.0227L19.655 24.585ZM20.2429 23.7443L19.7541 23.6393L19.7538 23.6405L20.2429 23.7443ZM20.1233 22.8917L19.7016 23.1604L19.7027 23.1621L20.1233 22.8917ZM19.2542 22.1857L19.0059 22.6198L19.0139 22.6242L19.2542 22.1857ZM19.1867 22.1471L18.6974 22.0441L18.6224 22.4004L18.9385 22.5811L19.1867 22.1471ZM19.4219 21.0299L19.5694 20.5521L19.0456 20.3905L18.9327 20.9269L19.4219 21.0299ZM19.7506 21.2411L20.1731 20.9736L20.1702 20.9691L19.7506 21.2411ZM19.7914 21.7401L19.3026 21.6349L19.198 22.1205L19.6829 22.2282L19.7914 21.7401ZM20.5413 21.9068L20.4329 22.3949L20.9268 22.5046L21.0307 22.0095L20.5413 21.9068ZM20.3755 20.927L19.9698 21.2193L19.9724 21.2228L20.3755 20.927ZM24.5155 21.57L24.0442 21.4033L23.8084 22.07H24.5155V21.57ZM25.5167 18.739V18.239H25.1631L25.0453 18.5723L25.5167 18.739ZM26.2029 18.739L26.6742 18.5721L26.5563 18.239H26.2029V18.739ZM27.2048 21.57V22.07H27.9121L27.6762 21.4032L27.2048 21.57ZM26.5777 21.57L26.1035 21.7285L26.2177 22.07H26.5777V21.57ZM26.3852 20.994L26.8594 20.8354L26.7452 20.494H26.3852V20.994ZM25.312 20.994V20.494H24.948L24.8362 20.8403L25.312 20.994ZM25.1259 21.57V22.07H25.4898L25.6017 21.7237L25.1259 21.57ZM25.4756 20.5065L25.0008 20.3497L24.7839 21.0065H25.4756V20.5065ZM26.2272 20.5065V21.0065H26.9191L26.7019 20.3496L26.2272 20.5065ZM25.8513 19.3687H26.3513V18.8687H25.8513V19.3687ZM25.8499 19.3687V18.8687L25.6642 19.833L25.8499 19.3687ZM31.4834 22.4493H31.9834V21.9493H31.4834V22.4493ZM30.4779 22.4493V21.9493H29.9779V22.4493H30.4779ZM30.4779 23.0802H29.9779V23.5802H30.4779V23.0802ZM31.4834 23.0802V23.5802H31.9834V23.0802H31.4834ZM29.4739 22.4493H29.9739V21.9493H29.4739V22.4493ZM28.4695 22.4493V21.9493H27.9695V22.4493H28.4695ZM28.4695 23.0802H27.9695V23.5802H28.4695V23.0802ZM29.4739 23.0802V23.5802H29.9739V23.0802H29.4739ZM26.4603 23.0802H25.9603V23.5802H26.4603V23.0802ZM27.4643 23.0802V23.5802H27.9643V23.0802H27.4643ZM27.4643 22.4493H27.9643V21.9493H27.4643V22.4493ZM26.4603 22.4493V21.9493H25.9603V22.4493H26.4603ZM25.4556 22.4493H25.9556V21.9493H25.4556V22.4493ZM24.4515 22.4493V21.9493H23.9515V22.4493H24.4515ZM24.4515 23.0802H23.9515V23.5802H24.4515V23.0802ZM25.4556 23.0802V23.5802H25.9556V23.0802H25.4556ZM31.4834 24.2952H31.9834V23.7952H31.4834V24.2952ZM30.4779 24.2952V23.7952H29.9779V24.2952H30.4779ZM30.4779 24.926H29.9779V25.426H30.4779V24.926ZM31.4834 24.926V25.426H31.9834V24.926H31.4834ZM29.4739 24.2952H29.9739V23.7952H29.4739V24.2952ZM28.4695 24.2952V23.7952H27.9695V24.2952H28.4695ZM28.4695 24.926H27.9695V25.426H28.4695V24.926ZM29.4739 24.926V25.426H29.9739V24.926H29.4739ZM31.4834 19.0322H31.9834V18.5322H31.4834V19.0322ZM30.4779 19.0322V18.5322H29.9779V19.0322H30.4779ZM30.4779 19.6631H29.9779V20.1631H30.4779V19.6631ZM31.4834 19.6631V20.1631H31.9834V19.6631H31.4834ZM29.4739 19.0322H29.9739V18.5322H29.4739V19.0322ZM28.4695 19.0322V18.5322H27.9695V19.0322H28.4695ZM28.4695 19.6631H27.9695V20.1631H28.4695V19.6631ZM29.4739 19.6631V20.1631H29.9739V19.6631H29.4739ZM31.4834 20.8786H31.9834V20.3786H31.4834V20.8786ZM30.4779 20.8786V20.3786H29.9779V20.8786H30.4779ZM30.4779 21.5092H29.9779V22.0092H30.4779V21.5092ZM31.4834 21.5092V22.0092H31.9834V21.5092H31.4834ZM29.4739 20.8786H29.9739V20.3786H29.4739V20.8786ZM28.4695 20.8786V20.3786H27.9695V20.8786H28.4695ZM28.4695 21.5092H27.9695V22.0092H28.4695V21.5092ZM29.4739 21.5092V22.0092H29.9739V21.5092H29.4739ZM26.4603 24.926H25.9603V25.426H26.4603V24.926ZM27.4643 24.926V25.426H27.9643V24.926H27.4643ZM27.4643 24.2952H27.9643V23.7952H27.4643V24.2952ZM26.4603 24.2952V23.7952H25.9603V24.2952H26.4603ZM25.4556 24.2952H25.9556V23.7952H25.4556V24.2952ZM24.4515 24.2952V23.7952H23.9515V24.2952H24.4515ZM24.4515 24.926H23.9515V25.426H24.4515V24.926ZM25.4556 24.926V25.426H25.9556V24.926H25.4556ZM31.4834 26.1413H31.9834V25.6413H31.4834V26.1413ZM30.4779 26.1413V25.6413H29.9779V26.1413H30.4779ZM30.4779 26.7722H29.9779V27.2722H30.4779V26.7722ZM31.4834 26.7722V27.2722H31.9834V26.7722H31.4834ZM29.4739 26.1413H29.9739V25.6413H29.4739V26.1413ZM28.4695 26.1413V25.6413H27.9695V26.1413H28.4695ZM28.4695 26.7722H27.9695V27.2722H28.4695V26.7722ZM29.4739 26.7722V27.2722H29.9739V26.7722H29.4739ZM26.4603 26.7722H25.9603V27.2722H26.4603V26.7722ZM27.4643 26.7722V27.2722H27.9643V26.7722H27.4643ZM27.4643 26.1413H27.9643V25.6413H27.4643V26.1413ZM26.4603 26.1413V25.6413H25.9603V26.1413H26.4603ZM25.4556 26.1413H25.9556V25.6413H25.4556V26.1413ZM24.4515 26.1413V25.6413H23.9515V26.1413H24.4515ZM24.4515 26.7722H23.9515V27.2722H24.4515V26.7722ZM25.4556 26.7722V27.2722H25.9556V26.7722H25.4556ZM31.4834 27.9877H31.9834V27.4877H31.4834V27.9877ZM30.4779 27.9877V27.4877H29.9779V27.9877H30.4779ZM30.4779 28.6186H29.9779V29.1186H30.4779V28.6186ZM31.4834 28.6186V29.1186H31.9834V28.6186H31.4834ZM29.4739 27.9877H29.9739V27.4877H29.4739V27.9877ZM28.4695 27.9877V27.4877H27.9695V27.9877H28.4695ZM28.4695 28.6186H27.9695V29.1186H28.4695V28.6186ZM29.4739 28.6186V29.1186H29.9739V28.6186H29.4739ZM26.4603 28.6186H25.9603V29.1186H26.4603V28.6186ZM27.4643 28.6186V29.1186H27.9643V28.6186H27.4643ZM27.4643 27.9877H27.9643V27.4877H27.4643V27.9877ZM26.4603 27.9877V27.4877H25.9603V27.9877H26.4603ZM25.4556 27.9877H25.9556V27.4877H25.4556V27.9877ZM24.4515 27.9877V27.4877H23.9515V27.9877H24.4515ZM24.4515 28.6186H23.9515V29.1186H24.4515V28.6186ZM25.4556 28.6186V29.1186H25.9556V28.6186H25.4556ZM33.2463 16H33.7463V15.5H33.2463V16ZM33.2463 32V32.5H33.7463V32H33.2463ZM22.3467 32H21.8467V32.5H22.3467V32ZM22.3467 16V15.5H21.8467V16H22.3467ZM32.3 17.5739H32.8V17.0739H32.3V17.5739ZM23.293 17.5739V17.0739H22.793V17.5739H23.293ZM23.293 29.7688H22.793V30.2688H23.293V29.7688ZM32.3 29.7688V30.2688H32.8V29.7688H32.3ZM28.3229 31.5269V32.0269H28.8229V31.5269H28.3229ZM28.3229 30.4744H28.8229V29.9744H28.3229V30.4744ZM27.2696 30.4744V29.9744H26.7696V30.4744H27.2696ZM27.2696 31.5269H26.7696V32.0269H27.2696V31.5269ZM18.7714 23.3558C18.8332 23.3917 18.878 23.4238 18.909 23.4501C18.9407 23.4769 18.9524 23.4929 18.9538 23.4949L19.7815 22.9338C19.6575 22.7509 19.4714 22.6061 19.2741 22.4913L18.7714 23.3558ZM18.9566 23.4991C18.9588 23.5023 18.9592 23.5035 18.9589 23.5027C18.9585 23.5018 18.9582 23.5007 18.958 23.4997C18.9578 23.4988 18.9581 23.4998 18.9581 23.5034C18.958 23.507 18.9575 23.5141 18.9553 23.5249L19.9356 23.7227C19.9902 23.4517 19.9476 23.1736 19.7787 22.9297L18.9566 23.4991ZM18.9564 23.5194C18.9483 23.5576 18.9389 23.5718 18.9379 23.5733C18.9373 23.5741 18.9377 23.5735 18.9388 23.5725C18.94 23.5714 18.9402 23.5715 18.9383 23.5726L19.4227 24.4474C19.7097 24.2885 19.8714 24.0234 19.9344 23.7282L18.9564 23.5194ZM18.9376 23.573C18.9321 23.576 18.9084 23.5892 18.8381 23.5809L18.7214 24.5741C18.959 24.602 19.2015 24.5704 19.4234 24.447L18.9376 23.573ZM19.269 24.1806L19.5121 23.0266L18.5335 22.8205L18.2905 23.9745L19.269 24.1806ZM19.4297 22.0988L19.6441 21.0799L18.6656 20.874L18.4511 21.8929L19.4297 22.0988ZM19.1956 20.4786C18.9917 20.4619 18.778 20.4938 18.5856 20.5994L19.0668 21.476C19.0564 21.4817 19.0668 21.4714 19.1141 21.4753L19.1956 20.4786ZM18.5941 20.5948C18.3104 20.7435 18.1522 20.9995 18.0908 21.282L19.0679 21.4945C19.0746 21.4639 19.081 21.4578 19.077 21.4636C19.075 21.4664 19.0718 21.4702 19.0674 21.474C19.063 21.4778 19.0596 21.4799 19.0583 21.4806L18.5941 20.5948ZM18.0904 21.2838C18.0227 21.6005 18.1254 21.8837 18.3102 22.1033L19.0754 21.4596C19.0587 21.4398 19.0618 21.4368 19.0659 21.4509C19.0679 21.4577 19.0693 21.4661 19.0696 21.4749C19.0699 21.4837 19.0689 21.4899 19.0683 21.4927L18.0904 21.2838ZM18.3128 22.1065C18.406 22.2154 18.5242 22.3157 18.6555 22.4068L19.2253 21.585C19.1417 21.527 19.0946 21.482 19.0727 21.4564L18.3128 22.1065ZM19.7134 18.0677L21.6203 20.0864L22.3472 19.3997L20.4403 17.381L19.7134 18.0677ZM21.4954 19.6358L19.9838 26.5191L20.9606 26.7336L22.4721 19.8503L21.4954 19.6358ZM20.5844 26.1391L16.1122 25.1091L15.8878 26.0836L20.36 27.1136L20.5844 26.1391ZM16.4884 25.7035L17.9994 18.8191L17.0226 18.6048L15.5116 25.4891L16.4884 25.7035ZM17.6906 19.1786L20.2564 18.191L19.8972 17.2577L17.3314 18.2453L17.6906 19.1786ZM20.0415 20.518L20.1268 20.1104L19.1481 19.9055L19.0627 20.313L20.0415 20.518ZM19.7448 19.5196L19.4758 19.4605L19.2611 20.4372L19.5301 20.4963L19.7448 19.5196ZM18.8786 19.8486L18.7935 20.2642L19.7732 20.4647L19.8583 20.0491L18.8786 19.8486ZM19.3617 19.8706C18.9197 19.8005 18.5008 19.8514 18.1282 20.0621L18.6206 20.9325C18.7578 20.8548 18.9385 20.816 19.2051 20.8583L19.3617 19.8706ZM18.1249 20.064C17.6914 20.3136 17.4329 20.716 17.3281 21.2097L18.3063 21.4172C18.3615 21.1574 18.4729 21.0175 18.6239 20.9306L18.1249 20.064ZM17.3278 21.2114C17.2387 21.6386 17.3047 22.0544 17.5579 22.4122L18.3742 21.8345C18.3006 21.7305 18.2672 21.6051 18.3067 21.4155L17.3278 21.2114ZM17.5568 22.4107C17.7683 22.7118 18.1126 22.9747 18.521 23.2123L19.0239 22.348C18.6599 22.1362 18.463 21.9611 18.3752 21.836L17.5568 22.4107ZM18.2832 22.6768L18.0221 23.9131L19.0005 24.1198L19.2616 22.8835L18.2832 22.6768ZM18.6951 23.5515C18.6599 23.5376 18.6409 23.525 18.6317 23.5177C18.6234 23.5112 18.6211 23.5074 18.6203 23.5061L17.7639 24.0224C17.8984 24.2454 18.1014 24.3921 18.3275 24.4815L18.6951 23.5515ZM18.6275 23.5184C18.6328 23.5278 18.6261 23.5228 18.6248 23.4881C18.6234 23.4515 18.6283 23.3906 18.6522 23.3005L17.6855 23.0446C17.6043 23.3514 17.5831 23.7026 17.7567 24.01L18.6275 23.5184ZM18.277 22.6844L17.4795 22.5077L17.2633 23.4841L18.0607 23.6607L18.277 22.6844ZM16.8849 22.8803L16.8603 22.9838L17.8332 23.2149L17.8578 23.1115L16.8849 22.8803ZM16.8574 22.9967C16.7537 23.491 16.8014 23.9704 17.079 24.375L17.9035 23.8092C17.8209 23.6888 17.7719 23.5081 17.8361 23.202L16.8574 22.9967ZM17.0801 24.3765C17.3459 24.7609 17.7535 25.0025 18.2377 25.141L18.5127 24.1796C18.1775 24.0837 17.999 23.9472 17.9025 23.8076L17.0801 24.3765ZM17.8859 24.5574L17.7657 25.1285L18.7443 25.3344L18.8645 24.7632L17.8859 24.5574ZM18.1466 25.7196L18.4143 25.779L18.631 24.8028L18.3634 24.7434L18.1466 25.7196ZM19.012 25.3933L19.1325 24.8178L18.1537 24.613L18.0332 25.1885L19.012 25.3933ZM18.5555 25.2077C19.0303 25.2921 19.4914 25.2461 19.8964 25.0228L19.4136 24.1471C19.2515 24.2365 19.0331 24.2769 18.7307 24.2231L18.5555 25.2077ZM19.8967 25.0227C20.3517 24.7714 20.6237 24.3587 20.732 23.848L19.7538 23.6405C19.6969 23.9086 19.5795 24.0555 19.4133 24.1472L19.8967 25.0227ZM20.7318 23.8492C20.8243 23.418 20.7817 22.9912 20.5439 22.6213L19.7027 23.1621C19.7673 23.2626 19.8041 23.4061 19.7541 23.6393L20.7318 23.8492ZM20.5449 22.623C20.3268 22.2807 19.9479 21.9958 19.4946 21.7473L19.0139 22.6242C19.4167 22.845 19.6189 23.0306 19.7016 23.1604L20.5449 22.623ZM19.5025 21.7517L19.435 21.7131L18.9385 22.5811L19.006 22.6197L19.5025 21.7517ZM19.676 22.2501L19.9112 21.1329L18.9327 20.9269L18.6974 22.0441L19.676 22.2501ZM19.2745 21.5076C19.3234 21.5227 19.3466 21.5356 19.3538 21.5402C19.3596 21.5439 19.3463 21.5366 19.331 21.513L20.1702 20.9691C20.0203 20.7378 19.784 20.6184 19.5694 20.5521L19.2745 21.5076ZM19.3282 21.5085C19.3137 21.4858 19.3162 21.4748 19.3178 21.4936C19.3195 21.5146 19.3188 21.5594 19.3026 21.6349L20.2802 21.8454C20.3391 21.5719 20.3481 21.25 20.173 20.9736L19.3282 21.5085ZM19.6829 22.2282L20.4329 22.3949L20.6498 21.4187L19.8998 21.252L19.6829 22.2282ZM21.0307 22.0095C21.134 21.5173 21.0764 21.0369 20.7786 20.6311L19.9724 21.2228C20.0635 21.3469 20.1118 21.519 20.052 21.8041L21.0307 22.0095ZM20.7812 20.6347C20.5231 20.2765 20.1321 20.0568 19.6851 19.9335L19.4191 20.8975C19.724 20.9816 19.8855 21.1021 19.9698 21.2193L20.7812 20.6347ZM24.8221 21.07H24.5155V22.07H24.8221V21.07ZM24.9869 21.7367L25.9881 18.9056L25.0453 18.5723L24.0442 21.4033L24.9869 21.7367ZM25.5167 19.239H25.8594V18.239H25.5167V19.239ZM25.8594 19.239H26.2029V18.239H25.8594V19.239ZM25.7315 18.9058L26.7335 21.7368L27.6762 21.4032L26.6742 18.5721L25.7315 18.9058ZM27.2048 21.07H26.8905V22.07H27.2048V21.07ZM26.8905 21.07H26.5777V22.07H26.8905V21.07ZM27.0519 21.4115L26.8594 20.8354L25.911 21.1525L26.1035 21.7285L27.0519 21.4115ZM26.3852 20.494H25.312V21.494H26.3852V20.494ZM24.8362 20.8403L24.6501 21.4163L25.6017 21.7237L25.7877 21.1476L24.8362 20.8403ZM25.1259 21.07H24.8221V22.07H25.1259V21.07ZM25.4756 21.0065H26.2272V20.0065H25.4756V21.0065ZM26.7019 20.3496L26.326 19.2123L25.3765 19.5262L25.7525 20.6634L26.7019 20.3496ZM26.3513 19.3693V19.3687H25.3513V19.3693H26.3513ZM25.8513 18.8687H25.8499V19.8687H25.8513V18.8687ZM25.6642 19.833L25.6655 19.8335L26.037 18.905L26.0356 18.9045L25.6642 19.833ZM25.3765 19.2124L25.0008 20.3497L25.9504 20.6633L26.326 19.5261L25.3765 19.2124ZM31.4834 21.9493H30.4779V22.9493H31.4834V21.9493ZM29.9779 22.4493V23.0802H30.9779V22.4493H29.9779ZM30.4779 23.5802H31.4834V22.5802H30.4779V23.5802ZM31.9834 23.0802V22.4493H30.9834V23.0802H31.9834ZM29.4739 21.9493H28.4695V22.9493H29.4739V21.9493ZM27.9695 22.4493V23.0802H28.9695V22.4493H27.9695ZM28.4695 23.5802H29.4739V22.5802H28.4695V23.5802ZM29.9739 23.0802V22.4493H28.9739V23.0802H29.9739ZM26.4603 23.5802H27.4643V22.5802H26.4603V23.5802ZM27.9643 23.0802V22.4493H26.9643V23.0802H27.9643ZM27.4643 21.9493H26.4603V22.9493H27.4643V21.9493ZM25.9603 22.4493V23.0802H26.9603V22.4493H25.9603ZM25.4556 21.9493H24.4515V22.9493H25.4556V21.9493ZM23.9515 22.4493V23.0802H24.9515V22.4493H23.9515ZM24.4515 23.5802H25.4556V22.5802H24.4515V23.5802ZM25.9556 23.0802V22.4493H24.9556V23.0802H25.9556ZM31.4834 23.7952H30.4779V24.7952H31.4834V23.7952ZM29.9779 24.2952V24.926H30.9779V24.2952H29.9779ZM30.4779 25.426H31.4834V24.426H30.4779V25.426ZM31.9834 24.926V24.2952H30.9834V24.926H31.9834ZM29.4739 23.7952H28.4695V24.7952H29.4739V23.7952ZM27.9695 24.2952V24.926H28.9695V24.2952H27.9695ZM28.4695 25.426H29.4739V24.426H28.4695V25.426ZM29.9739 24.926V24.2952H28.9739V24.926H29.9739ZM31.4834 18.5322H30.4779V19.5322H31.4834V18.5322ZM29.9779 19.0322V19.6631H30.9779V19.0322H29.9779ZM30.4779 20.1631H31.4834V19.1631H30.4779V20.1631ZM31.9834 19.6631V19.0322H30.9834V19.6631H31.9834ZM29.4739 18.5322H28.4695V19.5322H29.4739V18.5322ZM27.9695 19.0322V19.6631H28.9695V19.0322H27.9695ZM28.4695 20.1631H29.4739V19.1631H28.4695V20.1631ZM29.9739 19.6631V19.0322H28.9739V19.6631H29.9739ZM31.4834 20.3786H30.4779V21.3786H31.4834V20.3786ZM29.9779 20.8786V21.5092H30.9779V20.8786H29.9779ZM30.4779 22.0092H31.4834V21.0092H30.4779V22.0092ZM31.9834 21.5092V20.8786H30.9834V21.5092H31.9834ZM29.4739 20.3786H28.4695V21.3786H29.4739V20.3786ZM27.9695 20.8786V21.5092H28.9695V20.8786H27.9695ZM28.4695 22.0092H29.4739V21.0092H28.4695V22.0092ZM29.9739 21.5092V20.8786H28.9739V21.5092H29.9739ZM26.4603 25.426H27.4643V24.426H26.4603V25.426ZM27.9643 24.926V24.2952H26.9643V24.926H27.9643ZM27.4643 23.7952H26.4603V24.7952H27.4643V23.7952ZM25.9603 24.2952V24.926H26.9603V24.2952H25.9603ZM25.4556 23.7952H24.4515V24.7952H25.4556V23.7952ZM23.9515 24.2952V24.926H24.9515V24.2952H23.9515ZM24.4515 25.426H25.4556V24.426H24.4515V25.426ZM25.9556 24.926V24.2952H24.9556V24.926H25.9556ZM31.4834 25.6413H30.4779V26.6413H31.4834V25.6413ZM29.9779 26.1413V26.7722H30.9779V26.1413H29.9779ZM30.4779 27.2722H31.4834V26.2722H30.4779V27.2722ZM31.9834 26.7722V26.1413H30.9834V26.7722H31.9834ZM29.4739 25.6413H28.4695V26.6413H29.4739V25.6413ZM27.9695 26.1413V26.7722H28.9695V26.1413H27.9695ZM28.4695 27.2722H29.4739V26.2722H28.4695V27.2722ZM29.9739 26.7722V26.1413H28.9739V26.7722H29.9739ZM26.4603 27.2722H27.4643V26.2722H26.4603V27.2722ZM27.9643 26.7722V26.1413H26.9643V26.7722H27.9643ZM27.4643 25.6413H26.4603V26.6413H27.4643V25.6413ZM25.9603 26.1413V26.7722H26.9603V26.1413H25.9603ZM25.4556 25.6413H24.4515V26.6413H25.4556V25.6413ZM23.9515 26.1413V26.7722H24.9515V26.1413H23.9515ZM24.4515 27.2722H25.4556V26.2722H24.4515V27.2722ZM25.9556 26.7722V26.1413H24.9556V26.7722H25.9556ZM31.4834 27.4877H30.4779V28.4877H31.4834V27.4877ZM29.9779 27.9877V28.6186H30.9779V27.9877H29.9779ZM30.4779 29.1186H31.4834V28.1186H30.4779V29.1186ZM31.9834 28.6186V27.9877H30.9834V28.6186H31.9834ZM29.4739 27.4877H28.4695V28.4877H29.4739V27.4877ZM27.9695 27.9877V28.6186H28.9695V27.9877H27.9695ZM28.4695 29.1186H29.4739V28.1186H28.4695V29.1186ZM29.9739 28.6186V27.9877H28.9739V28.6186H29.9739ZM26.4603 29.1186H27.4643V28.1186H26.4603V29.1186ZM27.9643 28.6186V27.9877H26.9643V28.6186H27.9643ZM27.4643 27.4877H26.4603V28.4877H27.4643V27.4877ZM25.9603 27.9877V28.6186H26.9603V27.9877H25.9603ZM25.4556 27.4877H24.4515V28.4877H25.4556V27.4877ZM23.9515 27.9877V28.6186H24.9515V27.9877H23.9515ZM24.4515 29.1186H25.4556V28.1186H24.4515V29.1186ZM25.9556 28.6186V27.9877H24.9556V28.6186H25.9556ZM32.7463 16V32H33.7463V16H32.7463ZM33.2463 31.5H22.3467V32.5H33.2463V31.5ZM22.8467 32V16H21.8467V32H22.8467ZM22.3467 16.5H33.2463V15.5H22.3467V16.5ZM32.3 17.0739H23.293V18.0739H32.3V17.0739ZM22.793 17.5739V29.7688H23.793V17.5739H22.793ZM23.293 30.2688H32.3V29.2688H23.293V30.2688ZM32.8 29.7688V17.5739H31.8V29.7688H32.8ZM28.8229 31.5269V31.0537H27.8229V31.5269H28.8229ZM28.8229 31.0537V30.4744H27.8229V31.0537H28.8229ZM28.3229 29.9744H27.2696V30.9744H28.3229V29.9744ZM26.7696 30.4744V31.0537H27.7696V30.4744H26.7696ZM26.7696 31.0537V31.5269H27.7696V31.0537H26.7696ZM27.2696 32.0269H28.3229V31.0269H27.2696V32.0269Z" fill="#373737" mask="url(#path-3-outside-1_2817_7842)"/>
</g>
<defs>
<filter id="filter0_b_2817_7842" x="-7" y="-7" width="63" height="63" filterUnits="userSpaceOnUse" color-interpolation-filters="sRGB">
<feFlood flood-opacity="0" result="BackgroundImageFix"/>
<feGaussianBlur in="BackgroundImageFix" stdDeviation="3.5"/>
<feComposite in2="SourceAlpha" operator="in" result="effect1_backgroundBlur_2817_7842"/>
<feBlend mode="normal" in="SourceGraphic" in2="effect1_backgroundBlur_2817_7842" result="shape"/>
</filter>
</defs>
</svg>
