<svg width="17" height="17" viewBox="0 0 17 17" fill="none" xmlns="http://www.w3.org/2000/svg">
<path d="M1.37424 0.0747816C0.709459 0.254271 0.190933 0.772797 0.0579776 1.39769C0.00479543 1.64365 -0.00850011 3.60475 0.00479543 8.12523L0.0247387 14.5071L0.224172 14.8594C0.4369 15.2516 0.662925 15.471 1.08173 15.6837C1.29446 15.7968 1.50719 15.8366 2.03901 15.8566L2.71709 15.8832V16.4416V17H3.21567H3.71425V16.4349V15.8699H7.80263H11.891V11.7815V7.69312H12.5092C13.533 7.69312 14.0183 7.9125 14.3174 8.5108C14.4703 8.82324 14.4836 8.91631 14.4836 9.76723V10.6846H14.2177C13.9186 10.6846 13.8986 10.7046 13.2937 11.7948L12.9546 12.413V14.1415V15.8699H14.9822H17.0098V14.1348V12.4064L16.5311 11.5422L16.0525 10.6846H15.7733H15.4941L15.4742 9.60103C15.4476 8.59057 15.4343 8.50415 15.2681 8.15847C14.9822 7.58011 14.6698 7.26102 14.1114 6.98846C13.6327 6.74914 13.5862 6.74249 12.7552 6.70925L11.891 6.67602L11.8777 3.34548L11.8578 0.0149517L6.77222 0.00165612C2.84339 -0.00499164 1.61356 0.00830389 1.37424 0.0747816ZM10.8606 6.563V12.1139L6.07421 12.1471C2.34481 12.1737 1.25458 12.2003 1.14156 12.2668L0.988665 12.3532V6.99511C0.988665 1.2049 0.97537 1.39769 1.33435 1.16502C1.42077 1.10519 1.55373 1.04536 1.6202 1.02541C1.69333 1.01212 3.80067 0.998821 6.30688 1.00547L10.8606 1.01212V6.563ZM15.7401 12.1804L16.0126 12.6723V13.7758V14.8727H14.9822H13.9518V13.7758V12.679L14.231 12.1804L14.5102 11.6818H14.9889H15.4675L15.7401 12.1804ZM10.8938 14.0085V14.8727H7.30405H3.71425V14.4738V14.075H3.21567H2.71709V14.4738V14.8727H2.19856C1.82628 14.8727 1.6202 14.8395 1.46066 14.7531C1.19475 14.6135 0.988665 14.2678 0.988665 13.9686C0.988665 13.7227 1.22798 13.3437 1.45401 13.2307C1.58032 13.1642 2.68385 13.1443 6.26035 13.1443H10.8938V14.0085Z" fill="white"/>
<path d="M4.11719 3.87251V4.37109H5.94532H7.77346V3.87251V3.37393H5.94532H4.11719V3.87251Z" fill="white"/>
<path d="M5.08058 5.48444C4.32273 5.85007 3.89727 6.51485 3.89062 7.33252C3.89062 7.73139 3.91722 7.86434 4.10335 8.24327C4.34932 8.7352 4.58199 8.96787 5.11381 9.21384C5.5991 9.43986 6.25058 9.44651 6.76246 9.22049C7.20121 9.03435 7.71974 8.47594 7.86599 8.05048C8.20503 7.04002 7.77292 5.97638 6.82229 5.48444C6.62286 5.38473 6.39019 5.33154 6.01126 5.31825C5.53262 5.29166 5.43956 5.3116 5.08058 5.48444ZM6.41678 6.40183C6.71593 6.54808 6.92201 6.84059 6.96189 7.19292C7.00178 7.58514 6.94195 7.77792 6.70263 8.05713C6.31706 8.49588 5.69217 8.51582 5.24012 8.11031C4.32938 7.28599 5.3066 5.87666 6.41678 6.40183Z" fill="white"/>
</svg>
