<svg width="18" height="17" viewBox="0 0 18 17" fill="none" xmlns="http://www.w3.org/2000/svg">
<path d="M1.37521 0.0747814C0.710436 0.254271 0.19191 0.772797 0.0589541 1.39769C0.00577199 1.64365 -0.00752354 3.60475 0.00577199 8.12523L0.0257153 14.5071L0.225148 14.8594C0.437877 15.2516 0.663901 15.471 1.08271 15.6837C1.29544 15.7968 1.50817 15.8366 2.03999 15.8566L2.71806 15.8832V16.4416V17H3.21664H3.71523V16.4349V15.8699H7.8036H11.892V11.7815V7.69312H12.5102C13.534 7.69312 14.0193 7.9125 14.3184 8.5108C14.4713 8.82325 14.4846 8.91631 14.4846 9.76723V10.6846H14.2187C13.9196 10.6846 13.8996 10.7046 13.2947 11.7948L12.9556 12.413V14.1415V15.8699H14.9832H17.0108V14.1348V12.4064L16.5321 11.5422L16.0535 10.6846H15.7743H15.4951L15.4751 9.60103C15.4485 8.59057 15.4352 8.50415 15.269 8.15847C14.9832 7.58011 14.6708 7.26102 14.1123 6.98846C13.6337 6.74914 13.5872 6.74249 12.7562 6.70925L11.892 6.67602L11.8787 3.34548L11.8587 0.0149517L6.7732 0.00165558C2.84437 -0.00499153 1.61453 0.0083046 1.37521 0.0747814ZM10.8616 6.563V12.1139L6.07519 12.1471C2.34579 12.1737 1.25555 12.2003 1.14254 12.2668L0.989642 12.3532V6.99511C0.989642 1.2049 0.976346 1.39769 1.33533 1.16502C1.42175 1.10519 1.5547 1.04536 1.62118 1.02541C1.69431 1.01212 3.80165 0.998821 6.30786 1.00547L10.8616 1.01212V6.563ZM15.741 12.1804L16.0136 12.6723V13.7758V14.8727H14.9832H13.9528V13.7758V12.679L14.232 12.1804L14.5112 11.6818H14.9898H15.4685L15.741 12.1804ZM10.8948 14.0085V14.8727H7.30502H3.71523V14.4738V14.075H3.21664H2.71806V14.4738V14.8727H2.19954C1.82726 14.8727 1.62118 14.8395 1.46163 14.7531C1.19572 14.6135 0.989642 14.2678 0.989642 13.9686C0.989642 13.7227 1.22896 13.3437 1.45499 13.2307C1.58129 13.1642 2.68482 13.1443 6.26132 13.1443H10.8948V14.0085Z" fill="#333333"/>
<path d="M4.11523 3.87251V4.37109H5.94337H7.77151V3.87251V3.37393H5.94337H4.11523V3.87251Z" fill="#333333"/>
<path d="M5.07765 5.48444C4.3198 5.85007 3.89434 6.51485 3.8877 7.33252C3.8877 7.73139 3.91429 7.86434 4.10042 8.24327C4.34639 8.7352 4.57906 8.96787 5.11088 9.21384C5.59617 9.43986 6.24765 9.44651 6.75953 9.22049C7.19828 9.03435 7.71681 8.47594 7.86306 8.05048C8.2021 7.04002 7.76999 5.97638 6.81936 5.48444C6.61993 5.38473 6.38726 5.33154 6.00833 5.31825C5.52969 5.29166 5.43663 5.3116 5.07765 5.48444ZM6.41385 6.40183C6.713 6.54808 6.91908 6.84059 6.95896 7.19292C6.99885 7.58514 6.93902 7.77792 6.6997 8.05713C6.31413 8.49588 5.68924 8.51582 5.23719 8.11031C4.32645 7.28599 5.30367 5.87666 6.41385 6.40183Z" fill="#333333"/>
</svg>
