<svg width="49" height="49" viewBox="0 0 49 49" fill="none" xmlns="http://www.w3.org/2000/svg">
<g filter="url(#filter0_b_2817_7827)">
<rect width="49" height="49" rx="15" fill="white" fill-opacity="0.03"/>
<rect x="0.5" y="0.5" width="48" height="48" rx="14.5" stroke="#D1D9E2" stroke-opacity="0.3"/>
<path d="M22.3333 21.0833H19.6667C19.0699 21.0833 18.4976 21.3204 18.0757 21.7423C17.6537 22.1643 17.4167 22.7366 17.4167 23.3333V27.3333C17.4167 27.9301 17.6537 28.5024 18.0757 28.9243C18.4976 29.3463 19.0699 29.5833 19.6667 29.5833H22.3333C22.9301 29.5833 23.5024 29.3463 23.9243 28.9243C24.3463 28.5024 24.5833 27.9301 24.5833 27.3333V23.3333C24.5833 22.7366 24.3463 22.1643 23.9243 21.7423C23.5024 21.3204 22.9301 21.0833 22.3333 21.0833ZM16.7054 30.2946L16.5286 30.4714L16.7054 30.2946C16.6272 30.2165 16.5833 30.1105 16.5833 30V19.3333C16.5833 19.2228 16.6272 19.1168 16.7054 19.0387C16.7835 18.9606 16.8895 18.9167 17 18.9167H20.7699C20.8222 19.244 20.9764 19.5489 21.2137 19.7863C21.5107 20.0832 21.9134 20.25 22.3333 20.25H26.3333C26.7533 20.25 27.156 20.0832 27.4529 19.7863C27.6903 19.5489 27.8445 19.244 27.8968 18.9167H31.6667C31.7772 18.9167 31.8832 18.9606 31.9613 19.0387C32.0394 19.1168 32.0833 19.2228 32.0833 19.3333V30C32.0833 30.1105 32.0394 30.2165 31.9613 30.2946C31.8832 30.3728 31.7772 30.4167 31.6667 30.4167H17C16.8895 30.4167 16.7835 30.3728 16.7054 30.2946ZM22.75 27.3333C22.75 27.4438 22.7061 27.5498 22.628 27.628C22.5498 27.7061 22.4438 27.75 22.3333 27.75H19.6667C19.5562 27.75 19.4502 27.7061 19.372 27.628C19.2939 27.5498 19.25 27.4438 19.25 27.3333V23.3333C19.25 23.2228 19.2939 23.1168 19.372 23.0387C19.4502 22.9606 19.5562 22.9167 19.6667 22.9167H22.3333C22.4438 22.9167 22.5498 22.9606 22.628 23.0387C22.7061 23.1168 22.75 23.2228 22.75 23.3333V27.3333ZM31.6667 17.0833H27.8968C27.8445 16.756 27.6903 16.4511 27.4529 16.2137C27.156 15.9168 26.7533 15.75 26.3333 15.75H22.3333C21.9134 15.75 21.5107 15.9168 21.2137 16.2137C20.9764 16.4511 20.8222 16.756 20.7699 17.0833H17C16.4033 17.0833 15.831 17.3204 15.409 17.7423C14.9871 18.1643 14.75 18.7366 14.75 19.3333V30C14.75 30.5967 14.9871 31.169 15.409 31.591C15.831 32.0129 16.4033 32.25 17 32.25H31.6667C32.2634 32.25 32.8357 32.0129 33.2577 31.591C33.6796 31.169 33.9167 30.5967 33.9167 30V19.3333C33.9167 18.7366 33.6796 18.1643 33.2577 17.7423C32.8357 17.3204 32.2634 17.0833 31.6667 17.0833ZM22.5833 17.5833H26.0833V18.4167H22.5833V17.5833ZM28.9815 28.6482C29.1534 28.4763 29.25 28.2431 29.25 28C29.25 27.7569 29.1534 27.5237 28.9815 27.3518C28.8096 27.1799 28.5764 27.0833 28.3333 27.0833H26.3333C26.0902 27.0833 25.8571 27.1799 25.6852 27.3518C25.5132 27.5237 25.4167 27.7569 25.4167 28C25.4167 28.2431 25.5132 28.4763 25.6852 28.6482C25.8571 28.8201 26.0902 28.9167 26.3333 28.9167H28.3333C28.5764 28.9167 28.8096 28.8201 28.9815 28.6482ZM30.9815 23.3148C31.1534 23.1429 31.25 22.9098 31.25 22.6667C31.25 22.4236 31.1534 22.1904 30.9815 22.0185C30.8096 21.8466 30.5764 21.75 30.3333 21.75H26.3333C26.0902 21.75 25.8571 21.8466 25.6852 22.0185C25.5132 22.1904 25.4167 22.4236 25.4167 22.6667C25.4167 22.9098 25.5132 23.1429 25.6852 23.3148C25.8571 23.4868 26.0902 23.5833 26.3333 23.5833H30.3333C30.5764 23.5833 30.8096 23.4868 30.9815 23.3148ZM30.9815 25.9815C31.1534 25.8096 31.25 25.5764 31.25 25.3333C31.25 25.0902 31.1534 24.8571 30.9815 24.6852C30.8096 24.5132 30.5764 24.4167 30.3333 24.4167H26.3333C26.0902 24.4167 25.8571 24.5132 25.6852 24.6852C25.5132 24.8571 25.4167 25.0902 25.4167 25.3333C25.4167 25.5764 25.5132 25.8096 25.6852 25.9815C25.8571 26.1534 26.0902 26.25 26.3333 26.25H30.3333C30.5764 26.25 30.8096 26.1534 30.9815 25.9815Z" fill="white" stroke="#373737" stroke-width="0.5"/>
</g>
<defs>
<filter id="filter0_b_2817_7827" x="-7" y="-7" width="63" height="63" filterUnits="userSpaceOnUse" color-interpolation-filters="sRGB">
<feFlood flood-opacity="0" result="BackgroundImageFix"/>
<feGaussianBlur in="BackgroundImageFix" stdDeviation="3.5"/>
<feComposite in2="SourceAlpha" operator="in" result="effect1_backgroundBlur_2817_7827"/>
<feBlend mode="normal" in="SourceGraphic" in2="effect1_backgroundBlur_2817_7827" result="shape"/>
</filter>
</defs>
</svg>
