<svg width="18" height="17" viewBox="0 0 18 17" fill="none" xmlns="http://www.w3.org/2000/svg">
<path d="M3.48387 16.2581C4.40785 16.2581 5.29399 15.891 5.94734 15.2377C6.60069 14.5843 6.96774 13.6982 6.96774 12.7742V3.48387C6.96774 3.02636 6.87763 2.57333 6.70255 2.15065C6.52747 1.72797 6.27085 1.34391 5.94734 1.0204C5.62383 0.696895 5.23977 0.440274 4.81709 0.265194C4.39441 0.0901126 3.94138 0 3.48387 0C3.02636 0 2.57333 0.0901126 2.15065 0.265194C1.72797 0.440274 1.34391 0.696895 1.0204 1.0204C0.696895 1.34391 0.440275 1.72797 0.265194 2.15065C0.0901132 2.57333 -6.81741e-09 3.02636 0 3.48387V12.7742C0 13.6982 0.36705 14.5843 1.0204 15.2377C1.67375 15.891 2.55989 16.2581 3.48387 16.2581ZM1.74194 3.48387C1.74194 3.02188 1.92546 2.57881 2.25214 2.25214C2.57881 1.92546 3.02188 1.74194 3.48387 1.74194C3.94586 1.74194 4.38893 1.92546 4.71561 2.25214C5.04228 2.57881 5.22581 3.02188 5.22581 3.48387V12.7742C5.22581 13.2362 5.04228 13.6793 4.71561 14.0059C4.38893 14.3326 3.94586 14.5161 3.48387 14.5161C3.02188 14.5161 2.57881 14.3326 2.25214 14.0059C1.92546 13.6793 1.74194 13.2362 1.74194 12.7742V3.48387Z" fill="white"/>
<path d="M18.0012 2.61328H9.2915V4.35522H18.0012V2.61328Z" fill="white"/>
<path d="M18.0012 7.26172H9.2915V9.00365H18.0012V7.26172Z" fill="white"/>
<path d="M15.6786 11.9023H9.2915V13.6443H15.6786V11.9023Z" fill="white"/>
</svg>
