<svg width="14" height="18" viewBox="0 0 14 18" fill="none" xmlns="http://www.w3.org/2000/svg">
<path d="M5.60088 1.12H8.40104V3.67192L7.32641 2.90425C7.13176 2.76519 6.87015 2.76519 6.67527 2.90425L5.60088 3.67192V1.12ZM1.68017 0C0.758886 0 0 0.758707 0 1.67981V12.32C0 13.2411 0.758886 14 1.68017 14H7.84011C8.14946 14 8.4001 13.7492 8.39991 13.44C8.39991 13.1308 8.14927 12.8802 7.84011 12.88H1.68017C1.36429 12.88 1.11999 12.6359 1.11999 12.32V1.67981C1.11999 1.36393 1.36429 1.12 1.68017 1.12H4.48089V4.76019C4.48089 5.21556 4.99585 5.48044 5.36643 5.21556L7.00086 4.04815L8.63525 5.21556C9.00588 5.48044 9.52084 5.21556 9.52098 4.76019V1.12H12.3208C12.6354 1.12 12.88 1.36393 12.88 1.67981V7.84019C12.88 8.14935 13.1307 8.4 13.4398 8.4C13.749 8.4 13.9998 8.14935 14 7.84019V1.67981C14 0.758707 13.2415 0 12.3208 0C8.77399 0 5.22699 0 1.68017 0Z" fill="white"/>
<path d="M10.1428 10.1425H11.8572V11.8571H10.1428V10.1425ZM9.57159 9C9.25594 8.99981 9 9.25558 9 9.57127V12.4285C9 12.5802 9.06009 12.7254 9.16742 12.8326C9.27456 12.9399 9.42003 13 9.57159 13H12.4284C12.58 13 12.7254 12.9399 12.8326 12.8326C12.9397 12.7254 13 12.5801 13 12.4285V9.57127C12.9998 9.25558 12.7441 8.99981 12.4284 9H9.57159Z" fill="white"/>
<path d="M10.1428 15.1427H11.8572V16.8571H10.1428V15.1427ZM9.57159 14C9.25594 14 9 14.2558 9 14.5714V17.4284C9 17.58 9.06009 17.7254 9.16742 17.8326C9.27456 17.9397 9.42003 18 9.57159 18H12.4284C12.58 18 12.7254 17.9397 12.8326 17.8326C12.9397 17.7254 13 17.58 13 17.4284V14.5714C12.9998 14.2558 12.7441 14 12.4284 14H9.57159Z" fill="white"/>
</svg>
