<svg width="65" height="65" viewBox="0 0 65 65" fill="none" xmlns="http://www.w3.org/2000/svg">
<path d="M65 32.5C65 14.5507 50.4493 0 32.5 0C14.5507 0 0 14.5507 0 32.5C0 50.4493 14.5507 65 32.5 65C50.4493 65 65 50.4493 65 32.5Z" fill="white"/>
<path d="M44.8862 32.7401L34.257 22.0825C33.605 21.4306 32.6697 21.0337 31.7343 21.0337C31.7343 21.0337 31.7343 21.0337 31.7059 21.0337L24.6197 21.0621C23.9962 21.0621 23.4009 21.2605 22.8624 21.5439L20.5665 19.2764C20.198 18.9079 19.6311 18.9079 19.2626 19.2764C18.8941 19.6448 18.9225 20.2117 19.2909 20.5519L21.5869 22.8478C21.2751 23.358 21.105 23.9532 21.105 24.5768L21.0767 31.663C21.0767 32.5984 21.4451 33.5338 22.1254 34.1857L32.7547 44.8716C33.435 45.5519 34.342 45.9204 35.2774 45.9204C36.1844 45.9204 37.0914 45.5803 37.8 44.8716L44.9146 37.7571C45.5948 37.0768 45.9633 36.1982 45.9633 35.2344C45.935 34.2991 45.5665 33.4204 44.8862 32.7401ZM43.5824 36.4533L36.4678 43.5678C35.7876 44.2197 34.7105 44.2481 34.0585 43.5678L23.4009 32.9385C23.0891 32.6267 22.8907 32.1732 22.8907 31.7197L22.9191 24.6335C22.9191 24.5201 22.9474 24.3784 22.9474 24.265L25.2433 26.561C25.0166 26.9861 24.8749 27.468 24.8749 27.9782C24.8749 29.6789 26.2637 31.0678 27.9644 31.0678C29.6651 31.0678 31.054 29.6789 31.054 27.9782C31.054 26.2775 29.6651 24.8886 27.9644 24.8886C27.4542 24.8886 26.9724 25.0303 26.5472 25.2571L24.2513 22.9612C24.3646 22.9328 24.478 22.9328 24.6197 22.9328L31.7059 22.9045C32.1594 22.9045 32.5846 23.0746 32.9248 23.4147L43.5824 34.0723C43.8942 34.3841 44.0926 34.8376 44.0926 35.2911C44.0926 35.7446 43.9225 36.1415 43.5824 36.4533ZM27.9928 26.731C28.673 26.731 29.2399 27.2979 29.2399 27.9782C29.2399 28.6585 28.673 29.2254 27.9928 29.2254C27.3125 29.2254 26.7456 28.6585 26.7456 27.9782C26.7456 27.2979 27.3125 26.731 27.9928 26.731Z" fill="#333333"/>
<path d="M37.5132 31.2373C37.1447 30.8688 36.5778 30.8688 36.2093 31.2373L31.249 36.1976C30.8805 36.5661 30.8805 37.133 31.249 37.5015C31.4191 37.6716 31.6742 37.7849 31.9009 37.7849C32.1277 37.7849 32.3828 37.6999 32.5529 37.5015L37.5132 32.5412C37.8533 32.1727 37.8533 31.6058 37.5132 31.2373Z" fill="#333333"/>
<path d="M39.1576 34.2146L34.2256 39.1466C33.8571 39.515 33.8571 40.0819 34.2256 40.4504C34.3956 40.6205 34.6508 40.7339 34.8775 40.7339C35.1043 40.7339 35.3594 40.6488 35.5294 40.4504L40.4898 35.4901C40.8582 35.1216 40.8582 34.5547 40.4898 34.1862C40.0929 33.8461 39.526 33.8461 39.1576 34.2146Z" fill="#333333"/>
</svg>
