<svg width="22" height="22" viewBox="0 0 22 22" fill="none" xmlns="http://www.w3.org/2000/svg">
<path d="M7.68067 6.59669L5 8.18384V11.5093V14.8348L7.71765 16.4314C9.21513 17.3194 10.5092 18.0185 10.5832 17.9996C10.6664 17.9713 11.9143 17.2533 13.3655 16.3936L16 14.8348V11.5093V8.19329L13.3008 6.58724C11.8126 5.70864 10.537 4.99064 10.4815 5.00009C10.4168 5.00009 9.15966 5.71809 7.68067 6.59669ZM12.2378 7.60756C13.7908 8.52395 13.9294 8.61842 13.7723 8.74124C13.6798 8.80737 12.9034 9.27973 12.0529 9.78044L10.5 10.6874L8.93782 9.76155C8.07815 9.26084 7.30168 8.79792 7.21849 8.73179C7.07983 8.62787 7.27395 8.48616 8.75294 7.60756C9.68655 7.05016 10.4723 6.59669 10.4908 6.59669C10.5092 6.59669 11.295 7.05016 12.2378 7.60756ZM8.60504 11.207L9.71429 11.8683L9.74202 13.9089C9.75126 15.0332 9.73277 15.9496 9.6958 15.9401C9.64958 15.9401 8.8916 15.5055 8.0042 14.9765L6.38655 14.0128L6.35882 11.9439L6.34034 9.88436L6.91345 10.215C7.23697 10.404 7.99496 10.848 8.60504 11.207ZM14.6227 13.9278C14.5857 14.0223 11.4059 15.9496 11.2857 15.9496C11.258 15.9496 11.2487 15.0332 11.258 13.9089L11.2857 11.8683L12.9496 10.8858L14.6134 9.90326L14.6412 11.8589C14.6504 12.9359 14.6412 13.8711 14.6227 13.9278Z" fill="#999999"/>
<path d="M15.252 0.921066C17.6275 1.15556 19.1059 1.9712 20.1968 3.66366C21.0227 4.9279 21.2266 6.49801 21.2266 11.4122C21.2266 15.052 21.1246 16.561 20.8085 17.764C20.3192 19.5788 18.7898 21.1082 16.975 21.5976C16.5366 21.7097 15.6088 21.8626 14.9155 21.9238C13.3148 22.0666 6.1678 21.9952 5.22981 21.8219C2.39546 21.3019 0.753984 19.6706 0.223818 16.8566C0.152451 16.51 0.0810814 14.4505 0.0504951 12.0546L-0.000482559 7.85401L0.254406 7.59913C0.601053 7.26267 1.07005 7.25248 1.38611 7.56854L1.6308 7.81323L1.68178 11.9832C1.73275 16.3775 1.78373 16.9382 2.25272 17.9985C2.55859 18.6714 3.53736 19.5992 4.23065 19.8643C5.38274 20.2925 5.97408 20.3333 10.6232 20.3333C15.2826 20.3333 15.8637 20.2925 17.0158 19.8541C17.8009 19.5687 18.7796 18.5899 19.0651 17.8048C19.5035 16.6527 19.5443 16.0716 19.5443 11.4122C19.5443 6.76309 19.5035 6.17175 19.0753 5.01966C18.8102 4.32637 17.8824 3.3476 17.2095 3.04173C16.1492 2.57274 15.5884 2.52176 11.1942 2.47079L7.02422 2.41981L6.77953 2.17512C6.46347 1.85905 6.47366 1.39006 6.79992 1.0638L7.04461 0.808916L10.6946 0.819111C12.7031 0.829308 14.7524 0.880285 15.252 0.921066Z" fill="#999999"/>
</svg>
