<svg width="65" height="65" viewBox="0 0 65 65" fill="none" xmlns="http://www.w3.org/2000/svg">
<path d="M65 32.5C65 14.5507 50.4493 0 32.5 0C14.5507 0 0 14.5507 0 32.5C0 50.4493 14.5507 65 32.5 65C50.4493 65 65 50.4493 65 32.5Z" fill="white"/>
<path d="M26.4715 29.6864C26.2028 29.5491 25.9009 29.4867 25.5987 29.5058C25.2964 29.525 25.0053 29.625 24.7568 29.7951L21.051 32.3753C20.7241 32.6026 20.4578 32.9039 20.2749 33.2538C20.0919 33.6038 19.9976 33.9919 20 34.3852V43.1852C20 43.4013 20.0875 43.6085 20.243 43.7613C20.3986 43.9142 20.6097 44 20.8297 44H45.1666C45.2817 43.9986 45.3952 43.9738 45.4999 43.927C45.6047 43.8803 45.6984 43.8126 45.7751 43.7284C45.8552 43.6515 45.9167 43.5578 45.955 43.4544C45.9933 43.351 46.0074 43.2404 45.9963 43.1309L44.6688 22.7605C44.6432 22.5583 44.5461 22.3714 44.3945 22.2324C44.2428 22.0934 44.0463 22.0112 43.8392 22H38.8058C38.5951 21.9995 38.392 22.0779 38.2379 22.2191C38.0838 22.3604 37.9902 22.5539 37.9762 22.7605L37.3124 32.7012H33.1088V31.1259C33.1116 30.829 33.0303 30.5372 32.874 30.283C32.7177 30.0288 32.4926 29.8223 32.2238 29.6864C31.9501 29.5496 31.644 29.4876 31.3375 29.5067C31.031 29.5258 30.7354 29.6254 30.4815 29.7951L27.3841 31.9679V31.1259C27.3811 30.8268 27.2944 30.5343 27.1334 30.2804C26.9725 30.0265 26.7434 29.821 26.4715 29.6864ZM43.0371 23.6296L43.2307 26.1827H39.4143L39.5802 23.6296H43.0371ZM39.3036 27.8123H43.3137L44.2817 42.3704H38.3357L39.3036 27.8123ZM32.0302 42.3704H26.3332V40.4963C26.3294 40.3526 26.3554 40.2097 26.4096 40.0762C26.4639 39.9427 26.5452 39.8214 26.6487 39.7198C26.7522 39.6181 26.8757 39.5382 27.0116 39.485C27.1475 39.4317 27.2931 39.4061 27.4394 39.4099H30.924C31.0703 39.4061 31.2159 39.4317 31.3518 39.485C31.4877 39.5382 31.6112 39.6181 31.7147 39.7198C31.8182 39.8214 31.8995 39.9427 31.9538 40.0762C32.008 40.2097 32.034 40.3526 32.0302 40.4963V42.3704ZM31.4495 31.1259V33.5161C31.4456 33.6241 31.4644 33.7317 31.5047 33.8323C31.5451 33.9329 31.606 34.0242 31.6839 34.1007C31.7617 34.1771 31.8547 34.237 31.9571 34.2766C32.0595 34.3162 32.1691 34.3347 32.2791 34.3309H37.2018L36.6764 42.3704H33.6896V40.4963C33.6896 39.776 33.3982 39.0851 32.8795 38.5758C32.3609 38.0664 31.6575 37.7802 30.924 37.7802H27.4394C26.7059 37.7802 26.0025 38.0664 25.4839 38.5758C24.9652 39.0851 24.6738 39.776 24.6738 40.4963V42.3704H21.6594V34.3852C21.6612 34.2551 21.6919 34.127 21.7492 34.0098C21.8065 33.8925 21.8891 33.7889 21.9912 33.7062L25.7248 31.1259V33.5161C25.7191 33.6671 25.7578 33.8166 25.8363 33.9466C25.9147 34.0766 26.0296 34.1817 26.1672 34.2494C26.3024 34.3152 26.4528 34.3448 26.6033 34.3353C26.7539 34.3258 26.8992 34.2774 27.0246 34.1951L31.4495 31.1259Z" fill="#333333"/>
</svg>
