<svg width="65" height="65" viewBox="0 0 65 65" fill="none" xmlns="http://www.w3.org/2000/svg">
<path d="M65 32.5C65 14.5507 50.4493 0 32.5 0C14.5507 0 0 14.5507 0 32.5C0 50.4493 14.5507 65 32.5 65C50.4493 65 65 50.4493 65 32.5Z" fill="white"/>
<path d="M20.5988 28.4279C20.5597 28.4794 20.5257 28.5222 20.4958 28.5598C20.4175 28.6583 20.3669 28.7221 20.3236 28.8181C20.266 28.9461 20.2235 29.1347 20.1961 29.5309C20.1488 30.2167 20.1493 31.467 20.1503 33.9727C20.1504 34.3634 20.1506 34.7846 20.1506 35.2389C20.1506 38.0905 20.1519 39.5632 20.1659 40.3714C20.1798 41.1801 20.2065 41.3102 20.2521 41.4844C20.5257 42.5194 21.338 43.3626 22.4041 43.7133L22.4043 43.7134L22.8176 43.85H32.5019H42.1863L42.5996 43.7134L42.6004 43.7131C43.5879 43.3927 44.3773 42.6184 44.7182 41.6581C44.7182 41.658 44.7182 41.6579 44.7183 41.6578L44.8267 41.3476L44.8426 35.3725C44.8426 35.3725 44.8426 35.3725 44.8426 35.3724C44.8437 34.9117 44.8449 34.4844 44.8459 34.0878C44.8529 31.5167 44.8564 30.24 44.8084 29.5404C44.7808 29.1373 44.7368 28.9451 44.6766 28.8127C44.632 28.7147 44.5798 28.6481 44.5007 28.5474C44.4683 28.506 44.4314 28.4589 44.3886 28.4015C44.3028 28.2879 44.0776 27.9298 43.7879 27.454C43.4955 26.9734 43.1319 26.3636 42.7672 25.7398C41.4974 23.5703 41.4279 23.4718 41.0412 23.0875C40.7301 22.7813 40.5414 22.6434 40.2575 22.5083C40.1938 22.4781 40.1405 22.4515 40.0931 22.4278C39.9763 22.3696 39.895 22.329 39.7808 22.295C39.6236 22.2481 39.4045 22.2155 38.9662 22.1943C38.215 22.1581 36.8581 22.1567 34.1447 22.1538C33.6896 22.1533 33.1963 22.1528 32.6613 22.152C30.8261 22.1494 29.1452 22.1494 27.9159 22.1514C27.3012 22.1523 26.7995 22.1538 26.448 22.1556C26.2721 22.1566 26.1341 22.1576 26.0383 22.1587C25.9904 22.1593 25.9534 22.1598 25.9278 22.1604L25.8992 22.1612C25.8987 22.1613 25.8983 22.1613 25.8979 22.1613C25.8582 22.1685 25.7766 22.1845 25.6828 22.2028C25.6269 22.2138 25.5666 22.2256 25.5084 22.2368C25.3658 22.2645 25.0434 22.3773 24.7978 22.4886C24.4495 22.6499 24.2984 22.7574 23.9625 23.0876L23.9617 23.0884C23.5706 23.4671 23.508 23.5677 22.2207 25.7656L22.2207 25.7656C21.8506 26.3972 21.4844 27.0108 21.192 27.4913C20.9024 27.9671 20.6794 28.322 20.5988 28.4279ZM20.5988 28.4279L20.4794 28.3372L20.5987 28.428C20.5988 28.428 20.5988 28.4279 20.5988 28.4279ZM40.5789 26.0053L40.5788 26.005C40.355 25.6259 40.1377 25.2644 39.9674 24.989C39.8823 24.8514 39.8085 24.7345 39.7513 24.6474C39.7228 24.6039 39.6978 24.5669 39.6772 24.5381C39.66 24.514 39.6394 24.4861 39.6201 24.4668C39.5354 24.3791 39.3712 24.2668 39.2396 24.2087M40.5789 26.0053L39.1782 24.3455M40.5789 26.0053L41.3928 27.3908L41.5251 27.6158L41.264 27.6167L36.8859 27.6322H36.8857C34.4757 27.6374 30.5282 27.6374 28.1182 27.6322H28.118L23.7398 27.6167L23.4788 27.6158L23.611 27.3908L24.4249 26.0053L24.4253 26.0047C24.6517 25.623 24.8703 25.2616 25.0404 24.9864C25.1255 24.8489 25.1987 24.7324 25.2549 24.6454C25.3075 24.5641 25.3529 24.4962 25.3782 24.4676L25.3781 24.4675L25.3823 24.4632C25.4684 24.3734 25.6348 24.2658 25.7643 24.2087M40.5789 26.0053L25.8257 24.3455M39.2396 24.2087C39.2393 24.2085 39.2389 24.2084 39.2386 24.2082L39.1782 24.3455M39.2396 24.2087C39.24 24.2088 39.2403 24.209 39.2407 24.2092L39.1782 24.3455M39.2396 24.2087C39.1679 24.1759 39.0922 24.1559 38.9307 24.1417C38.7713 24.1276 38.5165 24.1183 38.0805 24.1118C37.2067 24.0989 35.5867 24.0977 32.5019 24.0977C29.4172 24.0977 27.7972 24.0989 26.9233 24.1118C26.4873 24.1183 26.2326 24.1276 26.0732 24.1417C25.9116 24.1559 25.836 24.1759 25.7643 24.2087M39.1782 24.3455C38.976 24.2528 38.6728 24.2477 32.5019 24.2477C26.3311 24.2477 26.0278 24.2528 25.8257 24.3455M25.7643 24.2087C25.7646 24.2085 25.7649 24.2084 25.7653 24.2082L25.8257 24.3455M25.7643 24.2087C25.7639 24.2088 25.7635 24.209 25.7632 24.2092L25.8257 24.3455M33.2361 36.9489C33.9861 37.3867 34.3053 37.4846 34.6564 37.3867M33.2361 36.9489C32.869 36.7326 32.5392 36.5575 32.5073 36.5575C32.47 36.5575 32.1402 36.7326 31.7678 36.9438C31.4008 37.1549 31.0018 37.3558 30.8794 37.3867H34.6564M33.2361 36.9489L33.3117 36.8194C33.3117 36.8194 33.3118 36.8194 33.3119 36.8195M33.2361 36.9489L33.3122 36.8197C33.3121 36.8196 33.312 36.8195 33.3119 36.8195M34.6564 37.3867C34.7788 37.3558 35.1778 37.1549 35.5448 36.9438L34.6564 37.3867ZM33.3119 36.8195C34.065 37.259 34.3324 37.3213 34.6161 37.2422L34.6161 37.2422L34.6197 37.2413C34.6621 37.2306 34.7773 37.1809 34.9418 37.0987C35.0998 37.0196 35.2888 36.918 35.47 36.8137L35.4708 36.8133C35.6579 36.7072 35.8348 36.6098 35.9695 36.5388C36.0367 36.5033 36.0946 36.4738 36.1384 36.4528C36.1601 36.4424 36.1802 36.4333 36.197 36.4264C36.2053 36.4231 36.2149 36.4194 36.2247 36.4163C36.2296 36.4148 36.252 36.4075 36.2789 36.4075C36.3043 36.4075 36.3253 36.4139 36.3313 36.4157L36.3317 36.4158C36.3415 36.4188 36.3509 36.4223 36.3591 36.4256C36.3756 36.4321 36.3951 36.4409 36.4159 36.4507C36.4581 36.4707 36.5133 36.4987 36.577 36.5323C36.7047 36.5997 36.8712 36.692 37.0454 36.7932M33.3119 36.8195L37.0454 36.7932M37.0454 36.7932C37.7293 37.1842 37.9604 37.2787 38.1646 37.2831C38.5177 37.2872 38.9116 37.0506 39.0715 36.741L39.0723 36.7396L39.0735 36.7373C39.1053 36.6773 39.1321 36.6268 39.1459 36.1597C39.1598 35.6906 39.1612 34.8282 39.1612 33.1581V29.7072V29.5572H39.3112H41.0135H42.7211H42.8715L42.8711 29.7077L42.8552 35.3115L42.8392 40.9153L42.8391 40.9528L42.8213 40.9859L42.6883 41.2331L42.6875 41.2347C42.5972 41.3977 42.4339 41.5841 42.2834 41.6949L42.2834 41.695L42.279 41.698L42.0449 41.8577L42.0067 41.8838H41.9604H32.5019H23.0435H22.9976L22.9595 41.8581L22.7312 41.7038C22.7311 41.7038 22.7311 41.7037 22.731 41.7037C22.5707 41.5962 22.4112 41.4125 22.3206 41.2377L22.1831 40.9869L22.1648 40.9534L22.1647 40.9153L22.1487 35.3115L22.1328 29.7077L22.1323 29.5572H22.2828H23.9904H25.6927H25.8427V29.7072V33.1684V36.5926L37.0454 36.7932ZM36.9211 34.4159L36.9195 34.4151C36.746 34.3286 36.6369 34.284 36.539 34.2617C36.444 34.2402 36.3509 34.2378 36.2065 34.2501L36.2042 34.2503C36.0661 34.2598 35.9825 34.2742 35.858 34.327C35.7244 34.3836 35.5458 34.4837 35.2215 34.6731L35.2207 34.6736C35.0235 34.7871 34.8392 34.8918 34.7012 34.9684C34.6324 35.0065 34.5742 35.0382 34.5314 35.0605C34.5102 35.0715 34.4914 35.081 34.4763 35.0881C34.469 35.0915 34.4605 35.0953 34.4521 35.0985C34.448 35.1001 34.4419 35.1024 34.4347 35.1044C34.4308 35.1055 34.4131 35.1108 34.3904 35.1108C34.3603 35.1108 34.3353 35.1011 34.3342 35.1007C34.3258 35.0978 34.3178 35.0945 34.3111 35.0916C34.2973 35.0856 34.2809 35.0777 34.263 35.0688C34.2269 35.0508 34.1786 35.0254 34.1222 34.9948C34.0089 34.9334 33.8586 34.849 33.698 34.7557L33.6978 34.7556C33.2805 34.5121 33.0384 34.3797 32.8568 34.3094C32.686 34.2434 32.5716 34.2335 32.406 34.2451L32.4057 34.2452C32.2772 34.2539 32.1737 34.2756 31.9505 34.3842C31.7205 34.4962 31.3756 34.6946 30.7658 35.0529C30.707 35.0893 30.6434 35.0892 30.5948 35.0812C30.5453 35.0731 30.4918 35.0539 30.4356 35.0293C30.3222 34.9797 30.1623 34.8917 29.937 34.7609C29.6178 34.5754 29.2521 34.3785 29.1325 34.3254C28.878 34.2135 28.5181 34.214 28.2703 34.3251L28.2679 34.3261L28.0392 34.424L27.8302 34.5134V34.2861V31.9992V29.7072V29.5572H27.9802H32.5019H37.0237H37.1737V29.7072V32.0044C37.1737 32.6358 37.1697 33.2084 37.163 33.6221C37.1597 33.8288 37.1557 33.9968 37.1511 34.1129C37.1489 34.1706 37.1464 34.2174 37.1436 34.2503C37.1423 34.266 37.1406 34.2827 37.1381 34.2971C37.1371 34.3024 37.1345 34.3173 37.1282 34.3334L37.1281 34.3336C37.1258 34.3395 37.1167 34.3627 37.0953 34.3849C37.0834 34.3972 37.0609 34.4162 37.0267 34.4256C36.9888 34.436 36.9514 34.4306 36.9211 34.4159Z" fill="#333333" stroke="white" stroke-width="0.3"/>
</svg>
