<svg width="49" height="49" viewBox="0 0 49 49" fill="none" xmlns="http://www.w3.org/2000/svg">
<g filter="url(#filter0_b_2817_7833)">
<rect width="49" height="49" rx="15" fill="white" fill-opacity="0.03"/>
<rect x="0.5" y="0.5" width="48" height="48" rx="14.5" stroke="#D1D9E2" stroke-opacity="0.3"/>
<path d="M28.25 23.5938H28V23.8438V27.625C28 27.8315 27.8315 28 27.625 28H22H21.75V28.25V29.5V29.75H22H27.625C28.797 29.75 29.75 28.797 29.75 27.625V23.8438V23.5938H29.5H28.25ZM25 18.4688V18.2188H24.75H21H20.75V18.4688V19.7188V19.9688H21H24.75H25V19.7188V18.4688ZM23.5 23.8438V23.5938H23.25H22H21.75V23.8438V27V27.25H22H23.25H23.5V27V23.8438ZM25.375 23.8438V23.5938H25.125H23.875H23.625V23.8438V27V27.25H23.875H25.125H25.375V27V23.8438ZM27.25 23.8438V23.5938H27H25.75H25.5V23.8438V26.0938V26.3438H25.75H27H27.25V26.0938V23.8438ZM32.25 30.125V23.2188C32.25 22.0467 31.297 21.0938 30.125 21.0938H29.75V17.875C29.75 16.703 28.797 15.75 27.625 15.75H17.875C16.703 15.75 15.75 16.703 15.75 17.875V27.625C15.75 28.797 16.703 29.75 17.875 29.75H19.25V30.125C19.25 31.297 20.203 32.25 21.375 32.25H30.125C31.297 32.25 32.25 31.297 32.25 30.125ZM19.25 23.2188V28H17.875C17.6685 28 17.5 27.8315 17.5 27.625V17.875C17.5 17.6685 17.6685 17.5 17.875 17.5H27.625C27.8315 17.5 28 17.6685 28 17.875V21.0938H21.375C20.203 21.0938 19.25 22.0467 19.25 23.2188ZM30.125 22.8438C30.3315 22.8438 30.5 23.0122 30.5 23.2188V30.125C30.5 30.3315 30.3315 30.5 30.125 30.5H21.375C21.1685 30.5 21 30.3315 21 30.125V23.2188C21 23.0122 21.1685 22.8438 21.375 22.8438H30.125Z" fill="white" stroke="#373737" stroke-width="0.5"/>
</g>
<defs>
<filter id="filter0_b_2817_7833" x="-7" y="-7" width="63" height="63" filterUnits="userSpaceOnUse" color-interpolation-filters="sRGB">
<feFlood flood-opacity="0" result="BackgroundImageFix"/>
<feGaussianBlur in="BackgroundImageFix" stdDeviation="3.5"/>
<feComposite in2="SourceAlpha" operator="in" result="effect1_backgroundBlur_2817_7833"/>
<feBlend mode="normal" in="SourceGraphic" in2="effect1_backgroundBlur_2817_7833" result="shape"/>
</filter>
</defs>
</svg>
