<svg width="49" height="49" viewBox="0 0 49 49" fill="none" xmlns="http://www.w3.org/2000/svg">
<g filter="url(#filter0_b_2817_7802)">
<rect width="49" height="49" rx="15" fill="white" fill-opacity="0.03"/>
<rect x="0.5" y="0.5" width="48" height="48" rx="14.5" stroke="#D1D9E2" stroke-opacity="0.3"/>
<path d="M17.3662 21.7033V17.3662H21.7033V21.7033H17.3662ZM17.3023 15.75C16.445 15.75 15.75 16.445 15.75 17.3023V21.7672C15.75 22.6245 16.445 23.3195 17.3023 23.3195H21.7672C22.6245 23.3195 23.3195 22.6245 23.3195 21.7672V17.3023C23.3195 16.445 22.6245 15.75 21.7672 15.75H17.3023Z" fill="white" stroke="#373737" stroke-width="0.5"/>
<path d="M17.3662 30.631V26.294H21.7033V30.631H17.3662ZM17.3023 24.6777C16.445 24.6777 15.75 25.3727 15.75 26.23V30.695C15.75 31.5522 16.445 32.2472 17.3023 32.2472H21.7672C22.6245 32.2472 23.3195 31.5522 23.3195 30.695V26.23C23.3195 25.3727 22.6245 24.6777 21.7672 24.6777H17.3023Z" fill="white" stroke="#373737" stroke-width="0.5"/>
<path d="M26.3037 21.7033V17.3662H30.6408V21.7033H26.3037ZM26.2398 15.75C25.3825 15.75 24.6875 16.445 24.6875 17.3023V21.7672C24.6875 22.6245 25.3825 23.3195 26.2398 23.3195H30.7047C31.562 23.3195 32.257 22.6245 32.257 21.7672V17.3023C32.257 16.445 31.562 15.75 30.7047 15.75H26.2398Z" fill="white" stroke="#373737" stroke-width="0.5"/>
<path d="M25.4956 24.6777C25.0493 24.6777 24.6875 25.0396 24.6875 25.4859C24.6875 25.9322 25.0493 26.294 25.4956 26.294H31.4489C31.8952 26.294 32.257 25.9322 32.257 25.4859C32.257 25.0396 31.8952 24.6777 31.4489 24.6777H25.4956Z" fill="white" stroke="#373737" stroke-width="0.5"/>
<path d="M28.4644 27.6562C28.0181 27.6562 27.6562 28.0181 27.6562 28.4644C27.6562 28.9107 28.0181 29.2725 28.4644 29.2725H31.441C31.8873 29.2725 32.2491 28.9107 32.2491 28.4644C32.2491 28.0181 31.8873 27.6562 31.441 27.6562H28.4644Z" fill="white" stroke="#373737" stroke-width="0.5"/>
<path d="M25.4956 30.6348C25.0493 30.6348 24.6875 30.9966 24.6875 31.4429C24.6875 31.8892 25.0493 32.251 25.4956 32.251H31.4489C31.8952 32.251 32.257 31.8892 32.257 31.4429C32.257 30.9966 31.8952 30.6348 31.4489 30.6348H25.4956Z" fill="white" stroke="#373737" stroke-width="0.5"/>
</g>
<defs>
<filter id="filter0_b_2817_7802" x="-7" y="-7" width="63" height="63" filterUnits="userSpaceOnUse" color-interpolation-filters="sRGB">
<feFlood flood-opacity="0" result="BackgroundImageFix"/>
<feGaussianBlur in="BackgroundImageFix" stdDeviation="3.5"/>
<feComposite in2="SourceAlpha" operator="in" result="effect1_backgroundBlur_2817_7802"/>
<feBlend mode="normal" in="SourceGraphic" in2="effect1_backgroundBlur_2817_7802" result="shape"/>
</filter>
</defs>
</svg>
