<svg width="65" height="65" viewBox="0 0 65 65" fill="none" xmlns="http://www.w3.org/2000/svg">
<path d="M65 32.5C65 14.5507 50.4493 0 32.5 0C14.5507 0 0 14.5507 0 32.5C0 50.4493 14.5507 65 32.5 65C50.4493 65 65 50.4493 65 32.5Z" fill="white"/>
<path d="M21.9345 23.0548C21.5895 23.2038 21.2962 23.5092 21.1582 23.8667C20.9915 24.2913 21.0001 23.7699 21.0001 32.492C21.0001 38.2831 21.0087 40.5624 21.0317 40.7039C21.1266 41.2811 21.4428 41.728 21.8942 41.9254C22.0466 41.9962 22.1213 42.0036 22.3456 41.9887C22.5785 41.9738 22.6389 41.9552 22.8229 41.8398C23.0615 41.6871 23.2829 41.4189 23.395 41.1508C23.5675 40.7411 23.5589 41.229 23.5589 32.5181C23.5589 27.3302 23.5474 24.4738 23.5301 24.3434C23.4582 23.8444 23.1851 23.39 22.8171 23.1628C22.6274 23.0474 22.5756 23.0288 22.3283 23.0176C22.1472 23.0101 22.0092 23.025 21.9345 23.0548Z" fill="#333333"/>
<path d="M25.2097 23.0763C25.0573 23.1657 24.8963 23.4152 24.8561 23.6201C24.8331 23.7355 24.8244 26.268 24.8244 32.5135C24.8244 42.2039 24.8101 41.4851 25.0171 41.7458C25.2873 42.0847 25.6553 42.0847 25.9256 41.7458C26.1326 41.4851 26.1182 42.2039 26.1182 32.5135C26.1182 26.268 26.1096 23.7355 26.0866 23.6201C26.0463 23.4152 25.8853 23.1657 25.7329 23.0763C25.6668 23.0391 25.5518 23.0056 25.4713 23.0056C25.3937 23.0056 25.2758 23.0391 25.2097 23.0763Z" fill="#333333"/>
<path d="M27.7712 23.0743C27.7079 23.1116 27.6159 23.201 27.5642 23.268C27.3687 23.5361 27.383 22.8025 27.383 32.5003C27.383 41.9933 27.3744 41.4235 27.5297 41.6991C27.6246 41.863 27.8517 41.9971 28.0271 41.9971C28.3232 41.9933 28.5877 41.7178 28.6481 41.3491C28.6682 41.2187 28.6739 38.4516 28.6711 32.3886L28.6624 23.6181L28.5992 23.4691C28.4296 23.0594 28.0759 22.8918 27.7712 23.0743Z" fill="#333333"/>
<path d="M30.9133 23.0419C30.5971 23.1461 30.2607 23.4813 30.1083 23.8463C29.9301 24.2708 29.9416 23.7085 29.9416 32.5014C29.9416 41.2346 29.9329 40.7133 30.0997 41.1378C30.2089 41.4246 30.4246 41.6816 30.6804 41.8417C30.8961 41.9758 30.9162 41.9795 31.221 41.9795C31.5257 41.9795 31.5458 41.9758 31.7615 41.8417C32.1208 41.6182 32.3566 41.2495 32.4572 40.7505C32.4946 40.5568 32.5003 39.596 32.5003 32.5014C32.5003 25.4067 32.4946 24.4459 32.4572 24.2522C32.3566 23.7606 32.1151 23.3808 31.7586 23.161C31.5746 23.0456 31.5142 23.0307 31.2842 23.0195C31.1376 23.0121 30.9708 23.0232 30.9133 23.0419Z" fill="#333333"/>
<path d="M34.155 23.0768C34.0141 23.1587 33.8733 23.3598 33.8215 23.5535C33.787 23.6727 33.7812 25.1922 33.7812 32.54V41.385L33.8445 41.534C34.0228 41.966 34.3764 42.1187 34.7099 41.9027C34.8824 41.791 35.0204 41.5526 35.0463 41.3143C35.0549 41.2324 35.0606 37.2065 35.0549 32.3724C35.0463 24.2723 35.0434 23.5758 34.9974 23.4716C34.8306 23.0731 34.4569 22.898 34.155 23.0768Z" fill="#333333"/>
<path d="M36.7256 23.0651C36.5962 23.1396 36.4783 23.2849 36.4007 23.4711L36.3374 23.62L36.3288 32.3906C36.3259 38.4536 36.3317 41.2207 36.3518 41.351C36.3892 41.5857 36.5416 41.8315 36.7083 41.9283C37.0476 42.1257 37.4702 41.8799 37.5737 41.4255C37.6398 41.1462 37.6398 23.8584 37.5737 23.5791C37.5248 23.3668 37.3725 23.1508 37.2086 23.0614C37.0735 22.9906 36.8578 22.9906 36.7256 23.0651Z" fill="#333333"/>
<path d="M39.8489 23.0464C39.5556 23.1358 39.1963 23.5007 39.0439 23.8583C38.8743 24.2642 38.8829 23.7838 38.8829 32.5022C38.8829 41.2317 38.8743 40.7401 39.0468 41.1498C39.1589 41.4179 39.3803 41.6861 39.6189 41.8388C39.8029 41.9542 39.8633 41.9728 40.0962 41.9915C40.329 42.0064 40.3894 41.9952 40.5705 41.9133C40.9989 41.7233 41.2864 41.3211 41.4014 40.7513C41.4331 40.5986 41.4417 39.1089 41.4417 32.5022C41.4417 25.8954 41.4331 24.4057 41.4014 24.253C41.2462 23.497 40.7517 22.998 40.1652 23.0091C40.053 23.0129 39.9122 23.0278 39.8489 23.0464Z" fill="#333333"/>
<path d="M43.1513 23.044C43.0219 23.0961 42.8494 23.301 42.789 23.4685C42.7373 23.6175 42.7344 23.9415 42.7344 32.5035C42.7344 41.017 42.7373 41.3932 42.789 41.5347C42.9989 42.1418 43.6774 42.1529 43.9189 41.5571L43.9994 41.3597V32.5035V23.6473L43.9189 23.4499C43.8125 23.1855 43.6314 23.0328 43.4014 23.0179C43.3123 23.0142 43.2001 23.0254 43.1513 23.044Z" fill="#333333"/>
</svg>
