<svg width="49" height="49" viewBox="0 0 49 49" fill="none" xmlns="http://www.w3.org/2000/svg">
<g filter="url(#filter0_b_2817_7937)">
<rect width="49" height="49" rx="15" fill="white" fill-opacity="0.03"/>
<rect x="0.5" y="0.5" width="48" height="48" rx="14.5" stroke="#D1D9E2" stroke-opacity="0.3"/>
<path fill-rule="evenodd" clip-rule="evenodd" d="M31.0238 32.0014H18.695C17.2084 32.0014 16 30.793 16 29.3064V20.1975C16 18.7123 17.2084 17.5039 18.695 17.5039H20.3677C20.5595 17.5039 20.7138 17.6582 20.7138 17.85V18.5681C20.7138 18.7324 20.8479 18.8665 21.0122 18.8665C21.1766 18.8665 21.3107 18.7324 21.3107 18.5681L21.3107 17.85C21.3107 17.6582 21.465 17.5039 21.6568 17.5039L28.062 17.5039C28.2538 17.5039 28.4081 17.6582 28.4081 17.85V18.5681C28.4081 18.7324 28.5422 18.8665 28.7065 18.8665C28.8709 18.8665 29.005 18.7324 29.005 18.5681L29.0051 17.85C29.0051 17.6582 29.1608 17.5039 29.3511 17.5039L31.0238 17.5039C32.509 17.5039 33.7188 18.7123 33.7188 20.1989V29.3078C33.7188 30.793 32.5105 32.0014 31.0238 32.0014ZM18.695 18.1961C17.5905 18.1961 16.6922 19.0944 16.6922 20.1989V29.3078C16.6922 30.4124 17.5905 31.3107 18.695 31.3107H31.0238C32.1283 31.3107 33.0267 30.4124 33.0267 29.3078V20.1975C33.0267 19.093 32.1283 18.1946 31.0238 18.1946H29.6972V18.5667C29.6972 19.1132 29.2531 19.5573 28.7066 19.5573C28.1601 19.5573 27.716 19.1132 27.716 18.5667L27.7159 18.1961H22.0029V18.5681C22.0029 19.1146 21.5588 19.5587 21.0123 19.5587C20.4658 19.5587 20.0217 19.1146 20.0217 18.5681L20.0216 18.1961H18.695Z" fill="white"/>
<path fill-rule="evenodd" clip-rule="evenodd" d="M33.3728 20.7051H16.3461C16.1543 20.7051 16 20.5508 16 20.359V20.1989C16 18.7123 17.2084 17.5039 18.695 17.5039H20.3677C20.5595 17.5039 20.7138 17.6582 20.7138 17.85V18.5681C20.7138 18.7324 20.8479 18.8665 21.0122 18.8665C21.1766 18.8665 21.3107 18.7324 21.3107 18.5681L21.3107 17.85C21.3107 17.6582 21.465 17.5039 21.6568 17.5039L28.062 17.5039C28.2538 17.5039 28.4081 17.6582 28.4081 17.85V18.5681C28.4081 18.7324 28.5422 18.8665 28.7065 18.8665C28.8709 18.8665 29.005 18.7324 29.005 18.5681L29.0051 17.85C29.0051 17.6582 29.1608 17.5039 29.3511 17.5039L31.0238 17.5039C32.509 17.5039 33.7188 18.7123 33.7188 20.1989V20.359C33.7188 20.5493 33.5645 20.7051 33.3728 20.7051ZM16.7008 20.0129H33.018C32.9243 18.9949 32.0663 18.1961 31.0238 18.1961L29.6972 18.1961V18.5681C29.6972 19.1146 29.2531 19.5587 28.7066 19.5587C28.1601 19.5587 27.716 19.1146 27.716 18.5681L27.7159 18.1961H22.0029V18.5681C22.0029 19.1146 21.5588 19.5587 21.0123 19.5587C20.4658 19.5587 20.0217 19.1146 20.0217 18.5681L20.0216 18.1961H18.695C17.6525 18.1961 16.7945 18.9949 16.7008 20.0129Z" fill="white"/>
<path fill-rule="evenodd" clip-rule="evenodd" d="M21.0141 19.5573C20.4676 19.5573 20.0235 19.1132 20.0235 18.5667L20.0234 16.9906C20.0234 16.4441 20.4676 16 21.0141 16C21.5606 16 22.0047 16.4441 22.0047 16.9906V18.5667C22.0047 19.1132 21.5606 19.5573 21.0141 19.5573ZM21.0141 16.6922C20.8497 16.6922 20.7156 16.8263 20.7156 16.9906V18.5667C20.7156 18.7311 20.8497 18.8652 21.0141 18.8652C21.1785 18.8652 21.3126 18.731 21.3126 18.5667V16.9906C21.3126 16.8262 21.1785 16.6922 21.0141 16.6922Z" fill="white"/>
<path fill-rule="evenodd" clip-rule="evenodd" d="M28.7016 19.5573C28.1551 19.5573 27.711 19.1132 27.711 18.5667L27.7109 16.9906C27.7109 16.4441 28.1551 16 28.7016 16C29.2481 16 29.6922 16.4441 29.6922 16.9906V18.5667C29.6922 19.1132 29.2481 19.5573 28.7016 19.5573ZM28.7016 16.6922C28.5372 16.6922 28.4031 16.8263 28.4031 16.9906V18.5667C28.4031 18.7311 28.5372 18.8652 28.7016 18.8652C28.866 18.8652 29.0001 18.731 29.0001 18.5667V16.9906C29.0001 16.8262 28.866 16.6922 28.7016 16.6922Z" fill="white"/>
<path fill-rule="evenodd" clip-rule="evenodd" d="M24.8604 29.5931C24.6686 29.5931 24.5144 29.4374 24.5144 29.2471V23.4936L22.957 24.7799C22.8099 24.9024 22.5922 24.8808 22.4697 24.7337C22.3485 24.5866 22.3687 24.3689 22.5158 24.2463L24.6398 22.4915C24.7436 22.4064 24.8864 22.3876 25.0075 22.4453C25.1286 22.503 25.2065 22.6241 25.2065 22.7582V29.2471C25.2065 29.4374 25.0522 29.5931 24.8604 29.5931Z" fill="white"/>
<path fill-rule="evenodd" clip-rule="evenodd" d="M22.6592 29.5992C22.4991 29.5992 22.355 29.4882 22.3203 29.3252C22.28 29.1378 22.3996 28.9546 22.5871 28.9143C22.6318 28.9042 22.7515 28.8797 27.0716 28.9071C27.2634 28.9085 27.4162 29.0643 27.4148 29.2561C27.4134 29.4464 27.2591 29.5992 27.0688 29.5992C27.0688 29.5992 27.0673 29.5992 27.0659 29.5992C25.4956 29.5891 22.939 29.5791 22.704 29.5964C22.6909 29.5978 22.6751 29.5992 22.6592 29.5992Z" fill="white"/>
</g>
<defs>
<filter id="filter0_b_2817_7937" x="-7" y="-7" width="63" height="63" filterUnits="userSpaceOnUse" color-interpolation-filters="sRGB">
<feFlood flood-opacity="0" result="BackgroundImageFix"/>
<feGaussianBlur in="BackgroundImageFix" stdDeviation="3.5"/>
<feComposite in2="SourceAlpha" operator="in" result="effect1_backgroundBlur_2817_7937"/>
<feBlend mode="normal" in="SourceGraphic" in2="effect1_backgroundBlur_2817_7937" result="shape"/>
</filter>
</defs>
</svg>
