<svg width="49" height="49" viewBox="0 0 49 49" fill="none" xmlns="http://www.w3.org/2000/svg">
<g id="Cancel Button" filter="url(#filter0_b_972_5052)">
<rect width="49" height="49" rx="15" fill="white" fill-opacity="0.03"/>
<rect x="0.5" y="0.5" width="48" height="48" rx="14.5" stroke="#D1D9E2" stroke-opacity="0.3"/>
<g id="Union">
<path fill-rule="evenodd" clip-rule="evenodd" d="M21.5487 16.0558C20.9896 16.2184 20.5303 16.6663 20.3648 17.2141C20.3448 17.2769 20.322 17.4908 20.3106 17.6905C20.2963 17.9872 20.2821 18.0614 20.2393 18.1099C20.1337 18.224 20.0424 18.1898 19.7743 17.9359C19.2008 17.3967 18.4933 17.2769 17.7972 17.6021C17.5776 17.7048 17.5205 17.7504 17.1382 18.1356C16.813 18.4608 16.6989 18.5949 16.6276 18.7375C16.4336 19.1284 16.3794 19.5705 16.4821 19.9728C16.5648 20.2952 16.6846 20.5063 16.9414 20.7773C17.1896 21.0426 17.2238 21.1368 17.1097 21.2395C17.0612 21.2823 16.987 21.2965 16.6903 21.3108C16.4906 21.3222 16.2767 21.345 16.2139 21.365C15.6547 21.5362 15.1926 22.0183 15.0471 22.5832C14.9843 22.8285 14.9843 23.7814 15.0471 24.0267C15.1926 24.5916 15.6547 25.0737 16.2139 25.2449C16.2767 25.2648 16.4906 25.2877 16.6903 25.2991C16.987 25.3133 17.0612 25.3276 17.1097 25.3704C17.2238 25.476 17.1896 25.5672 16.9357 25.8354C16.3965 26.4088 16.2767 27.1163 16.6019 27.8124C16.7046 28.0321 16.7502 28.0892 17.1354 28.4743C17.5205 28.8594 17.5776 28.9051 17.7972 29.0078C18.4933 29.333 19.2008 29.2132 19.7743 28.674C20.0424 28.4201 20.1337 28.3859 20.2393 28.5C20.2821 28.5485 20.2963 28.6227 20.3106 28.9193C20.322 29.119 20.3448 29.333 20.3648 29.3958C20.536 29.9549 21.0181 30.4171 21.583 30.5626C21.8283 30.6254 22.7812 30.6254 23.0265 30.5626C23.5452 30.429 23.9941 30.0284 24.1966 29.5308C23.9378 29.1717 23.7342 28.7741 23.6028 28.3612C23.5313 28.1359 23.4871 27.9873 23.4599 27.7539C23.3897 27.838 23.3299 27.9306 23.2833 28.0293C23.1891 28.2261 23.1806 28.266 23.1606 28.6398C23.1378 28.9964 23.1292 29.0563 23.0607 29.1675C23.0151 29.2474 22.9381 29.3245 22.8525 29.373C22.7212 29.45 22.707 29.4528 22.3047 29.4528C21.9025 29.4528 21.8882 29.45 21.757 29.373C21.6714 29.3245 21.5944 29.2474 21.5487 29.1675C21.4803 29.0563 21.4717 28.9964 21.4489 28.6369C21.4261 28.2546 21.4203 28.2261 21.3205 28.0236C21.0837 27.5443 20.6387 27.2704 20.0909 27.2704C19.7001 27.2704 19.4291 27.3902 19.0867 27.7126C18.77 28.0121 18.5932 28.0721 18.345 27.9693C18.208 27.9094 17.7202 27.4302 17.6517 27.2847C17.5319 27.0308 17.5947 26.8425 17.8999 26.523C18.1966 26.212 18.3164 25.9581 18.3336 25.6157C18.3393 25.4817 18.3307 25.2991 18.3107 25.2078C18.2309 24.8141 17.9484 24.4575 17.5804 24.2835C17.3836 24.1893 17.3436 24.1808 16.9699 24.1608C16.6133 24.138 16.5534 24.1294 16.4421 24.0609C16.3622 24.0153 16.2852 23.9383 16.2367 23.8527C16.1597 23.7214 16.1568 23.7072 16.1568 23.3049C16.1568 22.9027 16.1597 22.8884 16.2367 22.7572C16.2852 22.6716 16.3622 22.5946 16.4421 22.5489C16.5534 22.4805 16.6133 22.4719 16.9727 22.4491C17.355 22.4263 17.3836 22.4205 17.5861 22.3207C17.957 22.1381 18.2309 21.7901 18.3107 21.4021C18.3307 21.3108 18.3393 21.1282 18.3336 20.9941C18.3164 20.6518 18.1966 20.3979 17.8999 20.0869C17.6004 19.7731 17.5376 19.5962 17.6403 19.3452C17.7002 19.2082 18.1795 18.7204 18.325 18.6519C18.5789 18.5321 18.7672 18.5949 19.0867 18.9001C19.3977 19.1968 19.6516 19.3166 19.9939 19.3338C20.128 19.3395 20.3106 19.3309 20.4019 19.3109C20.7956 19.2311 21.1522 18.9486 21.3262 18.5806C21.4203 18.3838 21.4289 18.3438 21.4489 17.9701C21.4717 17.6135 21.4831 17.5536 21.5459 17.4423C21.6258 17.3054 21.7741 17.1998 21.931 17.1684C21.9881 17.1542 22.1906 17.1485 22.3789 17.1542C22.6956 17.1627 22.7384 17.1684 22.8582 17.2398C22.9381 17.2854 23.0151 17.3624 23.0607 17.4423C23.1292 17.5536 23.1378 17.6135 23.1606 17.9729C23.1834 18.3581 23.1891 18.3838 23.289 18.5892C23.4715 18.96 23.8167 19.2311 24.2076 19.3109C24.2989 19.3309 24.4815 19.3395 24.6155 19.3338C24.9579 19.3166 25.2118 19.1968 25.5228 18.9001C25.8423 18.5949 26.0306 18.5321 26.2845 18.6519C26.43 18.7204 26.9092 19.2082 26.9691 19.3452C27.0718 19.5962 27.0091 19.7731 26.7095 20.0869C26.5526 20.2495 26.4642 20.3751 26.39 20.532C26.2959 20.726 26.2845 20.7802 26.2759 21.0284C26.2645 21.2509 26.2759 21.3422 26.3215 21.4991C26.4357 21.8728 26.6867 22.1638 27.0319 22.3293C27.2259 22.4205 27.2658 22.4291 27.6396 22.4491C27.9962 22.4719 28.0561 22.4805 28.1673 22.5489C28.2472 22.5946 28.3243 22.6716 28.3728 22.7572C28.4497 22.8882 28.4526 22.9026 28.4526 23.303H29.608C29.608 22.6856 29.5822 22.5372 29.4169 22.2094C29.2286 21.8357 28.8121 21.4905 28.3956 21.365C28.3328 21.345 28.1188 21.3222 27.9191 21.3108C27.6225 21.2965 27.5483 21.2823 27.4998 21.2395C27.3857 21.1368 27.4199 21.0426 27.6681 20.7773C27.9249 20.5063 28.0447 20.2952 28.1274 19.9728C28.2301 19.5705 28.1759 19.1284 27.9819 18.7375C27.9106 18.5949 27.7965 18.4608 27.4712 18.1356C27.089 17.7504 27.0319 17.7048 26.8122 17.6021C26.1161 17.2769 25.4086 17.3967 24.8352 17.9359C24.567 18.1898 24.4758 18.224 24.3702 18.1099C24.3274 18.0614 24.3131 17.9872 24.2989 17.6905C24.2875 17.4908 24.2646 17.2769 24.2447 17.2141C24.0735 16.6549 23.5914 16.1928 23.0265 16.0473C22.7697 15.9788 21.7855 15.9874 21.5487 16.0558ZM21.6349 20.0528C20.3854 20.321 19.4239 21.2396 19.0873 22.4749C19.0188 22.7259 19.0131 22.7944 19.0131 23.3051C19.0131 23.8157 19.0188 23.8842 19.0873 24.1352C19.2471 24.7229 19.5323 25.2165 19.9631 25.6473C20.3968 26.0809 20.896 26.369 21.4751 26.5202C22.1313 26.6943 23.2154 26.6115 23.5035 26.3662C23.6348 26.2578 23.7032 26.1009 23.7032 25.9154C23.7032 25.7129 23.6262 25.5588 23.4721 25.4447C23.3067 25.3249 23.1555 25.3106 22.8388 25.3848C22.5278 25.4561 22.1284 25.4647 21.8346 25.4019C21.7262 25.3791 21.5208 25.3021 21.3781 25.2336C20.9103 25.0025 20.6079 24.7001 20.3768 24.2322C20.2256 23.9241 20.1657 23.6702 20.1657 23.3051C20.1657 22.9399 20.2256 22.686 20.3768 22.3779C20.6079 21.91 20.9103 21.6076 21.3781 21.3765C21.6863 21.2253 21.9402 21.1654 22.3053 21.1654C22.6705 21.1654 22.9244 21.2253 23.2325 21.3765C23.5378 21.5277 23.7774 21.716 23.9685 21.95C24.1483 22.1725 24.3508 22.5833 24.4022 22.8343C24.4293 22.9668 24.686 23.2536 25.1425 23.0609C25.3311 22.9936 25.5953 22.7614 25.5205 22.4749C25.3693 21.8958 25.0783 21.3965 24.6475 20.9629C24.2139 20.5321 23.7146 20.2439 23.1355 20.0899C22.7532 19.9872 22.0172 19.9701 21.6349 20.0528ZM28.0909 27.6886H29.0686C29.4576 27.6886 29.8306 27.5346 30.1056 27.2604C30.3806 26.9862 30.5351 26.6143 30.5351 26.2266V24.4879C30.5351 24.432 30.5574 24.3784 30.5971 24.3389C30.6367 24.2993 30.6905 24.2771 30.7466 24.2771C30.7962 24.2753 30.8446 24.2923 30.8822 24.3246C31.7133 25.1458 32.1043 26.1961 31.9675 27.2062C31.8682 27.899 31.5541 28.5435 31.0692 29.0496C30.4025 29.7632 30.0363 30.705 30.0463 31.6801V34.5117C30.0463 34.6409 30.0978 34.7649 30.1895 34.8563C30.2812 34.9477 30.4055 34.999 30.5351 34.999C30.6648 34.999 30.7891 34.9477 30.8808 34.8563C30.9725 34.7649 31.024 34.6409 31.024 34.5117V31.6801C31.0149 30.9538 31.2857 30.2517 31.7805 29.7185C32.405 29.0658 32.8089 28.2346 32.9354 27.3414C33.1199 26.0243 32.6225 24.6731 31.5715 23.6326C31.4625 23.5262 31.3335 23.4423 31.192 23.3857C31.0504 23.329 30.8991 23.3007 30.7466 23.3024C30.4312 23.3024 30.1287 23.4273 29.9057 23.6496C29.6827 23.872 29.5575 24.1735 29.5575 24.4879V26.2266C29.5575 26.3558 29.5059 26.4798 29.4143 26.5712C29.3226 26.6626 29.1983 26.7139 29.0686 26.7139H28.0909C27.9613 26.7139 27.8369 26.6626 27.7452 26.5712C27.6536 26.4798 27.6021 26.3558 27.6021 26.2266V24.4879C27.6021 24.1735 27.4768 23.872 27.2538 23.6496C27.0308 23.4273 26.7283 23.3024 26.4129 23.3024C26.2604 23.3007 26.1091 23.329 25.9675 23.3857C25.826 23.4423 25.697 23.5262 25.588 23.6326C24.537 24.6731 24.0396 26.0243 24.2241 27.3414C24.3506 28.2346 24.7545 29.0658 25.379 29.7185C25.8738 30.2517 26.1446 30.9538 26.1355 31.6801V34.5117C26.1355 34.6409 26.187 34.7649 26.2787 34.8563C26.3704 34.9477 26.4947 34.999 26.6244 34.999C26.754 34.999 26.8784 34.9477 26.97 34.8563C27.0617 34.7649 27.1132 34.6409 27.1132 34.5117V31.6801C27.1232 30.705 26.757 29.7632 26.0903 29.0496C25.6057 28.5438 25.2916 27.8998 25.1921 27.2074C25.0503 26.1961 25.4463 25.1458 26.2773 24.3246C26.3149 24.2923 26.3633 24.2753 26.4129 24.2771C26.469 24.2771 26.5228 24.2993 26.5624 24.3389C26.6021 24.3784 26.6244 24.432 26.6244 24.4879V26.2266C26.6244 26.6143 26.7789 26.9862 27.0539 27.2604C27.3289 27.5346 27.702 27.6886 28.0909 27.6886ZM28.9228 34.8557C28.8319 34.9473 28.7085 34.9987 28.5799 34.9987C28.4513 34.9987 28.3279 34.9473 28.237 34.8557C28.146 34.7642 28.0949 34.64 28.0949 34.5105V31.0935C28.0949 30.964 28.146 30.8398 28.237 30.7483C28.3279 30.6567 28.4513 30.6053 28.5799 30.6053C28.7085 30.6053 28.8319 30.6567 28.9228 30.7483C29.0138 30.8398 29.0649 30.964 29.0649 31.0935V34.5105C29.0649 34.64 29.0138 34.7642 28.9228 34.8557Z" fill="#F9F9F9"/>
<path d="M20.3648 17.2141L20.5077 17.2596L20.5084 17.2575L20.3648 17.2141ZM21.5487 16.0558L21.5071 15.9117L21.5068 15.9118L21.5487 16.0558ZM20.3106 17.6905L20.1608 17.682L20.1608 17.6833L20.3106 17.6905ZM20.2393 18.1099L20.3494 18.2118L20.3517 18.2091L20.2393 18.1099ZM19.7743 17.9359L19.8774 17.8269L19.877 17.8266L19.7743 17.9359ZM17.7972 17.6021L17.7337 17.4662L17.7337 17.4662L17.7972 17.6021ZM17.1382 18.1356L17.2443 18.2416L17.2447 18.2412L17.1382 18.1356ZM16.6276 18.7375L16.4934 18.6704L16.4932 18.6708L16.6276 18.7375ZM16.4821 19.9728L16.3367 20.0099L16.3368 20.0101L16.4821 19.9728ZM16.9414 20.7773L17.0509 20.6748L17.0503 20.6741L16.9414 20.7773ZM17.1097 21.2395L17.2089 21.3519L17.21 21.351L17.1097 21.2395ZM16.6903 21.3108L16.6831 21.161L16.6818 21.161L16.6903 21.3108ZM16.2139 21.365L16.2578 21.5084L16.2594 21.5079L16.2139 21.365ZM15.0471 22.5832L14.9018 22.5457L14.9018 22.546L15.0471 22.5832ZM15.0471 24.0267L14.9018 24.0639L14.9018 24.0641L15.0471 24.0267ZM16.2139 25.2449L16.2594 25.1019L16.2578 25.1014L16.2139 25.2449ZM16.6903 25.2991L16.6818 25.4488L16.6831 25.4489L16.6903 25.2991ZM17.1097 25.3704L17.2116 25.2603L17.2089 25.2579L17.1097 25.3704ZM16.9357 25.8354L16.8267 25.7323L16.8264 25.7327L16.9357 25.8354ZM16.6019 27.8124L16.466 27.8759L16.466 27.876L16.6019 27.8124ZM17.1354 28.4743L17.0293 28.5804L17.1354 28.4743ZM17.7972 29.0078L17.7337 29.1437L17.7337 29.1437L17.7972 29.0078ZM19.7743 28.674L19.877 28.7833L19.8774 28.7829L19.7743 28.674ZM20.2393 28.5L20.3518 28.4007L20.3494 28.3981L20.2393 28.5ZM20.3106 28.9193L20.1608 28.9266L20.1608 28.9279L20.3106 28.9193ZM20.3648 29.3958L20.5082 29.3519L20.5077 29.3503L20.3648 29.3958ZM21.583 30.5626L21.5455 30.7079L21.5458 30.7079L21.583 30.5626ZM23.0265 30.5626L23.0637 30.7079L23.0639 30.7079L23.0265 30.5626ZM24.1966 29.5308L24.3355 29.5874L24.3668 29.5105L24.3183 29.4432L24.1966 29.5308ZM23.6028 28.3612L23.4599 28.4066L23.4599 28.4066L23.6028 28.3612ZM23.4599 27.7539L23.6088 27.7365L23.5683 27.3895L23.3446 27.6579L23.4599 27.7539ZM23.2833 28.0293L23.4186 28.094L23.4189 28.0934L23.2833 28.0293ZM23.1606 28.6398L23.3103 28.6494L23.3104 28.6478L23.1606 28.6398ZM23.0607 29.1675L22.9329 29.0889L22.9305 29.0931L23.0607 29.1675ZM22.8525 29.373L22.7785 29.2424L22.7765 29.2436L22.8525 29.373ZM21.757 29.373L21.8329 29.2436L21.8309 29.2424L21.757 29.373ZM21.5487 29.1675L21.679 29.0931L21.6765 29.0889L21.5487 29.1675ZM21.4489 28.6369L21.2991 28.6459L21.2992 28.6464L21.4489 28.6369ZM21.3205 28.0236L21.455 27.9572L21.455 27.9571L21.3205 28.0236ZM19.0867 27.7126L18.9839 27.6034L18.9836 27.6036L19.0867 27.7126ZM18.345 27.9693L18.2848 28.1068L18.2876 28.108L18.345 27.9693ZM17.6517 27.2847L17.7875 27.2208L17.7874 27.2206L17.6517 27.2847ZM17.8999 26.523L18.0084 26.6266L18.0085 26.6265L17.8999 26.523ZM18.3336 25.6157L18.4834 25.6232L18.4834 25.6221L18.3336 25.6157ZM18.3107 25.2078L18.1637 25.2376L18.1642 25.2398L18.3107 25.2078ZM17.5804 24.2835L17.5157 24.4188L17.5163 24.4191L17.5804 24.2835ZM16.9699 24.1608L16.9603 24.3105L16.9619 24.3106L16.9699 24.1608ZM16.4421 24.0609L16.5208 23.9331L16.5165 23.9307L16.4421 24.0609ZM16.2367 23.8527L16.3672 23.7787L16.3661 23.7768L16.2367 23.8527ZM16.2367 22.7572L16.3661 22.8331L16.3672 22.8311L16.2367 22.7572ZM16.4421 22.5489L16.5166 22.6792L16.5207 22.6767L16.4421 22.5489ZM16.9727 22.4491L16.9638 22.2993L16.9632 22.2994L16.9727 22.4491ZM17.5861 22.3207L17.5199 22.1861L17.5198 22.1862L17.5861 22.3207ZM18.3107 21.4021L18.1642 21.37L18.1638 21.3718L18.3107 21.4021ZM18.3336 20.9941L18.4834 20.9877L18.4834 20.9866L18.3336 20.9941ZM17.8999 20.0869L18.0085 19.9834L18.0084 19.9833L17.8999 20.0869ZM17.6403 19.3452L17.5029 19.285L17.5015 19.2884L17.6403 19.3452ZM18.325 18.6519L18.3889 18.7877L18.389 18.7876L18.325 18.6519ZM19.0867 18.9001L18.9831 19.0086L18.9832 19.0087L19.0867 18.9001ZM19.9939 19.3338L19.9864 19.4836L19.9875 19.4836L19.9939 19.3338ZM20.4019 19.3109L20.372 19.1639L20.3698 19.1644L20.4019 19.3109ZM21.3262 18.5806L21.1909 18.5159L21.1906 18.5165L21.3262 18.5806ZM21.4489 17.9701L21.2992 17.9605L21.2991 17.9621L21.4489 17.9701ZM21.5459 17.4423L21.4163 17.3667L21.4152 17.3686L21.5459 17.4423ZM21.931 17.1684L21.9605 17.3157L21.9674 17.314L21.931 17.1684ZM22.3789 17.1542L22.3744 17.3041L22.3749 17.3041L22.3789 17.1542ZM22.8582 17.2398L22.7815 17.3687L22.7838 17.37L22.8582 17.2398ZM23.0607 17.4423L22.9304 17.5168L22.933 17.5209L23.0607 17.4423ZM23.1606 17.9729L23.3103 17.9641L23.3103 17.9634L23.1606 17.9729ZM23.289 18.5892L23.1541 18.6547L23.1544 18.6554L23.289 18.5892ZM24.2076 19.3109L24.2396 19.1644L24.2376 19.164L24.2076 19.3109ZM24.6155 19.3338L24.6219 19.4836L24.623 19.4836L24.6155 19.3338ZM25.5228 18.9001L25.6263 19.0087L25.6264 19.0086L25.5228 18.9001ZM26.2845 18.6519L26.2204 18.7876L26.2206 18.7877L26.2845 18.6519ZM26.9691 19.3452L27.108 19.2884L27.1066 19.285L26.9691 19.3452ZM26.7095 20.0869L26.8175 20.1911L26.818 20.1905L26.7095 20.0869ZM26.39 20.532L26.525 20.5975L26.5256 20.5961L26.39 20.532ZM26.2759 21.0284L26.4257 21.036L26.4258 21.0335L26.2759 21.0284ZM26.3215 21.4991L26.1775 21.541L26.1781 21.5429L26.3215 21.4991ZM27.0319 22.3293L26.9671 22.4645L26.968 22.465L27.0319 22.3293ZM27.6396 22.4491L27.6491 22.2994L27.6476 22.2993L27.6396 22.4491ZM28.1673 22.5489L28.0887 22.6767L28.0929 22.6792L28.1673 22.5489ZM28.3728 22.7572L28.2422 22.8311L28.2434 22.8331L28.3728 22.7572ZM28.4526 23.303L28.3026 23.303L28.3026 23.453H28.4526V23.303ZM29.608 23.303V23.453H29.758L29.758 23.303L29.608 23.303ZM29.4169 22.2094L29.2829 22.2769L29.283 22.277L29.4169 22.2094ZM28.3956 21.365L28.3501 21.5079L28.3523 21.5086L28.3956 21.365ZM27.9191 21.3108L27.9277 21.161L27.9264 21.161L27.9191 21.3108ZM27.4998 21.2395L27.3994 21.351L27.4005 21.3519L27.4998 21.2395ZM27.6681 20.7773L27.5592 20.6741L27.5586 20.6748L27.6681 20.7773ZM28.1274 19.9728L28.2727 20.0101L28.2727 20.0099L28.1274 19.9728ZM27.9819 18.7375L28.1163 18.6708L28.1161 18.6704L27.9819 18.7375ZM27.4712 18.1356L27.3648 18.2412L27.3652 18.2416L27.4712 18.1356ZM26.8122 17.6021L26.8758 17.4662L26.8757 17.4662L26.8122 17.6021ZM24.8352 17.9359L24.7325 17.8266L24.7321 17.8269L24.8352 17.9359ZM24.3702 18.1099L24.2577 18.2092L24.2601 18.2117L24.3702 18.1099ZM24.2989 17.6905L24.4487 17.6833L24.4486 17.682L24.2989 17.6905ZM24.2447 17.2141L24.1012 17.258L24.1017 17.2596L24.2447 17.2141ZM23.0265 16.0473L22.9879 16.1922L22.9891 16.1925L23.0265 16.0473ZM19.0873 22.4749L19.232 22.5143L19.232 22.5143L19.0873 22.4749ZM21.6349 20.0528L21.6664 20.1995L21.6666 20.1994L21.6349 20.0528ZM19.0873 24.1352L19.232 24.0959L19.232 24.0958L19.0873 24.1352ZM19.9631 25.6473L19.8571 25.7533L19.9631 25.6473ZM21.4751 26.5202L21.5136 26.3752L21.513 26.3751L21.4751 26.5202ZM23.5035 26.3662L23.408 26.2505L23.4063 26.252L23.5035 26.3662ZM23.4721 25.4447L23.5614 25.3242L23.5601 25.3232L23.4721 25.4447ZM22.8388 25.3848L22.8723 25.531L22.873 25.5308L22.8388 25.3848ZM21.8346 25.4019L21.8659 25.2552L21.8655 25.2551L21.8346 25.4019ZM21.3781 25.2336L21.3117 25.3681L21.3132 25.3688L21.3781 25.2336ZM20.3768 24.2322L20.2421 24.2983L20.2423 24.2987L20.3768 24.2322ZM20.3768 22.3779L20.2423 22.3115L20.2421 22.3118L20.3768 22.3779ZM21.3781 21.3765L21.3121 21.2419L21.3117 21.242L21.3781 21.3765ZM23.2325 21.3765L23.2991 21.2421L23.2986 21.2419L23.2325 21.3765ZM23.9685 21.95L24.0852 21.8557L24.0847 21.855L23.9685 21.95ZM24.4022 22.8343L24.2552 22.8644V22.8644L24.4022 22.8343ZM25.1425 23.0609L25.0919 22.9195L25.0841 22.9227L25.1425 23.0609ZM25.5205 22.4749L25.3754 22.5128V22.5128L25.5205 22.4749ZM24.6475 20.9629L24.7539 20.8571L24.7532 20.8565L24.6475 20.9629ZM23.1355 20.0899L23.0966 20.2348L23.0969 20.2349L23.1355 20.0899ZM30.5971 24.3389L30.703 24.4451L30.703 24.4451L30.5971 24.3389ZM30.7466 24.2771V24.4272L30.752 24.427L30.7466 24.2771ZM30.8822 24.3246L30.9879 24.2177L30.98 24.2109L30.8822 24.3246ZM31.9675 27.2062L32.1159 27.2274L32.1161 27.2263L31.9675 27.2062ZM31.0692 29.0496L30.9609 28.9458L30.9596 28.9472L31.0692 29.0496ZM30.0463 31.6801H30.1963L30.1963 31.6786L30.0463 31.6801ZM30.1895 34.8563L30.0836 34.9625H30.0836L30.1895 34.8563ZM30.8808 34.8563L30.9867 34.9625L30.9867 34.9625L30.8808 34.8563ZM31.024 31.6801H31.174L31.174 31.6782L31.024 31.6801ZM31.7805 29.7185L31.6721 29.6148L31.6705 29.6165L31.7805 29.7185ZM32.9354 27.3414L33.0839 27.3624L33.0839 27.3622L32.9354 27.3414ZM31.5715 23.6326L31.677 23.526L31.6763 23.5252L31.5715 23.6326ZM30.7466 23.3024V23.4524L30.7482 23.4524L30.7466 23.3024ZM29.9057 23.6496L29.7998 23.5434L29.9057 23.6496ZM29.4143 26.5712L29.3084 26.465L29.4143 26.5712ZM27.7452 26.5712L27.8512 26.465L27.7452 26.5712ZM27.2538 23.6496L27.3597 23.5434L27.2538 23.6496ZM26.4129 23.3024L26.4113 23.4524H26.4129V23.3024ZM25.588 23.6326L25.4833 23.5252L25.4825 23.526L25.588 23.6326ZM24.2241 27.3414L24.0756 27.3622L24.0756 27.3624L24.2241 27.3414ZM25.379 29.7185L25.489 29.6165L25.4874 29.6148L25.379 29.7185ZM26.1355 31.6801L25.9855 31.6782V31.6801H26.1355ZM26.2787 34.8563L26.1728 34.9625H26.1728L26.2787 34.8563ZM26.97 34.8563L27.0759 34.9625H27.0759L26.97 34.8563ZM27.1132 31.6801L26.9632 31.6786V31.6801H27.1132ZM26.0903 29.0496L26.1999 28.9472L26.1986 28.9458L26.0903 29.0496ZM25.1921 27.2074L25.0435 27.2282L25.0436 27.2287L25.1921 27.2074ZM26.2773 24.3246L26.1792 24.2107L26.1719 24.2179L26.2773 24.3246ZM26.4129 24.2771L26.4075 24.4271H26.4129V24.2771ZM26.5624 24.3389L26.4565 24.4451L26.4565 24.4451L26.5624 24.3389ZM28.9228 34.8557L28.8164 34.75L28.9228 34.8557ZM28.237 34.8557L28.1306 34.9614L28.237 34.8557ZM28.237 30.7483L28.1306 30.6426L28.237 30.7483ZM28.9228 30.7483L28.8164 30.854L28.8164 30.854L28.9228 30.7483ZM20.5084 17.2575C20.6588 16.7597 21.0788 16.3487 21.5906 16.1999L21.5068 15.9118C20.9003 16.0882 20.4018 16.573 20.2212 17.1707L20.5084 17.2575ZM20.4603 17.6991C20.4659 17.6016 20.4743 17.5009 20.4836 17.4176C20.4935 17.3283 20.503 17.2743 20.5077 17.2596L20.2219 17.1686C20.2066 17.2166 20.1947 17.301 20.1854 17.3843C20.1754 17.4736 20.1667 17.5798 20.1608 17.682L20.4603 17.6991ZM20.3517 18.2091C20.3985 18.1561 20.4202 18.0951 20.4334 18.0189C20.4459 17.9467 20.4533 17.8451 20.4604 17.6977L20.1608 17.6833C20.1536 17.8326 20.1467 17.9164 20.1378 17.9676C20.1336 17.9922 20.1297 18.0038 20.1277 18.0085C20.1269 18.0106 20.1265 18.0111 20.1267 18.0108C20.1269 18.0105 20.1271 18.0103 20.1268 18.0106L20.3517 18.2091ZM19.6711 18.0448C19.7394 18.1095 19.7996 18.1632 19.8533 18.2048C19.906 18.2456 19.9597 18.2806 20.0151 18.3014C20.0742 18.3235 20.1392 18.3307 20.2057 18.3093C20.2681 18.2893 20.3146 18.2494 20.3494 18.2117L20.1292 18.008C20.1112 18.0275 20.1067 18.026 20.1139 18.0237C20.1252 18.0201 20.1308 18.0243 20.1203 18.0204C20.1062 18.0151 20.0802 18.0011 20.0371 17.9676C19.995 17.935 19.9432 17.8892 19.8774 17.8269L19.6711 18.0448ZM17.8607 17.738C18.4993 17.4396 19.1413 17.5466 19.6715 18.0451L19.877 17.8266C19.2604 17.2468 18.4873 17.1141 17.7337 17.4662L17.8607 17.738ZM17.2447 18.2412C17.4375 18.047 17.5412 17.9457 17.623 17.8795C17.6991 17.818 17.7561 17.7869 17.8608 17.738L17.7337 17.4662C17.6187 17.52 17.5373 17.563 17.4344 17.6463C17.3372 17.7249 17.2212 17.839 17.0318 18.0299L17.2447 18.2412ZM16.7617 18.8046C16.8204 18.6872 16.9163 18.5696 17.2443 18.2416L17.0321 18.0295C16.7096 18.352 16.5773 18.5025 16.4934 18.6704L16.7617 18.8046ZM16.6274 19.9357C16.5343 19.5709 16.5826 19.1654 16.7619 18.8042L16.4932 18.6708C16.2845 19.0913 16.2245 19.5702 16.3367 20.0099L16.6274 19.9357ZM17.0503 20.6741C16.8091 20.4196 16.7031 20.2306 16.6273 19.9355L16.3368 20.0101C16.4265 20.3598 16.5601 20.593 16.8325 20.8805L17.0503 20.6741ZM17.21 21.351C17.2484 21.3165 17.2886 21.2702 17.309 21.2078C17.3306 21.1417 17.3238 21.0769 17.3023 21.018C17.2648 20.9151 17.1715 20.8038 17.0509 20.6748L16.8318 20.8798C16.9594 21.0162 17.0073 21.0846 17.0204 21.1207C17.0243 21.1314 17.0202 21.1259 17.0239 21.1146C17.0263 21.1071 17.0281 21.1111 17.0093 21.128L17.21 21.351ZM16.6975 21.4606C16.8449 21.4535 16.9465 21.4461 17.0187 21.4336C17.0949 21.4204 17.1559 21.3987 17.2089 21.3519L17.0104 21.127C17.0101 21.1273 17.0103 21.1271 17.0106 21.1269C17.0109 21.1267 17.0104 21.1271 17.0083 21.1279C17.0036 21.1299 16.992 21.1338 16.9674 21.138C16.9162 21.1469 16.8324 21.1538 16.6831 21.161L16.6975 21.4606ZM16.2594 21.5079C16.2741 21.5032 16.3281 21.4937 16.4174 21.4838C16.5007 21.4745 16.6014 21.4661 16.6989 21.4605L16.6818 21.161C16.5796 21.1669 16.4734 21.1756 16.3841 21.1856C16.3008 21.1949 16.2164 21.2068 16.1684 21.2221L16.2594 21.5079ZM15.1923 22.6206C15.3247 22.1065 15.7483 21.6644 16.2578 21.5084L16.17 21.2216C15.5611 21.4079 15.0604 21.9301 14.9018 22.5457L15.1923 22.6206ZM15.1924 23.9895C15.1806 23.9434 15.1693 23.8505 15.1615 23.7229C15.1539 23.599 15.15 23.4524 15.15 23.3049C15.15 23.1575 15.1539 23.0109 15.1615 22.8869C15.1693 22.7593 15.1806 22.6665 15.1924 22.6203L14.9018 22.546C14.8822 22.6225 14.8699 22.7408 14.8621 22.8685C14.854 22.9999 14.85 23.1528 14.85 23.3049C14.85 23.457 14.854 23.61 14.8621 23.7413C14.8699 23.8691 14.8822 23.9874 14.9018 24.0639L15.1924 23.9895ZM16.2578 25.1014C15.7483 24.9455 15.3247 24.5033 15.1923 23.9893L14.9018 24.0641C15.0604 24.6798 15.5611 25.2019 16.17 25.3883L16.2578 25.1014ZM16.6989 25.1493C16.6014 25.1438 16.5007 25.1354 16.4174 25.1261C16.3281 25.1162 16.2741 25.1066 16.2594 25.1019L16.1684 25.3878C16.2164 25.4031 16.3008 25.415 16.3841 25.4243C16.4734 25.4342 16.5796 25.443 16.6818 25.4488L16.6989 25.1493ZM17.2089 25.2579C17.1559 25.2111 17.0949 25.1895 17.0187 25.1762C16.9465 25.1637 16.8449 25.1563 16.6975 25.1493L16.6831 25.4489C16.8324 25.4561 16.9162 25.463 16.9674 25.4718C16.992 25.4761 17.0036 25.48 17.0083 25.4819C17.0104 25.4828 17.0109 25.4832 17.0106 25.483C17.0103 25.4827 17.0101 25.4826 17.0104 25.4829L17.2089 25.2579ZM17.0446 25.9385C17.1093 25.8702 17.163 25.8101 17.2046 25.7563C17.2454 25.7037 17.2804 25.6499 17.3012 25.5945C17.3233 25.5355 17.3305 25.4705 17.3091 25.404C17.2891 25.3416 17.2492 25.2951 17.2115 25.2603L17.0078 25.4805C17.0273 25.4985 17.0258 25.503 17.0235 25.4958C17.0199 25.4845 17.0241 25.4788 17.0202 25.4893C17.0149 25.5035 17.0009 25.5294 16.9674 25.5726C16.9348 25.6147 16.889 25.6665 16.8267 25.7323L17.0446 25.9385ZM16.7378 27.7489C16.4394 27.1104 16.5464 26.4684 17.0449 25.9382L16.8264 25.7327C16.2466 26.3493 16.1139 27.1223 16.466 27.8759L16.7378 27.7489ZM17.2414 28.3682C17.0472 28.174 16.9458 28.0695 16.8795 27.9872C16.8178 27.9106 16.7867 27.8535 16.7378 27.7489L16.466 27.876C16.5198 27.991 16.5628 28.0723 16.6459 28.1754C16.7244 28.2728 16.8384 28.3895 17.0293 28.5804L17.2414 28.3682ZM17.8608 28.8719C17.7561 28.823 17.699 28.7918 17.6224 28.7301C17.5401 28.6638 17.4357 28.5625 17.2414 28.3682L17.0293 28.5804C17.2202 28.7713 17.3368 28.8853 17.4342 28.9638C17.5374 29.0469 17.6187 29.0899 17.7337 29.1437L17.8608 28.8719ZM19.6715 28.5647C19.1413 29.0633 18.4993 29.1702 17.8607 28.8719L17.7337 29.1437C18.4873 29.4958 19.2604 29.3631 19.877 28.7833L19.6715 28.5647ZM20.3494 28.3981C20.3146 28.3605 20.2681 28.3206 20.2057 28.3005C20.1392 28.2791 20.0742 28.2864 20.0151 28.3085C19.9597 28.3292 19.906 28.3643 19.8533 28.4051C19.7996 28.4467 19.7394 28.5004 19.6711 28.5651L19.8774 28.7829C19.9432 28.7207 19.995 28.6748 20.0371 28.6422C20.0802 28.6088 20.1062 28.5948 20.1203 28.5895C20.1308 28.5855 20.1252 28.5898 20.1139 28.5861C20.1067 28.5838 20.1112 28.5824 20.1292 28.6018L20.3494 28.3981ZM20.4604 28.9121C20.4533 28.7648 20.4459 28.6631 20.4334 28.591C20.4202 28.5147 20.3985 28.4538 20.3517 28.4007L20.1268 28.5992C20.1271 28.5996 20.1269 28.5994 20.1267 28.599C20.1265 28.5987 20.1269 28.5993 20.1277 28.6013C20.1297 28.6061 20.1336 28.6176 20.1378 28.6422C20.1467 28.6934 20.1536 28.7772 20.1608 28.9266L20.4604 28.9121ZM20.5077 29.3503C20.503 29.3355 20.4935 29.2815 20.4836 29.1923C20.4743 29.109 20.4659 29.0083 20.4603 28.9108L20.1608 28.9279C20.1667 29.0301 20.1754 29.1362 20.1854 29.2255C20.1947 29.3089 20.2066 29.3933 20.2219 29.4413L20.5077 29.3503ZM21.6204 30.4173C21.1063 30.2849 20.6642 29.8613 20.5082 29.3519L20.2214 29.4397C20.4077 30.0485 20.9299 30.5493 21.5455 30.7079L21.6204 30.4173ZM22.9893 30.4173C22.9432 30.4291 22.8503 30.4403 22.7227 30.4482C22.5988 30.4558 22.4522 30.4597 22.3047 30.4597C22.1573 30.4597 22.0107 30.4558 21.8867 30.4482C21.7591 30.4403 21.6663 30.4291 21.6201 30.4173L21.5458 30.7079C21.6223 30.7275 21.7406 30.7398 21.8683 30.7476C21.9997 30.7557 22.1526 30.7597 22.3047 30.7597C22.4568 30.7597 22.6098 30.7557 22.7411 30.7476C22.8689 30.7398 22.9872 30.7275 23.0637 30.7079L22.9893 30.4173ZM24.0576 29.4743C23.8726 29.9291 23.4605 30.2959 22.9891 30.4173L23.0639 30.7079C23.6299 30.5621 24.1157 30.1276 24.3355 29.5874L24.0576 29.4743ZM23.4599 28.4066C23.5963 28.8355 23.8074 29.2473 24.0749 29.6185L24.3183 29.4432C24.0683 29.0962 23.8721 28.7127 23.7458 28.3157L23.4599 28.4066ZM23.3109 27.7713C23.3398 28.0193 23.3876 28.179 23.4599 28.4066L23.7458 28.3157C23.6749 28.0927 23.6344 27.9552 23.6088 27.7365L23.3109 27.7713ZM23.4189 28.0934C23.4599 28.0067 23.5127 27.9248 23.5751 27.8499L23.3446 27.6579C23.2668 27.7513 23.2 27.8545 23.1477 27.9651L23.4189 28.0934ZM23.3104 28.6478C23.3205 28.4577 23.3273 28.3662 23.3411 28.2979C23.3536 28.236 23.3722 28.1909 23.4186 28.094L23.1479 27.9645C23.1002 28.0644 23.0674 28.1378 23.0471 28.2385C23.0281 28.3328 23.0206 28.4481 23.0108 28.6318L23.3104 28.6478ZM23.1885 29.2462C23.2307 29.1775 23.2578 29.1175 23.2753 29.0229C23.2908 28.9387 23.2991 28.8245 23.3103 28.6494L23.0109 28.6302C22.9993 28.8116 22.9918 28.9057 22.9803 28.9685C22.9706 29.0208 22.9592 29.0463 22.933 29.0889L23.1885 29.2462ZM22.9264 29.5035C23.0349 29.442 23.1316 29.3458 23.191 29.242L22.9305 29.0931C22.8986 29.149 22.8412 29.2069 22.7785 29.2424L22.9264 29.5035ZM22.3047 29.6028C22.5002 29.6028 22.6182 29.6025 22.7021 29.5902C22.8022 29.5754 22.8592 29.5429 22.9284 29.5023L22.7765 29.2436C22.7145 29.28 22.6988 29.2874 22.6584 29.2934C22.6018 29.3017 22.5115 29.3028 22.3047 29.3028V29.6028ZM21.6811 29.5023C21.7502 29.5429 21.8073 29.5754 21.9074 29.5902C21.9913 29.6025 22.1093 29.6028 22.3047 29.6028V29.3028C22.098 29.3028 22.0077 29.3017 21.9511 29.2934C21.9107 29.2874 21.895 29.28 21.8329 29.2436L21.6811 29.5023ZM21.4185 29.242C21.4778 29.3458 21.5746 29.442 21.683 29.5035L21.8309 29.2424C21.7682 29.2069 21.7109 29.149 21.679 29.0931L21.4185 29.242ZM21.2992 28.6464C21.3104 28.823 21.3186 28.9379 21.3341 29.0224C21.3516 29.1174 21.3787 29.1774 21.421 29.2462L21.6765 29.0889C21.6503 29.0464 21.6389 29.0209 21.6292 28.9682C21.6176 28.9051 21.6102 28.8103 21.5986 28.6274L21.2992 28.6464ZM21.186 28.0899C21.2357 28.1908 21.2542 28.2336 21.2667 28.2935C21.2807 28.3605 21.2875 28.4506 21.2991 28.6459L21.5986 28.628C21.5874 28.441 21.5799 28.3256 21.5604 28.2322C21.5394 28.1316 21.5052 28.0589 21.455 27.9572L21.186 28.0899ZM20.0909 27.4204C20.583 27.4204 20.9751 27.6631 21.186 28.09L21.455 27.9571C21.1923 27.4254 20.6944 27.1204 20.0909 27.1204V27.4204ZM19.1895 27.8218C19.3535 27.6674 19.4928 27.5688 19.6311 27.5079C19.7679 27.4476 19.9121 27.4204 20.0909 27.4204V27.1204C19.8789 27.1204 19.6922 27.1531 19.5101 27.2333C19.3297 27.3129 19.1623 27.4354 18.9839 27.6034L19.1895 27.8218ZM18.2876 28.108C18.4365 28.1696 18.5814 28.188 18.7391 28.1336C18.8857 28.0831 19.0285 27.9741 19.1898 27.8216L18.9836 27.6036C18.8282 27.7506 18.7242 27.8214 18.6413 27.85C18.5693 27.8748 18.5016 27.8718 18.4023 27.8307L18.2876 28.108ZM17.516 27.3485C17.5431 27.4061 17.5998 27.4777 17.6563 27.5429C17.717 27.6129 17.7915 27.6912 17.8674 27.7659C17.9432 27.8407 18.0221 27.9135 18.0919 27.9723C18.1561 28.0264 18.2278 28.0818 18.2848 28.1068L18.4051 27.8319C18.4051 27.8319 18.4016 27.8303 18.394 27.8256C18.3867 27.8212 18.3775 27.815 18.3663 27.8069C18.3438 27.7908 18.3164 27.7691 18.2851 27.7428C18.2228 27.6903 18.1497 27.623 18.078 27.5523C18.0062 27.4815 17.9373 27.409 17.883 27.3463C17.8245 27.2789 17.7946 27.236 17.7875 27.2208L17.516 27.3485ZM17.7915 26.4193C17.6357 26.5824 17.5237 26.7295 17.4739 26.8818C17.4203 27.0453 17.444 27.196 17.5161 27.3487L17.7874 27.2206C17.7396 27.1194 17.7348 27.049 17.759 26.9751C17.7869 26.8898 17.8589 26.783 18.0084 26.6266L17.7915 26.4193ZM18.1837 25.6083C18.1688 25.9068 18.0693 26.1282 17.7914 26.4194L18.0085 26.6265C18.324 26.2958 18.4641 26.0094 18.4834 25.6232L18.1837 25.6083ZM18.1642 25.2398C18.1802 25.3128 18.1892 25.4806 18.1837 25.6094L18.4834 25.6221C18.4894 25.4827 18.4813 25.2854 18.4573 25.1757L18.1642 25.2398ZM17.5163 24.4191C17.8424 24.5733 18.0935 24.8912 18.1637 25.2376L18.4577 25.178C18.3683 24.737 18.0544 24.3417 17.6445 24.1479L17.5163 24.4191ZM16.9619 24.3106C17.1519 24.3207 17.2434 24.3276 17.3118 24.3413C17.3737 24.3538 17.4187 24.3724 17.5157 24.4188L17.6451 24.1481C17.5452 24.1004 17.4719 24.0676 17.3711 24.0473C17.2769 24.0283 17.1616 24.0208 16.9779 24.011L16.9619 24.3106ZM16.3635 24.1887C16.4322 24.2309 16.4922 24.258 16.5868 24.2755C16.6709 24.291 16.7852 24.2993 16.9603 24.3105L16.9795 24.0111C16.798 23.9995 16.704 23.992 16.6412 23.9805C16.5889 23.9708 16.5633 23.9594 16.5207 23.9332L16.3635 24.1887ZM16.1062 23.9266C16.1677 24.0351 16.2638 24.1318 16.3677 24.1912L16.5165 23.9307C16.4606 23.8988 16.4028 23.8414 16.3672 23.7787L16.1062 23.9266ZM16.0068 23.3049C16.0068 23.5004 16.0071 23.6184 16.0195 23.7023C16.0342 23.8024 16.0667 23.8594 16.1073 23.9286L16.3661 23.7768C16.3297 23.7147 16.3222 23.699 16.3163 23.6586C16.308 23.602 16.3068 23.5117 16.3068 23.3049H16.0068ZM16.1073 22.6813C16.0667 22.7504 16.0342 22.8075 16.0195 22.9076C16.0071 22.9915 16.0068 23.1095 16.0068 23.3049H16.3068C16.3068 23.0982 16.308 23.0079 16.3163 22.9513C16.3222 22.9109 16.3297 22.8952 16.3661 22.8331L16.1073 22.6813ZM16.3677 22.4187C16.2638 22.478 16.1677 22.5748 16.1062 22.6832L16.3672 22.8311C16.4028 22.7684 16.4606 22.7111 16.5165 22.6792L16.3677 22.4187ZM16.9632 22.2994C16.7867 22.3106 16.6718 22.3188 16.5873 22.3343C16.4923 22.3518 16.4322 22.3789 16.3635 22.4212L16.5207 22.6767C16.5633 22.6505 16.5888 22.6391 16.6414 22.6294C16.7046 22.6178 16.7994 22.6104 16.9823 22.5988L16.9632 22.2994ZM17.5198 22.1862C17.4189 22.2359 17.3761 22.2544 17.3162 22.2669C17.2491 22.2809 17.1591 22.2877 16.9638 22.2993L16.9817 22.5988C17.1687 22.5876 17.2841 22.5801 17.3775 22.5606C17.4781 22.5396 17.5508 22.5054 17.6524 22.4552L17.5198 22.1862ZM18.1638 21.3718C18.0937 21.7124 17.8511 22.0231 17.5199 22.1861L17.6524 22.4553C18.0629 22.2532 18.368 21.8677 18.4577 21.4323L18.1638 21.3718ZM18.1837 21.0005C18.1892 21.1293 18.1802 21.2971 18.1642 21.37L18.4573 21.4341C18.4813 21.3245 18.4894 21.1272 18.4834 20.9877L18.1837 21.0005ZM17.7914 20.1905C18.0693 20.4817 18.1688 20.703 18.1837 21.0016L18.4834 20.9866C18.4641 20.6005 18.324 20.314 18.0085 19.9834L17.7914 20.1905ZM17.5015 19.2884C17.4399 19.4389 17.4224 19.5846 17.4777 19.7422C17.5292 19.8888 17.6389 20.0308 17.7914 20.1905L18.0084 19.9833C17.8614 19.8293 17.79 19.7259 17.7608 19.6428C17.7355 19.5708 17.738 19.5025 17.7791 19.402L17.5015 19.2884ZM18.2611 18.5162C18.2036 18.5433 18.132 18.6 18.0668 18.6565C17.9968 18.7172 17.9185 18.7917 17.8437 18.8676C17.769 18.9434 17.6961 19.0223 17.6374 19.0921C17.5833 19.1563 17.5278 19.228 17.5029 19.285L17.7777 19.4053C17.7777 19.4053 17.7793 19.4018 17.784 19.3942C17.7885 19.3869 17.7947 19.3777 17.8027 19.3665C17.8189 19.344 17.8405 19.3166 17.8668 19.2853C17.9194 19.223 17.9867 19.1499 18.0574 19.0782C18.1281 19.0064 18.2007 18.9375 18.2633 18.8832C18.3308 18.8247 18.3737 18.7948 18.3889 18.7877L18.2611 18.5162ZM19.1903 18.7917C19.0273 18.6359 18.8801 18.5239 18.7279 18.4741C18.5643 18.4205 18.4137 18.4442 18.261 18.5163L18.389 18.7876C18.4902 18.7398 18.5607 18.735 18.6346 18.7592C18.7199 18.7871 18.8266 18.8591 18.9831 19.0086L19.1903 18.7917ZM20.0014 19.1839C19.7028 19.169 19.4815 19.0695 19.1903 18.7916L18.9832 19.0087C19.3138 19.3242 19.6003 19.4643 19.9864 19.4836L20.0014 19.1839ZM20.3698 19.1644C20.2969 19.1804 20.1291 19.1894 20.0003 19.1839L19.9875 19.4836C20.127 19.4896 20.3243 19.4815 20.4339 19.4575L20.3698 19.1644ZM21.1906 18.5165C21.0364 18.8426 20.7184 19.0937 20.3721 19.1639L20.4317 19.4579C20.8727 19.3685 21.268 19.0546 21.4618 18.6447L21.1906 18.5165ZM21.2991 17.9621C21.2889 18.1521 21.2821 18.2436 21.2683 18.312C21.2558 18.3739 21.2372 18.4189 21.1909 18.5159L21.4615 18.6453C21.5093 18.5454 21.5421 18.4721 21.5624 18.3713C21.5814 18.2771 21.5888 18.1618 21.5987 17.9781L21.2991 17.9621ZM21.4152 17.3686C21.3775 17.4356 21.352 17.494 21.3349 17.587C21.3194 17.6709 21.3105 17.7844 21.2992 17.9605L21.5986 17.9797C21.6101 17.7992 21.6183 17.7044 21.6299 17.6414C21.6399 17.5875 21.6515 17.5603 21.6765 17.516L21.4152 17.3686ZM21.9016 17.0214C21.703 17.0611 21.518 17.1924 21.4163 17.3667L21.6754 17.5179C21.7335 17.4184 21.8452 17.3386 21.9604 17.3155L21.9016 17.0214ZM22.3834 17.0042C22.2865 17.0013 22.1857 17.0013 22.1011 17.0039C22.0234 17.0063 21.9417 17.0112 21.8946 17.0229L21.9674 17.314C21.9667 17.3141 21.9699 17.3134 21.9787 17.3122C21.9868 17.3111 21.9975 17.31 22.0108 17.3089C22.0374 17.3067 22.0713 17.305 22.1103 17.3038C22.1884 17.3014 22.283 17.3013 22.3744 17.3041L22.3834 17.0042ZM22.9349 17.1109C22.8666 17.0702 22.8082 17.0414 22.7182 17.0257C22.6397 17.012 22.5373 17.0084 22.383 17.0042L22.3749 17.3041C22.5372 17.3085 22.6145 17.3121 22.6665 17.3212C22.707 17.3283 22.7299 17.338 22.7815 17.3687L22.9349 17.1109ZM23.191 17.3679C23.132 17.2648 23.0357 17.1685 22.9326 17.1095L22.7838 17.37C22.8404 17.4024 22.8981 17.4601 22.9305 17.5167L23.191 17.3679ZM23.3103 17.9634C23.2991 17.7869 23.2908 17.672 23.2753 17.5875C23.2579 17.4925 23.2308 17.4324 23.1885 17.3637L22.933 17.5209C22.9592 17.5635 22.9706 17.589 22.9802 17.6416C22.9918 17.7048 22.9993 17.7996 23.0109 17.9825L23.3103 17.9634ZM23.4239 18.5236C23.3739 18.4207 23.3553 18.3779 23.3427 18.3178C23.3287 18.2508 23.322 18.1608 23.3103 17.9641L23.0108 17.9818C23.022 18.1703 23.0295 18.2857 23.0491 18.3791C23.07 18.4795 23.1042 18.5522 23.1541 18.6547L23.4239 18.5236ZM24.2376 19.164C23.8941 19.0938 23.5865 18.8539 23.4235 18.5229L23.1544 18.6554C23.3566 19.0662 23.7394 19.3684 24.1775 19.4579L24.2376 19.164ZM24.6092 19.1839C24.4804 19.1894 24.3126 19.1804 24.2396 19.1644L24.1755 19.4575C24.2852 19.4815 24.4825 19.4896 24.6219 19.4836L24.6092 19.1839ZM25.4192 18.7916C25.128 19.0695 24.9066 19.169 24.6081 19.1839L24.623 19.4836C25.0092 19.4643 25.2956 19.3242 25.6263 19.0087L25.4192 18.7916ZM26.3485 18.5163C26.1958 18.4442 26.0451 18.4205 25.8815 18.4741C25.7293 18.5239 25.5822 18.6359 25.4191 18.7917L25.6264 19.0086C25.7828 18.8591 25.8896 18.7871 25.9749 18.7592C26.0488 18.735 26.1192 18.7398 26.2204 18.7876L26.3485 18.5163ZM27.1066 19.285C27.0816 19.228 27.0262 19.1563 26.9721 19.0921C26.9133 19.0223 26.8405 18.9434 26.7657 18.8676C26.691 18.7917 26.6126 18.7172 26.5427 18.6565C26.4775 18.6 26.4059 18.5433 26.3483 18.5162L26.2206 18.7877C26.2358 18.7948 26.2787 18.8247 26.3461 18.8832C26.4088 18.9375 26.4813 19.0064 26.5521 19.0782C26.6228 19.1499 26.6901 19.223 26.7426 19.2853C26.7689 19.3166 26.7906 19.344 26.8067 19.3665C26.8148 19.3777 26.821 19.3869 26.8254 19.3942C26.8301 19.4018 26.8317 19.4053 26.8317 19.4053L27.1066 19.285ZM26.818 20.1905C26.9705 20.0308 27.0803 19.8888 27.1317 19.7422C27.187 19.5846 27.1696 19.4389 27.108 19.2884L26.8303 19.402C26.8714 19.5025 26.8739 19.5708 26.8486 19.6428C26.8195 19.7259 26.7481 19.8293 26.601 19.9833L26.818 20.1905ZM26.5256 20.5961C26.5915 20.4567 26.6695 20.3444 26.8175 20.1911L26.6016 19.9828C26.4357 20.1547 26.3369 20.2934 26.2544 20.4679L26.5256 20.5961ZM26.4258 21.0335C26.4301 20.9085 26.435 20.8463 26.4471 20.7932C26.4588 20.7421 26.4786 20.693 26.525 20.5974L26.2551 20.4665C26.2073 20.5649 26.1744 20.6399 26.1546 20.7265C26.1353 20.811 26.1302 20.9 26.126 21.0232L26.4258 21.0335ZM26.4656 21.4572C26.4254 21.3191 26.415 21.2449 26.4257 21.036L26.1261 21.0207C26.114 21.2568 26.1264 21.3652 26.1775 21.541L26.4656 21.4572ZM27.0967 22.194C26.7896 22.0468 26.5669 21.7891 26.465 21.4553L26.1781 21.5429C26.3044 21.9565 26.5838 22.2808 26.9671 22.4645L27.0967 22.194ZM27.6476 22.2993C27.4576 22.2891 27.3658 22.2823 27.2975 22.2688C27.2357 22.2565 27.1912 22.2384 27.0958 22.1935L26.968 22.465C27.0666 22.5114 27.1391 22.5432 27.2392 22.563C27.3328 22.5816 27.4478 22.589 27.6316 22.5989L27.6476 22.2993ZM28.246 22.4212C28.1773 22.3789 28.1173 22.3518 28.0227 22.3344C27.9385 22.3188 27.8243 22.3106 27.6491 22.2994L27.63 22.5988C27.8114 22.6104 27.9055 22.6178 27.9683 22.6294C28.0206 22.639 28.0461 22.6505 28.0887 22.6767L28.246 22.4212ZM28.5033 22.6832C28.4418 22.5748 28.3456 22.478 28.2418 22.4187L28.0929 22.6792C28.1488 22.7111 28.2067 22.7684 28.2422 22.8311L28.5033 22.6832ZM28.6026 23.303C28.6026 23.1085 28.6023 22.9909 28.5899 22.9072C28.5751 22.8073 28.5426 22.7503 28.5021 22.6813L28.2434 22.8331C28.2798 22.8951 28.2872 22.9108 28.2931 22.951C28.3015 23.0074 28.3026 23.0972 28.3026 23.303L28.6026 23.303ZM29.608 23.153H28.4526V23.453H29.608V23.153ZM29.283 22.277C29.3623 22.4343 29.4031 22.5385 29.4267 22.6734C29.4513 22.8141 29.458 22.9933 29.458 23.3031L29.758 23.303C29.758 22.9953 29.7518 22.7915 29.7222 22.6218C29.6915 22.4462 29.6368 22.3123 29.5508 22.1419L29.283 22.277ZM28.3523 21.5086C28.7309 21.6227 29.1139 21.9413 29.2829 22.2769L29.5509 22.1419C29.3434 21.7301 28.8932 21.3583 28.4389 21.2214L28.3523 21.5086ZM27.9106 21.4605C28.0081 21.4661 28.1088 21.4745 28.1921 21.4838C28.2813 21.4937 28.3353 21.5032 28.3501 21.5079L28.4411 21.2221C28.3931 21.2068 28.3087 21.1949 28.2253 21.1856C28.136 21.1756 28.0299 21.1669 27.9277 21.161L27.9106 21.4605ZM27.4005 21.3519C27.4536 21.3987 27.5145 21.4204 27.5908 21.4336C27.6629 21.4461 27.7646 21.4535 27.9119 21.4606L27.9264 21.161C27.777 21.1538 27.6932 21.1469 27.642 21.138C27.6174 21.1338 27.6059 21.1299 27.6011 21.1279C27.5991 21.1271 27.5985 21.1267 27.5988 21.1269C27.5992 21.1271 27.5994 21.1273 27.599 21.127L27.4005 21.3519ZM27.5586 20.6748C27.438 20.8038 27.3446 20.9151 27.3071 21.018C27.2857 21.0769 27.2788 21.1417 27.3005 21.2078C27.3208 21.2702 27.3611 21.3165 27.3994 21.351L27.6001 21.128C27.5814 21.1111 27.5831 21.1071 27.5856 21.1146C27.5893 21.1259 27.5851 21.1314 27.589 21.1207C27.6022 21.0846 27.65 21.0162 27.7776 20.8798L27.5586 20.6748ZM27.9821 19.9355C27.9064 20.2306 27.8004 20.4196 27.5592 20.6741L27.777 20.8805C28.0493 20.593 28.183 20.3598 28.2727 20.0101L27.9821 19.9355ZM27.8476 18.8042C28.0268 19.1654 28.0752 19.5709 27.9821 19.9357L28.2727 20.0099C28.385 19.5702 28.325 19.0913 28.1163 18.6708L27.8476 18.8042ZM27.3652 18.2416C27.6931 18.5696 27.7891 18.6872 27.8477 18.8046L28.1161 18.6704C28.0321 18.5025 27.8998 18.352 27.5773 18.0295L27.3652 18.2416ZM26.7487 17.738C26.8534 17.7869 26.9103 17.818 26.9864 17.8795C27.0683 17.9457 27.172 18.047 27.3648 18.2412L27.5777 18.0299C27.3882 17.839 27.2723 17.7249 27.1751 17.6463C27.0722 17.563 26.9908 17.52 26.8758 17.4662L26.7487 17.738ZM24.938 18.0451C25.4682 17.5466 26.1102 17.4396 26.7487 17.738L26.8757 17.4662C26.1221 17.1141 25.3491 17.2468 24.7325 17.8266L24.938 18.0451ZM24.2601 18.2117C24.2949 18.2494 24.3414 18.2893 24.4038 18.3093C24.4703 18.3307 24.5353 18.3235 24.5943 18.3014C24.6497 18.2806 24.7035 18.2456 24.7561 18.2048C24.8099 18.1632 24.87 18.1095 24.9383 18.0448L24.7321 17.8269C24.6663 17.8892 24.6145 17.935 24.5724 17.9676C24.5292 18.0011 24.5033 18.0151 24.4891 18.0204C24.4786 18.0243 24.4843 18.0201 24.4956 18.0237C24.5028 18.026 24.4983 18.0275 24.4803 18.008L24.2601 18.2117ZM24.149 17.6977C24.1561 17.8451 24.1635 17.9467 24.176 18.0189C24.1893 18.0951 24.2109 18.1561 24.2577 18.2091L24.4827 18.0106C24.4824 18.0103 24.4825 18.0105 24.4828 18.0108C24.483 18.0111 24.4826 18.0106 24.4817 18.0085C24.4798 18.0038 24.4759 17.9922 24.4716 17.9676C24.4628 17.9164 24.4559 17.8326 24.4487 17.6833L24.149 17.6977ZM24.1017 17.2596C24.1064 17.2743 24.116 17.3283 24.1259 17.4176C24.1352 17.5009 24.1435 17.6016 24.1491 17.6991L24.4486 17.682C24.4428 17.5798 24.434 17.4736 24.4241 17.3843C24.4148 17.301 24.4029 17.2166 24.3876 17.1686L24.1017 17.2596ZM22.9891 16.1925C23.5031 16.3249 23.9453 16.7485 24.1012 17.258L24.3881 17.1702C24.2017 16.5613 23.6796 16.0606 23.0639 15.902L22.9891 16.1925ZM21.5904 16.1999C21.6327 16.1877 21.7242 16.175 21.8542 16.1656C21.9799 16.1565 22.1298 16.1512 22.2812 16.1502C22.4326 16.1491 22.5837 16.1523 22.7118 16.1598C22.8437 16.1676 22.9398 16.1794 22.9879 16.1922L23.0652 15.9023C22.9848 15.8809 22.8616 15.8681 22.7294 15.8604C22.5933 15.8524 22.4354 15.8491 22.2791 15.8502C22.1227 15.8513 21.9661 15.8567 21.8326 15.8664C21.7034 15.8757 21.5831 15.8897 21.5071 15.9117L21.5904 16.1999ZM19.232 22.5143C19.5541 21.3325 20.4723 20.4557 21.6664 20.1995L21.6034 19.9061C20.2984 20.1862 19.2938 21.1467 18.9426 22.4354L19.232 22.5143ZM19.1631 23.3051C19.1631 23.0478 19.1647 22.9102 19.174 22.8059C19.1828 22.7066 19.1987 22.6366 19.232 22.5143L18.9426 22.4354C18.9075 22.5642 18.8863 22.654 18.8751 22.7793C18.8644 22.8996 18.8631 23.0516 18.8631 23.3051H19.1631ZM19.232 24.0958C19.1987 23.9735 19.1828 23.9035 19.174 23.8042C19.1647 23.6999 19.1631 23.5623 19.1631 23.3051H18.8631C18.8631 23.5585 18.8644 23.7105 18.8751 23.8308C18.8863 23.9562 18.9075 24.0459 18.9426 24.1747L19.232 24.0958ZM20.0692 25.5412C19.657 25.129 19.385 24.6585 19.232 24.0959L18.9426 24.1746C19.1091 24.7874 19.4077 25.304 19.8571 25.7533L20.0692 25.5412ZM21.513 26.3751C20.9603 26.2308 20.4844 25.9564 20.0692 25.5412L19.8571 25.7533C20.3091 26.2053 20.8317 26.5073 21.4372 26.6654L21.513 26.3751ZM23.4063 26.252C23.3608 26.2907 23.2661 26.335 23.1196 26.373C22.978 26.4098 22.8041 26.4366 22.616 26.4509C22.2378 26.4797 21.8206 26.4567 21.5136 26.3752L21.4367 26.6652C21.7858 26.7578 22.2388 26.7805 22.6387 26.75C22.8396 26.7347 23.0318 26.7057 23.195 26.6634C23.3533 26.6223 23.5022 26.5643 23.6008 26.4804L23.4063 26.252ZM23.5532 25.9154C23.5532 26.0617 23.5006 26.174 23.408 26.2505L23.5991 26.4818C23.7689 26.3415 23.8532 26.14 23.8532 25.9154H23.5532ZM23.3829 25.5652C23.4972 25.6499 23.5532 25.7585 23.5532 25.9154H23.8532C23.8532 25.6673 23.7552 25.4677 23.5614 25.3242L23.3829 25.5652ZM22.873 25.5308C23.0267 25.4948 23.1246 25.4844 23.1981 25.4913C23.2652 25.4977 23.3194 25.5193 23.3842 25.5662L23.5601 25.3232C23.4594 25.2503 23.3553 25.2049 23.2263 25.1927C23.1036 25.1811 22.9675 25.2006 22.8046 25.2387L22.873 25.5308ZM21.8033 25.5486C22.1206 25.6164 22.5423 25.6067 22.8723 25.531L22.8053 25.2386C22.5134 25.3055 22.1363 25.313 21.8659 25.2552L21.8033 25.5486ZM21.3132 25.3688C21.4612 25.4398 21.6787 25.5224 21.8037 25.5487L21.8655 25.2551C21.7737 25.2358 21.5804 25.1643 21.4431 25.0984L21.3132 25.3688ZM20.2423 24.2987C20.488 24.7961 20.8143 25.1224 21.3117 25.3681L21.4446 25.0991C21.0063 24.8826 20.7278 24.6041 20.5113 24.1658L20.2423 24.2987ZM20.0157 23.3051C20.0157 23.6926 20.0806 23.9692 20.2421 24.2983L20.5115 24.1662C20.3706 23.8791 20.3157 23.6478 20.3157 23.3051H20.0157ZM20.2421 22.3118C20.0806 22.6409 20.0157 22.9175 20.0157 23.3051H20.3157C20.3157 22.9623 20.3706 22.731 20.5115 22.444L20.2421 22.3118ZM21.3117 21.242C20.8143 21.4877 20.488 21.814 20.2423 22.3115L20.5113 22.4443C20.7278 22.006 21.0063 21.7275 21.4446 21.511L21.3117 21.242ZM22.3053 21.0154C21.9178 21.0154 21.6412 21.0803 21.3121 21.2419L21.4442 21.5112C21.7313 21.3703 21.9625 21.3154 22.3053 21.3154V21.0154ZM23.2986 21.2419C22.9694 21.0803 22.6929 21.0154 22.3053 21.0154V21.3154C22.6481 21.3154 22.8793 21.3703 23.1664 21.5112L23.2986 21.2419ZM24.0847 21.855C23.8788 21.603 23.6216 21.4019 23.2991 21.2421L23.1659 21.5109C23.4539 21.6536 23.676 21.829 23.8524 22.0449L24.0847 21.855ZM24.5491 22.8043C24.5198 22.661 24.4503 22.4826 24.3681 22.3153C24.2856 22.1472 24.1843 21.9784 24.0852 21.8557L23.8518 22.0442C23.9325 22.144 24.0224 22.2919 24.0989 22.4476C24.1757 22.6041 24.2332 22.7566 24.2552 22.8644L24.5491 22.8043ZM25.0841 22.9227C24.8933 23.0033 24.7618 22.9783 24.68 22.9362C24.6368 22.9139 24.6036 22.885 24.5809 22.8573C24.5695 22.8436 24.5614 22.8309 24.556 22.8206C24.5504 22.8099 24.5491 22.8042 24.5491 22.8043L24.2552 22.8644C24.2796 22.9836 24.3859 23.1222 24.5426 23.2029C24.7101 23.2891 24.9351 23.3113 25.2008 23.1991L25.0841 22.9227ZM25.3754 22.5128C25.3977 22.5983 25.3725 22.6807 25.3123 22.7575C25.2501 22.8367 25.1607 22.8951 25.092 22.9197L25.1929 23.2022C25.3129 23.1593 25.4499 23.0681 25.5483 22.9427C25.6486 22.8149 25.7181 22.6379 25.6656 22.437L25.3754 22.5128ZM24.5411 21.0686C24.9541 21.4843 25.2311 21.9604 25.3754 22.5128L25.6656 22.437C25.5074 21.8311 25.2025 21.3087 24.7539 20.8572L24.5411 21.0686ZM23.0969 20.2349C23.6502 20.382 24.1264 20.6566 24.5418 21.0693L24.7532 20.8565C24.3013 20.4075 23.7791 20.1059 23.1741 19.9449L23.0969 20.2349ZM21.6666 20.1994C21.8411 20.1616 22.1073 20.1451 22.3816 20.1518C22.6558 20.1584 22.922 20.1878 23.0966 20.2348L23.1744 19.945C22.9668 19.8892 22.6737 19.8588 22.3888 19.8519C22.104 19.845 21.811 19.8612 21.6032 19.9062L21.6666 20.1994ZM29.0686 27.5386H28.0909V27.8386H29.0686V27.5386ZM29.9997 27.1542C29.7528 27.4003 29.4179 27.5386 29.0686 27.5386V27.8386C29.4972 27.8386 29.9083 27.6689 30.2115 27.3666L29.9997 27.1542ZM30.3851 26.2266C30.3851 26.5744 30.2465 26.9081 29.9997 27.1542L30.2115 27.3666C30.5147 27.0644 30.6851 26.6543 30.6851 26.2266H30.3851ZM30.3851 24.4879V26.2266H30.6851V24.4879H30.3851ZM30.4912 24.2326C30.4233 24.3003 30.3851 24.3921 30.3851 24.4879H30.6851C30.6851 24.4719 30.6915 24.4565 30.703 24.4451L30.4912 24.2326ZM30.7466 24.1271C30.6509 24.1271 30.559 24.165 30.4912 24.2326L30.703 24.4451C30.7145 24.4336 30.7301 24.4271 30.7466 24.4271V24.1271ZM30.98 24.2109C30.9138 24.1539 30.8285 24.1241 30.7412 24.1272L30.752 24.427C30.7639 24.4266 30.7755 24.4307 30.7844 24.4384L30.98 24.2109ZM32.1161 27.2263C32.2602 26.1629 31.8472 25.0673 30.9877 24.2179L30.7768 24.4313C31.5793 25.2244 31.9485 26.2293 31.8188 27.186L32.1161 27.2263ZM31.1775 29.1534C31.6841 28.6247 32.0122 27.9513 32.1159 27.2274L31.819 27.1849C31.7242 27.8466 31.4242 28.4624 30.9609 28.9458L31.1775 29.1534ZM30.1963 31.6786C30.1867 30.742 30.5384 29.8375 31.1788 29.152L30.9596 28.9472C30.2666 29.689 29.8859 30.6679 29.8963 31.6817L30.1963 31.6786ZM30.1963 34.5117V31.6801H29.8963V34.5117H30.1963ZM30.2954 34.7501C30.2319 34.6868 30.1963 34.601 30.1963 34.5117H29.8963C29.8963 34.6809 29.9637 34.843 30.0836 34.9625L30.2954 34.7501ZM30.5351 34.849C30.4451 34.849 30.3589 34.8134 30.2954 34.7501L30.0836 34.9625C30.2034 35.082 30.3659 35.149 30.5351 35.149V34.849ZM30.7749 34.7501C30.7114 34.8134 30.6252 34.849 30.5351 34.849V35.149C30.7044 35.149 30.8669 35.082 30.9867 34.9625L30.7749 34.7501ZM30.874 34.5117C30.874 34.601 30.8384 34.6868 30.7749 34.7501L30.9867 34.9625C31.1066 34.843 31.174 34.6809 31.174 34.5117H30.874ZM30.874 31.6801V34.5117H31.174V31.6801H30.874ZM31.6705 29.6165C31.1496 30.1778 30.8644 30.9171 30.874 31.682L31.174 31.6782C31.1654 30.9905 31.4218 30.3255 31.8904 29.8205L31.6705 29.6165ZM32.7869 27.3204C32.6648 28.1824 32.275 28.9848 31.6721 29.6148L31.8888 29.8222C32.5351 29.1469 32.953 28.2867 33.0839 27.3624L32.7869 27.3204ZM31.466 23.7392C32.4877 24.7507 32.964 26.0562 32.7868 27.3206L33.0839 27.3622C33.2758 25.9925 32.7573 24.5955 31.677 23.526L31.466 23.7392ZM31.1362 23.5249C31.2595 23.5743 31.3718 23.6474 31.4667 23.74L31.6763 23.5252C31.5531 23.4051 31.4075 23.3104 31.2477 23.2464L31.1362 23.5249ZM30.7482 23.4524C30.8811 23.4509 31.013 23.4756 31.1362 23.5249L31.2477 23.2464C31.0879 23.1825 30.9171 23.1505 30.7449 23.1524L30.7482 23.4524ZM30.0116 23.7559C30.2065 23.5616 30.4708 23.4524 30.7466 23.4524V23.1524C30.3916 23.1524 30.051 23.293 29.7998 23.5434L30.0116 23.7559ZM29.7074 24.4879C29.7074 24.2134 29.8168 23.9501 30.0116 23.7559L29.7998 23.5434C29.5486 23.7938 29.4075 24.1336 29.4075 24.4879H29.7074ZM29.7074 26.2266V24.4879H29.4075V26.2266H29.7074ZM29.5202 26.6774C29.64 26.5579 29.7074 26.3958 29.7074 26.2266H29.4075C29.4075 26.3159 29.3719 26.4017 29.3084 26.465L29.5202 26.6774ZM29.0686 26.8639C29.2379 26.8639 29.4003 26.7969 29.5202 26.6774L29.3084 26.465C29.2449 26.5283 29.1586 26.5639 29.0686 26.5639V26.8639ZM28.0909 26.8639H29.0686V26.5639H28.0909V26.8639ZM27.6393 26.6774C27.7592 26.7969 27.9216 26.8639 28.0909 26.8639V26.5639C28.0009 26.5639 27.9147 26.5283 27.8512 26.465L27.6393 26.6774ZM27.4521 26.2266C27.4521 26.3958 27.5195 26.5579 27.6393 26.6774L27.8512 26.465C27.7877 26.4017 27.7521 26.3159 27.7521 26.2266H27.4521ZM27.4521 24.4879V26.2266H27.7521V24.4879H27.4521ZM27.1479 23.7559C27.3427 23.9501 27.4521 24.2134 27.4521 24.4879H27.7521C27.7521 24.1336 27.6109 23.7938 27.3597 23.5434L27.1479 23.7559ZM26.4129 23.4524C26.6887 23.4524 26.953 23.5616 27.1479 23.7559L27.3597 23.5434C27.1085 23.293 26.768 23.1524 26.4129 23.1524V23.4524ZM26.0233 23.5249C26.1466 23.4756 26.2784 23.4509 26.4113 23.4524L26.4146 23.1524C26.2424 23.1505 26.0716 23.1825 25.9118 23.2464L26.0233 23.5249ZM25.6928 23.74C25.7877 23.6474 25.9 23.5743 26.0233 23.5249L25.9118 23.2464C25.752 23.3104 25.6064 23.4051 25.4833 23.5252L25.6928 23.74ZM24.3727 27.3206C24.1955 26.0562 24.6718 24.7507 25.6936 23.7392L25.4825 23.526C24.4022 24.5955 23.8837 25.9925 24.0756 27.3622L24.3727 27.3206ZM25.4874 29.6148C24.8845 28.9848 24.4947 28.1824 24.3727 27.3204L24.0756 27.3624C24.2065 28.2867 24.6244 29.1469 25.2707 29.8222L25.4874 29.6148ZM26.2855 31.682C26.2951 30.9171 26.0099 30.1778 25.489 29.6165L25.2691 29.8205C25.7377 30.3255 25.9941 30.9905 25.9855 31.6782L26.2855 31.682ZM26.2855 34.5117V31.6801H25.9855V34.5117H26.2855ZM26.3846 34.7501C26.3211 34.6868 26.2855 34.601 26.2855 34.5117H25.9855C25.9855 34.6809 26.0529 34.843 26.1728 34.9625L26.3846 34.7501ZM26.6244 34.849C26.5344 34.849 26.4481 34.8134 26.3846 34.7501L26.1728 34.9625C26.2926 35.082 26.4551 35.149 26.6244 35.149V34.849ZM26.8641 34.7501C26.8006 34.8134 26.7144 34.849 26.6244 34.849V35.149C26.7937 35.149 26.9561 35.082 27.0759 34.9625L26.8641 34.7501ZM26.9632 34.5117C26.9632 34.601 26.9276 34.6868 26.8641 34.7501L27.0759 34.9625C27.1958 34.843 27.2632 34.6809 27.2632 34.5117H26.9632ZM26.9632 31.6801V34.5117H27.2632V31.6801H26.9632ZM25.9807 29.152C26.6211 29.8375 26.9728 30.742 26.9632 31.6786L27.2632 31.6817C27.2736 30.6679 26.8929 29.689 26.1999 28.9472L25.9807 29.152ZM25.0436 27.2287C25.1476 27.9521 25.4757 28.625 25.982 29.1534L26.1986 28.9458C25.7356 28.4626 25.4356 27.8474 25.3405 27.186L25.0436 27.2287ZM26.1719 24.2179C25.3127 25.0669 24.8941 26.1627 25.0435 27.2282L25.3406 27.1866C25.2064 26.2295 25.5798 25.2248 26.3827 24.4313L26.1719 24.2179ZM26.4184 24.1272C26.3311 24.1241 26.2457 24.1539 26.1795 24.2109L26.3751 24.4384C26.384 24.4307 26.3956 24.4266 26.4075 24.427L26.4184 24.1272ZM26.6684 24.2326C26.6005 24.165 26.5087 24.1271 26.4129 24.1271V24.4271C26.4294 24.4271 26.4451 24.4336 26.4565 24.4451L26.6684 24.2326ZM26.7744 24.4879C26.7744 24.3921 26.7362 24.3003 26.6684 24.2326L26.4565 24.4451C26.468 24.4565 26.4744 24.4719 26.4744 24.4879H26.7744ZM26.7744 26.2266V24.4879H26.4744V26.2266H26.7744ZM27.1598 27.1542C26.913 26.9081 26.7744 26.5744 26.7744 26.2266H26.4744C26.4744 26.6543 26.6448 27.0644 26.948 27.3666L27.1598 27.1542ZM28.0909 27.5386C27.7416 27.5386 27.4067 27.4003 27.1598 27.1542L26.948 27.3666C27.2512 27.6689 27.6623 27.8386 28.0909 27.8386V27.5386ZM28.5799 35.1487C28.7486 35.1487 28.9103 35.0812 29.0293 34.9614L28.8164 34.75C28.7535 34.8133 28.6684 34.8487 28.5799 34.8487V35.1487ZM28.1306 34.9614C28.2496 35.0812 28.4112 35.1487 28.5799 35.1487V34.8487C28.4914 34.8487 28.4063 34.8133 28.3434 34.75L28.1306 34.9614ZM27.9449 34.5105C27.9449 34.6795 28.0116 34.8417 28.1306 34.9614L28.3434 34.75C28.2805 34.6867 28.2449 34.6005 28.2449 34.5105H27.9449ZM27.9449 31.0935V34.5105H28.2449V31.0935H27.9449ZM28.1306 30.6426C28.0116 30.7623 27.9449 30.9245 27.9449 31.0935H28.2449C28.2449 31.0035 28.2805 30.9173 28.3434 30.854L28.1306 30.6426ZM28.5799 30.4553C28.4112 30.4553 28.2496 30.5228 28.1306 30.6426L28.3434 30.854C28.4063 30.7907 28.4914 30.7553 28.5799 30.7553V30.4553ZM29.0293 30.6426C28.9103 30.5228 28.7486 30.4553 28.5799 30.4553V30.7553C28.6684 30.7553 28.7535 30.7907 28.8164 30.854L29.0293 30.6426ZM29.2149 31.0935C29.2149 30.9245 29.1482 30.7623 29.0293 30.6426L28.8164 30.854C28.8794 30.9173 28.9149 31.0035 28.9149 31.0935H29.2149ZM29.2149 34.5105V31.0935H28.9149V34.5105H29.2149ZM29.0293 34.9614C29.1482 34.8417 29.2149 34.6795 29.2149 34.5105H28.9149C28.9149 34.6005 28.8794 34.6867 28.8164 34.75L29.0293 34.9614Z" fill="#F9F9F9"/>
</g>
</g>
<defs>
<filter id="filter0_b_972_5052" x="-7" y="-7" width="63" height="63" filterUnits="userSpaceOnUse" color-interpolation-filters="sRGB">
<feFlood flood-opacity="0" result="BackgroundImageFix"/>
<feGaussianBlur in="BackgroundImageFix" stdDeviation="3.5"/>
<feComposite in2="SourceAlpha" operator="in" result="effect1_backgroundBlur_972_5052"/>
<feBlend mode="normal" in="SourceGraphic" in2="effect1_backgroundBlur_972_5052" result="shape"/>
</filter>
</defs>
</svg>
