<svg width="49" height="49" viewBox="0 0 49 49" fill="none" xmlns="http://www.w3.org/2000/svg">
<g filter="url(#filter0_b_2817_7937)">
<rect width="49" height="49" rx="15" fill="white" fill-opacity="0.03"/>
<rect x="0.5" y="0.5" width="48" height="48" rx="14.5" stroke="#D1D9E2" stroke-opacity="0.3"/>
<mask id="path-3-outside-1_2817_7937" maskUnits="userSpaceOnUse" x="15" y="15" width="19" height="18" fill="black">
<rect fill="white" x="15" y="15" width="19" height="18"/>
<path d="M32.8597 18.5905C32.8597 17.9805 32.3632 17.484 31.7531 17.484H31.2935V16.5363C31.2935 16.2406 31.0543 16 30.7601 16H30.0536C29.7593 16 29.5201 16.2406 29.5201 16.5363V17.484H28.3057V16.5363C28.3057 16.2406 28.0651 16 27.7695 16H27.0658C26.7701 16 26.5295 16.2406 26.5295 16.5363V17.484H25.318V16.5363C25.318 16.2406 25.0774 16 24.7817 16H24.078C23.7824 16 23.5418 16.2406 23.5418 16.5363V17.484H22.3302V16.5363C22.3302 16.2406 22.0896 16 21.7939 16H21.0903C20.7946 16 20.554 16.2406 20.554 16.5363V17.484H19.3396V16.5363C19.3396 16.2406 19.1001 16 18.8062 16H18.0997C17.8054 16 17.5662 16.2406 17.5662 16.5363V17.484H17.1066C16.4965 17.484 16 17.9805 16 18.5905V30.8906C16 31.5023 16.4965 32 17.1066 32H31.7531C32.3632 32 32.8597 31.5023 32.8597 30.8906V18.5905ZM30.0876 16.5675H30.726V18.9651H30.0876V16.5675ZM27.097 16.5675H27.7383V18.9651H27.097V16.5675ZM24.1092 16.5675H24.7505V18.9651H24.1092V16.5675ZM21.1215 16.5675H21.7627V18.9651H21.1215V16.5675ZM18.1337 16.5675H18.7721V18.9651H18.1337V16.5675ZM31.7531 31.4325H17.1066C16.8092 31.4325 16.5675 31.1896 16.5675 30.8906V18.5905C16.5675 18.2932 16.8092 18.0514 17.1066 18.0514H17.5662V18.9963C17.5662 19.2919 17.8054 19.5325 18.0997 19.5325H18.8062C19.1004 19.5325 19.3396 19.2919 19.3396 18.9963V18.0514H20.554V18.9963C20.554 19.2919 20.7946 19.5325 21.0903 19.5325H21.7939C22.0896 19.5325 22.3302 19.2919 22.3302 18.9963V18.0514H23.5418V18.9963C23.5418 19.2919 23.7824 19.5325 24.078 19.5325H24.7817C25.0774 19.5325 25.318 19.2919 25.318 18.9963V18.0514H26.5295V18.9963C26.5295 19.2919 26.7701 19.5325 27.0658 19.5325H27.7695C28.0651 19.5325 28.3057 19.2919 28.3057 18.9963V18.0514H29.5201V18.9963C29.5201 19.2919 29.7593 19.5325 30.0536 19.5325H30.7601C31.0543 19.5325 31.2935 19.2919 31.2935 18.9963V18.0514H31.7531C32.0505 18.0514 32.2922 18.2932 32.2922 18.5905V20.8514H19.7073C19.5507 20.8514 19.4236 20.9785 19.4236 21.1351C19.4236 21.2917 19.5507 21.4188 19.7073 21.4188H32.2922V30.8906C32.2922 31.1894 32.0505 31.4325 31.7531 31.4325Z"/>
</mask>
<path d="M32.8597 18.5905C32.8597 17.9805 32.3632 17.484 31.7531 17.484H31.2935V16.5363C31.2935 16.2406 31.0543 16 30.7601 16H30.0536C29.7593 16 29.5201 16.2406 29.5201 16.5363V17.484H28.3057V16.5363C28.3057 16.2406 28.0651 16 27.7695 16H27.0658C26.7701 16 26.5295 16.2406 26.5295 16.5363V17.484H25.318V16.5363C25.318 16.2406 25.0774 16 24.7817 16H24.078C23.7824 16 23.5418 16.2406 23.5418 16.5363V17.484H22.3302V16.5363C22.3302 16.2406 22.0896 16 21.7939 16H21.0903C20.7946 16 20.554 16.2406 20.554 16.5363V17.484H19.3396V16.5363C19.3396 16.2406 19.1001 16 18.8062 16H18.0997C17.8054 16 17.5662 16.2406 17.5662 16.5363V17.484H17.1066C16.4965 17.484 16 17.9805 16 18.5905V30.8906C16 31.5023 16.4965 32 17.1066 32H31.7531C32.3632 32 32.8597 31.5023 32.8597 30.8906V18.5905ZM30.0876 16.5675H30.726V18.9651H30.0876V16.5675ZM27.097 16.5675H27.7383V18.9651H27.097V16.5675ZM24.1092 16.5675H24.7505V18.9651H24.1092V16.5675ZM21.1215 16.5675H21.7627V18.9651H21.1215V16.5675ZM18.1337 16.5675H18.7721V18.9651H18.1337V16.5675ZM31.7531 31.4325H17.1066C16.8092 31.4325 16.5675 31.1896 16.5675 30.8906V18.5905C16.5675 18.2932 16.8092 18.0514 17.1066 18.0514H17.5662V18.9963C17.5662 19.2919 17.8054 19.5325 18.0997 19.5325H18.8062C19.1004 19.5325 19.3396 19.2919 19.3396 18.9963V18.0514H20.554V18.9963C20.554 19.2919 20.7946 19.5325 21.0903 19.5325H21.7939C22.0896 19.5325 22.3302 19.2919 22.3302 18.9963V18.0514H23.5418V18.9963C23.5418 19.2919 23.7824 19.5325 24.078 19.5325H24.7817C25.0774 19.5325 25.318 19.2919 25.318 18.9963V18.0514H26.5295V18.9963C26.5295 19.2919 26.7701 19.5325 27.0658 19.5325H27.7695C28.0651 19.5325 28.3057 19.2919 28.3057 18.9963V18.0514H29.5201V18.9963C29.5201 19.2919 29.7593 19.5325 30.0536 19.5325H30.7601C31.0543 19.5325 31.2935 19.2919 31.2935 18.9963V18.0514H31.7531C32.0505 18.0514 32.2922 18.2932 32.2922 18.5905V20.8514H19.7073C19.5507 20.8514 19.4236 20.9785 19.4236 21.1351C19.4236 21.2917 19.5507 21.4188 19.7073 21.4188H32.2922V30.8906C32.2922 31.1894 32.0505 31.4325 31.7531 31.4325Z" fill="white"/>
<path d="M32.8597 18.5905C32.8597 17.9805 32.3632 17.484 31.7531 17.484H31.2935V16.5363C31.2935 16.2406 31.0543 16 30.7601 16H30.0536C29.7593 16 29.5201 16.2406 29.5201 16.5363V17.484H28.3057V16.5363C28.3057 16.2406 28.0651 16 27.7695 16H27.0658C26.7701 16 26.5295 16.2406 26.5295 16.5363V17.484H25.318V16.5363C25.318 16.2406 25.0774 16 24.7817 16H24.078C23.7824 16 23.5418 16.2406 23.5418 16.5363V17.484H22.3302V16.5363C22.3302 16.2406 22.0896 16 21.7939 16H21.0903C20.7946 16 20.554 16.2406 20.554 16.5363V17.484H19.3396V16.5363C19.3396 16.2406 19.1001 16 18.8062 16H18.0997C17.8054 16 17.5662 16.2406 17.5662 16.5363V17.484H17.1066C16.4965 17.484 16 17.9805 16 18.5905V30.8906C16 31.5023 16.4965 32 17.1066 32H31.7531C32.3632 32 32.8597 31.5023 32.8597 30.8906V18.5905ZM30.0876 16.5675H30.726V18.9651H30.0876V16.5675ZM27.097 16.5675H27.7383V18.9651H27.097V16.5675ZM24.1092 16.5675H24.7505V18.9651H24.1092V16.5675ZM21.1215 16.5675H21.7627V18.9651H21.1215V16.5675ZM18.1337 16.5675H18.7721V18.9651H18.1337V16.5675ZM31.7531 31.4325H17.1066C16.8092 31.4325 16.5675 31.1896 16.5675 30.8906V18.5905C16.5675 18.2932 16.8092 18.0514 17.1066 18.0514H17.5662V18.9963C17.5662 19.2919 17.8054 19.5325 18.0997 19.5325H18.8062C19.1004 19.5325 19.3396 19.2919 19.3396 18.9963V18.0514H20.554V18.9963C20.554 19.2919 20.7946 19.5325 21.0903 19.5325H21.7939C22.0896 19.5325 22.3302 19.2919 22.3302 18.9963V18.0514H23.5418V18.9963C23.5418 19.2919 23.7824 19.5325 24.078 19.5325H24.7817C25.0774 19.5325 25.318 19.2919 25.318 18.9963V18.0514H26.5295V18.9963C26.5295 19.2919 26.7701 19.5325 27.0658 19.5325H27.7695C28.0651 19.5325 28.3057 19.2919 28.3057 18.9963V18.0514H29.5201V18.9963C29.5201 19.2919 29.7593 19.5325 30.0536 19.5325H30.7601C31.0543 19.5325 31.2935 19.2919 31.2935 18.9963V18.0514H31.7531C32.0505 18.0514 32.2922 18.2932 32.2922 18.5905V20.8514H19.7073C19.5507 20.8514 19.4236 20.9785 19.4236 21.1351C19.4236 21.2917 19.5507 21.4188 19.7073 21.4188H32.2922V30.8906C32.2922 31.1894 32.0505 31.4325 31.7531 31.4325Z" stroke="#373737" mask="url(#path-3-outside-1_2817_7937)"/>
<path d="M18.2496 20.6016H18.0025C17.7078 20.6016 17.4688 20.8406 17.4688 21.1353C17.4688 21.43 17.7078 21.669 18.0025 21.669H18.2496C18.5443 21.669 18.7834 21.43 18.7834 21.1353C18.7834 20.8406 18.5443 20.6016 18.2496 20.6016Z" fill="white" stroke="#373737" stroke-width="0.5"/>
<path d="M22.4189 27.7637H22.1119C21.8172 27.7637 21.5781 28.0027 21.5781 28.2974C21.5781 28.5921 21.8172 28.8311 22.1119 28.8311H22.4189C22.7136 28.8311 22.9526 28.5921 22.9526 28.2974C22.9526 28.0027 22.7136 27.7637 22.4189 27.7637Z" fill="white" stroke="#373737" stroke-width="0.5"/>
<path d="M28.0553 29.3402C28.2377 29.1079 28.3335 28.8306 28.3418 28.5466M28.0553 29.3402L27.8587 29.1858M28.0553 29.3402C28.0553 29.3402 28.0553 29.3402 28.0553 29.3402L27.8587 29.1858M28.0553 29.3402C27.7953 29.6713 27.4036 29.8614 26.9831 29.8614H21.8797C21.4591 29.8614 21.0674 29.671 20.8076 29.3403C20.5476 29.0095 20.4554 28.5841 20.5546 28.1755L20.5546 28.1754L21.4907 24.3226L21.7333 24.3815L21.4907 24.3225C21.5489 24.0828 21.7635 23.9148 22.0094 23.9148H22.601M28.3418 28.5466L27.8587 29.1858M28.3418 28.5466H28.3786L28.3203 28.2545L28.32 28.253L28.3192 28.2433L28.3191 28.2425C28.3182 28.2314 28.3159 28.2051 28.3087 28.1754L28.3087 28.1754L27.3727 24.3226C27.3145 24.083 27.1003 23.9148 26.8539 23.9148H26.2624M28.3418 28.5466L26.2624 23.9148M27.8587 29.1858C27.6461 29.4565 27.3269 29.6114 26.9831 29.6114H21.8797C21.5358 29.6114 21.2166 29.4562 21.0041 29.1858C20.7916 28.9154 20.7164 28.5687 20.7976 28.2344L21.7336 24.3816C21.7645 24.2542 21.8786 24.1648 22.0094 24.1648H22.601V23.9245C22.601 23.9212 22.601 23.918 22.601 23.9148M22.601 23.9148C22.6062 22.9098 23.4255 22.0938 24.4317 22.0938C25.4379 22.0938 26.2571 22.9095 26.2624 23.9148M22.601 23.9148H22.851V23.9245C22.851 23.0531 23.5603 22.3438 24.4317 22.3438C25.303 22.3438 26.0124 23.0528 26.0124 23.9245L26.2624 23.9148M23.6685 23.9148C23.6737 23.4986 24.0143 23.1612 24.4317 23.1612C24.8491 23.1612 25.1896 23.4986 25.1948 23.9148H23.6685ZM22.9097 28.2966C22.9097 28.5226 23.0503 28.7158 23.2487 28.7937H21.88C21.788 28.7937 21.7041 28.7529 21.647 28.6806C21.59 28.6078 21.5703 28.5166 21.592 28.4276L21.5921 28.4274L22.429 24.9823H22.601V25.0671C22.601 25.3618 22.84 25.6008 23.1347 25.6008C23.4294 25.6008 23.6684 25.3618 23.6684 25.0671V24.9823H25.1952V25.0671C25.1952 25.3618 25.4342 25.6008 25.7289 25.6008C26.0236 25.6008 26.2627 25.3618 26.2627 25.0671V24.9823H26.4347L27.1102 27.7628H23.4434C23.1487 27.7628 22.9097 28.0019 22.9097 28.2966Z" fill="white" stroke="#373737" stroke-width="0.5"/>
</g>
<defs>
<filter id="filter0_b_2817_7937" x="-7" y="-7" width="63" height="63" filterUnits="userSpaceOnUse" color-interpolation-filters="sRGB">
<feFlood flood-opacity="0" result="BackgroundImageFix"/>
<feGaussianBlur in="BackgroundImageFix" stdDeviation="3.5"/>
<feComposite in2="SourceAlpha" operator="in" result="effect1_backgroundBlur_2817_7937"/>
<feBlend mode="normal" in="SourceGraphic" in2="effect1_backgroundBlur_2817_7937" result="shape"/>
</filter>
</defs>
</svg>
