<svg width="16" height="15" viewBox="0 0 16 15" fill="none" xmlns="http://www.w3.org/2000/svg">
<path fill-rule="evenodd" clip-rule="evenodd" d="M8.15 0C12.45 0.1 16 3.65 16 8C16 8.1 15.95 8.25 15.8 8.35C15.7 8.45 15.6 8.5 15.5 8.5C15.35 8.5 15.2 8.45 15.1 8.3C15.0956 8.29557 15.0849 8.28173 15.0682 8.26017C14.8967 8.03836 14.0937 7 13 7C11.8 7 10.9 8.3 10.9 8.3C10.8 8.4 10.65 8.5 10.5 8.5C10.35 8.5 10.2 8.4 10.1 8.3C10.1 8.25 9.15 7 8 7C6.75 7 5.9 8.25 5.9 8.25C5.85 8.35 5.75 8.4 5.65 8.45C5.6 8.5 5.55 8.5 5.5 8.5C5.5 8.5 5.4 8.5 5.35 8.45C5.25 8.4 5.15 8.3 5.1 8.25C5.1 8.2 4.2 6.95 3 6.95C1.8 6.95 0.9 8.25 0.9 8.25C0.9 8.3 0.75 8.4 0.65 8.45C0.5 8.5 0.3 8.5 0.2 8.45C0.1 8.35 0 8.2 0 8C0 3.65 3.55 0.1 7.85 0H8H8.15ZM1.15 6.65C1.6 6.3 2.25 6 3 6C3.85 6 4.55 6.4 5.05 6.8C5.15 4.65 5.5 2.55 6.25 1.25C3.7 1.9 1.7 4 1.15 6.65ZM6.05 6.75C6.55 6.35 7.2 6 8 6C8.8 6 9.45 6.35 10.05 6.8C9.85 3.25 9 1.15 8.15 1.05H8.05H7.95C7.1 1.15 6.2 3.25 6.05 6.75ZM10.95 6.8C11.45 6.4 12.15 6 13 6C13.75 6 14.4 6.3 14.85 6.65C14.3 4.05 12.3 1.95 9.75 1.25C10.5 2.5 10.85 4.6 10.95 6.8ZM7.5 8C7.5 7.7 7.7 7.5 8 7.5C8.3 7.5 8.5 7.7 8.5 8V13C8.5 14.1 7.6 15 6.5 15C5.4 15 4.5 14.1 4.5 13C4.5 12.7 4.7 12.5 5 12.5C5.3 12.5 5.5 12.7 5.5 13C5.5 13.55 5.95 14 6.5 14C7.05 14 7.5 13.55 7.5 13V8Z" fill="#333333"/>
</svg>
