<svg width="87" height="87" viewBox="0 0 87 87" fill="none" xmlns="http://www.w3.org/2000/svg">
<rect x="0.5" y="0.5" width="86" height="86" rx="19.5" fill="#F9F9F9" stroke="#D9D9D9"/>
<path d="M48.9 30H38.1C33.6337 30 30 33.6328 30 38.0978V44.3962C30 48.7105 33.3921 52.2475 37.65 52.4819V56.2357C37.65 56.6572 37.9938 57 38.4164 57C38.6184 57 38.8097 56.9199 38.9541 56.7755L39.7983 55.9315C42.015 53.715 44.963 52.494 48.0986 52.494H48.9C53.3662 52.494 57 48.8612 57 44.3962V38.0978C57 33.6328 53.3662 30 48.9 30ZM37.65 43.0465C36.6573 43.0465 35.85 42.2394 35.85 41.247C35.85 40.2546 36.6573 39.4475 37.65 39.4475C38.6427 39.4475 39.45 40.2546 39.45 41.247C39.45 42.2394 38.6423 43.0465 37.65 43.0465ZM43.5 43.0465C42.5073 43.0465 41.7 42.2394 41.7 41.247C41.7 40.2546 42.5073 39.4475 43.5 39.4475C44.4927 39.4475 45.3 40.2546 45.3 41.247C45.3 42.2394 44.4922 43.0465 43.5 43.0465ZM49.35 43.0465C48.3573 43.0465 47.55 42.2394 47.55 41.247C47.55 40.2546 48.3573 39.4475 49.35 39.4475C50.3427 39.4475 51.15 40.2546 51.15 41.247C51.15 42.2394 50.3422 43.0465 49.35 43.0465Z" fill="#1B1D21"/>
</svg>
