<svg width="25" height="25" viewBox="0 0 25 25" fill="none" xmlns="http://www.w3.org/2000/svg">
<path d="M8.37191 0.018301C5.2822 0.0957584 3.12198 0.891853 1.81811 2.43241C0.819763 3.62009 0.260345 5.15634 0.0580934 7.30365C-0.0193645 8.12986 -0.0193645 16.547 0.0580934 17.3732C0.363622 20.5963 1.52549 22.6102 3.70292 23.6946C4.64962 24.1636 5.84592 24.4735 7.27459 24.6112C8.07929 24.6929 16.5824 24.6886 17.4087 24.6112C21.9529 24.1766 24.1303 22.012 24.5993 17.4808C24.651 16.9472 24.7069 10.3718 24.6596 9.99316C24.552 9.10669 23.4332 8.89584 23.033 9.69193C22.977 9.80381 22.9641 10.3288 22.9469 13.3927C22.9254 17.1322 22.9082 17.5152 22.7188 18.4533C22.452 19.8002 22.0002 20.7168 21.2471 21.4268C20.8771 21.7754 20.6619 21.926 20.1756 22.167C19.4527 22.5284 18.4673 22.7823 17.3441 22.8899C16.4792 22.9717 8.18257 22.9717 7.31762 22.8899C4.92503 22.6618 3.4146 21.8571 2.58838 20.3639C2.19249 19.6539 1.89557 18.5436 1.78799 17.3947C1.73204 16.7578 1.73204 7.91901 1.78799 7.28213C1.95581 5.48769 2.51093 4.09345 3.38448 3.27584C4.20209 2.51417 5.10146 2.13118 6.73668 1.85147C7.08525 1.79123 7.71351 1.77832 10.9754 1.7568C14.7923 1.73098 14.8052 1.73098 14.9773 1.63631C15.7261 1.23611 15.5927 0.186127 14.7751 0.026907C14.6116 -0.00321388 9.55529 -0.0118217 8.37191 0.018301Z" fill="#333333"/>
<path d="M20.1212 0.0171652C19.1788 0.0817137 18.3956 0.382938 17.6727 0.95957C16.6528 1.77718 16.0762 2.97778 16.0762 4.28596C16.0762 7.37997 19.1917 9.45412 22.0404 8.26213C23.2884 7.74144 24.2609 6.58818 24.5578 5.2886C24.7601 4.38063 24.631 3.18864 24.2394 2.42266C23.8134 1.58354 23.0947 0.864899 22.247 0.430274C21.9328 0.266752 21.2658 0.0774107 20.913 0.0515909C20.7279 0.038682 20.5171 0.0214691 20.4439 0.0128622C20.3751 0.00855923 20.2288 0.00855923 20.1212 0.0171652ZM21.0249 1.81591C21.7392 2.00525 22.3546 2.51733 22.6816 3.19294C22.8709 3.58023 22.9226 3.83412 22.9226 4.31608C22.9226 5.05193 22.7031 5.58983 22.191 6.10191C21.6617 6.6269 21.0851 6.87219 20.3622 6.87219C19.6651 6.87219 19.0497 6.614 18.5505 6.11913C17.2596 4.82816 17.677 2.68516 19.3681 1.9321C19.4886 1.88046 19.6608 1.82021 19.7554 1.7987C20.0308 1.73845 20.7624 1.74706 21.0249 1.81591Z" fill="#333333"/>
<path d="M6.24096 12.7101C5.92683 12.8736 5.74609 13.1576 5.74609 13.4804C5.74609 13.8806 6.0258 14.2248 6.4217 14.3195C6.63686 14.3668 12.3042 14.3668 12.5194 14.3152C12.7216 14.2722 12.8593 14.1732 13.0357 13.9537C13.1562 13.8074 13.1691 13.7601 13.1691 13.4976C13.1691 13.2394 13.1519 13.1835 13.04 13.0156C12.9669 12.9167 12.8292 12.7876 12.7388 12.7359L12.5667 12.637L9.46838 12.6413C6.72723 12.6413 6.35715 12.6499 6.24096 12.7101Z" fill="#333333"/>
<path d="M6.426 17.2475C6.03871 17.3206 5.74609 17.6821 5.74609 18.0823C5.74609 18.4094 5.92253 18.6848 6.24096 18.8526L6.41309 18.9473H11.7491H17.0851L17.3002 18.8397C18.0275 18.4739 17.8726 17.4024 17.0679 17.2475C16.8011 17.1959 6.68419 17.1959 6.426 17.2475Z" fill="#333333"/>
</svg>
