<svg width="19" height="14" viewBox="0 0 19 14" fill="none" xmlns="http://www.w3.org/2000/svg">
<g id="Black">
<path id="Vector" d="M0.560393 0.133314C-0.0264913 0.426605 0.000185254 1.05333 0.000185254 3.58544C0.000185254 11.9398 0.000185251 11.9043 0.480363 12.6508C0.791589 13.1485 1.13838 13.4329 1.73416 13.7173L2.26769 13.9662L10.0928 13.9928C14.3966 14.0106 18.0424 13.9928 18.1936 13.9662C18.5404 13.904 18.9139 13.5485 18.985 13.2107C19.065 12.8463 18.816 12.3664 18.4515 12.1975C18.1936 12.0731 17.2688 12.0553 10.3151 12.0553H2.47221L2.21434 11.7976L1.95647 11.5399V3.70098C1.95647 1.00889 1.98314 0.417718 1.37847 0.133314C1.01389 -0.0444384 0.91608 -0.0444384 0.560393 0.133314Z" fill="#999999"/>
<path id="Vector_2" d="M8.6799 3.09996C8.14711 3.59706 5.5151 6.79488 5.46996 7.0013C5.32752 7.69981 6.2368 8.26746 6.79407 7.83343C6.85678 7.77728 7.45091 7.10526 8.1073 6.3375C8.7716 5.56965 9.33415 4.90591 9.36546 4.87387C9.38885 4.84193 10.6396 5.49277 12.13 6.323C13.6283 7.15314 14.943 7.85868 15.0462 7.88125C15.4274 7.9719 15.7489 7.69105 17.1398 6.06751C18.8276 4.09214 18.9368 3.94042 18.9336 3.66329C18.93 3.34658 18.7361 3.0162 18.4894 2.90817C18.2108 2.78466 17.8071 2.79721 17.6186 2.934C17.5322 2.99834 16.9146 3.69439 16.2507 4.49392C15.5866 5.28552 15.016 5.93351 14.9843 5.93388C14.9527 5.94216 13.6937 5.25974 12.1954 4.4296C9.23853 2.78471 9.08745 2.73101 8.6799 3.09996Z" fill="#999999"/>
</g>
</svg>
