<svg width="74" height="74" viewBox="0 0 74 74" fill="none" xmlns="http://www.w3.org/2000/svg">
<circle cx="37" cy="37" r="37" fill="#ECECEC"/>
<path d="M25.8103 23.1012C24.7286 23.4154 23.8523 24.1466 23.3748 25.1315C22.982 25.9352 23.0001 25.5122 23.0001 33.4764C23.0001 40.6006 23.0001 40.7275 23.121 40.9209C23.3023 41.2109 23.5743 41.3559 23.9671 41.3559C24.3599 41.3559 24.6319 41.2109 24.8132 40.9209C24.934 40.7275 24.934 40.6006 24.934 33.8631C24.934 29.3674 24.9582 26.8718 25.0005 26.612C25.1456 25.6935 25.7318 25.1255 26.6685 24.9804C26.9284 24.9381 28.4271 24.9261 30.7901 24.9321L34.4948 24.9502L33.9931 25.343C32.7542 26.2977 31.6241 27.6875 30.8989 29.1196C30.3913 30.1408 29.9622 31.579 29.8292 32.721C29.7083 33.7241 29.7809 35.4583 29.9743 36.3768C30.355 38.1715 31.1769 39.8876 32.301 41.217L32.6696 41.6581V43.1204C32.6696 44.48 32.6817 44.6008 32.7905 44.7881C32.857 44.8969 32.996 45.0359 33.1048 45.1024C33.2982 45.2172 33.419 45.2232 37.3412 45.2232H41.3843L41.3541 46.8426C41.342 47.8276 41.2997 48.5406 41.2574 48.6796C41.0821 49.2295 40.5261 49.7793 39.9641 49.9485C39.5954 50.0633 26.7108 50.0633 26.3422 49.9485C25.7741 49.7793 25.2241 49.2415 25.0489 48.6796C25.0066 48.5406 24.9642 47.7551 24.9401 46.6432C24.9099 45.0298 24.8917 44.8063 24.795 44.6612C24.6198 44.3893 24.3418 44.2564 23.9671 44.2564C23.5743 44.2564 23.3023 44.4014 23.121 44.6915C23.0062 44.8788 23.0001 44.9996 23.0001 46.8185C23.0001 48.9273 23.0243 49.1328 23.3748 49.8458C23.8643 50.8549 24.8434 51.6465 25.9131 51.9003C26.4872 52.0332 39.8251 52.0332 40.3992 51.9003C41.4024 51.6646 42.3875 50.8912 42.8649 49.9667C43.2819 49.1569 43.3061 48.9938 43.3061 46.8668V44.9936L43.6264 44.9211C43.7956 44.8788 44.2126 44.7519 44.539 44.6371C48.3342 43.3258 51.1142 40.087 51.8636 36.117C52.0147 35.2952 52.0509 33.3253 51.918 32.4975C51.2411 28.0984 48.1892 24.5998 43.9588 23.3852C42.6171 22.9985 43.161 23.0226 34.2711 23.0045C26.6987 22.9924 26.1488 22.9985 25.8103 23.1012ZM42.1276 25.0469C43.5599 25.2282 45.0949 25.8566 46.3278 26.757C46.9684 27.2283 48.026 28.3281 48.4491 28.9686C49.1199 29.9716 49.6215 31.1681 49.8753 32.3524C50.0324 33.0836 50.0324 35.126 49.8753 35.8572C49.6215 37.0355 49.1259 38.2077 48.4551 39.241C48.0018 39.9299 46.7085 41.217 46.0196 41.6701C44.9922 42.3469 43.8017 42.8485 42.6715 43.0781C41.8678 43.2412 40.8041 43.2835 37.6434 43.2896H34.6035V42.1113C34.6035 40.7456 34.6156 40.7879 34.0294 40.1353C33.0202 39.0174 32.2466 37.4584 31.9021 35.8572C31.745 35.126 31.745 33.0836 31.9021 32.3524C32.5065 29.5184 34.2772 27.1981 36.8154 25.9231C38.4351 25.1073 40.2662 24.8052 42.1276 25.0469Z" fill="#333333"/>
<path d="M39.7966 27.485C38.183 27.9563 37.0469 29.4246 37.0469 31.032C37.0469 31.4006 37.0771 31.5516 37.1677 31.7087C37.349 31.9988 37.621 32.1438 38.0138 32.1438C38.6423 32.1438 38.9203 31.8417 39.0291 31.0441C39.1137 30.4821 39.2709 30.1618 39.6395 29.8295C39.9598 29.5394 40.1774 29.4367 40.5642 29.3763C41.2108 29.2796 41.8031 29.4669 42.2442 29.908C42.6129 30.2766 42.7458 30.5848 42.7761 31.1528C42.8002 31.5939 42.7821 31.6846 42.6371 32.0169C42.4497 32.4218 42.1052 32.7843 41.6882 32.9958C41.4888 33.0985 41.2712 33.1408 40.7455 33.1711C39.9961 33.2194 39.8571 33.2738 39.6032 33.6545C39.4703 33.8478 39.4643 33.9083 39.4643 35.1289C39.4643 36.2951 39.4763 36.422 39.5851 36.6033C39.9356 37.1773 40.8905 37.2015 41.2592 36.6335C41.3438 36.5126 41.374 36.3072 41.3982 35.8056L41.4284 35.1349L41.6701 35.0986C43.0541 34.8569 44.3232 33.6484 44.6858 32.2284C44.8066 31.751 44.8066 30.7842 44.6918 30.2766C44.3776 28.9654 43.187 27.775 41.8756 27.4608C41.3377 27.3399 40.262 27.346 39.7966 27.485Z" fill="#333333"/>
<path d="M39.8609 38.0661C39.5708 38.2474 39.4258 38.5193 39.4258 38.9121C39.4258 39.5163 39.7884 39.8789 40.3927 39.8789C40.9971 39.8789 41.3597 39.5163 41.3597 38.9121C41.3597 38.5193 41.2146 38.2474 40.9246 38.0661C40.6526 37.903 40.1329 37.903 39.8609 38.0661Z" fill="#333333"/>
<path d="M30.6851 46.3357C30.395 46.5169 30.25 46.7888 30.25 47.1816C30.25 47.5744 30.395 47.8463 30.6851 48.0276C30.8725 48.1424 30.9933 48.1484 33.1509 48.1484C35.3084 48.1484 35.4292 48.1424 35.6166 48.0276C35.9067 47.8463 36.0517 47.5744 36.0517 47.1816C36.0517 46.7888 35.9067 46.5169 35.6166 46.3357C35.4292 46.2208 35.3084 46.2148 33.1509 46.2148C30.9933 46.2148 30.8725 46.2208 30.6851 46.3357Z" fill="#333333"/>
</svg>
