<svg width="50" height="50" viewBox="0 0 50 50" fill="none" xmlns="http://www.w3.org/2000/svg">
<circle cx="25" cy="25" r="25" fill="#ECECEC"/>
<path d="M24.8657 15.0559C24.0494 15.2816 23.2289 16.0161 22.5849 17.1075C21.6496 18.6913 21.0056 21.1696 20.821 23.8818C20.7594 24.7763 20.7964 27.1684 20.8825 27.8988C20.9153 28.1901 20.9481 28.4445 20.9481 28.4568C20.9481 28.5061 20.0046 28.2476 19.3893 28.0383C17.8797 27.5172 16.7762 26.7828 16.4152 26.0606C16.124 25.4779 16.2512 24.9774 16.8378 24.3906C17.0921 24.1362 17.7977 23.611 17.8838 23.611C17.892 23.611 17.9618 23.7833 18.0356 23.9885C18.1094 24.1978 18.1833 24.3865 18.1997 24.4029C18.2325 24.4398 20.1687 22.1216 20.1687 22.0477C20.1687 22.0272 20.1605 22.0108 20.1441 22.0108C20.1318 22.0108 19.4591 21.9 18.6427 21.7646C17.8305 21.6292 17.1536 21.5225 17.1454 21.5348C17.1331 21.543 17.1947 21.74 17.2808 21.9656C17.3628 22.1954 17.4244 22.3883 17.4162 22.3965C17.408 22.4047 17.2562 22.4949 17.0798 22.6016C16.5998 22.8847 16.1937 23.2048 15.8327 23.5864C15.2543 24.2019 15 24.7845 15 25.5026C15 25.7118 15.0287 25.9908 15.0615 26.1139C15.3323 27.152 16.3701 28.1286 17.9536 28.8425C18.7494 29.2077 20.0169 29.6098 20.8538 29.7699C20.9974 29.7945 21.1286 29.8396 21.1491 29.8642C21.1697 29.8888 21.2066 30.0201 21.2353 30.1555C21.4035 31.0213 21.7973 32.2564 22.1583 33.0483C22.5726 33.9715 23.0156 34.628 23.6022 35.1819C23.996 35.5594 24.4514 35.8261 24.8862 35.941C25.1734 36.019 25.8256 36.019 26.1046 35.9451C27.6552 35.5307 28.9474 33.5981 29.6488 30.6479C29.7432 30.2663 29.8293 29.9217 29.8457 29.8888C29.8662 29.856 29.9524 29.815 30.0385 29.7945C31.5194 29.4826 32.9511 28.9697 33.8782 28.4199C34.7396 27.9111 35.4083 27.2751 35.7077 26.6843C35.8062 26.4955 35.9087 26.237 35.9415 26.1139C36.0195 25.8226 36.0195 25.1743 35.9415 24.883C35.6708 23.8449 34.633 22.8683 33.0495 22.1544C32.2537 21.7892 30.9861 21.3871 30.1493 21.2271C30.0057 21.2025 29.8744 21.1573 29.8539 21.1327C29.8334 21.1081 29.7965 20.9768 29.7678 20.8414C29.6816 20.39 29.4437 19.5243 29.255 18.9785C28.8038 17.6655 28.2541 16.6849 27.5567 15.9668C27.0891 15.4826 26.6255 15.1913 26.1046 15.0518C25.8338 14.9821 25.1364 14.9821 24.8657 15.0559ZM26.0307 16.3977C26.5312 16.6356 27.1178 17.3209 27.5444 18.1743C27.8767 18.8472 28.2418 19.8812 28.4305 20.6937L28.492 20.9522L28.3197 20.9275C27.5772 20.825 27.0604 20.8003 25.5015 20.8003C23.9427 20.8003 23.4258 20.825 22.6834 20.9275L22.5152 20.9522L22.6382 20.468C23.1469 18.4451 24.0494 16.8531 24.9395 16.41C25.3292 16.213 25.6369 16.2089 26.0307 16.3977ZM27.1629 22.0928C27.6675 22.1298 28.7053 22.2488 28.7299 22.2693C28.7546 22.298 28.9063 23.8039 28.9268 24.2757L28.9556 24.8379L28.5002 24.8502L28.0449 24.8625L28.7587 26.196C29.1525 26.9305 29.4929 27.5295 29.5176 27.5295C29.5422 27.5295 29.9196 26.9469 30.3585 26.237C30.9697 25.2523 31.142 24.9445 31.0887 24.9363C31.0518 24.9322 30.8426 24.9158 30.6251 24.9035L30.2313 24.8748L30.2026 24.2757C30.1862 23.9434 30.1452 23.4182 30.1124 23.1022C30.0796 22.7904 30.0549 22.5319 30.0549 22.5237C30.0549 22.4908 31.0969 22.7822 31.6138 22.9586C32.7254 23.3443 33.5541 23.7998 34.1325 24.3496C34.9283 25.1087 34.9365 25.8308 34.1612 26.6104C33.0864 27.6896 30.9205 28.4692 28.0244 28.8261C27.1424 28.9328 24.9108 28.9779 23.9222 28.9082C23.352 28.8672 22.2977 28.7523 22.2731 28.7276C22.269 28.7235 22.2362 28.4979 22.2034 28.2271C22.0024 26.6432 22.0024 24.3537 22.2034 22.7699C22.2362 22.4991 22.269 22.2734 22.2772 22.2693C22.2936 22.2529 23.3315 22.1339 23.7786 22.0969C24.4063 22.0477 26.4984 22.0436 27.1629 22.0928ZM23.1018 30.1186C23.9468 30.2171 26.3958 30.2417 27.3885 30.1597C27.8275 30.1227 28.2582 30.0817 28.3402 30.0694L28.4879 30.0448L28.3772 30.4879C27.9341 32.2194 27.3024 33.5201 26.564 34.2136C25.801 34.9357 25.0954 34.9111 24.3529 34.1315C23.8032 33.553 23.3479 32.7241 22.9623 31.6122C22.7531 30.9967 22.4947 30.053 22.5439 30.053C22.5562 30.053 22.8105 30.0858 23.1018 30.1186Z" fill="#333333"/>
</svg>
