<svg width="49" height="49" viewBox="0 0 49 49" fill="none" xmlns="http://www.w3.org/2000/svg">
<g filter="url(#filter0_b_2817_7914)">
<rect width="49" height="49" rx="15" fill="white" fill-opacity="0.03"/>
<rect x="0.5" y="0.5" width="48" height="48" rx="14.5" stroke="#D1D9E2" stroke-opacity="0.3"/>
<mask id="path-3-outside-1_2817_7914" maskUnits="userSpaceOnUse" x="15" y="15" width="18" height="18" fill="black">
<rect fill="white" x="15" y="15" width="18" height="18"/>
<path d="M19.0674 20.6199C18.9447 20.6199 18.8439 20.522 18.8409 20.3987L18.8384 20.2953C18.6584 20.2478 18.5355 20.145 18.4246 20.0404C18.3335 19.9545 18.3294 19.811 18.4153 19.7199C18.5012 19.6288 18.6447 19.6246 18.7358 19.7105C18.864 19.8315 18.9255 19.8692 19.0607 19.8692C19.2524 19.8692 19.4083 19.7408 19.4083 19.583C19.4083 19.4253 19.2524 19.2969 19.0607 19.2969C18.619 19.2969 18.2597 18.9651 18.2597 18.5573C18.2597 18.2235 18.5005 17.9407 18.83 17.849L18.8273 17.7337C18.8243 17.6086 18.9233 17.5046 19.0485 17.5017C19.1741 17.4979 19.2776 17.5977 19.2806 17.7229L19.2837 17.8534C19.4623 17.9042 19.6617 18.0078 19.7597 18.157C19.8285 18.2616 19.7994 18.4022 19.6947 18.4709C19.5901 18.5397 19.4495 18.5106 19.3808 18.406C19.346 18.356 19.1584 18.2712 19.0607 18.2712C18.8691 18.2712 18.7132 18.3995 18.7131 18.5573C18.7131 18.7151 18.8691 18.8435 19.0607 18.8435C19.5024 18.8435 19.8618 19.1753 19.8618 19.583C19.8618 19.9167 19.6212 20.1994 19.2919 20.2912L19.2942 20.3877C19.2972 20.5129 19.1982 20.6168 19.073 20.6199C19.0712 20.6199 19.0693 20.6199 19.0674 20.6199ZM25.8548 24.226C25.8548 25.2487 25.0228 26.0807 24.0001 26.0807C22.9775 26.0807 22.1455 25.2487 22.1455 24.226C22.1455 23.2035 22.9775 22.3716 24.0001 22.3716C25.0228 22.3717 25.8548 23.2035 25.8548 24.226ZM25.4014 24.226C25.4014 23.4535 24.7728 22.8251 24.0001 22.8251C23.2275 22.8251 22.5989 23.4535 22.5989 24.226C22.5989 24.9987 23.2275 25.6273 24.0001 25.6273C24.7728 25.6273 25.4014 24.9987 25.4014 24.226ZM29.3333 22.0962C29.4385 23.2053 29.1872 24.3302 28.6157 25.2884C28.0741 26.1964 27.2645 26.921 26.3083 27.3623C27.1848 28.0491 27.749 29.1171 27.749 30.3144C27.749 31.4788 25.8661 32 24 32C23.0512 32 22.1634 31.8655 21.5001 31.6213C20.4677 31.2412 20.251 30.7008 20.251 30.3143C20.251 29.0773 20.8534 27.9784 21.7802 27.2953C19.8438 26.3346 18.6938 24.2839 18.8935 22.1168C17.2833 22.0297 16 20.6923 16 19.0607C16 17.3731 17.373 16 19.0607 16C20.3216 16 21.4066 16.7663 21.8749 17.8577C23.2221 17.221 24.7915 17.1894 26.1635 17.772C26.6508 16.7265 27.7117 16 28.9393 16C30.6269 16 32 17.3731 32 19.0607C32 20.6149 30.8356 21.9022 29.3333 22.0962ZM19.0607 21.668C20.4984 21.668 21.668 20.4984 21.668 19.0607C21.668 17.6231 20.4984 16.4534 19.0607 16.4534C17.6231 16.4534 16.4534 17.6231 16.4534 19.0607C16.4534 20.4984 17.6231 21.668 19.0607 21.668ZM24.0001 27.0189C22.1829 27.0189 20.7044 28.4973 20.7044 30.3143C20.7044 31.0168 22.1212 31.5466 24 31.5466C25.8788 31.5466 27.2956 31.0168 27.2956 30.3143C27.2956 28.4973 25.8172 27.0189 24.0001 27.0189ZM28.8802 22.1207C27.2197 22.0891 25.8785 20.7286 25.8785 19.0607C25.8785 18.7607 25.9221 18.4707 26.003 18.1965C24.7302 17.6501 23.2692 17.684 22.0229 18.2894C22.0872 18.5359 22.1215 18.7944 22.1215 19.0607C22.1215 20.6509 20.9025 21.9615 19.3499 22.1077C19.1353 24.1996 20.2992 26.1815 22.237 27.0067C22.7629 26.7253 23.3631 26.5654 24.0001 26.5654C24.6768 26.5654 25.3121 26.7457 25.8607 27.0606C27.8484 26.2818 29.0897 24.2423 28.8802 22.1207ZM31.5466 19.0607C31.5466 17.6231 30.3769 16.4534 28.9393 16.4534C27.5016 16.4534 26.332 17.6231 26.332 19.0607C26.332 20.4984 27.5016 21.668 28.9393 21.668C30.3769 21.668 31.5466 20.4984 31.5466 19.0607ZM29.7181 20.4692C29.5929 20.4692 29.4914 20.5708 29.4914 20.6959C29.4914 20.8211 29.5929 20.9227 29.7181 20.9227C29.8433 20.9227 29.9448 20.8211 29.9448 20.6959C29.9448 20.5707 29.8433 20.4692 29.7181 20.4692ZM28.571 20.4692C28.4458 20.4692 28.3443 20.5708 28.3443 20.6959C28.3443 20.8211 28.4458 20.9227 28.571 20.9227C28.6963 20.9227 28.7978 20.8211 28.7978 20.6959C28.7977 20.5707 28.6963 20.4692 28.571 20.4692ZM30.4194 18.239C30.4897 18.3219 30.5196 18.4331 30.5012 18.5441C30.4994 18.5556 30.4966 18.5669 30.493 18.5779L30.2828 19.2175C30.236 19.4224 30.0787 19.5539 29.8782 19.5539H28.3553C28.3589 19.5896 28.3623 19.624 28.3655 19.6566C28.3884 19.8891 28.4879 19.8891 28.5473 19.8891H29.9855C30.1107 19.8891 30.2122 19.9906 30.2122 20.1158C30.2122 20.241 30.1107 20.3425 29.9855 20.3425H28.5473C28.1905 20.3425 27.9539 20.1028 27.9143 19.7011C27.8366 18.914 27.77 18.3412 27.7362 18.1688C27.7219 18.0961 27.6891 18.0638 27.6388 18.0729C27.5158 18.0952 27.3977 18.0133 27.3755 17.89C27.3533 17.7668 27.4352 17.6489 27.5584 17.6267C27.7655 17.5893 28.1023 17.6797 28.1811 18.0815C28.1825 18.0884 28.1839 18.0958 28.1853 18.1035H30.1106C30.2356 18.1034 30.3452 18.1516 30.4194 18.239ZM30.0226 18.5569L28.2481 18.5569C28.2682 18.7255 28.2892 18.9152 28.3088 19.1005H29.8444C29.8455 19.096 29.8468 19.0917 29.8483 19.0873L30.0226 18.5569Z"/>
</mask>
<path d="M19.0674 20.6199C18.9447 20.6199 18.8439 20.522 18.8409 20.3987L18.8384 20.2953C18.6584 20.2478 18.5355 20.145 18.4246 20.0404C18.3335 19.9545 18.3294 19.811 18.4153 19.7199C18.5012 19.6288 18.6447 19.6246 18.7358 19.7105C18.864 19.8315 18.9255 19.8692 19.0607 19.8692C19.2524 19.8692 19.4083 19.7408 19.4083 19.583C19.4083 19.4253 19.2524 19.2969 19.0607 19.2969C18.619 19.2969 18.2597 18.9651 18.2597 18.5573C18.2597 18.2235 18.5005 17.9407 18.83 17.849L18.8273 17.7337C18.8243 17.6086 18.9233 17.5046 19.0485 17.5017C19.1741 17.4979 19.2776 17.5977 19.2806 17.7229L19.2837 17.8534C19.4623 17.9042 19.6617 18.0078 19.7597 18.157C19.8285 18.2616 19.7994 18.4022 19.6947 18.4709C19.5901 18.5397 19.4495 18.5106 19.3808 18.406C19.346 18.356 19.1584 18.2712 19.0607 18.2712C18.8691 18.2712 18.7132 18.3995 18.7131 18.5573C18.7131 18.7151 18.8691 18.8435 19.0607 18.8435C19.5024 18.8435 19.8618 19.1753 19.8618 19.583C19.8618 19.9167 19.6212 20.1994 19.2919 20.2912L19.2942 20.3877C19.2972 20.5129 19.1982 20.6168 19.073 20.6199C19.0712 20.6199 19.0693 20.6199 19.0674 20.6199ZM25.8548 24.226C25.8548 25.2487 25.0228 26.0807 24.0001 26.0807C22.9775 26.0807 22.1455 25.2487 22.1455 24.226C22.1455 23.2035 22.9775 22.3716 24.0001 22.3716C25.0228 22.3717 25.8548 23.2035 25.8548 24.226ZM25.4014 24.226C25.4014 23.4535 24.7728 22.8251 24.0001 22.8251C23.2275 22.8251 22.5989 23.4535 22.5989 24.226C22.5989 24.9987 23.2275 25.6273 24.0001 25.6273C24.7728 25.6273 25.4014 24.9987 25.4014 24.226ZM29.3333 22.0962C29.4385 23.2053 29.1872 24.3302 28.6157 25.2884C28.0741 26.1964 27.2645 26.921 26.3083 27.3623C27.1848 28.0491 27.749 29.1171 27.749 30.3144C27.749 31.4788 25.8661 32 24 32C23.0512 32 22.1634 31.8655 21.5001 31.6213C20.4677 31.2412 20.251 30.7008 20.251 30.3143C20.251 29.0773 20.8534 27.9784 21.7802 27.2953C19.8438 26.3346 18.6938 24.2839 18.8935 22.1168C17.2833 22.0297 16 20.6923 16 19.0607C16 17.3731 17.373 16 19.0607 16C20.3216 16 21.4066 16.7663 21.8749 17.8577C23.2221 17.221 24.7915 17.1894 26.1635 17.772C26.6508 16.7265 27.7117 16 28.9393 16C30.6269 16 32 17.3731 32 19.0607C32 20.6149 30.8356 21.9022 29.3333 22.0962ZM19.0607 21.668C20.4984 21.668 21.668 20.4984 21.668 19.0607C21.668 17.6231 20.4984 16.4534 19.0607 16.4534C17.6231 16.4534 16.4534 17.6231 16.4534 19.0607C16.4534 20.4984 17.6231 21.668 19.0607 21.668ZM24.0001 27.0189C22.1829 27.0189 20.7044 28.4973 20.7044 30.3143C20.7044 31.0168 22.1212 31.5466 24 31.5466C25.8788 31.5466 27.2956 31.0168 27.2956 30.3143C27.2956 28.4973 25.8172 27.0189 24.0001 27.0189ZM28.8802 22.1207C27.2197 22.0891 25.8785 20.7286 25.8785 19.0607C25.8785 18.7607 25.9221 18.4707 26.003 18.1965C24.7302 17.6501 23.2692 17.684 22.0229 18.2894C22.0872 18.5359 22.1215 18.7944 22.1215 19.0607C22.1215 20.6509 20.9025 21.9615 19.3499 22.1077C19.1353 24.1996 20.2992 26.1815 22.237 27.0067C22.7629 26.7253 23.3631 26.5654 24.0001 26.5654C24.6768 26.5654 25.3121 26.7457 25.8607 27.0606C27.8484 26.2818 29.0897 24.2423 28.8802 22.1207ZM31.5466 19.0607C31.5466 17.6231 30.3769 16.4534 28.9393 16.4534C27.5016 16.4534 26.332 17.6231 26.332 19.0607C26.332 20.4984 27.5016 21.668 28.9393 21.668C30.3769 21.668 31.5466 20.4984 31.5466 19.0607ZM29.7181 20.4692C29.5929 20.4692 29.4914 20.5708 29.4914 20.6959C29.4914 20.8211 29.5929 20.9227 29.7181 20.9227C29.8433 20.9227 29.9448 20.8211 29.9448 20.6959C29.9448 20.5707 29.8433 20.4692 29.7181 20.4692ZM28.571 20.4692C28.4458 20.4692 28.3443 20.5708 28.3443 20.6959C28.3443 20.8211 28.4458 20.9227 28.571 20.9227C28.6963 20.9227 28.7978 20.8211 28.7978 20.6959C28.7977 20.5707 28.6963 20.4692 28.571 20.4692ZM30.4194 18.239C30.4897 18.3219 30.5196 18.4331 30.5012 18.5441C30.4994 18.5556 30.4966 18.5669 30.493 18.5779L30.2828 19.2175C30.236 19.4224 30.0787 19.5539 29.8782 19.5539H28.3553C28.3589 19.5896 28.3623 19.624 28.3655 19.6566C28.3884 19.8891 28.4879 19.8891 28.5473 19.8891H29.9855C30.1107 19.8891 30.2122 19.9906 30.2122 20.1158C30.2122 20.241 30.1107 20.3425 29.9855 20.3425H28.5473C28.1905 20.3425 27.9539 20.1028 27.9143 19.7011C27.8366 18.914 27.77 18.3412 27.7362 18.1688C27.7219 18.0961 27.6891 18.0638 27.6388 18.0729C27.5158 18.0952 27.3977 18.0133 27.3755 17.89C27.3533 17.7668 27.4352 17.6489 27.5584 17.6267C27.7655 17.5893 28.1023 17.6797 28.1811 18.0815C28.1825 18.0884 28.1839 18.0958 28.1853 18.1035H30.1106C30.2356 18.1034 30.3452 18.1516 30.4194 18.239ZM30.0226 18.5569L28.2481 18.5569C28.2682 18.7255 28.2892 18.9152 28.3088 19.1005H29.8444C29.8455 19.096 29.8468 19.0917 29.8483 19.0873L30.0226 18.5569Z" fill="white"/>
<path d="M19.0674 20.6199C18.9447 20.6199 18.8439 20.522 18.8409 20.3987L18.8384 20.2953C18.6584 20.2478 18.5355 20.145 18.4246 20.0404C18.3335 19.9545 18.3294 19.811 18.4153 19.7199C18.5012 19.6288 18.6447 19.6246 18.7358 19.7105C18.864 19.8315 18.9255 19.8692 19.0607 19.8692C19.2524 19.8692 19.4083 19.7408 19.4083 19.583C19.4083 19.4253 19.2524 19.2969 19.0607 19.2969C18.619 19.2969 18.2597 18.9651 18.2597 18.5573C18.2597 18.2235 18.5005 17.9407 18.83 17.849L18.8273 17.7337C18.8243 17.6086 18.9233 17.5046 19.0485 17.5017C19.1741 17.4979 19.2776 17.5977 19.2806 17.7229L19.2837 17.8534C19.4623 17.9042 19.6617 18.0078 19.7597 18.157C19.8285 18.2616 19.7994 18.4022 19.6947 18.4709C19.5901 18.5397 19.4495 18.5106 19.3808 18.406C19.346 18.356 19.1584 18.2712 19.0607 18.2712C18.8691 18.2712 18.7132 18.3995 18.7131 18.5573C18.7131 18.7151 18.8691 18.8435 19.0607 18.8435C19.5024 18.8435 19.8618 19.1753 19.8618 19.583C19.8618 19.9167 19.6212 20.1994 19.2919 20.2912L19.2942 20.3877C19.2972 20.5129 19.1982 20.6168 19.073 20.6199C19.0712 20.6199 19.0693 20.6199 19.0674 20.6199ZM25.8548 24.226C25.8548 25.2487 25.0228 26.0807 24.0001 26.0807C22.9775 26.0807 22.1455 25.2487 22.1455 24.226C22.1455 23.2035 22.9775 22.3716 24.0001 22.3716C25.0228 22.3717 25.8548 23.2035 25.8548 24.226ZM25.4014 24.226C25.4014 23.4535 24.7728 22.8251 24.0001 22.8251C23.2275 22.8251 22.5989 23.4535 22.5989 24.226C22.5989 24.9987 23.2275 25.6273 24.0001 25.6273C24.7728 25.6273 25.4014 24.9987 25.4014 24.226ZM29.3333 22.0962C29.4385 23.2053 29.1872 24.3302 28.6157 25.2884C28.0741 26.1964 27.2645 26.921 26.3083 27.3623C27.1848 28.0491 27.749 29.1171 27.749 30.3144C27.749 31.4788 25.8661 32 24 32C23.0512 32 22.1634 31.8655 21.5001 31.6213C20.4677 31.2412 20.251 30.7008 20.251 30.3143C20.251 29.0773 20.8534 27.9784 21.7802 27.2953C19.8438 26.3346 18.6938 24.2839 18.8935 22.1168C17.2833 22.0297 16 20.6923 16 19.0607C16 17.3731 17.373 16 19.0607 16C20.3216 16 21.4066 16.7663 21.8749 17.8577C23.2221 17.221 24.7915 17.1894 26.1635 17.772C26.6508 16.7265 27.7117 16 28.9393 16C30.6269 16 32 17.3731 32 19.0607C32 20.6149 30.8356 21.9022 29.3333 22.0962ZM19.0607 21.668C20.4984 21.668 21.668 20.4984 21.668 19.0607C21.668 17.6231 20.4984 16.4534 19.0607 16.4534C17.6231 16.4534 16.4534 17.6231 16.4534 19.0607C16.4534 20.4984 17.6231 21.668 19.0607 21.668ZM24.0001 27.0189C22.1829 27.0189 20.7044 28.4973 20.7044 30.3143C20.7044 31.0168 22.1212 31.5466 24 31.5466C25.8788 31.5466 27.2956 31.0168 27.2956 30.3143C27.2956 28.4973 25.8172 27.0189 24.0001 27.0189ZM28.8802 22.1207C27.2197 22.0891 25.8785 20.7286 25.8785 19.0607C25.8785 18.7607 25.9221 18.4707 26.003 18.1965C24.7302 17.6501 23.2692 17.684 22.0229 18.2894C22.0872 18.5359 22.1215 18.7944 22.1215 19.0607C22.1215 20.6509 20.9025 21.9615 19.3499 22.1077C19.1353 24.1996 20.2992 26.1815 22.237 27.0067C22.7629 26.7253 23.3631 26.5654 24.0001 26.5654C24.6768 26.5654 25.3121 26.7457 25.8607 27.0606C27.8484 26.2818 29.0897 24.2423 28.8802 22.1207ZM31.5466 19.0607C31.5466 17.6231 30.3769 16.4534 28.9393 16.4534C27.5016 16.4534 26.332 17.6231 26.332 19.0607C26.332 20.4984 27.5016 21.668 28.9393 21.668C30.3769 21.668 31.5466 20.4984 31.5466 19.0607ZM29.7181 20.4692C29.5929 20.4692 29.4914 20.5708 29.4914 20.6959C29.4914 20.8211 29.5929 20.9227 29.7181 20.9227C29.8433 20.9227 29.9448 20.8211 29.9448 20.6959C29.9448 20.5707 29.8433 20.4692 29.7181 20.4692ZM28.571 20.4692C28.4458 20.4692 28.3443 20.5708 28.3443 20.6959C28.3443 20.8211 28.4458 20.9227 28.571 20.9227C28.6963 20.9227 28.7978 20.8211 28.7978 20.6959C28.7977 20.5707 28.6963 20.4692 28.571 20.4692ZM30.4194 18.239C30.4897 18.3219 30.5196 18.4331 30.5012 18.5441C30.4994 18.5556 30.4966 18.5669 30.493 18.5779L30.2828 19.2175C30.236 19.4224 30.0787 19.5539 29.8782 19.5539H28.3553C28.3589 19.5896 28.3623 19.624 28.3655 19.6566C28.3884 19.8891 28.4879 19.8891 28.5473 19.8891H29.9855C30.1107 19.8891 30.2122 19.9906 30.2122 20.1158C30.2122 20.241 30.1107 20.3425 29.9855 20.3425H28.5473C28.1905 20.3425 27.9539 20.1028 27.9143 19.7011C27.8366 18.914 27.77 18.3412 27.7362 18.1688C27.7219 18.0961 27.6891 18.0638 27.6388 18.0729C27.5158 18.0952 27.3977 18.0133 27.3755 17.89C27.3533 17.7668 27.4352 17.6489 27.5584 17.6267C27.7655 17.5893 28.1023 17.6797 28.1811 18.0815C28.1825 18.0884 28.1839 18.0958 28.1853 18.1035H30.1106C30.2356 18.1034 30.3452 18.1516 30.4194 18.239ZM30.0226 18.5569L28.2481 18.5569C28.2682 18.7255 28.2892 18.9152 28.3088 19.1005H29.8444C29.8455 19.096 29.8468 19.0917 29.8483 19.0873L30.0226 18.5569Z" stroke="#373737" mask="url(#path-3-outside-1_2817_7914)"/>
</g>
<defs>
<filter id="filter0_b_2817_7914" x="-7" y="-7" width="63" height="63" filterUnits="userSpaceOnUse" color-interpolation-filters="sRGB">
<feFlood flood-opacity="0" result="BackgroundImageFix"/>
<feGaussianBlur in="BackgroundImageFix" stdDeviation="3.5"/>
<feComposite in2="SourceAlpha" operator="in" result="effect1_backgroundBlur_2817_7914"/>
<feBlend mode="normal" in="SourceGraphic" in2="effect1_backgroundBlur_2817_7914" result="shape"/>
</filter>
</defs>
</svg>
