<svg width="16" height="16" viewBox="0 0 16 16" fill="none" xmlns="http://www.w3.org/2000/svg">
<path fill-rule="evenodd" clip-rule="evenodd" d="M2.05003 8.159C1.99669 8.159 1.94498 8.16179 1.89314 8.16562C1.89166 8.11033 1.89016 8.05513 1.89016 7.99991C1.88772 6.6333 2.34601 5.30576 3.19103 4.23172L3.18067 4.36787C3.17793 4.4007 3.18169 4.43374 3.19174 4.46512C3.20179 4.49649 3.21793 4.52558 3.23924 4.5507C3.26054 4.57583 3.2866 4.5965 3.31591 4.61154C3.34522 4.62658 3.37721 4.63569 3.41005 4.63834C3.41745 4.63869 3.42486 4.639 3.43079 4.639C3.49391 4.63909 3.55473 4.61535 3.6011 4.57253C3.64746 4.5297 3.67595 4.47095 3.68087 4.40803L3.75191 3.52414C3.75486 3.48784 3.74988 3.45133 3.73731 3.41715C3.72474 3.38297 3.70488 3.35194 3.67911 3.3262C3.65334 3.30046 3.62229 3.28064 3.58809 3.26811C3.5539 3.25558 3.51738 3.25064 3.48109 3.25363L2.59761 3.32454C2.56475 3.32717 2.53272 3.33624 2.50337 3.35124C2.47401 3.36623 2.44789 3.38687 2.42651 3.41196C2.40513 3.43705 2.3889 3.46611 2.37874 3.49747C2.36859 3.52884 2.36472 3.56189 2.36734 3.59476C2.36996 3.62762 2.37903 3.65964 2.39403 3.689C2.40903 3.71836 2.42966 3.74447 2.45476 3.76585C2.47985 3.78724 2.5089 3.80347 2.54027 3.81362C2.57163 3.82377 2.60469 3.82765 2.63755 3.82502L2.89065 3.80469C1.91659 4.98544 1.38531 6.46921 1.38852 7.99988C1.38852 8.08868 1.38999 8.1781 1.39442 8.26722C0.906199 8.43241 0.498019 8.77526 0.251015 9.22762C0.00401073 9.67998 -0.0637288 10.2087 0.061262 10.7087C0.186253 11.2088 0.494821 11.6434 0.925627 11.9264C1.35643 12.2093 1.87793 12.3198 2.38645 12.2358C2.89497 12.1518 3.35327 11.8796 3.67026 11.4732C3.98724 11.0668 4.13969 10.556 4.0973 10.0423C4.05492 9.52866 3.8208 9.04976 3.44148 8.70082C3.06217 8.35187 2.56543 8.15844 2.05003 8.15896V8.159ZM2.05003 11.765C1.7431 11.7649 1.44309 11.6738 1.18794 11.5032C0.932782 11.3326 0.733937 11.0902 0.616544 10.8066C0.499151 10.523 0.468482 10.211 0.528416 9.90995C0.588349 9.60894 0.736193 9.33245 0.953254 9.11545C1.17031 8.89845 1.44685 8.75068 1.74788 8.69083C2.04892 8.63099 2.36094 8.66174 2.6445 8.77922C2.92805 8.89669 3.17041 9.0956 3.34092 9.35081C3.51144 9.60601 3.60245 9.90605 3.60246 10.213C3.60187 10.6245 3.43811 11.019 3.14708 11.3099C2.85606 11.6008 2.46154 11.7645 2.05003 11.765ZM10.2103 11.8933C9.66594 11.8941 9.14408 12.1108 8.75926 12.4958C8.37444 12.8809 8.15809 13.4029 8.15768 13.9473C8.15768 14.0003 8.15918 14.0527 8.16361 14.1045C8.10738 14.106 8.05262 14.107 7.99784 14.107C6.63123 14.11 5.30362 13.6516 4.22996 12.8061L4.36611 12.8171C4.43248 12.8224 4.49824 12.8011 4.54892 12.7579C4.5996 12.7147 4.63105 12.6532 4.63635 12.5868C4.64165 12.5204 4.62037 12.4547 4.57719 12.404C4.534 12.3533 4.47245 12.3219 4.40608 12.3166L3.5226 12.2457C3.48634 12.2427 3.44986 12.2476 3.4157 12.2601C3.38153 12.2727 3.3505 12.2925 3.32474 12.3181C3.29898 12.3438 3.27912 12.3748 3.26653 12.409C3.25393 12.4431 3.24891 12.4796 3.25181 12.5158L3.32282 13.4001C3.32775 13.463 3.35625 13.5217 3.40262 13.5646C3.44899 13.6074 3.50982 13.6311 3.57293 13.631C3.57886 13.631 3.58627 13.6307 3.59217 13.63C3.6586 13.6248 3.72024 13.5934 3.76353 13.5428C3.80683 13.4921 3.82823 13.4263 3.82305 13.3599L3.80231 13.1067C4.98312 14.0809 6.46702 14.6123 7.99784 14.609C8.08667 14.609 8.17544 14.6072 8.26574 14.6037C8.38661 14.9616 8.60384 15.2792 8.89353 15.5215C9.18323 15.7639 9.53416 15.9217 9.90772 15.9775C10.2813 16.0333 10.663 15.985 11.0109 15.8378C11.3588 15.6907 11.6593 15.4505 11.8795 15.1436C12.0997 14.8367 12.2309 14.4751 12.2589 14.0984C12.2868 13.7217 12.2102 13.3446 12.0377 13.0086C11.8651 12.6726 11.6033 12.3908 11.2809 12.194C10.9585 11.9972 10.588 11.8932 10.2103 11.8933ZM10.2103 15.4993C9.90341 15.4992 9.6034 15.4081 9.34825 15.2375C9.0931 15.0669 8.89426 14.8245 8.77687 14.5409C8.65948 14.2573 8.62882 13.9452 8.68876 13.6442C8.7487 13.3432 8.89655 13.0667 9.11361 12.8497C9.33068 12.6327 9.60721 12.485 9.90825 12.4251C10.2093 12.3653 10.5213 12.3961 10.8049 12.5135C11.0884 12.631 11.3308 12.8299 11.5013 13.0851C11.6718 13.3403 11.7628 13.6404 11.7628 13.9473C11.7625 14.3589 11.5988 14.7535 11.3077 15.0445C11.0166 15.3355 10.6219 15.499 10.2103 15.4992V15.4993ZM10.4619 12.9215C10.4623 12.8883 10.4561 12.8554 10.4436 12.8247C10.4312 12.7939 10.4128 12.7659 10.3895 12.7423C10.3661 12.7187 10.3383 12.7 10.3077 12.6872C10.2771 12.6744 10.2443 12.6679 10.2111 12.6679C10.1779 12.6679 10.145 12.6744 10.1144 12.6872C10.0838 12.7 10.056 12.7187 10.0327 12.7423C10.0094 12.7659 9.99094 12.7939 9.9785 12.8247C9.96606 12.8554 9.95985 12.8883 9.96022 12.9215V12.9582C9.81784 13.0075 9.69749 13.1056 9.62053 13.2351C9.54356 13.3646 9.51495 13.5172 9.53977 13.6658C9.56459 13.8144 9.64123 13.9494 9.7561 14.0469C9.87098 14.1443 10.0167 14.198 10.1673 14.1983H10.2532C10.2711 14.198 10.2889 14.2013 10.3056 14.208C10.3222 14.2147 10.3374 14.2246 10.3502 14.2372C10.363 14.2498 10.3731 14.2648 10.38 14.2813C10.387 14.2979 10.3905 14.3156 10.3905 14.3336C10.3905 14.3515 10.387 14.3693 10.38 14.3858C10.3731 14.4023 10.363 14.4173 10.3502 14.4299C10.3374 14.4425 10.3222 14.4524 10.3056 14.4591C10.2889 14.4658 10.2711 14.4691 10.2532 14.4688H10.1319C10.1104 14.4685 10.0894 14.4633 10.0704 14.4534C10.0514 14.4435 10.0349 14.4294 10.0223 14.412C10.0031 14.385 9.9788 14.362 9.9507 14.3444C9.9226 14.3269 9.89129 14.315 9.85859 14.3096C9.82589 14.3042 9.79243 14.3053 9.76016 14.3129C9.72789 14.3204 9.69744 14.3343 9.67056 14.3537C9.64369 14.3732 9.62093 14.3977 9.60359 14.426C9.58625 14.4542 9.57468 14.4856 9.56955 14.5184C9.56441 14.5511 9.56582 14.5846 9.57368 14.6168C9.58154 14.649 9.5957 14.6793 9.61534 14.706C9.69988 14.8228 9.82139 14.9076 9.96016 14.9467V14.973C9.95979 15.0062 9.966 15.0391 9.97844 15.0699C9.99088 15.1006 10.0093 15.1286 10.0326 15.1522C10.056 15.1758 10.0837 15.1946 10.1144 15.2073C10.145 15.2201 10.1778 15.2267 10.211 15.2267C10.2442 15.2267 10.277 15.2201 10.3077 15.2073C10.3383 15.1946 10.3661 15.1758 10.3894 15.1522C10.4127 15.1286 10.4311 15.1006 10.4436 15.0699C10.456 15.0391 10.4622 15.0062 10.4619 14.973V14.936C10.6044 14.8868 10.7248 14.7886 10.8018 14.659C10.8788 14.5293 10.9073 14.3765 10.8823 14.2279C10.8572 14.0792 10.7803 13.9441 10.6651 13.8468C10.5499 13.7495 10.404 13.6962 10.2532 13.6963H10.1673C10.1314 13.6963 10.097 13.682 10.0716 13.6566C10.0462 13.6313 10.0319 13.5968 10.0319 13.5609C10.0319 13.525 10.0462 13.4905 10.0716 13.4651C10.097 13.4397 10.1314 13.4255 10.1673 13.4255H10.2887C10.3102 13.4256 10.3313 13.4308 10.3504 13.4407C10.3694 13.4507 10.3858 13.465 10.3982 13.4826C10.4373 13.5365 10.4961 13.5728 10.5619 13.5834C10.6276 13.5939 10.6949 13.5779 10.7489 13.5389C10.8028 13.4999 10.8391 13.441 10.8497 13.3753C10.8602 13.3095 10.8442 13.2422 10.8052 13.1883C10.721 13.0718 10.6001 12.987 10.4619 12.9476V12.9215H10.4619ZM13.2649 5.4002C13.265 5.56907 13.332 5.73101 13.4513 5.85052C13.5706 5.97004 13.7324 6.03738 13.9013 6.03777H13.9886C14.0241 6.03832 14.058 6.0528 14.0829 6.07811C14.1078 6.10342 14.1218 6.13751 14.1218 6.17303C14.1218 6.20855 14.1078 6.24264 14.0829 6.26795C14.058 6.29326 14.0241 6.30774 13.9886 6.30829H13.8672C13.8456 6.30819 13.8242 6.30299 13.805 6.29313C13.7857 6.28326 13.769 6.269 13.7562 6.25149C13.7173 6.19752 13.6584 6.16125 13.5927 6.15066C13.527 6.14007 13.4597 6.15602 13.4058 6.19501C13.3518 6.234 13.3155 6.29283 13.3049 6.35856C13.2943 6.42429 13.3103 6.49154 13.3493 6.5455C13.4338 6.66227 13.5553 6.74707 13.6941 6.78617V6.81253C13.6937 6.84571 13.6999 6.87863 13.7124 6.90939C13.7248 6.94015 13.7432 6.96814 13.7666 6.99173C13.7899 7.01533 13.8177 7.03406 13.8483 7.04684C13.8789 7.05962 13.9118 7.0662 13.9449 7.0662C13.9781 7.0662 14.011 7.05962 14.0416 7.04684C14.0722 7.03406 14.1 7.01533 14.1233 6.99173C14.1466 6.96814 14.1651 6.94015 14.1775 6.90939C14.1899 6.87863 14.1962 6.84571 14.1958 6.81253V6.7755C14.3382 6.72629 14.4585 6.62823 14.5354 6.49875C14.6124 6.36926 14.641 6.2167 14.6162 6.06812C14.5914 5.91955 14.5147 5.78457 14.3999 5.68713C14.285 5.58968 14.1393 5.53606 13.9887 5.53579H13.9014C13.8658 5.53525 13.8319 5.52075 13.807 5.49542C13.782 5.47009 13.768 5.43596 13.768 5.40041C13.768 5.36486 13.782 5.33073 13.807 5.3054C13.8319 5.28007 13.8658 5.26557 13.9014 5.26503H14.0242C14.0456 5.2653 14.0667 5.27058 14.0857 5.28044C14.1047 5.29029 14.1212 5.30445 14.1337 5.32179C14.153 5.34851 14.1774 5.37117 14.2055 5.38847C14.2335 5.40577 14.2647 5.41737 14.2973 5.42262C14.3298 5.42786 14.3631 5.42664 14.3952 5.41903C14.4272 5.41142 14.4575 5.39756 14.4842 5.37825C14.511 5.35895 14.5336 5.33457 14.5509 5.3065C14.5682 5.27844 14.5798 5.24724 14.5851 5.2147C14.5903 5.18215 14.5891 5.14889 14.5815 5.11681C14.5739 5.08473 14.56 5.05447 14.5407 5.02775C14.4558 4.91138 14.3344 4.82669 14.1959 4.78711V4.76072C14.1963 4.72754 14.19 4.69462 14.1776 4.66386C14.1652 4.6331 14.1467 4.60511 14.1234 4.58152C14.1001 4.55792 14.0723 4.53919 14.0417 4.52641C14.0111 4.51363 13.9782 4.50705 13.945 4.50705C13.9119 4.50705 13.879 4.51363 13.8484 4.52641C13.8178 4.53919 13.79 4.55792 13.7667 4.58152C13.7433 4.60511 13.7249 4.6331 13.7125 4.66386C13.7 4.69462 13.6938 4.72754 13.6942 4.76072V4.79778C13.5689 4.84109 13.4602 4.9224 13.3833 5.03038C13.3063 5.13837 13.265 5.26765 13.265 5.40024L13.2649 5.4002ZM2.64496 9.45428C2.561 9.33757 2.43997 9.25275 2.30162 9.21364V9.18729C2.30162 9.12056 2.27511 9.05657 2.22793 9.00939C2.18075 8.9622 2.11675 8.9357 2.05003 8.9357C1.9833 8.9357 1.91931 8.9622 1.87213 9.00939C1.82495 9.05657 1.79844 9.12056 1.79844 9.18729V9.22428C1.65596 9.27354 1.53555 9.37172 1.45861 9.50136C1.38166 9.63101 1.35317 9.78373 1.37819 9.9324C1.4032 10.0811 1.48011 10.2161 1.59524 10.3134C1.71038 10.4107 1.85628 10.4641 2.00704 10.464H2.09289C2.11085 10.4637 2.12868 10.467 2.14535 10.4737C2.16202 10.4804 2.17719 10.4903 2.18998 10.5029C2.20278 10.5155 2.21294 10.5305 2.21987 10.5471C2.22681 10.5637 2.23038 10.5815 2.23038 10.5994C2.23038 10.6174 2.22681 10.6351 2.21987 10.6517C2.21294 10.6683 2.20278 10.6833 2.18998 10.6959C2.17719 10.7085 2.16202 10.7184 2.14535 10.7251C2.12868 10.7318 2.11085 10.7351 2.09289 10.7348H1.97162C1.95016 10.7347 1.92903 10.7295 1.90999 10.7196C1.89094 10.7097 1.87452 10.6955 1.86207 10.678C1.84277 10.6513 1.81839 10.6286 1.79032 10.6113C1.76226 10.594 1.73106 10.5824 1.69851 10.5772C1.66597 10.5719 1.6327 10.5731 1.60063 10.5808C1.56855 10.5884 1.53829 10.6022 1.51157 10.6215C1.48484 10.6408 1.46219 10.6652 1.44489 10.6933C1.42759 10.7213 1.41598 10.7525 1.41074 10.7851C1.4055 10.8176 1.40672 10.8509 1.41433 10.883C1.42194 10.9151 1.43579 10.9453 1.4551 10.972C1.53944 11.0884 1.66032 11.1731 1.79844 11.2127V11.2388C1.79844 11.3055 1.82495 11.3695 1.87213 11.4167C1.91931 11.4638 1.9833 11.4903 2.05003 11.4903C2.11675 11.4903 2.18075 11.4638 2.22793 11.4167C2.27511 11.3695 2.30162 11.3055 2.30162 11.2388V11.202C2.44413 11.1528 2.56456 11.0545 2.64151 10.9249C2.71846 10.7952 2.74696 10.6424 2.72193 10.4937C2.69691 10.345 2.61999 10.21 2.50484 10.1127C2.38968 10.0153 2.24375 9.96191 2.09295 9.96198H2.00704C1.97117 9.96198 1.93677 9.94773 1.91141 9.92237C1.88605 9.89701 1.8718 9.86261 1.8718 9.82674C1.8718 9.79087 1.88605 9.75647 1.91141 9.73111C1.93677 9.70575 1.97117 9.6915 2.00704 9.6915H2.12847C2.14993 9.69161 2.17104 9.69682 2.19008 9.70671C2.20912 9.71659 2.22554 9.73085 2.23798 9.74833C2.25729 9.77505 2.28167 9.79771 2.30974 9.81501C2.3378 9.83231 2.369 9.84391 2.40154 9.84915C2.43409 9.85439 2.46735 9.85318 2.49943 9.84556C2.53151 9.83795 2.56177 9.8241 2.58849 9.80479C2.61521 9.78548 2.63787 9.7611 2.65517 9.73304C2.67247 9.70498 2.68407 9.67378 2.68932 9.64123C2.69456 9.60868 2.69334 9.57542 2.68573 9.54334C2.67812 9.51127 2.66426 9.481 2.64496 9.45428ZM6.03548 3.04155C6.17798 2.99224 6.29839 2.89403 6.37533 2.76435C6.45227 2.63467 6.48075 2.48192 6.45573 2.33323C6.43071 2.18454 6.35381 2.04952 6.23866 1.95216C6.12352 1.85481 5.9776 1.80141 5.82682 1.80145H5.74103C5.70516 1.80145 5.67077 1.7872 5.6454 1.76184C5.62004 1.73648 5.60579 1.70208 5.60579 1.66621C5.60579 1.63035 5.62004 1.59595 5.6454 1.57058C5.67077 1.54522 5.70516 1.53097 5.74103 1.53097H5.86237C5.88401 1.53124 5.90529 1.5365 5.92454 1.54636C5.9438 1.55622 5.96052 1.5704 5.97339 1.5878C6.01237 1.64157 6.07113 1.67765 6.13672 1.68811C6.20231 1.69856 6.26937 1.68253 6.32314 1.64354C6.37691 1.60455 6.413 1.5458 6.42345 1.48021C6.4339 1.41462 6.41787 1.34756 6.37888 1.29379C6.29493 1.17705 6.17391 1.09219 6.03555 1.05305V1.02673C6.03592 0.99355 6.0297 0.960627 6.01726 0.929867C6.00482 0.899107 5.9864 0.87112 5.96307 0.847527C5.93974 0.823934 5.91196 0.805204 5.88134 0.79242C5.85073 0.779637 5.81787 0.773055 5.78469 0.773055C5.75151 0.773055 5.71866 0.779637 5.68804 0.79242C5.65742 0.805204 5.62965 0.823934 5.60631 0.847527C5.58298 0.87112 5.56457 0.899107 5.55213 0.929867C5.53969 0.960627 5.53347 0.99355 5.53384 1.02673V1.06372C5.39145 1.11293 5.27109 1.21098 5.19412 1.34048C5.11714 1.46999 5.08852 1.62257 5.11334 1.77116C5.13817 1.91976 5.21482 2.05476 5.3297 2.15221C5.44459 2.24967 5.59028 2.30328 5.74094 2.30353H5.82679C5.8627 2.30353 5.89714 2.3178 5.92253 2.34319C5.94792 2.36858 5.96218 2.40302 5.96218 2.43893C5.96218 2.47484 5.94792 2.50928 5.92253 2.53467C5.89714 2.56006 5.8627 2.57433 5.82679 2.57433H5.70542C5.68397 2.57405 5.66288 2.56874 5.64386 2.55882C5.62483 2.5489 5.60841 2.53465 5.59591 2.51722C5.55688 2.46325 5.49802 2.427 5.43226 2.41643C5.3665 2.40586 5.29924 2.42185 5.24527 2.46088C5.19131 2.4999 5.15505 2.55877 5.14449 2.62453C5.13392 2.69028 5.14991 2.75754 5.18893 2.81151C5.27369 2.92817 5.3952 3.01295 5.53394 3.05225V3.07826C5.53357 3.11144 5.53978 3.14436 5.55222 3.17512C5.56466 3.20588 5.58308 3.23387 5.60641 3.25746C5.62974 3.28105 5.65752 3.29978 5.68814 3.31257C5.71876 3.32535 5.75161 3.33193 5.78479 3.33193C5.81797 3.33193 5.85082 3.32535 5.88144 3.31257C5.91206 3.29978 5.93984 3.28105 5.96317 3.25746C5.9865 3.23387 6.00492 3.20588 6.01736 3.17512C6.0298 3.14436 6.03601 3.11144 6.03564 3.07826V3.04155H6.03548ZM15.9983 5.78678C15.9982 5.38065 15.8777 4.98368 15.6519 4.64606C15.4262 4.30844 15.1054 4.04535 14.7301 3.89005C14.3549 3.73475 13.942 3.69422 13.5437 3.77358C13.1454 3.85295 12.7795 4.04864 12.4925 4.33592C12.2054 4.62319 12.0099 4.98915 11.9308 5.3875C11.8517 5.78586 11.8925 6.19872 12.0481 6.57388C12.2036 6.94905 12.467 7.26966 12.8047 7.49517C13.1425 7.72068 13.5395 7.84097 13.9457 7.84082C13.9975 7.84082 14.0507 7.838 14.1026 7.83423C14.1041 7.88946 14.1041 7.94465 14.1041 7.99991C14.1072 9.36664 13.6488 10.6944 12.8032 11.7681L12.815 11.6319C12.8188 11.5985 12.8157 11.5647 12.8061 11.5325C12.7966 11.5002 12.7806 11.4703 12.7592 11.4443C12.7378 11.4184 12.7114 11.397 12.6816 11.3815C12.6518 11.3659 12.6192 11.3566 12.5856 11.3539C12.5521 11.3512 12.5184 11.3552 12.4865 11.3658C12.4546 11.3764 12.4251 11.3933 12.3999 11.4155C12.3746 11.4377 12.3541 11.4647 12.3395 11.495C12.3249 11.5253 12.3165 11.5582 12.3148 11.5918L12.2438 12.4756C12.2409 12.5102 12.2453 12.545 12.2566 12.5778C12.2679 12.6105 12.2858 12.6406 12.3093 12.6661C12.3329 12.6916 12.3614 12.7119 12.3932 12.7258C12.4249 12.7397 12.4592 12.7468 12.4939 12.7468C12.5003 12.7469 12.5067 12.7467 12.5131 12.7461L13.398 12.6752C13.4641 12.6695 13.5252 12.638 13.5681 12.5874C13.611 12.5368 13.6321 12.4712 13.6268 12.4051C13.6215 12.339 13.5903 12.2777 13.5399 12.2345C13.4896 12.1914 13.4242 12.1699 13.3581 12.1748L13.105 12.1952C14.0791 11.0144 14.6104 9.53058 14.6072 7.99988C14.6072 7.91108 14.6042 7.82165 14.6013 7.73254C15.0081 7.59466 15.3616 7.33289 15.6122 6.98394C15.8627 6.63499 15.9978 6.21636 15.9983 5.78678ZM13.9457 7.33874C13.6387 7.33894 13.3385 7.24809 13.0832 7.07768C12.8278 6.90727 12.6288 6.66495 12.5111 6.38139C12.3935 6.09782 12.3626 5.78574 12.4224 5.48463C12.4822 5.18351 12.6299 4.90688 12.8469 4.68974C13.0639 4.47259 13.3405 4.32468 13.6415 4.26472C13.9426 4.20475 14.2547 4.23543 14.5383 4.35286C14.822 4.4703 15.0644 4.66921 15.235 4.92446C15.4056 5.1797 15.4966 5.47979 15.4966 5.78678C15.4962 6.19809 15.3327 6.59246 15.042 6.8834C14.7512 7.17433 14.357 7.33808 13.9457 7.33874ZM7.99784 4.36821C7.27956 4.36822 6.57741 4.58123 5.98019 4.98029C5.38297 5.37936 4.91749 5.94656 4.64263 6.61017C4.36776 7.27378 4.29585 8.00399 4.43599 8.70847C4.57613 9.41294 4.92203 10.06 5.42993 10.5679C5.93784 11.0758 6.58495 11.4217 7.28943 11.5618C7.99391 11.702 8.72412 11.63 9.38773 11.3551C10.0513 11.0803 10.6185 10.6148 11.0176 10.0175C11.4166 9.42031 11.6296 8.71816 11.6296 7.99988C11.6285 7.03703 11.2455 6.11394 10.5646 5.43312C9.88378 4.75229 8.96068 4.36932 7.99784 4.36821ZM7.99784 6.06263C8.14316 6.06274 8.28519 6.10595 8.40597 6.18677C8.52675 6.2676 8.62085 6.38242 8.67638 6.51672C8.73191 6.65101 8.74638 6.79876 8.71795 6.94128C8.68952 7.0838 8.61948 7.21469 8.51667 7.31741C8.41387 7.42013 8.28292 7.49006 8.14037 7.51836C7.99783 7.54667 7.8501 7.53208 7.71585 7.47643C7.58159 7.42078 7.46685 7.32658 7.38613 7.20574C7.30541 7.08489 7.26233 6.94283 7.26233 6.7975C7.26233 6.70094 7.28136 6.60533 7.31833 6.51613C7.3553 6.42692 7.40949 6.34588 7.47779 6.27763C7.5461 6.20938 7.62719 6.15526 7.71642 6.11837C7.80565 6.08147 7.90128 6.06252 7.99784 6.06259V6.06263ZM6.44541 9.35638C6.50495 8.98753 6.69388 8.65193 6.97834 8.40971C7.26281 8.16748 7.62423 8.03445 7.99785 8.03445C8.37148 8.03445 8.7329 8.16748 9.01736 8.40971C9.30183 8.65193 9.49075 8.98753 9.5503 9.35638H6.44541ZM12.744 3.48395L12.6729 2.59971C12.6712 2.56617 12.6628 2.53331 12.6482 2.50308C12.6336 2.47285 12.613 2.44587 12.5878 2.42372C12.5625 2.40158 12.5331 2.38472 12.5012 2.37416C12.4693 2.36359 12.4357 2.35953 12.4022 2.36222C12.3687 2.3649 12.3361 2.37427 12.3063 2.38978C12.2765 2.40529 12.2502 2.42662 12.2288 2.4525C12.2074 2.47839 12.1914 2.5083 12.1818 2.54048C12.1721 2.57265 12.1691 2.60643 12.1727 2.63981L12.1934 2.89306C11.0125 1.91905 9.52863 1.38771 7.99784 1.39068C7.90907 1.39068 7.81879 1.39256 7.72999 1.39599C7.56493 0.907455 7.22208 0.498922 6.76961 0.251591C6.31713 0.00426038 5.78815 -0.0637571 5.28782 0.0610588C4.78749 0.185875 4.35245 0.494384 4.06916 0.925264C3.78588 1.35614 3.67509 1.87784 3.75883 2.38666C3.84258 2.89548 4.11471 3.35416 4.52114 3.67152C4.92757 3.98889 5.43854 4.14171 5.95248 4.09959C6.46642 4.05748 6.9457 3.82353 7.29505 3.44423C7.6444 3.06494 7.83823 2.56808 7.83803 2.05241C7.83803 1.99942 7.83505 1.94702 7.8321 1.89493C7.88685 1.89367 7.94308 1.89273 7.99784 1.89273C9.36439 1.89004 10.6919 2.34843 11.7656 3.19376L11.6295 3.18275C11.5966 3.18012 11.5636 3.184 11.5322 3.19415C11.5008 3.2043 11.4718 3.22053 11.4467 3.24191C11.4216 3.26329 11.4009 3.2894 11.3859 3.31876C11.3709 3.34811 11.3619 3.38014 11.3592 3.413C11.3566 3.44586 11.3605 3.47892 11.3706 3.51028C11.3808 3.54165 11.397 3.57071 11.4184 3.5958C11.4398 3.62089 11.4659 3.64153 11.4953 3.65653C11.5246 3.67153 11.5566 3.6806 11.5895 3.68323L12.473 3.75417C12.4804 3.75474 12.4863 3.75508 12.4937 3.75508C12.5284 3.75506 12.5627 3.74787 12.5944 3.73396C12.6261 3.72005 12.6546 3.69972 12.6781 3.67425C12.7016 3.64878 12.7196 3.61872 12.7309 3.58597C12.7422 3.55322 12.7466 3.51848 12.7438 3.48395H12.744ZM5.78389 3.60444C5.47696 3.60435 5.17694 3.51325 4.92177 3.34266C4.6666 3.17207 4.46775 2.92965 4.35035 2.64606C4.23295 2.36246 4.20228 2.05042 4.26222 1.74939C4.32216 1.44836 4.47001 1.17186 4.68708 0.954856C4.90415 0.737852 5.18069 0.590085 5.48174 0.53024C5.78278 0.470396 6.09481 0.50116 6.37838 0.618644C6.66194 0.736129 6.9043 0.935056 7.07481 1.19027C7.24532 1.44549 7.33633 1.74554 7.33632 2.05248C7.33599 2.46406 7.17231 2.85869 6.88123 3.14968C6.59015 3.44067 6.19548 3.60423 5.78389 3.60444Z" fill="white"/>
</svg>
