<svg width="38" height="37" viewBox="0 0 38 37" fill="none" xmlns="http://www.w3.org/2000/svg">
<g id="Search Icon">
<rect x="0.882812" width="37" height="37" rx="7" fill="#1B1D21"/>
<path id="Vector" d="M16.9139 10.0916C14.112 10.6834 11.9573 12.6799 11.1049 15.4656C10.9076 16.1127 10.884 16.2863 10.884 17.4779C10.8761 18.5195 10.9076 18.8904 11.026 19.3323C12.1547 23.499 16.2588 25.9295 20.3472 24.8405C20.9628 24.6748 22.1941 24.1066 22.6913 23.7436L23.0859 23.4595L23.9671 24.3246C25.6403 25.9897 25.7035 26.037 26.177 25.9897C26.6032 25.9502 26.9505 25.453 26.8716 25.0032C26.84 24.8296 26.398 24.3325 25.1746 23.1014L24.3172 22.2285L24.6013 21.8339C25.5958 20.4608 26.1088 18.4327 25.9115 16.7124C25.5642 13.6269 23.4095 11.0938 20.3788 10.2099C19.629 9.99686 17.7032 9.92584 16.9139 10.0916ZM19.5816 11.7645C20.7971 12.0171 21.8468 12.6089 22.6913 13.5243C23.3227 14.2108 23.6542 14.7711 23.962 15.6392C24.2935 16.6019 24.3488 17.9198 24.1041 18.8983C23.8279 20.0347 23.3859 20.7922 22.5177 21.6603C21.9099 22.2758 21.6416 22.481 21.097 22.7493C19.5027 23.5384 17.6874 23.6173 16.1168 22.9624C13.8358 21.9996 12.3678 19.6559 12.5177 17.2017C12.7466 13.5795 16.0536 11.0385 19.5816 11.7645Z" fill="white"/>
</g>
</svg>
