<svg width="18" height="18" viewBox="0 0 18 18" fill="none" xmlns="http://www.w3.org/2000/svg">
<path d="M6.78499 0.103006C3.63287 0.768839 1.20885 3.01492 0.2499 6.14877C0.0279205 6.87674 0.00128289 7.07205 0.00128289 8.4126C-0.0075963 9.58446 0.0279205 10.0017 0.161108 10.4989C1.43083 15.1863 6.04802 17.9207 10.6474 16.6956C11.34 16.5091 12.7252 15.8699 13.2846 15.4615L13.7285 15.1419L14.7198 16.1152C16.6022 17.9884 16.6732 18.0416 17.206 17.9884C17.6854 17.944 18.0761 17.3847 17.9873 16.8786C17.9518 16.6833 17.4546 16.124 16.0783 14.7391L15.1137 13.757L15.4333 13.3131C16.5521 11.7684 17.1293 9.48681 16.9073 7.55146C16.5166 4.08025 14.0926 1.23048 10.683 0.236172C9.83943 -0.00352669 7.67291 -0.0834274 6.78499 0.103006ZM9.78616 1.98509C11.1536 2.26918 12.3345 2.93501 13.2846 3.96484C13.9949 4.7372 14.3678 5.36752 14.7141 6.34408C15.087 7.42717 15.1492 8.90975 14.8739 10.0106C14.5632 11.289 14.0659 12.1413 13.0892 13.1178C12.4055 13.8103 12.1036 14.0411 11.491 14.3429C9.69737 15.2307 7.65515 15.3195 5.88819 14.5826C3.3221 13.4996 1.67057 10.8629 1.83928 8.10188C2.09677 4.02698 5.81716 1.16834 9.78616 1.98509Z" fill="white"/>
</svg>
