<svg width="15" height="16" viewBox="0 0 15 16" fill="none" xmlns="http://www.w3.org/2000/svg">
<path d="M13.3794 11.8378L10.6548 11.1968C10.653 11.1514 10.6394 11.1067 10.6134 11.0677L10.2504 10.5232C10.1669 10.398 10.0334 10.3154 9.88412 10.2967C9.874 10.2954 9.86391 10.2952 9.85381 10.2946V9.79547L9.94994 9.72334C10.3238 9.44297 10.5732 9.03787 10.6584 8.58606C10.7714 8.46631 10.8548 8.34716 10.9164 8.23781L10.9237 8.23794C10.9291 8.23803 10.9345 8.23809 10.9398 8.23809C11.1464 8.23809 11.3408 8.15875 11.4888 8.01366C11.6407 7.86481 11.7243 7.66572 11.7243 7.45312V6.39669C11.7243 6.18656 11.6423 5.98909 11.4935 5.84075C11.4121 5.75959 11.3159 5.69953 11.2112 5.66103L11.4559 3.21494C11.4567 3.20662 11.4572 3.19831 11.4572 3.19V2.92278C11.4571 1.31112 10.146 0 8.53438 0H5.86216C4.25053 0 2.93941 1.31113 2.93941 2.92275V3.18997C2.93941 3.19828 2.93981 3.20659 2.94066 3.21487L3.18516 5.66C3.08047 5.69859 2.98438 5.75953 2.90297 5.84072C2.75416 5.98906 2.67219 6.1865 2.67219 6.39666V7.45309C2.67219 7.66572 2.75578 7.86478 2.90766 8.01363C3.05566 8.15872 3.25006 8.23806 3.45659 8.23806C3.46194 8.23806 3.46731 8.23803 3.47266 8.23791L3.70284 8.23347L3.707 8.32444C3.73225 8.87987 4.00184 9.38972 4.44666 9.72331L4.54278 9.79544V10.2945C4.53266 10.2952 4.52256 10.2954 4.51241 10.2966C4.36312 10.3154 4.22966 10.398 4.14622 10.5231L3.78319 11.0677C3.75719 11.1067 3.74353 11.1514 3.74175 11.1967L1.01722 11.8378C0.418313 11.9787 0 12.5069 0 13.1222V15.215C0 15.6479 0.352125 16 0.784969 16H13.6117C14.0445 16 14.3967 15.6479 14.3967 15.215V13.1222C14.3966 12.5069 13.9783 11.9787 13.3794 11.8378ZM10.1192 11.2297L9.02931 13.6276C9.01347 13.6624 8.98409 13.6739 8.96794 13.6776C8.95091 13.6815 8.91759 13.6842 8.88581 13.658C8.3685 13.2315 7.91184 12.9344 7.62512 12.7629L9.80837 10.7979C9.80994 10.7965 9.81403 10.7928 9.82162 10.7937C9.82922 10.7947 9.83228 10.7993 9.83344 10.8011L10.1192 11.2297ZM11.2232 6.39669V7.45309H11.2233C11.2233 7.53003 11.1931 7.602 11.1381 7.65584C11.0832 7.70969 11.0108 7.73837 10.9336 7.73697L10.7164 7.73275L10.7503 6.98744L10.7901 6.11316L10.9384 6.11275H10.9393C11.015 6.11275 11.0862 6.14216 11.1397 6.19559C11.1936 6.24925 11.2232 6.32066 11.2232 6.39669ZM3.46281 7.73694C3.38553 7.73853 3.31331 7.70966 3.25837 7.65581C3.20344 7.60197 3.17319 7.52997 3.17319 7.45306V6.39666C3.17319 6.32066 3.20284 6.24925 3.25666 6.19556C3.31028 6.14209 3.38141 6.11272 3.45725 6.11272H3.45819L3.60644 6.11312L3.62678 6.56053L3.68006 7.73278L3.46281 7.73694ZM3.68384 5.61169L3.44044 3.17747V2.92275C3.44044 1.58741 4.52681 0.501031 5.86216 0.501031H8.53438C9.86972 0.501031 10.9561 1.58741 10.9561 2.92275V3.17747L10.7127 5.61169H10.6059L10.1151 3.40284C10.0978 3.32516 10.0447 3.26028 9.97188 3.22809C9.89909 3.19591 9.81531 3.20019 9.74625 3.23969C7.95584 4.26275 4.56016 4.27556 4.52603 4.27556C4.42362 4.27559 4.3315 4.33797 4.29347 4.43306L3.822 5.61169H3.68384ZM4.20744 8.30163L4.19225 7.9675C4.19225 7.96731 4.19225 7.96709 4.19225 7.96688L4.12684 6.52884L4.10447 6.03659C4.18016 5.98638 4.24078 5.91359 4.27631 5.82475L4.69637 4.77456C5.38975 4.76056 7.98706 4.65303 9.69678 3.83078L10.1241 5.754C10.1484 5.86325 10.2096 5.95522 10.2927 6.01881L10.2478 7.00619L10.2041 7.96688C10.2041 7.96697 10.2041 7.96713 10.2041 7.96722L10.1889 8.30166C10.1882 8.31719 10.1868 8.33259 10.1855 8.34806C9.85531 8.63634 9.26344 8.91181 8.20478 8.96484C8.10966 8.723 7.87428 8.55116 7.59906 8.55116H7.33184C6.97269 8.55116 6.6805 8.84338 6.6805 9.2025C6.6805 9.56166 6.97272 9.85384 7.33184 9.85384H7.59906C7.86391 9.85384 8.09194 9.69472 8.19362 9.46725C8.91159 9.43447 9.45184 9.30381 9.85822 9.128C9.79616 9.19916 9.72644 9.26453 9.64925 9.32244L8.54434 10.1511C8.31172 10.3256 8.02347 10.4217 7.73266 10.4217H6.66375C6.37294 10.4217 6.08469 10.3256 5.85206 10.1511L4.74716 9.32244C4.42259 9.07906 4.22591 8.70694 4.20744 8.30163ZM7.74941 9.2025C7.74941 9.28538 7.68197 9.35281 7.59909 9.35281H7.33187C7.249 9.35281 7.18156 9.28538 7.18156 9.2025C7.18156 9.11963 7.249 9.05219 7.33187 9.05219H7.59909C7.68197 9.05219 7.74941 9.11963 7.74941 9.2025ZM4.56306 10.8011C4.56422 10.7993 4.56728 10.7947 4.57484 10.7937C4.58228 10.7928 4.58653 10.7965 4.58809 10.7979L6.77134 12.7629C6.48462 12.9344 6.02797 13.2315 5.51066 13.658C5.47887 13.6842 5.44559 13.6816 5.42847 13.6776C5.41237 13.6739 5.38297 13.6624 5.36716 13.6276L4.27725 11.2297L4.56306 10.8011ZM2.40494 15.499H0.784875C0.628312 15.499 0.500938 15.3716 0.500938 15.215V13.1222C0.500938 13.0304 0.516281 12.942 0.544187 12.8591L2.04475 14.2016C2.27362 14.4071 2.40491 14.7015 2.40491 15.0092L2.40494 15.499ZM6.94772 15.499H2.90597V15.0092C2.90597 14.5596 2.71413 14.1293 2.37925 13.8285L0.844656 12.4556C0.929094 12.3957 1.02569 12.3505 1.13194 12.3256L3.92616 11.6681L4.91109 13.835C4.98766 14.0035 5.13512 14.124 5.31562 14.1658C5.36081 14.1762 5.40631 14.1814 5.45141 14.1814C5.58803 14.1814 5.72084 14.1342 5.82944 14.0446C6.27431 13.6779 6.67531 13.4102 6.94775 13.2427L6.94772 15.499ZM5.04375 10.5339V10.1712L5.55147 10.552C5.87028 10.7911 6.26528 10.9228 6.66378 10.9228H7.73269C8.13119 10.9228 8.52622 10.7911 8.845 10.552L9.35272 10.1712V10.5339L7.19825 12.473L5.04375 10.5339ZM11.4905 15.0092V15.4989H7.44878V13.2426C7.72125 13.4102 8.12225 13.6778 8.56706 14.0446C8.67566 14.1342 8.8085 14.1813 8.94509 14.1813C8.99019 14.1813 9.03569 14.1762 9.08087 14.1657C9.26137 14.124 9.40884 14.0034 9.48541 13.8349L10.4703 11.6681L13.2646 12.3255C13.3708 12.3505 13.4674 12.3957 13.5518 12.4556L12.0168 13.8288C11.6824 14.1293 11.4905 14.5595 11.4905 15.0092ZM13.8955 15.215C13.8955 15.3716 13.7682 15.499 13.6116 15.499H11.9916V15.0092C11.9916 14.7015 12.1228 14.4072 12.3513 14.2019L13.8523 12.8591C13.8802 12.942 13.8955 13.0304 13.8955 13.1222V15.215Z" fill="white"/>
</svg>
