<svg width="15" height="16" viewBox="0 0 15 16" fill="none" xmlns="http://www.w3.org/2000/svg">
<path d="M7.96238 0.675121C7.804 0.833493 7.79227 0.880418 7.79227 1.25582V1.66641L7.57524 1.74267C7.22917 1.85411 6.90656 2.02422 6.63088 2.24711L6.37866 2.45241L6.03845 2.27057C5.84488 2.17086 5.63372 2.08874 5.5692 2.08874C5.36977 2.08874 5.12341 2.24124 5.04716 2.41135C4.88292 2.76329 5.00023 3.01551 5.45189 3.28533C5.72171 3.44956 5.76276 3.49649 5.7393 3.61967C5.72171 3.69592 5.70997 4.01267 5.70997 4.31768C5.70997 4.62269 5.72171 4.93943 5.7393 5.01569C5.76276 5.13887 5.72171 5.18579 5.45189 5.35003C5.00023 5.61985 4.88292 5.87207 5.04716 6.22401C5.12341 6.39411 5.36977 6.54662 5.5692 6.54662C5.63372 6.54662 5.84488 6.4645 6.03845 6.36478L6.37866 6.18295L6.63088 6.38825C6.90656 6.61114 7.22917 6.78124 7.57524 6.89269L7.79227 6.96894V7.37954C7.79227 7.75494 7.804 7.80186 7.96238 7.96023C8.197 8.18899 8.48442 8.19486 8.73664 7.9661C8.90088 7.81946 8.92434 7.7608 8.95367 7.37367C8.97713 7.05106 9.00646 6.93962 9.07685 6.92202C9.3408 6.8399 9.91563 6.53489 10.0975 6.37065L10.3086 6.18881L10.6254 6.37065C10.7955 6.4645 11.0008 6.54662 11.0712 6.54662C11.382 6.54662 11.6636 6.26507 11.6636 5.95419C11.6636 5.73129 11.4935 5.51427 11.2061 5.35589L10.9128 5.19752L10.9714 4.97463C11.0536 4.69308 11.0536 3.94228 10.9714 3.66073L10.9128 3.43783L11.2061 3.27946C11.4935 3.12109 11.6636 2.90406 11.6636 2.68117C11.6636 2.37029 11.382 2.08874 11.0712 2.08874C11.0008 2.08874 10.7955 2.17086 10.6254 2.26471L10.3086 2.44654L10.0975 2.26471C9.91563 2.10047 9.3408 1.79546 9.07685 1.71334C9.00646 1.69574 8.97713 1.58429 8.95367 1.26168C8.92434 0.874553 8.90088 0.815897 8.73664 0.669256C8.48442 0.440496 8.197 0.446362 7.96238 0.675121ZM8.85395 2.8806C9.44638 3.0859 9.86284 3.67832 9.86284 4.31768C9.86284 4.74 9.63995 5.23272 9.32907 5.4908C8.54894 6.13602 7.33475 5.82515 6.93589 4.87491C6.84204 4.64029 6.82444 4.04786 6.91829 3.80737C7.20571 3.0331 8.07382 2.61664 8.85395 2.8806Z" fill="white"/>
<path d="M1.27469 7.87345C0.600145 7.99076 0.183685 8.16673 0.0781037 8.36616C-0.0919996 8.69464 0.025313 9.05831 0.347923 9.18735C0.506295 9.25774 0.594279 9.25187 1.04007 9.13456C1.31575 9.05831 1.73808 8.98792 1.96684 8.97032C2.50647 8.92926 2.82322 9.03485 3.90249 9.63314C5.65045 10.6068 6.88224 10.9118 8.43076 10.7652C9.14637 10.7007 9.39272 10.7535 9.52177 11.0057C9.63322 11.2227 9.63322 11.4163 9.5159 11.5805C9.21676 12.0087 7.98497 12.1788 6.73559 11.9677C6.43058 11.9149 6.11384 11.8738 6.03172 11.8797C5.52727 11.9031 5.33371 12.6305 5.75603 12.912C5.97893 13.0528 6.63588 13.176 7.43947 13.2112C8.988 13.2874 10.7184 12.959 12.8828 12.173C13.3931 11.9853 13.4341 11.9794 13.5867 12.0615C13.8037 12.1847 13.8858 12.431 13.7744 12.6363C13.657 12.8475 12.4487 13.4458 11.5161 13.7567C8.53634 14.7421 5.87921 14.5133 2.74697 12.9941C1.76741 12.519 1.28056 12.3548 0.823039 12.3548C0.289266 12.3548 -0.0568058 12.6422 0.0077161 13.0411C0.0663724 13.3989 0.213013 13.4927 0.781979 13.5338C1.23363 13.569 1.33921 13.6042 1.93164 13.9092C3.31593 14.6131 4.68849 15.094 6.09037 15.358C7.06994 15.5457 8.90588 15.5457 9.98515 15.3521C11.2932 15.1234 12.2845 14.7949 13.5221 14.1907C14.1146 13.8975 14.355 13.7508 14.5545 13.5338C15.1821 12.8651 15.141 11.8797 14.4665 11.2755C14.1556 10.994 13.7509 10.8297 13.3696 10.8297C13.2523 10.8297 12.8534 10.9412 12.4839 11.0702C12.1144 11.2051 11.5806 11.3811 11.3049 11.4749L10.7946 11.6333L10.7711 11.2169C10.7242 10.5364 10.3899 10.0203 9.80332 9.73872C9.45138 9.56275 9.45138 9.56275 7.82074 9.59208C6.52443 9.61554 6.19009 9.50996 3.92009 8.33097C3.48604 8.10808 2.98746 7.89105 2.81735 7.84999C2.41849 7.762 1.84366 7.76787 1.27469 7.87345Z" fill="white"/>
</svg>
