<svg width="49" height="49" viewBox="0 0 49 49" fill="none" xmlns="http://www.w3.org/2000/svg">
<g filter="url(#filter0_b_2817_7944)">
<rect width="49" height="49" rx="15" fill="white" fill-opacity="0.03"/>
<rect x="0.5" y="0.5" width="48" height="48" rx="14.5" stroke="#D1D9E2" stroke-opacity="0.3"/>
<mask id="path-3-outside-1_2817_7944" maskUnits="userSpaceOnUse" x="16" y="15" width="16" height="18" fill="black">
<rect fill="white" x="16" y="15" width="16" height="18"/>
<path d="M30.3794 27.8378L27.6548 27.1968C27.653 27.1514 27.6394 27.1067 27.6134 27.0677L27.2504 26.5232C27.1669 26.398 27.0334 26.3154 26.8841 26.2967C26.874 26.2954 26.8639 26.2952 26.8538 26.2946V25.7955L26.9499 25.7233C27.3238 25.443 27.5732 25.0379 27.6584 24.5861C27.7714 24.4663 27.8548 24.3472 27.9164 24.2378L27.9237 24.2379C27.9291 24.238 27.9345 24.2381 27.9398 24.2381C28.1464 24.2381 28.3408 24.1588 28.4888 24.0137C28.6407 23.8648 28.7243 23.6657 28.7243 23.4531V22.3967C28.7243 22.1866 28.6423 21.9891 28.4935 21.8408C28.4121 21.7596 28.3159 21.6995 28.2112 21.661L28.4559 19.2149C28.4567 19.2066 28.4572 19.1983 28.4572 19.19V18.9228C28.4571 17.3111 27.146 16 25.5344 16H22.8622C21.2505 16 19.9394 17.3111 19.9394 18.9227V19.19C19.9394 19.1983 19.9398 19.2066 19.9407 19.2149L20.1852 21.66C20.0805 21.6986 19.9844 21.7595 19.903 21.8407C19.7542 21.9891 19.6722 22.1865 19.6722 22.3967V23.4531C19.6722 23.6657 19.7558 23.8648 19.9077 24.0136C20.0557 24.1587 20.2501 24.2381 20.4566 24.2381C20.4619 24.2381 20.4673 24.238 20.4727 24.2379L20.7028 24.2335L20.707 24.3244C20.7322 24.8799 21.0018 25.3897 21.4467 25.7233L21.5428 25.7954V26.2945C21.5327 26.2952 21.5226 26.2954 21.5124 26.2966C21.3631 26.3154 21.2297 26.398 21.1462 26.5231L20.7832 27.0677C20.7572 27.1067 20.7435 27.1514 20.7418 27.1967L18.0172 27.8378C17.4183 27.9787 17 28.5069 17 29.1222V31.215C17 31.6479 17.3521 32 17.785 32H30.6117C31.0445 32 31.3967 31.6479 31.3967 31.215V29.1222C31.3966 28.5069 30.9783 27.9787 30.3794 27.8378ZM27.1192 27.2297L26.0293 29.6276C26.0135 29.6624 25.9841 29.6739 25.9679 29.6776C25.9509 29.6815 25.9176 29.6842 25.8858 29.658C25.3685 29.2315 24.9118 28.9344 24.6251 28.7629L26.8084 26.7979C26.8099 26.7965 26.814 26.7928 26.8216 26.7937C26.8292 26.7947 26.8323 26.7993 26.8334 26.8011L27.1192 27.2297ZM28.2232 22.3967V23.4531H28.2233C28.2233 23.53 28.1931 23.602 28.1381 23.6558C28.0832 23.7097 28.0108 23.7384 27.9336 23.737L27.7164 23.7327L27.7503 22.9874L27.7901 22.1132L27.9384 22.1128H27.9393C28.015 22.1128 28.0862 22.1422 28.1397 22.1956C28.1936 22.2492 28.2232 22.3207 28.2232 22.3967ZM20.4628 23.7369C20.3855 23.7385 20.3133 23.7097 20.2584 23.6558C20.2034 23.602 20.1732 23.53 20.1732 23.4531V22.3967C20.1732 22.3207 20.2028 22.2492 20.2567 22.1956C20.3103 22.1421 20.3814 22.1127 20.4572 22.1127H20.4582L20.6064 22.1131L20.6268 22.5605L20.6801 23.7328L20.4628 23.7369ZM20.6838 21.6117L20.4404 19.1775V18.9227C20.4404 17.5874 21.5268 16.501 22.8622 16.501H25.5344C26.8697 16.501 27.9561 17.5874 27.9561 18.9227V19.1775L27.7127 21.6117H27.6059L27.1151 19.4028C27.0978 19.3252 27.0447 19.2603 26.9719 19.2281C26.8991 19.1959 26.8153 19.2002 26.7463 19.2397C24.9558 20.2627 21.5602 20.2756 21.526 20.2756C21.4236 20.2756 21.3315 20.338 21.2935 20.4331L20.822 21.6117H20.6838ZM21.2074 24.3016L21.1922 23.9675C21.1922 23.9673 21.1922 23.9671 21.1922 23.9669L21.1268 22.5288L21.1045 22.0366C21.1802 21.9864 21.2408 21.9136 21.2763 21.8247L21.6964 20.7746C22.3898 20.7606 24.9871 20.653 26.6968 19.8308L27.1241 21.754C27.1484 21.8633 27.2096 21.9552 27.2927 22.0188L27.2478 23.0062L27.2041 23.9669C27.2041 23.967 27.2041 23.9671 27.2041 23.9672L27.1889 24.3017C27.1882 24.3172 27.1868 24.3326 27.1855 24.3481C26.8553 24.6363 26.2634 24.9118 25.2048 24.9648C25.1097 24.723 24.8743 24.5512 24.5991 24.5512H24.3318C23.9727 24.5512 23.6805 24.8434 23.6805 25.2025C23.6805 25.5617 23.9727 25.8538 24.3318 25.8538H24.5991C24.8639 25.8538 25.0919 25.6947 25.1936 25.4672C25.9116 25.4345 26.4518 25.3038 26.8582 25.128C26.7962 25.1992 26.7264 25.2645 26.6493 25.3224L25.5443 26.1511C25.3117 26.3256 25.0235 26.4217 24.7327 26.4217H23.6637C23.3729 26.4217 23.0847 26.3256 22.8521 26.1511L21.7472 25.3224C21.4226 25.0791 21.2259 24.7069 21.2074 24.3016ZM24.7494 25.2025C24.7494 25.2854 24.682 25.3528 24.5991 25.3528H24.3319C24.249 25.3528 24.1816 25.2854 24.1816 25.2025C24.1816 25.1196 24.249 25.0522 24.3319 25.0522H24.5991C24.682 25.0522 24.7494 25.1196 24.7494 25.2025ZM21.5631 26.8011C21.5642 26.7993 21.5673 26.7947 21.5748 26.7937C21.5823 26.7928 21.5865 26.7965 21.5881 26.7979L23.7713 28.7629C23.4846 28.9344 23.028 29.2315 22.5107 29.658C22.4789 29.6842 22.4456 29.6816 22.4285 29.6776C22.4124 29.6739 22.383 29.6624 22.3672 29.6276L21.2772 27.2297L21.5631 26.8011ZM19.4049 31.499H17.7849C17.6283 31.499 17.5009 31.3716 17.5009 31.215V29.1222C17.5009 29.0304 17.5163 28.942 17.5442 28.8591L19.0447 30.2016C19.2736 30.4071 19.4049 30.7015 19.4049 31.0092L19.4049 31.499ZM23.9477 31.499H19.906V31.0092C19.906 30.5596 19.7141 30.1293 19.3793 29.8285L17.8447 28.4556C17.9291 28.3957 18.0257 28.3505 18.1319 28.3256L20.9262 27.6681L21.9111 29.835C21.9877 30.0035 22.1351 30.124 22.3156 30.1658C22.3608 30.1762 22.4063 30.1814 22.4514 30.1814C22.588 30.1814 22.7208 30.1342 22.8294 30.0446C23.2743 29.6779 23.6753 29.4102 23.9477 29.2427L23.9477 31.499ZM22.0437 26.5339V26.1712L22.5515 26.552C22.8703 26.7911 23.2653 26.9228 23.6638 26.9228H24.7327C25.1312 26.9228 25.5262 26.7911 25.845 26.552L26.3527 26.1712V26.5339L24.1982 28.473L22.0437 26.5339ZM28.4905 31.0092V31.4989H24.4488V29.2426C24.7212 29.4102 25.1222 29.6778 25.5671 30.0446C25.6757 30.1342 25.8085 30.1813 25.9451 30.1813C25.9902 30.1813 26.0357 30.1762 26.0809 30.1657C26.2614 30.124 26.4088 30.0034 26.4854 29.8349L27.4703 27.6681L30.2646 28.3255C30.3708 28.3505 30.4674 28.3957 30.5518 28.4556L29.0168 29.8288C28.6824 30.1293 28.4905 30.5595 28.4905 31.0092ZM30.8955 31.215C30.8955 31.3716 30.7682 31.499 30.6116 31.499H28.9916V31.0092C28.9916 30.7015 29.1228 30.4072 29.3513 30.2019L30.8523 28.8591C30.8802 28.942 30.8955 29.0304 30.8955 29.1222V31.215Z"/>
</mask>
<path d="M30.3794 27.8378L27.6548 27.1968C27.653 27.1514 27.6394 27.1067 27.6134 27.0677L27.2504 26.5232C27.1669 26.398 27.0334 26.3154 26.8841 26.2967C26.874 26.2954 26.8639 26.2952 26.8538 26.2946V25.7955L26.9499 25.7233C27.3238 25.443 27.5732 25.0379 27.6584 24.5861C27.7714 24.4663 27.8548 24.3472 27.9164 24.2378L27.9237 24.2379C27.9291 24.238 27.9345 24.2381 27.9398 24.2381C28.1464 24.2381 28.3408 24.1588 28.4888 24.0137C28.6407 23.8648 28.7243 23.6657 28.7243 23.4531V22.3967C28.7243 22.1866 28.6423 21.9891 28.4935 21.8408C28.4121 21.7596 28.3159 21.6995 28.2112 21.661L28.4559 19.2149C28.4567 19.2066 28.4572 19.1983 28.4572 19.19V18.9228C28.4571 17.3111 27.146 16 25.5344 16H22.8622C21.2505 16 19.9394 17.3111 19.9394 18.9227V19.19C19.9394 19.1983 19.9398 19.2066 19.9407 19.2149L20.1852 21.66C20.0805 21.6986 19.9844 21.7595 19.903 21.8407C19.7542 21.9891 19.6722 22.1865 19.6722 22.3967V23.4531C19.6722 23.6657 19.7558 23.8648 19.9077 24.0136C20.0557 24.1587 20.2501 24.2381 20.4566 24.2381C20.4619 24.2381 20.4673 24.238 20.4727 24.2379L20.7028 24.2335L20.707 24.3244C20.7322 24.8799 21.0018 25.3897 21.4467 25.7233L21.5428 25.7954V26.2945C21.5327 26.2952 21.5226 26.2954 21.5124 26.2966C21.3631 26.3154 21.2297 26.398 21.1462 26.5231L20.7832 27.0677C20.7572 27.1067 20.7435 27.1514 20.7418 27.1967L18.0172 27.8378C17.4183 27.9787 17 28.5069 17 29.1222V31.215C17 31.6479 17.3521 32 17.785 32H30.6117C31.0445 32 31.3967 31.6479 31.3967 31.215V29.1222C31.3966 28.5069 30.9783 27.9787 30.3794 27.8378ZM27.1192 27.2297L26.0293 29.6276C26.0135 29.6624 25.9841 29.6739 25.9679 29.6776C25.9509 29.6815 25.9176 29.6842 25.8858 29.658C25.3685 29.2315 24.9118 28.9344 24.6251 28.7629L26.8084 26.7979C26.8099 26.7965 26.814 26.7928 26.8216 26.7937C26.8292 26.7947 26.8323 26.7993 26.8334 26.8011L27.1192 27.2297ZM28.2232 22.3967V23.4531H28.2233C28.2233 23.53 28.1931 23.602 28.1381 23.6558C28.0832 23.7097 28.0108 23.7384 27.9336 23.737L27.7164 23.7327L27.7503 22.9874L27.7901 22.1132L27.9384 22.1128H27.9393C28.015 22.1128 28.0862 22.1422 28.1397 22.1956C28.1936 22.2492 28.2232 22.3207 28.2232 22.3967ZM20.4628 23.7369C20.3855 23.7385 20.3133 23.7097 20.2584 23.6558C20.2034 23.602 20.1732 23.53 20.1732 23.4531V22.3967C20.1732 22.3207 20.2028 22.2492 20.2567 22.1956C20.3103 22.1421 20.3814 22.1127 20.4572 22.1127H20.4582L20.6064 22.1131L20.6268 22.5605L20.6801 23.7328L20.4628 23.7369ZM20.6838 21.6117L20.4404 19.1775V18.9227C20.4404 17.5874 21.5268 16.501 22.8622 16.501H25.5344C26.8697 16.501 27.9561 17.5874 27.9561 18.9227V19.1775L27.7127 21.6117H27.6059L27.1151 19.4028C27.0978 19.3252 27.0447 19.2603 26.9719 19.2281C26.8991 19.1959 26.8153 19.2002 26.7463 19.2397C24.9558 20.2627 21.5602 20.2756 21.526 20.2756C21.4236 20.2756 21.3315 20.338 21.2935 20.4331L20.822 21.6117H20.6838ZM21.2074 24.3016L21.1922 23.9675C21.1922 23.9673 21.1922 23.9671 21.1922 23.9669L21.1268 22.5288L21.1045 22.0366C21.1802 21.9864 21.2408 21.9136 21.2763 21.8247L21.6964 20.7746C22.3898 20.7606 24.9871 20.653 26.6968 19.8308L27.1241 21.754C27.1484 21.8633 27.2096 21.9552 27.2927 22.0188L27.2478 23.0062L27.2041 23.9669C27.2041 23.967 27.2041 23.9671 27.2041 23.9672L27.1889 24.3017C27.1882 24.3172 27.1868 24.3326 27.1855 24.3481C26.8553 24.6363 26.2634 24.9118 25.2048 24.9648C25.1097 24.723 24.8743 24.5512 24.5991 24.5512H24.3318C23.9727 24.5512 23.6805 24.8434 23.6805 25.2025C23.6805 25.5617 23.9727 25.8538 24.3318 25.8538H24.5991C24.8639 25.8538 25.0919 25.6947 25.1936 25.4672C25.9116 25.4345 26.4518 25.3038 26.8582 25.128C26.7962 25.1992 26.7264 25.2645 26.6493 25.3224L25.5443 26.1511C25.3117 26.3256 25.0235 26.4217 24.7327 26.4217H23.6637C23.3729 26.4217 23.0847 26.3256 22.8521 26.1511L21.7472 25.3224C21.4226 25.0791 21.2259 24.7069 21.2074 24.3016ZM24.7494 25.2025C24.7494 25.2854 24.682 25.3528 24.5991 25.3528H24.3319C24.249 25.3528 24.1816 25.2854 24.1816 25.2025C24.1816 25.1196 24.249 25.0522 24.3319 25.0522H24.5991C24.682 25.0522 24.7494 25.1196 24.7494 25.2025ZM21.5631 26.8011C21.5642 26.7993 21.5673 26.7947 21.5748 26.7937C21.5823 26.7928 21.5865 26.7965 21.5881 26.7979L23.7713 28.7629C23.4846 28.9344 23.028 29.2315 22.5107 29.658C22.4789 29.6842 22.4456 29.6816 22.4285 29.6776C22.4124 29.6739 22.383 29.6624 22.3672 29.6276L21.2772 27.2297L21.5631 26.8011ZM19.4049 31.499H17.7849C17.6283 31.499 17.5009 31.3716 17.5009 31.215V29.1222C17.5009 29.0304 17.5163 28.942 17.5442 28.8591L19.0447 30.2016C19.2736 30.4071 19.4049 30.7015 19.4049 31.0092L19.4049 31.499ZM23.9477 31.499H19.906V31.0092C19.906 30.5596 19.7141 30.1293 19.3793 29.8285L17.8447 28.4556C17.9291 28.3957 18.0257 28.3505 18.1319 28.3256L20.9262 27.6681L21.9111 29.835C21.9877 30.0035 22.1351 30.124 22.3156 30.1658C22.3608 30.1762 22.4063 30.1814 22.4514 30.1814C22.588 30.1814 22.7208 30.1342 22.8294 30.0446C23.2743 29.6779 23.6753 29.4102 23.9477 29.2427L23.9477 31.499ZM22.0437 26.5339V26.1712L22.5515 26.552C22.8703 26.7911 23.2653 26.9228 23.6638 26.9228H24.7327C25.1312 26.9228 25.5262 26.7911 25.845 26.552L26.3527 26.1712V26.5339L24.1982 28.473L22.0437 26.5339ZM28.4905 31.0092V31.4989H24.4488V29.2426C24.7212 29.4102 25.1222 29.6778 25.5671 30.0446C25.6757 30.1342 25.8085 30.1813 25.9451 30.1813C25.9902 30.1813 26.0357 30.1762 26.0809 30.1657C26.2614 30.124 26.4088 30.0034 26.4854 29.8349L27.4703 27.6681L30.2646 28.3255C30.3708 28.3505 30.4674 28.3957 30.5518 28.4556L29.0168 29.8288C28.6824 30.1293 28.4905 30.5595 28.4905 31.0092ZM30.8955 31.215C30.8955 31.3716 30.7682 31.499 30.6116 31.499H28.9916V31.0092C28.9916 30.7015 29.1228 30.4072 29.3513 30.2019L30.8523 28.8591C30.8802 28.942 30.8955 29.0304 30.8955 29.1222V31.215Z" fill="white"/>
<path d="M30.3794 27.8378L27.6548 27.1968C27.653 27.1514 27.6394 27.1067 27.6134 27.0677L27.2504 26.5232C27.1669 26.398 27.0334 26.3154 26.8841 26.2967C26.874 26.2954 26.8639 26.2952 26.8538 26.2946V25.7955L26.9499 25.7233C27.3238 25.443 27.5732 25.0379 27.6584 24.5861C27.7714 24.4663 27.8548 24.3472 27.9164 24.2378L27.9237 24.2379C27.9291 24.238 27.9345 24.2381 27.9398 24.2381C28.1464 24.2381 28.3408 24.1588 28.4888 24.0137C28.6407 23.8648 28.7243 23.6657 28.7243 23.4531V22.3967C28.7243 22.1866 28.6423 21.9891 28.4935 21.8408C28.4121 21.7596 28.3159 21.6995 28.2112 21.661L28.4559 19.2149C28.4567 19.2066 28.4572 19.1983 28.4572 19.19V18.9228C28.4571 17.3111 27.146 16 25.5344 16H22.8622C21.2505 16 19.9394 17.3111 19.9394 18.9227V19.19C19.9394 19.1983 19.9398 19.2066 19.9407 19.2149L20.1852 21.66C20.0805 21.6986 19.9844 21.7595 19.903 21.8407C19.7542 21.9891 19.6722 22.1865 19.6722 22.3967V23.4531C19.6722 23.6657 19.7558 23.8648 19.9077 24.0136C20.0557 24.1587 20.2501 24.2381 20.4566 24.2381C20.4619 24.2381 20.4673 24.238 20.4727 24.2379L20.7028 24.2335L20.707 24.3244C20.7322 24.8799 21.0018 25.3897 21.4467 25.7233L21.5428 25.7954V26.2945C21.5327 26.2952 21.5226 26.2954 21.5124 26.2966C21.3631 26.3154 21.2297 26.398 21.1462 26.5231L20.7832 27.0677C20.7572 27.1067 20.7435 27.1514 20.7418 27.1967L18.0172 27.8378C17.4183 27.9787 17 28.5069 17 29.1222V31.215C17 31.6479 17.3521 32 17.785 32H30.6117C31.0445 32 31.3967 31.6479 31.3967 31.215V29.1222C31.3966 28.5069 30.9783 27.9787 30.3794 27.8378ZM27.1192 27.2297L26.0293 29.6276C26.0135 29.6624 25.9841 29.6739 25.9679 29.6776C25.9509 29.6815 25.9176 29.6842 25.8858 29.658C25.3685 29.2315 24.9118 28.9344 24.6251 28.7629L26.8084 26.7979C26.8099 26.7965 26.814 26.7928 26.8216 26.7937C26.8292 26.7947 26.8323 26.7993 26.8334 26.8011L27.1192 27.2297ZM28.2232 22.3967V23.4531H28.2233C28.2233 23.53 28.1931 23.602 28.1381 23.6558C28.0832 23.7097 28.0108 23.7384 27.9336 23.737L27.7164 23.7327L27.7503 22.9874L27.7901 22.1132L27.9384 22.1128H27.9393C28.015 22.1128 28.0862 22.1422 28.1397 22.1956C28.1936 22.2492 28.2232 22.3207 28.2232 22.3967ZM20.4628 23.7369C20.3855 23.7385 20.3133 23.7097 20.2584 23.6558C20.2034 23.602 20.1732 23.53 20.1732 23.4531V22.3967C20.1732 22.3207 20.2028 22.2492 20.2567 22.1956C20.3103 22.1421 20.3814 22.1127 20.4572 22.1127H20.4582L20.6064 22.1131L20.6268 22.5605L20.6801 23.7328L20.4628 23.7369ZM20.6838 21.6117L20.4404 19.1775V18.9227C20.4404 17.5874 21.5268 16.501 22.8622 16.501H25.5344C26.8697 16.501 27.9561 17.5874 27.9561 18.9227V19.1775L27.7127 21.6117H27.6059L27.1151 19.4028C27.0978 19.3252 27.0447 19.2603 26.9719 19.2281C26.8991 19.1959 26.8153 19.2002 26.7463 19.2397C24.9558 20.2627 21.5602 20.2756 21.526 20.2756C21.4236 20.2756 21.3315 20.338 21.2935 20.4331L20.822 21.6117H20.6838ZM21.2074 24.3016L21.1922 23.9675C21.1922 23.9673 21.1922 23.9671 21.1922 23.9669L21.1268 22.5288L21.1045 22.0366C21.1802 21.9864 21.2408 21.9136 21.2763 21.8247L21.6964 20.7746C22.3898 20.7606 24.9871 20.653 26.6968 19.8308L27.1241 21.754C27.1484 21.8633 27.2096 21.9552 27.2927 22.0188L27.2478 23.0062L27.2041 23.9669C27.2041 23.967 27.2041 23.9671 27.2041 23.9672L27.1889 24.3017C27.1882 24.3172 27.1868 24.3326 27.1855 24.3481C26.8553 24.6363 26.2634 24.9118 25.2048 24.9648C25.1097 24.723 24.8743 24.5512 24.5991 24.5512H24.3318C23.9727 24.5512 23.6805 24.8434 23.6805 25.2025C23.6805 25.5617 23.9727 25.8538 24.3318 25.8538H24.5991C24.8639 25.8538 25.0919 25.6947 25.1936 25.4672C25.9116 25.4345 26.4518 25.3038 26.8582 25.128C26.7962 25.1992 26.7264 25.2645 26.6493 25.3224L25.5443 26.1511C25.3117 26.3256 25.0235 26.4217 24.7327 26.4217H23.6637C23.3729 26.4217 23.0847 26.3256 22.8521 26.1511L21.7472 25.3224C21.4226 25.0791 21.2259 24.7069 21.2074 24.3016ZM24.7494 25.2025C24.7494 25.2854 24.682 25.3528 24.5991 25.3528H24.3319C24.249 25.3528 24.1816 25.2854 24.1816 25.2025C24.1816 25.1196 24.249 25.0522 24.3319 25.0522H24.5991C24.682 25.0522 24.7494 25.1196 24.7494 25.2025ZM21.5631 26.8011C21.5642 26.7993 21.5673 26.7947 21.5748 26.7937C21.5823 26.7928 21.5865 26.7965 21.5881 26.7979L23.7713 28.7629C23.4846 28.9344 23.028 29.2315 22.5107 29.658C22.4789 29.6842 22.4456 29.6816 22.4285 29.6776C22.4124 29.6739 22.383 29.6624 22.3672 29.6276L21.2772 27.2297L21.5631 26.8011ZM19.4049 31.499H17.7849C17.6283 31.499 17.5009 31.3716 17.5009 31.215V29.1222C17.5009 29.0304 17.5163 28.942 17.5442 28.8591L19.0447 30.2016C19.2736 30.4071 19.4049 30.7015 19.4049 31.0092L19.4049 31.499ZM23.9477 31.499H19.906V31.0092C19.906 30.5596 19.7141 30.1293 19.3793 29.8285L17.8447 28.4556C17.9291 28.3957 18.0257 28.3505 18.1319 28.3256L20.9262 27.6681L21.9111 29.835C21.9877 30.0035 22.1351 30.124 22.3156 30.1658C22.3608 30.1762 22.4063 30.1814 22.4514 30.1814C22.588 30.1814 22.7208 30.1342 22.8294 30.0446C23.2743 29.6779 23.6753 29.4102 23.9477 29.2427L23.9477 31.499ZM22.0437 26.5339V26.1712L22.5515 26.552C22.8703 26.7911 23.2653 26.9228 23.6638 26.9228H24.7327C25.1312 26.9228 25.5262 26.7911 25.845 26.552L26.3527 26.1712V26.5339L24.1982 28.473L22.0437 26.5339ZM28.4905 31.0092V31.4989H24.4488V29.2426C24.7212 29.4102 25.1222 29.6778 25.5671 30.0446C25.6757 30.1342 25.8085 30.1813 25.9451 30.1813C25.9902 30.1813 26.0357 30.1762 26.0809 30.1657C26.2614 30.124 26.4088 30.0034 26.4854 29.8349L27.4703 27.6681L30.2646 28.3255C30.3708 28.3505 30.4674 28.3957 30.5518 28.4556L29.0168 29.8288C28.6824 30.1293 28.4905 30.5595 28.4905 31.0092ZM30.8955 31.215C30.8955 31.3716 30.7682 31.499 30.6116 31.499H28.9916V31.0092C28.9916 30.7015 29.1228 30.4072 29.3513 30.2019L30.8523 28.8591C30.8802 28.942 30.8955 29.0304 30.8955 29.1222V31.215Z" stroke="#373737" mask="url(#path-3-outside-1_2817_7944)"/>
</g>
<defs>
<filter id="filter0_b_2817_7944" x="-7" y="-7" width="63" height="63" filterUnits="userSpaceOnUse" color-interpolation-filters="sRGB">
<feFlood flood-opacity="0" result="BackgroundImageFix"/>
<feGaussianBlur in="BackgroundImageFix" stdDeviation="3.5"/>
<feComposite in2="SourceAlpha" operator="in" result="effect1_backgroundBlur_2817_7944"/>
<feBlend mode="normal" in="SourceGraphic" in2="effect1_backgroundBlur_2817_7944" result="shape"/>
</filter>
</defs>
</svg>
