<svg width="49" height="49" viewBox="0 0 49 49" fill="none" xmlns="http://www.w3.org/2000/svg">
<g filter="url(#filter0_b_3008_4992)">
<rect width="49" height="49" rx="15" fill="white" fill-opacity="0.03"/>
<rect x="0.5" y="0.5" width="48" height="48" rx="14.5" stroke="#D1D9E2" stroke-opacity="0.3"/>
</g>
<path d="M24.0186 16.2286C23.8054 16.4361 23.7896 16.4975 23.7896 16.9893V17.5271L23.4975 17.627C23.0318 17.773 22.5976 17.9958 22.2265 18.2878L21.8871 18.5567L21.4292 18.3185C21.1687 18.1879 20.8845 18.0803 20.7976 18.0803C20.5292 18.0803 20.1976 18.2801 20.095 18.5029C19.874 18.9639 20.0319 19.2943 20.6397 19.6477C21.0029 19.8629 21.0581 19.9243 21.0266 20.0857C21.0029 20.1856 20.9871 20.6005 20.9871 21C20.9871 21.3995 21.0029 21.8144 21.0266 21.9143C21.0581 22.0757 21.0029 22.1371 20.6397 22.3523C20.0319 22.7057 19.874 23.0361 20.095 23.4971C20.1976 23.7199 20.5292 23.9197 20.7976 23.9197C20.8845 23.9197 21.1687 23.8121 21.4292 23.6815L21.8871 23.4433L22.2265 23.7122C22.5976 24.0042 23.0318 24.227 23.4975 24.373L23.7896 24.4729V25.0107C23.7896 25.5025 23.8054 25.5639 24.0186 25.7714C24.3344 26.071 24.7212 26.0787 25.0606 25.7791C25.2817 25.587 25.3133 25.5101 25.3527 25.003C25.3843 24.5805 25.4238 24.4345 25.5185 24.4114C25.8738 24.3039 26.6474 23.9043 26.8922 23.6892L27.1764 23.451L27.6027 23.6892C27.8316 23.8121 28.1079 23.9197 28.2027 23.9197C28.6211 23.9197 29 23.5509 29 23.1437C29 22.8517 28.7711 22.5674 28.3842 22.36L27.9895 22.1525L28.0684 21.8605C28.179 21.4917 28.179 20.5083 28.0684 20.1395L27.9895 19.8475L28.3842 19.64C28.7711 19.4326 29 19.1483 29 18.8563C29 18.4491 28.6211 18.0803 28.2027 18.0803C28.1079 18.0803 27.8316 18.1879 27.6027 18.3108L27.1764 18.549L26.8922 18.3108C26.6474 18.0957 25.8738 17.6961 25.5185 17.5886C25.4238 17.5655 25.3843 17.4195 25.3527 16.997C25.3133 16.4899 25.2817 16.413 25.0606 16.2209C24.7212 15.9213 24.3344 15.929 24.0186 16.2286ZM25.2185 19.1176C26.0159 19.3865 26.5764 20.1625 26.5764 21C26.5764 21.5532 26.2764 22.1986 25.858 22.5367C24.808 23.3818 23.1739 22.9746 22.637 21.7299C22.5107 21.4226 22.487 20.6466 22.6134 20.3315C23.0002 19.3173 24.1686 18.7718 25.2185 19.1176Z" fill="white"/>
<path d="M15.7846 26.1099C14.8402 26.2621 14.2572 26.4903 14.1093 26.749C13.8712 27.1751 14.0354 27.6468 14.4871 27.8142C14.7088 27.9055 14.832 27.8979 15.4561 27.7457C15.8421 27.6468 16.4333 27.5555 16.7536 27.5327C17.5091 27.4794 17.9525 27.6164 19.4635 28.3925C21.9106 29.6555 23.6351 30.0511 25.8031 29.8609C26.8049 29.7772 27.1498 29.8457 27.3305 30.1728C27.4865 30.4544 27.4865 30.7054 27.3223 30.9185C26.9035 31.4739 25.179 31.6945 23.4298 31.4206C23.0028 31.3522 22.5594 31.2989 22.4444 31.3065C21.7382 31.3369 21.4672 32.2804 22.0584 32.6456C22.3705 32.8282 23.2902 32.988 24.4153 33.0336C26.5832 33.1325 29.0057 32.7065 32.0359 31.6869C32.7503 31.4435 32.8078 31.4359 33.0213 31.5424C33.3251 31.7021 33.4401 32.0217 33.2841 32.288C33.1199 32.5619 31.4282 33.338 30.1225 33.7412C25.9509 35.0194 22.2309 34.7227 17.8458 32.7521C16.4744 32.1358 15.7928 31.9228 15.1523 31.9228C14.405 31.9228 13.9205 32.2956 14.0108 32.813C14.0929 33.2771 14.2982 33.3988 15.0948 33.4521C15.7271 33.4977 15.8749 33.5434 16.7043 33.939C18.6423 34.8521 20.5639 35.476 22.5265 35.8183C23.8979 36.0618 26.4682 36.0618 27.9792 35.8107C29.8105 35.514 31.1983 35.0879 32.931 34.3042C33.7604 33.9238 34.0971 33.7336 34.3763 33.4521C35.2549 32.5847 35.1975 31.3065 34.2531 30.5228C33.8179 30.1576 33.2512 29.9446 32.7175 29.9446C32.5532 29.9446 31.9948 30.0891 31.4775 30.2565C30.9601 30.4315 30.2128 30.6598 29.8269 30.7815L29.1125 30.9869L29.0796 30.4467C29.0139 29.5642 28.5458 28.8946 27.7246 28.5294C27.2319 28.3012 27.2319 28.3012 24.949 28.3392C23.1342 28.3696 22.6661 28.2327 19.4881 26.7034C18.8804 26.4143 18.1824 26.1327 17.9443 26.0795C17.3859 25.9654 16.5811 25.973 15.7846 26.1099Z" fill="white"/>
<defs>
<filter id="filter0_b_3008_4992" x="-7" y="-7" width="63" height="63" filterUnits="userSpaceOnUse" color-interpolation-filters="sRGB">
<feFlood flood-opacity="0" result="BackgroundImageFix"/>
<feGaussianBlur in="BackgroundImageFix" stdDeviation="3.5"/>
<feComposite in2="SourceAlpha" operator="in" result="effect1_backgroundBlur_3008_4992"/>
<feBlend mode="normal" in="SourceGraphic" in2="effect1_backgroundBlur_3008_4992" result="shape"/>
</filter>
</defs>
</svg>
