<svg width="7" height="12" viewBox="0 0 7 12" fill="none" xmlns="http://www.w3.org/2000/svg">
<path d="M3.2627 11.7783C3.33287 11.8486 3.41636 11.9043 3.50834 11.9424C3.60033 11.9804 3.69899 12 3.79865 12C3.8983 12 3.99696 11.9804 4.08895 11.9424C4.18093 11.9043 4.26442 11.8486 4.33459 11.7783L6.59917 9.52994C6.74131 9.38882 6.82117 9.19741 6.82117 8.99783C6.82117 8.79825 6.74131 8.60684 6.59917 8.46571C6.45703 8.32459 6.26424 8.2453 6.06322 8.2453C5.8622 8.2453 5.66941 8.32459 5.52727 8.46571L3.79865 10.1895L2.07002 8.46571C1.92788 8.32459 1.73509 8.2453 1.53407 8.2453C1.33305 8.2453 1.14026 8.32459 0.998121 8.46571C0.855978 8.60684 0.776123 8.79825 0.776123 8.99783C0.776123 9.19741 0.855978 9.38882 0.998121 9.52994L3.2627 11.7783ZM4.33459 0.221689C4.26442 0.151443 4.18093 0.0956882 4.08895 0.0576393C3.99696 0.0195904 3.8983 0 3.79865 0C3.69899 0 3.60033 0.0195904 3.50834 0.0576393C3.41636 0.0956882 3.33287 0.151443 3.2627 0.221689L0.998121 2.47006C0.855978 2.61118 0.776123 2.80259 0.776123 3.00217C0.776123 3.20175 0.855978 3.39316 0.998121 3.53429C1.14026 3.67541 1.33305 3.7547 1.53407 3.7547C1.73509 3.7547 1.92788 3.67541 2.07002 3.53429L3.79865 1.81054L5.52727 3.53429C5.59744 3.60453 5.68093 3.66029 5.77292 3.69834C5.86491 3.73639 5.96357 3.75598 6.06322 3.75598C6.16287 3.75598 6.26153 3.73639 6.35352 3.69834C6.44551 3.66029 6.529 3.60453 6.59917 3.53429C6.66992 3.46461 6.72608 3.38172 6.7644 3.2904C6.80272 3.19907 6.82246 3.10111 6.82246 3.00217C6.82246 2.90324 6.80272 2.80528 6.7644 2.71395C6.72608 2.62262 6.66992 2.53973 6.59917 2.47006L4.33459 0.221689Z" fill="#393E44"/>
</svg>
