<svg width="49" height="49" viewBox="0 0 49 49" fill="none" xmlns="http://www.w3.org/2000/svg">
<g filter="url(#filter0_b_2817_7941)">
<rect width="49" height="49" rx="15" fill="white" fill-opacity="0.03"/>
<rect x="0.5" y="0.5" width="48" height="48" rx="14.5" stroke="#D1D9E2" stroke-opacity="0.3"/>
<path d="M24.3791 15.75C23.8202 15.75 23.3672 16.2031 23.3672 16.7619V19.8095C23.3672 20.3684 23.8202 20.8214 24.3791 20.8214C24.9379 20.8214 25.391 20.3684 25.391 19.8095V16.7619C25.391 16.2031 24.9379 15.75 24.3791 15.75Z" fill="white" stroke="#373737" stroke-width="0.5"/>
<path d="M24.3791 28.7031C23.8202 28.7031 23.3672 29.1562 23.3672 29.715V31.2388C23.3672 31.7977 23.8202 32.2507 24.3791 32.2507C24.9379 32.2507 25.391 31.7977 25.391 31.2388V29.715C25.391 29.1562 24.9379 28.7031 24.3791 28.7031Z" fill="white" stroke="#373737" stroke-width="0.5"/>
<path d="M31.997 23.3691H28.9494C28.3906 23.3691 27.9375 23.8222 27.9375 24.381C27.9375 24.9399 28.3906 25.393 28.9494 25.393H31.997C32.5559 25.393 33.0089 24.9399 33.0089 24.381C33.0089 23.8222 32.5559 23.3691 31.997 23.3691Z" fill="white" stroke="#373737" stroke-width="0.5"/>
<path d="M20.8214 24.381C20.8214 23.8222 20.3684 23.3691 19.8095 23.3691H16.7619C16.2031 23.3691 15.75 23.8222 15.75 24.381C15.75 24.9399 16.2031 25.393 16.7619 25.393H19.8095C20.3684 25.393 20.8214 24.9399 20.8214 24.381Z" fill="white" stroke="#373737" stroke-width="0.5"/>
<path d="M29.053 18.2788C29.4481 17.8836 30.0889 17.8836 30.484 18.2788L29.053 18.2788ZM29.053 18.2788L26.8979 20.4338C26.5028 20.829 26.5028 21.4697 26.8979 21.8649C27.0955 22.0624 27.3549 22.1613 27.6134 22.1613C27.872 22.1613 28.1315 22.0625 28.329 21.8648L30.484 19.7098C30.8792 19.3147 30.8792 18.674 30.484 18.2788L29.053 18.2788Z" fill="white" stroke="#373737" stroke-width="0.5"/>
<path d="M20.4357 26.8979L20.4356 26.898L18.2807 29.053L18.2807 29.053C17.8856 29.4482 17.8856 30.0888 18.2807 30.484L18.2807 30.484C18.4783 30.6816 18.7377 30.7804 18.9963 30.7804C19.2548 30.7804 19.5143 30.6816 19.7118 30.484L19.7118 30.484L21.8668 28.329L21.8668 28.329C22.2619 27.9338 22.2619 27.2931 21.8668 26.898L21.8668 26.8979C21.4715 26.5028 20.8309 26.5028 20.4357 26.8979Z" fill="white" stroke="#373737" stroke-width="0.5"/>
<path d="M19.7118 18.2788L19.7118 18.2788C19.3166 17.8836 18.6759 17.8837 18.2808 18.2788L18.2808 18.2788C17.8856 18.674 17.8856 19.3146 18.2808 19.7098C18.2808 19.7098 18.2808 19.7098 18.2808 19.7098L20.4357 21.8648L20.4358 21.8649C20.6333 22.0624 20.8926 22.1613 21.1513 22.1613C21.4098 22.1613 21.6693 22.0624 21.8668 21.8649C22.262 21.4697 22.262 20.829 21.8668 20.4339C21.8668 20.4339 21.8668 20.4339 21.8668 20.4339L19.7118 18.2788Z" fill="white" stroke="#373737" stroke-width="0.5"/>
</g>
<defs>
<filter id="filter0_b_2817_7941" x="-7" y="-7" width="63" height="63" filterUnits="userSpaceOnUse" color-interpolation-filters="sRGB">
<feFlood flood-opacity="0" result="BackgroundImageFix"/>
<feGaussianBlur in="BackgroundImageFix" stdDeviation="3.5"/>
<feComposite in2="SourceAlpha" operator="in" result="effect1_backgroundBlur_2817_7941"/>
<feBlend mode="normal" in="SourceGraphic" in2="effect1_backgroundBlur_2817_7941" result="shape"/>
</filter>
</defs>
</svg>
