<svg width="18" height="18" viewBox="0 0 18 18" fill="none" xmlns="http://www.w3.org/2000/svg">
<path d="M4.30273 5.82422H12.9114C13.2802 5.82422 13.5794 5.52504 13.5794 5.15625C13.5794 4.78746 13.2802 4.48828 12.9114 4.48828H4.30273C3.93395 4.48828 3.63477 4.78746 3.63477 5.15625C3.63477 5.52504 3.93395 5.82422 4.30273 5.82422Z" fill="white"/>
<path d="M10.08 9.32031C10.08 8.95152 9.78078 8.65234 9.41199 8.65234H4.30273C3.93395 8.65234 3.63477 8.95152 3.63477 9.32031C3.63477 9.6891 3.93395 9.98828 4.30273 9.98828H9.41199C9.78078 9.98828 10.08 9.6891 10.08 9.32031Z" fill="white"/>
<path d="M17.1081 11.3804C17.1798 10.5954 17.228 9.68062 17.229 8.61434C17.2269 6.60797 17.0585 5.13879 16.8789 4.05914C16.5646 2.28023 14.9488 0.664453 13.1699 0.350156C12.0902 0.170508 10.6211 0.00210937 8.61434 0C6.60797 0.00210937 5.13844 0.170508 4.05879 0.350156C2.28023 0.664453 0.664453 2.28023 0.350156 4.05914C0.170508 5.13879 0.00246094 6.60797 0 8.61434C0.00246094 10.6207 0.170508 12.0902 0.350156 13.1699C0.664453 14.9488 2.28023 16.5646 4.05914 16.8789C5.13879 17.0585 6.60797 17.2266 8.61469 17.229C9.68062 17.228 10.5954 17.1798 11.3801 17.1081C12.0776 17.666 12.9621 18 13.9247 18C16.1754 18 18.0004 16.1754 18.0004 13.9247C18.0004 12.9621 17.6664 12.0776 17.1084 11.3804H17.1081ZM8.61469 15.8931C7.03195 15.8913 5.61586 15.783 4.2859 15.5623C3.69492 15.4564 3.09621 15.1249 2.60016 14.6289C2.1041 14.1328 1.77293 13.5345 1.66676 12.9431C1.44598 11.6146 1.33805 10.1985 1.33594 8.61434C1.3377 7.0309 1.44598 5.6148 1.66676 4.28555C1.77258 3.69457 2.1041 3.09621 2.60016 2.60016C3.09621 2.1041 3.69457 1.77293 4.2859 1.66676C5.61516 1.44598 7.03125 1.33805 8.61469 1.33594C10.1974 1.3377 11.6135 1.44598 12.9435 1.66676C13.5345 1.77258 14.1328 2.1041 14.6292 2.60016C15.1253 3.09621 15.4564 3.69457 15.5626 4.2859C15.7834 5.61586 15.8913 7.0316 15.8934 8.61469C15.8927 9.20883 15.8766 9.77871 15.8456 10.33C15.2733 10.0234 14.6194 9.84973 13.9247 9.84973C11.674 9.84973 9.84902 11.6743 9.84902 13.925C9.84902 14.6197 10.023 15.2733 10.3293 15.8456C9.77801 15.8766 9.20813 15.8927 8.61434 15.8931H8.61469ZM13.9247 16.6641C12.414 16.6641 11.185 15.4354 11.185 13.9247C11.185 12.414 12.414 11.1853 13.9247 11.1853C15.4354 11.1853 16.6644 12.414 16.6644 13.9247C16.6644 15.4354 15.4354 16.6641 13.9247 16.6641Z" fill="white"/>
<path d="M14.2838 14.7071C14.1987 14.693 14.0831 14.6797 13.9252 14.6797C13.7674 14.6797 13.6517 14.693 13.5666 14.7071C13.4267 14.7317 13.2995 14.859 13.2745 14.9993C13.2604 15.0843 13.2471 15.2 13.2471 15.3579C13.2471 15.5157 13.2604 15.6314 13.2745 15.7164C13.2991 15.8564 13.4264 15.9836 13.5666 16.0086C13.6517 16.0227 13.7674 16.036 13.9252 16.036C14.0831 16.036 14.1987 16.0227 14.2838 16.0086C14.4237 15.984 14.551 15.8567 14.576 15.7164C14.59 15.6314 14.6034 15.5157 14.6034 15.3579C14.6034 15.2 14.59 15.0843 14.576 14.9993C14.5514 14.8593 14.4241 14.7321 14.2838 14.7071Z" fill="white"/>
<path d="M13.9238 14.2551C14.2926 14.2551 14.5918 13.9559 14.5918 13.5871V12.4727C14.5918 12.1039 14.2926 11.8047 13.9238 11.8047C13.555 11.8047 13.2559 12.1039 13.2559 12.4727V13.5871C13.2559 13.9559 13.555 14.2551 13.9238 14.2551Z" fill="white"/>
</svg>
