<svg width="13" height="13" viewBox="0 0 13 13" fill="none" xmlns="http://www.w3.org/2000/svg">
<path d="M5.84868 0.0077343C4.14165 0.190904 2.59489 1.00753 1.50605 2.30498C0.740307 3.21573 0.264577 4.2486 0.0534242 5.45955C0.00508802 5.73685 0 5.87168 0 6.5026C0 7.13351 0.00508802 7.26834 0.0534242 7.54564C0.292561 8.91941 0.867508 10.0566 1.81642 11.0411C2.79078 12.0536 4.01954 12.6947 5.45436 12.9466C5.73166 12.9949 5.86649 13 6.4974 13C7.29368 13 7.53282 12.9746 8.15864 12.8143C10.4025 12.2343 12.2291 10.4077 12.8091 8.16383C12.9694 7.53801 12.9948 7.29887 12.9948 6.5026C12.9948 5.70632 12.9694 5.46718 12.8091 4.84136C12.2291 2.60008 10.4025 0.770938 8.15864 0.190904C7.58115 0.0433512 7.30894 0.0102787 6.59916 0.00264645C6.243 -0.00244141 5.90465 0.000102997 5.84868 0.0077343ZM7.28605 1.07113C8.52244 1.26956 9.49679 1.76565 10.3643 2.6357C11.1224 3.39127 11.621 4.28422 11.85 5.28147C12.0281 6.06757 12.0281 6.93762 11.85 7.72372C11.5422 9.07713 10.6976 10.283 9.48153 11.1022C9.01343 11.4176 8.30365 11.7204 7.71853 11.8552C6.93243 12.0333 6.06238 12.0333 5.27628 11.8552C3.92286 11.5474 2.717 10.7028 1.89783 9.48672C1.58237 9.01862 1.27964 8.30884 1.1448 7.72372C0.966724 6.93762 0.966724 6.06757 1.1448 5.28147C1.37377 4.28422 1.87239 3.39127 2.63051 2.6357C3.5896 1.67406 4.68607 1.16526 6.10308 1.02279C6.30406 1.00244 7.04945 1.03297 7.28605 1.07113Z" fill="#1B1D21"/>
<path d="M6.38285 3.01476C6.24293 3.05038 6.14117 3.11907 6.06993 3.22592L6.00125 3.33276L5.99361 4.99909L5.98853 6.66796L6.04449 6.78244C6.09537 6.88166 6.23021 6.9936 7.10789 7.65504C7.65994 8.07226 8.17129 8.44623 8.23998 8.48947C8.35191 8.55816 8.38498 8.56579 8.53508 8.55816C8.83782 8.5429 9.02353 8.3521 9.02353 8.0519C9.02353 7.79242 9.01081 7.77715 7.95759 6.98596L7.00613 6.27364L7.00104 4.8032L6.99341 3.33276L6.92218 3.22592C6.81533 3.06055 6.57365 2.96643 6.38285 3.01476Z" fill="#1B1D21"/>
</svg>
