<svg width="14" height="15" viewBox="0 0 14 15" fill="none" xmlns="http://www.w3.org/2000/svg">
<path d="M5.72908 8.0059H5.16066C4.98698 8.0059 4.8133 7.92695 4.70277 7.80064C4.57645 7.67432 4.52908 7.50064 4.54487 7.31116C4.57645 6.99537 4.86066 6.75853 5.20803 6.75853H5.8554C6.04487 6.75853 6.20277 6.88485 6.25014 7.07432C6.28172 7.18485 6.37645 7.27958 6.50277 7.27958H7.24487C7.32382 7.27958 7.38698 7.24801 7.43435 7.18485C7.48172 7.13748 7.51329 7.05853 7.49751 6.99537C7.41856 6.22169 6.81856 5.62169 6.06066 5.52695V4.89537C6.06066 4.75327 5.95014 4.62695 5.79224 4.62695H5.05014C4.90803 4.62695 4.78172 4.73748 4.78172 4.89537V5.54274C3.81856 5.71643 3.1554 6.60064 3.26593 7.57958C3.36066 8.52695 4.2133 9.26906 5.22382 9.26906H5.69751C5.87119 9.26906 6.04487 9.34801 6.1554 9.47432C6.28172 9.60064 6.32908 9.77432 6.31329 9.96379C6.28172 10.2796 5.99751 10.5164 5.65014 10.5164H5.00277C4.8133 10.5164 4.6554 10.3901 4.60803 10.2006C4.57645 10.0901 4.48172 9.99537 4.3554 9.99537H3.6133C3.53435 9.99537 3.47119 10.027 3.40803 10.0901C3.36066 10.1375 3.32908 10.2164 3.34487 10.2796C3.42382 11.0533 4.02382 11.6533 4.78172 11.748V12.3796C4.78172 12.5217 4.89224 12.648 5.05014 12.648H5.79224C5.93435 12.648 6.06066 12.5375 6.06066 12.3796V11.7164C6.88172 11.5427 7.51329 10.8796 7.57645 10.0743C7.62382 9.53748 7.46593 9.01643 7.10277 8.62169C6.7554 8.24274 6.25014 8.0059 5.72908 8.0059Z" fill="white"/>
<path d="M13.0248 2.79474C13.0248 1.24737 11.7775 0 10.2301 0C8.8722 0 7.73536 0.978947 7.48273 2.27368H0.661678C0.377467 2.27368 0.140625 2.49474 0.140625 2.79474V14.4789C0.140625 14.7632 0.361678 15 0.661678 15H10.2301C10.5143 15 10.7512 14.7789 10.7512 14.4789V5.5421C12.0459 5.28947 13.0248 4.15263 13.0248 2.79474ZM11.9985 2.79474C11.9985 3.09474 11.9196 3.36316 11.7933 3.61579L9.42484 1.24737C9.66168 1.12105 9.9301 1.02632 10.2301 1.02632C11.1933 1.02632 11.9985 1.81579 11.9985 2.79474ZM8.46168 2.79474C8.46168 2.49474 8.54062 2.22632 8.66694 1.97368L11.0354 4.3421C10.7827 4.46842 10.5143 4.54737 10.2143 4.54737C9.25115 4.56316 8.46168 3.75789 8.46168 2.79474ZM1.16694 13.9737V3.31579H7.48273C7.68799 4.43684 8.58799 5.32105 9.70905 5.5421V13.9737H1.16694Z" fill="white"/>
</svg>
