<svg width="25" height="28" viewBox="0 0 25 28" fill="none" xmlns="http://www.w3.org/2000/svg">
<path id="Vector" d="M16.079 0.474275C14.3082 0.189833 12.3815 0.409115 10.7006 1.09229C8.55819 1.97074 6.73469 3.61608 5.65506 5.6596C5.40948 6.12563 4.98292 7.32117 3.1643 12.695C1.73252 16.9257 0.953982 19.3127 0.913262 19.5845C0.81151 20.253 0.824381 21.2751 0.955185 21.9271C1.32374 23.8237 2.27544 25.2953 3.89094 26.4497C4.38497 26.8073 4.50535 26.8627 5.63529 27.2451C6.94696 27.6963 7.34365 27.7573 8.43841 27.6812C10.3734 27.5453 12.3105 26.4948 13.5151 24.9256C14.1704 24.071 14.2459 23.8696 16.2002 18.0951C17.4007 14.5476 18.0481 12.5481 18.0888 12.2763C18.195 11.5947 18.0435 10.6795 17.7088 10.0024C17.3872 9.35179 17.0295 8.91589 16.4569 8.46586C15.9171 8.04888 14.774 7.66203 14.0919 7.66549C13.3637 7.67532 12.8148 7.8044 12.1642 8.12602C11.4673 8.47594 10.7999 9.10672 10.4615 9.73901C10.3177 10.0125 9.75102 11.6219 8.71478 14.7272C7.21156 19.2339 7.18489 19.3127 7.26059 19.5434C7.34702 19.8289 7.7421 20.2408 8.01802 20.3342C8.35306 20.4476 8.86244 20.3271 9.14441 20.0564L9.3911 19.8251L10.8962 15.3775C12.6059 10.3256 12.5173 10.5226 13.2383 10.1662C13.7307 9.92284 14.3361 9.90807 14.7737 10.1294C15.3886 10.4327 15.861 11.2003 15.8296 11.834C15.8157 12.005 15.1883 13.9453 14.0278 17.3745C12.0313 23.2739 12.0823 23.1447 11.2846 23.9657C10.011 25.2627 8.13595 25.7191 6.4191 25.1454C5.72274 24.9097 5.40113 24.735 4.8505 24.285C3.65312 23.3014 3.05445 21.8467 3.14556 20.1496C3.16465 19.8119 3.43841 18.9381 5.04844 14.0941C7.10313 7.93619 7.44946 7.02101 8.07442 6.08298C8.8142 4.9788 9.85354 4.07118 11.078 3.46048C14.9181 1.56776 19.5036 3.11959 21.4051 6.95544C22.2417 8.659 22.4222 10.4407 21.9529 12.3467C21.839 12.7914 21.0004 15.3777 20.0821 18.0909L18.4125 23.0245L18.4902 23.2925C18.6131 23.7514 18.7899 23.943 19.2235 24.0898C19.6593 24.2299 19.9139 24.1916 20.2968 23.9039L20.5147 23.736L22.3956 18.1782C24.4299 12.1672 24.45 12.0861 24.5154 10.7244C24.5474 9.95915 24.4 8.62062 24.1888 7.81694C23.4925 5.15778 21.6412 2.81793 19.206 1.53254C18.5234 1.16974 16.8219 0.593914 16.079 0.474275Z" fill="black"/>
</svg>
