<svg width="20" height="15" viewBox="0 0 20 15" fill="none" xmlns="http://www.w3.org/2000/svg">
<path d="M5.96367 8.74197C7.74973 8.74197 9.20272 7.28879 9.20272 5.50273C9.20272 3.71666 7.74973 2.26367 5.96367 2.26367C4.1776 2.26367 2.72461 3.71666 2.72461 5.50273C2.72461 7.2888 4.1776 8.74197 5.96367 8.74197ZM5.96367 3.43307C7.10489 3.43307 8.03333 4.3615 8.03333 5.50273C8.03333 6.64414 7.10489 7.57258 5.96367 7.57258C4.82244 7.57258 3.894 6.64414 3.894 5.50273C3.894 4.3615 4.82244 3.43307 5.96367 3.43307Z" fill="#333333"/>
<path d="M0.481019 14.9902C0.798111 15.0467 1.10302 14.8362 1.16012 14.5186C1.57885 12.1954 3.59941 10.5092 5.96446 10.5092C8.3297 10.5092 10.3503 12.1954 10.7688 14.5186C10.8196 14.8012 11.0659 14.9997 11.3434 14.9997C11.3779 14.9997 11.4127 14.9967 11.4479 14.9902C11.7656 14.9331 11.9768 14.629 11.9195 14.3111C11.4007 11.4306 8.89613 9.33984 5.96446 9.33984C3.03298 9.33984 0.528412 11.4306 0.00937917 14.3111C-0.0479108 14.629 0.163167 14.9329 0.481019 14.9902Z" fill="#333333"/>
<path d="M13.4482 6.4783C15.2343 6.4783 16.6873 5.02512 16.6873 3.23906C16.6873 1.45299 15.2343 0 13.4482 0C11.6622 0 10.209 1.45299 10.209 3.23906C10.209 5.02512 11.6622 6.4783 13.4482 6.4783ZM13.4482 1.16939C14.5895 1.16939 15.5179 2.09783 15.5179 3.23906C15.5179 4.38047 14.5895 5.30891 13.4482 5.30891C12.307 5.30891 11.3784 4.38047 11.3784 3.23906C11.3784 2.09783 12.307 1.16939 13.4482 1.16939Z" fill="#333333"/>
<path d="M11.0477 8.87632C11.7765 8.46369 12.6067 8.24557 13.4488 8.24557C15.8138 8.24557 17.8344 9.93171 18.2531 12.2549C18.3039 12.5375 18.5502 12.736 18.8277 12.736C18.8622 12.736 18.8972 12.7328 18.9322 12.7265C19.2501 12.6692 19.4611 12.3653 19.4038 12.0474C18.8848 9.16696 16.3802 7.07617 13.4488 7.07617C12.4052 7.07617 11.3757 7.34682 10.4714 7.85881C10.1905 8.01793 10.0917 8.37461 10.2508 8.65573C10.4099 8.93666 10.7666 9.03582 11.0477 8.87632Z" fill="#333333"/>
</svg>
