<svg width="14" height="14" viewBox="0 0 14 14" fill="none" xmlns="http://www.w3.org/2000/svg">
<path d="M14 11.8125H0V12.9062H0.984375V14H2.07812V12.9062H6.45312V14H7.54687V12.9062H11.9219V14H13.0156V12.9062H14V11.8125Z" fill="#333333"/>
<path d="M6.45312 5.35938H0.984375V10.8281H6.45312V5.35938ZM5.35938 9.73438H2.07812V6.45312H3.17188V7.54688H4.26562V6.45312H5.35938V9.73438Z" fill="#333333"/>
<path d="M7.54688 10.8281H13.0156V5.35938H7.54688V10.8281ZM8.64062 6.45312H9.73438V7.54688H10.8281V6.45312H11.9219V9.73438H8.64062V6.45312Z" fill="#333333"/>
<path d="M5.35938 1.09375H6.45312V2.1875H7.54688V1.09375H8.64062V4.375H9.73438V0H4.26562V4.375H5.35938V1.09375Z" fill="#333333"/>
</svg>
