<svg width="17" height="15" viewBox="0 0 17 15" fill="none" xmlns="http://www.w3.org/2000/svg">
<path d="M12.857 2.08375C12.6269 1.68518 12.1173 1.54861 11.7187 1.77873L7.90786 3.97892C7.50927 4.20903 6.99961 4.07247 6.76952 3.67389C6.53937 3.27532 6.67594 2.76566 7.07452 2.53553L10.8854 0.335351C12.0811 -0.354999 13.61 0.0546843 14.3004 1.25042L15.3789 3.11848C15.609 3.51706 15.4724 4.02672 15.0739 4.25683C14.6754 4.48696 14.1657 4.35039 13.9355 3.95182L12.857 2.08375Z" fill="white"/>
<path d="M4.99984 10.8346C5.46008 10.8346 5.83317 10.4616 5.83317 10.0013C5.83317 9.54105 5.46008 9.16797 4.99984 9.16797C4.5396 9.16797 4.1665 9.54105 4.1665 10.0013C4.1665 10.4616 4.5396 10.8346 4.99984 10.8346Z" fill="white"/>
<path fill-rule="evenodd" clip-rule="evenodd" d="M4.61801 5C3.85232 5 3.12036 5.33693 2.6321 5.92825L0.567731 8.42825C-0.189244 9.34492 -0.189244 10.6551 0.567731 11.5718L2.6321 14.0718C3.12036 14.6631 3.85232 15 4.61801 15H14.113C15.4982 15 16.6667 13.9054 16.6667 12.5V7.5C16.6667 6.09458 15.4982 5 14.113 5H4.61801ZM3.91725 6.98942C4.08191 6.79 4.33849 6.66667 4.61801 6.66667H14.113C14.628 6.66667 15 7.06442 15 7.5V12.5C15 12.9356 14.628 13.3333 14.113 13.3333H4.61801C4.33849 13.3333 4.08191 13.21 3.91725 13.0106L1.85288 10.5106C1.60459 10.2098 1.60459 9.79017 1.85288 9.48942L3.91725 6.98942Z" fill="white"/>
</svg>
